<svg width="352" height="240" viewBox="0 0 352 240" fill="none" xmlns="http://www.w3.org/2000/svg">
<path d="M175.886 240C273.026 240 351.772 235.402 351.772 229.731C351.772 224.06 273.026 219.462 175.886 219.462C78.7469 219.462 0 224.06 0 229.731C0 235.402 78.7469 240 175.886 240Z" fill="#F5F5F5"/>
<path d="M319.869 230.421H265.913C264.863 230.366 263.857 229.988 263.032 229.339C262.206 228.689 261.603 227.799 261.304 226.792L237.945 139.606C237.797 139.188 237.754 138.741 237.818 138.302C237.882 137.863 238.053 137.447 238.315 137.089C238.577 136.732 238.922 136.444 239.321 136.25C239.72 136.056 240.16 135.963 240.603 135.978H294.569C295.617 136.032 296.622 136.411 297.446 137.061C298.27 137.711 298.871 138.6 299.168 139.606L322.527 226.792C322.675 227.21 322.719 227.658 322.655 228.096C322.59 228.535 322.42 228.951 322.158 229.309C321.896 229.667 321.55 229.955 321.151 230.149C320.753 230.342 320.313 230.436 319.869 230.421Z" fill="#223A74"/>
<path opacity="0.6" d="M319.869 230.421H265.913C264.863 230.366 263.857 229.988 263.032 229.339C262.206 228.689 261.603 227.799 261.304 226.792L237.945 139.606C237.797 139.188 237.754 138.741 237.818 138.302C237.882 137.863 238.053 137.447 238.315 137.089C238.577 136.732 238.922 136.444 239.321 136.25C239.72 136.056 240.16 135.963 240.603 135.978H294.569C295.617 136.032 296.622 136.411 297.446 137.061C298.27 137.711 298.871 138.6 299.168 139.606L322.527 226.792C322.675 227.21 322.719 227.658 322.655 228.096C322.59 228.535 322.42 228.951 322.158 229.309C321.896 229.667 321.55 229.955 321.151 230.149C320.753 230.342 320.313 230.436 319.869 230.421Z" fill="white"/>
<path d="M265.413 226.157L242.408 140.296H295.059L318.064 226.157H265.413Z" fill="#223A74"/>
<path opacity="0.4" d="M298.911 185.699C301.068 169.317 294.461 154.937 284.154 153.58C273.847 152.223 263.743 164.403 261.587 180.785C259.43 197.167 266.037 211.547 276.344 212.904C286.651 214.261 296.754 202.081 298.911 185.699Z" fill="white"/>
<path d="M274.513 161.859L264.57 175.429H272.218L273.841 181.489H285.707L284.083 175.429H291.73L274.513 161.859Z" fill="white"/>
<path d="M275.628 188.148H287.485L286.16 183.195H274.295L275.628 188.148Z" fill="white"/>
<path d="M276.878 192.819H288.735L288.091 190.415H276.234L276.878 192.819Z" fill="white"/>
<path d="M278.005 197.038H289.871L289.58 195.94H277.715L278.005 197.038Z" fill="white"/>
<path d="M279.51 202.662H291.376L291.231 202.109H279.365L279.51 202.662Z" fill="white"/>
<path opacity="0.2" d="M319.869 230.42H265.912C264.863 230.366 263.857 229.988 263.032 229.338C262.206 228.689 261.603 227.799 261.304 226.792L250.618 186.878L237.918 139.57C237.77 139.152 237.726 138.704 237.791 138.266C237.855 137.827 238.026 137.411 238.288 137.053C238.55 136.695 238.895 136.407 239.294 136.213C239.693 136.02 240.133 135.926 240.576 135.941H294.542C295.59 135.996 296.595 136.374 297.418 137.024C298.242 137.674 298.844 138.564 299.141 139.57L306.126 165.632L322.455 226.756C322.608 227.17 322.658 227.615 322.601 228.052C322.543 228.49 322.38 228.907 322.126 229.268C321.871 229.629 321.533 229.922 321.14 230.123C320.747 230.324 320.311 230.426 319.869 230.42Z" fill="black"/>
<path opacity="0.2" d="M306.153 165.696L250.618 186.941L237.918 139.634C237.77 139.216 237.726 138.768 237.791 138.329C237.855 137.891 238.026 137.474 238.288 137.117C238.55 136.759 238.895 136.471 239.294 136.277C239.693 136.083 240.133 135.99 240.576 136.005H294.542C295.59 136.06 296.595 136.438 297.418 137.088C298.242 137.738 298.844 138.627 299.141 139.634L306.153 165.696Z" fill="black"/>
<path d="M266.601 230.42H212.662C212.219 230.436 211.779 230.342 211.38 230.148C210.981 229.955 210.636 229.666 210.374 229.309C210.112 228.951 209.941 228.535 209.877 228.096C209.812 227.658 209.856 227.21 210.004 226.792L233.363 139.606C233.663 138.6 234.267 137.711 235.092 137.061C235.917 136.412 236.922 136.033 237.971 135.978H291.937C292.38 135.963 292.82 136.056 293.219 136.25C293.618 136.443 293.963 136.732 294.225 137.089C294.487 137.447 294.658 137.863 294.722 138.302C294.787 138.741 294.743 139.188 294.595 139.606L271.236 226.792C270.935 227.802 270.327 228.694 269.496 229.344C268.666 229.994 267.654 230.37 266.601 230.42Z" fill="#223A74"/>
<path opacity="0.6" d="M266.601 230.42H212.662C212.219 230.436 211.779 230.342 211.38 230.148C210.981 229.955 210.636 229.666 210.374 229.309C210.112 228.951 209.941 228.535 209.877 228.096C209.812 227.658 209.856 227.21 210.004 226.792L233.363 139.606C233.663 138.6 234.267 137.711 235.092 137.061C235.917 136.412 236.922 136.033 237.971 135.978H291.937C292.38 135.963 292.82 136.056 293.219 136.25C293.618 136.443 293.963 136.732 294.225 137.089C294.487 137.447 294.658 137.863 294.722 138.302C294.787 138.741 294.743 139.188 294.595 139.606L271.236 226.792C270.935 227.802 270.327 228.694 269.496 229.344C268.666 229.994 267.654 230.37 266.601 230.42Z" fill="white"/>
<path d="M214.477 226.157L237.482 140.296H290.123L267.118 226.157H214.477Z" fill="#223A74"/>
<path opacity="0.4" d="M264.075 193.129C277.076 177.623 282.344 160.633 275.841 155.18C269.338 149.727 253.526 157.876 240.524 173.382C227.522 188.888 222.254 205.878 228.758 211.331C235.261 216.784 251.073 208.635 264.075 193.129Z" fill="white"/>
<path d="M256.55 194.135H242.199C241.573 194.135 241.147 193.699 241.292 193.164C241.378 192.871 241.557 192.615 241.803 192.435C242.049 192.254 242.348 192.16 242.653 192.166H257.231C257.866 192.166 258.238 192.611 258.047 193.164C257.921 193.455 257.711 193.702 257.445 193.875C257.179 194.047 256.868 194.138 256.55 194.135Z" fill="white"/>
<path d="M255.227 197.056H241.964C241.356 197.056 240.939 196.639 241.057 196.149C241.142 195.868 241.317 195.623 241.554 195.451C241.792 195.279 242.079 195.19 242.372 195.196H255.844C256.469 195.196 256.832 195.623 256.66 196.149C256.535 196.423 256.333 196.654 256.078 196.816C255.824 196.977 255.528 197.06 255.227 197.056Z" fill="white"/>
<path d="M253.966 199.823H241.746C241.148 199.823 240.739 199.423 240.839 198.915C240.929 198.645 241.104 198.41 241.337 198.247C241.571 198.083 241.851 198 242.136 198.008H254.537C255.145 198.008 255.508 198.417 255.344 198.915C255.228 199.184 255.035 199.414 254.79 199.575C254.545 199.736 254.259 199.822 253.966 199.823Z" fill="white"/>
<path d="M243.223 200.757C242.996 201.737 244.729 202.517 247.087 202.517H247.178C249.528 202.517 251.714 201.737 251.986 200.757H243.223Z" fill="white"/>
<path d="M258.137 181.997H255.57C255.494 182.003 255.42 181.979 255.361 181.932C255.302 181.885 255.263 181.818 255.252 181.743L255.044 180.02L252.513 183.694C252.464 183.77 252.397 183.833 252.318 183.875C252.238 183.918 252.149 183.94 252.059 183.939C251.982 183.946 251.906 183.924 251.845 183.877C251.784 183.83 251.744 183.761 251.732 183.685L251.261 180.056L250.172 181.789C250.123 181.868 250.055 181.933 249.975 181.979C249.894 182.025 249.803 182.05 249.709 182.052H247.215C248.603 184.918 248.04 189.617 247.795 191.223H252.93C254.1 187.861 255.863 184.736 258.137 181.997Z" fill="white"/>
<path d="M257.465 163.936C249.02 163.936 241.001 170.885 239.703 178.623C239.346 180.305 239.427 182.052 239.939 183.694C240.45 185.337 241.375 186.82 242.624 188.002V191.241H246.979C247.224 189.517 247.759 184.401 246.072 181.934C246.028 181.871 246.004 181.797 246.004 181.72C246.004 181.644 246.028 181.57 246.072 181.507C246.122 181.439 246.188 181.383 246.263 181.344C246.339 181.305 246.422 181.283 246.507 181.281H249.564L251.179 178.713C251.229 178.633 251.298 178.566 251.381 178.518C251.463 178.471 251.556 178.445 251.65 178.441C251.73 178.436 251.809 178.461 251.872 178.511C251.934 178.562 251.975 178.634 251.986 178.713L252.449 182.433L254.989 178.704C255.042 178.625 255.114 178.56 255.197 178.514C255.281 178.469 255.374 178.444 255.47 178.441C255.548 178.434 255.626 178.457 255.687 178.506C255.748 178.555 255.787 178.626 255.796 178.704L256.077 181.181H259.098C259.166 181.176 259.233 181.193 259.289 181.231C259.345 181.269 259.386 181.325 259.407 181.389C259.42 181.466 259.412 181.545 259.385 181.619C259.358 181.692 259.312 181.757 259.252 181.807C256.784 184.538 254.895 187.741 253.701 191.223H257.629L259.397 187.984C263.01 185.822 265.805 182.523 267.344 178.604C270.229 170.885 265.92 163.936 257.465 163.936Z" fill="white"/>
<path d="M265.295 230.42H211.338C210.289 230.368 209.282 229.99 208.456 229.34C207.631 228.69 207.028 227.8 206.73 226.792L183.371 139.606C183.223 139.188 183.179 138.741 183.244 138.302C183.308 137.863 183.479 137.447 183.741 137.089C184.003 136.732 184.348 136.443 184.747 136.25C185.146 136.056 185.586 135.963 186.029 135.978H239.995C241.043 136.032 242.048 136.411 242.872 137.061C243.695 137.71 244.297 138.6 244.594 139.606L267.953 226.792C268.101 227.21 268.145 227.658 268.08 228.096C268.016 228.535 267.845 228.951 267.583 229.309C267.321 229.666 266.976 229.955 266.577 230.148C266.178 230.342 265.738 230.436 265.295 230.42Z" fill="#223A74"/>
<path opacity="0.6" d="M265.295 230.42H211.338C210.289 230.368 209.282 229.99 208.456 229.34C207.631 228.69 207.028 227.8 206.73 226.792L183.371 139.606C183.223 139.188 183.179 138.741 183.244 138.302C183.308 137.863 183.479 137.447 183.741 137.089C184.003 136.732 184.348 136.443 184.747 136.25C185.146 136.056 185.586 135.963 186.029 135.978H239.995C241.043 136.032 242.048 136.411 242.872 137.061C243.695 137.71 244.297 138.6 244.594 139.606L267.953 226.792C268.101 227.21 268.145 227.658 268.08 228.096C268.016 228.535 267.845 228.951 267.583 229.309C267.321 229.666 266.976 229.955 266.577 230.148C266.178 230.342 265.738 230.436 265.295 230.42Z" fill="white"/>
<path d="M210.848 226.157L187.834 140.296H240.485L263.49 226.157H210.848Z" fill="#223A74"/>
<path opacity="0.4" d="M244.335 185.695C246.492 169.313 239.885 154.933 229.578 153.576C219.271 152.219 209.167 164.399 207.01 180.781C204.854 197.163 211.461 211.543 221.768 212.9C232.075 214.256 242.178 202.077 244.335 185.695Z" fill="white"/>
<path d="M231.693 192.248L230.786 188.746L228.971 188.574C228.399 187.393 227.653 186.305 226.758 185.345L227.538 183.948L224.336 181.435L223.247 182.596C222.119 181.955 220.893 181.501 219.619 181.253L218.975 179.439H215.473L215.782 181.253C214.735 181.472 213.753 181.932 212.915 182.596L211.264 181.435L209.45 183.911L210.983 185.308C210.588 186.337 210.424 187.439 210.502 188.538L208.742 188.71L209.649 192.212L211.464 192.375C212.034 193.56 212.78 194.652 213.677 195.613L212.897 197.01L216.027 199.487L217.115 198.326C218.247 198.96 219.471 199.413 220.744 199.668L221.397 201.483H224.871L224.563 199.668C225.608 199.446 226.589 198.987 227.429 198.326L229.135 199.487L230.949 197.01L229.416 195.613C229.812 194.582 229.976 193.477 229.897 192.375L231.693 192.248ZM221.479 195.232C220.111 195.161 218.799 194.667 217.723 193.819C216.648 192.971 215.862 191.811 215.473 190.497C214.766 187.876 216.326 185.762 218.938 185.762C220.307 185.832 221.619 186.325 222.695 187.173C223.771 188.022 224.557 189.183 224.944 190.497C225.642 193.11 224.091 195.232 221.479 195.232Z" fill="white"/>
<path d="M223.248 166.358C222.427 166.531 221.657 166.891 220.999 167.41L219.656 166.503L218.241 168.445L219.438 169.542C219.135 170.35 219.008 171.213 219.066 172.073L217.688 172.209L218.422 174.931L219.874 175.067C220.319 175.994 220.904 176.847 221.606 177.598L220.99 178.695L223.448 180.628L224.301 179.72C225.18 180.216 226.132 180.571 227.122 180.773L227.63 182.188H230.351L230.106 180.773C230.927 180.6 231.697 180.24 232.356 179.72L233.699 180.628L235.114 178.695L233.944 177.616C234.246 176.808 234.373 175.945 234.315 175.085L235.694 174.949L234.96 172.227L233.508 172.091C233.064 171.163 232.48 170.31 231.775 169.56L232.392 168.463L229.934 166.521L229.081 167.429C228.205 166.931 227.256 166.576 226.269 166.376L225.752 164.961H223.031L223.248 166.358ZM230.397 173.615C230.565 174.043 230.622 174.506 230.562 174.961C230.503 175.417 230.33 175.85 230.058 176.22C229.786 176.591 229.426 176.886 229.009 177.079C228.592 177.273 228.133 177.357 227.675 177.326C226.603 177.27 225.574 176.884 224.731 176.219C223.888 175.555 223.272 174.645 222.967 173.615C222.799 173.188 222.742 172.725 222.801 172.269C222.86 171.814 223.034 171.381 223.306 171.01C223.577 170.64 223.938 170.345 224.355 170.151C224.772 169.958 225.23 169.873 225.689 169.905C226.756 169.958 227.781 170.339 228.624 170.997C229.467 171.654 230.086 172.556 230.397 173.579V173.615Z" fill="white"/>
<path d="M233.11 182.968L232.257 182.387L231.35 183.621L232.112 184.319C231.916 184.831 231.835 185.379 231.876 185.925L230.969 186.007L231.44 187.748L232.348 187.83C232.63 188.418 233 188.959 233.445 189.436L233.055 190.134L234.615 191.368L235.16 190.787C235.724 191.109 236.337 191.336 236.974 191.459L237.301 192.366H239.033L238.879 191.459C239.403 191.349 239.893 191.12 240.312 190.787L241.156 191.368L242.063 190.134L241.301 189.436C241.493 188.923 241.574 188.376 241.537 187.83L242.444 187.748L241.981 186.007L241.074 185.925C240.793 185.337 240.423 184.795 239.977 184.319L240.367 183.621L238.806 182.387L238.271 182.968C237.705 182.652 237.093 182.425 236.457 182.297L236.13 181.389H234.389L234.543 182.297C234.021 182.41 233.531 182.64 233.11 182.968ZM239.07 186.878C239.173 187.149 239.207 187.442 239.168 187.729C239.129 188.017 239.019 188.29 238.848 188.525C238.677 188.759 238.45 188.947 238.187 189.071C237.925 189.195 237.636 189.252 237.346 189.236C236.666 189.198 236.015 188.95 235.481 188.528C234.947 188.106 234.556 187.53 234.361 186.878C234.261 186.606 234.229 186.314 234.268 186.028C234.308 185.741 234.418 185.469 234.589 185.235C234.76 185.001 234.986 184.814 235.247 184.689C235.508 184.564 235.796 184.505 236.085 184.519C236.765 184.555 237.418 184.801 237.952 185.224C238.487 185.646 238.877 186.224 239.07 186.878Z" fill="white"/>
<path opacity="0.2" d="M265.295 230.421H211.338C210.289 230.368 209.282 229.99 208.456 229.34C207.631 228.69 207.028 227.8 206.73 226.792L201.124 205.928L183.371 139.706C183.223 139.288 183.179 138.841 183.244 138.402C183.308 137.963 183.479 137.547 183.741 137.189C184.003 136.832 184.348 136.543 184.747 136.35C185.146 136.156 185.586 136.063 186.029 136.078H239.995C241.043 136.132 242.048 136.511 242.872 137.161C243.695 137.81 244.297 138.7 244.594 139.706L256.623 184.637L267.953 226.792C268.101 227.21 268.145 227.658 268.08 228.096C268.016 228.535 267.845 228.951 267.583 229.309C267.321 229.667 266.976 229.955 266.577 230.149C266.178 230.342 265.738 230.436 265.295 230.421Z" fill="black"/>
<path opacity="0.2" d="M256.623 184.637L201.124 205.928L183.371 139.706C183.223 139.288 183.179 138.841 183.244 138.402C183.308 137.963 183.479 137.547 183.741 137.189C184.003 136.832 184.348 136.543 184.747 136.35C185.146 136.156 185.586 136.063 186.029 136.078H239.995C241.043 136.132 242.048 136.511 242.872 137.161C243.695 137.81 244.297 138.7 244.594 139.706L256.623 184.637Z" fill="black"/>
<path d="M294.578 135.905H240.621C239.572 135.851 238.566 135.473 237.741 134.823C236.915 134.173 236.312 133.284 236.013 132.277L212.654 45.091C212.506 44.6731 212.463 44.2253 212.527 43.7867C212.591 43.348 212.762 42.9317 213.024 42.5741C213.286 42.2164 213.631 41.9282 214.03 41.7344C214.429 41.5407 214.869 41.4473 215.312 41.4624H269.324C270.371 41.5171 271.376 41.8955 272.2 42.5453C273.024 43.1952 273.626 44.0846 273.923 45.091L297.282 132.277C297.431 132.698 297.475 133.15 297.408 133.593C297.342 134.035 297.167 134.454 296.9 134.813C296.632 135.172 296.281 135.459 295.876 135.65C295.471 135.84 295.025 135.928 294.578 135.905Z" fill="#223A74"/>
<path opacity="0.6" d="M294.578 135.905H240.621C239.572 135.851 238.566 135.473 237.741 134.823C236.915 134.173 236.312 133.284 236.013 132.277L212.654 45.091C212.506 44.6731 212.463 44.2253 212.527 43.7867C212.591 43.348 212.762 42.9317 213.024 42.5741C213.286 42.2164 213.631 41.9282 214.03 41.7344C214.429 41.5407 214.869 41.4473 215.312 41.4624H269.324C270.371 41.5171 271.376 41.8955 272.2 42.5453C273.024 43.1952 273.626 44.0846 273.923 45.091L297.282 132.277C297.431 132.698 297.475 133.15 297.408 133.593C297.342 134.035 297.167 134.454 296.9 134.813C296.632 135.172 296.281 135.459 295.876 135.65C295.471 135.84 295.025 135.928 294.578 135.905Z" fill="white"/>
<path d="M240.129 131.614L217.115 45.7532H269.766L292.771 131.614H240.129Z" fill="#223A74"/>
<path opacity="0.4" d="M273.612 91.1445C275.769 74.7628 269.162 60.3828 258.855 59.0259C248.548 57.669 238.445 69.849 236.288 86.2307C234.131 102.612 240.738 116.992 251.045 118.349C261.352 119.706 271.456 107.526 273.612 91.1445Z" fill="white"/>
<path d="M260.977 97.6962L260.07 94.2037L258.255 94.0313C257.685 92.8494 256.938 91.7606 256.042 90.8019L256.822 89.4049L253.683 86.9284L252.604 88.0805C251.472 87.4461 250.248 86.9931 248.975 86.7379L248.322 84.9236H244.83L245.138 86.7379C244.092 86.9601 243.112 87.4195 242.272 88.0805L240.557 86.9284L238.743 89.4049L240.276 90.8019C239.88 91.8299 239.716 92.9326 239.795 94.0313L238.035 94.2037L238.942 97.6962L240.757 97.8686C241.327 99.0505 242.074 100.139 242.97 101.098L242.19 102.504L245.329 104.971L246.408 103.819C247.54 104.454 248.764 104.907 250.037 105.162L250.69 106.976H254.191L253.883 105.162C254.929 104.94 255.909 104.48 256.75 103.819L258.464 104.971L260.278 102.504L258.745 101.098C259.141 100.07 259.305 98.9673 259.226 97.8686L260.977 97.6962ZM250.762 100.699C249.395 100.626 248.084 100.132 247.008 99.2841C245.933 98.4362 245.147 97.2763 244.757 95.9635C244.059 93.3419 245.61 91.2192 248.222 91.2192C249.592 91.2898 250.905 91.7844 251.981 92.6344C253.057 93.4844 253.842 94.6478 254.228 95.9635C254.935 98.567 253.375 100.699 250.762 100.699Z" fill="white"/>
<path d="M252.532 71.8155C251.711 71.9898 250.942 72.3498 250.282 72.8678L248.948 71.9607L247.551 73.902L248.749 74.9905C248.446 75.8011 248.319 76.6671 248.377 77.5305L246.998 77.6575L247.733 80.379L249.184 80.506C249.629 81.4334 250.213 82.2871 250.917 83.0369L250.3 84.1346L252.758 86.0758L253.611 85.1687C254.491 85.6646 255.443 86.0197 256.432 86.221L256.94 87.6361H259.662L259.417 86.221C260.238 86.0483 261.008 85.6882 261.667 85.1687L263.009 86.0758L264.424 84.1346L263.227 83.0369C263.535 82.2308 263.662 81.3667 263.599 80.506L264.978 80.379L264.243 77.6575L262.791 77.5305C262.348 76.6019 261.767 75.7456 261.068 74.9905L261.676 73.902L259.217 71.9607L258.365 72.8678C257.489 72.3706 256.54 72.0154 255.552 71.8155L255.035 70.4004H252.314L252.532 71.8155ZM259.68 79.0727C259.85 79.5006 259.909 79.9647 259.85 80.4215C259.792 80.8782 259.619 81.3128 259.347 81.6844C259.075 82.056 258.713 82.3525 258.296 82.5462C257.878 82.7399 257.418 82.8245 256.958 82.792C255.886 82.7333 254.858 82.3445 254.015 81.6786C253.172 81.0128 252.556 80.1025 252.25 79.0727C252.082 78.6452 252.025 78.1822 252.085 77.7267C252.144 77.2712 252.317 76.8381 252.589 76.4678C252.861 76.0974 253.221 75.8018 253.638 75.6086C254.055 75.4153 254.514 75.3307 254.972 75.3625C256.039 75.4134 257.064 75.7929 257.907 76.449C258.749 77.105 259.369 78.0056 259.68 79.0273V79.0727Z" fill="white"/>
<path d="M262.393 88.4252L261.54 87.8446L260.633 89.0784L261.395 89.7678C261.199 90.2823 261.118 90.8335 261.159 91.3825L260.252 91.4642L260.715 93.2059L261.622 93.2875C261.907 93.8738 262.277 94.4148 262.719 94.8932L262.329 95.5917L263.89 96.8163L264.434 96.2448C265 96.5623 265.612 96.7888 266.248 96.9161L266.575 97.8232H268.307L268.153 96.9161C268.675 96.8031 269.165 96.5737 269.586 96.2448L270.43 96.8163L271.337 95.5917L270.575 94.8932C270.767 94.3807 270.847 93.8334 270.811 93.2875L271.718 93.2059L271.256 91.4642L270.348 91.3825C270.06 90.7932 269.687 90.2492 269.242 89.7678L269.632 89.0784L268.072 87.8446L267.536 88.4252C266.972 88.1052 266.359 87.8785 265.722 87.7539L265.395 86.8468H263.654L263.808 87.7539C263.291 87.8665 262.807 88.0961 262.393 88.4252ZM268.353 92.335C268.454 92.6058 268.486 92.8976 268.447 93.1839C268.407 93.4703 268.297 93.7424 268.126 93.9755C267.955 94.2086 267.728 94.3955 267.467 94.5192C267.206 94.643 266.918 94.6998 266.629 94.6845C265.95 94.6477 265.299 94.4024 264.765 93.9819C264.231 93.5614 263.84 92.9862 263.645 92.335C263.544 92.0637 263.512 91.7717 263.552 91.485C263.591 91.1983 263.702 90.926 263.872 90.6923C264.043 90.4586 264.269 90.2709 264.53 90.146C264.791 90.0211 265.079 89.9628 265.368 89.9764C266.049 90.0099 266.703 90.2552 267.238 90.678C267.773 91.1008 268.163 91.6801 268.353 92.335Z" fill="white"/>
<path opacity="0.2" d="M294.578 135.905H240.621C239.572 135.851 238.566 135.473 237.741 134.823C236.915 134.173 236.312 133.284 236.013 132.277L212.654 45.091C212.506 44.6731 212.463 44.2253 212.527 43.7867C212.591 43.348 212.762 42.9317 213.024 42.5741C213.286 42.2164 213.631 41.9282 214.03 41.7344C214.429 41.5407 214.869 41.4473 215.312 41.4624H269.324C270.371 41.5171 271.376 41.8955 272.2 42.5453C273.024 43.1952 273.626 44.0846 273.923 45.091L297.282 132.277C297.431 132.698 297.475 133.15 297.408 133.593C297.342 134.035 297.167 134.454 296.9 134.813C296.632 135.172 296.281 135.459 295.876 135.65C295.471 135.84 295.025 135.928 294.578 135.905Z" fill="black"/>
<path opacity="0.2" d="M285.307 87.7449L229.527 108.074L212.654 45.091C212.506 44.6731 212.463 44.2253 212.527 43.7867C212.591 43.348 212.762 42.9317 213.024 42.5741C213.286 42.2164 213.631 41.9282 214.03 41.7344C214.429 41.5407 214.869 41.4473 215.312 41.4624H269.324C270.371 41.5171 271.376 41.8955 272.2 42.5453C273.024 43.1952 273.626 44.0846 273.923 45.091L285.307 87.7449Z" fill="black"/>
<path d="M213.788 230.42H159.822C159.379 230.436 158.939 230.342 158.54 230.148C158.141 229.955 157.796 229.666 157.534 229.309C157.272 228.951 157.101 228.535 157.037 228.096C156.972 227.658 157.016 227.21 157.164 226.792L180.523 139.606C180.82 138.6 181.422 137.71 182.246 137.061C183.069 136.411 184.074 136.032 185.122 135.978H239.088C239.531 135.963 239.971 136.056 240.37 136.25C240.769 136.443 241.114 136.732 241.376 137.089C241.638 137.447 241.809 137.863 241.873 138.302C241.938 138.741 241.894 139.188 241.746 139.606L218.387 226.792C218.09 227.798 217.488 228.688 216.665 229.337C215.841 229.987 214.836 230.366 213.788 230.42Z" fill="#223A74"/>
<path opacity="0.6" d="M213.788 230.42H159.822C159.379 230.436 158.939 230.342 158.54 230.148C158.141 229.955 157.796 229.666 157.534 229.309C157.272 228.951 157.101 228.535 157.037 228.096C156.972 227.658 157.016 227.21 157.164 226.792L180.523 139.606C180.82 138.6 181.422 137.71 182.246 137.061C183.069 136.411 184.074 136.032 185.122 135.978H239.088C239.531 135.963 239.971 136.056 240.37 136.25C240.769 136.443 241.114 136.732 241.376 137.089C241.638 137.447 241.809 137.863 241.873 138.302C241.938 138.741 241.894 139.188 241.746 139.606L218.387 226.792C218.09 227.798 217.488 228.688 216.665 229.337C215.841 229.987 214.836 230.366 213.788 230.42Z" fill="white"/>
<path d="M161.627 226.157L184.632 140.296H237.283L214.269 226.157H161.627Z" fill="#223A74"/>
<path opacity="0.4" d="M211.235 193.125C224.236 177.619 229.504 160.628 223.001 155.175C216.498 149.722 200.686 157.872 187.684 173.377C174.683 188.883 169.415 205.874 175.918 211.327C182.421 216.78 198.233 208.63 211.235 193.125Z" fill="white"/>
<path d="M205.179 161.859L187.961 175.429H195.608L193.984 181.489H205.85L207.474 175.429H215.121L205.179 161.859Z" fill="white"/>
<path d="M192.207 188.148H204.063L205.397 183.195H193.531L192.207 188.148Z" fill="white"/>
<path d="M190.955 192.819H202.811L203.456 190.415H191.599L190.955 192.819Z" fill="white"/>
<path d="M189.82 197.038H201.686L201.976 195.94H190.111L189.82 197.038Z" fill="white"/>
<path d="M188.314 202.662H200.18L200.325 202.109H188.46L188.314 202.662Z" fill="white"/>
<path d="M241.246 135.905H187.289C186.846 135.92 186.406 135.827 186.007 135.633C185.608 135.439 185.263 135.151 185.001 134.794C184.739 134.436 184.568 134.02 184.504 133.581C184.439 133.142 184.483 132.695 184.631 132.277L207.99 45.091C208.287 44.0846 208.889 43.1952 209.712 42.5453C210.536 41.8955 211.541 41.5171 212.589 41.4624H266.6C267.043 41.4473 267.484 41.5407 267.882 41.7344C268.281 41.9282 268.627 42.2164 268.889 42.5741C269.151 42.9317 269.321 43.348 269.386 43.7867C269.45 44.2253 269.406 44.6731 269.258 45.091L245.899 132.277C245.599 133.291 244.989 134.187 244.155 134.838C243.32 135.488 242.303 135.862 241.246 135.905Z" fill="#223A74"/>
<path opacity="0.6" d="M241.246 135.905H187.289C186.846 135.92 186.406 135.827 186.007 135.633C185.608 135.439 185.263 135.151 185.001 134.794C184.739 134.436 184.568 134.02 184.504 133.581C184.439 133.142 184.483 132.695 184.631 132.277L207.99 45.091C208.287 44.0846 208.889 43.1952 209.712 42.5453C210.536 41.8955 211.541 41.5171 212.589 41.4624H266.6C267.043 41.4473 267.484 41.5407 267.882 41.7344C268.281 41.9282 268.627 42.2164 268.889 42.5741C269.151 42.9317 269.321 43.348 269.386 43.7867C269.45 44.2253 269.406 44.6731 269.258 45.091L245.899 132.277C245.599 133.291 244.989 134.187 244.155 134.838C243.32 135.488 242.303 135.862 241.246 135.905Z" fill="white"/>
<path d="M189.096 131.614L212.101 45.7532H264.752L241.746 131.614H189.096Z" fill="#223A74"/>
<path opacity="0.4" d="M238.941 96.8992C251.891 81.3179 257.092 64.2835 250.557 58.8519C244.022 53.4202 228.226 61.6481 215.276 77.2294C202.325 92.8107 197.124 109.845 203.659 115.277C210.194 120.708 225.99 112.481 238.941 96.8992Z" fill="white"/>
<path d="M232.646 67.3069L215.438 80.8868H223.076L221.452 86.9466H233.317L234.941 80.8868H242.588L232.646 67.3069Z" fill="white"/>
<path d="M219.674 93.605H231.539L232.864 88.652H220.998L219.674 93.605Z" fill="white"/>
<path d="M218.424 98.2767H230.28L230.924 95.8728H219.068L218.424 98.2767Z" fill="white"/>
<path d="M217.289 102.495H229.154L229.445 101.397H217.579L217.289 102.495Z" fill="white"/>
<path d="M215.783 108.119H227.649L227.794 107.566H215.928L215.783 108.119Z" fill="white"/>
<path d="M210.91 230.421H156.954C155.905 230.365 154.899 229.987 154.074 229.337C153.249 228.687 152.645 227.798 152.345 226.792L128.986 139.634C128.838 139.216 128.795 138.768 128.859 138.329C128.923 137.891 129.094 137.474 129.356 137.117C129.618 136.759 129.963 136.471 130.362 136.277C130.761 136.083 131.201 135.99 131.644 136.005H185.61C186.658 136.06 187.663 136.438 188.487 137.088C189.311 137.738 189.912 138.627 190.209 139.634L213.568 226.792C213.716 227.21 213.76 227.658 213.696 228.096C213.631 228.535 213.461 228.951 213.199 229.309C212.937 229.667 212.591 229.955 212.192 230.149C211.794 230.342 211.354 230.436 210.91 230.421Z" fill="#223A74"/>
<path opacity="0.6" d="M210.91 230.421H156.954C155.905 230.365 154.899 229.987 154.074 229.337C153.249 228.687 152.645 227.798 152.345 226.792L128.986 139.634C128.838 139.216 128.795 138.768 128.859 138.329C128.923 137.891 129.094 137.474 129.356 137.117C129.618 136.759 129.963 136.471 130.362 136.277C130.761 136.083 131.201 135.99 131.644 136.005H185.61C186.658 136.06 187.663 136.438 188.487 137.088C189.311 137.738 189.912 138.627 190.209 139.634L213.568 226.792C213.716 227.21 213.76 227.658 213.696 228.096C213.631 228.535 213.461 228.951 213.199 229.309C212.937 229.667 212.591 229.955 212.192 230.149C211.794 230.342 211.354 230.436 210.91 230.421Z" fill="white"/>
<path d="M156.466 226.157L133.461 140.296H186.103L209.108 226.157H156.466Z" fill="#223A74"/>
<path opacity="0.4" d="M189.956 185.701C192.113 169.319 185.506 154.939 175.199 153.583C164.892 152.226 154.788 164.406 152.632 180.787C150.475 197.169 157.082 211.549 167.389 212.906C177.696 214.263 187.799 202.083 189.956 185.701Z" fill="white"/>
<path d="M181.384 194.135H167.033C166.721 194.131 166.416 194.038 166.155 193.866C165.895 193.694 165.689 193.45 165.564 193.164C165.382 192.611 165.754 192.166 166.389 192.166H180.967C181.272 192.16 181.57 192.254 181.816 192.435C182.062 192.615 182.242 192.871 182.328 193.164C182.436 193.708 182.01 194.135 181.384 194.135Z" fill="white"/>
<path d="M181.611 197.056H168.358C168.058 197.058 167.764 196.974 167.511 196.813C167.259 196.652 167.058 196.421 166.933 196.149C166.761 195.622 167.124 195.196 167.75 195.196H181.212C181.506 195.189 181.795 195.278 182.034 195.45C182.273 195.622 182.449 195.867 182.536 196.149C182.645 196.638 182.237 197.056 181.611 197.056Z" fill="white"/>
<path d="M181.838 199.822H169.619C169.326 199.822 169.039 199.736 168.794 199.575C168.549 199.414 168.357 199.184 168.24 198.915C168.077 198.416 168.44 198.008 169.048 198.008H181.448C181.733 197.999 182.012 198.082 182.245 198.246C182.477 198.409 182.65 198.645 182.736 198.915C182.845 199.423 182.437 199.822 181.838 199.822Z" fill="white"/>
<path d="M171.596 200.757C171.895 201.737 174.045 202.517 176.404 202.517H176.494C178.853 202.517 180.585 201.737 180.359 200.757H171.596Z" fill="white"/>
<path d="M176.459 181.997H173.891C173.801 181.992 173.714 181.967 173.635 181.923C173.557 181.879 173.489 181.817 173.438 181.743L172.304 180.02L171.742 183.693C171.737 183.731 171.725 183.766 171.707 183.799C171.688 183.831 171.664 183.86 171.634 183.882C171.605 183.905 171.571 183.922 171.535 183.932C171.499 183.941 171.461 183.943 171.424 183.938C171.332 183.937 171.242 183.913 171.161 183.869C171.08 183.825 171.012 183.761 170.961 183.684L168.557 180.056L168.394 181.788C168.391 181.827 168.38 181.864 168.362 181.898C168.344 181.932 168.32 181.962 168.29 181.986C168.261 182.011 168.227 182.029 168.19 182.04C168.153 182.051 168.115 182.055 168.077 182.052H165.582C168.503 184.918 170.462 189.617 171.07 191.223H176.205C175.352 186.315 176.041 183.249 176.459 181.997Z" fill="white"/>
<path d="M166.107 163.936C157.661 163.936 153.362 170.885 156.219 178.623C157.759 182.541 160.553 185.84 164.166 188.002L165.935 191.241H170.28C169.599 189.517 167.404 184.401 164.374 181.934C164.307 181.886 164.253 181.822 164.218 181.747C164.183 181.672 164.168 181.59 164.175 181.507C164.19 181.439 164.23 181.378 164.286 181.336C164.343 181.294 164.413 181.274 164.483 181.281H167.54L167.767 178.731C167.776 178.653 167.815 178.581 167.876 178.53C167.937 178.479 168.015 178.454 168.094 178.459C168.191 178.463 168.286 178.489 168.371 178.537C168.456 178.584 168.529 178.651 168.583 178.731L171.033 182.451L171.568 178.722C171.581 178.645 171.623 178.575 171.685 178.526C171.747 178.477 171.825 178.454 171.904 178.459C171.996 178.462 172.087 178.487 172.168 178.533C172.249 178.579 172.317 178.644 172.366 178.722L173.981 181.199H177.002C177.083 181.202 177.163 181.222 177.237 181.258C177.31 181.294 177.375 181.345 177.428 181.408C177.477 181.464 177.508 181.533 177.52 181.607C177.531 181.681 177.521 181.756 177.492 181.825C177.492 181.825 175.959 185 176.984 191.241H180.921V188.002C182.168 186.819 183.091 185.335 183.603 183.693C184.114 182.051 184.196 180.305 183.842 178.623C182.581 170.885 174.562 163.936 166.107 163.936Z" fill="white"/>
<path opacity="0.2" d="M210.912 230.421H156.955C155.907 230.365 154.901 229.987 154.076 229.337C153.251 228.687 152.647 227.798 152.347 226.792L151.793 224.724L130.884 146.709L128.988 139.615C128.772 139.017 128.772 138.361 128.989 137.763C129.207 137.165 129.626 136.661 130.176 136.341C130.628 136.1 131.134 135.978 131.646 135.987H185.612C186.66 136.041 187.665 136.42 188.488 137.07C189.312 137.72 189.914 138.609 190.211 139.615L207.329 203.487L213.57 226.801C213.716 227.218 213.758 227.665 213.693 228.103C213.628 228.54 213.457 228.955 213.195 229.311C212.933 229.668 212.589 229.955 212.191 230.148C211.793 230.342 211.354 230.435 210.912 230.421Z" fill="black"/>
<path opacity="0.2" d="M207.328 203.506L151.793 224.751L130.883 146.736L130.176 136.368C130.628 136.127 131.133 136.005 131.645 136.014H185.611C186.659 136.069 187.664 136.447 188.488 137.097C189.312 137.747 189.914 138.636 190.211 139.643L207.328 203.506Z" fill="black"/>
<path d="M158.905 230.421H104.939C104.496 230.436 104.056 230.342 103.657 230.149C103.258 229.955 102.913 229.667 102.651 229.309C102.389 228.951 102.218 228.535 102.154 228.096C102.089 227.658 102.133 227.21 102.281 226.792L125.64 139.606C125.94 138.6 126.544 137.711 127.369 137.061C128.194 136.412 129.2 136.033 130.248 135.978H184.214C184.658 135.963 185.098 136.056 185.496 136.25C185.895 136.444 186.241 136.732 186.503 137.089C186.765 137.447 186.935 137.863 187 138.302C187.064 138.741 187.02 139.188 186.872 139.606L163.513 226.792C163.214 227.798 162.61 228.687 161.785 229.337C160.96 229.987 159.954 230.365 158.905 230.421Z" fill="#223A74"/>
<path opacity="0.6" d="M158.905 230.421H104.939C104.496 230.436 104.056 230.342 103.657 230.149C103.258 229.955 102.913 229.667 102.651 229.309C102.389 228.951 102.218 228.535 102.154 228.096C102.089 227.658 102.133 227.21 102.281 226.792L125.64 139.606C125.94 138.6 126.544 137.711 127.369 137.061C128.194 136.412 129.2 136.033 130.248 135.978H184.214C184.658 135.963 185.098 136.056 185.496 136.25C185.895 136.444 186.241 136.732 186.503 137.089C186.765 137.447 186.935 137.863 187 138.302C187.064 138.741 187.02 139.188 186.872 139.606L163.513 226.792C163.214 227.798 162.61 228.687 161.785 229.337C160.96 229.987 159.954 230.365 158.905 230.421Z" fill="white"/>
<path d="M106.752 226.157L129.757 140.296H182.399L159.394 226.157H106.752Z" fill="#223A74"/>
<path opacity="0.4" d="M156.356 193.126C169.358 177.62 174.626 160.63 168.122 155.177C161.619 149.724 145.807 157.873 132.805 173.379C119.804 188.885 114.536 205.875 121.039 211.328C127.542 216.781 143.354 208.632 156.356 193.126Z" fill="white"/>
<path d="M145.77 192.248L146.677 188.746L144.917 188.574C144.995 187.475 144.831 186.373 144.436 185.345L145.969 183.948L144.155 181.471L142.441 182.632C141.602 181.968 140.621 181.508 139.574 181.29L139.882 179.475H136.426L135.773 181.29C134.5 181.541 133.275 181.994 132.144 182.632L131.056 181.471L127.926 183.948L128.706 185.345C127.812 186.305 127.066 187.393 126.493 188.574L124.679 188.746L123.771 192.248L125.531 192.411C125.452 193.513 125.617 194.619 126.012 195.65L124.479 197.047L126.293 199.523L128.008 198.362C128.848 199.023 129.829 199.483 130.874 199.705L130.566 201.519H134.068L134.712 199.705C135.985 199.453 137.21 198.999 138.34 198.362L139.429 199.523L142.568 197.047L141.787 195.65C142.684 194.688 143.43 193.596 144.001 192.411L145.77 192.248ZM133.977 195.233C131.364 195.233 129.804 193.11 130.512 190.497C130.898 189.182 131.683 188.02 132.759 187.172C133.835 186.323 135.148 185.831 136.517 185.762C139.129 185.762 140.681 187.876 139.982 190.497C139.592 191.813 138.802 192.975 137.724 193.823C136.645 194.671 135.329 195.164 133.959 195.233H133.977Z" fill="white"/>
<path d="M151.204 166.358C150.217 166.558 149.267 166.913 148.392 167.41L147.539 166.503L145.044 168.445L145.652 169.542C144.953 170.296 144.369 171.149 143.919 172.073L142.477 172.209L141.742 174.931L143.121 175.067C143.055 175.928 143.182 176.792 143.493 177.598L142.323 178.713L143.738 180.646L145.08 179.739C145.739 180.258 146.509 180.618 147.33 180.791L147.085 182.206H149.807L150.315 180.791C151.304 180.59 152.256 180.234 153.136 179.739L153.989 180.646L156.474 178.713L155.857 177.616C156.557 176.863 157.141 176.01 157.59 175.085L159.032 174.949L159.767 172.227L158.397 172.091C158.455 171.231 158.329 170.368 158.025 169.56L159.223 168.463L157.799 166.521L156.465 167.429C155.805 166.911 155.036 166.551 154.215 166.376L154.46 164.961H151.739L151.204 166.358ZM154.488 173.615C154.182 174.644 153.565 175.553 152.722 176.217C151.879 176.882 150.851 177.269 149.779 177.326C149.321 177.357 148.862 177.273 148.446 177.079C148.029 176.886 147.668 176.591 147.397 176.22C147.125 175.85 146.951 175.417 146.892 174.961C146.833 174.506 146.89 174.043 147.058 173.615C147.364 172.587 147.98 171.678 148.823 171.013C149.666 170.349 150.694 169.962 151.766 169.905C152.22 169.876 152.674 169.961 153.086 170.153C153.499 170.344 153.857 170.636 154.127 171.001C154.398 171.366 154.573 171.794 154.636 172.244C154.699 172.695 154.648 173.153 154.488 173.579V173.615Z" fill="white"/>
<path d="M152.166 182.968L151.621 182.387L150.061 183.621L150.451 184.319C150.005 184.795 149.635 185.337 149.353 185.925L148.446 186.007L147.975 187.748L148.882 187.83C148.848 188.377 148.931 188.924 149.127 189.436L148.365 190.134L149.272 191.368L150.125 190.787C150.539 191.121 151.027 191.351 151.549 191.459L151.395 192.366H153.136L153.454 191.459C154.091 191.336 154.704 191.109 155.268 190.787L155.812 191.368L157.373 190.134L156.983 189.436C157.43 188.961 157.801 188.419 158.08 187.83L158.987 187.748L159.459 186.007L158.552 185.925C158.585 185.379 158.502 184.831 158.307 184.319L159.069 183.621L158.162 182.387L157.309 182.968C156.892 182.637 156.405 182.408 155.885 182.297L156.039 181.389H154.297L153.98 182.297C153.344 182.424 152.731 182.65 152.166 182.968ZM156.03 186.878C155.837 187.531 155.446 188.108 154.912 188.53C154.377 188.952 153.726 189.199 153.046 189.236C152.756 189.25 152.468 189.192 152.207 189.067C151.946 188.942 151.72 188.754 151.55 188.52C151.379 188.287 151.269 188.014 151.229 187.728C151.189 187.441 151.221 187.149 151.322 186.878C151.516 186.225 151.906 185.648 152.44 185.225C152.975 184.803 153.627 184.556 154.306 184.519C154.596 184.505 154.884 184.564 155.145 184.689C155.406 184.814 155.632 185.001 155.802 185.235C155.973 185.469 156.083 185.741 156.123 186.028C156.163 186.314 156.131 186.606 156.03 186.878Z" fill="white"/>
<path d="M228.582 43.2404C228.582 43.2404 227.212 29.1162 231.303 22.2219C235.394 15.3276 242.234 16.3254 249.773 21.3147C257.311 26.304 256.903 34.9945 254.535 43.8573L251.759 44.6283L251.405 41.3263L250.598 44.8279L245.736 45.8348V42.4421L244.529 45.8348L233.417 45.4811L232.283 42.2153L231.965 44.8733L228.582 43.2404Z" fill="#263238"/>
<path d="M232.056 62.5989C228.536 68.8038 224.799 74.8363 220.862 80.7962L219.428 82.9824C219.347 83.1185 219.084 83.4814 218.875 83.7626C218.659 84.0457 218.426 84.3153 218.177 84.5699C217.716 85.0418 217.215 85.4728 216.68 85.8581C214.841 87.0828 212.779 87.9335 210.611 88.3618C206.848 89.1407 202.981 89.2817 199.172 88.7791C198.683 88.723 198.23 88.4928 197.897 88.1306C197.564 87.7685 197.372 87.2985 197.356 86.8065C197.341 86.3145 197.503 85.8334 197.813 85.4511C198.123 85.0688 198.56 84.8108 199.045 84.7242H199.181C202.454 84.2067 205.668 83.3712 208.779 82.2295C210.058 81.766 211.246 81.0813 212.289 80.2066C212.454 80.0463 212.605 79.8734 212.743 79.6895C212.743 79.6079 212.861 79.5353 212.888 79.4627C212.938 79.3472 212.995 79.2351 213.06 79.1271L214.357 76.8139C217.814 70.6271 221.324 64.4586 224.989 58.417C225.543 57.4751 226.447 56.7916 227.505 56.5168C228.562 56.2421 229.685 56.3986 230.627 56.9519C231.569 57.5053 232.253 58.4102 232.527 59.4675C232.802 60.5248 232.645 61.6479 232.092 62.5898L232.056 62.5989Z" fill="#FFB573"/>
<path d="M192.158 84.8691L193.718 83.5719C194.007 83.3295 194.35 83.1601 194.718 83.078C195.085 82.9959 195.468 83.0035 195.832 83.1002L199.288 84.0074C199.971 84.1879 200.6 84.5291 201.124 85.0025C201.648 85.476 202.051 86.0679 202.3 86.7288L202.608 87.5543C200.177 89.8947 195.814 90.6205 195.814 90.6205L194.598 90.9742C194.35 91.0514 194.089 91.0788 193.83 91.0548C193.571 91.0309 193.319 90.9561 193.089 90.8348C192.859 90.7135 192.655 90.5479 192.489 90.3477C192.323 90.1475 192.198 89.9165 192.122 89.6679L191.405 87.2549C191.285 86.8271 191.293 86.3736 191.426 85.9499C191.56 85.5262 191.814 85.1506 192.158 84.8691Z" fill="#FFB573"/>
<path d="M229.896 52.7654C223.273 53.981 222.194 58.435 217.25 67.3432C218.175 69.221 219.507 70.8685 221.151 72.1649C222.794 73.4614 224.706 74.3741 226.748 74.8362C226.748 74.8362 238.178 59.2605 229.896 52.7654Z" fill="#223A74"/>
<path opacity="0.8" d="M229.896 52.7654C223.273 53.981 222.194 58.435 217.25 67.3432C218.175 69.221 219.507 70.8685 221.151 72.1649C222.794 73.4614 224.706 74.3741 226.748 74.8362C226.748 74.8362 238.178 59.2605 229.896 52.7654Z" fill="white"/>
<path opacity="0.1" d="M222.702 65.2659C222.211 67.4594 221.472 69.5898 220.498 71.6159C222.258 73.2303 224.415 74.3479 226.748 74.8544C228.555 72.3078 230.076 69.5698 231.284 66.6901L222.702 65.2659Z" fill="black"/>
<path d="M221.924 61.6918C221.774 65.599 221.835 69.5114 222.105 73.4121C222.314 78.5012 221.425 92.9883 225.035 93.9045C227.82 95.5374 241.944 94.9386 250.961 93.7775C255.252 92.5166 247.977 81.2589 255.942 60.2132C257.33 56.5846 254.545 52.829 250.499 52.448C249.419 52.3482 248.276 52.2575 247.106 52.2031C242.986 51.9261 238.852 51.9261 234.733 52.2031C233.39 52.321 232.011 52.4752 230.669 52.6566C225.87 53.21 222.069 57.1561 221.924 61.6918Z" fill="#223A74"/>
<path opacity="0.8" d="M221.924 61.6918C221.774 65.599 221.835 69.5114 222.105 73.4121C222.314 78.5012 221.425 92.9883 225.035 93.9045C227.82 95.5374 241.944 94.9386 250.961 93.7775C255.252 92.5166 247.977 81.2589 255.942 60.2132C257.33 56.5846 254.545 52.829 250.499 52.448C249.419 52.3482 248.276 52.2575 247.106 52.2031C242.986 51.9261 238.852 51.9261 234.733 52.2031C233.39 52.321 232.011 52.4752 230.669 52.6566C225.87 53.21 222.069 57.1561 221.924 61.6918Z" fill="white"/>
<path d="M224.372 94.349C224.372 94.349 219.782 130.036 220.181 152.697C218.593 173.942 217.26 218.546 214.838 223.372C214.92 224.452 218.711 224.697 219.727 224.043C219.727 224.043 235.621 187.195 233.48 152.697C248.076 116.692 247.205 94.349 247.205 94.349H224.372Z" fill="#FFB573"/>
<path d="M230.586 94.349C230.586 94.349 241.018 134.626 245.155 154.402C249.491 175.176 255.215 210.082 253.999 223.88C255.17 224.57 257.319 224.651 259.669 223.88C259.669 223.88 268.976 177.516 259.606 155.282C263.715 106.142 250.706 94.349 250.706 94.349H230.586Z" fill="#FFB573"/>
<path opacity="0.1" d="M249.645 65.7195C249.191 70.3913 251.232 75.054 252.14 76.8501C252.334 74.2233 252.713 71.6133 253.274 69.0396L249.645 65.7195Z" fill="black"/>
<path d="M246.244 38.2239C245.164 42.1972 243.84 49.4906 246.434 52.1485C246.434 52.1485 248.249 55.641 237.78 55.3235C236.995 57.4867 236.328 59.6914 235.784 61.9275C235.784 61.9275 234.968 56.8022 235.694 55.2056C228.935 54.625 234.061 52.1485 234.061 52.1485C238.597 51.0872 238.705 47.7942 238.17 44.7009L246.244 38.2239Z" fill="#FFB573"/>
<path opacity="0.2" d="M242.951 40.8274L238.17 44.6646C238.31 45.3881 238.383 46.123 238.388 46.8599C240.102 46.615 242.57 44.7553 242.923 42.9773C243.064 42.2684 243.073 41.5397 242.951 40.8274Z" fill="black"/>
<path d="M249.645 30.2318C248.429 36.6544 248.057 39.3939 244.393 42.4782C238.877 47.1137 231.303 44.6644 230.577 38.1058C229.924 32.2094 232.01 22.6843 238.623 20.5707C240.031 20.066 241.547 19.9471 243.016 20.2261C244.485 20.5051 245.853 21.172 246.977 22.1576C248.102 23.1432 248.942 24.4116 249.411 25.8313C249.88 27.251 249.961 28.7703 249.645 30.2318Z" fill="#FFB573"/>
<path d="M244.111 25.5874C247.658 30.1684 240.374 35.4299 247.658 35.1215C254.943 34.813 251.985 24.5351 247.658 22.1947C243.331 19.8542 244.111 25.5874 244.111 25.5874Z" fill="#263238"/>
<path d="M247.64 22.2764C246.733 26.6579 246.025 27.7918 242.125 26.6035C242.706 25.7233 242.963 24.6679 242.85 23.619C242.466 24.6756 241.685 25.5411 240.673 26.032C239.629 25.5852 238.541 25.2507 237.426 25.0341C237.63 24.4243 237.695 23.7764 237.616 23.1382C237.312 23.8748 236.798 24.5058 236.138 24.9525C234.941 24.9638 233.755 25.1722 232.627 25.5693C232.645 20.9338 240.465 15.9536 247.64 22.2764Z" fill="#263238"/>
<path d="M239.457 31.3024C239.384 31.8467 239.04 32.264 238.686 32.2096C238.332 32.1552 238.123 31.7288 238.196 31.1845C238.269 30.6402 238.622 30.2229 238.976 30.2774C239.33 30.3318 239.539 30.7582 239.457 31.3024Z" fill="#263238"/>
<path d="M232.899 30.9125C232.817 31.4568 232.472 31.8831 232.128 31.8196C231.783 31.7561 231.556 31.3297 231.638 30.7855C231.719 30.2412 232.064 29.8239 232.409 29.8783C232.754 29.9327 232.98 30.3682 232.899 30.9125Z" fill="#263238"/>
<path d="M232.555 29.9417L231.33 29.47C231.33 29.47 231.847 30.5223 232.555 29.9417Z" fill="#263238"/>
<path d="M234.596 31.9464C233.94 33.1517 233.135 34.2702 232.201 35.2756C232.447 35.4886 232.738 35.6439 233.052 35.7303C233.366 35.8166 233.695 35.8317 234.015 35.7745L234.596 31.9464Z" fill="#ED893E"/>
<path d="M236.819 38.0152C236.517 38.0385 236.214 38.0385 235.912 38.0152C235.891 38.0143 235.871 38.0089 235.852 37.9994C235.834 37.9899 235.818 37.9765 235.805 37.9601C235.792 37.9438 235.783 37.9249 235.778 37.9046C235.773 37.8844 235.772 37.8633 235.776 37.8429C235.778 37.8214 235.785 37.8005 235.795 37.7816C235.806 37.7626 235.82 37.7459 235.836 37.7324C235.853 37.7189 235.873 37.7088 235.893 37.7029C235.914 37.6969 235.936 37.6952 235.957 37.6977C236.631 37.7438 237.306 37.6391 237.934 37.3911C238.561 37.1432 239.126 36.7582 239.586 36.2644C239.616 36.235 239.657 36.2186 239.699 36.2186C239.742 36.2186 239.782 36.235 239.813 36.2644C239.842 36.2933 239.858 36.3325 239.858 36.3733C239.858 36.4141 239.842 36.4532 239.813 36.4821C239.031 37.3349 237.968 37.8789 236.819 38.0152Z" fill="#263238"/>
<path d="M250.27 36.4279C250.009 36.9949 249.632 37.5009 249.163 37.9134C248.694 38.3259 248.144 38.6356 247.549 38.8227C246.052 39.2219 245.408 37.5074 245.907 35.7929C246.351 34.2507 247.667 32.1643 249.127 32.5634C250.588 32.9626 251.014 34.922 250.27 36.4279Z" fill="#FFB573"/>
<path d="M241.29 28.3814C241.249 28.3832 241.207 28.3751 241.169 28.3577C241.132 28.3404 241.098 28.3143 241.073 28.2816C240.818 27.9885 240.496 27.7624 240.134 27.6232C239.771 27.484 239.38 27.4359 238.995 27.4833C238.956 27.4925 238.915 27.4934 238.875 27.4858C238.835 27.4782 238.797 27.4624 238.764 27.4393C238.731 27.4162 238.703 27.3864 238.681 27.3518C238.66 27.3172 238.647 27.2786 238.641 27.2384C238.63 27.1523 238.652 27.0652 238.703 26.9946C238.753 26.924 238.829 26.875 238.914 26.8574C239.4 26.7859 239.898 26.8381 240.359 27.0094C240.82 27.1806 241.231 27.4653 241.553 27.8371C241.612 27.898 241.645 27.9793 241.645 28.0639C241.645 28.1485 241.612 28.2298 241.553 28.2907C241.518 28.3228 241.476 28.3474 241.431 28.363C241.386 28.3786 241.338 28.3848 241.29 28.3814Z" fill="#263238"/>
<path d="M231.42 27.7917C231.38 27.795 231.341 27.7903 231.303 27.7778C231.266 27.7653 231.232 27.7454 231.202 27.7191C231.144 27.6598 231.111 27.5799 231.111 27.4968C231.111 27.4137 231.144 27.3339 231.202 27.2746C231.534 26.8787 231.951 26.5635 232.423 26.3529C232.894 26.1423 233.407 26.0418 233.924 26.059C233.964 26.0645 234.003 26.0781 234.038 26.0991C234.073 26.1201 234.103 26.148 234.127 26.1811C234.151 26.2143 234.167 26.2519 234.176 26.2917C234.185 26.3316 234.185 26.3728 234.178 26.4128C234.16 26.4968 234.113 26.5716 234.044 26.6234C233.976 26.6751 233.891 26.7002 233.806 26.694C233.398 26.6866 232.994 26.7708 232.624 26.9404C232.253 27.11 231.925 27.3606 231.665 27.6737C231.601 27.7425 231.513 27.7847 231.42 27.7917Z" fill="#263238"/>
<path d="M239.121 30.3135L237.896 29.8418C237.896 29.8418 238.404 30.9122 239.121 30.3135Z" fill="#263238"/>
<path d="M252.347 96.0544L251.594 93.4237C242.452 94.3325 233.238 94.2747 224.108 93.2513L223.963 96.1633C222.257 101.071 217.885 134.998 217.885 149.639C234.658 152.941 246.659 150.891 253.617 148.524C254.806 145.149 257.527 133.202 257.527 133.202C257.527 133.202 259.423 144.995 259.55 148.623C260.638 148.115 262.371 147.562 262.879 147.063C264.494 141.266 260.811 105.462 252.347 96.0544Z" fill="#263238"/>
<path d="M260.885 230.112H259.588L259.225 228.507L254.925 230.421H244.04C244.04 230.421 242.307 228.679 247.496 227.291C247.75 227.222 247.996 227.128 248.231 227.01C250.997 225.713 254.934 221.331 254.934 221.331H260.912C261.094 221.607 261.258 221.895 261.402 222.193C262.064 223.535 263.171 226.293 260.885 230.112Z" fill="#263238"/>
<path d="M261.392 222.256C260.603 221.349 257.011 225.241 254.38 226.556C252.031 227.726 249.391 228.243 248.221 227.055C250.987 225.758 255.342 220.097 255.342 220.097H260.15C260.15 220.097 261.157 221.657 261.392 222.256Z" fill="#FFB573"/>
<path d="M221.85 230.112H220.553L220.19 228.507L215.89 230.421H205.004C205.004 230.421 203.272 228.679 208.461 227.291C208.714 227.222 208.961 227.128 209.195 227.01C211.962 225.713 215.899 221.331 215.899 221.331H221.877C222.059 221.607 222.223 221.895 222.367 222.193C223.057 223.535 224.145 226.293 221.85 230.112Z" fill="#263238"/>
<path d="M222.357 222.256C221.568 221.349 217.976 225.241 215.345 226.556C212.996 227.726 210.356 228.243 209.186 227.055C211.952 225.758 216.307 220.097 216.307 220.097H221.114C221.114 220.097 222.076 221.657 222.357 222.256Z" fill="#FFB573"/>
<path d="M227.175 94.0312V96.0995C226.022 95.9181 224.879 95.7004 223.764 95.4282V93.5142C223.764 93.5142 224.997 93.7591 227.175 94.0312Z" fill="#263238"/>
<path d="M241.879 94.6664L242.07 96.6349C237.307 96.9513 232.525 96.7994 227.791 96.1813L227.746 94.104C232.437 94.6326 237.161 94.8206 241.879 94.6664Z" fill="#263238"/>
<path d="M252.502 95.4829C249.244 96.0324 245.958 96.4049 242.66 96.5987L242.451 94.6392C245.399 94.5395 248.611 94.3036 252.022 93.8682L252.502 95.4829Z" fill="#263238"/>
<path opacity="0.4" d="M227.175 94.0312V96.0995C226.022 95.9181 224.879 95.7004 223.764 95.4282V93.5142C223.764 93.5142 224.997 93.7591 227.175 94.0312Z" fill="white"/>
<path opacity="0.4" d="M241.879 94.6664L242.07 96.6349C237.307 96.9513 232.525 96.7994 227.791 96.1813L227.746 94.104C232.437 94.6326 237.161 94.8206 241.879 94.6664Z" fill="white"/>
<path opacity="0.4" d="M252.502 95.4829C249.244 96.0324 245.958 96.4049 242.66 96.5987L242.451 94.6392C245.399 94.5395 248.611 94.3036 252.022 93.8682L252.502 95.4829Z" fill="white"/>
<path d="M232.19 94.6483V96.4626C232.192 96.5863 232.241 96.7047 232.327 96.7939C232.412 96.8831 232.529 96.9365 232.652 96.9433L235.583 97.0704C235.649 97.0743 235.716 97.0641 235.778 97.0405C235.84 97.0168 235.897 96.9802 235.944 96.933C235.991 96.8859 236.028 96.8293 236.052 96.7669C236.075 96.7046 236.085 96.638 236.081 96.5714L235.982 94.7571C235.977 94.6383 235.928 94.5255 235.844 94.4414C235.76 94.3573 235.647 94.3081 235.528 94.3036L232.698 94.1494C232.631 94.1455 232.564 94.1557 232.501 94.1793C232.438 94.2029 232.381 94.2393 232.333 94.2863C232.285 94.3333 232.248 94.3898 232.223 94.4521C232.199 94.5145 232.187 94.5813 232.19 94.6483Z" fill="white"/>
<path d="M237.779 55.3417C237.779 55.3417 243.05 53.99 245.944 50.7062C245.944 50.7062 248.348 51.4047 248.765 52.2483C249.182 53.092 248.175 58.4804 245.681 58.6528C244.201 58.7139 242.727 58.449 241.361 57.8768C239.996 57.3046 238.773 56.4391 237.779 55.3417Z" fill="#223A74"/>
<path d="M235.694 55.2056C235.694 55.2056 231.503 58.0449 229.716 57.4462C227.929 56.8475 231.385 51.577 237.245 50.688C237.245 50.688 234.433 52.5295 235.694 55.2056Z" fill="#223A74"/>
<path opacity="0.7" d="M237.779 55.3417C237.779 55.3417 243.05 53.99 245.944 50.7062C245.944 50.7062 248.348 51.4047 248.765 52.2483C249.182 53.092 248.175 58.4804 245.681 58.6528C244.201 58.7139 242.727 58.449 241.361 57.8768C239.996 57.3046 238.773 56.4391 237.779 55.3417Z" fill="white"/>
<path opacity="0.7" d="M235.694 55.2056C235.694 55.2056 231.503 58.0449 229.716 57.4462C227.929 56.8475 231.385 51.577 237.245 50.688C237.245 50.688 234.433 52.5295 235.694 55.2056Z" fill="white"/>
<path d="M150.113 31.3841L203.508 23.5373C204.553 23.4407 205.603 23.6705 206.513 24.1953C207.423 24.72 208.148 25.5138 208.588 26.4674L244.374 109.326C244.581 109.718 244.689 110.154 244.688 110.598C244.688 111.041 244.579 111.477 244.372 111.869C244.164 112.26 243.864 112.595 243.498 112.844C243.132 113.094 242.71 113.25 242.27 113.299L188.884 121.146C187.839 121.245 186.79 121.017 185.88 120.494C184.97 119.97 184.245 119.178 183.804 118.225L148.018 35.3846C147.805 34.9923 147.693 34.5538 147.69 34.1077C147.686 33.6616 147.793 33.2216 148 32.8264C148.207 32.4312 148.508 32.093 148.877 31.8415C149.245 31.59 149.67 31.4329 150.113 31.3841Z" fill="#223A74"/>
<path opacity="0.6" d="M150.113 31.3841L203.508 23.5373C204.553 23.4407 205.603 23.6705 206.513 24.1953C207.423 24.72 208.148 25.5138 208.588 26.4674L244.374 109.326C244.581 109.718 244.689 110.154 244.688 110.598C244.688 111.041 244.579 111.477 244.372 111.869C244.164 112.26 243.864 112.595 243.498 112.844C243.132 113.094 242.71 113.25 242.27 113.299L188.884 121.146C187.839 121.245 186.79 121.017 185.88 120.494C184.97 119.97 184.245 119.178 183.804 118.225L148.018 35.3846C147.805 34.9923 147.693 34.5538 147.69 34.1077C147.686 33.6616 147.793 33.2216 148 32.8264C148.207 32.4312 148.508 32.093 148.877 31.8415C149.245 31.59 149.67 31.4329 150.113 31.3841Z" fill="white"/>
<path d="M204.614 27.7192L239.857 109.317L187.778 116.973L152.535 35.3665L204.614 27.7192Z" fill="#223A74"/>
<path opacity="0.4" d="M196.649 102.26C207.044 102.104 215.269 88.5841 215.021 72.063C214.773 55.5418 206.145 42.2752 195.751 42.4312C185.356 42.5873 177.131 56.1068 177.379 72.628C177.627 89.1492 186.254 102.416 196.649 102.26Z" fill="white"/>
<path d="M204.968 92.6525L212.833 77.7753L205.267 78.8911L202.772 73.1307L191.034 74.8543L193.528 80.6147L185.963 81.7305L204.968 92.6525Z" fill="white"/>
<path d="M200.041 66.808L188.303 68.5316L190.335 73.2306L202.073 71.507L200.041 66.808Z" fill="white"/>
<path d="M198.129 62.363L186.391 64.0866L187.379 66.3726L199.118 64.649L198.129 62.363Z" fill="white"/>
<path d="M196.397 58.3535L184.658 60.0771L185.112 61.1203L196.85 59.3967L196.397 58.3535Z" fill="white"/>
<path d="M194.09 53.0104L182.352 54.734L182.578 55.2601L194.308 53.5365L194.09 53.0104Z" fill="white"/>
<path opacity="0.2" d="M150.113 31.3841L203.508 23.5373C204.553 23.4407 205.603 23.6705 206.513 24.1953C207.423 24.72 208.148 25.5138 208.588 26.4674L244.374 109.326C244.581 109.718 244.689 110.154 244.688 110.598C244.688 111.041 244.579 111.477 244.372 111.869C244.164 112.26 243.864 112.595 243.498 112.844C243.132 113.094 242.71 113.25 242.27 113.299L188.884 121.146C187.839 121.245 186.79 121.017 185.88 120.494C184.97 119.97 184.245 119.178 183.804 118.225L148.018 35.3846C147.805 34.9923 147.693 34.5538 147.69 34.1077C147.686 33.6616 147.793 33.2216 148 32.8264C148.207 32.4312 148.508 32.093 148.877 31.8415C149.245 31.59 149.67 31.4329 150.113 31.3841Z" fill="black"/>
<path d="M258.126 60.2493C259.242 63.8779 260.231 67.5065 261.111 71.1804C261.555 72.9947 261.973 74.8816 262.345 76.7775C262.526 77.73 262.716 78.6825 262.862 79.6894C262.934 80.1974 263.007 80.7054 263.061 81.2588C263.061 81.54 263.116 81.8303 263.134 82.1659C263.134 82.3111 263.134 82.5016 263.134 82.7102V83.0096C263.142 83.1607 263.142 83.3121 263.134 83.4632C263.025 84.6143 262.595 85.7116 261.891 86.6291C261.375 87.28 260.763 87.8489 260.077 88.3164C259.062 89.0046 257.965 89.5623 256.811 89.9764C254.867 90.6668 252.862 91.174 250.824 91.4914C246.988 92.107 243.105 92.3681 239.221 92.2715C238.723 92.2595 238.246 92.0661 237.879 91.7275C237.513 91.389 237.283 90.9285 237.232 90.4323C237.18 89.9361 237.312 89.4383 237.601 89.0321C237.891 88.6259 238.318 88.3392 238.804 88.2257H238.868C242.415 87.4364 246.025 86.5474 249.4 85.5042C251.013 85.0203 252.587 84.4137 254.108 83.6899C254.692 83.4145 255.238 83.0638 255.731 82.6467C255.895 82.4925 255.976 82.3564 255.94 82.3746C255.8 82.5376 255.714 82.7407 255.695 82.9552V83.064V83.0096V82.8463L255.614 82.3564C255.541 81.9845 255.45 81.5763 255.35 81.1681L254.706 78.5918C254.235 76.841 253.736 75.0721 253.237 73.3031C252.23 69.7562 251.214 66.173 250.234 62.617C249.941 61.5716 250.073 60.4528 250.601 59.5041C251.129 58.5553 252.01 57.8533 253.052 57.5508C254.095 57.2483 255.215 57.3697 256.169 57.8887C257.122 58.4076 257.832 59.2821 258.144 60.3219L258.126 60.2493Z" fill="#FFB573"/>
<path d="M250.761 52.439C255.197 53.1193 260.168 57.7276 263.788 66.6358C259.597 73.8929 253.365 74.8001 253.365 74.8001C253.365 74.8001 244.665 62.7532 250.761 52.439Z" fill="#223A74"/>
<path d="M231.947 86.1846L233.825 85.4135C234.173 85.269 234.551 85.2101 234.926 85.2417C235.302 85.2732 235.665 85.3944 235.984 85.595L239.014 87.4909C239.609 87.8661 240.106 88.3778 240.465 88.9836C240.823 89.5894 241.031 90.2718 241.073 90.9743L241.118 91.8815C238.097 93.3783 233.716 92.7886 233.716 92.7886H232.455C232.195 92.7899 231.937 92.7392 231.696 92.6396C231.455 92.5399 231.237 92.3933 231.054 92.2084C230.871 92.0234 230.726 91.8038 230.629 91.5623C230.531 91.3208 230.483 91.0623 230.487 90.802V88.2892C230.489 87.8321 230.631 87.3865 230.891 87.011C231.152 86.6354 231.52 86.3474 231.947 86.1846Z" fill="#FFB573"/>
<path opacity="0.8" d="M250.761 52.439C255.197 53.1193 260.168 57.7276 263.788 66.6358C259.597 73.8929 253.365 74.8001 253.365 74.8001C253.365 74.8001 244.665 62.7532 250.761 52.439Z" fill="white"/>
<path d="M76.2744 225.631L82.4883 224.706L82.1436 210.11L75.9297 211.035L76.2744 225.631Z" fill="#E4897B"/>
<path d="M29.0391 224.035L35.1804 225.286L39.825 211.407L33.6746 210.155L29.0391 224.035Z" fill="#E4897B"/>
<path opacity="0.2" d="M82.1429 210.11L82.3244 217.639L76.1013 218.564L75.9199 211.035L82.1429 210.11Z" fill="black"/>
<path opacity="0.2" d="M33.6742 210.155L39.8246 211.407L37.4297 218.564L31.2793 217.313L33.6742 210.155Z" fill="black"/>
<path d="M84.4572 215.906L73.9253 217.467C73.9253 217.467 73.127 182.179 72.8548 162.648C72.5703 154.865 71.8373 147.105 70.6595 139.407C69.0811 128.149 66.9312 115.948 65.1441 106.387C63.2572 96.3176 61.7695 89.1511 61.7695 89.1511H83.8494C83.8494 89.1511 90.5532 138.999 90.4444 158.094C90.2901 178.078 84.4572 215.906 84.4572 215.906Z" fill="#263238"/>
<path opacity="0.2" d="M70.658 139.407C69.0796 128.149 66.9297 115.948 65.1426 106.387L67.8187 101.652C72.69 108.501 72.5449 128.612 70.658 139.407Z" fill="black"/>
<path d="M71.8919 89.1873C71.8919 89.1873 64.8797 143.035 61.4416 161.115C57.6769 180.918 40.5773 217.721 40.5773 217.721L29.3105 215.435C29.3105 215.435 40.9129 181.444 43.3894 161.577C45.5031 144.659 48.3606 111.548 49.6034 96.6985C49.7657 94.6467 50.6971 92.7319 52.2109 91.3375C53.7248 89.9431 55.7095 89.1718 57.7677 89.1783L71.8919 89.1873Z" fill="#263238"/>
<path d="M41.8647 218.238L28.6113 215.544L29.455 211.588L43.4613 213.602L41.8647 218.238Z" fill="#263238"/>
<path d="M85.7881 215.997L73.215 217.684L72.707 213.638L86.5047 211.57L85.7881 215.997Z" fill="#263238"/>
<path d="M83.0228 223.49L76.1558 223.354C76.0317 223.354 75.9111 223.395 75.8127 223.47C75.7142 223.546 75.6435 223.651 75.6115 223.771L74.2145 229.314C74.1792 229.45 74.1761 229.593 74.2056 229.731C74.2351 229.869 74.2963 229.998 74.3843 230.108C74.4724 230.218 74.5848 230.306 74.7128 230.365C74.8408 230.424 74.9808 230.452 75.1216 230.448C77.5981 230.448 81.1813 230.375 84.2928 230.448C87.9214 230.52 90.2437 230.321 94.5073 230.403C97.0926 230.457 97.8819 227.872 96.8114 227.618C91.9219 226.447 88.7379 226.71 84.5559 223.989C84.1027 223.68 83.5709 223.507 83.0228 223.49Z" fill="#263238"/>
<path d="M83.521 224.243C83.5166 224.213 83.5222 224.183 83.537 224.156C83.5518 224.13 83.5749 224.11 83.6026 224.098C83.8929 223.953 86.4511 222.719 87.2312 223.191C87.3016 223.231 87.3602 223.289 87.4016 223.359C87.4429 223.429 87.4654 223.509 87.4671 223.59C87.4806 223.725 87.4603 223.861 87.4081 223.986C87.3558 224.111 87.2732 224.221 87.1677 224.306C86.4601 224.896 84.6731 224.624 83.6661 224.397C83.6294 224.389 83.596 224.37 83.5702 224.342C83.5443 224.315 83.5272 224.28 83.521 224.243ZM84.1378 224.17C85.5167 224.424 86.5599 224.388 86.95 224.052C87.0204 223.997 87.0751 223.925 87.1085 223.842C87.142 223.759 87.153 223.669 87.1405 223.581C87.1435 223.549 87.1375 223.516 87.1231 223.487C87.1086 223.459 87.0864 223.434 87.0589 223.417H87.0044C86.5327 223.227 85.172 223.717 84.1378 224.17Z" fill="#223A74"/>
<path d="M83.5756 224.343C83.5552 224.327 83.5395 224.306 83.5299 224.282C83.5204 224.258 83.5173 224.232 83.5211 224.207C83.6122 223.322 83.9769 222.488 84.5644 221.821C84.6792 221.725 84.8125 221.654 84.9561 221.612C85.0997 221.57 85.2505 221.557 85.3989 221.576C85.8071 221.631 85.916 221.839 85.9432 222.003C86.0339 222.719 84.4918 224.044 83.7298 224.361C83.6916 224.374 83.6501 224.374 83.6119 224.361L83.5756 224.343ZM85.3899 221.876C85.2807 221.861 85.1697 221.868 85.0636 221.898C84.9575 221.928 84.8586 221.979 84.773 222.048C84.2808 222.577 83.964 223.246 83.8659 223.962C84.6551 223.517 85.6801 222.474 85.6801 222.048C85.6801 222.048 85.6801 221.957 85.5441 221.912L85.3899 221.876Z" fill="#223A74"/>
<path d="M92.4297 41.4807C93.9174 44.2747 95.5957 47.241 97.3102 49.9353C98.1629 51.305 99.07 52.6023 99.9772 53.7997C100.759 54.8498 101.653 55.8111 102.644 56.6663C102.725 56.7374 102.81 56.804 102.898 56.8658C102.959 56.9162 103.026 56.9588 103.098 56.9929L103.161 57.0473C103.213 57.0832 103.272 57.1079 103.334 57.1199C103.93 57.2587 104.537 57.3497 105.148 57.392C106.627 57.4918 108.278 57.5008 109.938 57.4646C113.258 57.392 116.714 57.2287 120.125 57.1199H120.179C120.743 57.1043 121.295 57.2892 121.735 57.6416C122.176 57.994 122.477 58.4912 122.586 59.0448C122.695 59.5984 122.604 60.1727 122.329 60.6656C122.055 61.1586 121.614 61.5382 121.086 61.7372C117.728 62.9893 114.28 63.9869 110.772 64.7217C108.935 65.1114 107.074 65.3811 105.202 65.5291C104.09 65.6179 102.972 65.5996 101.864 65.4746C101.498 65.4247 101.134 65.3551 100.775 65.266L100.131 65.0755L99.6052 64.8669C99.276 64.7384 98.9548 64.59 98.6437 64.4224C98.348 64.2799 98.063 64.1161 97.7909 63.9325C95.9785 62.7567 94.3467 61.3235 92.9468 59.678C91.6855 58.2524 90.5102 56.7529 89.4271 55.1876C88.3748 53.6636 87.386 52.1215 86.4789 50.5431C85.5717 48.9646 84.6646 47.4225 83.8844 45.6808C82.7596 43.304 84.4287 39.9204 86.7964 38.7955C89.164 37.6707 91.45 39.113 92.3753 41.4081L92.4297 41.4807Z" fill="#223A74"/>
<path opacity="0.7" d="M122.657 59.433C122.669 59.9318 122.525 60.4219 122.246 60.835C121.966 61.2481 121.564 61.5635 121.096 61.7372C117.741 62.9975 114.292 63.9953 110.782 64.7217C108.947 65.1202 107.085 65.39 105.212 65.5291C104.104 65.627 102.988 65.6088 101.883 65.4746C101.514 65.4282 101.147 65.3615 100.785 65.2751L100.141 65.0846L99.9962 65.0211L99.6242 64.8759C99.2913 64.7491 98.9671 64.6006 98.6536 64.4314C98.3452 64.2681 98.064 64.1048 97.8009 63.9415C96.4565 63.0824 95.22 62.0652 94.1179 60.9117C93.7187 60.5035 93.3377 60.0862 92.9567 59.678C91.6984 58.2554 90.5262 56.7589 89.4461 55.1967C88.7567 54.1988 88.0944 53.201 87.4685 52.185C87.1298 51.6407 86.8033 51.0964 86.4888 50.5521C85.5817 48.9555 84.7199 47.4315 83.8944 45.6898C82.7786 43.3131 84.4387 39.9204 86.8154 38.8046C89.1921 37.6888 91.4599 39.1221 92.3852 41.4172V41.4807C93.873 44.2747 95.5602 47.241 97.2657 49.9352C98.1184 51.296 99.0346 52.5932 99.9418 53.7997C100.72 54.8493 101.612 55.8106 102.6 56.6663C102.683 56.7352 102.771 56.7988 102.863 56.8568L103.053 56.9928L103.126 57.0473C103.18 57.0791 103.238 57.1035 103.298 57.1198C103.895 57.2587 104.501 57.3497 105.112 57.392C105.62 57.392 106.156 57.4464 106.7 57.4645C107.734 57.4645 108.814 57.4645 109.902 57.4645C113.222 57.392 116.679 57.2287 120.098 57.1198H120.153C120.47 57.104 120.787 57.1516 121.085 57.2599C121.384 57.3681 121.658 57.5349 121.891 57.7503C122.124 57.9657 122.312 58.2255 122.443 58.5145C122.575 58.8034 122.647 59.1157 122.657 59.433Z" fill="white"/>
<path opacity="0.1" d="M94.1162 60.9118C93.717 60.5035 93.336 60.0863 92.955 59.678C91.6967 58.2554 90.5244 56.759 89.4444 55.1967C88.7549 54.1989 88.0927 53.201 87.4668 52.185L90.923 46.343C90.923 46.343 95.0777 51.3505 94.1162 60.9118Z" fill="black"/>
<path opacity="0.1" d="M122.655 59.433C122.667 59.9317 122.523 60.4218 122.243 60.8349C121.964 61.248 121.562 61.5634 121.094 61.7371C117.739 62.9974 114.29 63.9953 110.78 64.7216C108.945 65.1201 107.083 65.3899 105.21 65.529C104.102 65.6269 102.986 65.6087 101.881 65.4746C101.512 65.4281 101.145 65.3615 100.783 65.275L100.139 65.0845L99.9941 65.021C101.921 62.2343 104.188 59.6989 106.743 57.4736C107.777 57.4736 108.857 57.4736 109.946 57.4736C113.266 57.401 116.722 57.2377 120.142 57.1288H120.196C120.828 57.1093 121.441 57.3408 121.902 57.7728C122.363 58.2047 122.633 58.8017 122.655 59.433Z" fill="black"/>
<path d="M55.6004 34.7586C56.122 41.74 56.122 48.7505 55.6004 55.7318C55.2647 60.6122 54.6932 65.2296 54.1489 69.4025C52.7973 79.1724 51.1553 86.5203 50.9648 89.0694L84.3296 92.7977C95.5782 58.5893 90.5073 38.9769 90.5073 38.9769C87.9958 38.0131 85.4266 37.2072 82.8147 36.5639C82.2613 36.4187 81.6989 36.3008 81.1274 36.1829C76.4326 35.381 71.6955 34.8509 66.9396 34.5953C66.0325 34.5409 65.1254 34.5046 64.2182 34.4865C59.6916 34.3958 55.6004 34.7586 55.6004 34.7586Z" fill="#223A74"/>
<path opacity="0.7" d="M89.9092 70.7634C89.5282 73.0071 89.0595 75.3566 88.5032 77.8119C87.4599 82.4293 86.0992 87.4186 84.3394 92.7708L50.9746 89.0424C51.1651 86.4842 52.7889 79.1454 54.1678 69.3755C54.1678 69.2666 54.1678 69.1668 54.2131 69.058C54.7755 64.9758 55.2835 60.4673 55.6101 55.7048C55.6918 54.5981 55.7553 53.4732 55.8097 52.3302C56.1241 46.4658 56.0544 40.587 55.601 34.7317C55.601 34.7317 59.6923 34.3688 64.2371 34.4595C65.1442 34.4595 66.0513 34.5049 66.9585 34.5684C71.7144 34.8239 76.4515 35.354 81.1462 36.1559C81.7177 36.2647 82.2802 36.3917 82.8335 36.5278C85.4445 37.1744 88.0135 37.9803 90.5261 38.9408C90.5261 38.9408 93.4562 50.3164 89.9092 70.7634Z" fill="white"/>
<path d="M78.3875 42.406C78.9136 44.9913 79.476 67.425 79.6847 74.02L77.0721 76.5781L75.2578 73.4212C75.5844 67.1347 77.5529 45.5719 77.0721 42.2971L78.3875 42.406Z" fill="#223A74"/>
<path d="M78.0686 44.4016L79.5926 41.4081L77.4608 40.1653L75.6465 41.0089L78.0686 44.4016Z" fill="#223A74"/>
<path d="M77.3613 40.1562C75.3274 40.0337 73.344 39.4734 71.5467 38.5136C69.7494 37.5539 68.1805 36.2174 66.9473 34.5954C70.5123 31.874 70.6303 23.4738 70.2946 18.8202L71.6644 20.2898L78.0961 27.2203C77.6645 28.25 77.3599 29.3284 77.1889 30.4316C76.9077 32.7902 77.6878 34.9674 81.0987 36.1829C81.8244 37.7886 81.2983 40.51 77.3613 40.1562Z" fill="#E4897B"/>
<path opacity="0.2" d="M78.0965 27.2205C77.665 28.2501 77.3604 29.3285 77.1894 30.4318C73.5608 31.4659 70.6035 27.6105 70.6035 23.6917C70.6035 22.331 71.4018 21.061 71.6286 20.299L78.0965 27.2205Z" fill="black"/>
<path d="M87.8944 10.529C88.5747 12.9692 88.0032 17.9131 84.6831 16.1896C81.3629 14.466 86.7241 6.35614 87.8944 10.529Z" fill="#263238"/>
<path d="M70.4049 13.2321C69.8425 19.4279 69.1894 23.0292 71.811 26.6215C75.7571 32.0644 83.7944 30.3227 86.2074 24.4081C88.3755 19.0831 88.9288 9.84841 83.2955 6.53733C82.0436 5.80387 80.6263 5.39977 79.1759 5.36278C77.7255 5.32579 76.2894 5.65713 75.0019 6.32583C73.7143 6.99453 72.6173 7.97875 71.8134 9.18652C71.0095 10.3943 70.5249 11.7862 70.4049 13.2321Z" fill="#E4897B"/>
<path d="M85.4625 11.8443C89.7987 11.8443 93.3366 7.58976 88.184 3.44411C86.971 2.53899 85.6117 1.84862 84.1653 1.40304C84.1653 1.40304 85.1904 3.08126 83.9748 4.21519C83.5374 2.94076 82.6994 1.84211 81.5859 1.08343C80.4724 0.324746 79.1433 -0.0532159 77.7972 0.00604109C78.4412 1.3849 77.3527 4.14261 75.3388 3.19011C72.2817 1.75682 67.6825 2.17412 67.9002 6.07484C63.7455 7.97077 65.4781 14.3843 70.8666 17.6772C73.9509 15.3731 73.7876 9.55827 73.7876 9.55827C76.6723 10.9371 81.5437 11.7989 85.4625 11.8443Z" fill="#263238"/>
<path d="M68.7157 6.61906C68.7157 6.61906 66.3299 4.95898 68.4254 2.99048C65.6949 3.63455 66.3481 5.8117 68.7157 6.61906Z" fill="#263238"/>
<path d="M69.0446 7.26321C69.0446 7.26321 66.9219 5.27657 65.416 7.73493C65.4886 4.94999 67.7655 5.13142 69.0446 7.26321Z" fill="#263238"/>
<path d="M67.2564 17.9856C67.3776 18.7477 67.6485 19.4783 68.0533 20.1353C68.458 20.7923 68.9888 21.3627 69.615 21.8137C71.3022 23.0021 72.8625 21.6505 72.9805 19.691C73.0984 17.9312 72.3545 15.1553 70.3679 14.7743C69.9343 14.703 69.4899 14.7378 69.0727 14.8757C68.6554 15.0136 68.2778 15.2504 67.972 15.566C67.6663 15.8815 67.4415 16.2665 67.3168 16.6878C67.1922 17.1092 67.1715 17.5545 67.2564 17.9856Z" fill="#E4897B"/>
<path d="M79.4758 16.3345C79.4032 16.8334 79.6028 17.2416 79.9294 17.3233C80.256 17.4049 80.5916 17.0058 80.6642 16.5069C80.7367 16.0079 80.5372 15.5997 80.2106 15.509C79.884 15.4183 79.5575 15.7993 79.4758 16.3345Z" fill="#263238"/>
<path d="M85.172 17.1147C85.0904 17.6136 85.299 18.0219 85.6256 18.1035C85.9522 18.1851 86.2787 17.786 86.3604 17.2871C86.442 16.7881 86.2334 16.3799 85.9068 16.2892C85.5802 16.1985 85.2174 16.6158 85.172 17.1147Z" fill="#263238"/>
<path d="M83.3037 17.1057C83.7012 18.6724 84.3116 20.1771 85.118 21.5779C84.7379 21.7579 84.3241 21.8558 83.9036 21.8651C83.4832 21.8745 83.0655 21.7952 82.6777 21.6324L83.3037 17.1057Z" fill="#DE5753"/>
<path d="M79.675 23.1563C79.8881 23.2216 80.1068 23.2672 80.3282 23.2924C80.3667 23.2984 80.406 23.2888 80.4375 23.2659C80.4689 23.2429 80.49 23.2084 80.496 23.1699C80.502 23.1314 80.4925 23.0921 80.4695 23.0606C80.4466 23.0291 80.412 23.0081 80.3736 23.0021C79.7492 22.9285 79.1514 22.7075 78.6293 22.3574C78.1072 22.0072 77.6759 21.5379 77.3709 20.9882C77.3631 20.9699 77.3516 20.9533 77.3372 20.9396C77.3227 20.9259 77.3056 20.9153 77.2869 20.9085C77.2682 20.9017 77.2483 20.8988 77.2284 20.9001C77.2085 20.9013 77.1891 20.9066 77.1713 20.9156C77.136 20.9333 77.1087 20.9638 77.0952 21.0009C77.0817 21.0381 77.083 21.079 77.0988 21.1152C77.3668 21.6128 77.7335 22.0504 78.1765 22.4013C78.6195 22.7523 79.1294 23.0092 79.675 23.1563Z" fill="#263238"/>
<path d="M78.015 14.221C78.0656 14.2337 78.1186 14.2337 78.1693 14.2211C78.2199 14.2084 78.2666 14.1835 78.3053 14.1485C78.5627 13.8766 78.8816 13.6704 79.2352 13.5473C79.5888 13.4242 79.9667 13.3877 80.3373 13.4409C80.4154 13.4574 80.4968 13.4429 80.5645 13.4006C80.6321 13.3584 80.6808 13.2915 80.7002 13.2141C80.7095 13.1759 80.711 13.1363 80.7045 13.0975C80.698 13.0587 80.6837 13.0217 80.6625 12.9886C80.6413 12.9556 80.6136 12.9271 80.5811 12.9051C80.5486 12.883 80.512 12.8678 80.4734 12.8603C80.0013 12.7925 79.5198 12.8396 79.0697 12.9975C78.6196 13.1554 78.2143 13.4195 77.888 13.7675C77.8598 13.7953 77.8373 13.8285 77.822 13.8651C77.8067 13.9017 77.7988 13.941 77.7988 13.9806C77.7988 14.0203 77.8067 14.0596 77.822 14.0962C77.8373 14.1328 77.8598 14.166 77.888 14.1938C77.9283 14.2106 77.9714 14.2199 78.015 14.221Z" fill="#263238"/>
<path d="M87.8953 15.5181C87.9513 15.5361 88.0116 15.5361 88.0677 15.5181C88.1433 15.495 88.2068 15.443 88.2442 15.3733C88.2815 15.3036 88.2899 15.2219 88.2672 15.1462C88.1363 14.6933 87.8981 14.2788 87.5728 13.9376C87.2475 13.5965 86.8447 13.3389 86.3985 13.1867C86.3228 13.1672 86.2424 13.1781 86.1746 13.2171C86.1068 13.2561 86.0569 13.3201 86.0357 13.3954C86.0246 13.4323 86.021 13.4711 86.0251 13.5094C86.0291 13.5477 86.0408 13.5849 86.0594 13.6186C86.0779 13.6524 86.1031 13.6822 86.1333 13.7061C86.1635 13.7301 86.1981 13.7478 86.2352 13.7582C86.588 13.8812 86.9055 14.0884 87.16 14.3619C87.4145 14.6354 87.5984 14.9669 87.6957 15.3276C87.7098 15.3738 87.7356 15.4156 87.7706 15.449C87.8055 15.4824 87.8485 15.5062 87.8953 15.5181Z" fill="#263238"/>
<path d="M77.4618 40.1652C77.4618 40.1652 75.7564 41.8979 73.8332 43.5851C71.393 41.9432 65.7324 37.6524 66.3221 34.2778C66.7431 33.6068 67.3846 33.1033 68.1364 32.8536C70.8301 35.7779 73.9793 38.247 77.4618 40.1652Z" fill="#223A74"/>
<path d="M77.4609 40.1654C78.6347 41.3849 79.6331 42.7619 80.4273 44.2566C82.423 43.1499 82.0239 36.7182 81.3889 35.9472C80.71 35.334 79.8572 34.9473 78.9487 34.8405C78.9487 34.8405 80.4999 39.739 77.4609 40.1654Z" fill="#223A74"/>
<g opacity="0.5">
<path d="M77.4638 40.1651C77.4638 40.1651 75.7583 41.8977 73.8352 43.585C71.395 41.9431 65.7344 37.6523 66.324 34.2777C66.745 33.6067 67.3865 33.1032 68.1383 32.8535C70.8321 35.7777 73.9813 38.2468 77.4638 40.1651Z" fill="white"/>
</g>
<g opacity="0.5">
<path d="M77.4629 40.1653C78.6367 41.3848 79.6351 42.7617 80.4293 44.2565C82.425 43.1498 82.0258 36.7181 81.3908 35.947C80.7119 35.3339 79.8591 34.9471 78.9506 34.8403C78.9506 34.8403 80.5018 39.7389 77.4629 40.1653Z" fill="white"/>
</g>
<path opacity="0.1" d="M89.9078 70.7632C89.5268 73.0069 89.0581 75.3564 88.5017 77.8117C83.2947 78.1746 69.0707 78.8549 62.1945 76.1789C58.8018 74.8726 56.162 72.0151 54.2207 69.0578C54.7831 64.9756 55.2911 60.4671 55.6177 55.7046C55.6993 54.5979 55.7629 53.473 55.8173 52.33L62.2399 44.2292C62.2399 44.2292 67.9912 61.8732 70.1774 63.6059C71.9463 65.0482 85.109 69.2755 89.9078 70.7632Z" fill="black"/>
<path d="M51.8434 83.5177C51.8434 83.5177 48.3418 92.3986 48.3418 111.476L59.9079 115.812L68.8433 103.466L84.4915 103.883L84.6185 93.5689L85.0811 90.3485L51.8434 83.5177Z" fill="#263238"/>
<path d="M51.6175 84.0891L53.4136 84.452L52.8875 86.9829L50.8555 86.5928L51.6175 84.0891Z" fill="black"/>
<path d="M54.5386 84.6698L63.8549 86.5385L63.3469 88.9787L54.0215 87.2007L54.5386 84.6698Z" fill="black"/>
<path d="M64.9794 86.7563L80.3011 89.8225L80.2013 92.1992L64.4805 89.1966L64.9794 86.7563Z" fill="black"/>
<path d="M85.1265 90.7839L84.6548 93.0517L81.3438 92.4167L81.4345 90.0491L85.1265 90.7839Z" fill="black"/>
<path d="M70.8401 88.0898L70.4047 90.403C70.3941 90.4537 70.3938 90.5059 70.4036 90.5568C70.4134 90.6076 70.4333 90.6559 70.462 90.699C70.4907 90.742 70.5277 90.7789 70.5708 90.8075C70.6139 90.8362 70.6623 90.8559 70.7131 90.8657L74.2873 91.6277C74.3405 91.6409 74.3959 91.6428 74.4499 91.6332C74.5039 91.6235 74.5553 91.6026 74.6006 91.5718C74.646 91.541 74.6844 91.501 74.7132 91.4543C74.7421 91.4077 74.7607 91.3555 74.768 91.3011L75.1037 88.9425C75.1174 88.8409 75.0924 88.7377 75.0336 88.6537C74.9748 88.5696 74.8864 88.5108 74.7862 88.489L71.339 87.7723C71.2853 87.7561 71.2287 87.7516 71.173 87.7592C71.1174 87.7669 71.0641 87.7865 71.0167 87.8166C70.9694 87.8468 70.9291 87.8868 70.8986 87.9339C70.8681 87.9811 70.8482 88.0343 70.8401 88.0898Z" fill="white"/>
<path d="M34.9166 223.49L28.0223 223.354C27.8982 223.354 27.7776 223.395 27.6791 223.47C27.5807 223.546 27.51 223.651 27.478 223.771L26.0719 229.314C26.0366 229.45 26.0336 229.593 26.063 229.731C26.0925 229.869 26.1537 229.998 26.2418 230.108C26.3298 230.218 26.4423 230.306 26.5702 230.365C26.6982 230.424 26.8382 230.452 26.979 230.448C29.4555 230.448 33.0388 230.375 36.1503 230.448C39.7788 230.52 42.1011 230.321 46.3647 230.403C48.9501 230.457 49.7393 227.872 48.6598 227.618C43.7794 226.447 40.5862 226.71 36.4133 223.989C35.9698 223.688 35.4519 223.515 34.9166 223.49Z" fill="#263238"/>
<path d="M35.4155 224.243C35.4111 224.213 35.4168 224.183 35.4315 224.156C35.4463 224.13 35.4694 224.11 35.4972 224.098C35.7874 223.953 38.3456 222.719 39.1257 223.191C39.1961 223.231 39.2548 223.289 39.2961 223.359C39.3374 223.429 39.36 223.509 39.3616 223.59C39.3679 223.724 39.3443 223.858 39.2925 223.982C39.2407 224.106 39.1621 224.217 39.0622 224.306C38.3547 224.896 36.5585 224.624 35.5516 224.397C35.5325 224.396 35.5139 224.391 35.4967 224.383C35.4795 224.374 35.4642 224.363 35.4515 224.348C35.4389 224.334 35.4292 224.317 35.423 224.299C35.4168 224.281 35.4143 224.262 35.4155 224.243ZM36.0324 224.17C37.4112 224.424 38.4454 224.388 38.8445 224.052C38.9117 223.995 38.964 223.922 38.9972 223.84C39.0303 223.758 39.0433 223.669 39.035 223.581C39.0384 223.547 39.0315 223.514 39.0153 223.485C38.9991 223.456 38.9743 223.432 38.9443 223.417H38.8899C38.4272 223.227 37.0393 223.717 36.0324 224.17Z" fill="#223A74"/>
<path d="M35.47 224.343C35.448 224.329 35.4309 224.308 35.4212 224.283C35.4114 224.259 35.4095 224.232 35.4156 224.207C35.5066 223.322 35.8713 222.488 36.4588 221.821C36.5719 221.725 36.7037 221.654 36.8458 221.612C36.9879 221.57 37.1372 221.557 37.2843 221.576C37.6925 221.63 37.8104 221.839 37.8286 222.002C37.9284 222.719 36.3862 224.043 35.6152 224.361C35.5801 224.374 35.5414 224.374 35.5063 224.361L35.47 224.343ZM37.2843 221.875C37.1766 221.861 37.067 221.868 36.9624 221.898C36.8578 221.928 36.7605 221.979 36.6765 222.048C36.1905 222.581 35.8747 223.248 35.7694 223.962C36.5586 223.517 37.5837 222.474 37.5837 222.048C37.5837 222.048 37.5837 221.957 37.4476 221.912C37.3839 221.887 37.3162 221.875 37.248 221.875H37.2843Z" fill="#223A74"/>
<path d="M135.908 119.931L83.8927 105.57C83.4623 105.467 83.0638 105.26 82.7315 104.967C82.3993 104.675 82.1435 104.306 81.9862 103.892C81.8289 103.478 81.7749 103.032 81.8289 102.593C81.8829 102.153 82.0433 101.734 82.2961 101.37L127.998 23.5919C128.554 22.692 129.378 21.9886 130.354 21.5803C131.33 21.172 132.41 21.0792 133.441 21.3149L185.457 35.6659C185.888 35.769 186.288 35.9762 186.622 36.2693C186.955 36.5625 187.212 36.9328 187.369 37.3478C187.527 37.7629 187.58 38.2102 187.525 38.6507C187.47 39.0912 187.308 39.5116 187.053 39.8751L141.351 117.699C140.787 118.589 139.96 119.281 138.985 119.681C138.01 120.081 136.935 120.168 135.908 119.931Z" fill="#223A74"/>
<path opacity="0.6" d="M135.908 119.931L83.8927 105.57C83.4623 105.467 83.0638 105.26 82.7315 104.967C82.3993 104.675 82.1435 104.306 81.9862 103.892C81.8289 103.478 81.7749 103.032 81.8289 102.593C81.8829 102.153 82.0433 101.734 82.2961 101.37L127.998 23.5919C128.554 22.692 129.378 21.9886 130.354 21.5803C131.33 21.172 132.41 21.0792 133.441 21.3149L185.457 35.6659C185.888 35.769 186.288 35.9762 186.622 36.2693C186.955 36.5625 187.212 36.9328 187.369 37.3478C187.527 37.7629 187.58 38.2102 187.525 38.6507C187.47 39.0912 187.308 39.5116 187.053 39.8751L141.351 117.699C140.787 118.589 139.96 119.281 138.985 119.681C138.01 120.081 136.935 120.168 135.908 119.931Z" fill="white"/>
<path d="M86.7773 101.924L131.79 25.27L182.535 39.2763L137.523 115.921L86.7773 101.924Z" fill="#223A74"/>
<path opacity="0.4" d="M143.385 83.2358C160.041 71.7452 169.637 56.767 164.818 49.7811C159.999 42.7952 142.589 46.4469 125.933 57.9375C109.276 69.4281 99.6802 84.4063 104.5 91.3922C109.319 98.3781 126.728 94.7264 143.385 83.2358Z" fill="white"/>
<path d="M135.846 82.2568L122.021 78.4377C121.89 78.4186 121.765 78.3693 121.657 78.2938C121.548 78.2182 121.458 78.1183 121.395 78.0022C121.332 77.886 121.296 77.7567 121.292 77.6244C121.287 77.4922 121.313 77.3607 121.368 77.2402C121.528 76.9832 121.769 76.7861 122.053 76.6795C122.336 76.5729 122.647 76.5628 122.937 76.6506L136.989 80.5241C137.119 80.5384 137.243 80.5862 137.348 80.6629C137.454 80.7395 137.538 80.8424 137.592 80.9614C137.646 81.0803 137.668 81.2113 137.656 81.3414C137.644 81.4715 137.599 81.5963 137.524 81.7034C137.327 81.9469 137.064 82.1286 136.766 82.2267C136.469 82.3248 136.149 82.3353 135.846 82.2568Z" fill="white"/>
<path d="M133.796 84.6971L121.024 81.1773C120.897 81.1615 120.776 81.1162 120.67 81.0452C120.564 80.9741 120.476 80.8792 120.414 80.768C120.351 80.6569 120.315 80.5327 120.309 80.4053C120.304 80.2778 120.328 80.1508 120.38 80.0343C120.537 79.787 120.772 79.598 121.047 79.4965C121.322 79.3949 121.623 79.3863 121.904 79.4719L134.885 83.1005C135.484 83.2638 135.728 83.7718 135.42 84.2254C135.223 84.4517 134.966 84.6166 134.678 84.7002C134.39 84.7839 134.084 84.7828 133.796 84.6971Z" fill="white"/>
<path d="M131.846 87.0374L120.053 83.7808C119.473 83.6265 119.191 83.1367 119.418 82.6922C119.575 82.4567 119.803 82.2777 120.07 82.1814C120.336 82.085 120.626 82.0765 120.897 82.157L132.862 85.459C133.443 85.6223 133.688 86.1121 133.397 86.5475C133.211 86.7674 132.967 86.9301 132.693 87.0167C132.418 87.1034 132.125 87.1106 131.846 87.0374Z" fill="white"/>
<path d="M121.25 85.078C120.769 85.9851 122.23 87.1826 124.497 87.7994H124.588C126.856 88.4254 129.124 88.2439 129.695 87.3731L121.25 85.078Z" fill="white"/>
<path d="M140.617 70.963L138.14 70.2826C138.065 70.2673 137.998 70.2243 137.953 70.1622C137.907 70.1002 137.887 70.0234 137.895 69.947L138.158 68.2325L134.738 71.1081C134.669 71.1672 134.587 71.2081 134.498 71.2271C134.409 71.2461 134.317 71.2426 134.23 71.217C134.156 71.2037 134.091 71.1622 134.047 71.1013C134.003 71.0404 133.984 70.9648 133.994 70.8904L134.493 67.2618L132.988 68.6407C132.918 68.7022 132.835 68.746 132.745 68.7681C132.655 68.7902 132.56 68.7901 132.47 68.7677L130.067 68.1055C130.638 71.2351 128.851 75.6166 128.18 77.0953L133.133 78.4651C135.155 75.5339 137.69 72.9924 140.617 70.963Z" fill="white"/>
<path d="M144.771 53.3733C136.607 51.1236 127.046 55.6865 123.735 62.8076C122.946 64.3368 122.562 66.0426 122.619 67.7623C122.676 69.482 123.173 71.1585 124.061 72.632L123.227 75.7616L127.418 76.9137C128.116 75.3171 130.003 70.5637 129.014 67.6971C128.989 67.6249 128.989 67.5465 129.014 67.4743C129.039 67.4021 129.086 67.34 129.15 67.2979C129.216 67.2439 129.294 67.2059 129.378 67.187C129.461 67.1681 129.548 67.1688 129.631 67.1891L132.579 68.0055L134.793 65.9735C134.861 65.9074 134.945 65.8594 135.037 65.8341C135.129 65.8087 135.226 65.8068 135.319 65.8284C135.398 65.8438 135.469 65.8891 135.516 65.9548C135.563 66.0206 135.583 66.1019 135.573 66.1822L135.065 69.8561L138.503 66.9351C138.574 66.8734 138.659 66.8298 138.75 66.8077C138.842 66.7856 138.937 66.7857 139.029 66.8081C139.107 66.8214 139.177 66.8652 139.223 66.9298C139.269 66.9944 139.287 67.0746 139.274 67.1528L138.893 69.6112L141.805 70.4185C141.872 70.4313 141.933 70.4675 141.976 70.5206C142.019 70.5737 142.042 70.6404 142.041 70.7088C142.031 70.7844 142.003 70.8564 141.959 70.9182C141.915 70.98 141.855 71.0297 141.787 71.0626C138.681 73.0391 136.008 75.6252 133.931 78.6645L137.714 79.7077L140.281 77.0588C144.341 75.9355 147.914 73.4982 150.441 70.1282C155.212 63.5061 152.917 55.623 144.771 53.3733Z" fill="white"/>
<path d="M61.8498 39.3941C62.004 41.6711 62.1763 44.1566 62.4666 46.5152C62.7569 48.8738 63.0653 51.2686 63.4917 53.5637C63.8788 55.7726 64.4399 57.9475 65.1699 60.068C65.493 60.9702 65.8905 61.8441 66.3583 62.6805C66.5417 62.9974 66.7478 63.3006 66.9751 63.5877C67.1775 63.8423 67.4195 64.0629 67.6918 64.2408C68.5184 64.808 69.3925 65.3028 70.3043 65.7195C71.3113 66.1912 72.3817 66.6266 73.4884 67.053C75.7018 67.8966 78.0241 68.6495 80.3737 69.3571C85.0727 70.7541 89.9168 72.0785 94.7156 73.285C95.2782 73.4351 95.7657 73.7872 96.0851 74.2741C96.4044 74.7609 96.5332 75.3483 96.4468 75.9241C96.3603 76.4999 96.0648 77.0237 95.6166 77.3953C95.1684 77.7669 94.5989 77.9604 94.0171 77.9387C88.8942 77.6765 83.7923 77.0978 78.7408 76.2061C76.1917 75.7615 73.6426 75.2173 71.0573 74.5188C69.7782 74.165 68.481 73.7568 67.1566 73.2669C65.7255 72.7584 64.3489 72.108 63.0472 71.3256C62.2452 70.8421 61.5024 70.2668 60.8338 69.6111C60.1866 68.9847 59.6004 68.2982 59.083 67.561C58.1849 66.2826 57.4276 64.9109 56.8242 63.4697C55.7359 60.8926 54.8886 58.2203 54.2932 55.4869C53.7116 52.8925 53.2605 50.2706 52.9416 47.631C52.7965 46.3247 52.6695 45.0184 52.5606 43.7031C52.4517 42.3877 52.3792 41.1268 52.3429 39.7026C52.2851 38.4431 52.7301 37.2122 53.5799 36.2808C54.4296 35.3494 55.6146 34.7937 56.8741 34.736C58.1336 34.6782 59.3644 35.1232 60.2958 35.9729C61.2272 36.8227 61.7829 38.0076 61.8407 39.2671L61.8498 39.3941Z" fill="#223A74"/>
<path opacity="0.7" d="M61.8498 39.3941C62.004 41.6711 62.1763 44.1566 62.4666 46.5152C62.7569 48.8738 63.0653 51.2686 63.4917 53.5637C63.8788 55.7726 64.4399 57.9475 65.1699 60.068C65.493 60.9702 65.8905 61.8441 66.3583 62.6805C66.5417 62.9974 66.7478 63.3006 66.9751 63.5877C67.1775 63.8423 67.4195 64.0629 67.6918 64.2408C68.5184 64.808 69.3925 65.3028 70.3043 65.7195C71.3113 66.1912 72.3817 66.6266 73.4884 67.053C75.7018 67.8966 78.0241 68.6495 80.3737 69.3571C85.0727 70.7541 89.9168 72.0785 94.7156 73.285C95.2782 73.4351 95.7657 73.7872 96.0851 74.2741C96.4044 74.7609 96.5332 75.3483 96.4468 75.9241C96.3603 76.4999 96.0648 77.0237 95.6166 77.3953C95.1684 77.7669 94.5989 77.9604 94.0171 77.9387C88.8942 77.6765 83.7923 77.0978 78.7408 76.2061C76.1917 75.7615 73.6426 75.2173 71.0573 74.5188C69.7782 74.165 68.481 73.7568 67.1566 73.2669C65.7255 72.7584 64.3489 72.108 63.0472 71.3256C62.2452 70.8421 61.5024 70.2668 60.8338 69.6111C60.1866 68.9847 59.6004 68.2982 59.083 67.561C58.1849 66.2826 57.4276 64.9109 56.8242 63.4697C55.7359 60.8926 54.8886 58.2203 54.2932 55.4869C53.7116 52.8925 53.2605 50.2706 52.9416 47.631C52.7965 46.3247 52.6695 45.0184 52.5606 43.7031C52.4517 42.3877 52.3792 41.1268 52.3429 39.7026C52.2851 38.4431 52.7301 37.2122 53.5799 36.2808C54.4296 35.3494 55.6146 34.7937 56.8741 34.736C58.1336 34.6782 59.3644 35.1232 60.2958 35.9729C61.2272 36.8227 61.7829 38.0076 61.8407 39.2671L61.8498 39.3941Z" fill="white"/>
<path d="M94.1624 73.1036L100.394 71.8427L98.4985 79.6713C98.4985 79.6713 92.9559 79.5534 92.7109 76.5961L94.1624 73.1036Z" fill="#E4897B"/>
<path d="M105.057 74.174L103.188 80.5694L98.498 79.6713L100.394 71.8427L105.057 74.174Z" fill="#E4897B"/>
<path d="M91.2773 78.22L92.5383 72.3417L94.6882 73.013L93.5906 78.22H91.2773Z" fill="#223A74"/>
<path opacity="0.5" d="M91.2773 78.22L92.5383 72.3417L94.6882 73.013L93.5906 78.22H91.2773Z" fill="white"/>
</svg>
