<svg width="524" height="504" viewBox="0 0 524 504" fill="none" xmlns="http://www.w3.org/2000/svg">
<path d="M442.683 51.6472C493.929 167.295 429.625 275.293 313.977 326.539C198.329 377.785 75.13 352.874 23.8838 237.226C-27.3624 121.578 122.352 192.453 238 141.207C353.648 89.9611 391.436 -64.0009 442.683 51.6472Z" fill="url(#paint0_linear_394_682)"/>
<path d="M415.423 194.88C413.013 221.484 406.146 249.538 395.376 276.605C382.059 310.078 363.863 339.561 342.757 361.866L341.585 360.843C362.59 338.645 380.702 309.292 393.965 275.958C405.95 245.834 413.079 214.486 414.59 185.317L416.087 185.568C415.928 188.648 415.707 191.752 415.423 194.88Z" fill="#F2F2F2"/>
<path d="M425.023 349.394C395.377 396.642 359.411 430.401 323.749 444.451L323.027 443.126C358.443 429.173 394.199 395.587 423.709 348.555L425.023 349.394Z" fill="#F2F2F2"/>
<path d="M414.703 228.004C412.293 254.608 405.426 282.661 394.657 309.729C381.339 343.202 363.144 372.684 342.037 394.99L340.866 393.966C361.87 371.769 379.983 342.416 393.245 309.082C405.231 278.958 412.36 247.61 413.871 218.44L415.367 218.691C415.209 221.772 414.987 224.876 414.703 228.004Z" fill="#F2F2F2"/>
<path d="M81.8951 296.306H62.444C62.0285 296.306 61.6181 296.213 61.2437 296.032C60.8693 295.852 60.5406 295.588 60.2822 295.262C60.027 294.945 59.847 294.573 59.7556 294.176C59.6642 293.778 59.6638 293.365 59.7546 292.967C61.6071 284.779 61.4907 276.266 59.415 268.132C59.2837 267.596 59.3155 267.033 59.5062 266.516C59.6969 265.999 60.0378 265.55 60.485 265.229C70.4868 258.022 78.3635 258.232 83.8965 265.851C84.1459 266.198 84.3116 266.599 84.3806 267.021C85.8589 275.925 85.9408 285.005 84.6231 293.933C84.5315 294.592 84.2047 295.196 83.7031 295.632C83.2015 296.068 82.5592 296.307 81.8951 296.306Z" fill="#E6E6E6"/>
<path d="M75.8647 276.792H69.1736C68.8035 276.792 68.4487 276.645 68.187 276.383C67.9254 276.121 67.7784 275.765 67.7784 275.395C67.7784 275.024 67.9254 274.668 68.187 274.406C68.4487 274.144 68.8035 273.997 69.1736 273.997H75.8647C76.2342 273.998 76.5883 274.145 76.8493 274.407C77.1103 274.669 77.2569 275.024 77.2569 275.395C77.2569 275.765 77.1103 276.12 76.8493 276.382C76.5883 276.644 76.2342 276.791 75.8647 276.792Z" fill="white"/>
<path d="M75.8647 281.694H69.1736C68.8035 281.694 68.4487 281.546 68.187 281.284C67.9254 281.022 67.7784 280.667 67.7784 280.296C67.7784 279.925 67.9254 279.57 68.187 279.308C68.4487 279.046 68.8035 278.898 69.1736 278.898H75.8647C76.2342 278.899 76.5883 279.047 76.8493 279.309C77.1103 279.571 77.2569 279.926 77.2569 280.296C77.2569 280.666 77.1103 281.021 76.8493 281.283C76.5883 281.545 76.2342 281.693 75.8647 281.694Z" fill="white"/>
<path d="M75.8647 286.595H69.1736C68.8035 286.595 68.4487 286.448 68.187 286.186C67.9254 285.924 67.7784 285.568 67.7784 285.198C67.7784 284.827 67.9254 284.471 68.187 284.209C68.4487 283.947 68.8035 283.8 69.1736 283.8H75.8647C76.2342 283.801 76.5883 283.948 76.8493 284.21C77.1103 284.472 77.2569 284.827 77.2569 285.198C77.2569 285.568 77.1103 285.923 76.8493 286.185C76.5883 286.447 76.2342 286.594 75.8647 286.595Z" fill="white"/>
<path d="M435.398 383.306H415.947C415.531 383.307 415.121 383.214 414.747 383.033C414.372 382.853 414.044 382.589 413.785 382.263C413.53 381.945 413.35 381.574 413.258 381.176C413.167 380.779 413.167 380.366 413.257 379.968C415.11 371.78 414.994 363.267 412.918 355.133C412.787 354.597 412.818 354.034 413.009 353.517C413.2 352.999 413.541 352.551 413.988 352.229C423.99 345.023 431.866 345.232 437.399 352.852C437.649 353.199 437.815 353.6 437.884 354.022C439.362 362.925 439.444 372.006 438.126 380.934C438.034 381.593 437.708 382.197 437.206 382.633C436.704 383.069 436.062 383.308 435.398 383.306Z" fill="#E6E6E6"/>
<path d="M429.368 363.793H422.676C422.307 363.792 421.953 363.645 421.692 363.383C421.431 363.121 421.284 362.766 421.284 362.396C421.284 362.025 421.431 361.67 421.692 361.408C421.953 361.146 422.307 360.999 422.676 360.998H429.368C429.738 360.998 430.093 361.145 430.354 361.407C430.616 361.669 430.763 362.025 430.763 362.396C430.763 362.766 430.616 363.122 430.354 363.384C430.093 363.646 429.738 363.793 429.368 363.793Z" fill="white"/>
<path d="M429.368 368.695H422.676C422.307 368.694 421.953 368.546 421.692 368.284C421.431 368.022 421.284 367.667 421.284 367.297C421.284 366.927 421.431 366.572 421.692 366.31C421.953 366.048 422.307 365.9 422.676 365.899H429.368C429.738 365.899 430.093 366.047 430.354 366.309C430.616 366.571 430.763 366.926 430.763 367.297C430.763 367.668 430.616 368.023 430.354 368.285C430.093 368.547 429.738 368.695 429.368 368.695Z" fill="white"/>
<path d="M429.368 373.596H422.676C422.307 373.595 421.953 373.448 421.692 373.186C421.431 372.924 421.284 372.569 421.284 372.198C421.284 371.828 421.431 371.473 421.692 371.211C421.953 370.949 422.307 370.802 422.676 370.801H429.368C429.738 370.801 430.093 370.948 430.354 371.21C430.616 371.472 430.763 371.828 430.763 372.198C430.763 372.569 430.616 372.925 430.354 373.187C430.093 373.449 429.738 373.596 429.368 373.596Z" fill="white"/>
<path d="M509 502.478C509 502.574 508.982 502.669 508.945 502.758C508.909 502.846 508.855 502.927 508.787 502.995C508.72 503.062 508.639 503.116 508.551 503.153C508.463 503.189 508.368 503.208 508.272 503.207H45.7278C45.5348 503.207 45.3497 503.131 45.2132 502.994C45.0767 502.857 45 502.672 45 502.478C45 502.285 45.0767 502.1 45.2132 501.963C45.3497 501.826 45.5348 501.749 45.7278 501.749H508.272C508.368 501.749 508.463 501.768 508.551 501.804C508.639 501.841 508.72 501.894 508.787 501.962C508.855 502.03 508.909 502.11 508.945 502.199C508.982 502.288 509 502.383 509 502.478Z" fill="#CCCCCC"/>
<path d="M167.016 457.838L165.803 440.935C157.856 436.956 149.059 434.98 140.177 435.178C152.673 444.855 151.672 464.194 160.326 477.429C163.057 481.536 166.676 484.975 170.913 487.491C175.151 490.007 179.9 491.535 184.807 491.963L195.207 497.956C196.397 490.08 195.867 482.038 193.656 474.386C191.445 466.734 187.604 459.653 182.397 453.631C179.443 450.282 176.08 447.319 172.387 444.811C170.114 451.349 167.016 457.838 167.016 457.838Z" fill="#F2F2F2"/>
<path d="M386.984 460.289L388.198 443.386C396.144 439.406 404.941 437.43 413.823 437.629C401.327 447.305 402.328 466.644 393.674 479.88C390.943 483.987 387.325 487.426 383.087 489.942C378.849 492.458 374.1 493.986 369.193 494.413L358.793 500.407C357.604 492.53 358.133 484.489 360.344 476.837C362.555 469.185 366.396 462.104 371.603 456.082C374.557 452.733 377.92 449.769 381.613 447.262C383.886 453.8 386.984 460.289 386.984 460.289Z" fill="#F2F2F2"/>
<path d="M271.496 269.54C277.913 269.54 283.116 264.329 283.116 257.9C283.116 251.47 277.913 246.259 271.496 246.259C265.078 246.259 259.875 251.47 259.875 257.9C259.875 264.329 265.078 269.54 271.496 269.54Z" fill="#8ACEB2"/>
<path d="M277.461 253.048C277.286 252.881 277.054 252.787 276.812 252.787C276.571 252.787 276.338 252.881 276.164 253.048C273.698 255.018 271.483 257.284 269.569 259.795C269.1 258.884 268.63 257.974 268.16 257.063C267.618 256.012 266.034 256.94 266.576 257.991C267.263 259.323 267.95 260.655 268.637 261.987C268.72 262.123 268.837 262.235 268.975 262.313C269.114 262.391 269.27 262.432 269.429 262.432C269.588 262.432 269.745 262.391 269.884 262.313C270.022 262.235 270.139 262.123 270.222 261.987C272.261 259.109 274.698 256.537 277.461 254.347C277.632 254.174 277.727 253.941 277.727 253.698C277.727 253.454 277.632 253.221 277.461 253.048Z" fill="white"/>
<path d="M219.501 290.909L201.977 263.341L222.269 252.455L227.595 273.488L265.119 293.801C266.601 293.267 268.205 293.176 269.738 293.54C271.27 293.904 272.663 294.706 273.748 295.849C274.832 296.993 275.562 298.427 275.847 299.979C276.131 301.53 275.96 303.131 275.352 304.586C274.744 306.041 273.727 307.287 272.425 308.173C271.122 309.06 269.59 309.547 268.016 309.576C266.442 309.605 264.893 309.174 263.559 308.337C262.225 307.499 261.162 306.291 260.502 304.859L219.501 290.909Z" fill="#A0616A"/>
<path d="M189.175 230.276C183.669 238.374 203.235 267.811 203.235 267.811C204.189 265.752 213.3 288.866 214.827 287.501C219.164 283.62 225.954 272.811 229.728 272.329C231.887 272.053 224.722 256.719 224.722 256.719C224.722 256.719 221.448 247.664 217.005 236.097C215.81 232.803 213.802 229.866 211.168 227.559C208.535 225.252 205.362 223.65 201.944 222.902C201.944 222.902 194.681 222.178 189.175 230.276Z" fill="#3F3D56"/>
<path d="M189.444 494.118L197.766 494.118L201.725 461.961L189.442 461.962L189.444 494.118Z" fill="#A0616A"/>
<path d="M187.321 491.396L189.663 491.396L198.808 487.67L203.71 491.395H203.711C206.481 491.396 209.137 492.498 211.096 494.46C213.054 496.422 214.155 499.083 214.155 501.858V502.198L187.321 502.199L187.321 491.396Z" fill="#2F2E41"/>
<path d="M228.106 494.118L236.428 494.118L240.388 461.961L228.105 461.962L228.106 494.118Z" fill="#A0616A"/>
<path d="M225.984 491.396L228.326 491.396L237.471 487.67L242.373 491.395H242.374C245.144 491.396 247.8 492.498 249.759 494.46C251.717 496.422 252.818 499.083 252.818 501.858V502.198L225.984 502.199L225.984 491.396Z" fill="#2F2E41"/>
<path d="M231.709 318.315L177.578 319.671C167.298 325.265 167.141 337.372 170.51 351.746C170.51 351.746 169.373 360.29 171.647 362.568C173.921 364.847 175.059 364.847 173.921 368.834C172.784 372.821 178.792 379.333 178.063 380.064C177.333 380.795 175.627 384.782 175.627 384.782L181.313 417.249C181.313 417.249 185.293 473.637 186.43 474.777C187.567 475.916 188.704 474.777 187.567 477.625C186.43 480.472 185.293 479.333 186.43 480.472C187.437 481.56 188.386 482.701 189.273 483.89H203.019C203.019 483.89 204.056 478.194 204.056 477.625C204.056 477.055 205.193 473.637 205.193 473.068C205.193 472.498 204.188 471.491 204.188 471.491C203.841 470.334 203.606 469.145 203.487 467.942C203.487 466.802 200.076 422.944 200.076 422.944L206.899 365.986L223.387 421.805C223.387 421.805 223.387 470.789 224.524 471.929C225.662 473.068 225.662 472.498 225.093 474.777C224.524 477.055 222.25 476.485 223.956 478.194C225.662 479.903 226.23 477.055 225.662 479.903L225.093 482.751L242.15 482.995C242.15 482.995 244.425 478.194 243.287 476.485C242.15 474.777 242.219 475.243 243.606 472.447C244.993 469.65 245.562 469.081 244.993 468.511C244.425 467.942 244.425 464.912 244.425 464.912L241.582 410.414C241.582 410.414 241.013 352.886 241.013 351.177C240.97 350.298 241.132 349.42 241.485 348.614V346.295L239.307 338.076L231.709 318.315Z" fill="#2F2E41"/>
<path d="M199.192 205.56C208.48 205.56 216.01 198.016 216.01 188.711C216.01 179.406 208.48 171.863 199.192 171.863C189.903 171.863 182.373 179.406 182.373 188.711C182.373 198.016 189.903 205.56 199.192 205.56Z" fill="#A0616A"/>
<path d="M207.601 216.696C211.224 218.853 213.392 222.818 214.636 226.853C216.94 234.323 218.326 242.046 218.765 249.851L220.079 273.22L236.356 322.978C222.25 334.935 169.227 325.696 169.227 325.696C169.227 325.696 167.6 325.152 169.227 323.522C170.855 321.891 172.439 323.336 170.812 321.705C169.184 320.075 170.306 321.891 170.849 320.261C171.391 318.63 170.849 319.717 170.306 319.174C169.764 318.63 174.506 313.739 174.506 313.739L170.166 285.177L164.74 227.566C171.251 219.413 184.344 214.607 184.344 214.607L187.728 208.507L204.643 209.862L207.601 216.696Z" fill="#3F3D56"/>
<path d="M213.056 179.76C214.363 180.736 215.332 182.099 215.825 183.656C216.015 181.112 216.027 178.557 215.861 176.011C215.663 174.222 214.405 173.819 212.949 173.353C211.634 172.931 210.147 172.456 209.747 170.719C204.46 165.566 195.257 165.826 188.959 167.623C185.493 168.612 183.499 169.883 183.32 170.627L183.283 170.78L183.143 170.851C180.471 172.189 179.951 176.415 179.985 179.724C180.05 185.958 182.199 193.039 183.41 193.614C183.474 193.645 183.49 193.633 183.518 193.61C185.341 192.15 187.564 193.721 188.542 194.574C189.118 190.699 190.974 187.13 193.813 184.435C196.652 181.741 200.311 180.078 204.204 179.711C205.476 179.588 206.737 179.376 207.979 179.077C208.609 178.913 209.257 178.828 209.908 178.823C211.028 178.806 212.127 179.133 213.056 179.76Z" fill="#2F2E41"/>
<path d="M317.465 331.741L349.818 298.828L358.342 272.506L344.625 266.948C337.83 273.814 330.835 294.834 330.835 294.834L308.753 324.523C308.577 324.589 308.401 324.658 308.228 324.74C307.211 325.221 306.335 325.957 305.685 326.876C305.035 327.795 304.633 328.866 304.517 329.986C304.401 331.107 304.576 332.238 305.024 333.271C305.472 334.304 306.178 335.204 307.075 335.883C307.972 336.563 309.028 336.999 310.142 337.15C311.256 337.301 312.39 337.161 313.435 336.745C314.48 336.328 315.399 335.649 316.105 334.772C316.811 333.896 317.279 332.852 317.465 331.741Z" fill="#FFB8B8"/>
<path d="M340.883 269.959L358.23 274.986L358.294 274.974C364.671 273.733 369.715 263.118 372.823 254.431C373.846 251.566 373.744 248.419 372.539 245.626C371.334 242.833 369.115 240.602 366.331 239.385C364.271 238.502 362.006 238.212 359.791 238.551C357.576 238.889 355.499 239.842 353.796 241.3L345.147 248.761L340.883 269.959Z" fill="#8ACEB2"/>
<path d="M326.042 493.14L316.712 493.14L312.275 457.093L326.043 457.093L326.042 493.14Z" fill="#FFB8B8"/>
<path d="M328.421 490.089L325.795 490.089L315.544 485.912L310.049 490.088H310.048C306.943 490.088 303.965 491.324 301.769 493.524C299.574 495.723 298.34 498.707 298.34 501.817V502.198L328.421 502.199L328.421 490.089Z" fill="#2F2E41"/>
<path d="M367.436 493.14L358.107 493.14L353.669 457.093L367.438 457.093L367.436 493.14Z" fill="#FFB8B8"/>
<path d="M369.816 490.089L367.19 490.089L356.938 485.912L351.444 490.088H351.443C348.338 490.088 345.36 491.324 343.164 493.524C340.969 495.723 339.735 498.707 339.735 501.817V502.198L369.816 502.199L369.816 490.089Z" fill="#2F2E41"/>
<path d="M381.661 337.871C381.661 337.871 382.751 350.966 380.027 363.516C377.304 376.065 377.304 411.409 377.304 411.409L371.313 480.282L353.339 478.645L348.437 363.516L331.007 402.256L332.641 407.712L330.465 409.076C330.465 409.076 332.097 419.716 331.007 419.716C329.918 419.716 327.195 421.353 327.195 421.353L329.373 477.554L310.855 477.008L304.318 397.891L311.399 352.603L311.944 343.873L314.395 343.974L315.643 340.326L317.935 334.051L381.661 337.871Z" fill="#2F2E41"/>
<path d="M382.603 340.622L382.7 340.486C387.884 333.214 380.087 315.742 378.911 313.209L383.864 311.599L382.749 302.1L382.22 297.866L386.006 294.073L386.017 293.979L388.195 274.881L391.363 262.197C392.557 257.402 392.455 252.375 391.068 247.633C389.682 242.89 387.06 238.602 383.473 235.21L376.151 228.294L367.252 215.103H352.902L347.982 224.414C343.211 225.518 338.979 228.264 336.022 232.173C333.065 236.083 331.57 240.907 331.799 245.807L332.914 270.225L328.548 300.628L328.545 306.13L323.633 311.6L324.705 316.974L320.966 318.579L319.315 326.297C318.632 327.2 314.122 333.224 314.122 334.87C314.122 335.118 314.305 335.357 314.696 335.622C317.769 337.707 334.756 341.957 342.274 338.943C350.282 335.735 382.117 340.547 382.437 340.596L382.603 340.622Z" fill="#8ACEB2"/>
<path d="M358.224 210.845C368.72 210.845 377.229 202.321 377.229 191.807C377.229 181.292 368.72 172.768 358.224 172.768C347.727 172.768 339.219 181.292 339.219 191.807C339.219 202.321 347.727 210.845 358.224 210.845Z" fill="#FFB8B8"/>
<path d="M356.403 211.154C359.346 211.124 362.282 210.842 365.177 210.311C368.043 209.649 374.368 204.75 376.091 201.856C377.372 199.706 378.14 196.38 378.56 193.969C379.126 190.777 379.017 187.502 378.239 184.356C377.462 181.21 376.034 178.262 374.047 175.704C373.281 174.632 372.24 173.787 371.034 173.26C370.928 173.221 370.818 173.187 370.707 173.159C368.96 172.746 367.375 171.82 366.157 170.498C365.92 170.231 365.665 169.981 365.393 169.75C364.026 168.654 362.42 167.897 360.705 167.542C357.936 166.876 353.974 167.711 348.93 170.026C346.396 171.189 343.584 170.865 341.416 170.452C341.295 170.432 341.17 170.444 341.054 170.487C340.939 170.53 340.837 170.602 340.758 170.697C339.863 171.583 338.666 172.097 337.408 172.136C336.639 172.19 335.858 173.279 334.917 174.698C334.703 175.02 334.454 175.396 334.273 175.626L334.237 175.195L333.814 175.688C333.148 176.462 332.689 177.392 332.479 178.392C332.269 179.392 332.315 180.429 332.612 181.406C332.91 182.383 333.45 183.269 334.181 183.981C334.913 184.693 335.812 185.209 336.796 185.479C337.576 185.665 338.373 185.771 339.175 185.796C339.662 185.827 340.164 185.859 340.647 185.93C342.199 186.207 343.652 186.882 344.865 187.889C346.078 188.896 347.01 190.202 347.57 191.677C347.702 192.018 347.91 192.324 348.179 192.572C348.448 192.819 348.77 193.002 349.12 193.105C349.471 193.208 349.84 193.229 350.2 193.166C350.56 193.103 350.9 192.958 351.195 192.743C351.686 192.339 352.267 192.061 352.889 191.93C353.51 191.8 354.154 191.823 354.765 191.996C355.297 192.274 355.716 192.727 355.954 193.278C356.241 193.892 356.705 194.406 357.285 194.755C359.264 195.713 359.513 200.178 358.908 203.921C358.325 207.528 357.055 210.16 355.821 210.32C354.871 210.444 354.764 210.514 354.7 210.685L354.642 210.837L354.752 210.976C355.283 211.153 355.846 211.214 356.403 211.154Z" fill="#2F2E41"/>
<path d="M340.635 271.995L331.5 260.334C322.195 262.901 305.684 277.644 305.684 277.644L271.776 292.385C270.644 292.195 269.482 292.306 268.407 292.709C267.332 293.111 266.382 293.79 265.652 294.677C264.922 295.564 264.439 296.628 264.25 297.762C264.061 298.896 264.174 300.06 264.577 301.136C264.98 302.213 265.658 303.164 266.545 303.894C267.431 304.624 268.494 305.107 269.626 305.295C270.759 305.483 271.92 305.369 272.994 304.964C274.068 304.559 275.017 303.878 275.745 302.989L320.163 290.575L340.635 271.995Z" fill="#FFB8B8"/>
<path d="M338.446 274.661L352.86 258.564L353.66 247.159C353.809 244.919 353.33 242.682 352.276 240.701C351.223 238.72 349.637 237.073 347.699 235.948C345.061 234.439 341.95 233.991 338.994 234.693C336.038 235.395 333.459 237.195 331.778 239.729C326.685 247.418 321.205 257.815 324.025 263.677L324.053 263.736L338.446 274.661Z" fill="#8ACEB2"/>
<path d="M205.593 335.163L168.13 315.943C165.465 314.575 164.582 310.949 166.162 307.859L190.589 260.08C192.169 256.99 195.622 255.588 198.286 256.955L235.749 276.176C238.414 277.543 239.297 281.169 237.717 284.259L213.29 332.039C211.711 335.129 208.257 336.53 205.593 335.163Z" fill="#E6E6E6"/>
<path d="M199.192 326.327L173.739 313.268C171.243 311.988 170.416 308.592 171.896 305.698L192.189 266.003C193.669 263.109 196.903 261.797 199.399 263.077L230.14 278.849C232.636 280.13 233.463 283.526 231.983 286.42L220.959 307.984C214.368 320.875 210.308 332.031 199.192 326.327Z" fill="white"/>
<path d="M211.776 304.65L189.232 293.084C188.956 292.887 188.76 292.597 188.68 292.268C188.6 291.938 188.641 291.591 188.795 291.289C188.949 290.988 189.207 290.751 189.521 290.624C189.834 290.497 190.183 290.487 190.504 290.596L213.048 302.162C213.324 302.359 213.519 302.649 213.6 302.978C213.68 303.308 213.639 303.655 213.485 303.957C213.33 304.258 213.073 304.495 212.759 304.622C212.446 304.749 212.097 304.759 211.776 304.65Z" fill="#8ACEB2"/>
<path d="M191.864 300.638L186.719 297.999C186.443 297.802 186.248 297.512 186.167 297.183C186.087 296.854 186.128 296.506 186.282 296.204C186.437 295.903 186.694 295.667 187.008 295.539C187.321 295.412 187.67 295.402 187.991 295.511L193.136 298.15C193.411 298.347 193.607 298.637 193.687 298.966C193.768 299.296 193.727 299.643 193.572 299.945C193.418 300.247 193.161 300.483 192.847 300.61C192.533 300.737 192.184 300.747 191.864 300.638Z" fill="#8ACEB2"/>
<path d="M198.463 310.229L184.206 302.914C183.93 302.717 183.735 302.428 183.655 302.098C183.574 301.769 183.615 301.422 183.769 301.12C183.924 300.818 184.181 300.582 184.495 300.454C184.809 300.327 185.158 300.317 185.478 300.426L199.735 307.741C200.011 307.938 200.207 308.227 200.287 308.557C200.367 308.886 200.326 309.233 200.172 309.535C200.017 309.837 199.76 310.073 199.446 310.2C199.133 310.328 198.784 310.338 198.463 310.229V310.229Z" fill="#8ACEB2"/>
<path d="M220.697 287.2L198.153 275.633C197.877 275.436 197.682 275.147 197.601 274.817C197.521 274.488 197.562 274.141 197.716 273.839C197.871 273.537 198.128 273.301 198.442 273.174C198.755 273.046 199.104 273.036 199.425 273.145L221.969 284.712C222.245 284.909 222.441 285.198 222.521 285.528C222.601 285.857 222.56 286.204 222.406 286.506C222.252 286.808 221.994 287.044 221.681 287.171C221.367 287.299 221.018 287.309 220.697 287.2Z" fill="#8ACEB2"/>
<path d="M200.785 283.188L195.64 280.548C195.365 280.352 195.169 280.062 195.089 279.733C195.009 279.403 195.049 279.056 195.204 278.754C195.358 278.452 195.615 278.216 195.929 278.089C196.243 277.961 196.592 277.951 196.912 278.06L202.057 280.7C202.333 280.897 202.529 281.186 202.609 281.516C202.689 281.845 202.648 282.193 202.494 282.494C202.34 282.796 202.082 283.032 201.768 283.16C201.455 283.287 201.106 283.297 200.785 283.188Z" fill="#8ACEB2"/>
<path d="M207.384 292.778L193.127 285.464C192.852 285.267 192.656 284.977 192.576 284.648C192.496 284.318 192.536 283.971 192.691 283.669C192.845 283.367 193.102 283.131 193.416 283.004C193.73 282.877 194.079 282.867 194.399 282.976L208.656 290.29C208.932 290.487 209.128 290.777 209.208 291.106C209.288 291.436 209.247 291.783 209.093 292.085C208.939 292.386 208.681 292.623 208.368 292.75C208.054 292.877 207.705 292.887 207.384 292.778L207.384 292.778Z" fill="#8ACEB2"/>
<path d="M174.549 293.567L166.085 262.003L188.702 257.714L187.485 279.379L217.202 310.031C218.775 309.967 220.333 310.363 221.685 311.17C223.038 311.977 224.127 313.161 224.82 314.578C225.512 315.994 225.778 317.582 225.586 319.147C225.393 320.713 224.75 322.188 223.734 323.394C222.719 324.599 221.376 325.483 219.868 325.937C218.36 326.391 216.753 326.395 215.242 325.95C213.732 325.505 212.383 324.629 211.361 323.429C210.339 322.229 209.688 320.757 209.486 319.193L174.549 293.567Z" fill="#A0616A"/>
<path d="M163.771 226.614C156.094 232.685 165.947 266.645 165.947 266.645C167.473 264.968 169.246 289.755 171.11 288.911C176.41 286.512 186.123 278.241 189.868 278.915C192.01 279.3 189.766 262.519 189.766 262.519C189.766 262.519 189.353 252.897 188.578 240.528C188.423 237.027 187.387 233.622 185.565 230.63C183.744 227.638 181.196 225.156 178.16 223.416C178.16 223.416 171.448 220.543 163.771 226.614Z" fill="#3F3D56"/>
<path d="M291.507 363.625L271.063 353.954C270.626 353.748 270.241 353.446 269.937 353.07C269.633 352.694 269.418 352.254 269.308 351.783C269.197 351.322 269.192 350.842 269.293 350.379C269.394 349.916 269.598 349.481 269.89 349.109C275.812 341.527 279.878 332.66 281.763 323.22C281.905 322.498 282.294 321.847 282.862 321.378C283.43 320.91 284.142 320.654 284.878 320.653C295.304 320.689 303.096 324.502 308.037 331.987C308.298 332.377 308.471 332.818 308.543 333.281C308.616 333.744 308.587 334.218 308.458 334.668C305.597 344.547 301.244 353.929 295.549 362.488C295.126 363.135 294.484 363.607 293.74 363.816C292.997 364.025 292.204 363.957 291.507 363.625Z" fill="#E6E6E6"/>
<path d="M297.52 350.061L281.889 342.667C281.5 342.483 281.2 342.152 281.055 341.746C280.91 341.341 280.932 340.894 281.115 340.504C281.299 340.115 281.63 339.814 282.034 339.669C282.439 339.523 282.885 339.545 283.274 339.729L298.905 347.123C299.098 347.214 299.271 347.343 299.414 347.501C299.557 347.659 299.667 347.843 299.739 348.044C299.811 348.245 299.843 348.458 299.832 348.671C299.822 348.884 299.77 349.093 299.679 349.286C299.588 349.479 299.46 349.652 299.303 349.795C299.145 349.939 298.961 350.049 298.76 350.121C298.56 350.193 298.347 350.225 298.134 350.215C297.922 350.204 297.713 350.152 297.52 350.061H297.52Z" fill="white"/>
<path d="M299.949 344.91L284.317 337.515C283.929 337.331 283.629 337 283.483 336.594C283.338 336.189 283.36 335.742 283.544 335.353C283.727 334.963 284.058 334.663 284.463 334.517C284.867 334.372 285.313 334.393 285.702 334.577L301.333 341.972C301.722 342.156 302.022 342.487 302.168 342.892C302.313 343.298 302.291 343.745 302.107 344.134C301.924 344.524 301.593 344.824 301.188 344.97C300.784 345.115 300.338 345.094 299.949 344.91V344.91Z" fill="white"/>
<path d="M279.062 183.197L277.607 183.357C271.119 157.817 258.544 140.124 241.24 132.189C219.243 122.102 192.041 128.876 164.647 151.262C137.114 173.762 112.74 209.303 96.0158 251.339L94.604 250.692C111.402 208.472 135.901 172.76 163.588 150.134C191.415 127.394 219.171 120.571 241.744 130.922C259.545 139.084 272.449 157.161 279.062 183.197Z" fill="#F2F2F2"/>
<path d="M118.534 216.459C114.728 224.489 111.109 232.808 107.776 241.185C88.5961 289.392 78.8765 338.625 79.6708 383.563L78.1717 383.402C77.3767 338.298 87.1242 288.896 106.364 240.538C109.707 232.137 113.336 223.794 117.153 215.741L118.534 216.459Z" fill="#F2F2F2"/>
<path d="M117.814 249.582C114.009 257.612 110.39 265.932 107.057 274.309C87.8766 322.516 78.157 371.749 78.9513 416.686L77.4523 416.526C76.6572 371.421 86.4047 322.019 105.645 273.662C108.987 265.261 112.617 256.918 116.433 248.865L117.814 249.582Z" fill="#F2F2F2"/>
<path d="M77.5242 261.629C79.1813 259.134 78.2005 255.562 75.3335 253.651C72.4665 251.74 68.7991 252.214 67.142 254.709C65.4849 257.204 66.4657 260.776 69.3327 262.687C72.1997 264.598 75.8672 264.124 77.5242 261.629Z" fill="#CCCCCC"/>
<path d="M430.38 351.735C432.037 349.24 431.056 345.668 428.189 343.758C425.322 341.847 421.655 342.321 419.998 344.816C418.341 347.311 419.322 350.883 422.189 352.793C425.056 354.704 428.723 354.23 430.38 351.735Z" fill="#CCCCCC"/>
<defs>
<linearGradient id="paint0_linear_394_682" x1="203.399" y1="76.9949" x2="313.977" y2="326.537" gradientUnits="userSpaceOnUse">
<stop stop-color="#8ACEB2"/>
<stop offset="1" stop-color="#8ACEB2" stop-opacity="0"/>
</linearGradient>
</defs>
</svg>
