<svg width="293" height="240" viewBox="0 0 293 240" fill="none" xmlns="http://www.w3.org/2000/svg">
<path d="M146.194 240C226.935 240 292.388 236.179 292.388 231.465C292.388 226.751 226.935 222.929 146.194 222.929C65.4534 222.929 0 226.751 0 231.465C0 236.179 65.4534 240 146.194 240Z" fill="#F5F5F5"/>
<path d="M79.5846 0H73.3867V0.754006H79.5846V0Z" fill="#223A74"/>
<path d="M68.0261 0H46.748V0.754006H68.0261V0Z" fill="#223A74"/>
<path d="M42.5774 118.688H194.359C195.157 118.7 195.949 118.543 196.682 118.226C197.415 117.908 198.072 117.439 198.609 116.849C199.147 116.258 199.553 115.56 199.8 114.801C200.048 114.042 200.131 113.239 200.044 112.445L190.815 8.8521C190.634 7.16513 189.846 5.60147 188.597 4.45276C187.349 3.30405 185.725 2.6487 184.029 2.60893H32.24C31.4416 2.59673 30.6497 2.75443 29.9169 3.07157C29.1841 3.38871 28.5271 3.85803 27.9894 4.44842C27.4518 5.0388 27.0459 5.73675 26.7985 6.49597C26.5512 7.25519 26.4681 8.05833 26.5548 8.8521L35.7838 112.415C35.9547 114.11 36.74 115.683 37.9915 116.839C39.243 117.995 40.8743 118.653 42.5774 118.688Z" fill="#223A74"/>
<path d="M43.0673 118.688H194.841C195.64 118.702 196.432 118.545 197.166 118.228C197.899 117.911 198.557 117.442 199.094 116.851C199.632 116.261 200.038 115.562 200.285 114.802C200.532 114.043 200.614 113.239 200.526 112.445L191.305 8.85208C191.123 7.16572 190.334 5.60298 189.086 4.45457C187.837 3.30615 186.214 2.65027 184.519 2.60891H32.7223C31.9262 2.60115 31.1374 2.76204 30.4079 3.081C29.6784 3.39997 29.0246 3.86978 28.4897 4.45953C27.9548 5.04928 27.5509 5.74559 27.3044 6.50268C27.0579 7.25976 26.9745 8.06046 27.0597 8.85208L36.2888 112.415C36.4624 114.106 37.2465 115.676 38.4943 116.831C39.742 117.985 41.3678 118.646 43.0673 118.688Z" fill="#223A74"/>
<path opacity="0.2" d="M43.0673 118.688H194.841C195.64 118.702 196.432 118.545 197.166 118.228C197.899 117.911 198.557 117.442 199.094 116.851C199.632 116.261 200.038 115.562 200.285 114.802C200.532 114.043 200.614 113.239 200.526 112.445L191.305 8.85208C191.123 7.16572 190.334 5.60298 189.086 4.45457C187.837 3.30615 186.214 2.65027 184.519 2.60891H32.7223C31.9262 2.60115 31.1374 2.76204 30.4079 3.081C29.6784 3.39997 29.0246 3.86978 28.4897 4.45953C27.9548 5.04928 27.5509 5.74559 27.3044 6.50268C27.0579 7.25976 26.9745 8.06046 27.0597 8.85208L36.2888 112.415C36.4624 114.106 37.2465 115.676 38.4943 116.831C39.742 117.985 41.3678 118.646 43.0673 118.688Z" fill="black"/>
<path d="M184.782 5.7605H33.0005C32.8347 5.7605 32.6612 5.7605 32.4954 5.7605C28.6198 6.07718 29.517 11.981 33.4303 11.981H185.468C189.381 11.981 189.238 6.07718 185.295 5.7605C185.121 5.76804 184.955 5.7605 184.782 5.7605Z" fill="#223A74"/>
<path d="M35.7069 10.6918C35.2239 10.6819 34.7609 10.4967 34.4044 10.1707C34.0479 9.84468 33.8221 9.40012 33.7691 8.91991C33.7472 8.68462 33.7741 8.44735 33.8481 8.22292C33.922 7.99848 34.0414 7.7917 34.1989 7.61549C34.3577 7.44219 34.5512 7.30428 34.7669 7.21074C34.9825 7.1172 35.2155 7.07013 35.4505 7.0726C35.9344 7.0813 36.3982 7.2673 36.754 7.59531C37.1098 7.92331 37.3328 8.37051 37.3808 8.85206C37.4065 9.08588 37.3821 9.32249 37.3094 9.54619C37.2366 9.76989 37.1172 9.97556 36.9589 10.1495C36.8006 10.3235 36.6071 10.4619 36.3912 10.5554C36.1754 10.6489 35.9421 10.6954 35.7069 10.6918ZM35.4505 7.82661C35.3208 7.82482 35.1922 7.85005 35.0727 7.90067C34.9533 7.9513 34.8457 8.02622 34.7568 8.12067C34.6669 8.22278 34.5996 8.34274 34.5593 8.47268C34.5191 8.60263 34.5067 8.73962 34.5231 8.87468C34.5543 9.1688 34.6918 9.44143 34.9097 9.64135C35.1277 9.84128 35.4112 9.95475 35.7069 9.96045C35.8366 9.96223 35.9652 9.93701 36.0847 9.88638C36.2041 9.83576 36.3117 9.76084 36.4006 9.66638C36.4909 9.56454 36.5584 9.44461 36.5988 9.31459C36.6391 9.18457 36.6512 9.04745 36.6343 8.91238C36.6016 8.61887 36.4636 8.34716 36.246 8.14753C36.0284 7.94791 35.7458 7.8339 35.4505 7.82661Z" fill="#FAFAFA"/>
<path d="M40.5721 10.6918C40.0899 10.6817 39.6279 10.4962 39.2726 10.1701C38.9173 9.84393 38.6931 9.39947 38.6418 8.9199C38.6174 8.68533 38.6428 8.44823 38.7164 8.22415C38.7899 8.00008 38.9101 7.79408 39.0688 7.61966C39.2276 7.44525 39.4214 7.30635 39.6376 7.21207C39.8538 7.11779 40.0874 7.07026 40.3233 7.07259C40.8061 7.08452 41.2682 7.27161 41.6233 7.599C41.9785 7.92639 42.2024 8.37174 42.2535 8.85205C42.2791 9.08639 42.2539 9.32349 42.1798 9.54726C42.1056 9.77103 41.9842 9.97623 41.8237 10.1489C41.6649 10.3222 41.4714 10.4601 41.2557 10.5537C41.0401 10.6472 40.8071 10.6943 40.5721 10.6918ZM40.3233 7.8266C40.1934 7.82387 40.0645 7.84867 39.9449 7.89935C39.8254 7.95003 39.7179 8.02546 39.6296 8.12066C39.5371 8.22132 39.4676 8.3409 39.4259 8.4711C39.3843 8.6013 39.3714 8.73901 39.3883 8.87467C39.421 9.16817 39.559 9.43988 39.7766 9.6395C39.9943 9.83912 40.2768 9.95314 40.5721 9.96044C40.7019 9.96316 40.8309 9.93837 40.9504 9.88768C41.07 9.837 41.1774 9.76158 41.2658 9.66637C41.3592 9.56652 41.4287 9.4468 41.4692 9.31621C41.5097 9.18561 41.5201 9.04754 41.4995 8.91237C41.4685 8.6195 41.3321 8.34789 41.1157 8.14814C40.8993 7.94839 40.6177 7.83411 40.3233 7.8266Z" fill="#FAFAFA"/>
<path d="M45.4413 10.6918C44.9582 10.6819 44.4953 10.4967 44.1388 10.1707C43.7822 9.84468 43.5564 9.40012 43.5035 8.91991C43.4816 8.68462 43.5085 8.44735 43.5824 8.22292C43.6564 7.99848 43.7758 7.7917 43.9332 7.61549C44.0921 7.44219 44.2856 7.30428 44.5013 7.21074C44.7169 7.1172 44.9498 7.07013 45.1849 7.0726C45.6691 7.08272 46.133 7.26901 46.4897 7.59657C46.8464 7.92413 47.0714 8.37049 47.1227 8.85206C47.1444 9.08618 47.1174 9.32227 47.0435 9.54546C46.9695 9.76865 46.8501 9.97413 46.6929 10.1489C46.5341 10.3222 46.3406 10.4602 46.1249 10.5537C45.9093 10.6472 45.6763 10.6943 45.4413 10.6918ZM45.1849 7.82661C45.0552 7.82482 44.9266 7.85005 44.8071 7.90067C44.6877 7.9513 44.5801 8.02622 44.4912 8.12067C44.4013 8.22278 44.334 8.34274 44.2937 8.47268C44.2534 8.60263 44.2411 8.73962 44.2575 8.87468C44.2886 9.1688 44.4261 9.44143 44.6441 9.64135C44.8621 9.84128 45.1455 9.95475 45.4413 9.96045C45.571 9.96223 45.6996 9.93701 45.819 9.88638C45.9385 9.83576 46.046 9.76084 46.1349 9.66638C46.2253 9.56454 46.2928 9.44461 46.3331 9.31459C46.3734 9.18457 46.3856 9.04745 46.3687 8.91238C46.3353 8.61378 46.193 8.33795 45.9691 8.13765C45.7451 7.93734 45.4552 7.8266 45.1547 7.82661H45.1849Z" fill="#FAFAFA"/>
<path d="M45.4276 108.381H190.679C190.969 108.386 191.256 108.329 191.522 108.214C191.788 108.1 192.027 107.93 192.222 107.716C192.418 107.502 192.566 107.249 192.656 106.973C192.746 106.698 192.776 106.407 192.745 106.119L185.115 20.9161C185.05 20.3032 184.764 19.7349 184.31 19.3183C183.856 18.9017 183.265 18.6655 182.649 18.6541H37.4352C37.1455 18.6492 36.8581 18.706 36.5921 18.8207C36.326 18.9353 36.0874 19.1052 35.892 19.3192C35.6966 19.5331 35.549 19.7861 35.4588 20.0614C35.3687 20.3367 35.3381 20.6281 35.3692 20.9161L42.962 106.119C43.0263 106.732 43.3124 107.3 43.7666 107.717C44.2207 108.133 44.8115 108.369 45.4276 108.381Z" fill="white"/>
<path d="M95.8637 176.091C97.8845 182.266 95.1097 187.272 88.957 187.272H191.713C197.896 187.272 200.64 182.266 198.62 176.091H95.8637Z" fill="#263238"/>
<path d="M51.8594 24.9501C73.8839 75.3327 56.8509 125.723 73.4918 176.091C75.5201 182.266 82.7887 187.272 88.9565 187.272C95.1242 187.272 97.8839 182.266 95.8632 176.091H187.437C170.789 125.708 187.822 75.3327 165.797 24.9501H51.8594Z" fill="#223A74"/>
<path opacity="0.8" d="M51.8594 24.9501C73.8839 75.3327 56.8509 125.723 73.4918 176.091C75.5201 182.266 82.7887 187.272 88.9565 187.272C95.1242 187.272 97.8839 182.266 95.8632 176.091H187.437C170.789 125.708 187.822 75.3327 165.797 24.9501H51.8594Z" fill="white"/>
<path d="M100.447 63.1405H72.7377C71.5029 53.7246 69.3797 44.4466 66.3965 35.4308H94.1062C97.0894 44.4466 99.2126 53.7246 100.447 63.1405Z" fill="#223A74"/>
<path opacity="0.6" d="M175.086 168.385H113.258C110.701 158.467 109.018 148.345 108.229 138.134H170.057C170.847 148.345 172.529 158.467 175.086 168.385Z" fill="#223A74"/>
<g opacity="0.8">
<path d="M160.783 38.5221H98.9543C98.6376 37.5168 98.3058 36.4914 97.959 35.4458H159.787C160.134 36.4712 160.466 37.4967 160.783 38.5221Z" fill="#223A74"/>
<path d="M162.999 46.5522H101.17C100.914 45.5468 100.662 44.5214 100.416 43.4758H162.245C162.491 44.4862 162.742 45.5116 162.999 46.5522Z" fill="#223A74"/>
<path d="M150.822 54.5297H102.905C102.709 53.5043 102.506 52.4788 102.287 51.4534H150.212C150.423 52.4788 150.626 53.5043 150.822 54.5297Z" fill="#223A74"/>
</g>
<g opacity="0.2">
<path d="M167.253 73.1386H105.425C105.365 72.4676 105.304 71.789 105.236 71.1104H167.065C167.133 71.789 167.193 72.4676 167.253 73.1386Z" fill="#223A74"/>
<path d="M167.675 78.4167H105.846C105.801 77.7381 105.748 77.0595 105.695 76.3884H167.524C167.577 77.0595 167.629 77.7381 167.675 78.4167Z" fill="#223A74"/>
<path d="M150.824 83.6872H106.164C106.164 83.0086 106.096 82.3375 106.051 81.6589H150.718L150.824 83.6872Z" fill="#223A74"/>
<path d="M168.234 88.9576H106.405C106.405 88.2865 106.352 87.6079 106.322 86.9293H168.151C168.181 87.6079 168.211 88.2865 168.234 88.9576Z" fill="#223A74"/>
<path d="M168.416 94.2357H106.588C106.588 93.5571 106.55 92.8785 106.527 92.2074H168.356C168.378 92.8785 168.401 93.5571 168.416 94.2357Z" fill="#223A74"/>
<path d="M120.844 99.5062H106.729C106.729 98.8276 106.729 98.1565 106.676 97.4779H120.791C120.813 98.1565 120.828 98.8351 120.844 99.5062Z" fill="#223A74"/>
<path d="M168.671 104.784H106.842C106.842 104.106 106.842 103.427 106.805 102.756H168.633C168.648 103.427 168.656 104.106 168.671 104.784Z" fill="#223A74"/>
<path d="M168.813 110.055H106.985L106.939 108.026H168.768L168.813 110.055Z" fill="#223A74"/>
<path d="M168.913 115.325H107.084C107.084 114.654 107.084 113.976 107.031 113.297H168.86C168.875 113.976 168.89 114.654 168.913 115.325Z" fill="#223A74"/>
<path d="M169.07 120.603H107.242L107.174 118.575H169.002L169.07 120.603Z" fill="#223A74"/>
<path d="M169.275 125.874H107.446C107.446 125.203 107.386 124.524 107.363 123.845H169.192C169.214 124.524 169.245 125.203 169.275 125.874Z" fill="#223A74"/>
<path d="M133.821 131.152H107.74L107.627 129.124H133.723L133.821 131.152Z" fill="#223A74"/>
</g>
<path d="M235.399 40.4598C236.078 41.2817 236.651 42.0206 237.232 42.8199C237.812 43.6191 238.378 44.3958 238.928 45.2025C240.037 46.8086 241.085 48.4448 242.072 50.1413C243.06 51.8378 244.01 53.5645 244.847 55.3741C245.724 57.1997 246.48 59.0813 247.109 61.0065L247.35 61.7605L247.411 61.9415L247.501 62.2582C247.57 62.4854 247.623 62.7172 247.66 62.9518C247.796 63.7618 247.814 64.5873 247.712 65.4024C247.539 66.6627 247.186 67.8917 246.664 69.0517C245.799 70.9644 244.725 72.7751 243.46 74.4504C241.104 77.5877 238.422 80.4665 235.46 83.0386L232.398 80.2261C234.446 77.2613 236.336 74.1907 238.061 71.0272C238.857 69.585 239.513 68.0702 240.021 66.5032C240.212 65.9285 240.316 65.3289 240.331 64.7238C240.331 64.5202 240.331 64.3769 240.27 64.3769C240.21 64.3769 240.27 64.3769 240.27 64.3769C240.27 64.3769 240.27 64.4221 240.27 64.3769L240.21 64.2336L239.961 63.6531C238.546 60.463 236.877 57.3919 234.97 54.4693C234.02 52.9613 233.009 51.4532 231.954 50.0131C230.898 48.5729 229.835 47.0499 228.832 45.7077L235.399 40.4598Z" fill="#FF8B7B"/>
<path d="M234.3 79.2837L229.248 80.7465L233.274 85.459C233.274 85.459 236.675 83.8454 236.328 81.1838L234.3 79.2837Z" fill="#FF8B7B"/>
<path d="M225.627 84.7956L230.204 88.445L233.273 85.4591L229.246 80.7466L225.627 84.7956Z" fill="#FF8B7B"/>
<path d="M207.517 16.1582C207.517 16.6106 207.283 16.9726 206.989 16.9726C206.695 16.9726 206.461 16.6106 206.461 16.1582C206.461 15.7058 206.695 15.3514 206.989 15.3514C207.283 15.3514 207.517 15.7134 207.517 16.1582Z" fill="#263238"/>
<path d="M207.321 16.9727C206.787 18.3356 206.069 19.6192 205.188 20.7879C205.492 21.0065 205.841 21.1561 206.21 21.2264C206.578 21.2967 206.957 21.286 207.321 21.1951V16.9727Z" fill="#A02724"/>
<path d="M209.1 13.6851C209.045 13.6858 208.991 13.6671 208.949 13.6323C208.685 13.4346 208.379 13.301 208.054 13.2422C207.729 13.1833 207.396 13.2007 207.079 13.293C207.014 13.3177 206.942 13.3156 206.878 13.2874C206.815 13.2592 206.765 13.207 206.74 13.1422C206.717 13.0771 206.72 13.0058 206.748 12.9428C206.776 12.8798 206.827 12.8298 206.89 12.8029C207.288 12.6768 207.709 12.6479 208.12 12.7188C208.531 12.7896 208.919 12.9581 209.251 13.2101C209.28 13.2296 209.305 13.255 209.323 13.2845C209.342 13.314 209.355 13.3471 209.361 13.3818C209.366 13.4164 209.365 13.4518 209.356 13.4858C209.348 13.5199 209.332 13.5518 209.311 13.5796C209.286 13.6123 209.254 13.6389 209.218 13.6573C209.181 13.6756 209.141 13.6851 209.1 13.6851Z" fill="#263238"/>
<path d="M221.934 21.3082C221.142 25.3648 220.35 32.7917 223.185 35.4911C223.185 35.4911 222.077 39.6004 214.545 39.6004C206.25 39.6004 210.594 35.4911 210.594 35.4911C215.118 34.4128 214.989 31.0651 214.205 27.9133L221.934 21.3082Z" fill="#FF8B7B"/>
<path d="M224.27 36.901C224.866 35.6041 225.514 34.1112 224.165 33.6437C222.657 33.131 214.536 32.6107 211.731 33.5758C211.361 33.6784 211.015 33.8533 210.713 34.0905C210.411 34.3277 210.159 34.6224 209.972 34.9577C209.785 35.2929 209.666 35.6619 209.622 36.0434C209.579 36.4248 209.611 36.8112 209.718 37.18L224.27 36.901Z" fill="#223A74"/>
<path d="M250.441 215.45C250.283 215.626 250.09 215.768 249.875 215.868C249.66 215.968 249.427 216.023 249.19 216.03C249.046 216.03 248.865 215.894 248.797 215.555C248.778 215.469 248.778 215.38 248.798 215.294C248.818 215.207 248.856 215.127 248.911 215.057C249.401 214.386 251.248 214.198 251.323 214.19C251.348 214.186 251.374 214.189 251.397 214.2C251.42 214.211 251.439 214.228 251.452 214.251C251.466 214.272 251.473 214.297 251.473 214.322C251.473 214.348 251.466 214.373 251.452 214.394C251.154 214.781 250.815 215.135 250.441 215.45ZM249.235 215.095L249.122 215.208C249.089 215.249 249.067 215.297 249.055 215.348C249.043 215.399 249.043 215.451 249.054 215.502C249.099 215.744 249.212 215.766 249.25 215.774C249.627 215.857 250.494 215.133 251.037 214.492C250.398 214.562 249.782 214.773 249.235 215.11V215.095Z" fill="#223A74"/>
<path d="M251.424 214.432H251.371C250.73 214.568 249.109 214.356 248.792 213.814C248.744 213.727 248.726 213.627 248.742 213.53C248.759 213.432 248.808 213.343 248.883 213.278C248.952 213.206 249.035 213.148 249.127 213.107C249.219 213.067 249.318 213.046 249.418 213.044C250.255 213.044 251.386 214.16 251.431 214.213C251.45 214.228 251.463 214.249 251.47 214.272C251.476 214.294 251.476 214.319 251.469 214.341C251.469 214.359 251.464 214.376 251.456 214.392C251.449 214.407 251.437 214.421 251.424 214.432ZM249.124 213.444L249.079 213.489C248.958 213.61 249.003 213.685 249.019 213.716C249.199 214.032 250.331 214.281 251.047 214.236C250.607 213.784 250.043 213.471 249.426 213.339C249.316 213.337 249.209 213.374 249.124 213.444Z" fill="#223A74"/>
<path d="M208.911 226.089C208.202 226.089 207.516 225.991 207.282 225.674C207.223 225.59 207.191 225.49 207.191 225.387C207.191 225.285 207.223 225.185 207.282 225.101C207.377 224.947 207.529 224.836 207.704 224.792C208.624 224.543 210.562 225.644 210.637 225.697C210.663 225.708 210.683 225.728 210.695 225.752C210.708 225.777 210.711 225.805 210.705 225.832C210.7 225.858 210.687 225.882 210.668 225.901C210.65 225.92 210.626 225.933 210.6 225.938C210.042 226.036 209.477 226.086 208.911 226.089ZM208.021 225.018C207.939 225.006 207.855 225.006 207.772 225.018C207.719 225.028 207.669 225.05 207.625 225.081C207.581 225.112 207.544 225.152 207.516 225.199C207.418 225.365 207.456 225.448 207.516 225.493C207.772 225.847 209.175 225.855 210.208 225.712C209.531 225.34 208.788 225.105 208.021 225.018Z" fill="#223A74"/>
<path d="M210.586 225.938H210.533C209.862 225.636 208.535 224.43 208.641 223.812C208.641 223.661 208.769 223.48 209.131 223.442C209.265 223.426 209.402 223.437 209.532 223.476C209.661 223.515 209.782 223.58 209.885 223.668C210.594 224.249 210.737 225.742 210.744 225.802C210.747 225.825 210.744 225.848 210.735 225.87C210.725 225.891 210.71 225.909 210.692 225.923C210.66 225.941 210.622 225.947 210.586 225.938ZM209.236 223.676H209.153C208.92 223.676 208.905 223.789 208.897 223.819C208.837 224.196 209.734 225.139 210.405 225.546C210.336 224.913 210.073 224.318 209.651 223.842C209.532 223.749 209.387 223.696 209.236 223.691V223.676Z" fill="#223A74"/>
<path d="M216.678 225.81H211.136L210.586 212.984H216.12L216.678 225.81Z" fill="#FF8B7B"/>
<path d="M257.018 212.818L251.657 214.213L245.723 202.511L251.084 201.108L257.018 212.818Z" fill="#FF8B7B"/>
<path d="M251.241 213.58L255.984 209.553C256.068 209.482 256.175 209.443 256.286 209.443C256.396 209.443 256.503 209.482 256.587 209.553L260.606 212.569C260.703 212.645 260.782 212.741 260.836 212.852C260.89 212.962 260.918 213.084 260.918 213.206C260.918 213.329 260.89 213.451 260.836 213.561C260.782 213.672 260.703 213.768 260.606 213.844C258.925 215.216 258.035 215.804 255.954 217.576C254.664 218.662 250.796 222.402 249.024 223.91C247.253 225.418 245.533 223.857 246.122 223.08C248.776 219.612 250.502 216.226 250.751 214.402C250.807 214.076 250.981 213.783 251.241 213.58Z" fill="#263238"/>
<path d="M211.174 225.169H217.206C217.316 225.169 217.422 225.207 217.509 225.275C217.595 225.344 217.655 225.439 217.681 225.546L218.774 230.47C218.8 230.588 218.799 230.712 218.771 230.83C218.743 230.948 218.688 231.059 218.611 231.153C218.535 231.247 218.437 231.323 218.327 231.374C218.217 231.426 218.096 231.452 217.975 231.45C215.796 231.45 212.636 231.291 209.899 231.291C206.687 231.291 205.292 231.465 201.53 231.465C199.268 231.465 198.627 229.165 199.577 228.954C203.905 228.012 206.077 227.906 209.824 225.599C210.225 225.332 210.692 225.183 211.174 225.169Z" fill="#263238"/>
<path d="M203.444 47.7965C201.604 51.0538 199.674 54.1377 197.608 57.214C195.542 60.2904 193.355 63.2461 190.957 66.1792C190.663 66.5486 190.347 66.9332 190.037 67.2649L189.578 67.8078L189.344 68.0793L188.952 68.4864C188.044 69.4149 186.983 70.1801 185.815 70.7484C183.942 71.6531 181.964 72.3218 179.926 72.739C176.189 73.4976 172.375 73.819 168.563 73.6966L168.156 69.5571C171.514 68.6936 174.824 67.6516 178.071 66.4355C179.524 65.8938 180.919 65.2067 182.234 64.3846C182.676 64.1018 183.07 63.7506 183.402 63.3441L184.043 62.4695C184.292 62.1226 184.548 61.7833 184.797 61.4214C186.795 58.5863 188.718 55.6155 190.595 52.6146C192.473 49.6137 194.365 46.5826 196.168 43.5665L203.444 47.7965Z" fill="#FF8B7B"/>
<path d="M233.56 36.7502C238.755 37.9415 244.704 52.0942 244.704 52.0942L234.276 59.2422C231.684 55.5214 229.383 51.6066 227.392 47.5325C224.316 41.048 228.251 35.5287 233.56 36.7502Z" fill="#263238"/>
<path opacity="0.3" d="M229.842 45.7983L234.773 58.9256L234.283 59.2649C234.283 59.2649 232.149 56.2489 229.842 52.23V45.7983Z" fill="black"/>
<path d="M202.532 37.0293C202.532 37.0293 196.636 43.6872 202.201 84.9087H231.825C232.029 80.3847 229.171 58.1717 233.56 36.7428C230.285 36.1122 226.973 35.6941 223.644 35.4912C219.451 35.2497 215.246 35.2497 211.053 35.4912C208.177 35.7809 205.328 36.2952 202.532 37.0293Z" fill="#263238"/>
<path opacity="0.3" d="M205.819 48.95C205.048 53.6277 203.026 58.0099 199.968 61.6323C199.847 58.9782 199.802 56.5956 199.809 54.4617L205.819 48.95Z" fill="black"/>
<path d="M208.377 41.5232C209.131 46.7635 198.77 60.1622 198.77 60.1622L188.418 53.0143C188.418 53.0143 191.291 45.6325 196.147 40.7918C201.651 35.2423 207.577 35.8154 208.377 41.5232Z" fill="#263238"/>
<path d="M168.489 69.5421L162.684 68.8408L162.842 75.9134C162.842 75.9134 167.411 76.3055 169.899 73.1236L168.489 69.5421Z" fill="#FF8B7B"/>
<path d="M156.893 70.5675L159.155 76.2904L162.842 75.9134L162.683 68.8408L156.893 70.5675Z" fill="#FF8B7B"/>
<path opacity="0.2" d="M210.586 212.984L210.895 220.192H216.437L216.128 212.984H210.586Z" fill="black"/>
<path opacity="0.2" d="M251.084 201.116L245.723 202.511L249.01 208.995L254.145 207.148L251.084 201.116Z" fill="black"/>
<path d="M222.417 15.2157C222.085 20.6974 222.168 23.932 219.401 26.7445C215.231 30.982 208.46 28.4712 207.148 22.9745C205.972 18.0433 206.718 9.9 212.094 7.72092C213.277 7.23502 214.564 7.05966 215.833 7.21151C217.103 7.36336 218.312 7.83738 219.346 8.5885C220.381 9.33961 221.206 10.3428 221.743 11.5028C222.281 12.6628 222.513 13.9409 222.417 15.2157Z" fill="#FF8B7B"/>
<path d="M212.546 17.7719C209.643 17.1913 210.699 13.7078 211.415 12.6824C211.19 12.6146 210.986 12.4892 210.824 12.3184C210.662 12.1477 210.548 11.9376 210.492 11.7089C210.436 11.4803 210.441 11.2411 210.507 11.0151C210.572 10.7891 210.695 10.584 210.864 10.4203C209.65 10.4203 206.582 10.2092 206.755 6.65032C206.929 3.09141 209.191 3.46087 210.027 5.51931C210.397 4.30431 211.224 3.2802 212.334 2.66274C213.443 2.04528 214.749 1.88269 215.977 2.20922C219.121 2.96323 216.354 4.59188 216.354 4.59188C216.354 4.59188 223.215 3.21205 222.257 6.73326C225.228 6.89914 229.549 9.64372 227.37 12.0113C228.667 14.5598 228.463 16.3016 226.827 16.9802C226.261 20.0415 223.011 25.9076 220.538 25.9076C218.495 25.9001 212.682 23.1329 212.546 17.7719Z" fill="#263238"/>
<path d="M214.98 16.7087C214.733 18.0506 214.052 19.2744 213.043 20.1922C211.701 21.3836 210.532 20.426 210.494 18.7973C210.494 17.327 211.112 14.9293 212.658 14.3562C214.204 13.7832 215.252 15.0801 214.98 16.7087Z" fill="#FF8B7B"/>
<path d="M212.711 84.9084C212.711 84.9084 218.999 127.231 222.445 143.065C226.215 160.407 245.457 206.899 245.457 206.899L255.109 203.793C255.109 203.793 241.197 161.87 239.063 144.671C236.726 126.009 231.825 84.9084 231.825 84.9084H212.711Z" fill="#223A74"/>
<path d="M243.409 204.893C243.371 204.893 245.625 208.271 245.625 208.271L256.468 204.697L255.179 201.463L243.409 204.893Z" fill="#263238"/>
<path opacity="0.3" d="M216.685 99.9888C223.954 101.414 223.185 128.52 222.31 142.462C220.214 132.607 217.145 113.644 215.049 100.185C215.556 99.9349 216.133 99.8657 216.685 99.9888Z" fill="black"/>
<path d="M202.201 84.9084C202.201 84.9084 199.577 126.326 200.18 143.216C200.806 160.784 208.806 218.315 208.806 218.315H218.186C218.186 218.315 216.678 161.81 217.085 144.558C217.545 125.708 221.677 84.9084 221.677 84.9084H202.201Z" fill="#223A74"/>
<path d="M206.996 214.575C206.958 214.575 207.531 218.473 207.531 218.473H218.939L219.249 214.997L206.996 214.575Z" fill="#263238"/>
</svg>
