<svg width="27" height="32" viewBox="0 0 27 32" fill="none" xmlns="http://www.w3.org/2000/svg">
<path d="M20 18.6667C20 19.0203 19.8595 19.3594 19.6095 19.6095C19.3594 19.8595 19.0203 20 18.6667 20H7.99999C7.64637 20 7.30723 19.8595 7.05719 19.6095C6.80714 19.3594 6.66666 19.0203 6.66666 18.6667C6.66666 18.3131 6.80714 17.9739 7.05719 17.7239C7.30723 17.4738 7.64637 17.3333 7.99999 17.3333H18.6667C19.0203 17.3333 19.3594 17.4738 19.6095 17.7239C19.8595 17.9739 20 18.3131 20 18.6667ZM14.6667 22.6667H7.99999C7.64637 22.6667 7.30723 22.8071 7.05719 23.0572C6.80714 23.3072 6.66666 23.6464 6.66666 24C6.66666 24.3536 6.80714 24.6928 7.05719 24.9428C7.30723 25.1929 7.64637 25.3333 7.99999 25.3333H14.6667C15.0203 25.3333 15.3594 25.1929 15.6095 24.9428C15.8595 24.6928 16 24.3536 16 24C16 23.6464 15.8595 23.3072 15.6095 23.0572C15.3594 22.8071 15.0203 22.6667 14.6667 22.6667ZM26.6666 13.98V25.3333C26.6645 27.1008 25.9615 28.7953 24.7117 30.045C23.4619 31.2948 21.7674 31.9979 20 32H6.66666C4.8992 31.9979 3.20474 31.2948 1.95496 30.045C0.705175 28.7953 0.00211714 27.1008 0 25.3333V6.66669C0.00211714 4.89923 0.705175 3.20477 1.95496 1.95499C3.20474 0.705206 4.8992 0.00214787 6.66666 3.07315e-05H12.6867C13.9128 -0.00312517 15.1274 0.236814 16.2603 0.705976C17.3931 1.17514 18.4218 1.86421 19.2866 2.73336L23.932 7.38136C24.8016 8.24568 25.4911 9.27396 25.9605 10.4067C26.43 11.5393 26.67 12.7539 26.6666 13.98ZM17.4013 4.61869C16.9817 4.21224 16.5106 3.86259 16 3.57869V9.33335C16 9.68698 16.1405 10.0261 16.3905 10.2762C16.6406 10.5262 16.9797 10.6667 17.3333 10.6667H23.088C22.8039 10.1563 22.4538 9.68555 22.0466 9.26669L17.4013 4.61869ZM24 13.98C24 13.76 23.9573 13.5494 23.9373 13.3334H17.3333C16.2725 13.3334 15.255 12.9119 14.5049 12.1618C13.7547 11.4116 13.3333 10.3942 13.3333 9.33335V2.72936C13.1173 2.70936 12.9053 2.66669 12.6867 2.66669H6.66666C5.6058 2.66669 4.58838 3.08812 3.83824 3.83827C3.08809 4.58841 2.66666 5.60583 2.66666 6.66669V25.3333C2.66666 26.3942 3.08809 27.4116 3.83824 28.1618C4.58838 28.9119 5.6058 29.3333 6.66666 29.3333H20C21.0608 29.3333 22.0783 28.9119 22.8284 28.1618C23.5786 27.4116 24 26.3942 24 25.3333V13.98Z" fill="white"/>
</svg>
