<svg width="33" height="32" viewBox="0 0 33 32" fill="none" xmlns="http://www.w3.org/2000/svg">
<path d="M26.6754 15.9943C25.8572 15.9942 25.05 16.1825 24.3163 16.5447C23.5827 16.9069 22.9423 17.4332 22.445 18.0829L22.3516 18.0429C22.7184 16.9066 22.7734 15.6927 22.5108 14.5279C22.2482 13.3631 21.6777 12.2902 20.8589 11.4212C20.04 10.5522 19.0029 9.91904 17.8558 9.58777C16.7086 9.25651 15.4936 9.23932 14.3375 9.538L14.2162 9.30861C15.1849 8.44668 15.8061 7.26106 15.9633 5.97394C16.1205 4.68682 15.8029 3.38655 15.0701 2.31681C14.3372 1.24708 13.2394 0.481311 11.9824 0.163018C10.7254 -0.155274 9.39545 -0.00424085 8.24182 0.587813C7.08819 1.17987 6.19006 2.1723 5.71576 3.37913C5.24145 4.58595 5.22352 5.92432 5.66532 7.14342C6.10713 8.36251 6.97835 9.37865 8.1157 10.0014C9.25306 10.6241 10.5785 10.8108 11.8436 10.5263L11.9409 10.709C10.6073 11.7323 9.7102 13.2223 9.42968 14.8797C9.14915 16.5372 9.50598 18.2394 10.4285 19.6446L7.91456 21.9959C6.77822 21.368 5.45194 21.1761 4.18425 21.4561C2.91656 21.7361 1.79447 22.4687 1.02825 23.5167C0.262025 24.5647 -0.0957412 25.8562 0.0219918 27.1491C0.139725 28.442 0.724876 29.6476 1.66779 30.5399C2.61071 31.4323 3.84668 31.9502 5.14409 31.9966C6.4415 32.043 7.7113 31.6147 8.71554 30.7919C9.71979 29.9692 10.3895 28.8085 10.5993 27.5273C10.8091 26.2461 10.5445 24.9324 9.85506 23.8323L12.3064 21.5411C13.6527 22.441 15.2808 22.8194 16.886 22.6056C18.4912 22.3918 19.9634 21.6004 21.0273 20.3795L21.3994 20.5382C21.2379 21.615 21.4099 22.7155 21.8922 23.6918C22.3745 24.6681 23.144 25.4734 24.0974 25.9996C25.0507 26.5258 26.1423 26.7476 27.2254 26.6353C28.3085 26.523 29.3313 26.0819 30.1564 25.3713C30.9815 24.6607 31.5694 23.7146 31.8411 22.6601C32.1128 21.6056 32.0553 20.4933 31.6763 19.4724C31.2974 18.4516 30.6151 17.5712 29.7211 16.9494C28.8271 16.3277 27.7643 15.9944 26.6754 15.9943V15.9943ZM8.00391 5.32492C8.00391 4.79736 8.16035 4.28166 8.45344 3.84302C8.74654 3.40437 9.16312 3.06249 9.65051 2.8606C10.1379 2.65872 10.6742 2.6059 11.1916 2.70882C11.7091 2.81174 12.1843 3.06578 12.5574 3.43881C12.9304 3.81185 13.1844 4.28713 13.2874 4.80454C13.3903 5.32196 13.3375 5.85827 13.1356 6.34567C12.9337 6.83306 12.5918 7.24965 12.1532 7.54274C11.7145 7.83583 11.1988 7.99227 10.6713 7.99227C9.96384 7.99227 9.28539 7.71125 8.78516 7.21102C8.28494 6.71079 8.00391 6.03234 8.00391 5.32492ZM5.33656 29.3311C4.80901 29.3311 4.2933 29.1747 3.85466 28.8816C3.41601 28.5885 3.07413 28.1719 2.87225 27.6845C2.67036 27.1971 2.61754 26.6608 2.72046 26.1434C2.82338 25.6259 3.07742 25.1507 3.45046 24.7776C3.82349 24.4046 4.29877 24.1506 4.81619 24.0476C5.3336 23.9447 5.86992 23.9975 6.35731 24.1994C6.84471 24.4013 7.26129 24.7432 7.55438 25.1818C7.84748 25.6205 8.00391 26.1362 8.00391 26.6637C8.00391 27.3712 7.72289 28.0496 7.22266 28.5498C6.72244 29.0501 6.04399 29.3311 5.33656 29.3311ZM16.006 19.9954C15.14 19.9937 14.298 19.7111 13.6063 19.19C12.9146 18.6689 12.4107 17.9375 12.1702 17.1056C11.9297 16.2737 11.9655 15.3862 12.2724 14.5765C12.5793 13.7667 13.1406 13.0783 13.8721 12.6148L14.4149 12.3254C14.9603 12.0881 15.5518 11.9755 16.1462 11.9956C16.7407 12.0157 17.3231 12.1681 17.8513 12.4417C18.3794 12.7153 18.8399 13.1032 19.1992 13.5772C19.5585 14.0511 19.8077 14.5993 19.9285 15.1817C20.0493 15.764 20.0387 16.366 19.8976 16.9438C19.7564 17.5216 19.4882 18.0607 19.1125 18.5218C18.7368 18.9828 18.263 19.3544 17.7256 19.6093C17.1882 19.8642 16.6008 19.9961 16.006 19.9954V19.9954ZM26.6754 23.9964C26.1478 23.9964 25.6321 23.8399 25.1935 23.5469C24.7548 23.2538 24.413 22.8372 24.2111 22.3498C24.0092 21.8624 23.9564 21.3261 24.0593 20.8087C24.1622 20.2912 24.4162 19.816 24.7893 19.4429C25.1623 19.0699 25.6376 18.8159 26.155 18.7129C26.6724 18.61 27.2087 18.6628 27.6961 18.8647C28.1835 19.0666 28.6001 19.4085 28.8932 19.8471C29.1863 20.2858 29.3427 20.8015 29.3427 21.329C29.3427 22.0365 29.0617 22.7149 28.5615 23.2151C28.0613 23.7154 27.3828 23.9964 26.6754 23.9964Z" fill="#223A74"/>
</svg>
