<svg width="35" height="32" viewBox="0 0 35 32" fill="none" xmlns="http://www.w3.org/2000/svg">
<path d="M27.6364 0H7.27273C5.34459 0.00230961 3.49608 0.769283 2.13268 2.13268C0.769283 3.49608 0.00230961 5.34459 0 7.27273L0 18.9091C0.00230961 20.8372 0.769283 22.6857 2.13268 24.0491C3.49608 25.4125 5.34459 26.1795 7.27273 26.1818H16V29.0909H10.1818C9.79605 29.0909 9.42608 29.2442 9.1533 29.5169C8.88052 29.7897 8.72727 30.1597 8.72727 30.5455C8.72727 30.9312 8.88052 31.3012 9.1533 31.574C9.42608 31.8468 9.79605 32 10.1818 32H24.7273C25.113 32 25.483 31.8468 25.7558 31.574C26.0286 31.3012 26.1818 30.9312 26.1818 30.5455C26.1818 30.1597 26.0286 29.7897 25.7558 29.5169C25.483 29.2442 25.113 29.0909 24.7273 29.0909H18.9091V26.1818H27.6364C29.5645 26.1795 31.413 25.4125 32.7764 24.0491C34.1398 22.6857 34.9068 20.8372 34.9091 18.9091V7.27273C34.9068 5.34459 34.1398 3.49608 32.7764 2.13268C31.413 0.769283 29.5645 0.00230961 27.6364 0ZM32 18.9091C32 20.0664 31.5403 21.1763 30.7219 21.9946C29.9036 22.813 28.7937 23.2727 27.6364 23.2727H7.27273C6.11542 23.2727 5.00551 22.813 4.18717 21.9946C3.36883 21.1763 2.90909 20.0664 2.90909 18.9091V7.27273C2.90909 6.11542 3.36883 5.00551 4.18717 4.18717C5.00551 3.36883 6.11542 2.90909 7.27273 2.90909H27.6364C28.7937 2.90909 29.9036 3.36883 30.7219 4.18717C31.5403 5.00551 32 6.11542 32 7.27273V18.9091ZM29.0909 13.0909C29.0909 13.4767 28.9377 13.8466 28.6649 14.1194C28.3921 14.3922 28.0221 14.5455 27.6364 14.5455H23.3236L20.8509 18.2618C20.7176 18.4616 20.537 18.6252 20.325 18.7382C20.1131 18.8511 19.8765 18.9098 19.6364 18.9091C19.6058 18.9091 19.5753 18.9091 19.5462 18.9091C19.2917 18.8934 19.0458 18.8111 18.8331 18.6705C18.6205 18.5298 18.4485 18.3357 18.3345 18.1076L15.0924 11.6189L13.5738 13.8982C13.4409 14.0973 13.261 14.2606 13.0499 14.3735C12.8388 14.4864 12.603 14.5455 12.3636 14.5455H7.27273C6.88696 14.5455 6.51699 14.3922 6.24421 14.1194C5.97143 13.8466 5.81818 13.4767 5.81818 13.0909C5.81818 12.7051 5.97143 12.3352 6.24421 12.0624C6.51699 11.7896 6.88696 11.6364 7.27273 11.6364H11.5855L14.0582 7.92C14.1982 7.70555 14.393 7.53244 14.6224 7.41862C14.8518 7.30481 15.1075 7.25444 15.3629 7.27273C15.6174 7.2884 15.8633 7.3707 16.0759 7.51136C16.2886 7.65203 16.4605 7.84612 16.5745 8.07418L19.8167 14.56L21.3353 12.2807C21.4685 12.0821 21.6486 11.9194 21.8597 11.807C22.0708 11.6946 22.3063 11.636 22.5455 11.6364H27.6364C28.0221 11.6364 28.3921 11.7896 28.6649 12.0624C28.9377 12.3352 29.0909 12.7051 29.0909 13.0909Z" fill="white"/>
</svg>
