<svg width="32" height="32" viewBox="0 0 32 32" fill="none" xmlns="http://www.w3.org/2000/svg">
<path d="M17.3057 31.8659C16.9514 31.8816 16.6054 31.7565 16.3437 31.5182C16.0821 31.2799 15.9262 30.9479 15.9104 30.5952C15.8947 30.2425 16.0203 29.898 16.2597 29.6375C16.499 29.377 16.8325 29.2219 17.1868 29.2062C19.7148 28.9759 22.1246 28.0333 24.1338 26.4887C26.1431 24.9441 27.6687 22.8616 28.5319 20.4849C29.3951 18.1083 29.5602 15.536 29.0079 13.0693C28.4555 10.6026 27.2086 8.34367 25.4132 6.55706C23.6177 4.77045 21.3481 3.53014 18.8701 2.9814C16.3921 2.43266 13.8084 2.59822 11.4215 3.45868C9.0346 4.31913 6.94341 5.83887 5.39284 7.83988C3.84228 9.84089 2.89653 12.2403 2.66639 14.7572C2.6345 15.1084 2.46375 15.4327 2.19169 15.6587C1.91963 15.8846 1.56855 15.9938 1.21568 15.962C0.862817 15.9303 0.53707 15.7603 0.310102 15.4894C0.0831349 15.2186 -0.026461 14.8691 0.0054245 14.5178C0.377972 10.4262 2.32122 6.63525 5.43065 3.93411C8.54009 1.23297 12.5761 -0.170262 16.6986 0.016515C20.8211 0.203292 24.7125 1.96569 27.5626 4.93683C30.4128 7.90798 32.0021 11.859 31.9998 15.9673C32.0203 19.9547 30.5323 23.8037 27.8319 26.7486C25.1315 29.6935 21.4165 31.5185 17.4259 31.8606C17.3859 31.8646 17.3444 31.8659 17.3057 31.8659Z" fill="#223A74"/>
</svg>
