<svg width="32" height="32" viewBox="0 0 32 32" fill="none" xmlns="http://www.w3.org/2000/svg">
<path d="M11.9502 32H1.3278C0.975646 32 0.637915 31.8601 0.388904 31.6111C0.139893 31.362 0 31.0243 0 30.6722C0 30.32 0.139893 29.9823 0.388904 29.7333C0.637915 29.4843 0.975646 29.3444 1.3278 29.3444H11.9502C12.3024 29.3444 12.6401 29.4843 12.8891 29.7333C13.1381 29.9823 13.278 30.32 13.278 30.6722C13.278 31.0243 13.1381 31.362 12.8891 31.6111C12.6401 31.8601 12.3024 32 11.9502 32Z" fill="#223A74"/>
<path d="M9.29461 26.6888H1.3278C0.975646 26.6888 0.637915 26.5489 0.388904 26.2999C0.139893 26.0509 0 25.7132 0 25.361C0 25.0088 0.139893 24.6711 0.388904 24.4221C0.637915 24.1731 0.975646 24.0332 1.3278 24.0332H9.29461C9.64676 24.0332 9.98449 24.1731 10.2335 24.4221C10.4825 24.6711 10.6224 25.0088 10.6224 25.361C10.6224 25.7132 10.4825 26.0509 10.2335 26.2999C9.98449 26.5489 9.64676 26.6888 9.29461 26.6888Z" fill="#223A74"/>
<path d="M6.639 21.3776H1.3278C0.975646 21.3776 0.637915 21.2378 0.388904 20.9887C0.139893 20.7397 0 20.402 0 20.0498C0 19.6977 0.139893 19.36 0.388904 19.111C0.637915 18.8619 0.975646 18.722 1.3278 18.722H6.639C6.99116 18.722 7.32889 18.8619 7.5779 19.111C7.82691 19.36 7.96681 19.6977 7.96681 20.0498C7.96681 20.402 7.82691 20.7397 7.5779 20.9887C7.32889 21.2378 6.99116 21.3776 6.639 21.3776Z" fill="#223A74"/>
<path d="M17.3057 31.8659C16.9514 31.8816 16.6054 31.7565 16.3437 31.5182C16.0821 31.2799 15.9262 30.9479 15.9104 30.5952C15.8947 30.2425 16.0203 29.898 16.2597 29.6375C16.499 29.377 16.8325 29.2219 17.1868 29.2062C19.7148 28.9759 22.1246 28.0333 24.1338 26.4887C26.1431 24.9441 27.6687 22.8616 28.5319 20.4849C29.3951 18.1083 29.5602 15.536 29.0079 13.0693C28.4555 10.6026 27.2086 8.34367 25.4132 6.55706C23.6177 4.77045 21.3481 3.53014 18.8701 2.9814C16.3921 2.43266 13.8084 2.59822 11.4215 3.45868C9.0346 4.31913 6.94341 5.83887 5.39284 7.83988C3.84228 9.84089 2.89653 12.2403 2.66639 14.7572C2.6345 15.1084 2.46375 15.4327 2.19169 15.6587C1.91963 15.8846 1.56855 15.9938 1.21568 15.962C0.862817 15.9303 0.53707 15.7603 0.310102 15.4894C0.0831349 15.2186 -0.026461 14.8691 0.0054245 14.5178C0.377972 10.4262 2.32122 6.63525 5.43065 3.93411C8.54009 1.23297 12.5761 -0.170262 16.6986 0.016515C20.8211 0.203292 24.7125 1.96569 27.5626 4.93683C30.4128 7.90798 32.0021 11.859 31.9998 15.9673C32.0203 19.9547 30.5323 23.8037 27.8319 26.7486C25.1315 29.6935 21.4165 31.5185 17.4259 31.8606C17.3859 31.8646 17.3444 31.8659 17.3057 31.8659Z" fill="#223A74"/>
<path d="M15.9634 7.9668C15.6033 7.9668 15.258 8.10686 15.0034 8.35618C14.7488 8.6055 14.6057 8.94364 14.6057 9.29623V15.9434C14.6058 16.296 14.7489 16.6341 15.0035 16.8833L19.0766 20.8716C19.3327 21.1138 19.6756 21.2478 20.0316 21.2448C20.3876 21.2417 20.7281 21.1019 20.9798 20.8554C21.2316 20.6089 21.3744 20.2755 21.3774 19.9269C21.3805 19.5783 21.2437 19.2425 20.9964 18.9918L17.3211 15.393V9.29623C17.3211 8.94364 17.1781 8.6055 16.9234 8.35618C16.6688 8.10686 16.3235 7.9668 15.9634 7.9668Z" fill="#223A74"/>
</svg>
