<svg width="301" height="240" viewBox="0 0 301 240" fill="none" xmlns="http://www.w3.org/2000/svg">
<path d="M150.419 240C233.493 240 300.838 236.068 300.838 231.218C300.838 226.368 233.493 222.436 150.419 222.436C67.3448 222.436 0 226.368 0 231.218C0 236.068 67.3448 240 150.419 240Z" fill="#F5F5F5"/>
<path d="M171.747 157.463H134.043V232.405H171.747V157.463Z" fill="#263238"/>
<path opacity="0.2" d="M171.747 181.583H134.043V193.142H171.747V181.583Z" fill="black"/>
<path d="M197.184 227.362H108.588V232.521H197.184V227.362Z" fill="#263238"/>
<path opacity="0.2" d="M197.184 227.362H108.588V232.521H197.184V227.362Z" fill="black"/>
<path d="M259.915 30.3259H45.8734C41.2974 30.3259 37.5879 34.0355 37.5879 38.6114V181.381C37.5879 185.957 41.2974 189.666 45.8734 189.666H259.915C264.491 189.666 268.201 185.957 268.201 181.381V38.6114C268.201 34.0355 264.491 30.3259 259.915 30.3259Z" fill="#263238"/>
<path opacity="0.5" d="M259.915 30.3259H45.8734C41.2974 30.3259 37.5879 34.0355 37.5879 38.6114V181.381C37.5879 185.957 41.2974 189.666 45.8734 189.666H259.915C264.491 189.666 268.201 185.957 268.201 181.381V38.6114C268.201 34.0355 264.491 30.3259 259.915 30.3259Z" fill="white"/>
<path d="M263.484 35.5625H41.5137V172.87H263.484V35.5625Z" fill="#263238"/>
<path d="M158.715 182.941C159.475 179.722 157.481 176.497 154.262 175.737C151.043 174.977 147.817 176.971 147.057 180.19C146.298 183.409 148.291 186.635 151.511 187.395C154.73 188.154 157.956 186.161 158.715 182.941Z" fill="#E0E0E0"/>
<path opacity="0.7" d="M259.511 38.0219H45.4844V170.411H259.511V38.0219Z" fill="white"/>
<path d="M259.511 38.0219H45.4844V168.689H259.511V38.0219Z" fill="#223A74"/>
<g opacity="0.9">
<path d="M259.511 38.0219H45.4844V170.411H259.511V38.0219Z" fill="white"/>
</g>
<path d="M259.504 78.6115H113.934V129.403H259.504V78.6115Z" fill="#223A74"/>
<g opacity="0.4">
<path d="M259.506 78.6115H113.936V129.403H259.506V78.6115Z" fill="white"/>
</g>
<path d="M113.934 78.6115H67.3008V129.403H113.934V78.6115Z" fill="#223A74"/>
<g opacity="0.7">
<path d="M113.936 78.6115H67.3027V129.403H113.936V78.6115Z" fill="white"/>
</g>
<path d="M67.2997 78.6115H45.4844V129.403H67.2997V78.6115Z" fill="#223A74"/>
<g opacity="0.6">
<path d="M67.2997 78.6115H45.4844V129.403H67.2997V78.6115Z" fill="white"/>
</g>
<path d="M209.877 66.1599H86.5879V73.5532H209.877V66.1599Z" fill="#223A74"/>
<g opacity="0.8">
<path d="M209.875 66.1599H86.5859V73.5532H209.875V66.1599Z" fill="white"/>
</g>
<path d="M217.883 66.1599H209.877V73.5532H217.883V66.1599Z" fill="#223A74"/>
<g opacity="0.5">
<path d="M217.883 66.1599H209.877V73.5532H217.883V66.1599Z" fill="white"/>
</g>
<path d="M259.511 38.0219H45.4844V46.3772H259.511V38.0219Z" fill="#223A74"/>
<path d="M239.031 42.1955C239.032 42.67 238.893 43.1342 238.63 43.5295C238.368 43.9247 237.994 44.2332 237.556 44.4158C237.118 44.5984 236.636 44.647 236.171 44.5554C235.705 44.4638 235.277 44.2361 234.941 43.9011C234.605 43.5662 234.376 43.1391 234.283 42.6738C234.19 42.2086 234.237 41.7262 234.418 41.2877C234.599 40.8492 234.907 40.4744 235.301 40.2106C235.695 39.9469 236.159 39.8061 236.634 39.8061C237.268 39.8061 237.877 40.0576 238.326 40.5055C238.775 40.9534 239.029 41.5611 239.031 42.1955Z" fill="white"/>
<path d="M248.232 42.1955C248.233 42.67 248.094 43.1342 247.832 43.5295C247.569 43.9247 247.195 44.2332 246.757 44.4158C246.32 44.5984 245.837 44.647 245.372 44.5554C244.906 44.4638 244.478 44.2361 244.142 43.9011C243.806 43.5662 243.577 43.1391 243.484 42.6738C243.391 42.2086 243.438 41.7262 243.619 41.2877C243.8 40.8492 244.108 40.4744 244.502 40.2106C244.896 39.9469 245.36 39.8061 245.835 39.8061C246.469 39.8061 247.078 40.0576 247.527 40.5055C247.976 40.9534 248.23 41.5611 248.232 42.1955Z" fill="white"/>
<path d="M257.431 42.1955C257.433 42.67 257.293 43.1342 257.031 43.5295C256.768 43.9247 256.395 44.2332 255.957 44.4158C255.519 44.5984 255.037 44.647 254.571 44.5554C254.105 44.4638 253.678 44.2361 253.342 43.9011C253.006 43.5662 252.776 43.1391 252.683 42.6738C252.59 42.2086 252.637 41.7262 252.818 41.2877C253 40.8492 253.307 40.4744 253.701 40.2106C254.096 39.9469 254.559 39.8061 255.034 39.8061C255.668 39.8061 256.277 40.0576 256.726 40.5055C257.176 40.9534 257.429 41.5611 257.431 42.1955Z" fill="white"/>
<path d="M52.3978 72.9326C51.9747 72.8426 51.5687 72.6855 51.1953 72.4671L51.8703 70.9155C52.1825 71.0942 52.5162 71.2323 52.8633 71.3267C53.2056 71.4291 53.561 71.4813 53.9184 71.4818C54.1283 71.495 54.3388 71.4687 54.539 71.4043C54.5917 71.3845 54.6375 71.3497 54.6706 71.3042C54.7037 71.2587 54.7227 71.2045 54.7252 71.1482C54.7252 71.0164 54.6476 70.9233 54.4847 70.8534C54.2311 70.7662 53.9719 70.6962 53.7089 70.644C53.3035 70.5636 52.9042 70.4547 52.5142 70.3181C52.1913 70.1999 51.9032 70.0025 51.6763 69.7441C51.4272 69.4446 51.2998 69.0625 51.3194 68.6734C51.3154 68.2928 51.4322 67.9207 51.653 67.6106C51.8939 67.26 52.2344 66.9898 52.6305 66.8348C53.1243 66.6404 53.6516 66.5455 54.1821 66.5555C54.6049 66.5551 55.0265 66.6019 55.4389 66.6952C55.8186 66.7762 56.1845 66.9121 56.525 67.0986L55.8966 68.6502C55.3619 68.361 54.7666 68.2015 54.1588 68.1847C53.6236 68.1847 53.3831 68.3166 53.3831 68.5804C53.3831 68.7045 53.4606 68.7976 53.6236 68.8596C53.8775 68.9435 54.1367 69.0109 54.3993 69.0613C54.8076 69.13 55.2097 69.2311 55.6018 69.3639C55.9266 69.4791 56.2173 69.6738 56.4474 69.9302C56.6996 70.2249 56.8275 70.606 56.8043 70.9931C56.8085 71.3726 56.6946 71.744 56.4785 72.0559C56.2293 72.4018 55.8879 72.6706 55.4932 72.8317C54.9996 73.0265 54.4722 73.1215 53.9416 73.111C53.4217 73.114 52.9033 73.0541 52.3978 72.9326Z" fill="#263238"/>
<path d="M58.6825 68.3709H56.8594V66.7417H62.6003V68.3709H60.7771V72.9636H58.6825V68.3709Z" fill="#263238"/>
<path d="M64.5163 72.6921C64.1318 72.4837 63.7932 72.2 63.5206 71.858C63.2481 71.5159 63.0472 71.1225 62.9299 70.7012C62.8126 70.2799 62.7813 69.8392 62.838 69.4056C62.8946 68.9719 63.038 68.5541 63.2595 68.177C63.5649 67.6841 63.9996 67.2843 64.5163 67.021C65.0726 66.7355 65.6909 66.5916 66.3161 66.6021C66.9437 66.5935 67.564 66.7372 68.1237 67.021C68.6367 67.2867 69.0682 67.6861 69.3728 68.177C69.679 68.6818 69.8376 69.2623 69.8305 69.8527C69.8405 70.4434 69.6817 71.0248 69.3728 71.5284C69.0709 72.0234 68.6388 72.4259 68.1237 72.6921C67.564 72.9759 66.9437 73.1197 66.3161 73.111C65.6909 73.1215 65.0726 72.9776 64.5163 72.6921ZM67.0221 71.2181C67.2386 71.089 67.4136 70.9005 67.5264 70.675C67.6559 70.4207 67.7199 70.138 67.7126 69.8527C67.718 69.5675 67.6541 69.2853 67.5264 69.0303C67.4114 68.8084 67.2368 68.623 67.0221 68.495C66.8085 68.368 66.5646 68.3009 66.3161 68.3009C66.0676 68.3009 65.8237 68.368 65.6101 68.495C65.3955 68.623 65.2209 68.8084 65.1059 69.0303C64.9782 69.2853 64.9143 69.5675 64.9197 69.8527C64.9123 70.138 64.9763 70.4207 65.1059 70.675C65.2186 70.9005 65.3936 71.089 65.6101 71.2181C65.8237 71.3451 66.0676 71.4122 66.3161 71.4122C66.5646 71.4122 66.8085 71.3451 67.0221 71.2181Z" fill="#263238"/>
<path d="M73.2586 71.4042H72.6845V72.9558H70.5898V66.7495H73.6154C74.1315 66.7405 74.6439 66.8382 75.1205 67.0365C75.5198 67.2086 75.8617 67.4912 76.1057 67.8511C76.3403 68.2246 76.4591 68.6592 76.4471 69.1001C76.4561 69.5086 76.3513 69.9115 76.1445 70.2638C75.9357 70.6008 75.634 70.8702 75.2756 71.0396L76.5867 72.9558H74.3137L73.2586 71.4042ZM74.0887 68.5571C73.9088 68.4143 73.6815 68.345 73.4525 68.3631H72.6767V69.8216H73.4525C73.6815 69.8398 73.9088 69.7705 74.0887 69.6277C74.2262 69.4834 74.3029 69.2917 74.3029 69.0924C74.3029 68.893 74.2262 68.7014 74.0887 68.5571Z" fill="#263238"/>
<path d="M82.3816 71.3811V72.9327H77.207V66.7263H82.2652V68.2779H79.2706V69.0071H81.9006V70.52H79.2706V71.3345L82.3816 71.3811Z" fill="#263238"/>
<path d="M228.612 73.5455C228.612 73.7572 228.549 73.9642 228.431 74.1403C228.314 74.3163 228.147 74.4536 227.951 74.5346C227.755 74.6156 227.54 74.6368 227.332 74.5955C227.125 74.5542 226.934 74.4522 226.784 74.3025C226.635 74.1528 226.533 73.962 226.491 73.7543C226.45 73.5467 226.471 73.3314 226.552 73.1358C226.633 72.9402 226.77 72.773 226.947 72.6553C227.123 72.5377 227.33 72.4749 227.541 72.4749C227.682 72.4738 227.822 72.5008 227.952 72.5543C228.083 72.6077 228.201 72.6865 228.301 72.7862C228.4 72.8858 228.479 73.0042 228.532 73.1346C228.586 73.2649 228.613 73.4046 228.612 73.5455Z" fill="#263238"/>
<path d="M234.205 74.6161C234.797 74.6161 235.276 74.1367 235.276 73.5455C235.276 72.9542 234.797 72.4749 234.205 72.4749C233.614 72.4749 233.135 72.9542 233.135 73.5455C233.135 74.1367 233.614 74.6161 234.205 74.6161Z" fill="#263238"/>
<path d="M226.648 65.9893L225.926 63.6619H223.227V64.3911H225.383L227.408 70.9776H234.507L235.127 66.6177L226.648 65.9893ZM233.948 70.4733L227.905 70.4113L226.764 66.5323L234.437 67.0986L233.948 70.4733Z" fill="#263238"/>
<path d="M147.89 123.282C147.891 123.706 147.767 124.121 147.532 124.474C147.297 124.827 146.963 125.103 146.572 125.266C146.18 125.429 145.749 125.472 145.333 125.39C144.917 125.307 144.534 125.103 144.235 124.803C143.935 124.504 143.731 124.121 143.648 123.705C143.566 123.289 143.609 122.858 143.772 122.466C143.935 122.075 144.211 121.741 144.564 121.506C144.917 121.271 145.332 121.147 145.756 121.148C146.322 121.148 146.865 121.373 147.265 121.773C147.665 122.173 147.89 122.716 147.89 123.282Z" fill="#223A74"/>
<path opacity="0.9" d="M147.89 123.282C147.891 123.706 147.767 124.121 147.532 124.474C147.297 124.827 146.963 125.103 146.572 125.266C146.18 125.429 145.749 125.472 145.333 125.39C144.917 125.307 144.534 125.103 144.235 124.803C143.935 124.504 143.731 124.121 143.648 123.705C143.566 123.289 143.609 122.858 143.772 122.466C143.935 122.075 144.211 121.741 144.564 121.506C144.917 121.271 145.332 121.147 145.756 121.148C146.322 121.148 146.865 121.373 147.265 121.773C147.665 122.173 147.89 122.716 147.89 123.282Z" fill="white"/>
<path d="M154.128 123.282C154.13 123.705 154.005 124.12 153.771 124.473C153.537 124.826 153.203 125.102 152.812 125.265C152.421 125.429 151.99 125.472 151.574 125.39C151.158 125.309 150.776 125.105 150.476 124.806C150.175 124.507 149.971 124.126 149.887 123.71C149.804 123.294 149.846 122.864 150.008 122.472C150.17 122.08 150.444 121.745 150.797 121.51C151.149 121.274 151.563 121.148 151.987 121.148C152.268 121.147 152.546 121.202 152.806 121.308C153.065 121.415 153.302 121.572 153.5 121.77C153.699 121.969 153.857 122.204 153.965 122.463C154.073 122.723 154.128 123.001 154.128 123.282Z" fill="#223A74"/>
<path opacity="0.9" d="M154.128 123.282C154.13 123.705 154.005 124.12 153.771 124.473C153.537 124.826 153.203 125.102 152.812 125.265C152.421 125.429 151.99 125.472 151.574 125.39C151.158 125.309 150.776 125.105 150.476 124.806C150.175 124.507 149.971 124.126 149.887 123.71C149.804 123.294 149.846 122.864 150.008 122.472C150.17 122.08 150.444 121.745 150.797 121.51C151.149 121.274 151.563 121.148 151.987 121.148C152.268 121.147 152.546 121.202 152.806 121.308C153.065 121.415 153.302 121.572 153.5 121.77C153.699 121.969 153.857 122.204 153.965 122.463C154.073 122.723 154.128 123.001 154.128 123.282Z" fill="white"/>
<path d="M160.413 123.398C160.415 123.822 160.291 124.237 160.056 124.59C159.822 124.943 159.488 125.219 159.097 125.382C158.706 125.545 158.275 125.589 157.859 125.507C157.443 125.425 157.061 125.222 156.761 124.923C156.461 124.623 156.256 124.242 156.173 123.826C156.089 123.411 156.131 122.98 156.293 122.588C156.455 122.197 156.729 121.862 157.082 121.626C157.434 121.39 157.848 121.265 158.272 121.265C158.839 121.265 159.382 121.489 159.783 121.889C160.185 122.289 160.411 122.832 160.413 123.398Z" fill="#223A74"/>
<path opacity="0.9" d="M160.413 123.398C160.415 123.822 160.291 124.237 160.056 124.59C159.822 124.943 159.488 125.219 159.097 125.382C158.706 125.545 158.275 125.589 157.859 125.507C157.443 125.425 157.061 125.222 156.761 124.923C156.461 124.623 156.256 124.242 156.173 123.826C156.089 123.411 156.131 122.98 156.293 122.588C156.455 122.197 156.729 121.862 157.082 121.626C157.434 121.39 157.848 121.265 158.272 121.265C158.839 121.265 159.382 121.489 159.783 121.889C160.185 122.289 160.411 122.832 160.413 123.398Z" fill="white"/>
<path d="M166.712 123.398C166.714 123.822 166.589 124.237 166.355 124.59C166.121 124.943 165.787 125.219 165.396 125.382C165.005 125.545 164.574 125.589 164.158 125.507C163.742 125.425 163.36 125.222 163.06 124.923C162.759 124.623 162.555 124.242 162.471 123.826C162.388 123.411 162.43 122.98 162.592 122.588C162.754 122.197 163.028 121.862 163.38 121.626C163.733 121.39 164.147 121.265 164.571 121.265C165.137 121.267 165.679 121.492 166.08 121.891C166.481 122.291 166.708 122.832 166.712 123.398Z" fill="#223A74"/>
<path opacity="0.9" d="M166.712 123.398C166.714 123.822 166.589 124.237 166.355 124.59C166.121 124.943 165.787 125.219 165.396 125.382C165.005 125.545 164.574 125.589 164.158 125.507C163.742 125.425 163.36 125.222 163.06 124.923C162.759 124.623 162.555 124.242 162.471 123.826C162.388 123.411 162.43 122.98 162.592 122.588C162.754 122.197 163.028 121.862 163.38 121.626C163.733 121.39 164.147 121.265 164.571 121.265C165.137 121.267 165.679 121.492 166.08 121.891C166.481 122.291 166.708 122.832 166.712 123.398Z" fill="white"/>
<path d="M172.98 123.398C172.981 123.822 172.857 124.237 172.623 124.59C172.388 124.943 172.054 125.219 171.663 125.382C171.272 125.545 170.841 125.589 170.426 125.507C170.01 125.425 169.627 125.222 169.327 124.923C169.027 124.623 168.822 124.242 168.739 123.826C168.656 123.411 168.698 122.98 168.859 122.588C169.021 122.197 169.296 121.862 169.648 121.626C170 121.39 170.415 121.265 170.838 121.265C171.404 121.267 171.947 121.492 172.348 121.891C172.748 122.291 172.976 122.832 172.98 123.398Z" fill="#223A74"/>
<path opacity="0.5" d="M172.98 123.398C172.981 123.822 172.857 124.237 172.623 124.59C172.388 124.943 172.054 125.219 171.663 125.382C171.272 125.545 170.841 125.589 170.426 125.507C170.01 125.425 169.627 125.222 169.327 124.923C169.027 124.623 168.822 124.242 168.739 123.826C168.656 123.411 168.698 122.98 168.859 122.588C169.021 122.197 169.296 121.862 169.648 121.626C170 121.39 170.415 121.265 170.838 121.265C171.404 121.267 171.947 121.492 172.348 121.891C172.748 122.291 172.976 122.832 172.98 123.398Z" fill="white"/>
<path d="M179.263 123.398C179.264 123.822 179.14 124.237 178.906 124.59C178.671 124.943 178.338 125.219 177.946 125.382C177.555 125.545 177.125 125.589 176.709 125.507C176.293 125.425 175.911 125.222 175.61 124.923C175.31 124.623 175.105 124.242 175.022 123.826C174.939 123.411 174.981 122.98 175.143 122.588C175.305 122.197 175.579 121.862 175.931 121.626C176.284 121.39 176.698 121.265 177.122 121.265C177.688 121.267 178.23 121.492 178.631 121.891C179.032 122.291 179.259 122.832 179.263 123.398Z" fill="#223A74"/>
<path opacity="0.9" d="M179.263 123.398C179.264 123.822 179.14 124.237 178.906 124.59C178.671 124.943 178.338 125.219 177.946 125.382C177.555 125.545 177.125 125.589 176.709 125.507C176.293 125.425 175.911 125.222 175.61 124.923C175.31 124.623 175.105 124.242 175.022 123.826C174.939 123.411 174.981 122.98 175.143 122.588C175.305 122.197 175.579 121.862 175.931 121.626C176.284 121.39 176.698 121.265 177.122 121.265C177.688 121.267 178.23 121.492 178.631 121.891C179.032 122.291 179.259 122.832 179.263 123.398Z" fill="white"/>
<path d="M185.546 123.398C185.548 123.822 185.423 124.237 185.189 124.59C184.955 124.943 184.621 125.219 184.23 125.382C183.839 125.545 183.408 125.589 182.992 125.507C182.576 125.425 182.194 125.222 181.894 124.923C181.593 124.623 181.389 124.242 181.305 123.826C181.222 123.411 181.264 122.98 181.426 122.588C181.588 122.197 181.862 121.862 182.214 121.626C182.567 121.39 182.981 121.265 183.405 121.265C183.971 121.267 184.513 121.492 184.914 121.891C185.315 122.291 185.542 122.832 185.546 123.398Z" fill="#223A74"/>
<path opacity="0.9" d="M185.546 123.398C185.548 123.822 185.423 124.237 185.189 124.59C184.955 124.943 184.621 125.219 184.23 125.382C183.839 125.545 183.408 125.589 182.992 125.507C182.576 125.425 182.194 125.222 181.894 124.923C181.593 124.623 181.389 124.242 181.305 123.826C181.222 123.411 181.264 122.98 181.426 122.588C181.588 122.197 181.862 121.862 182.214 121.626C182.567 121.39 182.981 121.265 183.405 121.265C183.971 121.267 184.513 121.492 184.914 121.891C185.315 122.291 185.542 122.832 185.546 123.398Z" fill="white"/>
<path d="M191.823 123.398C191.825 123.822 191.7 124.237 191.466 124.591C191.231 124.944 190.897 125.22 190.505 125.383C190.114 125.546 189.682 125.589 189.266 125.506C188.85 125.424 188.468 125.22 188.168 124.92C187.868 124.62 187.664 124.238 187.582 123.822C187.499 123.406 187.542 122.974 187.705 122.583C187.869 122.191 188.144 121.857 188.497 121.622C188.851 121.388 189.266 121.263 189.69 121.265C190.255 121.267 190.797 121.492 191.196 121.892C191.596 122.291 191.821 122.833 191.823 123.398Z" fill="#223A74"/>
<path opacity="0.9" d="M191.823 123.398C191.825 123.822 191.7 124.237 191.466 124.591C191.231 124.944 190.897 125.22 190.505 125.383C190.114 125.546 189.682 125.589 189.266 125.506C188.85 125.424 188.468 125.22 188.168 124.92C187.868 124.62 187.664 124.238 187.582 123.822C187.499 123.406 187.542 122.974 187.705 122.583C187.869 122.191 188.144 121.857 188.497 121.622C188.851 121.388 189.266 121.263 189.69 121.265C190.255 121.267 190.797 121.492 191.196 121.892C191.596 122.291 191.821 122.833 191.823 123.398Z" fill="white"/>
<path d="M126.222 106.718C125.318 106.527 124.451 106.192 123.654 105.725L125.097 102.459C125.765 102.843 126.48 103.141 127.223 103.344C127.957 103.556 128.716 103.669 129.481 103.677C129.931 103.704 130.382 103.641 130.807 103.491C130.921 103.455 131.021 103.384 131.092 103.288C131.163 103.192 131.202 103.075 131.203 102.956C131.203 102.677 131.032 102.467 130.683 102.327C130.123 102.133 129.55 101.98 128.968 101.87C128.1 101.701 127.244 101.471 126.408 101.179C125.723 100.93 125.109 100.514 124.624 99.9691C124.083 99.333 123.806 98.5144 123.848 97.6805C123.841 96.8689 124.085 96.0749 124.546 95.4074C125.076 94.6771 125.807 94.1165 126.649 93.7937C127.725 93.3719 128.876 93.1714 130.031 93.2041C130.934 93.2045 131.834 93.3033 132.716 93.4989C133.53 93.6674 134.315 93.9577 135.043 94.3601L133.709 97.5951C132.569 96.9833 131.301 96.646 130.008 96.6099C128.86 96.6099 128.286 96.8892 128.286 97.4477C128.286 97.7115 128.456 97.9132 128.798 98.0451C129.347 98.2303 129.91 98.373 130.481 98.4718C131.351 98.6201 132.207 98.838 133.041 99.1235C133.736 99.3702 134.359 99.783 134.857 100.326C135.399 100.958 135.676 101.775 135.633 102.607C135.64 103.417 135.393 104.209 134.927 104.872C134.395 105.597 133.669 106.157 132.832 106.486C131.756 106.91 130.606 107.113 129.449 107.083C128.363 107.088 127.28 106.966 126.222 106.718Z" fill="#263238"/>
<path d="M145.999 104.469H140.956L140.064 106.796H135.51L141.313 93.5144H145.719L151.522 106.796H146.867L145.999 104.469ZM144.765 101.249L143.477 97.9054L142.189 101.249H144.765Z" fill="#263238"/>
<path d="M152.242 93.5066H156.719V103.313H162.715V106.788H152.242V93.5066Z" fill="#263238"/>
<path d="M174.989 103.413V106.788H163.941V93.5066H174.74V96.8813H168.348V98.4329H173.965V101.652H168.348V103.406L174.989 103.413Z" fill="#263238"/>
<path d="M259.511 46.3771H45.4844V62.2654H259.511V46.3771Z" fill="#223A74"/>
<g opacity="0.7">
<path d="M259.511 46.3771H45.4844V62.2654H259.511V46.3771Z" fill="white"/>
</g>
<path d="M247.44 58.6735H69.946C68.7917 58.6735 67.6847 58.215 66.8685 57.3988C66.0523 56.5826 65.5938 55.4756 65.5938 54.3213C65.5938 53.167 66.0523 52.06 66.8685 51.2438C67.6847 50.4276 68.7917 49.9691 69.946 49.9691H247.44C248.594 49.9691 249.701 50.4276 250.518 51.2438C251.334 52.06 251.792 53.167 251.792 54.3213C251.792 55.4756 251.334 56.5826 250.518 57.3988C249.701 58.215 248.594 58.6735 247.44 58.6735Z" fill="#263238"/>
<path opacity="0.7" d="M247.44 58.6735H69.946C68.7917 58.6735 67.6847 58.215 66.8685 57.3988C66.0523 56.5826 65.5938 55.4756 65.5938 54.3213C65.5938 53.167 66.0523 52.06 66.8685 51.2438C67.6847 50.4276 68.7917 49.9691 69.946 49.9691H247.44C248.594 49.9691 249.701 50.4276 250.518 51.2438C251.334 52.06 251.792 53.167 251.792 54.3213C251.792 55.4756 251.334 56.5826 250.518 57.3988C249.701 58.215 248.594 58.6735 247.44 58.6735Z" fill="white"/>
<path d="M246.059 50.9854L247.145 53.1809L249.566 53.53L247.813 55.2445L248.224 57.6572L246.059 56.5168L243.887 57.6572L244.306 55.2445L242.553 53.53L244.973 53.1809L246.059 50.9854Z" fill="#223A74"/>
<path d="M148.83 52.6223H71.0176C70.255 52.6223 69.6367 53.2406 69.6367 54.0032V54.8566C69.6367 55.6193 70.255 56.2375 71.0176 56.2375H148.83C149.593 56.2375 150.211 55.6193 150.211 54.8566V54.0032C150.211 53.2406 149.593 52.6223 148.83 52.6223Z" fill="#223A74"/>
<path d="M56.812 49.7596L52.0176 54.5541H53.4218V58.8752H60.2022V54.5541H61.5986L56.812 49.7596Z" fill="#223A74"/>
<path d="M103.701 85.0661H73.228C73.0358 85.0671 72.8453 85.0302 72.6674 84.9573C72.4896 84.8845 72.3279 84.7772 72.1916 84.6417C72.0554 84.5061 71.9473 84.345 71.8735 84.1675C71.7997 83.9901 71.7617 83.7998 71.7617 83.6076C71.7617 83.2187 71.9162 82.8458 72.1912 82.5708C72.4662 82.2958 72.8391 82.1414 73.228 82.1414H103.701C104.089 82.1434 104.46 82.2988 104.733 82.5735C105.006 82.8483 105.16 83.2201 105.16 83.6076C105.16 83.9944 105.006 84.3654 104.733 84.6389C104.459 84.9124 104.088 85.0661 103.701 85.0661Z" fill="#223A74"/>
<path d="M103.701 90.9155H73.228C73.0358 90.9165 72.8453 90.8795 72.6675 90.8067C72.4896 90.7339 72.3279 90.6266 72.1917 90.4911C72.0554 90.3555 71.9473 90.1944 71.8735 90.0169C71.7997 89.8395 71.7617 89.6492 71.7617 89.457C71.7607 89.2642 71.7979 89.073 71.8713 88.8947C71.9446 88.7163 72.0525 88.5543 72.1889 88.4179C72.3253 88.2815 72.4873 88.1736 72.6657 88.1003C72.844 88.0269 73.0352 87.9897 73.228 87.9907H103.701C103.893 87.9907 104.084 88.0287 104.261 88.1025C104.439 88.1763 104.6 88.2844 104.735 88.4207C104.871 88.5569 104.978 88.7186 105.051 88.8965C105.124 89.0743 105.161 89.2648 105.16 89.457C105.16 89.8438 105.006 90.2148 104.733 90.4883C104.459 90.7618 104.088 90.9155 103.701 90.9155Z" fill="#223A74"/>
<path d="M103.701 96.765H73.228C73.0358 96.766 72.8453 96.729 72.6675 96.6562C72.4896 96.5834 72.3279 96.4761 72.1917 96.3405C72.0554 96.205 71.9473 96.0439 71.8735 95.8664C71.7997 95.689 71.7617 95.4987 71.7617 95.3065C71.7607 95.1136 71.7979 94.9225 71.8713 94.7442C71.9446 94.5658 72.0525 94.4038 72.1889 94.2674C72.3253 94.131 72.4873 94.0231 72.6657 93.9497C72.844 93.8764 73.0352 93.8392 73.228 93.8402H103.701C103.893 93.8402 104.084 93.8782 104.261 93.952C104.439 94.0258 104.6 94.1339 104.735 94.2702C104.871 94.4064 104.978 94.5681 105.051 94.746C105.124 94.9238 105.161 95.1143 105.16 95.3065C105.16 95.6933 105.006 96.0643 104.733 96.3378C104.459 96.6113 104.088 96.765 103.701 96.765Z" fill="#223A74"/>
<path d="M103.701 102.614H73.228C72.8391 102.614 72.4662 102.46 72.1912 102.185C71.9162 101.91 71.7617 101.537 71.7617 101.148C71.7617 100.956 71.7997 100.766 71.8735 100.588C71.9473 100.411 72.0554 100.25 72.1916 100.114C72.3279 99.9786 72.4896 99.8713 72.6674 99.7985C72.8453 99.7257 73.0358 99.6887 73.228 99.6897H103.701C104.088 99.6897 104.459 99.8434 104.733 100.117C105.006 100.39 105.16 100.761 105.16 101.148C105.16 101.536 105.006 101.908 104.733 102.182C104.46 102.457 104.089 102.612 103.701 102.614Z" fill="#223A74"/>
<path d="M103.701 108.456H73.228C72.8391 108.456 72.4662 108.302 72.1912 108.027C71.9162 107.752 71.7617 107.379 71.7617 106.99C71.7617 106.798 71.7997 106.608 71.8735 106.43C71.9473 106.253 72.0554 106.091 72.1916 105.956C72.3279 105.82 72.4896 105.713 72.6674 105.64C72.8453 105.567 73.0358 105.53 73.228 105.532H103.701C104.088 105.532 104.459 105.685 104.733 105.959C105.006 106.232 105.16 106.603 105.16 106.99C105.16 107.378 105.006 107.749 104.733 108.024C104.46 108.299 104.089 108.454 103.701 108.456Z" fill="#223A74"/>
<path d="M103.701 114.314H73.228C72.8391 114.314 72.4662 114.159 72.1912 113.884C71.9162 113.609 71.7617 113.236 71.7617 112.847C71.7617 112.655 71.7997 112.465 71.8735 112.287C71.9473 112.11 72.0554 111.949 72.1916 111.813C72.3279 111.678 72.4896 111.57 72.6674 111.498C72.8453 111.425 73.0358 111.388 73.228 111.389H103.701C104.088 111.389 104.459 111.542 104.733 111.816C105.006 112.09 105.16 112.46 105.16 112.847C105.16 113.235 105.006 113.607 104.733 113.881C104.46 114.156 104.089 114.312 103.701 114.314Z" fill="#223A74"/>
<path d="M103.701 120.163H73.228C72.8391 120.163 72.4662 120.009 72.1912 119.734C71.9162 119.459 71.7617 119.086 71.7617 118.697C71.7617 118.505 71.7997 118.314 71.8735 118.137C71.9473 117.959 72.0554 117.798 72.1916 117.663C72.3279 117.527 72.4896 117.42 72.6674 117.347C72.8453 117.274 73.0358 117.237 73.228 117.238H103.701C104.088 117.238 104.459 117.392 104.733 117.665C105.006 117.939 105.16 118.31 105.16 118.697C105.16 119.084 105.006 119.456 104.733 119.731C104.46 120.006 104.089 120.161 103.701 120.163Z" fill="#223A74"/>
<path d="M103.701 126.012H73.228C72.8391 126.012 72.4662 125.858 72.1912 125.583C71.9162 125.308 71.7617 124.935 71.7617 124.546C71.7617 124.354 71.7997 124.164 71.8735 123.986C71.9473 123.809 72.0554 123.648 72.1916 123.512C72.3279 123.377 72.4896 123.269 72.6674 123.196C72.8453 123.124 73.0358 123.087 73.228 123.088H103.701C104.088 123.088 104.459 123.241 104.733 123.515C105.006 123.788 105.16 124.159 105.16 124.546C105.16 124.934 105.006 125.305 104.733 125.58C104.46 125.855 104.089 126.01 103.701 126.012Z" fill="#223A74"/>
<g opacity="0.5">
<path d="M103.703 85.0661H73.2299C73.0377 85.0671 72.8472 85.0302 72.6694 84.9573C72.4915 84.8845 72.3298 84.7772 72.1936 84.6417C72.0573 84.5061 71.9492 84.345 71.8754 84.1675C71.8017 83.9901 71.7637 83.7998 71.7637 83.6076C71.7637 83.2187 71.9182 82.8458 72.1931 82.5708C72.4681 82.2958 72.841 82.1414 73.2299 82.1414H103.703C104.091 82.1434 104.462 82.2988 104.735 82.5735C105.008 82.8483 105.162 83.2201 105.162 83.6076C105.162 83.9944 105.008 84.3654 104.734 84.6389C104.461 84.9124 104.09 85.0661 103.703 85.0661Z" fill="white"/>
<path d="M103.703 90.9155H73.2299C73.0378 90.9165 72.8473 90.8795 72.6694 90.8067C72.4916 90.7339 72.3299 90.6266 72.1936 90.4911C72.0574 90.3555 71.9492 90.1944 71.8755 90.0169C71.8017 89.8395 71.7637 89.6492 71.7637 89.457C71.7627 89.2642 71.7999 89.073 71.8732 88.8947C71.9465 88.7163 72.0545 88.5543 72.1909 88.4179C72.3272 88.2815 72.4893 88.1736 72.6676 88.1003C72.846 88.0269 73.0371 87.9897 73.2299 87.9907H103.703C103.895 87.9907 104.086 88.0287 104.263 88.1025C104.441 88.1763 104.602 88.2844 104.737 88.4207C104.873 88.5569 104.98 88.7186 105.053 88.8965C105.126 89.0743 105.163 89.2648 105.162 89.457C105.162 89.8438 105.008 90.2148 104.734 90.4883C104.461 90.7618 104.09 90.9155 103.703 90.9155Z" fill="white"/>
<path d="M103.703 96.7651H73.2299C73.0378 96.7661 72.8473 96.7292 72.6694 96.6563C72.4916 96.5835 72.3299 96.4762 72.1936 96.3407C72.0574 96.2051 71.9492 96.044 71.8755 95.8665C71.8017 95.6891 71.7637 95.4988 71.7637 95.3066C71.7627 95.1138 71.7999 94.9226 71.8732 94.7443C71.9465 94.5659 72.0545 94.4039 72.1909 94.2675C72.3272 94.1312 72.4893 94.0232 72.6676 93.9499C72.846 93.8765 73.0371 93.8393 73.2299 93.8404H103.703C103.895 93.8404 104.086 93.8783 104.263 93.9521C104.441 94.0259 104.602 94.134 104.737 94.2703C104.873 94.4065 104.98 94.5682 105.053 94.7461C105.126 94.9239 105.163 95.1144 105.162 95.3066C105.162 95.6934 105.008 96.0644 104.734 96.3379C104.461 96.6114 104.09 96.7651 103.703 96.7651Z" fill="white"/>
<path d="M103.703 102.615H73.2299C72.841 102.615 72.4681 102.46 72.1931 102.185C71.9182 101.91 71.7637 101.537 71.7637 101.148C71.7637 100.956 71.8017 100.766 71.8754 100.588C71.9492 100.411 72.0573 100.25 72.1936 100.114C72.3298 99.9787 72.4915 99.8715 72.6694 99.7986C72.8472 99.7258 73.0377 99.6888 73.2299 99.6898H103.703C104.09 99.6898 104.461 99.8435 104.734 100.117C105.008 100.391 105.162 100.762 105.162 101.148C105.162 101.536 105.008 101.908 104.735 102.182C104.462 102.457 104.091 102.613 103.703 102.615Z" fill="white"/>
<path d="M103.703 108.456H73.2299C72.841 108.456 72.4681 108.302 72.1931 108.027C71.9182 107.752 71.7637 107.379 71.7637 106.99C71.7637 106.798 71.8017 106.608 71.8754 106.43C71.9492 106.253 72.0573 106.091 72.1936 105.956C72.3298 105.82 72.4915 105.713 72.6694 105.64C72.8472 105.567 73.0377 105.53 73.2299 105.532H103.703C104.09 105.532 104.461 105.685 104.734 105.959C105.008 106.232 105.162 106.603 105.162 106.99C105.162 107.378 105.008 107.749 104.735 108.024C104.462 108.299 104.091 108.454 103.703 108.456Z" fill="white"/>
<path d="M103.703 114.314H73.2299C72.841 114.314 72.4681 114.159 72.1931 113.884C71.9182 113.609 71.7637 113.236 71.7637 112.847C71.7637 112.655 71.8017 112.465 71.8754 112.287C71.9492 112.11 72.0573 111.949 72.1936 111.813C72.3298 111.678 72.4915 111.57 72.6694 111.498C72.8472 111.425 73.0377 111.388 73.2299 111.389H103.703C104.09 111.389 104.461 111.542 104.734 111.816C105.008 112.09 105.162 112.46 105.162 112.847C105.162 113.235 105.008 113.607 104.735 113.881C104.462 114.156 104.091 114.312 103.703 114.314Z" fill="white"/>
<path d="M103.703 120.163H73.2299C72.841 120.163 72.4681 120.009 72.1931 119.734C71.9182 119.459 71.7637 119.086 71.7637 118.697C71.7637 118.505 71.8017 118.314 71.8754 118.137C71.9492 117.959 72.0573 117.798 72.1936 117.663C72.3298 117.527 72.4915 117.42 72.6694 117.347C72.8472 117.274 73.0377 117.237 73.2299 117.238H103.703C104.09 117.238 104.461 117.392 104.734 117.665C105.008 117.939 105.162 118.31 105.162 118.697C105.162 119.084 105.008 119.456 104.735 119.731C104.462 120.006 104.091 120.161 103.703 120.163Z" fill="white"/>
<path d="M103.703 126.013H73.2299C72.841 126.013 72.4681 125.858 72.1931 125.583C71.9182 125.308 71.7637 124.935 71.7637 124.546C71.7637 124.354 71.8017 124.164 71.8754 123.986C71.9492 123.809 72.0573 123.648 72.1936 123.512C72.3298 123.377 72.4915 123.269 72.6694 123.197C72.8472 123.124 73.0377 123.087 73.2299 123.088H103.703C104.09 123.088 104.461 123.241 104.734 123.515C105.008 123.789 105.162 124.159 105.162 124.546C105.162 124.934 105.008 125.306 104.735 125.58C104.462 125.855 104.091 126.011 103.703 126.013Z" fill="white"/>
</g>
<path d="M149.388 134.182H50.125V165.694H149.388V134.182Z" fill="#223A74"/>
<g opacity="0.7">
<path d="M149.388 134.182H50.125V165.694H149.388V134.182Z" fill="white"/>
</g>
<path d="M72.6853 137.13H55.4316V154.383H72.6853V137.13Z" fill="#223A74"/>
<path d="M71.7461 155.741H56.1992V156.951H71.7461V155.741Z" fill="#223A74"/>
<path opacity="0.2" d="M71.7461 155.741H56.1992V156.951H71.7461V155.741Z" fill="white"/>
<path d="M71.7461 157.432H56.1992V158.642H71.7461V157.432Z" fill="#223A74"/>
<path opacity="0.2" d="M71.7461 157.432H56.1992V158.642H71.7461V157.432Z" fill="white"/>
<path d="M63.771 161.699H56.1992V162.909H63.771V161.699Z" fill="#223A74"/>
<path opacity="0.2" d="M63.771 161.699H56.1992V162.909H63.771V161.699Z" fill="white"/>
<path d="M61.3815 159.457H56.1992V161.109H61.3815V159.457Z" fill="#223A74"/>
<path opacity="0.2" d="M61.3815 159.457H56.1992V161.109H61.3815V159.457Z" fill="white"/>
<path d="M143.539 137.13H126.285V154.383H143.539V137.13Z" fill="#223A74"/>
<path d="M142.607 155.741H127.061V156.951H142.607V155.741Z" fill="#223A74"/>
<path opacity="0.2" d="M142.607 155.741H127.061V156.951H142.607V155.741Z" fill="white"/>
<path d="M142.607 157.432H127.061V158.642H142.607V157.432Z" fill="#223A74"/>
<path opacity="0.2" d="M142.607 157.432H127.061V158.642H142.607V157.432Z" fill="white"/>
<path d="M134.632 161.699H127.061V162.909H134.632V161.699Z" fill="#223A74"/>
<path opacity="0.2" d="M134.632 161.699H127.061V162.909H134.632V161.699Z" fill="white"/>
<path d="M132.243 159.457H127.061V161.109H132.243V159.457Z" fill="#223A74"/>
<path opacity="0.2" d="M132.243 159.457H127.061V161.109H132.243V159.457Z" fill="white"/>
<path d="M97.0838 137.13H79.8301V154.383H97.0838V137.13Z" fill="#223A74"/>
<path d="M96.1524 155.741H80.6055V156.951H96.1524V155.741Z" fill="#223A74"/>
<path opacity="0.2" d="M96.1524 155.741H80.6055V156.951H96.1524V155.741Z" fill="white"/>
<path d="M96.1524 157.432H80.6055V158.642H96.1524V157.432Z" fill="#223A74"/>
<path opacity="0.2" d="M96.1524 157.432H80.6055V158.642H96.1524V157.432Z" fill="white"/>
<path d="M88.1772 161.699H80.6055V162.909H88.1772V161.699Z" fill="#223A74"/>
<path opacity="0.2" d="M88.1772 161.699H80.6055V162.909H88.1772V161.699Z" fill="white"/>
<path d="M85.7878 159.457H80.6055V161.109H85.7878V159.457Z" fill="#223A74"/>
<path opacity="0.2" d="M85.7878 159.457H80.6055V161.109H85.7878V159.457Z" fill="white"/>
<path d="M120.312 137.13H103.059V154.383H120.312V137.13Z" fill="#223A74"/>
<path d="M119.381 155.741H103.834V156.951H119.381V155.741Z" fill="#223A74"/>
<path opacity="0.2" d="M119.381 155.741H103.834V156.951H119.381V155.741Z" fill="white"/>
<path d="M119.381 157.432H103.834V158.642H119.381V157.432Z" fill="#223A74"/>
<path opacity="0.2" d="M119.381 157.432H103.834V158.642H119.381V157.432Z" fill="white"/>
<path d="M111.406 161.699H103.834V162.909H111.406V161.699Z" fill="#223A74"/>
<path opacity="0.2" d="M111.406 161.699H103.834V162.909H111.406V161.699Z" fill="white"/>
<path d="M109.016 159.457H103.834V161.109H109.016V159.457Z" fill="#223A74"/>
<path opacity="0.2" d="M109.016 159.457H103.834V161.109H109.016V159.457Z" fill="white"/>
<path d="M252.917 134.182H153.654V165.694H252.917V134.182Z" fill="#223A74"/>
<g opacity="0.7">
<path d="M252.917 134.182H153.654V165.694H252.917V134.182Z" fill="white"/>
</g>
<path d="M176.478 137.13H159.225V154.383H176.478V137.13Z" fill="#223A74"/>
<path d="M175.547 155.741H160V156.951H175.547V155.741Z" fill="#223A74"/>
<path opacity="0.2" d="M175.547 155.741H160V156.951H175.547V155.741Z" fill="white"/>
<path d="M175.547 157.432H160V158.642H175.547V157.432Z" fill="#223A74"/>
<path opacity="0.2" d="M175.547 157.432H160V158.642H175.547V157.432Z" fill="white"/>
<path d="M167.572 161.699H160V162.909H167.572V161.699Z" fill="#223A74"/>
<path opacity="0.2" d="M167.572 161.699H160V162.909H167.572V161.699Z" fill="white"/>
<path d="M165.182 159.457H160V161.109H165.182V159.457Z" fill="#223A74"/>
<path opacity="0.2" d="M165.182 159.457H160V161.109H165.182V159.457Z" fill="white"/>
<path d="M247.34 137.13H230.086V154.383H247.34V137.13Z" fill="#223A74"/>
<path d="M246.4 155.741H230.854V156.951H246.4V155.741Z" fill="#223A74"/>
<path opacity="0.2" d="M246.4 155.741H230.854V156.951H246.4V155.741Z" fill="white"/>
<path d="M246.4 157.432H230.854V158.642H246.4V157.432Z" fill="#223A74"/>
<path opacity="0.2" d="M246.4 157.432H230.854V158.642H246.4V157.432Z" fill="white"/>
<path d="M238.425 161.699H230.854V162.909H238.425V161.699Z" fill="#223A74"/>
<path opacity="0.2" d="M238.425 161.699H230.854V162.909H238.425V161.699Z" fill="white"/>
<path d="M236.036 159.457H230.854V161.109H236.036V159.457Z" fill="#223A74"/>
<path opacity="0.2" d="M236.036 159.457H230.854V161.109H236.036V159.457Z" fill="white"/>
<path d="M200.885 137.13H183.631V154.383H200.885V137.13Z" fill="#223A74"/>
<path d="M199.953 155.741H184.406V156.951H199.953V155.741Z" fill="#223A74"/>
<path opacity="0.2" d="M199.953 155.741H184.406V156.951H199.953V155.741Z" fill="white"/>
<path d="M199.953 157.432H184.406V158.642H199.953V157.432Z" fill="#223A74"/>
<path opacity="0.2" d="M199.953 157.432H184.406V158.642H199.953V157.432Z" fill="white"/>
<path d="M191.978 161.699H184.406V162.909H191.978V161.699Z" fill="#223A74"/>
<path opacity="0.2" d="M191.978 161.699H184.406V162.909H191.978V161.699Z" fill="white"/>
<path d="M189.589 159.457H184.406V161.109H189.589V159.457Z" fill="#223A74"/>
<path opacity="0.2" d="M189.589 159.457H184.406V161.109H189.589V159.457Z" fill="white"/>
<path d="M224.111 137.13H206.857V154.383H224.111V137.13Z" fill="#223A74"/>
<path d="M223.174 155.741H207.627V156.951H223.174V155.741Z" fill="#223A74"/>
<path opacity="0.2" d="M223.174 155.741H207.627V156.951H223.174V155.741Z" fill="white"/>
<path d="M223.174 157.432H207.627V158.642H223.174V157.432Z" fill="#223A74"/>
<path opacity="0.2" d="M223.174 157.432H207.627V158.642H223.174V157.432Z" fill="white"/>
<path d="M215.199 161.699H207.627V162.909H215.199V161.699Z" fill="#223A74"/>
<path opacity="0.2" d="M215.199 161.699H207.627V162.909H215.199V161.699Z" fill="white"/>
<path d="M212.809 159.457H207.627V161.109H212.809V159.457Z" fill="#223A74"/>
<path opacity="0.2" d="M212.809 159.457H207.627V161.109H212.809V159.457Z" fill="white"/>
<path d="M220.979 120.807C238.314 120.807 252.367 118.949 252.367 116.656C252.367 114.364 238.314 112.506 220.979 112.506C203.643 112.506 189.59 114.364 189.59 116.656C189.59 118.949 203.643 120.807 220.979 120.807Z" fill="#223A74"/>
<path opacity="0.1" d="M220.979 120.807C238.314 120.807 252.367 118.949 252.367 116.656C252.367 114.364 238.314 112.506 220.979 112.506C203.643 112.506 189.59 114.364 189.59 116.656C189.59 118.949 203.643 120.807 220.979 120.807Z" fill="black"/>
<path d="M224.12 114.973L220.76 107.541H212.925L214.127 114.523C214.145 114.614 214.142 114.707 214.118 114.796C214.095 114.886 214.052 114.969 213.992 115.039C213.933 115.11 213.859 115.166 213.775 115.204C213.691 115.243 213.599 115.262 213.507 115.26H210.078C209.989 115.26 209.904 115.295 209.842 115.358C209.779 115.42 209.744 115.505 209.744 115.594V115.966C209.744 116.01 209.753 116.053 209.77 116.094C209.786 116.134 209.811 116.171 209.842 116.202C209.873 116.233 209.91 116.257 209.95 116.274C209.991 116.291 210.034 116.299 210.078 116.299H223.887C223.934 116.299 223.981 116.29 224.025 116.272C224.069 116.253 224.109 116.226 224.142 116.192C224.175 116.158 224.201 116.118 224.219 116.074C224.236 116.03 224.245 115.982 224.244 115.935V115.555C224.245 115.354 224.203 115.156 224.12 114.973Z" fill="#223A74"/>
<path opacity="0.2" d="M213.639 115.229H210.078C209.989 115.229 209.904 115.264 209.842 115.327C209.779 115.389 209.744 115.474 209.744 115.563V115.935C209.744 116.023 209.779 116.108 209.842 116.171C209.904 116.233 209.989 116.269 210.078 116.269H223.887C223.984 116.269 224.076 116.23 224.145 116.162C224.213 116.093 224.252 116.001 224.252 115.904V115.524C224.251 115.422 224.238 115.32 224.213 115.221L213.639 115.229Z" fill="white"/>
<path d="M224.569 114.973L221.21 107.541H220.768L224.119 114.973C224.196 115.149 224.236 115.339 224.235 115.531V115.912C224.236 115.959 224.228 116.006 224.21 116.051C224.193 116.095 224.167 116.135 224.134 116.169C224.1 116.203 224.061 116.23 224.017 116.248C223.973 116.267 223.926 116.276 223.879 116.276H224.321C224.369 116.276 224.416 116.267 224.46 116.248C224.504 116.23 224.545 116.203 224.579 116.169C224.612 116.136 224.639 116.095 224.658 116.051C224.676 116.007 224.685 115.959 224.685 115.912V115.531C224.685 115.339 224.646 115.149 224.569 114.973Z" fill="#223A74"/>
<g opacity="0.2">
<path d="M224.571 114.973L221.212 107.541H220.77L224.121 114.973C224.198 115.149 224.238 115.339 224.237 115.532V115.912C224.238 115.959 224.23 116.006 224.212 116.051C224.195 116.095 224.169 116.135 224.136 116.169C224.102 116.203 224.063 116.23 224.019 116.248C223.975 116.267 223.928 116.276 223.88 116.276H224.323C224.371 116.276 224.418 116.267 224.462 116.249C224.506 116.23 224.547 116.203 224.581 116.17C224.614 116.136 224.641 116.095 224.66 116.051C224.678 116.007 224.687 115.96 224.687 115.912V115.532C224.687 115.339 224.648 115.149 224.571 114.973Z" fill="black"/>
</g>
<path opacity="0.2" d="M220.769 107.541H212.926L213.236 109.317H221.576L220.769 107.541Z" fill="black"/>
<path d="M232.786 108.324H199.295C199.138 108.326 198.983 108.295 198.839 108.233C198.696 108.17 198.567 108.078 198.461 107.962C198.356 107.846 198.276 107.71 198.227 107.561C198.178 107.412 198.162 107.254 198.178 107.099L200.296 82.917C200.328 82.5856 200.481 82.2775 200.726 82.0515C200.97 81.8255 201.29 81.6973 201.623 81.6913H235.098C235.254 81.6892 235.41 81.7204 235.553 81.7828C235.696 81.8453 235.825 81.9376 235.93 82.0536C236.035 82.1695 236.114 82.3065 236.162 82.4554C236.209 82.6042 236.225 82.7616 236.207 82.917L234.097 107.099C234.062 107.426 233.91 107.73 233.67 107.955C233.429 108.18 233.115 108.311 232.786 108.324Z" fill="#263238"/>
<path d="M198.432 104.484L198.199 107.099C198.183 107.254 198.2 107.412 198.249 107.561C198.297 107.71 198.377 107.847 198.483 107.962C198.588 108.078 198.717 108.17 198.861 108.233C199.005 108.295 199.16 108.326 199.317 108.324H232.784C233.118 108.317 233.437 108.188 233.682 107.963C233.928 107.737 234.083 107.43 234.119 107.099L234.344 104.484H198.432Z" fill="#223A74"/>
<path d="M233.165 103.747H199.744C199.659 103.749 199.574 103.732 199.496 103.698C199.417 103.665 199.347 103.614 199.29 103.551C199.232 103.488 199.189 103.413 199.163 103.332C199.137 103.251 199.129 103.165 199.139 103.08L200.884 83.0955C200.909 82.9181 200.995 82.7547 201.126 82.6331C201.258 82.5115 201.427 82.4392 201.606 82.4283H235.027C235.113 82.4253 235.198 82.4411 235.277 82.4744C235.356 82.5078 235.427 82.558 235.485 82.6215C235.542 82.685 235.585 82.7603 235.611 82.8422C235.636 82.9241 235.644 83.0105 235.632 83.0955L233.887 103.08C233.862 103.257 233.777 103.421 233.645 103.542C233.514 103.664 233.344 103.736 233.165 103.747Z" fill="#223A74"/>
<path d="M233.165 103.747H199.744C199.659 103.749 199.574 103.732 199.496 103.698C199.417 103.665 199.347 103.614 199.29 103.551C199.232 103.488 199.189 103.413 199.163 103.332C199.137 103.251 199.129 103.165 199.139 103.08L200.884 83.0955C200.909 82.9181 200.995 82.7547 201.126 82.6331C201.258 82.5115 201.427 82.4392 201.606 82.4283H235.027C235.113 82.4253 235.198 82.4411 235.277 82.4744C235.356 82.5078 235.427 82.558 235.485 82.6215C235.542 82.685 235.585 82.7603 235.611 82.8422C235.636 82.9241 235.644 83.0105 235.632 83.0955L233.887 103.08C233.862 103.257 233.777 103.421 233.645 103.542C233.514 103.664 233.344 103.736 233.165 103.747Z" fill="#223A74"/>
<path d="M235.857 81.6913H235.12C235.277 81.6892 235.432 81.7205 235.575 81.7829C235.718 81.8454 235.847 81.9377 235.952 82.0536C236.057 82.1696 236.136 82.3066 236.184 82.4554C236.232 82.6043 236.247 82.7617 236.23 82.9171L234.12 107.099C234.084 107.43 233.929 107.737 233.683 107.963C233.438 108.188 233.118 108.317 232.785 108.324H233.561C233.893 108.317 234.212 108.188 234.456 107.962C234.7 107.737 234.854 107.429 234.888 107.099L237.005 82.9171C237.022 82.7586 237.005 82.5984 236.954 82.4473C236.904 82.2961 236.821 82.1577 236.712 82.0414C236.603 81.9251 236.47 81.8336 236.323 81.7732C236.175 81.7128 236.017 81.6849 235.857 81.6913Z" fill="#223A74"/>
<path opacity="0.2" d="M235.857 81.6913H235.12C235.277 81.6892 235.432 81.7205 235.575 81.7829C235.718 81.8454 235.847 81.9377 235.952 82.0536C236.057 82.1696 236.136 82.3066 236.184 82.4554C236.232 82.6043 236.247 82.7617 236.23 82.9171L234.12 107.099C234.084 107.43 233.929 107.737 233.683 107.963C233.438 108.188 233.118 108.317 232.785 108.324H233.561C233.893 108.317 234.212 108.188 234.456 107.962C234.7 107.737 234.854 107.429 234.888 107.099L237.005 82.9171C237.022 82.7586 237.005 82.5984 236.954 82.4473C236.904 82.2961 236.821 82.1577 236.712 82.0414C236.603 81.9251 236.47 81.8336 236.323 81.7732C236.175 81.7128 236.017 81.6849 235.857 81.6913Z" fill="#223A74"/>
<g opacity="0.3">
<path d="M234.584 82.4283H233.296L228.766 103.747H230.046L234.584 82.4283Z" fill="white"/>
<path d="M227.462 103.747L231.993 82.4283H227.167L222.637 103.747H227.462Z" fill="white"/>
</g>
<path opacity="0.6" d="M198.432 104.484L198.199 107.099C198.183 107.254 198.2 107.412 198.249 107.561C198.297 107.71 198.377 107.847 198.483 107.962C198.588 108.078 198.717 108.17 198.861 108.233C199.005 108.295 199.16 108.326 199.317 108.324H232.784C233.118 108.317 233.437 108.188 233.682 107.963C233.928 107.737 234.083 107.43 234.119 107.099L234.344 104.484H198.432Z" fill="white"/>
<path opacity="0.2" d="M235.857 81.7145H235.12C235.277 81.7124 235.432 81.7437 235.575 81.8061C235.718 81.8686 235.847 81.9609 235.952 82.0768C236.057 82.1928 236.136 82.3298 236.184 82.4786C236.232 82.6275 236.247 82.7849 236.23 82.9403L234.12 107.122C234.084 107.453 233.929 107.76 233.683 107.986C233.438 108.212 233.118 108.34 232.785 108.348H233.561C233.893 108.34 234.212 108.211 234.456 107.985C234.7 107.76 234.854 107.453 234.888 107.122L237.005 82.9403C237.022 82.7818 237.005 82.6216 236.954 82.4704C236.904 82.3193 236.821 82.1809 236.712 82.0646C236.603 81.9483 236.47 81.8568 236.323 81.7964C236.175 81.736 236.017 81.7081 235.857 81.7145Z" fill="white"/>
<path d="M218.939 115.105H239.443C239.577 115.107 239.71 115.08 239.833 115.027C239.955 114.974 240.066 114.895 240.156 114.796C240.246 114.697 240.314 114.58 240.356 114.453C240.397 114.325 240.412 114.191 240.397 114.057L239.117 99.426C239.087 99.1433 238.954 98.8815 238.744 98.69C238.534 98.4985 238.261 98.3905 237.977 98.3864H217.472C217.339 98.3847 217.207 98.4111 217.085 98.4639C216.963 98.5167 216.853 98.5947 216.763 98.6928C216.673 98.7909 216.604 98.9069 216.562 99.0333C216.52 99.1596 216.505 99.2935 216.518 99.426L217.798 114.057C217.827 114.342 217.959 114.605 218.169 114.798C218.379 114.991 218.653 115.101 218.939 115.105Z" fill="#263238"/>
<path opacity="0.4" d="M218.939 115.105H239.443C239.577 115.107 239.71 115.08 239.833 115.027C239.955 114.974 240.066 114.895 240.156 114.796C240.246 114.697 240.314 114.58 240.356 114.453C240.397 114.325 240.412 114.191 240.397 114.057L239.117 99.426C239.087 99.1433 238.954 98.8815 238.744 98.69C238.534 98.4985 238.261 98.3905 237.977 98.3864H217.472C217.339 98.3847 217.207 98.4111 217.085 98.4639C216.963 98.5167 216.853 98.5947 216.763 98.6928C216.673 98.7909 216.604 98.9069 216.562 99.0333C216.52 99.1596 216.505 99.2935 216.518 99.426L217.798 114.057C217.827 114.342 217.959 114.605 218.169 114.798C218.379 114.991 218.653 115.101 218.939 115.105Z" fill="white"/>
<path d="M219.31 115.105H239.814C239.948 115.107 240.081 115.08 240.204 115.027C240.327 114.974 240.437 114.895 240.527 114.796C240.617 114.697 240.685 114.58 240.727 114.453C240.768 114.325 240.783 114.191 240.768 114.057L239.488 99.426C239.458 99.1433 239.325 98.8815 239.115 98.69C238.905 98.4985 238.632 98.3905 238.348 98.3864H217.844C217.71 98.3847 217.578 98.4111 217.456 98.4639C217.334 98.5167 217.224 98.5947 217.134 98.6928C217.044 98.7909 216.976 98.9069 216.933 99.0333C216.891 99.1596 216.876 99.2935 216.889 99.426L218.169 114.057C218.198 114.342 218.33 114.605 218.54 114.798C218.75 114.991 219.024 115.101 219.31 115.105Z" fill="#263238"/>
<path opacity="0.7" d="M219.31 115.105H239.814C239.948 115.107 240.081 115.08 240.204 115.027C240.327 114.974 240.437 114.895 240.527 114.796C240.617 114.697 240.685 114.58 240.727 114.453C240.768 114.325 240.783 114.191 240.768 114.057L239.488 99.426C239.458 99.1433 239.325 98.8815 239.115 98.69C238.905 98.4985 238.632 98.3905 238.348 98.3864H217.844C217.71 98.3847 217.578 98.4111 217.456 98.4639C217.334 98.5167 217.224 98.5947 217.134 98.6928C217.044 98.7909 216.976 98.9069 216.933 99.0333C216.891 99.1596 216.876 99.2935 216.889 99.426L218.169 114.057C218.198 114.342 218.33 114.605 218.54 114.798C218.75 114.991 219.024 115.101 219.31 115.105Z" fill="white"/>
<path d="M218.999 114.065H239.938L238.657 99.426H217.719L218.999 114.065Z" fill="#223A74"/>
<path opacity="0.5" d="M218.999 114.065H239.938L238.657 99.426H217.719L218.999 114.065Z" fill="white"/>
<path d="M219.465 116.501H240.411C240.632 116.502 240.85 116.46 241.054 116.376C241.258 116.292 241.443 116.169 241.599 116.013C241.754 115.857 241.878 115.672 241.962 115.468C242.045 115.264 242.088 115.046 242.087 114.826H217.805C217.804 115.045 217.846 115.262 217.929 115.464C218.012 115.667 218.134 115.852 218.288 116.007C218.442 116.163 218.625 116.287 218.827 116.371C219.029 116.456 219.246 116.5 219.465 116.501Z" fill="#263238"/>
<path opacity="0.2" d="M219.465 116.501H240.411C240.632 116.502 240.85 116.46 241.054 116.376C241.258 116.292 241.443 116.169 241.599 116.013C241.754 115.857 241.878 115.672 241.962 115.468C242.045 115.264 242.088 115.046 242.087 114.826H217.805C217.804 115.045 217.846 115.262 217.929 115.464C218.012 115.667 218.134 115.852 218.288 116.007C218.442 116.163 218.625 116.287 218.827 116.371C219.029 116.456 219.246 116.5 219.465 116.501Z" fill="white"/>
<path d="M221.141 116.501H242.087C242.307 116.501 242.525 116.458 242.728 116.374C242.932 116.29 243.116 116.166 243.272 116.01C243.428 115.855 243.551 115.67 243.635 115.467C243.719 115.264 243.763 115.046 243.763 114.826H219.465C219.465 115.27 219.641 115.696 219.956 116.01C220.27 116.325 220.696 116.501 221.141 116.501Z" fill="#263238"/>
<path opacity="0.5" d="M221.141 116.501H242.087C242.307 116.501 242.525 116.458 242.728 116.374C242.932 116.29 243.116 116.166 243.272 116.01C243.428 115.855 243.551 115.67 243.635 115.467C243.719 115.264 243.763 115.046 243.763 114.826H219.465C219.465 115.27 219.641 115.696 219.956 116.01C220.27 116.325 220.696 116.501 221.141 116.501Z" fill="white"/>
<path opacity="0.3" d="M233.786 114.826C233.701 114.975 233.578 115.098 233.429 115.184C233.28 115.27 233.112 115.315 232.94 115.314H230.279C230.107 115.316 229.938 115.271 229.79 115.185C229.641 115.099 229.518 114.975 229.434 114.826H233.786Z" fill="black"/>
<path d="M211.652 97.9133H209.992L208.316 117.044H209.977C210.363 117.046 210.735 116.904 211.022 116.646C211.309 116.388 211.49 116.032 211.528 115.648L212.956 99.3097C212.976 99.1293 212.957 98.9467 212.9 98.7744C212.843 98.602 212.749 98.4441 212.626 98.3114C212.502 98.1787 212.351 98.0744 212.183 98.0056C212.015 97.9369 211.834 97.9054 211.652 97.9133Z" fill="#263238"/>
<path d="M209.636 117.044H202.802C202.623 117.048 202.445 117.013 202.281 116.942C202.117 116.871 201.97 116.766 201.849 116.634C201.729 116.502 201.638 116.346 201.583 116.176C201.528 116.005 201.509 115.826 201.529 115.648L202.957 99.3096C202.995 98.9322 203.169 98.5816 203.448 98.3243C203.727 98.067 204.09 97.9208 204.47 97.9132H211.312C211.49 97.9111 211.667 97.9468 211.831 98.018C211.995 98.0891 212.141 98.1941 212.261 98.326C212.382 98.4579 212.473 98.6137 212.528 98.7832C212.584 98.9528 212.603 99.1321 212.584 99.3096L211.149 115.648C211.111 116.025 210.936 116.376 210.658 116.633C210.379 116.89 210.016 117.037 209.636 117.044Z" fill="#223A74"/>
<path d="M211.282 98.2313H209.505C209.447 98.2318 209.391 98.252 209.346 98.2886C209.3 98.3253 209.269 98.3762 209.257 98.433V98.4951C209.224 98.632 209.147 98.7543 209.038 98.8427C208.928 98.9312 208.792 98.9808 208.652 98.9838H206.96C206.827 98.986 206.698 98.9362 206.601 98.8449C206.504 98.7536 206.447 98.6282 206.441 98.4951V98.433C206.439 98.3788 206.416 98.3275 206.377 98.2899C206.338 98.2523 206.285 98.2313 206.231 98.2313H204.455C204.161 98.2356 203.879 98.348 203.663 98.5469C203.447 98.7458 203.312 99.0174 203.283 99.3097L201.856 115.648C201.84 115.785 201.854 115.923 201.896 116.054C201.939 116.185 202.008 116.306 202.101 116.408C202.193 116.51 202.306 116.591 202.433 116.646C202.559 116.701 202.696 116.728 202.833 116.726H209.676C209.968 116.72 210.248 116.607 210.462 116.408C210.677 116.209 210.811 115.939 210.839 115.648L212.267 99.3097C212.284 99.1719 212.271 99.0322 212.228 98.9C212.186 98.7678 212.116 98.6464 212.022 98.5439C211.929 98.4415 211.814 98.3605 211.686 98.3066C211.558 98.2526 211.42 98.2269 211.282 98.2313Z" fill="#223A74"/>
<path opacity="0.7" d="M211.282 98.2313H209.505C209.447 98.2318 209.391 98.252 209.346 98.2886C209.3 98.3253 209.269 98.3762 209.257 98.433V98.4951C209.224 98.632 209.147 98.7543 209.038 98.8427C208.928 98.9312 208.792 98.9808 208.652 98.9838H206.96C206.827 98.986 206.698 98.9362 206.601 98.8449C206.504 98.7536 206.447 98.6282 206.441 98.4951V98.433C206.439 98.3788 206.416 98.3275 206.377 98.2899C206.338 98.2523 206.285 98.2313 206.231 98.2313H204.455C204.161 98.2356 203.879 98.348 203.663 98.5469C203.447 98.7458 203.312 99.0174 203.283 99.3097L201.856 115.648C201.84 115.785 201.854 115.923 201.896 116.054C201.939 116.185 202.008 116.306 202.101 116.408C202.193 116.51 202.306 116.591 202.433 116.646C202.559 116.701 202.696 116.728 202.833 116.726H209.676C209.968 116.72 210.248 116.607 210.462 116.408C210.677 116.209 210.811 115.939 210.839 115.648L212.267 99.3097C212.284 99.1719 212.271 99.0322 212.228 98.9C212.186 98.7678 212.116 98.6464 212.022 98.5439C211.929 98.4415 211.814 98.3605 211.686 98.3066C211.558 98.2526 211.42 98.2269 211.282 98.2313Z" fill="white"/>
<g opacity="0.2">
<path d="M207.433 98.4175C207.429 98.4538 207.412 98.4874 207.384 98.5118C207.357 98.5362 207.322 98.5496 207.285 98.5494C207.268 98.5507 207.251 98.5481 207.234 98.5418C207.218 98.5356 207.204 98.5257 207.192 98.5131C207.18 98.5004 207.171 98.4853 207.166 98.4687C207.16 98.4522 207.159 98.4347 207.161 98.4175C207.163 98.3797 207.18 98.3442 207.207 98.3182C207.234 98.2922 207.271 98.2778 207.309 98.2778C207.326 98.2777 207.344 98.2813 207.36 98.2885C207.376 98.2957 207.391 98.3063 207.402 98.3195C207.414 98.3327 207.423 98.3483 207.428 98.3652C207.433 98.3821 207.435 98.3999 207.433 98.4175Z" fill="black"/>
<path d="M208.411 98.2778H207.945C207.908 98.2778 207.871 98.2922 207.844 98.3182C207.816 98.3442 207.8 98.3797 207.798 98.4175C207.796 98.4347 207.797 98.4522 207.802 98.4687C207.808 98.4853 207.817 98.5004 207.828 98.5131C207.84 98.5257 207.855 98.5356 207.871 98.5418C207.887 98.5481 207.905 98.5507 207.922 98.5494H208.388C208.424 98.548 208.458 98.534 208.485 98.5099C208.512 98.4859 208.53 98.4532 208.535 98.4175C208.537 98.3999 208.536 98.3821 208.53 98.3652C208.525 98.3483 208.516 98.3327 208.505 98.3195C208.493 98.3063 208.478 98.2957 208.462 98.2885C208.446 98.2813 208.429 98.2777 208.411 98.2778Z" fill="black"/>
</g>
<path d="M204.051 98.9838H204.19L204.206 98.8364H204.059L204.051 98.9838Z" fill="#223A74"/>
<path d="M204.344 98.8364L204.336 98.9838H204.483L204.491 98.8364L204.507 98.6968H204.359L204.344 98.8364Z" fill="#223A74"/>
<path d="M204.664 98.5493L204.648 98.6967L204.641 98.8364L204.625 98.9838H204.772L204.78 98.8364L204.796 98.6967L204.803 98.5493H204.664Z" fill="#223A74"/>
<path d="M210.847 98.557V98.6656H210.777V98.8751H210.847V98.9837H211.483V98.557H210.847ZM211.103 98.8751H210.886V98.6656H211.095L211.103 98.8751Z" fill="#223A74"/>
<g opacity="0.4">
<path d="M206.959 98.9838L202.234 116.54C202.407 116.662 202.613 116.727 202.824 116.726H203.173L207.944 98.9838H206.959Z" fill="white"/>
<path d="M211.28 98.2312H209.504C209.445 98.2317 209.389 98.2519 209.344 98.2885C209.299 98.3252 209.268 98.3761 209.255 98.4329V98.495C209.224 98.6282 209.15 98.7477 209.045 98.8358C208.941 98.9238 208.81 98.9757 208.673 98.9837L203.902 116.726H207.541L212.258 99.1467C212.246 98.897 212.137 98.6618 211.954 98.4909C211.772 98.32 211.53 98.2269 211.28 98.2312Z" fill="white"/>
</g>
<g opacity="0.2">
<path d="M222.504 3.58417H109.789V71.1326H222.504V3.58417Z" fill="black"/>
</g>
<path d="M219.332 0H106.617V67.5485H219.332V0Z" fill="#223A74"/>
<g opacity="0.5">
<path d="M219.332 0H106.617V67.5485H219.332V0Z" fill="white"/>
</g>
<path d="M219.332 0H106.609V4.52289H219.332V0Z" fill="#223A74"/>
<path d="M217.866 2.24209C217.864 2.50721 217.784 2.76592 217.636 2.98561C217.488 3.2053 217.277 3.37612 217.032 3.47652C216.787 3.57691 216.517 3.60238 216.257 3.54972C215.997 3.49706 215.759 3.36863 215.572 3.18063C215.385 2.99262 215.258 2.75347 215.207 2.49334C215.156 2.2332 215.183 1.96375 215.285 1.71896C215.386 1.47417 215.558 1.26501 215.779 1.11787C215.999 0.970739 216.259 0.892216 216.524 0.892212C216.88 0.894262 217.222 1.03739 217.473 1.29032C217.725 1.54325 217.866 1.88542 217.866 2.24209Z" fill="white"/>
<path d="M143.794 14.5306L151.164 6.19861L155.004 17.4709L165.912 14.3134L163.732 25.5081L175.245 28.3631L167.626 36.4779L176.664 44.6005L165.648 47.4554L169.791 58.6501L158.332 55.4849L156.463 66.7649L147.634 58.4251L140.256 66.7649L136.416 55.4849L125.508 58.6501L127.688 47.4554L116.176 44.6005L123.794 36.4779L114.756 28.3631L125.772 25.5081L121.629 14.3134L133.088 17.4709L134.958 6.19861L143.794 14.5306Z" fill="#F5F5F5"/>
<path d="M123.219 37.626L139.014 54.9263C147.067 42.211 163.785 49.8526 167.943 34.8099L151.877 18.076C150.822 30.8223 128.696 27.5407 123.219 37.626Z" fill="#223A74"/>
<path opacity="0.4" d="M123.219 37.626L139.014 54.9263C147.067 42.211 163.785 49.8526 167.943 34.8099L151.877 18.076C150.822 30.8223 128.696 27.5407 123.219 37.626Z" fill="white"/>
<path d="M142.102 34.6781C142.299 34.7091 142.486 34.7874 142.647 34.9063C142.808 35.0251 142.937 35.1811 143.025 35.3608C143.163 35.6101 143.235 35.8905 143.234 36.1754C143.22 36.4847 143.124 36.7847 142.955 37.0443C142.741 37.3601 142.461 37.6249 142.133 37.8201C141.855 38.0008 141.555 38.1442 141.241 38.2468C140.959 38.3434 140.661 38.3829 140.364 38.3631L140.317 37.3856C140.547 37.4065 140.778 37.3854 141 37.3236C141.234 37.2565 141.456 37.1545 141.66 37.021C141.861 36.9005 142.025 36.7258 142.133 36.5167C142.175 36.4352 142.197 36.3447 142.197 36.253C142.197 36.1612 142.175 36.0707 142.133 35.9892C142.093 35.9076 142.032 35.8388 141.955 35.7908C141.878 35.7427 141.789 35.7174 141.698 35.7177C141.415 35.7587 141.147 35.8738 140.923 36.0512L139.899 36.7184L138.797 34.2359L141.233 32.6378L141.667 33.4136L139.999 34.5074L140.379 35.3375L140.705 35.1281C141.106 34.8235 141.599 34.6648 142.102 34.6781Z" fill="#223A74"/>
<path d="M144.855 35.7021C144.489 35.6957 144.134 35.5765 143.839 35.3607C143.476 35.0886 143.179 34.7387 142.97 34.3367C142.736 33.938 142.59 33.4934 142.543 33.0333C142.506 32.6427 142.573 32.2492 142.737 31.8929C142.909 31.5461 143.179 31.2574 143.513 31.0628C143.814 30.8534 144.171 30.7398 144.537 30.737C144.907 30.7414 145.266 30.8637 145.561 31.0861C145.923 31.3539 146.217 31.7017 146.422 32.1024C146.66 32.4996 146.806 32.9449 146.849 33.4057C146.893 33.7894 146.829 34.1777 146.664 34.5271C146.5 34.8765 146.242 35.1732 145.918 35.384C145.606 35.5998 145.234 35.7111 144.855 35.7021ZM145.817 33.8635C145.809 33.4523 145.685 33.0516 145.46 32.7075C145.292 32.346 145.023 32.0414 144.684 31.8309C144.562 31.7697 144.427 31.7418 144.29 31.75C144.154 31.7582 144.022 31.8021 143.909 31.8774C143.791 31.9522 143.695 32.0554 143.629 32.1775C143.562 32.2996 143.528 32.4366 143.529 32.5756C143.536 32.9868 143.66 33.3874 143.885 33.7316C144.053 34.093 144.323 34.3977 144.661 34.6082C144.781 34.6762 144.918 34.7081 145.056 34.6998C145.194 34.6915 145.326 34.6436 145.437 34.5617C145.555 34.4874 145.651 34.3843 145.718 34.2621C145.785 34.1398 145.819 34.0026 145.817 33.8635Z" fill="#223A74"/>
<path d="M146.973 31.5283C146.806 31.4765 146.651 31.3913 146.518 31.278C146.385 31.1646 146.276 31.0255 146.198 30.8689C146.012 30.5618 145.944 30.1984 146.004 29.8448C146.037 29.6856 146.103 29.5349 146.196 29.4016C146.289 29.2683 146.409 29.1552 146.547 29.069C146.673 28.976 146.82 28.9135 146.974 28.8866C147.129 28.8597 147.288 28.869 147.439 28.9139C147.606 28.9649 147.762 29.0497 147.895 29.1631C148.029 29.2765 148.137 29.4162 148.215 29.5733C148.403 29.8764 148.472 30.2385 148.409 30.5896C148.377 30.7486 148.313 30.8995 148.221 31.0329C148.129 31.1663 148.011 31.2795 147.873 31.3654C147.745 31.4578 147.597 31.5204 147.442 31.5486C147.286 31.5768 147.126 31.5698 146.973 31.5283ZM147.803 30.512C147.8 30.3122 147.743 30.1169 147.641 29.9457C147.556 29.7705 147.421 29.6247 147.253 29.5267C147.192 29.4889 147.122 29.4688 147.051 29.4688C146.98 29.4688 146.91 29.4889 146.849 29.5267C146.788 29.5657 146.737 29.6196 146.702 29.6833C146.667 29.747 146.648 29.8186 146.647 29.8914C146.642 30.0913 146.696 30.2885 146.803 30.4577C146.885 30.6342 147.021 30.7806 147.191 30.8766C147.252 30.9106 147.322 30.9284 147.392 30.9284C147.463 30.9284 147.532 30.9106 147.594 30.8766C147.654 30.8357 147.704 30.7816 147.741 30.7184C147.777 30.6552 147.798 30.5847 147.803 30.512ZM148.983 27.5562L149.665 27.114L149.262 33.0799L148.587 33.5221L148.983 27.5562ZM151.085 31.761C150.878 31.7683 150.674 31.7085 150.503 31.5904C150.31 31.4539 150.153 31.273 150.045 31.0628C149.921 30.8524 149.847 30.6162 149.828 30.3724C149.813 30.1531 149.856 29.9336 149.952 29.7362C150.056 29.5454 150.206 29.383 150.387 29.263C150.515 29.173 150.661 29.1124 150.816 29.0856C150.97 29.0588 151.128 29.0664 151.279 29.1078C151.446 29.1596 151.601 29.2448 151.734 29.3581C151.868 29.4715 151.977 29.6106 152.055 29.7672C152.241 30.0738 152.308 30.4387 152.241 30.7913C152.21 30.9506 152.147 31.1019 152.055 31.2354C151.963 31.3689 151.844 31.4819 151.706 31.5671C151.523 31.6936 151.307 31.7613 151.085 31.761ZM151.613 30.7137C151.611 30.5136 151.555 30.3177 151.45 30.1474C151.367 29.9708 151.231 29.8244 151.062 29.7285C151.001 29.6923 150.931 29.6732 150.86 29.6732C150.789 29.6732 150.719 29.6923 150.658 29.7285C150.598 29.7694 150.548 29.8235 150.512 29.8867C150.475 29.9498 150.454 30.0204 150.449 30.0931C150.444 30.2966 150.5 30.4968 150.612 30.6672C150.697 30.8423 150.832 30.9882 151 31.0861C151.059 31.1224 151.128 31.1416 151.198 31.1416C151.267 31.1416 151.336 31.1224 151.395 31.0861C151.459 31.0466 151.513 30.992 151.551 30.9271C151.588 30.8621 151.61 30.7888 151.613 30.7137Z" fill="#223A74"/>
<path d="M145.206 43.8634C144.785 43.8957 144.364 43.804 143.995 43.5997C143.614 43.3828 143.302 43.0628 143.095 42.6765C142.872 42.2842 142.754 41.8403 142.754 41.3886C142.754 40.937 142.872 40.4931 143.095 40.1008C143.329 39.6894 143.659 39.3407 144.057 39.0845C144.439 38.8274 144.879 38.6725 145.337 38.6346C145.758 38.6032 146.178 38.6948 146.548 38.8983C146.931 39.1117 147.244 39.4326 147.448 39.8215C147.675 40.212 147.79 40.6576 147.781 41.1094C147.775 41.5611 147.655 42.004 147.432 42.3972C147.196 42.8047 146.866 43.1503 146.47 43.4057C146.094 43.6625 145.659 43.82 145.206 43.8634ZM146.571 41.9938C146.697 41.7551 146.758 41.4877 146.749 41.218C146.74 40.9457 146.666 40.6796 146.532 40.4422C146.403 40.2033 146.213 40.0027 145.981 39.8603C145.767 39.7304 145.519 39.6657 145.268 39.6741C145.007 39.6893 144.754 39.7751 144.538 39.9224C144.308 40.0688 144.118 40.2718 143.988 40.512C143.862 40.7507 143.8 41.0181 143.809 41.2878C143.817 41.5602 143.892 41.8265 144.026 42.0636C144.157 42.3034 144.347 42.5062 144.577 42.6532C144.793 42.7808 145.041 42.8428 145.291 42.8316C145.553 42.8202 145.806 42.734 146.02 42.5834C146.24 42.4329 146.418 42.2303 146.54 41.9938H146.571Z" fill="#223A74"/>
<path d="M148.356 37.4476L148.969 38.5493L150.823 37.339L151.249 38.1148L149.403 39.3173L150.249 40.8689L149.325 41.4663L146.998 37.2925L150.016 35.3142L150.45 36.09L148.356 37.4476Z" fill="#223A74"/>
<path d="M151.971 35.0659L152.584 36.1676L154.438 34.9573L154.865 35.7331L153.018 36.9433L153.864 38.4949L152.941 39.1001L150.613 34.9185L153.631 32.948L154.066 33.7238L151.971 35.0659Z" fill="#223A74"/>
<path d="M182.434 30.8766H179.952L179.517 32.017H177.283L180.13 25.5004H182.295L185.142 32.017H182.869L182.434 30.8766ZM181.829 29.325L181.193 27.6881L180.557 29.325H181.829Z" fill="#223A74"/>
<path d="M191.016 25.0659V31.9783H189.014V31.5593C188.833 31.7409 188.614 31.8808 188.372 31.9692C188.131 32.0577 187.874 32.0925 187.618 32.0713C187.185 32.0758 186.759 31.9632 186.384 31.7455C186.004 31.5299 185.695 31.2094 185.492 30.8223C185.274 30.3892 185.16 29.9109 185.16 29.4259C185.16 28.9409 185.274 28.4626 185.492 28.0295C185.698 27.647 186.007 27.3299 186.384 27.114C186.759 26.8963 187.185 26.7838 187.618 26.7882C187.852 26.7721 188.088 26.8029 188.31 26.8789C188.533 26.9548 188.738 27.0743 188.913 27.2304V25.0659H191.016ZM188.688 30.1629C188.864 29.9444 188.947 29.6661 188.921 29.3871C188.939 29.1209 188.856 28.8579 188.688 28.6501C188.616 28.5622 188.524 28.4915 188.421 28.443C188.318 28.3945 188.205 28.3693 188.091 28.3693C187.977 28.3693 187.864 28.3945 187.761 28.443C187.658 28.4915 187.566 28.5622 187.494 28.6501C187.326 28.8579 187.243 29.1209 187.261 29.3871C187.235 29.6661 187.318 29.9444 187.494 30.1629C187.566 30.2507 187.658 30.3215 187.761 30.37C187.864 30.4185 187.977 30.4437 188.091 30.4437C188.205 30.4437 188.318 30.4185 188.421 30.37C188.524 30.3215 188.616 30.2507 188.688 30.1629Z" fill="#223A74"/>
<path d="M197.58 25.0659V31.9783H195.579V31.5593C195.397 31.7409 195.178 31.8808 194.937 31.9692C194.696 32.0577 194.438 32.0925 194.182 32.0713C193.749 32.0758 193.323 31.9632 192.949 31.7455C192.569 31.5299 192.259 31.2094 192.057 30.8223C191.838 30.3892 191.725 29.9109 191.725 29.4259C191.725 28.9409 191.838 28.4626 192.057 28.0295C192.263 27.647 192.572 27.3299 192.949 27.114C193.323 26.8963 193.749 26.7838 194.182 26.7882C194.417 26.7721 194.652 26.8029 194.875 26.8789C195.097 26.9548 195.302 27.0743 195.478 27.2304V25.0659H197.58ZM195.253 30.1629C195.428 29.9444 195.512 29.6661 195.486 29.3871C195.503 29.1209 195.42 28.8579 195.253 28.6501C195.18 28.5622 195.089 28.4915 194.985 28.443C194.882 28.3945 194.77 28.3693 194.655 28.3693C194.541 28.3693 194.429 28.3945 194.325 28.443C194.222 28.4915 194.131 28.5622 194.058 28.6501C193.891 28.8579 193.808 29.1209 193.825 29.3871C193.799 29.6661 193.883 29.9444 194.058 30.1629C194.131 30.2507 194.222 30.3215 194.325 30.37C194.429 30.4185 194.541 30.4437 194.655 30.4437C194.77 30.4437 194.882 30.4185 194.985 30.37C195.089 30.3215 195.18 30.2507 195.253 30.1629Z" fill="#223A74"/>
<path d="M170.31 42.8626C169.772 42.5894 169.323 42.1699 169.014 41.6524C168.704 41.1158 168.541 40.5071 168.541 39.8874C168.541 39.2678 168.704 38.6591 169.014 38.1225C169.323 37.605 169.772 37.1854 170.31 36.9123C170.886 36.618 171.525 36.4689 172.171 36.4778C172.756 36.4684 173.335 36.5848 173.87 36.8192C174.354 37.0304 174.776 37.3615 175.096 37.7812L173.692 39.0224C173.535 38.7891 173.324 38.5968 173.076 38.4619C172.829 38.3269 172.554 38.2531 172.272 38.2466C172.067 38.2374 171.861 38.272 171.67 38.3483C171.479 38.4245 171.306 38.5406 171.163 38.6888C170.892 39.0252 170.745 39.444 170.745 39.8758C170.745 40.3076 170.892 40.7264 171.163 41.0628C171.306 41.211 171.479 41.3271 171.67 41.4033C171.861 41.4796 172.067 41.5142 172.272 41.505C172.553 41.4973 172.829 41.4229 173.076 41.2881C173.322 41.1532 173.534 40.9616 173.692 40.7292L175.081 41.9705C174.758 42.3899 174.337 42.7231 173.855 42.9402C173.314 43.1757 172.73 43.2947 172.14 43.2893C171.505 43.2956 170.877 43.1493 170.31 42.8626Z" fill="#223A74"/>
<path d="M176.695 42.9015C176.263 42.6924 175.898 42.3674 175.64 41.9628C175.386 41.5525 175.252 41.0797 175.252 40.5974C175.252 40.1152 175.386 39.6424 175.64 39.232C175.895 38.8256 176.261 38.5 176.695 38.2933C177.173 38.0733 177.693 37.9594 178.219 37.9594C178.745 37.9594 179.265 38.0733 179.743 38.2933C180.182 38.5006 180.552 38.8308 180.807 39.244C181.061 39.6572 181.191 40.1354 181.179 40.6207C181.191 41.106 181.061 41.5842 180.807 41.9974C180.552 42.4106 180.182 42.7408 179.743 42.9481C179.267 43.1728 178.746 43.2892 178.219 43.2892C177.692 43.2892 177.171 43.1728 176.695 42.9481V42.9015ZM178.813 41.3499C178.964 41.1342 179.046 40.8768 179.046 40.6129C179.046 40.3491 178.964 40.0917 178.813 39.8759C178.74 39.7881 178.648 39.7174 178.545 39.6688C178.442 39.6203 178.329 39.5951 178.215 39.5951C178.101 39.5951 177.988 39.6203 177.885 39.6688C177.782 39.7174 177.691 39.7881 177.618 39.8759C177.466 40.0917 177.384 40.3491 177.384 40.6129C177.384 40.8768 177.466 41.1342 177.618 41.3499C177.691 41.4378 177.782 41.5085 177.885 41.5571C177.988 41.6056 178.101 41.6308 178.215 41.6308C178.329 41.6308 178.442 41.6056 178.545 41.5571C178.648 41.5085 178.74 41.4378 178.813 41.3499Z" fill="#223A74"/>
<path d="M187.401 38.0528V43.1498H185.4V42.661C185.218 42.8531 184.995 43.0016 184.748 43.0955C184.5 43.1901 184.238 43.24 183.972 43.2429C183.686 43.2554 183.401 43.2088 183.134 43.106C182.867 43.0032 182.624 42.8465 182.421 42.6455C182.21 42.4031 182.049 42.1213 181.948 41.8163C181.847 41.5114 181.807 41.1893 181.831 40.8689V38.0528H183.941V40.5043C183.913 40.7736 183.97 41.0451 184.104 41.2801C184.163 41.3543 184.239 41.4134 184.325 41.4525C184.412 41.4917 184.506 41.5097 184.601 41.5051C184.699 41.5051 184.797 41.4828 184.885 41.4398C184.974 41.3968 185.052 41.3342 185.113 41.2568C185.264 41.0277 185.335 40.7548 185.314 40.481V38.0838L187.401 38.0528Z" fill="#223A74"/>
<path d="M192.964 38.2855C193.344 38.5023 193.656 38.8223 193.863 39.2087C194.087 39.6396 194.199 40.1197 194.189 40.6051C194.2 41.0881 194.088 41.566 193.863 41.9938C193.656 42.3801 193.344 42.7001 192.964 42.917C192.589 43.1347 192.163 43.2472 191.73 43.2428C191.497 43.2587 191.263 43.2278 191.041 43.1518C190.82 43.0759 190.617 42.9565 190.442 42.8006V44.9496H188.332V38.0527H190.334V38.4717C190.516 38.2913 190.735 38.1523 190.976 38.0639C191.217 37.9756 191.474 37.94 191.73 37.9596C192.163 37.9552 192.589 38.0678 192.964 38.2855ZM191.823 41.3421C191.999 41.1236 192.082 40.8453 192.056 40.5663C192.074 40.3001 191.99 40.0371 191.823 39.8293C191.75 39.7428 191.659 39.6733 191.557 39.6256C191.454 39.5779 191.343 39.5532 191.23 39.5532C191.117 39.5532 191.005 39.5779 190.902 39.6256C190.8 39.6733 190.709 39.7428 190.636 39.8293C190.469 40.0371 190.386 40.3001 190.403 40.5663C190.377 40.8453 190.461 41.1236 190.636 41.3421C190.712 41.4231 190.804 41.4877 190.906 41.5318C191.008 41.576 191.118 41.5987 191.23 41.5987C191.341 41.5987 191.451 41.576 191.553 41.5318C191.655 41.4877 191.747 41.4231 191.823 41.3421Z" fill="#223A74"/>
<path d="M196.019 42.9015C195.588 42.6903 195.223 42.3657 194.964 41.9628C194.715 41.5506 194.584 41.0785 194.584 40.5974C194.584 40.1162 194.715 39.6441 194.964 39.232C195.221 38.8271 195.587 38.5021 196.019 38.2932C196.503 38.0628 197.034 37.9486 197.57 37.9597C198.106 37.9503 198.637 38.0644 199.122 38.2932C199.553 38.5001 199.917 38.8258 200.169 39.232C200.418 39.6441 200.549 40.1162 200.549 40.5974C200.549 41.0785 200.418 41.5506 200.169 41.9628C199.914 42.367 199.552 42.6921 199.122 42.9015C198.639 43.1365 198.107 43.2535 197.57 43.2428C197.033 43.2553 196.501 43.1383 196.019 42.9015ZM198.137 41.3499C198.289 41.1341 198.37 40.8767 198.37 40.6129C198.37 40.349 198.289 40.0916 198.137 39.8759C198.064 39.788 197.973 39.7173 197.869 39.6688C197.766 39.6202 197.653 39.5951 197.539 39.5951C197.425 39.5951 197.312 39.6202 197.209 39.6688C197.106 39.7173 197.015 39.788 196.942 39.8759C196.79 40.0916 196.708 40.349 196.708 40.6129C196.708 40.8767 196.79 41.1341 196.942 41.3499C197.015 41.4377 197.106 41.5084 197.209 41.557C197.312 41.6055 197.425 41.6307 197.539 41.6307C197.653 41.6307 197.766 41.6055 197.869 41.557C197.973 41.5084 198.064 41.4377 198.137 41.3499Z" fill="#223A74"/>
<path d="M206.213 38.526C206.418 38.759 206.575 39.0307 206.673 39.3252C206.772 39.6196 206.81 39.9308 206.787 40.2405V43.1497H204.723V40.6051C204.723 40.0232 204.514 39.7284 204.095 39.7284C203.987 39.7277 203.881 39.7494 203.782 39.7921C203.683 39.8349 203.594 39.8977 203.521 39.9767C203.36 40.202 203.283 40.4765 203.304 40.7525V43.1497H201.201V38.0527H203.172V38.557C203.367 38.3591 203.602 38.2056 203.862 38.107C204.133 38.0092 204.419 37.9593 204.708 37.9596C204.984 37.9489 205.259 37.9935 205.518 38.0908C205.776 38.188 206.012 38.336 206.213 38.526Z" fill="#223A74"/>
<path d="M94.5625 81.505C95.0047 82.8316 105.284 84.4608 99.9931 92.9402C94.7021 101.42 91.599 95.6943 93.2747 105.26C94.9504 114.825 82.8247 108.479 76.6184 110.473C65.4779 114.057 61.0171 97.8743 69.7526 96.9356C78.488 95.9968 80.412 95.5391 79.388 88.6811C78.3639 81.8231 91.5679 72.2963 94.5625 81.505Z" fill="#263238"/>
<path d="M97.4258 108.797C97.4258 109.573 97.4258 110.194 97.4878 110.877C97.5499 111.559 97.5809 112.226 97.6352 112.901C97.7594 114.244 97.9611 115.578 98.1783 116.905C98.6262 119.591 99.3249 122.23 100.265 124.787L100.444 125.268C100.506 125.438 100.537 125.539 100.684 125.873C100.956 126.487 101.38 127.021 101.918 127.424C102.409 127.784 102.973 128.033 103.57 128.154C104.045 128.248 104.529 128.284 105.013 128.262C105.804 128.214 106.586 128.068 107.34 127.828C108.028 127.612 108.702 127.353 109.358 127.052C111.839 125.931 114.182 124.525 116.34 122.863L115.129 120.962C114.005 121.497 112.802 122.04 111.669 122.513C110.534 123.008 109.371 123.436 108.186 123.794C107.156 124.145 106.078 124.333 104.99 124.352C104.555 124.352 104.315 124.189 104.392 124.189C104.47 124.189 104.447 124.236 104.447 124.189L104.222 123.413C103.53 121.036 103.012 118.612 102.67 116.16C102.492 114.926 102.368 113.685 102.243 112.436C102.119 111.187 102.057 109.915 102.018 108.759L97.4258 108.797Z" fill="#FFC3BD"/>
<path d="M100.917 103.584C102.709 104.189 103.446 111.815 103.446 111.815L98.1476 114.88C98.1476 114.88 93.8652 106.904 95.4168 105.012C96.9684 103.119 98.295 102.715 100.917 103.584Z" fill="#223A74"/>
<path opacity="0.2" d="M100.917 103.584C102.709 104.189 103.446 111.815 103.446 111.815L98.1476 114.88C98.1476 114.88 93.8652 106.904 95.4168 105.012C96.9684 103.119 98.295 102.715 100.917 103.584Z" fill="white"/>
<path opacity="0.2" d="M100.622 105.26L101.483 112.956L101.072 113.088C100.778 116.275 100.26 119.438 99.5205 122.552C98.7692 120.124 98.1656 117.653 97.7129 115.151L100.622 105.26Z" fill="black"/>
<path d="M114.113 121.513L117.364 117.153L118.59 121.513C118.59 121.513 116.549 123.522 114.78 122.971L114.113 121.513Z" fill="#FFC3BD"/>
<path d="M115.509 116.617C115.714 116.677 115.897 116.795 116.035 116.958C116.173 117.121 116.26 117.321 116.285 117.533L116.549 119.659L115.145 120.318L115.509 116.617Z" fill="#FFC3BD"/>
<path d="M120.381 115.772L121.204 119.061L118.589 121.513L117.371 117.153L120.381 115.772Z" fill="#FFC3BD"/>
<path d="M100.918 103.584C100.918 103.584 103.051 105.376 96.9147 131.133C89.5601 131.133 81.7091 131.179 77.9387 131.133C78.7688 123.817 79.9713 117.083 77.5586 101.761C80.13 101.42 82.723 101.27 85.3165 101.311C88.0579 101.311 90.7958 101.508 93.5089 101.901C96.9845 102.482 100.918 103.584 100.918 103.584Z" fill="#223A74"/>
<path opacity="0.2" d="M100.918 103.584C100.918 103.584 103.051 105.376 96.9147 131.133C88.4352 131.187 82.7021 131.133 77.9387 131.133C78.7688 123.817 79.9713 117.083 77.5586 101.761C80.13 101.42 82.723 101.27 85.3165 101.311C88.0579 101.311 90.7958 101.508 93.5089 101.901C96.9845 102.482 100.918 103.584 100.918 103.584Z" fill="white"/>
<path opacity="0.2" d="M82.066 108.068C81.6548 110.869 80.3747 113.902 78.9628 117.44C78.9628 115.159 78.8464 112.995 78.668 110.993L82.066 108.068Z" fill="black"/>
<path d="M75.059 107.005C74.9581 107.502 74.8185 108.115 74.6866 108.673C74.5547 109.232 74.4073 109.814 74.2444 110.38C73.9186 111.513 73.585 112.645 73.1738 113.732C72.4296 115.865 71.3847 117.882 70.0706 119.721C69.9155 119.922 69.7138 120.178 69.6439 120.256C69.4858 120.417 69.3173 120.567 69.1397 120.706C68.7114 121.05 68.2633 121.369 67.7975 121.66C66.82 122.281 65.7805 122.894 64.6944 123.468C63.6082 124.042 62.5532 124.639 61.4515 125.198L58.1699 126.881L58.9457 128.991C61.392 128.334 63.7984 127.536 66.1529 126.602C67.3398 126.121 68.4802 125.617 69.6982 125.004C70.3142 124.685 70.9125 124.333 71.4903 123.949C71.8199 123.725 72.136 123.481 72.4368 123.219C72.8169 122.863 72.9954 122.638 73.2514 122.366C74.1364 121.312 74.9159 120.174 75.5788 118.968C76.24 117.807 76.8156 116.598 77.301 115.353C77.7924 114.135 78.2196 112.892 78.5811 111.629C78.7595 111.001 78.9224 110.372 79.0776 109.728C79.2328 109.085 79.3569 108.479 79.4733 107.758L75.059 107.005Z" fill="#FFC3BD"/>
<path d="M77.5584 101.761C75.712 102.18 73.0898 108.247 73.0898 108.247L79.7384 113.77C79.7384 113.77 82.6709 108.759 82.0658 106.369C81.4607 103.98 79.6686 101.28 77.5584 101.761Z" fill="#223A74"/>
<path opacity="0.2" d="M77.5584 101.761C75.712 102.18 73.0898 108.247 73.0898 108.247L79.7384 113.77C79.7384 113.77 82.6709 108.759 82.0658 106.369C81.4607 103.98 79.6686 101.28 77.5584 101.761Z" fill="white"/>
<path d="M59.3102 126.765L55.0977 124.438L55.9743 128.883C55.9743 128.883 58.7051 129.744 60.0317 128.448L59.3102 126.765Z" fill="#FFC3BD"/>
<path d="M51.3984 125.043L52.3371 128.72L55.9756 128.883L55.099 124.445L51.3984 125.043Z" fill="#FFC3BD"/>
<path d="M86.806 92.1644C87.1318 94.8409 87.2947 99.7052 85.3242 101.334C85.3242 101.334 85.8518 104.057 90.7548 104.438C96.1853 104.825 93.5244 101.947 93.5244 101.947C90.6384 101.032 90.8712 98.844 91.5306 96.8502L86.806 92.1644Z" fill="#FFC3BD"/>
<path opacity="0.2" d="M88.6991 94.0419L91.4609 96.8192C91.3019 97.2894 91.1825 97.7721 91.104 98.2622C89.9946 98.0139 88.5361 96.6718 88.5051 95.4848C88.4803 94.996 88.5461 94.5068 88.6991 94.0419Z" fill="black"/>
<path d="M83.7649 87.6958C84.7734 91.9937 85.107 93.8401 87.6904 95.6943C91.5694 98.4872 96.6276 96.3072 96.9224 91.8153C97.1939 87.7501 95.4949 81.3886 90.941 80.3879C89.9405 80.1634 88.8992 80.1979 87.9158 80.4881C86.9323 80.7783 86.0391 81.3146 85.3207 82.0462C84.6022 82.7779 84.0823 83.6807 83.8101 84.6693C83.5378 85.6579 83.5223 86.6996 83.7649 87.6958Z" fill="#FFC3BD"/>
<path d="M94.1203 81.1403C95.571 83.1573 81.4749 90.6515 82.8325 85.9114C84.1901 81.1713 90.3422 75.8726 94.1203 81.1403Z" fill="#263238"/>
<path d="M86.9446 85.958C87.2937 88.0527 84.5241 90.5352 84.5241 90.5352C84.5241 90.5352 80.9787 87.913 83.2052 86.5166C85.4318 85.1202 86.9446 85.958 86.9446 85.958Z" fill="#263238"/>
<path d="M91.1808 87.6649C91.2428 88.014 91.4756 88.27 91.7083 88.2312C91.941 88.1924 92.0807 87.8743 92.0186 87.5175C91.9566 87.1606 91.7238 86.9123 91.4911 86.9511C91.2583 86.9899 91.1187 87.308 91.1808 87.6649Z" fill="#263238"/>
<path d="M95.1847 86.9821C95.2467 87.3312 95.4795 87.5873 95.7122 87.5485C95.9449 87.5097 96.0846 87.1916 96.0225 86.8347C95.9605 86.4779 95.7277 86.2296 95.495 86.2684C95.2622 86.3072 95.1226 86.6253 95.1847 86.9821Z" fill="#263238"/>
<path d="M95.3945 86.3072L96.2091 85.9115C96.2091 85.9115 95.8833 86.6563 95.3945 86.3072Z" fill="#263238"/>
<path d="M93.7871 87.8278C94.2419 88.5827 94.7979 89.2717 95.4396 89.8759C95.2802 90.0354 95.088 90.1583 94.8763 90.2361C94.6646 90.3138 94.4385 90.3444 94.2138 90.3258L93.7871 87.8278Z" fill="#ED847E"/>
<path d="M92.508 92.0403C92.6848 92.0391 92.8612 92.0236 93.0355 91.9937C93.063 91.9881 93.0873 91.972 93.1032 91.9488C93.1191 91.9257 93.1254 91.8973 93.1208 91.8696C93.1152 91.8421 93.0991 91.8178 93.076 91.8019C93.0528 91.786 93.0244 91.7797 92.9967 91.7842C92.5577 91.8685 92.1051 91.8485 91.6753 91.7259C91.2454 91.6033 90.8504 91.3815 90.5219 91.0783C90.5125 91.0682 90.5011 91.0601 90.4884 91.0546C90.4757 91.0491 90.4621 91.0463 90.4482 91.0463C90.4344 91.0463 90.4207 91.0491 90.4081 91.0546C90.3954 91.0601 90.384 91.0682 90.3745 91.0783C90.356 91.0983 90.3457 91.1247 90.3457 91.152C90.3457 91.1793 90.356 91.2056 90.3745 91.2257C90.6586 91.4958 90.9934 91.7069 91.3596 91.8467C91.7258 91.9865 92.1162 92.0523 92.508 92.0403Z" fill="#263238"/>
<path d="M83.2671 91.8851C83.6986 92.6217 84.4044 93.1573 85.2299 93.3746C86.3237 93.6539 86.8513 92.6687 86.5254 91.6446C86.1996 90.6206 85.3074 89.4724 84.1981 89.6431C83.9613 89.6876 83.7394 89.7904 83.5523 89.9422C83.3652 90.094 83.2189 90.29 83.1265 90.5125C83.0342 90.7349 82.9986 90.9769 83.0232 91.2166C83.0477 91.4562 83.1315 91.686 83.2671 91.8851Z" fill="#FFC3BD"/>
<path d="M89.436 87.1217C89.4807 87.1209 89.5241 87.1063 89.5602 87.0799C89.5963 87.0535 89.6234 87.0167 89.6377 86.9743C89.7791 86.6602 89.9847 86.3793 90.2412 86.1494C90.4978 85.9196 90.7996 85.7461 91.1273 85.6399C91.1802 85.6206 91.2235 85.5815 91.2481 85.5308C91.2727 85.4802 91.2767 85.4219 91.2592 85.3684C91.2513 85.3419 91.2381 85.3173 91.2204 85.2961C91.2026 85.2749 91.1807 85.2575 91.1559 85.2452C91.1312 85.2328 91.1042 85.2257 91.0766 85.2242C91.0489 85.2227 91.0213 85.2269 90.9954 85.2365C90.6034 85.3638 90.2434 85.5737 89.9396 85.8521C89.6358 86.1304 89.3953 86.4708 89.2343 86.8502C89.226 86.8767 89.223 86.9046 89.2255 86.9322C89.228 86.9599 89.236 86.9868 89.249 87.0113C89.2619 87.0359 89.2797 87.0576 89.3012 87.0752C89.3226 87.0928 89.3474 87.106 89.374 87.114L89.436 87.1217Z" fill="#263238"/>
<path d="M96.0687 84.9262C96.1066 84.9267 96.144 84.9168 96.1768 84.8977C96.2096 84.8785 96.2366 84.8509 96.2549 84.8176C96.2808 84.7688 96.2873 84.712 96.2729 84.6587C96.2585 84.6054 96.2243 84.5595 96.1773 84.5305C95.8907 84.3554 95.5658 84.2526 95.2306 84.231C94.8954 84.2094 94.56 84.2696 94.2533 84.4064C94.2042 84.4314 94.1668 84.4747 94.1494 84.5269C94.132 84.5792 94.1359 84.6363 94.1602 84.6857C94.1725 84.711 94.1899 84.7336 94.2111 84.7521C94.2324 84.7706 94.2571 84.7846 94.2839 84.7933C94.3107 84.802 94.339 84.8052 94.3671 84.8027C94.3951 84.8002 94.4224 84.7921 94.4473 84.7788C94.6962 84.6719 94.9672 84.6267 95.2373 84.647C95.5074 84.6672 95.7687 84.7524 95.9988 84.8952C96.0195 84.9106 96.0433 84.9213 96.0687 84.9262Z" fill="#263238"/>
<path d="M91.3906 86.9899L92.2052 86.5942C92.2052 86.5942 91.8794 87.339 91.3906 86.9899Z" fill="#263238"/>
<path d="M83.9033 222.188C81.8991 220.254 80.1238 218.096 78.6124 215.756C77.6349 214.36 77.4487 214.709 76.4091 213.344C76.268 213.127 76.18 212.88 76.1521 212.623C76.1243 212.366 76.1574 212.106 76.2489 211.864C76.3403 211.622 76.4875 211.406 76.6784 211.231C76.8694 211.057 77.0987 210.93 77.3478 210.861C78.2615 210.683 79.1572 210.424 80.0243 210.085L83.6085 212.723C82.9491 214.406 83.818 219.162 85.6566 221.117C86.9755 222.498 84.9429 223.142 83.9033 222.188Z" fill="#263238"/>
<path d="M95.9204 131.133C95.9204 131.133 107.402 164.67 107.557 175.539C107.612 178.859 83.3215 213.499 83.3215 213.499C82.7086 213.972 80.1485 210.791 80.0011 209.953C86.3471 197.688 90.9243 183.375 96.6729 175.081C82.4216 151.171 79.0469 131.133 79.0469 131.133H95.9204Z" fill="#263238"/>
<g opacity="0.2">
<path d="M95.9204 131.133C95.9204 131.133 107.402 164.67 107.557 175.539C107.612 178.859 83.3215 213.499 83.3215 213.499C82.7086 213.972 80.1485 210.791 80.0011 209.953C86.3471 197.688 90.9243 183.375 96.6729 175.081C82.4216 151.171 79.0469 131.133 79.0469 131.133H95.9204Z" fill="white"/>
</g>
<path opacity="0.3" d="M86.6183 147.572C86.6183 147.572 93.0884 161.288 93.3056 168.65C91.2886 165.058 86.9907 155.718 85.6641 152.793L86.6183 147.572Z" fill="black"/>
<path opacity="0.2" d="M83.9033 201.776C83.593 205.105 83.0189 209.907 83.1275 213.545C82.6997 213.426 82.3097 213.199 81.9949 212.886L81.5449 206.866L83.9033 201.776Z" fill="black"/>
<path d="M87.1233 234.244C83.5314 234.244 83.0581 234.189 81.0488 234.119C79.3188 234.065 78.9076 234.275 77.519 234.244C76.363 234.244 76.4096 233.111 76.7432 231.839C76.9216 231.195 77.1931 229.845 77.4414 228.805L82.6935 228.425C83.4693 229.837 85.0985 231.846 87.1233 232.118C89.1481 232.389 88.5508 234.244 87.1233 234.244Z" fill="#263238"/>
<path d="M90.8701 131.133C90.8701 131.133 87.0919 165.756 84.8964 180.008C82.569 195.004 82.2975 219.061 82.8716 228.883C82.0337 229.371 78.9926 229.03 77.3324 228.51C77.3324 228.51 72.0493 198.479 74.687 181.505C72.1191 139.612 79.0547 131.125 79.0547 131.125L90.8701 131.133Z" fill="#263238"/>
<g opacity="0.2">
<path d="M90.8701 131.133C90.8701 131.133 87.0919 165.756 84.8964 180.008C82.569 195.004 82.2975 219.061 82.8716 228.883C82.0337 229.371 78.9926 229.03 77.3324 228.51C77.3324 228.51 72.0493 198.479 74.687 181.505C72.1191 139.612 79.0547 131.125 79.0547 131.125L90.8701 131.133Z" fill="white"/>
</g>
<path d="M39.3728 171.986H68.3487C68.6564 171.985 68.9548 171.881 69.1956 171.689C69.4364 171.498 69.6054 171.23 69.6753 170.931L74.3301 150.543H33.7793L38.0462 170.908C38.1102 171.212 38.2769 171.485 38.5184 171.682C38.7599 171.878 39.0616 171.985 39.3728 171.986Z" fill="#223A74"/>
<path opacity="0.1" d="M39.3728 171.986H68.3487C68.6564 171.985 68.9548 171.881 69.1956 171.689C69.4364 171.498 69.6054 171.23 69.6753 170.931L74.3301 150.543H33.7793L38.0462 170.908C38.1102 171.212 38.2769 171.485 38.5184 171.682C38.7599 171.878 39.0616 171.985 39.3728 171.986Z" fill="white"/>
<path d="M67.8065 159.092C67.9594 159.09 68.1054 159.028 68.2129 158.919C68.3203 158.81 68.3806 158.663 68.3805 158.51V153.08C68.3806 152.927 68.3203 152.78 68.2129 152.671C68.1054 152.562 67.9594 152.5 67.8065 152.498C67.6521 152.498 67.5042 152.559 67.395 152.668C67.2859 152.778 67.2246 152.926 67.2246 153.08V158.51C67.2246 158.665 67.2859 158.813 67.395 158.922C67.5042 159.031 67.6521 159.092 67.8065 159.092Z" fill="#263238"/>
<path d="M65.4861 159.092C65.6398 159.09 65.7867 159.028 65.8953 158.92C66.004 158.811 66.066 158.664 66.068 158.51V153.08C66.066 152.926 66.004 152.779 65.8953 152.671C65.7867 152.562 65.6398 152.5 65.4861 152.498C65.3325 152.5 65.1856 152.562 65.0769 152.671C64.9683 152.779 64.9063 152.926 64.9043 153.08V158.51C64.9063 158.664 64.9683 158.811 65.0769 158.92C65.1856 159.028 65.3325 159.09 65.4861 159.092Z" fill="#263238"/>
<path d="M63.2127 159.092C63.3664 159.09 63.5132 159.028 63.6219 158.92C63.7306 158.811 63.7925 158.664 63.7946 158.51V153.08C63.7925 152.926 63.7306 152.779 63.6219 152.671C63.5132 152.562 63.3664 152.5 63.2127 152.498C63.059 152.5 62.9122 152.562 62.8035 152.671C62.6948 152.779 62.6329 152.926 62.6309 153.08V158.51C62.6329 158.664 62.6948 158.811 62.8035 158.92C62.9122 159.028 63.059 159.09 63.2127 159.092Z" fill="#263238"/>
<path d="M45.0604 159.092C45.2147 159.092 45.3627 159.031 45.4718 158.922C45.581 158.813 45.6423 158.665 45.6423 158.51V153.08C45.6423 152.926 45.581 152.778 45.4718 152.668C45.3627 152.559 45.2147 152.498 45.0604 152.498C44.9075 152.5 44.7614 152.562 44.654 152.671C44.5466 152.78 44.4863 152.927 44.4863 153.08V158.51C44.4863 158.663 44.5466 158.81 44.654 158.919C44.7614 159.028 44.9075 159.09 45.0604 159.092Z" fill="#263238"/>
<path d="M42.7089 159.092C42.8632 159.092 43.0112 159.031 43.1203 158.922C43.2294 158.813 43.2907 158.665 43.2907 158.51V153.08C43.2907 152.926 43.2294 152.778 43.1203 152.668C43.0112 152.559 42.8632 152.498 42.7089 152.498C42.5559 152.5 42.4099 152.562 42.3024 152.671C42.195 152.78 42.1348 152.927 42.1348 153.08V158.51C42.1348 158.663 42.195 158.81 42.3024 158.919C42.4099 159.028 42.5559 159.09 42.7089 159.092Z" fill="#263238"/>
<path d="M40.3729 159.092C40.5258 159.09 40.6718 159.028 40.7793 158.919C40.8867 158.81 40.947 158.663 40.9469 158.51V153.08C40.947 152.927 40.8867 152.78 40.7793 152.671C40.6718 152.562 40.5258 152.5 40.3729 152.498C40.2185 152.498 40.0705 152.559 39.9614 152.668C39.8523 152.778 39.791 152.926 39.791 153.08V158.51C39.791 158.665 39.8523 158.813 39.9614 158.922C40.0705 159.031 40.2185 159.092 40.3729 159.092Z" fill="#263238"/>
<path d="M57.7752 159.092C57.9289 159.09 58.0757 159.028 58.1844 158.92C58.2931 158.811 58.355 158.664 58.3571 158.51V153.08C58.355 152.926 58.2931 152.779 58.1844 152.671C58.0757 152.562 57.9289 152.5 57.7752 152.498C57.6215 152.5 57.4747 152.562 57.366 152.671C57.2573 152.779 57.1954 152.926 57.1934 153.08V158.51C57.1954 158.664 57.2573 158.811 57.366 158.92C57.4747 159.028 57.6215 159.09 57.7752 159.092Z" fill="#263238"/>
<path d="M55.5174 159.092C55.6711 159.09 55.8179 159.028 55.9266 158.92C56.0353 158.811 56.0972 158.664 56.0992 158.51V153.08C56.0972 152.926 56.0353 152.779 55.9266 152.671C55.8179 152.562 55.6711 152.5 55.5174 152.498C55.3637 152.5 55.2169 152.562 55.1082 152.671C54.9995 152.779 54.9376 152.926 54.9355 153.08V158.51C54.9376 158.664 54.9995 158.811 55.1082 158.92C55.2169 159.028 55.3637 159.09 55.5174 159.092Z" fill="#263238"/>
<path d="M53.1971 159.092C53.3514 159.092 53.4994 159.031 53.6086 158.922C53.7177 158.813 53.779 158.665 53.779 158.51V153.08C53.779 152.926 53.7177 152.778 53.6086 152.668C53.4994 152.559 53.3514 152.498 53.1971 152.498C53.0442 152.5 52.8982 152.562 52.7907 152.671C52.6833 152.78 52.623 152.927 52.623 153.08V158.51C52.623 158.663 52.6833 158.81 52.7907 158.919C52.8982 159.028 53.0442 159.09 53.1971 159.092Z" fill="#263238"/>
<path d="M50.8865 159.092C51.0395 159.09 51.1855 159.028 51.293 158.919C51.4004 158.81 51.4606 158.663 51.4606 158.51V153.08C51.4606 152.927 51.4004 152.78 51.293 152.671C51.1855 152.562 51.0395 152.5 50.8865 152.498C50.7322 152.498 50.5842 152.559 50.4751 152.668C50.366 152.778 50.3047 152.926 50.3047 153.08V158.51C50.3047 158.665 50.366 158.813 50.4751 158.922C50.5842 159.031 50.7322 159.092 50.8865 159.092Z" fill="#263238"/>
<path d="M67.8065 168.65C67.9587 168.65 68.1047 168.589 68.2124 168.482C68.3201 168.374 68.3805 168.228 68.3805 168.076V162.645C68.3805 162.493 68.3201 162.347 68.2124 162.239C68.1047 162.132 67.9587 162.071 67.8065 162.071C67.7304 162.07 67.6549 162.084 67.5844 162.113C67.5138 162.141 67.4496 162.183 67.3955 162.237C67.3414 162.29 67.2984 162.354 67.269 162.424C67.2397 162.494 67.2246 162.569 67.2246 162.645V168.076C67.2246 168.152 67.2397 168.227 67.269 168.297C67.2984 168.368 67.3414 168.431 67.3955 168.485C67.4496 168.538 67.5138 168.58 67.5844 168.609C67.6549 168.637 67.7304 168.651 67.8065 168.65Z" fill="#263238"/>
<path d="M65.4861 168.65C65.6391 168.65 65.786 168.59 65.8949 168.482C66.0037 168.375 66.0659 168.229 66.068 168.076V162.645C66.0659 162.492 66.0037 162.346 65.8949 162.239C65.786 162.132 65.6391 162.071 65.4861 162.071C65.3332 162.071 65.1863 162.132 65.0774 162.239C64.9685 162.346 64.9063 162.492 64.9043 162.645V168.076C64.9063 168.229 64.9685 168.375 65.0774 168.482C65.1863 168.59 65.3332 168.65 65.4861 168.65Z" fill="#263238"/>
<path d="M63.2127 168.65C63.3657 168.65 63.5125 168.59 63.6214 168.482C63.7303 168.375 63.7925 168.229 63.7946 168.076V162.645C63.7925 162.492 63.7303 162.346 63.6214 162.239C63.5125 162.132 63.3657 162.071 63.2127 162.071C63.0597 162.071 62.9129 162.132 62.804 162.239C62.6951 162.346 62.6329 162.492 62.6309 162.645V168.076C62.6329 168.229 62.6951 168.375 62.804 168.482C62.9129 168.59 63.0597 168.65 63.2127 168.65Z" fill="#263238"/>
<path d="M45.0604 168.65C45.1365 168.651 45.2119 168.637 45.2825 168.609C45.353 168.58 45.4173 168.538 45.4714 168.485C45.5255 168.431 45.5685 168.368 45.5978 168.297C45.6272 168.227 45.6423 168.152 45.6423 168.076V162.645C45.6423 162.569 45.6272 162.494 45.5978 162.424C45.5685 162.354 45.5255 162.29 45.4714 162.237C45.4173 162.183 45.353 162.141 45.2825 162.113C45.2119 162.084 45.1365 162.07 45.0604 162.071C44.9082 162.071 44.7621 162.132 44.6545 162.239C44.5468 162.347 44.4863 162.493 44.4863 162.645V168.076C44.4863 168.228 44.5468 168.374 44.6545 168.482C44.7621 168.589 44.9082 168.65 45.0604 168.65Z" fill="#263238"/>
<path d="M42.7089 168.65C42.7849 168.651 42.8604 168.637 42.9309 168.609C43.0015 168.58 43.0657 168.538 43.1198 168.485C43.174 168.431 43.2169 168.368 43.2463 168.297C43.2756 168.227 43.2907 168.152 43.2907 168.076V162.645C43.2907 162.569 43.2756 162.494 43.2463 162.424C43.2169 162.354 43.174 162.29 43.1198 162.237C43.0657 162.183 43.0015 162.141 42.9309 162.113C42.8604 162.084 42.7849 162.07 42.7089 162.071C42.5566 162.071 42.4106 162.132 42.3029 162.239C42.1953 162.347 42.1348 162.493 42.1348 162.645V168.076C42.1348 168.228 42.1953 168.374 42.3029 168.482C42.4106 168.589 42.5566 168.65 42.7089 168.65Z" fill="#263238"/>
<path d="M40.3729 168.65C40.5251 168.65 40.6711 168.589 40.7788 168.482C40.8865 168.374 40.9469 168.228 40.9469 168.076V162.645C40.9469 162.493 40.8865 162.347 40.7788 162.239C40.6711 162.132 40.5251 162.071 40.3729 162.071C40.2968 162.07 40.2213 162.084 40.1508 162.113C40.0802 162.141 40.016 162.183 39.9619 162.237C39.9078 162.29 39.8648 162.354 39.8354 162.424C39.8061 162.494 39.791 162.569 39.791 162.645V168.076C39.791 168.152 39.8061 168.227 39.8354 168.297C39.8648 168.368 39.9078 168.431 39.9619 168.485C40.016 168.538 40.0802 168.58 40.1508 168.609C40.2213 168.637 40.2968 168.651 40.3729 168.65Z" fill="#263238"/>
<path d="M57.7752 168.65C57.9282 168.65 58.075 168.59 58.1839 168.482C58.2928 168.375 58.355 168.229 58.3571 168.076V162.645C58.355 162.492 58.2928 162.346 58.1839 162.239C58.075 162.132 57.9282 162.071 57.7752 162.071C57.6222 162.071 57.4754 162.132 57.3665 162.239C57.2576 162.346 57.1954 162.492 57.1934 162.645V168.076C57.1954 168.229 57.2576 168.375 57.3665 168.482C57.4754 168.59 57.6222 168.65 57.7752 168.65Z" fill="#263238"/>
<path d="M55.5174 168.65C55.6704 168.65 55.8172 168.59 55.9261 168.482C56.035 168.375 56.0972 168.229 56.0992 168.076V162.645C56.0972 162.492 56.035 162.346 55.9261 162.239C55.8172 162.132 55.6704 162.071 55.5174 162.071C55.3644 162.071 55.2176 162.132 55.1087 162.239C54.9998 162.346 54.9376 162.492 54.9355 162.645V168.076C54.9376 168.229 54.9998 168.375 55.1087 168.482C55.2176 168.59 55.3644 168.65 55.5174 168.65Z" fill="#263238"/>
<path d="M53.1971 168.65C53.2732 168.651 53.3487 168.637 53.4192 168.609C53.4898 168.58 53.554 168.538 53.6081 168.485C53.6622 168.431 53.7052 168.368 53.7345 168.297C53.7639 168.227 53.779 168.152 53.779 168.076V162.645C53.779 162.569 53.7639 162.494 53.7345 162.424C53.7052 162.354 53.6622 162.29 53.6081 162.237C53.554 162.183 53.4898 162.141 53.4192 162.113C53.3487 162.084 53.2732 162.07 53.1971 162.071C53.0449 162.071 52.8989 162.132 52.7912 162.239C52.6835 162.347 52.623 162.493 52.623 162.645V168.076C52.623 168.228 52.6835 168.374 52.7912 168.482C52.8989 168.589 53.0449 168.65 53.1971 168.65Z" fill="#263238"/>
<path d="M50.8865 168.65C51.0388 168.65 51.1848 168.589 51.2925 168.482C51.4001 168.374 51.4606 168.228 51.4606 168.076V162.645C51.4606 162.493 51.4001 162.347 51.2925 162.239C51.1848 162.132 51.0388 162.071 50.8865 162.071C50.8105 162.07 50.735 162.084 50.6645 162.113C50.5939 162.141 50.5297 162.183 50.4756 162.237C50.4214 162.29 50.3785 162.354 50.3491 162.424C50.3198 162.494 50.3047 162.569 50.3047 162.645V168.076C50.3047 168.152 50.3198 168.227 50.3491 168.297C50.3785 168.368 50.4214 168.431 50.4756 168.485C50.5297 168.538 50.5939 168.58 50.6645 168.609C50.735 168.637 50.8105 168.651 50.8865 168.65Z" fill="#263238"/>
<path opacity="0.2" d="M74.1989 151.171H33.9584L33.5938 149.868H74.5868L74.1989 151.171Z" fill="black"/>
<path d="M32.771 150.543H75.6492C76.1101 150.543 76.5521 150.36 76.878 150.034C77.2039 149.708 77.387 149.266 77.387 148.805C77.387 148.344 77.2039 147.902 76.878 147.576C76.5521 147.25 76.1101 147.067 75.6492 147.067H32.771C32.3115 147.067 31.8706 147.249 31.5449 147.574C31.2193 147.898 31.0353 148.338 31.0332 148.797C31.0322 149.026 31.0764 149.253 31.1633 149.465C31.2501 149.677 31.378 149.869 31.5395 150.031C31.7009 150.193 31.8928 150.322 32.1042 150.41C32.3155 150.498 32.5421 150.543 32.771 150.543Z" fill="#223A74"/>
<path opacity="0.3" d="M32.771 150.543H75.6492C76.1101 150.543 76.5521 150.36 76.878 150.034C77.2039 149.708 77.387 149.266 77.387 148.805C77.387 148.344 77.2039 147.902 76.878 147.576C76.5521 147.25 76.1101 147.067 75.6492 147.067H32.771C32.3115 147.067 31.8706 147.249 31.5449 147.574C31.2193 147.898 31.0353 148.338 31.0332 148.797C31.0322 149.026 31.0764 149.253 31.1633 149.465C31.2501 149.677 31.378 149.869 31.5395 150.031C31.7009 150.193 31.8928 150.322 32.1042 150.41C32.3155 150.498 32.5421 150.543 32.771 150.543Z" fill="white"/>
<path d="M54.2211 149.868C54.3613 149.869 54.5003 149.842 54.6302 149.789C54.76 149.736 54.8781 149.658 54.9776 149.56C55.0771 149.461 55.1561 149.343 55.21 149.214C55.2639 149.084 55.2917 148.945 55.2917 148.805V127.075C55.2917 126.935 55.2639 126.796 55.21 126.667C55.1561 126.537 55.0771 126.42 54.9776 126.321C54.8781 126.222 54.76 126.144 54.6302 126.091C54.5003 126.038 54.3613 126.011 54.2211 126.012C53.9392 126.012 53.6689 126.124 53.4695 126.324C53.2702 126.523 53.1582 126.793 53.1582 127.075V148.797C53.1572 148.938 53.1839 149.077 53.2369 149.207C53.2899 149.336 53.368 149.455 53.4668 149.554C53.5656 149.654 53.6831 149.733 53.8125 149.786C53.942 149.84 54.0808 149.868 54.2211 149.868Z" fill="#263238"/>
</svg>
