<svg width="34" height="32" viewBox="0 0 34 32" fill="none" xmlns="http://www.w3.org/2000/svg">
<path d="M33.3924 16C33.3891 15.062 33.1739 14.1368 32.7629 13.2936C32.3519 12.4504 31.7557 11.711 31.0189 11.1305C32.0382 10.3269 32.7814 9.22512 33.1446 7.97893C33.5078 6.73274 33.473 5.40426 33.045 4.1788C32.617 2.95335 31.8172 1.89204 30.7571 1.14294C29.6971 0.393839 28.4296 -0.00570007 27.1316 6.14468e-05H6.26208C4.96405 -0.00570007 3.6966 0.393839 2.63652 1.14294C1.57645 1.89204 0.776625 2.95335 0.348635 4.1788C-0.0793546 5.40426 -0.114168 6.73274 0.249051 7.97893C0.612271 9.22512 1.35541 10.3269 2.37479 11.1305C1.63538 11.7086 1.03735 12.4476 0.626052 13.2913C0.214758 14.1351 0.00100395 15.0614 0.00100395 16C0.00100395 16.9386 0.214758 17.8649 0.626052 18.7087C1.03735 19.5524 1.63538 20.2914 2.37479 20.8695C1.35541 21.6731 0.612271 22.7749 0.249051 24.0211C-0.114168 25.2673 -0.0793546 26.5957 0.348635 27.8212C0.776625 29.0466 1.57645 30.108 2.63652 30.8571C3.6966 31.6062 4.96405 32.0057 6.26208 31.9999H27.1316C28.4296 32.0057 29.6971 31.6062 30.7571 30.8571C31.8172 30.108 32.617 29.0466 33.045 27.8212C33.473 26.5957 33.5078 25.2673 33.1446 24.0211C32.7814 22.7749 32.0382 21.6731 31.0189 20.8695C31.7557 20.289 32.3519 19.5496 32.7629 18.7064C33.1739 17.8632 33.3891 16.938 33.3924 16ZM2.78384 6.26091C2.78384 5.33842 3.15029 4.45371 3.80259 3.80141C4.45489 3.14912 5.3396 2.78266 6.26208 2.78266H6.95773V4.17396C6.95773 4.54295 7.10432 4.89684 7.36524 5.15776C7.62615 5.41867 7.98004 5.56526 8.34903 5.56526C8.71803 5.56526 9.07191 5.41867 9.33283 5.15776C9.59375 4.89684 9.74033 4.54295 9.74033 4.17396V2.78266H12.5229V4.17396C12.5229 4.54295 12.6695 4.89684 12.9304 5.15776C13.1914 5.41867 13.5452 5.56526 13.9142 5.56526C14.2832 5.56526 14.6371 5.41867 14.898 5.15776C15.1589 4.89684 15.3055 4.54295 15.3055 4.17396V2.78266H27.1316C28.0541 2.78266 28.9388 3.14912 29.5911 3.80141C30.2434 4.45371 30.6098 5.33842 30.6098 6.26091C30.6098 7.1834 30.2434 8.0681 29.5911 8.7204C28.9388 9.3727 28.0541 9.73915 27.1316 9.73915H6.26208C5.3396 9.73915 4.45489 9.3727 3.80259 8.7204C3.15029 8.0681 2.78384 7.1834 2.78384 6.26091ZM30.6098 25.7391C30.6098 26.6616 30.2434 27.5463 29.5911 28.1986C28.9388 28.8509 28.0541 29.2173 27.1316 29.2173H6.26208C5.3396 29.2173 4.45489 28.8509 3.80259 28.1986C3.15029 27.5463 2.78384 26.6616 2.78384 25.7391C2.78384 24.8166 3.15029 23.9319 3.80259 23.2796C4.45489 22.6273 5.3396 22.2608 6.26208 22.2608H6.95773V23.6521C6.95773 24.0211 7.10432 24.375 7.36524 24.6359C7.62615 24.8969 7.98004 25.0434 8.34903 25.0434C8.71803 25.0434 9.07191 24.8969 9.33283 24.6359C9.59375 24.375 9.74033 24.0211 9.74033 23.6521V22.2608H12.5229V23.6521C12.5229 24.0211 12.6695 24.375 12.9304 24.6359C13.1914 24.8969 13.5452 25.0434 13.9142 25.0434C14.2832 25.0434 14.6371 24.8969 14.898 24.6359C15.1589 24.375 15.3055 24.0211 15.3055 23.6521V22.2608H27.1316C28.0541 22.2608 28.9388 22.6273 29.5911 23.2796C30.2434 23.9319 30.6098 24.8166 30.6098 25.7391ZM6.26208 19.4782C5.3396 19.4782 4.45489 19.1118 3.80259 18.4595C3.15029 17.8072 2.78384 16.9225 2.78384 16C2.78384 15.0775 3.15029 14.1928 3.80259 13.5405C4.45489 12.8882 5.3396 12.5218 6.26208 12.5218H6.95773V13.9131C6.95773 14.282 7.10432 14.6359 7.36524 14.8968C7.62615 15.1578 7.98004 15.3043 8.34903 15.3043C8.71803 15.3043 9.07191 15.1578 9.33283 14.8968C9.59375 14.6359 9.74033 14.282 9.74033 13.9131V12.5218H12.5229V13.9131C12.5229 14.282 12.6695 14.6359 12.9304 14.8968C13.1914 15.1578 13.5452 15.3043 13.9142 15.3043C14.2832 15.3043 14.6371 15.1578 14.898 14.8968C15.1589 14.6359 15.3055 14.282 15.3055 13.9131V12.5218H27.1316C28.0541 12.5218 28.9388 12.8882 29.5911 13.5405C30.2434 14.1928 30.6098 15.0775 30.6098 16C30.6098 16.9225 30.2434 17.8072 29.5911 18.4595C28.9388 19.1118 28.0541 19.4782 27.1316 19.4782H6.26208Z" fill="white"/>
</svg>
