<svg width="32" height="32" viewBox="0 0 32 32" fill="none" xmlns="http://www.w3.org/2000/svg">
<path d="M32 30.6667C32 31.4027 31.4027 32 30.6667 32H4C1.79467 32 0 30.2053 0 28V1.33333C0 0.597333 0.597333 0 1.33333 0C2.06933 0 2.66667 0.597333 2.66667 1.33333V28C2.66667 28.7347 3.26533 29.3333 4 29.3333H30.6667C31.4027 29.3333 32 29.9307 32 30.6667ZM28 6.66667H22.6667C21.9307 6.66667 21.3333 7.264 21.3333 8C21.3333 8.736 21.9307 9.33333 22.6667 9.33333H27.4173L20.9413 15.6093C20.4387 16.1133 19.56 16.1133 19.0573 15.6093C19.0027 15.556 17.4053 14.4187 17.4053 14.4187C15.888 12.988 13.3027 13.0413 11.856 14.4867L5.74133 20.372C5.21067 20.8827 5.19467 21.7267 5.70533 22.2573C5.968 22.5293 6.316 22.6667 6.66667 22.6667C7 22.6667 7.33333 22.5427 7.59067 22.2947L13.724 16.3907C14.2267 15.8867 15.1053 15.8867 15.608 16.3907C15.6627 16.444 17.26 17.5813 17.26 17.5813C18.7787 19.0133 21.3613 18.9627 22.812 17.5093L29.332 11.1893V15.9987C29.332 16.7347 29.9293 17.332 30.6653 17.332C31.4013 17.332 31.9987 16.7347 31.9987 15.9987V10.6653C31.9987 8.46 30.204 6.66533 27.9987 6.66533L28 6.66667Z" fill="white"/>
</svg>
