<svg width="265" height="241" viewBox="0 0 265 241" fill="none" xmlns="http://www.w3.org/2000/svg">
<path d="M132.499 241C205.676 241 264.998 237.536 264.998 233.264C264.998 228.992 205.676 225.528 132.499 225.528C59.3218 225.528 0 228.992 0 233.264C0 237.536 59.3218 241 132.499 241Z" fill="#F5F5F5"/>
<path d="M183.205 17.3462V99.2073C183.206 100.537 182.945 101.854 182.437 103.082C181.928 104.311 181.183 105.428 180.243 106.368C179.303 107.309 178.187 108.055 176.959 108.564C175.731 109.073 174.414 109.335 173.084 109.335H164.959V17.3462H183.205Z" fill="#223A74"/>
<path opacity="0.8" d="M183.205 17.3462V99.2073C183.206 100.537 182.945 101.854 182.437 103.082C181.928 104.311 181.183 105.428 180.243 106.368C179.303 107.309 178.187 108.055 176.959 108.564C175.731 109.073 174.414 109.335 173.084 109.335H164.959V17.3462H183.205Z" fill="white"/>
<path d="M183.205 11.1276V99.2074C183.206 100.537 182.945 101.854 182.436 103.082C181.928 104.311 181.183 105.428 180.243 106.368C179.303 107.309 178.187 108.055 176.959 108.564C175.73 109.073 174.414 109.335 173.084 109.335H30.0338C27.3478 109.335 24.7718 108.268 22.8726 106.369C20.9733 104.469 19.9063 101.893 19.9063 99.2074V11.1276C19.9054 9.79735 20.1667 8.48 20.6753 7.25086C21.184 6.02172 21.9299 4.90491 22.8705 3.96429C23.8112 3.02368 24.928 2.27773 26.1571 1.76909C27.3862 1.26045 28.7036 0.999104 30.0338 1H173.084C174.414 1 175.73 1.26201 176.959 1.77105C178.187 2.28009 179.303 3.02619 180.243 3.96671C181.183 4.90724 181.928 6.02374 182.436 7.25243C182.945 8.48113 183.206 9.79792 183.205 11.1276Z" fill="white" stroke="#223A74" stroke-miterlimit="10"/>
<path d="M182.74 8.08657H20.3711C21.0182 6.03094 22.3042 4.23532 24.042 2.96083C25.7798 1.68634 27.8789 0.999436 30.034 1H173.084C175.238 1.00089 177.336 1.68846 179.072 2.96285C180.809 4.23723 182.093 6.03205 182.74 8.08657Z" fill="#223A74"/>
<path d="M40.5445 5.98186C41.337 5.98186 41.9795 5.33935 41.9795 4.54678C41.9795 3.75421 41.337 3.11169 40.5445 3.11169C39.7519 3.11169 39.1094 3.75421 39.1094 4.54678C39.1094 5.33935 39.7519 5.98186 40.5445 5.98186Z" fill="white"/>
<path d="M45.6695 5.98186C46.462 5.98186 47.1045 5.33935 47.1045 4.54678C47.1045 3.75421 46.462 3.11169 45.6695 3.11169C44.8769 3.11169 44.2344 3.75421 44.2344 4.54678C44.2344 5.33935 44.8769 5.98186 45.6695 5.98186Z" fill="white"/>
<path d="M52.2217 4.54679C52.2217 4.83226 52.137 5.11131 51.9782 5.34858C51.8195 5.58585 51.5939 5.77065 51.33 5.87958C51.0661 5.98851 50.7759 6.01667 50.496 5.96048C50.2161 5.90428 49.9592 5.76627 49.7578 5.56393C49.5564 5.36159 49.4196 5.10403 49.3648 4.82388C49.3099 4.54372 49.3394 4.25359 49.4496 3.99024C49.5598 3.72689 49.7457 3.50216 49.9837 3.34455C50.2217 3.18693 50.5012 3.10352 50.7866 3.10487C50.9757 3.10487 51.1628 3.14222 51.3374 3.21476C51.512 3.28731 51.6705 3.39363 51.8038 3.52761C51.9372 3.6616 52.0427 3.82061 52.1145 3.99551C52.1862 4.17041 52.2226 4.35776 52.2217 4.54679Z" fill="white"/>
<path d="M183.205 11.1277V17.3464H19.8789V11.1277C19.8788 10.0963 20.0355 9.07093 20.3436 8.08667H182.713C183.03 9.06949 183.196 10.0949 183.205 11.1277Z" fill="#223A74"/>
<path opacity="0.5" d="M183.205 11.1277V17.3464H19.8789V11.1277C19.8788 10.0963 20.0355 9.07093 20.3436 8.08667H182.713C183.03 9.06949 183.196 10.0949 183.205 11.1277Z" fill="white"/>
<path d="M39.1158 17.3462V109.335H29.8083C27.6194 109.353 25.4813 108.676 23.7018 107.401C21.9224 106.126 20.5934 104.32 19.9062 102.241V17.3462H39.1158Z" fill="#223A74"/>
<path opacity="0.1" d="M39.1158 17.3462V109.335H29.8083C27.6194 109.353 25.4813 108.676 23.7018 107.401C21.9224 106.126 20.5934 104.32 19.9062 102.241V17.3462H39.1158Z" fill="black"/>
<path opacity="0.1" d="M158.556 23.8656H45.6699V100.055H158.556V23.8656Z" fill="#223A74"/>
<path opacity="0.2" d="M27.7035 27.7062H22.8516V32.5581H27.7035V27.7062Z" fill="black"/>
<path opacity="0.2" d="M35.0492 27.7062H30.1973V32.5581H35.0492V27.7062Z" fill="black"/>
<path d="M113.404 61.6561C117.539 56.2985 120.238 49.2666 119.678 42.3987C119.152 35.9545 113.951 32.0251 107.637 33.5695C104.972 34.2529 102.532 35.5513 100.072 36.7745C95.9716 38.8247 91.6527 40.5741 87.0878 41.1276C82.5228 41.6812 78.0058 41.1276 73.557 42.8702C65.8144 45.8907 63.6618 55.7859 66.6481 62.9613C69.2996 69.3304 75.614 74.2506 82.3315 75.6174" stroke="#263238" stroke-linecap="round" stroke-linejoin="round"/>
<path opacity="0.2" d="M27.7035 35.4009H22.8516V40.2528H27.7035V35.4009Z" fill="black"/>
<path opacity="0.2" d="M35.0492 35.4009H30.1973V40.2528H35.0492V35.4009Z" fill="black"/>
<path opacity="0.2" d="M27.7035 43.0957H22.8516V47.9476H27.7035V43.0957Z" fill="black"/>
<path opacity="0.2" d="M35.0492 43.0957H30.1973V47.9476H35.0492V43.0957Z" fill="black"/>
<path opacity="0.2" d="M27.7035 50.7905H22.8516V55.6425H27.7035V50.7905Z" fill="black"/>
<path opacity="0.2" d="M35.0492 50.7905H30.1973V55.6425H35.0492V50.7905Z" fill="black"/>
<path opacity="0.2" d="M27.7035 58.4785H22.8516V63.3305H27.7035V58.4785Z" fill="black"/>
<path opacity="0.2" d="M35.0492 58.4785H30.1973V63.3305H35.0492V58.4785Z" fill="black"/>
<path opacity="0.2" d="M27.7035 66.1731H22.8516V71.025H27.7035V66.1731Z" fill="black"/>
<path opacity="0.2" d="M35.0492 66.1731H30.1973V71.025H35.0492V66.1731Z" fill="black"/>
<path d="M27.5465 73.6493C27.5465 73.759 27.5139 73.8663 27.4527 73.9575C27.3916 74.0487 27.3047 74.1196 27.2032 74.1613C27.1017 74.203 26.99 74.2135 26.8825 74.1916C26.7749 74.1697 26.6763 74.1163 26.5992 74.0382C26.522 73.9601 26.4698 73.8608 26.4493 73.753C26.4287 73.6452 26.4406 73.5337 26.4836 73.4327C26.5265 73.3316 26.5985 73.2457 26.6905 73.1857C26.7824 73.1257 26.8901 73.0944 26.9998 73.0957C27.0722 73.0957 27.1438 73.1101 27.2106 73.138C27.2774 73.1659 27.338 73.2068 27.3888 73.2583C27.4397 73.3098 27.4798 73.3708 27.5069 73.438C27.534 73.5051 27.5474 73.5769 27.5465 73.6493Z" fill="#263238"/>
<path d="M29.5348 73.6493C29.5348 73.7588 29.5023 73.8658 29.4415 73.9568C29.3807 74.0478 29.2942 74.1188 29.1931 74.1607C29.0919 74.2026 28.9807 74.2135 28.8733 74.1922C28.7659 74.1708 28.6673 74.1181 28.5899 74.0407C28.5124 73.9633 28.4597 73.8646 28.4384 73.7573C28.417 73.6499 28.428 73.5386 28.4699 73.4375C28.5118 73.3363 28.5827 73.2499 28.6737 73.189C28.7648 73.1282 28.8718 73.0957 28.9813 73.0957C29.0542 73.0948 29.1266 73.1085 29.1942 73.136C29.2617 73.1635 29.3231 73.2042 29.3747 73.2558C29.4263 73.3074 29.467 73.3688 29.4945 73.4364C29.522 73.5039 29.5357 73.5763 29.5348 73.6493Z" fill="#263238"/>
<path d="M31.5172 73.6493C31.5172 73.759 31.4846 73.8663 31.4234 73.9575C31.3623 74.0487 31.2754 74.1196 31.1739 74.1613C31.0724 74.203 30.9607 74.2135 30.8532 74.1916C30.7456 74.1697 30.647 74.1163 30.5699 74.0382C30.4927 73.9601 30.4406 73.8608 30.42 73.753C30.3994 73.6452 30.4113 73.5337 30.4543 73.4327C30.4972 73.3316 30.5692 73.2457 30.6612 73.1857C30.7531 73.1257 30.8608 73.0944 30.9705 73.0957C31.0429 73.0957 31.1145 73.1101 31.1813 73.138C31.2481 73.1659 31.3087 73.2068 31.3595 73.2583C31.4104 73.3098 31.4505 73.3708 31.4776 73.438C31.5046 73.5051 31.5181 73.5769 31.5172 73.6493Z" fill="#263238"/>
<path d="M99.0806 68.4626L98.2127 69.0708L97.6934 65.2781L100.857 67.2052L100.071 67.7382L101.295 69.5423L100.331 70.335L99.0806 68.4626Z" fill="#263238"/>
<path d="M165.372 110.155C165.372 110.155 161.887 126.98 159.529 131.278C157.171 135.577 143.654 135.378 143.654 135.378L128.005 134.599C128.005 134.599 125.026 124.848 137.784 129.905C137.784 129.905 148.547 127.854 152.654 124.438L156.96 106.786L165.372 110.155Z" fill="#FF8B7B"/>
<path d="M211.942 235.581H207.767L196.436 173.948L196.047 171.822L200.079 171.077L200.605 173.948L211.942 235.581Z" fill="#223A74"/>
<path opacity="0.5" d="M211.942 235.581H207.767L196.436 173.948L196.047 171.822L200.079 171.077L200.605 173.948L211.942 235.581Z" fill="white"/>
<path d="M193.935 235.581H189.814L184.156 173.948L183.555 167.387L183.418 165.932L187.498 165.556L187.669 167.387L188.27 173.948L193.935 235.581Z" fill="#223A74"/>
<path opacity="0.5" d="M193.935 235.581H189.814L184.156 173.948L183.555 167.387L183.418 165.932L187.498 165.556L187.669 167.387L188.27 173.948L193.935 235.581Z" fill="white"/>
<path d="M151.8 168.166L151.362 173.948L146.674 235.581H142.561L147.242 173.948L147.706 167.859L151.8 168.166Z" fill="#223A74"/>
<path opacity="0.5" d="M151.8 168.166L151.362 173.948L146.674 235.581H142.561L147.242 173.948L147.706 167.859L151.8 168.166Z" fill="white"/>
<path d="M139.915 168.351L138.992 173.948L128.831 235.581H124.676L134.844 173.948L135.876 167.681L139.915 168.351Z" fill="#223A74"/>
<path opacity="0.5" d="M139.915 168.351L138.992 173.948L128.831 235.581H124.676L134.844 173.948L135.876 167.681L139.915 168.351Z" fill="white"/>
<path d="M206.934 166.424L206.558 167.387L204.761 171.932C204.53 172.528 204.123 173.04 203.595 173.4C203.066 173.76 202.441 173.951 201.802 173.948H134.107C133.45 173.949 132.809 173.748 132.271 173.371C131.732 172.994 131.324 172.461 131.1 171.843L129.508 167.387L129.132 166.328C128.96 165.848 128.906 165.333 128.974 164.827C129.043 164.322 129.233 163.84 129.527 163.423C129.821 163.006 130.211 162.666 130.665 162.432C131.118 162.198 131.622 162.076 132.132 162.078H203.975C204.493 162.077 205.004 162.203 205.463 162.445C205.921 162.688 206.314 163.038 206.605 163.467C206.897 163.896 207.08 164.389 207.137 164.905C207.194 165.42 207.124 165.942 206.934 166.424Z" fill="#223A74"/>
<path opacity="0.3" d="M206.556 167.387L204.759 171.932C204.528 172.528 204.121 173.04 203.593 173.4C203.064 173.76 202.439 173.951 201.8 173.948H134.105C133.448 173.949 132.807 173.748 132.269 173.371C131.731 172.994 131.322 172.461 131.098 171.843L129.506 167.387H206.556Z" fill="black"/>
<path d="M138.001 206.681L141.199 199.417C141.385 198.994 141.718 198.652 142.137 198.456C142.555 198.26 143.031 198.222 143.475 198.351L148.532 199.786C148.796 199.862 149.042 199.994 149.251 200.172C149.46 200.351 149.628 200.573 149.744 200.822C149.86 201.072 149.921 201.343 149.923 201.618C149.925 201.894 149.868 202.166 149.755 202.417C148.389 205.506 145.792 211.26 144.972 213.317C143.858 216.18 142.922 219.631 141.432 220.595C141.341 220.655 141.245 220.707 141.145 220.752C140.831 220.881 140.488 220.923 140.153 220.874C139.817 220.825 139.5 220.687 139.236 220.474C138.972 220.261 138.77 219.981 138.652 219.663C138.533 219.345 138.502 219.001 138.562 218.668C138.958 216.262 139.389 211.765 137.94 208.137C137.851 207.902 137.811 207.653 137.822 207.403C137.833 207.153 137.894 206.907 138.001 206.681Z" fill="#263238"/>
<path d="M165.616 137.633C165.616 137.633 131.072 132.918 120.637 142.731C120.637 142.731 114.172 151.554 117.281 168.822C119.315 179.48 123.733 189.54 130.204 198.248L139.272 190.54C139.272 190.54 131.202 170.661 133.935 158.36L146.482 157.615L164.475 145.314L166.361 140.217L165.616 137.633Z" fill="#263238"/>
<path d="M131.039 201.72L127.656 197.613L140.053 187.417L142.397 189.857L131.039 201.72Z" fill="#223A74"/>
<path d="M199.574 137.257C199.574 137.257 200.531 147.098 197.408 154.301C194.285 161.503 183.248 164.141 175.806 163.663C168.364 163.185 158.763 162.57 154.683 163.718C154.683 163.718 149.401 193.67 140.278 215.51L129.234 214.554C129.234 214.554 135.234 172.28 136.198 162.46C137.161 152.64 136.676 151.178 142.676 146.38C148.676 141.583 179.408 135.098 199.574 137.257Z" fill="#263238"/>
<path d="M137.469 219.467L136.424 224.039L127.656 227.107L130.205 217.369L137.469 219.467Z" fill="#FF8B7B"/>
<path d="M127.539 226.82L134.988 224.053C135.422 223.893 135.899 223.895 136.331 224.06C136.763 224.224 137.121 224.54 137.338 224.948L139.826 229.574C139.961 229.818 140.041 230.088 140.061 230.365C140.081 230.643 140.04 230.922 139.941 231.182C139.843 231.442 139.688 231.678 139.489 231.872C139.289 232.067 139.05 232.215 138.787 232.308C135.61 233.463 129.685 235.622 127.655 236.483C124.826 237.686 121.696 239.415 119.967 239.012C119.86 238.989 119.755 238.96 119.653 238.923C119.341 238.786 119.072 238.569 118.874 238.293C118.675 238.017 118.554 237.693 118.523 237.354C118.493 237.016 118.553 236.675 118.699 236.368C118.845 236.061 119.07 235.799 119.352 235.608C121.354 234.242 124.881 231.399 126.473 227.832C126.573 227.6 126.719 227.39 126.902 227.217C127.085 227.043 127.302 226.908 127.539 226.82Z" fill="#263238"/>
<path d="M165.371 139.895C165.371 139.895 160.874 110.155 159.904 102.918C158.933 95.6812 159.904 91.9841 162.637 89.6128C165.371 87.2415 177.904 82.1777 186.316 83.5445C194.728 84.9112 198.836 91.9568 199.984 99.9454L198.029 100.923C198.029 100.923 200.53 128.64 199.621 138.228L165.371 139.895Z" fill="#223A74"/>
<path d="M162.63 89.5923C162.63 89.5923 155.98 95.4624 155.98 106.806L166.347 110.777L162.63 89.5923Z" fill="#223A74"/>
<path d="M198.186 100.813C198.186 100.813 201.951 114.125 200.919 119.626C199.888 125.128 190.519 132.508 177.493 134.968C177.493 134.968 171.705 135.98 168.37 133.232L163.307 131.784L164.755 127.294C168.615 127.362 172.415 128.255 175.901 129.911C175.901 129.911 188.345 124.267 192.254 119.927C192.254 119.927 191.817 111.098 189.651 104.893L198.186 100.813Z" fill="#FF8B7B"/>
<path d="M141.815 215.51L127.28 213.323L126.754 217.895L139.943 220.588L141.815 215.51Z" fill="#223A74"/>
<path d="M155.346 71.2643C154.446 73.8911 154.558 76.7591 155.661 79.3076C155.149 77.2749 155.244 75.1366 155.934 73.1573C156.618 71.2848 157.745 69.6379 158.62 67.8611C159.494 66.0844 160.089 64.0138 159.508 62.1208C159.385 61.745 159.112 61.3076 158.722 61.3691C158.333 61.4306 158.251 61.7586 158.141 62.0525C157.764 62.8311 157.476 63.6494 157.28 64.4921C157.185 65.1413 157.28 65.7837 157.185 66.4466C156.864 68.114 155.914 69.6311 155.346 71.2643Z" fill="#263238"/>
<path d="M159.372 65.5035C158.847 65.7016 158.388 66.0429 158.048 66.4886C157.707 66.9344 157.498 67.4667 157.445 68.0251C156.426 67.3689 155.668 66.3775 155.303 65.2221C154.937 64.0667 154.987 62.8199 155.442 61.6971C157.021 57.5969 159.16 51.7814 165.529 52.6288C171.898 53.4762 185.251 55.3623 180.468 69.5901C175.684 83.8179 170.941 66.4397 170.941 66.4397L159.372 65.5035Z" fill="#263238"/>
<path d="M173.305 92.0934C167.503 91.7312 169.963 86.7289 170.229 84.877C170.3 84.0692 170.124 83.259 169.724 82.5535C169.453 82.0296 169.123 81.5389 168.74 81.0911C166.197 81.0911 163.382 80.7494 161.366 79.041C159.111 77.1617 158.216 73.656 157.847 70.8747C157.557 68.3018 157.507 65.7075 157.696 63.1253C157.696 62.7426 157.751 62.3667 157.765 61.9909C157.853 60.508 157.949 59.0319 158.004 57.5831C158.004 57.5831 163.628 56.3462 168.651 57.4943C172.368 58.3417 174.979 61.4305 176.106 66.2893C176.522 68.1398 176.73 70.0306 176.728 71.9271C176.831 80.0046 179.995 81.4191 181.232 83.7904C182.469 86.1617 179.12 92.4351 173.305 92.0934Z" fill="#FF8B7B"/>
<path d="M162.938 72.624L161.571 67.4236L160.635 72.8906C160.635 72.8906 161.393 73.5124 162.938 72.624Z" fill="#FF5652"/>
<path d="M166.955 73.5125C166.955 73.5125 166.101 75.3439 163.381 75.6651" stroke="#263238" stroke-width="0.5" stroke-linecap="round" stroke-linejoin="round"/>
<path d="M166.669 64.704C166.298 64.2958 165.811 64.0114 165.273 63.8892C164.735 63.767 164.173 63.8129 163.662 64.0206" stroke="#263238" stroke-width="0.75" stroke-linecap="round" stroke-linejoin="round"/>
<path d="M164.511 67.2529C164.558 67.7791 164.866 68.1823 165.194 68.155C165.522 68.1277 165.754 67.6766 165.713 67.1504C165.672 66.6242 165.358 66.221 165.03 66.2484C164.702 66.2757 164.47 66.7267 164.511 67.2529Z" fill="#263238"/>
<path d="M158.469 68.7426C158.517 69.2688 158.824 69.672 159.152 69.6447C159.48 69.6173 159.712 69.1663 159.671 68.6401C159.63 68.1139 159.316 67.7039 158.988 67.7381C158.66 67.7722 158.469 68.2164 158.469 68.7426Z" fill="#263238"/>
<path d="M157.594 62.073C159.786 61.5721 161.844 60.6048 163.628 59.237C165.637 65.8794 174.193 66.1185 176.332 66.1185C175.211 61.2598 172.519 57.8839 168.815 57.0365C163.799 55.8885 157.881 57.2142 157.881 57.2142C157.826 58.6698 157.676 60.5969 157.594 62.073Z" fill="#263238"/>
<path d="M165.03 66.2484L163.629 65.9819C163.629 65.9819 163.991 67.0002 165.03 66.2484Z" fill="#263238"/>
<path d="M159.268 67.7655L157.867 67.5059C157.867 67.5059 158.229 68.5173 159.268 67.7655Z" fill="#263238"/>
<path d="M177.761 53.6901C178.458 50.8028 176.567 47.8692 173.536 47.1377C170.506 46.4063 167.484 48.1539 166.787 51.0413C166.09 53.9286 167.982 56.8623 171.012 57.5937C174.043 58.3252 177.065 56.5775 177.761 53.6901Z" fill="#263238"/>
<path d="M161.797 60.2075L160.662 61.6972C160.662 61.6972 163.662 61.1778 164.325 59.1277C164.988 57.0776 162.487 58.6835 162.487 58.6835L161.797 60.2075Z" fill="#263238"/>
<path opacity="0.1" d="M172.574 79.4648C171.839 80.674 170.87 81.7242 169.724 82.5537C169.454 82.0298 169.124 81.539 168.74 81.0913C170.092 80.7437 171.385 80.1955 172.574 79.4648Z" fill="black"/>
<path d="M157.184 66.4054C157.34 65.9192 157.663 65.5038 158.095 65.2324C158.528 64.9611 159.042 64.8513 159.548 64.9225" stroke="#263238" stroke-width="0.75" stroke-linecap="round" stroke-linejoin="round"/>
<path d="M174.584 66.9521C174.771 66.6731 174.983 66.4123 175.219 66.1731C176.019 65.3599 177.324 64.2938 178.534 64.8884C179.996 65.5717 179.689 67.656 179.278 68.9134C178.948 70.0389 178.193 70.992 177.174 71.5717C175.732 72.3166 173.586 71.9203 173.6 69.9795C173.623 68.8955 173.965 67.8424 174.584 66.9521Z" fill="#FF8B7B"/>
<path d="M176.108 64.7175C176.108 64.7175 173.716 68.7494 174.693 72.3166C175.67 75.8838 175.13 77.5649 174.454 79.4578C174.454 79.4578 174.72 74.0387 173.6 72.0843C171.891 69.0979 174.283 64.7039 174.283 64.7039L176.108 64.7175Z" fill="#263238"/>
<path d="M166.867 52.6903C166.867 52.6903 173.059 53.4283 176.783 55.9705C176.783 55.9363 173.551 51.6379 166.867 52.6903Z" fill="#223A74"/>
<path d="M90.4314 133H129.384C129.779 133 130.17 132.91 130.525 132.737C130.881 132.564 131.192 132.312 131.436 132.001C131.68 131.689 131.849 131.326 131.932 130.939C132.014 130.552 132.008 130.152 131.912 129.768L124.983 102.153C124.842 101.588 124.517 101.087 124.059 100.729C123.601 100.372 123.036 100.177 122.454 100.178H83.502C83.1064 100.177 82.716 100.267 82.3603 100.44C82.0046 100.614 81.6931 100.866 81.4494 101.177C81.2056 101.489 81.0361 101.852 80.9537 102.239C80.8712 102.626 80.878 103.026 80.9735 103.41L87.8619 131.025C88.0039 131.596 88.3353 132.102 88.8019 132.461C89.2686 132.82 89.8429 133.01 90.4314 133Z" fill="#263238"/>
<path d="M154.512 132.905H128.038V130.854H153.159C153.521 130.854 153.869 130.998 154.125 131.255C154.381 131.511 154.525 131.859 154.525 132.221V132.946L154.512 132.905Z" fill="#263238"/>
<path opacity="0.3" d="M90.4314 133H129.384C129.779 133 130.17 132.91 130.525 132.737C130.881 132.564 131.192 132.312 131.436 132.001C131.68 131.689 131.849 131.326 131.932 130.939C132.014 130.552 132.008 130.152 131.912 129.768L124.983 102.153C124.842 101.588 124.517 101.087 124.059 100.729C123.601 100.372 123.036 100.177 122.454 100.178H83.502C83.1064 100.177 82.716 100.267 82.3603 100.44C82.0046 100.614 81.6931 100.866 81.4494 101.177C81.2056 101.489 81.0361 101.852 80.9537 102.239C80.8712 102.626 80.878 103.026 80.9735 103.41L87.8619 131.025C88.0039 131.596 88.3353 132.102 88.8019 132.461C89.2686 132.82 89.8429 133.01 90.4314 133Z" fill="black"/>
<path d="M88.3874 133H127.34C127.735 133 128.126 132.91 128.481 132.737C128.837 132.564 129.149 132.312 129.392 132.001C129.636 131.689 129.806 131.326 129.888 130.939C129.97 130.552 129.964 130.152 129.868 129.768L122.932 102.153C122.791 101.588 122.466 101.087 122.008 100.729C121.55 100.372 120.985 100.177 120.403 100.178H81.4512C81.0556 100.177 80.6652 100.267 80.3095 100.44C79.9538 100.614 79.6423 100.866 79.3986 101.177C79.1549 101.489 78.9853 101.852 78.9029 102.239C78.8204 102.626 78.8272 103.026 78.9227 103.41L85.8111 131.025C85.9545 131.597 86.2872 132.103 86.755 132.462C87.2228 132.82 87.7981 133.01 88.3874 133Z" fill="#263238"/>
<path opacity="0.2" d="M88.3874 133H127.34C127.735 133 128.126 132.91 128.481 132.737C128.837 132.564 129.149 132.312 129.392 132.001C129.636 131.689 129.806 131.326 129.888 130.939C129.97 130.552 129.964 130.152 129.868 129.768L122.932 102.153C122.791 101.588 122.466 101.087 122.008 100.729C121.55 100.372 120.985 100.177 120.403 100.178H81.4512C81.0556 100.177 80.6652 100.267 80.3095 100.44C79.9538 100.614 79.6423 100.866 79.3986 101.177C79.1549 101.489 78.9853 101.852 78.9029 102.239C78.8204 102.626 78.8272 103.026 78.9227 103.41L85.8111 131.025C85.9545 131.597 86.2872 132.103 86.755 132.462C87.2228 132.82 87.7981 133.01 88.3874 133Z" fill="white"/>
<path opacity="0.3" d="M106.129 115.779C106.669 118.082 105.582 120.317 103.696 120.761C101.81 121.205 99.8282 119.702 99.2815 117.399C98.7348 115.096 99.8282 112.861 101.714 112.417C103.6 111.973 105.582 113.51 106.129 115.779Z" fill="black"/>
<path d="M78.9386 135.399L64.5673 224.524H61.3828L75.8361 134.893L78.9386 135.399Z" fill="#223A74"/>
<path opacity="0.5" d="M78.9386 135.399L64.5673 224.524H61.3828L75.8361 134.893L78.9386 135.399Z" fill="white"/>
<path d="M100.081 224.524H96.89L83.0039 135.392L86.1132 134.907L100.081 224.524Z" fill="#223A74"/>
<path opacity="0.5" d="M100.081 224.524H96.89L83.0039 135.392L86.1132 134.907L100.081 224.524Z" fill="white"/>
<path d="M133.238 135.399L118.867 224.524H115.676L130.129 134.893L133.238 135.399Z" fill="#223A74"/>
<path opacity="0.5" d="M133.238 135.399L118.867 224.524H115.676L130.129 134.893L133.238 135.399Z" fill="white"/>
<path d="M181.204 224.524H178.02L164.127 135.392L167.236 134.907L181.204 224.524Z" fill="#223A74"/>
<path opacity="0.5" d="M181.204 224.524H178.02L164.127 135.392L167.236 134.907L181.204 224.524Z" fill="white"/>
<path d="M185.12 132.358H53.0586V136.506H185.12V132.358Z" fill="#223A74"/>
<path opacity="0.3" d="M185.181 132.358H131.953V136.506H185.181V132.358Z" fill="black"/>
<path d="M180.385 132.358H158.572C158.572 132.035 158.7 131.726 158.929 131.498C159.157 131.27 159.466 131.141 159.789 131.141H179.162C179.486 131.141 179.796 131.269 180.025 131.497C180.254 131.725 180.384 132.035 180.385 132.358Z" fill="#263238"/>
<path d="M172.463 120.733L169.525 127.786C168.985 127.676 168.5 127.601 168.158 127.553L171.22 120.207C171.289 120.04 171.423 119.907 171.591 119.837C171.759 119.768 171.947 119.768 172.115 119.838C172.283 119.908 172.416 120.042 172.485 120.209C172.554 120.377 172.554 120.566 172.484 120.733H172.463Z" fill="#263238"/>
<path d="M174.541 115.212C178.315 115.212 181.374 111.669 181.374 107.298C181.374 102.928 178.315 99.385 174.541 99.385C170.767 99.385 167.707 102.928 167.707 107.298C167.707 111.669 170.767 115.212 174.541 115.212Z" fill="#263238"/>
<path d="M189.65 104.866L189.186 103.219L199.648 98.0046L200.003 99.9796L189.65 104.866Z" fill="#263238"/>
<path opacity="0.1" d="M189.186 103.219L186.016 98.4692L191.052 110.237L189.186 103.219Z" fill="black"/>
<path d="M160.703 108.61L160.416 106.827L155.98 105.139V106.827L160.703 108.61Z" fill="#263238"/>
<path opacity="0.1" d="M160.705 108.611C160.616 108.269 159.529 100.813 159.529 100.813V108.166L160.705 108.611Z" fill="black"/>
<path d="M169.539 86.1346C169.539 86.1346 166.546 92.818 173.598 92.6061C180.651 92.3943 182.428 87.187 182.783 83.3123L180.582 82.5537C180.582 82.5537 179.311 88.0207 174.541 89.1072C169.771 90.1938 170.168 85.2189 170.168 85.2189L169.539 86.1346Z" fill="#263238"/>
<path opacity="0.1" d="M129.467 220.178L136.909 221.927L137.332 220.062L129.897 218.538L129.467 220.178Z" fill="black"/>
</svg>
