<svg width="96" height="38" viewBox="0 0 96 38" fill="none" xmlns="http://www.w3.org/2000/svg">
<path d="M36.4938 10.9056L30.3177 14.3354C29.8256 14.6181 29.2786 14.3433 29.2786 13.7739V7.23437C29.2786 6.97129 29.4178 6.72981 29.6432 6.59631L36.4938 2.82098V10.9056Z" fill="white"/>
<path d="M53.1418 6.52567L46.3049 2.74249V16.3046L53.2594 12.4606C53.6359 12.2427 53.7711 11.7204 53.7711 11.2866V7.55245C53.7692 7.11857 53.5163 6.74359 53.1418 6.52567Z" fill="white"/>
<path d="M39.8895 15.1915C40.6365 15.0403 41.3463 14.7596 42.0247 14.414C42.6913 14.0744 43.3285 13.6759 44.0089 13.3617C44.3108 13.2224 44.6206 13.1065 44.9363 13.0182V1.9906L41.4679 0.0725098L37.8602 2.06717V15.272C38.5347 15.3584 39.2249 15.325 39.8895 15.1915Z" fill="white"/>
<path d="M43.7128 13.992C43.0325 14.3414 42.3815 14.7459 41.6855 15.0639C40.9953 15.378 40.2777 15.6195 39.5248 15.7235C38.9719 15.8001 38.4092 15.808 37.8602 15.7373V25.7106L40.9032 27.3499C41.2365 27.5286 41.6384 27.5286 41.9698 27.344L44.9363 25.7086V13.4913C44.5147 13.615 44.1089 13.7878 43.7128 13.992Z" fill="white"/>
<path d="M3.51155 4.20905V27.5089H0V4.20905H3.51155Z" fill="white"/>
<path d="M27.4061 4.20905V27.5089H24.1788L12.3521 10.4208H12.1364V27.5089H8.62488V4.20905H11.8737L23.7122 21.3188H23.9279V4.20905H27.4061Z" fill="white"/>
<path d="M55.673 27.5089V4.20905H63.9666C65.7684 4.20905 67.2664 4.51924 68.4604 5.14159C69.6525 5.76394 70.5446 6.62188 71.1348 7.71737C71.7269 8.81287 72.021 10.0792 72.021 11.5123C72.021 12.9377 71.723 14.1922 71.1289 15.272C70.5348 16.3517 69.6408 17.192 68.4487 17.7928C67.2546 18.3916 65.7567 18.6919 63.9548 18.6919H57.6729V15.6666H63.6372C64.7724 15.6666 65.6998 15.5036 66.4154 15.1777C67.1311 14.8518 67.6546 14.3767 67.9899 13.7563C68.3232 13.134 68.4898 12.3879 68.4898 11.5143C68.4898 10.6348 68.3212 9.87302 67.984 9.22711C67.6467 8.58317 67.1213 8.08843 66.4037 7.74289C65.688 7.39736 64.7509 7.2246 63.5921 7.2246H59.1845V27.5089H55.673ZM67.1585 16.9957L72.9072 27.5069H68.9075L63.2725 16.9957H67.1585Z" fill="white"/>
<path d="M95.0922 11.8971H91.6414C91.5081 11.159 91.2611 10.5091 90.9003 9.9496C90.5395 9.38812 90.0964 8.91301 89.573 8.52036C89.0495 8.12967 88.4652 7.83322 87.8201 7.63494C87.1751 7.43665 86.4908 7.33652 85.7693 7.33652C84.4635 7.33652 83.2969 7.66438 82.2695 8.32207C81.2421 8.97976 80.4304 9.94175 79.8363 11.212C79.2422 12.4822 78.9461 14.0312 78.9461 15.8629C78.9461 17.7084 79.2422 19.2652 79.8363 20.5354C80.4304 21.8057 81.2421 22.7657 82.2754 23.4136C83.3067 24.0634 84.4674 24.3873 85.7595 24.3873C86.4731 24.3873 87.1535 24.2892 87.7985 24.0948C88.4436 23.8985 89.0279 23.6099 89.5514 23.2251C90.0749 22.8423 90.518 22.3711 90.8827 21.8135C91.2474 21.256 91.5003 20.6159 91.6395 19.8935L95.0903 19.9052C94.9059 21.0204 94.5491 22.0432 94.0236 22.9777C93.4962 23.9122 92.8218 24.7152 92.0003 25.3906C91.1787 26.0659 90.2396 26.5881 89.1867 26.9572C88.1338 27.3263 86.9829 27.5109 85.7379 27.5109C83.7772 27.5109 82.0303 27.0436 80.497 26.1111C78.9638 25.1766 77.756 23.8396 76.8757 22.0982C75.9953 20.3568 75.5542 18.2777 75.5542 15.8649C75.5542 13.4442 75.9973 11.3651 76.8816 9.62567C77.7658 7.88819 78.9756 6.55122 80.5088 5.61672C82.042 4.68221 83.7851 4.21692 85.7398 4.21692C86.9417 4.21692 88.0632 4.38772 89.1063 4.73129C90.1494 5.07486 91.0866 5.57549 91.9199 6.2371C92.7531 6.89675 93.4413 7.70169 93.9884 8.64993C94.5334 9.59622 94.902 10.6799 95.0922 11.8971Z" fill="white"/>
<path d="M0.709915 32.0087V37.4175H0.0550537V32.0087H0.709915Z" fill="white"/>
<path d="M2.55647 34.9771V37.4174H1.93494V33.3593H2.53686V33.9935H2.5898C2.68391 33.7873 2.829 33.6224 3.02311 33.4948C3.21721 33.3692 3.46622 33.3063 3.77208 33.3063C4.04657 33.3063 4.28577 33.3633 4.49164 33.4732C4.69751 33.5851 4.85829 33.754 4.97201 33.9797C5.08573 34.2055 5.14258 34.4921 5.14258 34.8377V37.4154H4.51909V34.8789C4.51909 34.5609 4.43675 34.3115 4.27205 34.1329C4.10736 33.9542 3.87992 33.8639 3.5917 33.8639C3.39367 33.8639 3.21525 33.9071 3.06036 33.9935C2.90547 34.0799 2.78194 34.2055 2.69175 34.3704C2.60156 34.5412 2.55647 34.7415 2.55647 34.9771Z" fill="white"/>
<path d="M6.90327 34.9771V37.4174H6.28174V33.3593H6.88366V33.9935H6.9366C7.03071 33.7873 7.1758 33.6224 7.3699 33.4948C7.56401 33.3692 7.81302 33.3063 8.11888 33.3063C8.39337 33.3063 8.63257 33.3633 8.83844 33.4732C9.04431 33.5851 9.20509 33.754 9.31881 33.9797C9.43252 34.2055 9.48939 34.4921 9.48939 34.8377V37.4154H8.86589V34.8789C8.86589 34.5609 8.78355 34.3115 8.61885 34.1329C8.45415 33.9542 8.22672 33.8639 7.9385 33.8639C7.74047 33.8639 7.56205 33.9071 7.40716 33.9935C7.25227 34.0799 7.12875 34.2055 7.03855 34.3704C6.94836 34.5412 6.90327 34.7415 6.90327 34.9771Z" fill="white"/>
<path d="M12.2739 37.5018C11.9073 37.5018 11.5877 37.4154 11.3132 37.2407C11.0387 37.066 10.823 36.8225 10.6701 36.5084C10.5152 36.1943 10.4387 35.8291 10.4387 35.409C10.4387 34.9869 10.5152 34.6178 10.6701 34.3017C10.823 33.9856 11.0387 33.7422 11.3132 33.5675C11.5877 33.3927 11.9092 33.3063 12.2739 33.3063C12.6405 33.3063 12.9601 33.3927 13.2346 33.5675C13.5091 33.7422 13.7248 33.9856 13.8777 34.3017C14.0307 34.6178 14.1091 34.9849 14.1091 35.409C14.1091 35.8272 14.0326 36.1943 13.8777 36.5084C13.7228 36.8225 13.5091 37.066 13.2346 37.2407C12.9601 37.4154 12.6405 37.5018 12.2739 37.5018ZM12.2739 36.9423C12.5523 36.9423 12.7798 36.8716 12.9601 36.7283C13.1386 36.585 13.2719 36.3985 13.3582 36.1648C13.4444 35.9332 13.4876 35.6799 13.4876 35.409C13.4876 35.1381 13.4444 34.8848 13.3582 34.6512C13.2719 34.4175 13.1386 34.2271 12.9601 34.0838C12.7798 33.9385 12.5523 33.8678 12.2739 33.8678C11.9955 33.8678 11.7681 33.9405 11.5877 34.0838C11.4073 34.2271 11.2759 34.4175 11.1897 34.6512C11.1034 34.8848 11.0603 35.1381 11.0603 35.409C11.0603 35.6799 11.1034 35.9312 11.1897 36.1648C11.2759 36.3965 11.4092 36.585 11.5877 36.7283C11.7661 36.8716 11.9974 36.9423 12.2739 36.9423Z" fill="white"/>
<path d="M18.3733 33.3614L16.8754 37.4194H16.2421L14.7441 33.3614H15.4186L16.5362 36.5948H16.5793L17.6969 33.3614H18.3733Z" fill="white"/>
<path d="M20.3889 37.5136C20.132 37.5136 19.8987 37.4645 19.6889 37.3664C19.4791 37.2682 19.3125 37.1269 19.1909 36.9404C19.0693 36.7539 19.0066 36.53 19.0066 36.265C19.0066 36.0333 19.0517 35.8429 19.1438 35.6976C19.236 35.5523 19.3576 35.4385 19.5105 35.356C19.6634 35.2736 19.832 35.2107 20.0183 35.1695C20.2046 35.1283 20.3908 35.0949 20.579 35.0713C20.8261 35.0399 21.0261 35.0164 21.179 34.9987C21.3319 34.983 21.4457 34.9536 21.5162 34.9123C21.5868 34.8711 21.6221 34.8004 21.6221 34.7003V34.6787C21.6221 34.4176 21.5515 34.2154 21.4104 34.0721C21.2692 33.9268 21.0555 33.8561 20.7673 33.8561C20.4692 33.8561 20.2379 33.9209 20.0693 34.0524C19.9007 34.182 19.7811 34.3214 19.7124 34.4706L19.1223 34.2586C19.2282 34.0112 19.3693 33.8188 19.5458 33.6814C19.7222 33.5439 19.9163 33.4458 20.1261 33.3908C20.3359 33.3358 20.5438 33.3083 20.7477 33.3083C20.8771 33.3083 21.028 33.3241 21.1967 33.3555C21.3672 33.3869 21.53 33.4497 21.6907 33.5439C21.8496 33.6382 21.9829 33.7815 22.0868 33.9739C22.1907 34.1663 22.2456 34.4235 22.2456 34.7454V37.4194H21.6241V36.8697H21.5927C21.5496 36.958 21.481 37.0523 21.381 37.1524C21.2829 37.2525 21.1516 37.3389 20.9888 37.4076C20.8241 37.4783 20.6241 37.5136 20.3889 37.5136ZM20.483 36.9541C20.73 36.9541 20.9379 36.905 21.1065 36.8088C21.277 36.7126 21.4045 36.587 21.4908 36.4338C21.577 36.2807 21.6221 36.1197 21.6221 35.9509V35.3796C21.5966 35.411 21.5378 35.4404 21.4496 35.466C21.3614 35.4915 21.2594 35.5131 21.1437 35.5327C21.028 35.5504 20.9163 35.5661 20.8084 35.5798C20.7006 35.5936 20.6124 35.6034 20.5457 35.6132C20.383 35.6348 20.234 35.6682 20.0928 35.7153C19.9536 35.7624 19.8399 35.8311 19.7556 35.9234C19.6693 36.0157 19.6281 36.1413 19.6281 36.3003C19.6281 36.5163 19.7085 36.6792 19.8693 36.7912C20.032 36.8991 20.2359 36.9541 20.483 36.9541Z" fill="white"/>
<path d="M25.1475 33.3615V33.8896H23.0476V33.3615H25.1475ZM23.6593 32.3896H24.2828V36.2573C24.2828 36.4339 24.3083 36.5655 24.3613 36.6519C24.4122 36.7382 24.4789 36.7971 24.5612 36.8266C24.6436 36.856 24.7299 36.8698 24.822 36.8698C24.8906 36.8698 24.9475 36.8659 24.9906 36.858C25.0338 36.8502 25.0691 36.8443 25.0965 36.8384L25.2239 37.3979C25.1808 37.4136 25.122 37.4293 25.0475 37.447C24.971 37.4627 24.8769 37.4725 24.7593 37.4725C24.5828 37.4725 24.4122 37.4352 24.2436 37.3586C24.075 37.2821 23.9358 37.1682 23.826 37.0131C23.7162 36.858 23.6613 36.6636 23.6613 36.4261V32.3896H23.6593Z" fill="white"/>
<path d="M26.4021 32.684C26.2805 32.684 26.1766 32.6428 26.0903 32.5603C26.0041 32.4779 25.959 32.3777 25.959 32.2619C25.959 32.1461 26.0021 32.0459 26.0903 31.9635C26.1786 31.881 26.2825 31.8398 26.4021 31.8398C26.5237 31.8398 26.6276 31.881 26.7138 31.9635C26.8001 32.0459 26.8452 32.1461 26.8452 32.2619C26.8452 32.3777 26.8021 32.4779 26.7138 32.5603C26.6276 32.6428 26.5237 32.684 26.4021 32.684ZM26.0864 37.4174V33.3594H26.708V37.4174H26.0864Z" fill="white"/>
<path d="M29.4942 37.5018C29.1276 37.5018 28.808 37.4154 28.5335 37.2407C28.259 37.066 28.0434 36.8225 27.8904 36.5084C27.7355 36.1943 27.6591 35.8291 27.6591 35.409C27.6591 34.9869 27.7355 34.6178 27.8904 34.3017C28.0434 33.9856 28.259 33.7422 28.5335 33.5675C28.808 33.3927 29.1296 33.3063 29.4942 33.3063C29.8609 33.3063 30.1805 33.3927 30.455 33.5675C30.7295 33.7422 30.9451 33.9856 31.0981 34.3017C31.251 34.6178 31.3294 34.9849 31.3294 35.409C31.3294 35.8272 31.253 36.1943 31.0981 36.5084C30.9432 36.8225 30.7295 37.066 30.455 37.2407C30.1805 37.4154 29.8609 37.5018 29.4942 37.5018ZM29.4942 36.9423C29.7727 36.9423 30.0001 36.8716 30.1805 36.7283C30.3589 36.585 30.4922 36.3985 30.5785 36.1648C30.6648 35.9332 30.7079 35.6799 30.7079 35.409C30.7079 35.1381 30.6648 34.8848 30.5785 34.6512C30.4922 34.4175 30.3589 34.2271 30.1805 34.0838C30.0001 33.9385 29.7727 33.8678 29.4942 33.8678C29.2158 33.8678 28.9884 33.9405 28.808 34.0838C28.6276 34.2271 28.4963 34.4175 28.41 34.6512C28.3237 34.8848 28.2806 35.1381 28.2806 35.409C28.2806 35.6799 28.3237 35.9312 28.41 36.1648C28.4963 36.3965 28.6296 36.585 28.808 36.7283C28.9864 36.8716 29.2158 36.9423 29.4942 36.9423Z" fill="white"/>
<path d="M32.9021 34.9771V37.4174H32.2805V33.3593H32.8824V33.9935H32.9354C33.0295 33.7873 33.1746 33.6224 33.3687 33.4948C33.5628 33.3692 33.8118 33.3063 34.1177 33.3063C34.3922 33.3063 34.6314 33.3633 34.8372 33.4732C35.0431 33.5851 35.2039 33.754 35.3176 33.9797C35.4313 34.2055 35.4882 34.4921 35.4882 34.8377V37.4154H34.8647V34.8789C34.8647 34.5609 34.7823 34.3115 34.6176 34.1329C34.4529 33.9542 34.2255 33.8639 33.9373 33.8639C33.7393 33.8639 33.5608 33.9071 33.4059 33.9935C33.251 34.0799 33.1275 34.2055 33.0373 34.3704C32.9471 34.5412 32.9021 34.7415 32.9021 34.9771Z" fill="white"/>
<path d="M39.4544 32.0087V37.4175H38.7996V32.0087H39.4544Z" fill="white"/>
<path d="M42.5564 32.5898V32.0087H46.6091V32.5898H44.9092V37.4175H44.2543V32.5898H42.5564Z" fill="white"/>
<path d="M47.5366 37.4175V33.3594H48.1385V33.972H48.1797C48.2542 33.7717 48.3876 33.6088 48.5797 33.4831C48.7738 33.3575 48.9914 33.2946 49.2346 33.2946C49.2797 33.2946 49.3365 33.2946 49.4051 33.2966C49.4738 33.2986 49.5247 33.3005 49.56 33.3045V33.9386C49.5385 33.9327 49.4914 33.9249 49.4169 33.9131C49.3424 33.9013 49.264 33.8954 49.1816 33.8954C48.9856 33.8954 48.8091 33.9366 48.6562 34.0191C48.5032 34.1015 48.3817 34.2134 48.2915 34.3568C48.2032 34.5001 48.1582 34.663 48.1582 34.8476V37.4155H47.5366V37.4175Z" fill="white"/>
<path d="M52.8555 35.7586V33.3595H53.4771V37.4175H52.8555V36.7304H52.8124C52.7183 36.9365 52.5693 37.1113 52.3693 37.2546C52.1693 37.3979 51.9164 37.4705 51.6085 37.4705C51.3556 37.4705 51.1301 37.4136 50.9341 37.3037C50.738 37.1937 50.5831 37.0229 50.4694 36.7971C50.3576 36.5714 50.3008 36.2847 50.3008 35.9392V33.3615H50.9223V35.898C50.9223 36.1944 51.0047 36.43 51.1713 36.6067C51.338 36.7834 51.5497 36.8698 51.8085 36.8698C51.9634 36.8698 52.1203 36.8305 52.283 36.75C52.4438 36.6715 52.5791 36.5498 52.6889 36.3849C52.7987 36.2219 52.8555 36.0138 52.8555 35.7586Z" fill="white"/>
<path d="M57.4868 34.2704L56.928 34.4294C56.8927 34.3352 56.8418 34.2449 56.7731 34.1566C56.7065 34.0682 56.6143 33.9936 56.4967 33.9367C56.381 33.8778 56.232 33.8503 56.0516 33.8503C55.8046 33.8503 55.5967 33.9072 55.434 34.0211C55.2693 34.135 55.187 34.2783 55.187 34.453C55.187 34.6081 55.2438 34.7298 55.3556 34.8201C55.4673 34.9104 55.6438 34.985 55.883 35.0439L56.4849 35.1912C56.8476 35.2795 57.1163 35.413 57.2947 35.5937C57.4731 35.7743 57.5613 36.0059 57.5613 36.2906C57.5613 36.5223 57.4947 36.7304 57.3613 36.913C57.228 37.0955 57.0437 37.2408 56.8065 37.3468C56.5692 37.4528 56.2928 37.5059 55.9791 37.5059C55.5654 37.5059 55.2242 37.4155 54.9536 37.2369C54.6831 37.0563 54.5105 36.7952 54.4399 36.4496L55.0301 36.3024C55.087 36.5203 55.1928 36.6852 55.3497 36.7932C55.5065 36.9031 55.7124 36.9561 55.9673 36.9561C56.2575 36.9561 56.4888 36.8933 56.6594 36.7696C56.83 36.646 56.9163 36.4967 56.9163 36.322C56.9163 36.1807 56.8672 36.0629 56.7692 35.9667C56.6712 35.8705 56.5202 35.7998 56.3163 35.7507L55.6418 35.5917C55.2713 35.5033 54.9987 35.3659 54.8262 35.1814C54.6537 34.9949 54.5654 34.7632 54.5654 34.4825C54.5654 34.2528 54.6301 34.0505 54.7595 33.8758C54.8889 33.6991 55.0654 33.5617 55.2889 33.4616C55.5124 33.3614 55.7673 33.3104 56.0516 33.3104C56.4516 33.3104 56.7673 33.3987 56.9966 33.5754C57.228 33.7482 57.3907 33.9818 57.4868 34.2704Z" fill="white"/>
<path d="M60.2609 33.3615V33.8896H58.161V33.3615H60.2609ZM58.7747 32.3896H59.3962V36.2573C59.3962 36.4339 59.4217 36.5655 59.4747 36.6519C59.5256 36.7382 59.5943 36.7971 59.6746 36.8266C59.757 36.856 59.8433 36.8698 59.9354 36.8698C60.004 36.8698 60.0609 36.8659 60.104 36.858C60.1472 36.8502 60.1825 36.8443 60.2099 36.8384L60.3373 37.3979C60.2962 37.4136 60.2354 37.4293 60.1609 37.447C60.0844 37.4627 59.9903 37.4725 59.8727 37.4725C59.6962 37.4725 59.5256 37.4352 59.357 37.3586C59.1884 37.2821 59.0492 37.1682 58.9414 37.0131C58.8316 36.858 58.7767 36.6636 58.7767 36.4261V32.3896H58.7747Z" fill="white"/>
<path d="M64.0294 32.0087V37.4175H63.3745V32.0087H64.0294Z" fill="white"/>
<path d="M71.7739 33.699H71.119C71.0798 33.5106 71.0131 33.3456 70.9171 33.2023C70.821 33.059 70.7053 32.9393 70.5681 32.8411C70.4308 32.7429 70.2818 32.6703 70.1152 32.6212C69.9505 32.5721 69.7779 32.5466 69.5975 32.5466C69.2701 32.5466 68.974 32.6291 68.7093 32.794C68.4447 32.9589 68.2349 33.2023 68.078 33.5263C67.9212 33.8502 67.8447 34.2448 67.8447 34.7121C67.8447 35.1793 67.9231 35.5759 68.078 35.8979C68.2329 36.2198 68.4447 36.4633 68.7093 36.6302C68.974 36.7951 69.2701 36.8775 69.5975 36.8775C69.776 36.8775 69.9485 36.852 70.1152 36.8029C70.2798 36.7538 70.4308 36.6792 70.5681 36.583C70.7034 36.4849 70.821 36.3651 70.9171 36.2218C71.0131 36.0785 71.0798 35.9136 71.119 35.7271H71.7739C71.7249 36.0039 71.6347 36.2513 71.5053 36.4692C71.3759 36.6871 71.2131 36.8736 71.021 37.0248C70.8269 37.1779 70.6112 37.2937 70.37 37.3723C70.1308 37.4508 69.874 37.492 69.6014 37.492C69.1407 37.492 68.7309 37.3801 68.3721 37.1543C68.0133 36.9286 67.731 36.6086 67.5251 36.1924C67.3192 35.7761 67.2173 35.2834 67.2173 34.714C67.2173 34.1427 67.3212 33.65 67.5251 33.2357C67.731 32.8195 68.0133 32.4995 68.3721 32.2737C68.7309 32.0479 69.1407 31.936 69.6014 31.936C69.874 31.936 70.1308 31.9753 70.37 32.0538C70.6092 32.1324 70.8269 32.2482 71.021 32.4013C71.2151 32.5545 71.3759 32.739 71.5053 32.9569C71.6347 33.1729 71.7229 33.4202 71.7739 33.699Z" fill="white"/>
<path d="M72.7446 37.4175V33.3594H73.3466V33.972H73.3877C73.4622 33.7717 73.5956 33.6088 73.7877 33.4831C73.9818 33.3575 74.1994 33.2946 74.4426 33.2946C74.4877 33.2946 74.5445 33.2946 74.6131 33.2966C74.6818 33.2986 74.7327 33.3005 74.768 33.3045V33.9386C74.7465 33.9327 74.6994 33.9249 74.6249 33.9131C74.5504 33.9013 74.472 33.8954 74.3896 33.8954C74.1936 33.8954 74.0171 33.9366 73.8642 34.0191C73.7112 34.1015 73.5897 34.2134 73.4995 34.3568C73.4112 34.5001 73.3662 34.663 73.3662 34.8476V37.4155H72.7446V37.4175Z" fill="white"/>
<path d="M77.2068 37.5019C76.8167 37.5019 76.4794 37.4155 76.1971 37.2407C75.9148 37.066 75.6971 36.8245 75.5462 36.5124C75.3932 36.2002 75.3187 35.8351 75.3187 35.4208C75.3187 35.0046 75.3952 34.6394 75.5462 34.3214C75.6991 34.0033 75.9108 33.756 76.1834 33.5773C76.4579 33.3987 76.7775 33.3083 77.1421 33.3083C77.3539 33.3083 77.5617 33.3437 77.7676 33.4144C77.9735 33.485 78.1597 33.5989 78.3303 33.756C78.5009 33.913 78.6342 34.1211 78.7342 34.3803C78.8342 34.6394 78.8852 34.9575 78.8852 35.3364V35.6014H75.7618V35.0615H78.2519C78.2519 34.8318 78.2068 34.6277 78.1166 34.449C78.0264 34.2703 77.897 34.127 77.7323 34.023C77.5676 33.9189 77.3696 33.8679 77.1461 33.8679C76.899 33.8679 76.6833 33.9287 76.503 34.0524C76.3226 34.1741 76.1834 34.3332 76.0873 34.5295C75.9912 34.7258 75.9422 34.9339 75.9422 35.1577V35.517C75.9422 35.8233 75.9952 36.0824 76.101 36.2944C76.2069 36.5065 76.3559 36.6675 76.5461 36.7774C76.7363 36.8874 76.9559 36.9423 77.2088 36.9423C77.3715 36.9423 77.5205 36.9188 77.6539 36.8716C77.7872 36.8245 77.9009 36.7539 77.999 36.6596C78.097 36.5654 78.1715 36.4476 78.2225 36.3062L78.8244 36.4751C78.7617 36.6792 78.6538 36.8579 78.5048 37.013C78.3558 37.1681 78.1715 37.2859 77.9499 37.3723C77.7284 37.4606 77.4813 37.5019 77.2068 37.5019Z" fill="white"/>
<path d="M81.0264 37.5136C80.7696 37.5136 80.5363 37.4645 80.3265 37.3664C80.1167 37.2682 79.95 37.1269 79.8285 36.9404C79.7069 36.7539 79.6442 36.53 79.6442 36.265C79.6442 36.0333 79.6893 35.8429 79.7814 35.6976C79.8736 35.5523 79.9951 35.4385 80.1481 35.356C80.301 35.2736 80.4696 35.2107 80.6559 35.1695C80.8421 35.1283 81.0284 35.0949 81.2166 35.0713C81.4637 35.0399 81.6637 35.0164 81.8166 34.9987C81.9715 34.983 82.0832 34.9536 82.1538 34.9123C82.2244 34.8711 82.2597 34.8004 82.2597 34.7003V34.6787C82.2597 34.4176 82.1891 34.2154 82.0479 34.0721C81.9068 33.9268 81.6931 33.8561 81.4048 33.8561C81.1068 33.8561 80.8755 33.9209 80.7049 34.0524C80.5363 34.182 80.4167 34.3214 80.348 34.4706L79.7579 34.2586C79.8638 34.0112 80.0049 33.8188 80.1814 33.6814C80.3578 33.5439 80.552 33.4458 80.7617 33.3908C80.9715 33.3358 81.1794 33.3083 81.3833 33.3083C81.5127 33.3083 81.6636 33.3241 81.8323 33.3555C82.0028 33.3869 82.1656 33.4497 82.3264 33.5439C82.4852 33.6382 82.6185 33.7815 82.7224 33.9739C82.8263 34.1663 82.8812 34.4235 82.8812 34.7454V37.4194H82.2577V36.8697H82.2264C82.1852 36.958 82.1146 37.0523 82.0146 37.1524C81.9166 37.2525 81.7852 37.3389 81.6225 37.4076C81.4597 37.4763 81.2617 37.5136 81.0264 37.5136ZM81.1225 36.9541C81.3695 36.9541 81.5774 36.905 81.746 36.8088C81.9146 36.7126 82.044 36.587 82.1303 36.4338C82.2166 36.2807 82.2616 36.1197 82.2616 35.9509V35.3796C82.2362 35.411 82.1773 35.4404 82.0891 35.466C82.0009 35.4915 81.8989 35.5131 81.7832 35.5327C81.6676 35.5504 81.5558 35.5661 81.448 35.5798C81.3401 35.5936 81.2519 35.6034 81.1852 35.6132C81.0225 35.6348 80.8735 35.6682 80.7323 35.7153C80.5931 35.7624 80.4794 35.8311 80.3951 35.9234C80.3108 36.0157 80.2677 36.1413 80.2677 36.3003C80.2677 36.5163 80.348 36.6792 80.5088 36.7912C80.6696 36.8991 80.8735 36.9541 81.1225 36.9541Z" fill="white"/>
<path d="M85.7847 33.3615V33.8896H83.6848V33.3615H85.7847ZM84.2965 32.3896H84.9181V36.2573C84.9181 36.4339 84.9436 36.5655 84.9965 36.6519C85.0475 36.7382 85.1161 36.7971 85.1965 36.8266C85.2788 36.856 85.3651 36.8698 85.4573 36.8698C85.5259 36.8698 85.5827 36.8659 85.6259 36.858C85.669 36.8502 85.7043 36.8443 85.7317 36.8384L85.8592 37.3979C85.818 37.4136 85.7572 37.4293 85.6827 37.447C85.6063 37.4627 85.5122 37.4725 85.3945 37.4725C85.2181 37.4725 85.0475 37.4352 84.8789 37.3586C84.7102 37.2821 84.571 37.1682 84.4632 37.0131C84.3534 36.858 84.2985 36.6636 84.2985 36.4261V32.3896H84.2965Z" fill="white"/>
<path d="M87.0416 32.684C86.9201 32.684 86.8162 32.6428 86.7299 32.5603C86.6436 32.4779 86.5985 32.3777 86.5985 32.2619C86.5985 32.1461 86.6417 32.0459 86.7299 31.9635C86.8162 31.881 86.922 31.8398 87.0416 31.8398C87.1612 31.8398 87.2671 31.881 87.3534 31.9635C87.4396 32.0459 87.4847 32.1461 87.4847 32.2619C87.4847 32.3777 87.4416 32.4779 87.3534 32.5603C87.2671 32.6428 87.1612 32.684 87.0416 32.684ZM86.724 37.4174V33.3594H87.3455V37.4174H86.724Z" fill="white"/>
<path d="M91.8003 33.3614L90.3024 37.4194H89.6691L88.1711 33.3614H88.8456L89.9652 36.5948H90.0063L91.1239 33.3614H91.8003Z" fill="white"/>
<path d="M94.3217 37.5019C93.9315 37.5019 93.5943 37.4155 93.312 37.2407C93.0296 37.066 92.812 36.8245 92.661 36.5124C92.5081 36.2002 92.4336 35.8351 92.4336 35.4208C92.4336 35.0046 92.5101 34.6394 92.661 34.3214C92.814 34.0033 93.0257 33.756 93.2983 33.5773C93.5727 33.3987 93.8923 33.3083 94.257 33.3083C94.4688 33.3083 94.6766 33.3437 94.8825 33.4144C95.0883 33.485 95.2746 33.5989 95.4452 33.756C95.6157 33.913 95.7491 34.1211 95.8491 34.3803C95.9491 34.6394 96 34.9575 96 35.3364V35.6014H92.8767V35.0615H95.3668C95.3668 34.8318 95.3217 34.6277 95.2315 34.449C95.1413 34.2703 95.0119 34.127 94.8472 34.023C94.6825 33.9189 94.4844 33.8679 94.2609 33.8679C94.0139 33.8679 93.7982 33.9287 93.6178 34.0524C93.4375 34.1741 93.2983 34.3332 93.2022 34.5295C93.1061 34.7258 93.0571 34.9339 93.0571 35.1577V35.517C93.0571 35.8233 93.11 36.0824 93.2159 36.2944C93.3218 36.5065 93.4708 36.6675 93.661 36.7774C93.8512 36.8874 94.0708 36.9423 94.3237 36.9423C94.4864 36.9423 94.6354 36.9188 94.7688 36.8716C94.9021 36.8245 95.0158 36.7539 95.1138 36.6596C95.2119 36.5654 95.2864 36.4476 95.3373 36.3062L95.9393 36.4751C95.8765 36.6792 95.7687 36.8579 95.6197 37.013C95.4707 37.1681 95.2864 37.2859 95.0648 37.3723C94.8433 37.4606 94.5962 37.5019 94.3217 37.5019Z" fill="white"/>
</svg>
