<svg width="490" height="192" viewBox="0 0 490 192" fill="none" xmlns="http://www.w3.org/2000/svg">
<path d="M186.3 56.01L154.8 73.48C152.29 74.92 149.5 73.52 149.5 70.62V37.31C149.5 35.97 150.21 34.74 151.36 34.06L186.3 14.83V56.01Z" fill="#75EABD"/>
<path d="M271.21 33.7L236.34 14.43V83.51L271.81 63.93C273.73 62.82 274.42 60.16 274.42 57.95V38.93C274.41 36.72 273.12 34.81 271.21 33.7Z" fill="#233974"/>
<path d="M203.62 77.84C207.43 77.07 211.05 75.64 214.51 73.88C217.91 72.15 221.16 70.12 224.63 68.52C226.17 67.81 227.75 67.22 229.36 66.77V10.6L211.67 0.830017L193.27 10.99V78.25C196.71 78.69 200.23 78.52 203.62 77.84Z" fill="#75EABD"/>
<path d="M223.12 71.73C219.65 73.51 216.33 75.57 212.78 77.19C209.26 78.79 205.6 80.02 201.76 80.55C198.94 80.94 196.07 80.98 193.27 80.62V131.42L208.79 139.77C210.49 140.68 212.54 140.68 214.23 139.74L229.36 131.41V69.18C227.21 69.81 225.14 70.69 223.12 71.73Z" fill="#233974"/>
<path d="M18.08 21.9V140.58H0.169983V21.9H18.08Z" fill="#233974"/>
<path d="M139.95 21.9V140.58H123.49L63.17 53.54H62.07V140.58H44.16V21.9H60.73L121.11 109.05H122.21V21.9H139.95Z" fill="#233974"/>
<path d="M284.12 140.58V21.9H326.42C335.61 21.9 343.25 23.48 349.34 26.65C355.42 29.82 359.97 34.19 362.98 39.77C366 45.35 367.5 51.8 367.5 59.1C367.5 66.36 365.98 72.75 362.95 78.25C359.92 83.75 355.36 88.03 349.28 91.09C343.19 94.14 335.55 95.67 326.36 95.67H294.32V80.26H324.74C330.53 80.26 335.26 79.43 338.91 77.77C342.56 76.11 345.23 73.69 346.94 70.53C348.64 67.36 349.49 63.56 349.49 59.11C349.49 54.63 348.63 50.75 346.91 47.46C345.19 44.18 342.51 41.66 338.85 39.9C335.2 38.14 330.42 37.26 324.51 37.26H302.03V140.58H284.12ZM342.7 87.03L372.02 140.57H351.62L322.88 87.03H342.7Z" fill="#233974"/>
<path d="M485.17 61.06H467.57C466.89 57.3 465.63 53.99 463.79 51.14C461.95 48.28 459.69 45.86 457.02 43.86C454.35 41.87 451.37 40.36 448.08 39.35C444.79 38.34 441.3 37.83 437.62 37.83C430.96 37.83 425.01 39.5 419.77 42.85C414.53 46.2 410.39 51.1 407.36 57.57C404.33 64.04 402.82 71.93 402.82 81.26C402.82 90.66 404.33 98.59 407.36 105.06C410.39 111.53 414.53 116.42 419.8 119.72C425.06 123.03 430.98 124.68 437.57 124.68C441.21 124.68 444.68 124.18 447.97 123.19C451.26 122.19 454.24 120.72 456.91 118.76C459.58 116.81 461.84 114.41 463.7 111.57C465.56 108.73 466.85 105.47 467.56 101.79L485.16 101.85C484.22 107.53 482.4 112.74 479.72 117.5C477.03 122.26 473.59 126.35 469.4 129.79C465.21 133.23 460.42 135.89 455.05 137.77C449.68 139.65 443.81 140.59 437.46 140.59C427.46 140.59 418.55 138.21 410.73 133.46C402.91 128.7 396.75 121.89 392.26 113.02C387.77 104.15 385.52 93.56 385.52 81.27C385.52 68.94 387.78 58.35 392.29 49.49C396.8 40.64 402.97 33.83 410.79 29.07C418.61 24.31 427.5 21.94 437.47 21.94C443.6 21.94 449.32 22.81 454.64 24.56C459.96 26.31 464.74 28.86 468.99 32.23C473.24 35.59 476.75 39.69 479.54 44.52C482.32 49.34 484.2 54.86 485.17 61.06Z" fill="#233974"/>
<path d="M3.78995 163.5V191.05H0.449951V163.5H3.78995Z" fill="#233974"/>
<path d="M13.2099 178.62V191.05H10.0399V170.38H13.1099V173.61H13.3799C13.8599 172.56 14.5999 171.72 15.5899 171.07C16.5799 170.43 17.8499 170.11 19.4099 170.11C20.8099 170.11 22.0299 170.4 23.0799 170.96C24.1299 171.53 24.9499 172.39 25.5299 173.54C26.1099 174.69 26.3999 176.15 26.3999 177.91V191.04H23.2199V178.12C23.2199 176.5 22.7999 175.23 21.9599 174.32C21.1199 173.41 19.9599 172.95 18.4899 172.95C17.4799 172.95 16.5699 173.17 15.7799 173.61C14.9899 174.05 14.3599 174.69 13.8999 175.53C13.4399 176.4 13.2099 177.42 13.2099 178.62Z" fill="#233974"/>
<path d="M35.38 178.62V191.05H32.21V170.38H35.28V173.61H35.55C36.03 172.56 36.7699 171.72 37.7599 171.07C38.7499 170.43 40.02 170.11 41.58 170.11C42.98 170.11 44.2 170.4 45.25 170.96C46.3 171.53 47.12 172.39 47.7 173.54C48.28 174.69 48.57 176.15 48.57 177.91V191.04H45.39V178.12C45.39 176.5 44.97 175.23 44.13 174.32C43.29 173.41 42.13 172.95 40.66 172.95C39.65 172.95 38.74 173.17 37.95 173.61C37.16 174.05 36.53 174.69 36.07 175.53C35.61 176.4 35.38 177.42 35.38 178.62Z" fill="#233974"/>
<path d="M62.77 191.48C60.9 191.48 59.27 191.04 57.87 190.15C56.47 189.26 55.37 188.02 54.59 186.42C53.8 184.82 53.41 182.96 53.41 180.82C53.41 178.67 53.8 176.79 54.59 175.18C55.37 173.57 56.47 172.33 57.87 171.44C59.27 170.55 60.91 170.11 62.77 170.11C64.64 170.11 66.27 170.55 67.67 171.44C69.07 172.33 70.17 173.57 70.95 175.18C71.73 176.79 72.13 178.66 72.13 180.82C72.13 182.95 71.74 184.82 70.95 186.42C70.16 188.02 69.07 189.26 67.67 190.15C66.27 191.04 64.64 191.48 62.77 191.48ZM62.77 188.63C64.19 188.63 65.35 188.27 66.27 187.54C67.18 186.81 67.86 185.86 68.3 184.67C68.74 183.49 68.96 182.2 68.96 180.82C68.96 179.44 68.74 178.15 68.3 176.96C67.86 175.77 67.18 174.8 66.27 174.07C65.35 173.33 64.19 172.97 62.77 172.97C61.35 172.97 60.19 173.34 59.27 174.07C58.35 174.8 57.68 175.77 57.24 176.96C56.8 178.15 56.58 179.44 56.58 180.82C56.58 182.2 56.8 183.48 57.24 184.67C57.68 185.85 58.36 186.81 59.27 187.54C60.18 188.27 61.36 188.63 62.77 188.63Z" fill="#233974"/>
<path d="M93.8799 170.39L86.2399 191.06H83.0099L75.3699 170.39H78.8099L84.5099 186.86H84.7299L90.4299 170.39H93.8799Z" fill="#233974"/>
<path d="M104.16 191.54C102.85 191.54 101.66 191.29 100.59 190.79C99.5199 190.29 98.6699 189.57 98.0499 188.62C97.4299 187.67 97.1099 186.53 97.1099 185.18C97.1099 184 97.3399 183.03 97.8099 182.29C98.2799 181.55 98.8999 180.97 99.6799 180.55C100.46 180.13 101.32 179.81 102.27 179.6C103.22 179.39 104.17 179.22 105.13 179.1C106.39 178.94 107.41 178.82 108.19 178.73C108.97 178.65 109.55 178.5 109.91 178.29C110.27 178.08 110.45 177.72 110.45 177.21V177.1C110.45 175.77 110.09 174.74 109.37 174.01C108.65 173.27 107.56 172.91 106.09 172.91C104.57 172.91 103.39 173.24 102.53 173.91C101.67 174.57 101.06 175.28 100.71 176.04L97.7 174.96C98.24 173.7 98.9599 172.72 99.8599 172.02C100.76 171.32 101.75 170.82 102.82 170.54C103.89 170.26 104.95 170.12 105.99 170.12C106.65 170.12 107.42 170.2 108.28 170.36C109.15 170.52 109.98 170.84 110.8 171.32C111.61 171.8 112.29 172.53 112.82 173.51C113.35 174.49 113.63 175.8 113.63 177.44V191.06H110.46V188.26H110.3C110.08 188.71 109.73 189.19 109.22 189.7C108.72 190.21 108.05 190.65 107.22 191C106.38 191.36 105.36 191.54 104.16 191.54ZM104.64 188.69C105.9 188.69 106.96 188.44 107.82 187.95C108.69 187.46 109.34 186.82 109.78 186.04C110.22 185.26 110.45 184.44 110.45 183.58V180.67C110.32 180.83 110.02 180.98 109.57 181.11C109.12 181.24 108.6 181.35 108.01 181.45C107.42 181.54 106.85 181.62 106.3 181.69C105.75 181.76 105.3 181.81 104.96 181.86C104.13 181.97 103.37 182.14 102.65 182.38C101.94 182.62 101.36 182.97 100.93 183.44C100.49 183.91 100.28 184.55 100.28 185.36C100.28 186.46 100.69 187.29 101.51 187.86C102.34 188.41 103.38 188.69 104.64 188.69Z" fill="#233974"/>
<path d="M128.43 170.39V173.08H117.72V170.39H128.43ZM120.84 165.44H124.02V185.14C124.02 186.04 124.15 186.71 124.42 187.15C124.68 187.59 125.02 187.89 125.44 188.04C125.86 188.19 126.3 188.26 126.77 188.26C127.12 188.26 127.41 188.24 127.63 188.2C127.85 188.16 128.03 188.13 128.17 188.1L128.82 190.95C128.6 191.03 128.3 191.11 127.92 191.2C127.53 191.28 127.05 191.33 126.45 191.33C125.55 191.33 124.68 191.14 123.82 190.75C122.96 190.36 122.25 189.78 121.69 188.99C121.13 188.2 120.85 187.21 120.85 186V165.44H120.84Z" fill="#233974"/>
<path d="M134.83 166.94C134.21 166.94 133.68 166.73 133.24 166.31C132.8 165.89 132.57 165.38 132.57 164.79C132.57 164.2 132.79 163.69 133.24 163.27C133.69 162.85 134.22 162.64 134.83 162.64C135.45 162.64 135.98 162.85 136.42 163.27C136.86 163.69 137.09 164.2 137.09 164.79C137.09 165.38 136.87 165.89 136.42 166.31C135.98 166.73 135.45 166.94 134.83 166.94ZM133.22 191.05V170.38H136.39V191.05H133.22Z" fill="#233974"/>
<path d="M150.6 191.48C148.73 191.48 147.1 191.04 145.7 190.15C144.3 189.26 143.2 188.02 142.42 186.42C141.63 184.82 141.24 182.96 141.24 180.82C141.24 178.67 141.63 176.79 142.42 175.18C143.2 173.57 144.3 172.33 145.7 171.44C147.1 170.55 148.74 170.11 150.6 170.11C152.47 170.11 154.1 170.55 155.5 171.44C156.9 172.33 158 173.57 158.78 175.18C159.56 176.79 159.96 178.66 159.96 180.82C159.96 182.95 159.57 184.82 158.78 186.42C157.99 188.02 156.9 189.26 155.5 190.15C154.1 191.04 152.47 191.48 150.6 191.48ZM150.6 188.63C152.02 188.63 153.18 188.27 154.1 187.54C155.01 186.81 155.69 185.86 156.13 184.67C156.57 183.49 156.79 182.2 156.79 180.82C156.79 179.44 156.57 178.15 156.13 176.96C155.69 175.77 155.01 174.8 154.1 174.07C153.18 173.33 152.02 172.97 150.6 172.97C149.18 172.97 148.02 173.34 147.1 174.07C146.18 174.8 145.51 175.77 145.07 176.96C144.63 178.15 144.41 179.44 144.41 180.82C144.41 182.2 144.63 183.48 145.07 184.67C145.51 185.85 146.19 186.81 147.1 187.54C148.01 188.27 149.18 188.63 150.6 188.63Z" fill="#233974"/>
<path d="M167.98 178.62V191.05H164.81V170.38H167.88V173.61H168.15C168.63 172.56 169.37 171.72 170.36 171.07C171.35 170.43 172.62 170.11 174.18 170.11C175.58 170.11 176.8 170.4 177.85 170.96C178.9 171.53 179.72 172.39 180.3 173.54C180.88 174.69 181.17 176.15 181.17 177.91V191.04H177.99V178.12C177.99 176.5 177.57 175.23 176.73 174.32C175.89 173.41 174.73 172.95 173.26 172.95C172.25 172.95 171.34 173.17 170.55 173.61C169.76 174.05 169.13 174.69 168.67 175.53C168.21 176.4 167.98 177.42 167.98 178.62Z" fill="#233974"/>
<path d="M201.4 163.5V191.05H198.06V163.5H201.4Z" fill="#75EABD"/>
<path d="M217.22 166.46V163.5H237.89V166.46H229.22V191.05H225.88V166.46H217.22Z" fill="#233974"/>
<path d="M242.62 191.05V170.38H245.69V173.5H245.9C246.28 172.48 246.96 171.65 247.94 171.01C248.93 170.37 250.04 170.05 251.28 170.05C251.51 170.05 251.8 170.05 252.15 170.06C252.5 170.07 252.76 170.08 252.94 170.1V173.33C252.83 173.3 252.59 173.26 252.21 173.2C251.83 173.14 251.43 173.11 251.01 173.11C250.01 173.11 249.11 173.32 248.33 173.74C247.55 174.16 246.93 174.73 246.47 175.46C246.02 176.19 245.79 177.02 245.79 177.96V191.04H242.62V191.05Z" fill="#233974"/>
<path d="M269.75 182.6V170.38H272.92V191.05H269.75V187.55H269.53C269.05 188.6 268.29 189.49 267.27 190.22C266.25 190.95 264.96 191.32 263.39 191.32C262.1 191.32 260.95 191.03 259.95 190.47C258.95 189.91 258.16 189.04 257.58 187.89C257.01 186.74 256.72 185.28 256.72 183.52V170.39H259.89V183.31C259.89 184.82 260.31 186.02 261.16 186.92C262.01 187.82 263.09 188.26 264.41 188.26C265.2 188.26 266 188.06 266.83 187.65C267.65 187.25 268.34 186.63 268.9 185.79C269.46 184.96 269.75 183.9 269.75 182.6Z" fill="#233974"/>
<path d="M293.37 175.02L290.52 175.83C290.34 175.35 290.08 174.89 289.73 174.44C289.39 173.99 288.92 173.61 288.32 173.32C287.73 173.02 286.97 172.88 286.05 172.88C284.79 172.88 283.73 173.17 282.9 173.75C282.06 174.33 281.64 175.06 281.64 175.95C281.64 176.74 281.93 177.36 282.5 177.82C283.07 178.28 283.97 178.66 285.19 178.96L288.26 179.71C290.11 180.16 291.48 180.84 292.39 181.76C293.3 182.68 293.75 183.86 293.75 185.31C293.75 186.49 293.41 187.55 292.73 188.48C292.05 189.41 291.11 190.15 289.9 190.69C288.69 191.23 287.28 191.5 285.68 191.5C283.57 191.5 281.83 191.04 280.45 190.13C279.07 189.21 278.19 187.88 277.83 186.12L280.84 185.37C281.13 186.48 281.67 187.32 282.47 187.87C283.27 188.43 284.32 188.7 285.62 188.7C287.1 188.7 288.28 188.38 289.15 187.75C290.02 187.12 290.46 186.36 290.46 185.47C290.46 184.75 290.21 184.15 289.71 183.66C289.21 183.17 288.44 182.81 287.4 182.56L283.96 181.75C282.07 181.3 280.68 180.6 279.8 179.66C278.92 178.71 278.47 177.53 278.47 176.1C278.47 174.93 278.8 173.9 279.46 173.01C280.12 172.11 281.02 171.41 282.16 170.9C283.3 170.39 284.6 170.13 286.05 170.13C288.09 170.13 289.7 170.58 290.87 171.48C292.05 172.36 292.88 173.55 293.37 175.02Z" fill="#233974"/>
<path d="M307.52 170.39V173.08H296.81V170.39H307.52ZM299.94 165.44H303.11V185.14C303.11 186.04 303.24 186.71 303.51 187.15C303.77 187.59 304.12 187.89 304.53 188.04C304.95 188.19 305.39 188.26 305.86 188.26C306.21 188.26 306.5 188.24 306.72 188.2C306.94 188.16 307.12 188.13 307.26 188.1L307.91 190.95C307.7 191.03 307.39 191.11 307.01 191.2C306.62 191.28 306.14 191.33 305.54 191.33C304.64 191.33 303.77 191.14 302.91 190.75C302.05 190.36 301.34 189.78 300.79 188.99C300.23 188.2 299.95 187.21 299.95 186V165.44H299.94Z" fill="#233974"/>
<path d="M326.74 163.5V191.05H323.4V163.5H326.74Z" fill="#75EABD"/>
<path d="M366.24 172.11H362.9C362.7 171.15 362.36 170.31 361.87 169.58C361.38 168.85 360.79 168.24 360.09 167.74C359.39 167.24 358.63 166.87 357.78 166.62C356.94 166.37 356.06 166.24 355.14 166.24C353.47 166.24 351.96 166.66 350.61 167.5C349.26 168.34 348.19 169.58 347.39 171.23C346.59 172.88 346.2 174.89 346.2 177.27C346.2 179.65 346.6 181.67 347.39 183.31C348.18 184.95 349.26 186.19 350.61 187.04C351.96 187.88 353.47 188.3 355.14 188.3C356.05 188.3 356.93 188.17 357.78 187.92C358.62 187.67 359.39 187.29 360.09 186.8C360.78 186.3 361.38 185.69 361.87 184.96C362.36 184.23 362.7 183.39 362.9 182.44H366.24C365.99 183.85 365.53 185.11 364.87 186.22C364.21 187.33 363.38 188.28 362.4 189.05C361.41 189.83 360.31 190.42 359.08 190.82C357.86 191.22 356.55 191.43 355.16 191.43C352.81 191.43 350.72 190.86 348.89 189.71C347.06 188.56 345.62 186.93 344.57 184.81C343.52 182.69 343 180.18 343 177.28C343 174.37 343.53 171.86 344.57 169.75C345.62 167.63 347.06 166 348.89 164.85C350.72 163.7 352.81 163.13 355.16 163.13C356.55 163.13 357.86 163.33 359.08 163.73C360.3 164.13 361.41 164.72 362.4 165.5C363.39 166.28 364.21 167.22 364.87 168.33C365.53 169.43 365.98 170.69 366.24 172.11Z" fill="#233974"/>
<path d="M371.19 191.05V170.38H374.26V173.5H374.47C374.85 172.48 375.53 171.65 376.51 171.01C377.5 170.37 378.61 170.05 379.85 170.05C380.08 170.05 380.37 170.05 380.72 170.06C381.07 170.07 381.33 170.08 381.51 170.1V173.33C381.4 173.3 381.16 173.26 380.78 173.2C380.4 173.14 380 173.11 379.58 173.11C378.58 173.11 377.68 173.32 376.9 173.74C376.12 174.16 375.5 174.73 375.04 175.46C374.59 176.19 374.36 177.02 374.36 177.96V191.04H371.19V191.05Z" fill="#233974"/>
<path d="M393.95 191.48C391.96 191.48 390.24 191.04 388.8 190.15C387.36 189.26 386.25 188.03 385.48 186.44C384.7 184.85 384.32 182.99 384.32 180.88C384.32 178.76 384.71 176.9 385.48 175.28C386.26 173.66 387.34 172.4 388.73 171.49C390.13 170.58 391.76 170.12 393.62 170.12C394.7 170.12 395.76 170.3 396.81 170.66C397.86 171.02 398.81 171.6 399.68 172.4C400.55 173.2 401.23 174.26 401.74 175.58C402.25 176.9 402.51 178.52 402.51 180.45V181.8H386.58V179.05H399.28C399.28 177.88 399.05 176.84 398.59 175.93C398.13 175.02 397.47 174.29 396.63 173.76C395.79 173.23 394.78 172.97 393.64 172.97C392.38 172.97 391.28 173.28 390.36 173.91C389.44 174.53 388.73 175.34 388.24 176.34C387.75 177.34 387.5 178.4 387.5 179.54V181.37C387.5 182.93 387.77 184.25 388.31 185.33C388.85 186.41 389.61 187.23 390.58 187.79C391.55 188.35 392.67 188.63 393.96 188.63C394.79 188.63 395.55 188.51 396.23 188.27C396.91 188.03 397.49 187.67 397.99 187.19C398.49 186.71 398.87 186.11 399.13 185.39L402.2 186.25C401.88 187.29 401.33 188.2 400.57 188.99C399.81 189.78 398.87 190.38 397.74 190.82C396.61 191.27 395.35 191.48 393.95 191.48Z" fill="#233974"/>
<path d="M413.43 191.54C412.12 191.54 410.93 191.29 409.86 190.79C408.79 190.29 407.94 189.57 407.32 188.62C406.7 187.67 406.38 186.53 406.38 185.18C406.38 184 406.61 183.03 407.08 182.29C407.55 181.55 408.17 180.97 408.95 180.55C409.73 180.13 410.59 179.81 411.54 179.6C412.49 179.39 413.44 179.22 414.4 179.1C415.66 178.94 416.68 178.82 417.46 178.73C418.25 178.65 418.82 178.5 419.18 178.29C419.54 178.08 419.72 177.72 419.72 177.21V177.1C419.72 175.77 419.36 174.74 418.64 174.01C417.92 173.27 416.83 172.91 415.36 172.91C413.84 172.91 412.66 173.24 411.79 173.91C410.93 174.57 410.32 175.28 409.97 176.04L406.96 174.96C407.5 173.7 408.22 172.72 409.12 172.02C410.02 171.32 411.01 170.82 412.08 170.54C413.15 170.26 414.21 170.12 415.25 170.12C415.91 170.12 416.68 170.2 417.54 170.36C418.41 170.52 419.24 170.84 420.06 171.32C420.87 171.8 421.55 172.53 422.08 173.51C422.61 174.49 422.89 175.8 422.89 177.44V191.06H419.71V188.26H419.55C419.34 188.71 418.98 189.19 418.47 189.7C417.97 190.21 417.3 190.65 416.47 191C415.64 191.35 414.63 191.54 413.43 191.54ZM413.92 188.69C415.18 188.69 416.24 188.44 417.1 187.95C417.96 187.46 418.62 186.82 419.06 186.04C419.5 185.26 419.73 184.44 419.73 183.58V180.67C419.6 180.83 419.3 180.98 418.85 181.11C418.4 181.24 417.88 181.35 417.29 181.45C416.7 181.54 416.13 181.62 415.58 181.69C415.03 181.76 414.58 181.81 414.24 181.86C413.41 181.97 412.65 182.14 411.93 182.38C411.22 182.62 410.64 182.97 410.21 183.44C409.78 183.91 409.56 184.55 409.56 185.36C409.56 186.46 409.97 187.29 410.79 187.86C411.61 188.41 412.65 188.69 413.92 188.69Z" fill="#233974"/>
<path d="M437.7 170.39V173.08H426.99V170.39H437.7ZM430.11 165.44H433.28V185.14C433.28 186.04 433.41 186.71 433.68 187.15C433.94 187.59 434.29 187.89 434.7 188.04C435.12 188.19 435.56 188.26 436.03 188.26C436.38 188.26 436.67 188.24 436.89 188.2C437.11 188.16 437.29 188.13 437.43 188.1L438.08 190.95C437.87 191.03 437.56 191.11 437.18 191.2C436.79 191.28 436.31 191.33 435.71 191.33C434.81 191.33 433.94 191.14 433.08 190.75C432.22 190.36 431.51 189.78 430.96 188.99C430.4 188.2 430.12 187.21 430.12 186V165.44H430.11Z" fill="#233974"/>
<path d="M444.11 166.94C443.49 166.94 442.96 166.73 442.52 166.31C442.08 165.89 441.85 165.38 441.85 164.79C441.85 164.2 442.07 163.69 442.52 163.27C442.96 162.85 443.5 162.64 444.11 162.64C444.72 162.64 445.26 162.85 445.7 163.27C446.14 163.69 446.37 164.2 446.37 164.79C446.37 165.38 446.15 165.89 445.7 166.31C445.26 166.73 444.72 166.94 444.11 166.94ZM442.49 191.05V170.38H445.66V191.05H442.49Z" fill="#233974"/>
<path d="M468.38 170.39L460.74 191.06H457.51L449.87 170.39H453.31L459.02 186.86H459.23L464.93 170.39H468.38Z" fill="#233974"/>
<path d="M481.24 191.48C479.25 191.48 477.53 191.04 476.09 190.15C474.65 189.26 473.54 188.03 472.77 186.44C471.99 184.85 471.61 182.99 471.61 180.88C471.61 178.76 472 176.9 472.77 175.28C473.55 173.66 474.63 172.4 476.02 171.49C477.42 170.58 479.05 170.12 480.91 170.12C481.99 170.12 483.05 170.3 484.1 170.66C485.15 171.02 486.1 171.6 486.97 172.4C487.84 173.2 488.52 174.26 489.03 175.58C489.54 176.9 489.8 178.52 489.8 180.45V181.8H473.87V179.05H486.57C486.57 177.88 486.34 176.84 485.88 175.93C485.42 175.02 484.76 174.29 483.92 173.76C483.08 173.23 482.07 172.97 480.93 172.97C479.67 172.97 478.57 173.28 477.65 173.91C476.73 174.53 476.02 175.34 475.53 176.34C475.04 177.34 474.79 178.4 474.79 179.54V181.37C474.79 182.93 475.06 184.25 475.6 185.33C476.14 186.41 476.9 187.23 477.87 187.79C478.84 188.35 479.96 188.63 481.25 188.63C482.08 188.63 482.84 188.51 483.52 188.27C484.2 188.03 484.78 187.67 485.28 187.19C485.78 186.71 486.16 186.11 486.42 185.39L489.49 186.25C489.17 187.29 488.62 188.2 487.86 188.99C487.1 189.78 486.16 190.38 485.03 190.82C483.9 191.27 482.64 191.48 481.24 191.48Z" fill="#233974"/>
</svg>
