<svg width="39" height="32" viewBox="0 0 39 32" fill="none" xmlns="http://www.w3.org/2000/svg">
<path d="M33.5761 16.6784V14.4C33.5761 10.5809 32.059 6.91819 29.3584 4.21766C26.6579 1.51714 22.9952 0 19.1761 0C15.357 0 11.6943 1.51714 8.99375 4.21766C6.29323 6.91819 4.77609 10.5809 4.77609 14.4V16.6784C3.09795 17.4173 1.72457 18.7103 0.885887 20.3409C0.0472011 21.9715 -0.20589 23.8407 0.168985 25.6356C0.54386 27.4305 1.52394 29.0421 2.94516 30.2007C4.36638 31.3593 6.14247 31.9945 7.97609 32C8.82479 32 9.63872 31.6629 10.2388 31.0627C10.839 30.4626 11.1761 29.6487 11.1761 28.8V19.2C11.1761 18.3513 10.839 17.5374 10.2388 16.9373C9.63872 16.3371 8.82479 16 7.97609 16V14.4C7.97609 11.4296 9.15609 8.58081 11.2565 6.4804C13.3569 4.38 16.2057 3.2 19.1761 3.2C22.1465 3.2 24.9953 4.38 27.0957 6.4804C29.1961 8.58081 30.3761 11.4296 30.3761 14.4V16C29.5274 16 28.7135 16.3371 28.1134 16.9373C27.5132 17.5374 27.1761 18.3513 27.1761 19.2V28.8C27.1761 29.6487 27.5132 30.4626 28.1134 31.0627C28.7135 31.6629 29.5274 32 30.3761 32C32.2097 31.9945 33.9858 31.3593 35.407 30.2007C36.8282 29.0421 37.8083 27.4305 38.1832 25.6356C38.5581 23.8407 38.305 21.9715 37.4663 20.3409C36.6276 18.7103 35.2542 17.4173 33.5761 16.6784ZM7.97609 28.8C6.70305 28.8 5.48215 28.2943 4.58198 27.3941C3.68181 26.4939 3.17609 25.273 3.17609 24C3.17609 22.727 3.68181 21.5061 4.58198 20.6059C5.48215 19.7057 6.70305 19.2 7.97609 19.2V28.8ZM30.3761 28.8V19.2C31.6491 19.2 32.87 19.7057 33.7702 20.6059C34.6704 21.5061 35.1761 22.727 35.1761 24C35.1761 25.273 34.6704 26.4939 33.7702 27.3941C32.87 28.2943 31.6491 28.8 30.3761 28.8Z" fill="white"/>
</svg>
