<svg width="468" height="400" viewBox="0 0 468 400" fill="none" xmlns="http://www.w3.org/2000/svg">
<path d="M453.558 168.504C423.121 280.516 314.827 320.207 202.815 289.77C90.8035 259.333 17.4898 170.294 47.9267 58.282C78.3637 -53.73 143.958 83.3862 255.97 113.823C367.982 144.26 483.995 56.492 453.558 168.504Z" fill="url(#paint0_linear_473_304)"/>
<path d="M448.672 387.373C448.672 387.51 352.542 387.611 233.994 387.611C115.446 387.611 19.27 387.51 19.27 387.373C19.27 387.235 115.382 387.134 233.994 387.134C352.606 387.134 448.672 387.244 448.672 387.373Z" fill="#263238"/>
<path d="M249.52 382.877C249.624 381.042 248.997 379.241 247.777 377.866C246.483 376.508 245.024 376.15 245.024 373.489C245.106 369.378 248.446 366.57 253.108 366.662C257.769 366.754 261.009 369.69 260.926 373.801C260.88 376.453 257.632 377.141 256.98 378.903C256.495 380.224 256.186 381.603 256.063 383.005C256.052 383.568 256.152 384.127 256.357 384.651C256.562 385.175 256.869 385.654 257.259 386.06C257.649 386.465 258.116 386.79 258.632 387.015C259.147 387.241 259.703 387.362 260.265 387.373L287.556 387.116L287.501 344.318L287.464 315.11H261.513C259.146 315.11 257.457 317.34 257.412 319.698C257.396 320.282 257.501 320.864 257.72 321.405C257.94 321.947 258.269 322.437 258.687 322.846C260.045 324.139 261.935 326.434 261.89 329.085C261.807 333.196 258.458 336.013 253.796 335.922C249.135 335.83 245.905 332.884 245.978 328.773C246.033 326.122 248.015 323.901 249.419 322.662C249.855 322.272 250.205 321.796 250.447 321.264C250.688 320.731 250.817 320.154 250.823 319.57C250.834 319.007 250.734 318.447 250.529 317.923C250.323 317.399 250.017 316.921 249.627 316.515C249.236 316.109 248.77 315.785 248.254 315.559C247.738 315.334 247.183 315.213 246.62 315.202L216.063 315.101V386.52L245.152 387.107C245.717 387.118 246.279 387.017 246.805 386.81C247.331 386.603 247.81 386.294 248.216 385.901C248.622 385.507 248.947 385.038 249.17 384.519C249.394 384 249.513 383.442 249.52 382.877Z" fill="#E0E0E0"/>
<g opacity="0.3">
<path d="M249.52 382.877C249.624 381.042 248.997 379.241 247.777 377.866C246.483 376.508 245.024 376.15 245.024 373.489C245.106 369.378 248.446 366.57 253.108 366.662C257.769 366.754 261.009 369.69 260.926 373.801C260.88 376.453 257.632 377.141 256.98 378.903C256.495 380.224 256.186 381.603 256.063 383.005C256.052 383.568 256.152 384.127 256.357 384.651C256.562 385.175 256.869 385.654 257.259 386.06C257.649 386.465 258.116 386.79 258.632 387.015C259.147 387.241 259.703 387.362 260.265 387.373L287.556 387.116L287.501 344.318L287.464 315.11H261.513C259.146 315.11 257.457 317.34 257.412 319.698C257.396 320.282 257.501 320.864 257.72 321.405C257.94 321.947 258.269 322.437 258.687 322.846C260.045 324.139 261.935 326.434 261.89 329.085C261.807 333.196 258.458 336.013 253.796 335.922C249.135 335.83 245.905 332.884 245.978 328.773C246.033 326.122 248.015 323.901 249.419 322.662C249.855 322.272 250.205 321.796 250.447 321.264C250.688 320.731 250.817 320.154 250.823 319.57C250.834 319.007 250.734 318.447 250.529 317.923C250.323 317.399 250.017 316.921 249.627 316.515C249.236 316.109 248.77 315.785 248.254 315.559C247.738 315.334 247.183 315.213 246.62 315.202L216.063 315.101V386.52L245.152 387.107C245.717 387.118 246.279 387.017 246.805 386.81C247.331 386.603 247.81 386.294 248.216 385.901C248.622 385.507 248.947 385.038 249.17 384.519C249.394 384 249.513 383.442 249.52 382.877Z" fill="black"/>
</g>
<path d="M244.134 382.877C244.149 382.293 244.042 381.713 243.821 381.172C243.6 380.632 243.269 380.144 242.849 379.738C241.5 378.444 239.601 376.15 239.656 373.489C239.738 369.378 243.079 366.57 247.74 366.662C252.402 366.754 255.641 369.69 255.558 373.801C255.512 376.453 253.521 378.674 252.126 379.913C251.492 380.487 251.045 381.237 250.841 382.068C250.637 382.898 250.686 383.771 250.982 384.573C251.278 385.375 251.807 386.071 252.502 386.57C253.196 387.069 254.024 387.348 254.879 387.373L282.169 387.116L282.188 344.318L282.078 315.11H256.127C253.76 315.11 252.071 317.34 252.025 319.698C252.009 320.283 252.115 320.865 252.336 321.407C252.557 321.949 252.889 322.439 253.31 322.846C254.659 324.139 256.558 326.434 256.503 329.085C256.421 333.196 253.071 336.013 248.41 335.922C243.748 335.83 240.518 332.884 240.592 328.773C240.647 326.122 242.629 323.901 244.033 322.662C244.469 322.272 244.819 321.796 245.06 321.264C245.302 320.731 245.43 320.154 245.437 319.57C245.448 319.007 245.348 318.447 245.142 317.923C244.937 317.399 244.631 316.921 244.24 316.515C243.85 316.109 243.384 315.785 242.868 315.559C242.352 315.334 241.797 315.213 241.234 315.202L210.677 315.101V386.52L239.766 387.107C240.331 387.118 240.893 387.017 241.419 386.81C241.944 386.603 242.424 386.294 242.83 385.901C243.236 385.507 243.56 385.038 243.784 384.519C244.008 384 244.127 383.442 244.134 382.877Z" fill="#EBEBEB"/>
<path d="M244.134 382.877C244.154 383.078 244.154 383.281 244.134 383.482C244.048 384.084 243.832 384.661 243.501 385.171C242.952 386.009 242.133 386.634 241.179 386.942C240.567 387.124 239.925 387.19 239.289 387.134H237.123L210.714 386.666H210.576V386.529C210.576 368.451 210.576 343.795 210.503 315.11V314.899H210.723H229.222H238.867H241.317C241.973 314.917 242.617 315.079 243.205 315.371C243.793 315.664 244.31 316.081 244.72 316.594C245.131 317.106 245.425 317.702 245.582 318.339C245.739 318.977 245.755 319.641 245.63 320.285C245.464 321.159 245.039 321.961 244.409 322.589C243.785 323.139 243.205 323.737 242.675 324.378C241.563 325.609 240.914 327.189 240.84 328.847C240.825 329.673 240.975 330.494 241.279 331.262C241.582 332.031 242.035 332.732 242.611 333.325C243.81 334.513 245.368 335.271 247.043 335.481C248.727 335.76 250.455 335.589 252.053 334.986C253.669 334.385 254.986 333.177 255.723 331.618C256.079 330.842 256.272 330.001 256.291 329.147C256.31 328.294 256.154 327.445 255.834 326.654C255.501 325.854 255.059 325.103 254.521 324.424C254.251 324.079 253.963 323.748 253.659 323.433C253.374 323.112 253.016 322.827 252.741 322.433C252.238 321.794 251.921 321.029 251.824 320.221C251.745 319.426 251.845 318.623 252.117 317.872C252.358 317.106 252.801 316.419 253.401 315.884C254 315.349 254.733 314.987 255.522 314.835C256.338 314.752 257.045 314.835 257.816 314.789H282.316V315.11C282.316 341.638 282.39 366.084 282.417 387.153V387.345H282.188L265.001 387.492L257.054 387.556H255.145C254.492 387.574 253.842 387.455 253.237 387.208C252.648 386.953 252.121 386.576 251.691 386.101C251.261 385.626 250.937 385.065 250.741 384.455C250.553 383.866 250.49 383.244 250.557 382.629C250.623 382.015 250.817 381.421 251.126 380.885C251.431 380.373 251.826 379.919 252.292 379.546C252.702 379.164 253.089 378.756 253.448 378.325C254.162 377.499 254.716 376.546 255.081 375.517C255.416 374.525 255.488 373.463 255.292 372.434C255.123 371.464 254.733 370.545 254.152 369.75C253.571 368.954 252.816 368.303 251.943 367.846C250.343 367.01 248.538 366.647 246.74 366.8C245.124 366.879 243.567 367.431 242.262 368.387C241.125 369.25 240.308 370.468 239.94 371.847C239.61 373.026 239.633 374.277 240.005 375.444C240.336 376.409 240.822 377.315 241.445 378.123C241.942 378.77 242.482 379.383 243.06 379.958C243.472 380.398 243.785 380.92 243.978 381.491C244.079 381.838 244.141 382.195 244.161 382.555C244.172 382.674 244.172 382.794 244.161 382.913C244.148 382.436 244.067 381.964 243.923 381.509C243.727 380.951 243.414 380.441 243.005 380.014C242.416 379.456 241.867 378.858 241.363 378.224C240.719 377.415 240.216 376.503 239.876 375.526C239.489 374.338 239.457 373.062 239.784 371.856C240.149 370.433 240.983 369.176 242.152 368.286C243.485 367.296 245.081 366.721 246.74 366.635C248.582 366.465 250.433 366.831 252.071 367.69C252.977 368.162 253.762 368.835 254.368 369.657C254.974 370.48 255.384 371.429 255.567 372.434C255.771 373.508 255.701 374.615 255.366 375.655C254.989 376.716 254.419 377.699 253.686 378.555C253.318 378.998 252.923 379.418 252.503 379.812C252.064 380.168 251.688 380.596 251.392 381.078C251.104 381.586 250.926 382.15 250.87 382.731C250.815 383.313 250.883 383.9 251.07 384.454C251.257 385.007 251.559 385.515 251.956 385.944C252.353 386.373 252.837 386.713 253.374 386.942C254.485 387.437 255.788 387.208 257.045 387.244L264.982 387.153L282.16 386.978L281.967 387.171C281.922 366.066 281.857 341.657 281.793 315.128L282.032 315.367H264.523C261.569 315.367 258.513 315.367 255.586 315.367C252.695 315.798 251.245 319.9 253.071 322.203C253.361 322.525 253.667 322.832 253.989 323.121C254.301 323.451 254.595 323.791 254.907 324.149C255.472 324.864 255.935 325.655 256.283 326.498C256.627 327.349 256.795 328.262 256.774 329.18C256.753 330.099 256.546 331.003 256.164 331.838C255.387 333.502 253.991 334.796 252.273 335.445C250.597 336.078 248.783 336.259 247.015 335.968C245.239 335.742 243.587 334.935 242.317 333.674C241.071 332.385 240.385 330.657 240.408 328.865C240.475 327.105 241.149 325.422 242.317 324.103C242.855 323.442 243.447 322.828 244.088 322.267C244.652 321.705 245.033 320.985 245.18 320.203C245.29 319.625 245.274 319.03 245.133 318.46C244.991 317.889 244.728 317.355 244.361 316.896C243.994 316.436 243.532 316.062 243.006 315.798C242.481 315.534 241.904 315.387 241.317 315.367H238.876H229.222L210.723 315.303L210.943 315.082C210.943 343.767 210.888 368.424 210.87 386.501L210.732 386.363L237.142 386.96L239.298 387.015C239.915 387.07 240.537 387.011 241.133 386.841C242.072 386.554 242.883 385.951 243.427 385.134C243.756 384.636 243.981 384.078 244.088 383.491C244.125 383.088 244.125 382.877 244.134 382.877Z" fill="#263238"/>
<path d="M350.927 339.06C350.918 339.672 350.789 340.276 350.547 340.838C350.305 341.399 349.955 341.908 349.516 342.334C349.077 342.76 348.558 343.096 347.989 343.321C347.42 343.547 346.813 343.658 346.201 343.648C345.567 343.641 344.941 343.503 344.363 343.243C343.785 342.982 343.267 342.605 342.842 342.134C341.484 340.62 339.071 338.463 336.19 338.463C331.721 338.399 328.546 341.932 328.472 346.988C328.399 352.044 331.464 355.678 335.933 355.742C338.814 355.788 341.292 353.714 342.686 352.237C343.338 351.571 344.174 351.116 345.087 350.93C345.999 350.744 346.947 350.836 347.807 351.193C348.667 351.551 349.4 352.158 349.912 352.936C350.424 353.714 350.691 354.627 350.679 355.559L350.183 387.143L420.409 386.822V353.641C420.423 352.709 420.715 351.803 421.25 351.039C421.785 350.275 422.536 349.69 423.408 349.359C424.279 349.028 425.229 348.966 426.136 349.181C427.043 349.396 427.864 349.879 428.493 350.567C429.852 352.081 432.265 354.237 435.146 354.237C439.615 354.302 442.79 350.778 442.873 345.713C442.955 340.647 439.881 337.023 435.412 336.959C432.531 336.913 430.044 338.987 428.649 340.464C428.209 340.922 427.678 341.283 427.09 341.524C426.503 341.766 425.871 341.883 425.236 341.868C422.667 341.868 420.189 340.033 420.226 337.436L420.097 309.255L350.551 309.577L350.927 339.06Z" fill="#8ACEB2"/>
<g opacity="0.3">
<path d="M350.927 339.06C350.918 339.672 350.789 340.276 350.547 340.838C350.305 341.399 349.955 341.908 349.516 342.334C349.077 342.76 348.558 343.096 347.989 343.321C347.42 343.547 346.813 343.658 346.201 343.648C345.567 343.641 344.941 343.503 344.363 343.243C343.785 342.982 343.267 342.605 342.842 342.134C341.484 340.62 339.071 338.463 336.19 338.463C331.721 338.399 328.546 341.932 328.472 346.988C328.399 352.044 331.464 355.678 335.933 355.742C338.814 355.788 341.292 353.714 342.686 352.237C343.338 351.571 344.174 351.116 345.087 350.93C345.999 350.744 346.947 350.836 347.807 351.193C348.667 351.551 349.4 352.158 349.912 352.936C350.424 353.714 350.691 354.627 350.679 355.559L350.183 387.143L420.409 386.822V353.641C420.423 352.709 420.715 351.803 421.25 351.039C421.785 350.275 422.536 349.69 423.408 349.359C424.279 349.028 425.229 348.966 426.136 349.181C427.043 349.396 427.864 349.879 428.493 350.567C429.852 352.081 432.265 354.237 435.146 354.237C439.615 354.302 442.79 350.778 442.873 345.713C442.955 340.647 439.881 337.023 435.412 336.959C432.531 336.913 430.044 338.987 428.649 340.464C428.209 340.922 427.678 341.283 427.09 341.524C426.503 341.766 425.871 341.883 425.236 341.868C422.667 341.868 420.189 340.033 420.226 337.436L420.097 309.255L350.551 309.577L350.927 339.06Z" fill="black"/>
</g>
<path d="M345.742 339.06C345.723 340.295 345.215 341.471 344.329 342.332C343.443 343.192 342.251 343.665 341.017 343.648C340.383 343.641 339.757 343.504 339.179 343.243C338.601 342.982 338.083 342.605 337.658 342.134C336.3 340.62 333.887 338.464 331.005 338.464C326.537 338.399 323.362 341.932 323.279 346.988C323.196 352.044 326.28 355.678 330.739 355.742C333.621 355.788 336.107 353.714 337.502 352.237C338.149 351.573 338.979 351.116 339.886 350.926C340.793 350.736 341.737 350.821 342.596 351.17C343.455 351.518 344.19 352.115 344.708 352.884C345.226 353.653 345.503 354.558 345.504 355.485L345.008 387.07L415.234 386.749V353.568C415.247 352.636 415.54 351.729 416.075 350.966C416.61 350.202 417.361 349.617 418.232 349.286C419.104 348.954 420.054 348.892 420.961 349.108C421.868 349.323 422.689 349.806 423.318 350.494C424.676 352.008 427.09 354.164 429.971 354.164C434.44 354.228 437.615 350.705 437.697 345.639C437.78 340.574 434.697 336.949 430.237 336.885C427.356 336.839 424.869 338.913 423.474 340.39C423.034 340.848 422.503 341.209 421.915 341.451C421.327 341.693 420.696 341.81 420.061 341.794C417.491 341.794 415.014 339.959 415.051 337.362L414.922 309.182L345.375 309.503L345.742 339.06Z" fill="#8ACEB2"/>
<path d="M345.742 339.06C345.742 339.06 345.742 338.895 345.742 338.565C345.742 338.234 345.742 337.739 345.696 337.096C345.696 335.784 345.641 333.866 345.586 331.361C345.504 326.323 345.375 318.955 345.219 309.577V309.448H345.348L414.894 309.054H415.105V309.256C415.105 316.239 415.179 323.525 415.215 331.077C415.215 332.967 415.215 334.866 415.215 336.793C415.197 337.257 415.222 337.72 415.289 338.179C415.377 338.629 415.548 339.059 415.794 339.445C416.314 340.222 417.051 340.828 417.913 341.189C418.778 341.567 419.727 341.713 420.666 341.611C421.605 341.494 422.479 341.072 423.153 340.409C424.506 338.876 426.227 337.714 428.154 337.032C428.653 336.882 429.167 336.786 429.686 336.748C431.264 336.662 432.83 337.062 434.174 337.895C435.942 339.088 437.173 340.926 437.605 343.015C438.064 345.097 437.944 347.264 437.257 349.282C436.905 350.304 436.343 351.241 435.606 352.031C434.87 352.821 433.975 353.448 432.981 353.87C431.963 354.276 430.873 354.466 429.778 354.43C428.676 354.364 427.604 354.051 426.64 353.513C425.682 352.991 424.799 352.343 424.015 351.586C423.621 351.219 423.245 350.787 422.896 350.429C422.341 349.893 421.654 349.513 420.905 349.327C420.155 349.142 419.37 349.158 418.629 349.374C417.635 349.664 416.773 350.29 416.188 351.145C415.613 352.022 415.345 353.064 415.427 354.109V357.385C415.427 367.369 415.427 377.178 415.427 386.749V386.988H415.243L345.017 387.272H344.806V387.061C344.922 379.916 345.036 373.079 345.146 366.552C345.201 363.291 345.253 360.119 345.302 357.036C345.348 356.281 345.348 355.525 345.302 354.77C345.201 354.048 344.92 353.363 344.485 352.778C343.858 351.914 342.944 351.302 341.906 351.051C340.868 350.801 339.775 350.928 338.823 351.411C338.221 351.752 337.686 352.2 337.245 352.733C336.253 353.722 335.103 354.538 333.841 355.146C332.626 355.712 331.279 355.932 329.947 355.779C328.616 355.627 327.353 355.109 326.298 354.283C325.362 353.489 324.604 352.506 324.073 351.4C323.542 350.293 323.249 349.087 323.214 347.86C323.037 345.63 323.594 343.403 324.802 341.519C325.866 339.946 327.505 338.852 329.366 338.473C331.227 338.094 333.163 338.459 334.758 339.491C336.016 340.311 337.152 341.302 338.135 342.437C338.971 343.167 340.044 343.57 341.154 343.57C342.264 343.57 343.337 343.167 344.173 342.437C344.712 341.974 345.136 341.393 345.412 340.739C345.634 340.202 345.761 339.631 345.788 339.051C345.788 339.051 345.788 339.198 345.788 339.491C345.744 339.929 345.639 340.358 345.476 340.767C345.209 341.437 344.788 342.034 344.246 342.51C343.396 343.272 342.297 343.697 341.155 343.707C340.014 343.717 338.907 343.311 338.043 342.565C337.057 341.448 335.924 340.47 334.676 339.656C333.109 338.65 331.209 338.302 329.388 338.688C327.566 339.075 325.971 340.165 324.949 341.721C323.807 343.558 323.292 345.715 323.481 347.869C323.516 349.055 323.801 350.22 324.317 351.289C324.832 352.358 325.566 353.306 326.472 354.072C327.486 354.863 328.7 355.357 329.978 355.5C331.256 355.642 332.549 355.428 333.712 354.88C334.941 354.285 336.058 353.485 337.016 352.512C337.488 351.961 338.057 351.501 338.695 351.154C339.359 350.813 340.095 350.633 340.842 350.631C342.01 350.621 343.141 351.033 344.028 351.792C344.916 352.551 345.498 353.606 345.669 354.761C345.714 355.534 345.714 356.309 345.669 357.082C345.626 360.141 345.58 363.313 345.531 366.598C345.427 373.113 345.323 379.949 345.219 387.107L345.017 386.905L415.243 386.556L415.014 386.786C415.014 377.233 415.014 367.424 414.968 357.422V354.155C414.887 353.012 415.184 351.874 415.812 350.916C416.457 349.969 417.413 349.278 418.514 348.963C419.616 348.647 420.793 348.728 421.841 349.191C422.36 349.41 422.836 349.721 423.245 350.108C423.639 350.521 423.97 350.897 424.355 351.264C425.111 351.986 425.959 352.603 426.878 353.1C427.781 353.598 428.785 353.887 429.815 353.944C430.84 353.979 431.862 353.801 432.815 353.421C433.753 353.02 434.595 352.425 435.286 351.675C435.977 350.925 436.502 350.038 436.826 349.071C437.491 347.144 437.609 345.069 437.165 343.079C436.768 341.104 435.607 339.366 433.935 338.243C433.101 337.712 432.162 337.368 431.182 337.234C430.217 337.077 429.228 337.143 428.292 337.427C426.438 338.086 424.783 339.207 423.483 340.684C422.737 341.418 421.769 341.886 420.73 342.015C419.71 342.128 418.678 341.969 417.739 341.556C416.796 341.159 415.991 340.492 415.427 339.638C415.152 339.206 414.96 338.727 414.858 338.225C414.785 337.733 414.758 337.235 414.775 336.738C414.775 334.818 414.775 332.915 414.775 331.031C414.775 323.479 414.72 316.193 414.692 309.219L414.894 309.421L345.348 309.65L345.504 309.604C345.605 318.992 345.687 326.36 345.751 331.398C345.751 333.903 345.751 335.821 345.751 337.133V338.601C345.751 338.895 345.742 339.06 345.742 339.06Z" fill="#263238"/>
<path d="M359.204 345.85C357.754 345.85 353.166 345.19 352.156 346.245C350.56 347.906 350.908 351.439 347.633 351.374C342.558 351.273 339.089 347.153 339.209 341.4C339.328 335.646 342.943 331.664 348.018 331.765C351.285 331.82 350.303 336.848 352.468 337.647C353.753 338.115 357.91 337.702 359.369 337.729C360.065 337.746 360.757 337.626 361.406 337.374C362.056 337.122 362.648 336.744 363.151 336.262C363.653 335.78 364.055 335.204 364.334 334.566C364.612 333.928 364.762 333.241 364.774 332.545L364.453 298.886L311.671 298.96L275.608 299.052V331.049C275.553 333.967 278.361 336.059 281.279 336.114C281.999 336.133 282.714 336.002 283.381 335.731C284.047 335.459 284.65 335.052 285.152 334.536C286.748 332.866 289.584 330.526 292.85 330.59C297.925 330.691 301.393 334.82 301.283 340.565C301.173 346.309 297.539 350.301 292.474 350.209C289.198 350.145 286.464 347.695 284.931 345.97C284.451 345.433 283.865 345.001 283.209 344.703C282.554 344.404 281.843 344.245 281.123 344.235C280.429 344.221 279.74 344.343 279.093 344.595C278.447 344.848 277.857 345.225 277.356 345.706C276.856 346.186 276.455 346.761 276.178 347.397C275.9 348.033 275.75 348.717 275.737 349.411L275.608 387.098H363.7L364.425 351.228C364.437 350.531 364.312 349.839 364.055 349.192C363.799 348.544 363.418 347.953 362.932 347.453C362.447 346.954 361.868 346.555 361.228 346.28C360.588 346.005 359.9 345.859 359.204 345.85Z" fill="#263238"/>
<path d="M353.643 345.85C352.923 345.833 352.207 345.965 351.54 346.238C350.874 346.512 350.271 346.92 349.771 347.438C348.174 349.099 345.348 351.439 342.072 351.374C336.997 351.273 333.538 347.153 333.648 341.4C333.758 335.646 337.383 331.664 342.457 331.765C345.733 331.82 348.468 334.27 349.991 335.995C350.472 336.533 351.06 336.964 351.717 337.263C352.375 337.562 353.086 337.72 353.808 337.729C354.502 337.744 355.192 337.622 355.838 337.369C356.484 337.117 357.075 336.74 357.575 336.259C358.075 335.778 358.476 335.204 358.754 334.568C359.032 333.932 359.182 333.248 359.195 332.554L358.873 298.896L306.092 298.969L270.029 299.061V331.058C269.974 333.976 272.782 336.068 275.7 336.124C276.421 336.141 277.137 336.01 277.805 335.738C278.473 335.467 279.078 335.061 279.582 334.545C281.178 332.875 284.005 330.535 287.271 330.599C292.346 330.7 295.814 334.83 295.704 340.574C295.594 346.318 291.97 350.31 286.895 350.218C283.619 350.154 280.885 347.704 279.352 345.979C278.872 345.441 278.286 345.01 277.63 344.711C276.975 344.413 276.264 344.254 275.544 344.244C274.85 344.23 274.161 344.352 273.514 344.605C272.868 344.857 272.278 345.234 271.777 345.715C271.277 346.196 270.876 346.77 270.598 347.406C270.321 348.042 270.171 348.726 270.158 349.42L270.029 387.107H358.121L358.846 351.237C358.859 350.541 358.735 349.85 358.481 349.202C358.226 348.555 357.846 347.964 357.363 347.463C356.88 346.963 356.302 346.563 355.664 346.286C355.025 346.009 354.339 345.861 353.643 345.85Z" fill="#455A64"/>
<path d="M353.643 345.85C353.895 345.844 354.147 345.863 354.396 345.905C355.136 346.009 355.844 346.276 356.469 346.685C357.502 347.361 358.271 348.372 358.644 349.548C358.866 350.301 358.947 351.088 358.883 351.87C358.883 352.705 358.883 353.595 358.837 354.54C358.699 362.092 358.497 373.131 358.24 387.107V387.244H358.103L270.011 387.318H269.8V387.107C269.8 379.729 269.821 372.122 269.864 364.285C269.864 360.376 269.864 356.403 269.864 352.356C269.864 351.347 269.864 350.338 269.864 349.328C269.894 348.264 270.232 347.231 270.837 346.355C271.445 345.47 272.299 344.782 273.294 344.376C274.288 343.97 275.38 343.863 276.434 344.07C277.501 344.271 278.483 344.79 279.251 345.557C279.931 346.33 280.67 347.048 281.463 347.704C282.986 349.06 284.931 349.848 286.969 349.934C289.041 349.966 291.041 349.174 292.529 347.732C294.008 346.244 294.951 344.307 295.209 342.226C295.372 341.188 295.403 340.133 295.301 339.088C295.225 338.035 294.983 337 294.585 336.023C293.836 334.033 292.342 332.414 290.419 331.508C289.453 331.066 288.407 330.826 287.345 330.803C286.283 330.779 285.228 330.972 284.243 331.37C283.254 331.784 282.328 332.334 281.49 333.004C281.068 333.334 280.655 333.692 280.261 334.059C279.876 334.464 279.468 334.847 279.04 335.206C278.253 335.804 277.317 336.176 276.333 336.28C275.361 336.373 274.381 336.251 273.461 335.922C272.595 335.582 271.815 335.056 271.176 334.38C270.492 333.67 270.043 332.767 269.892 331.792C269.842 331.32 269.824 330.845 269.837 330.37V320.708C269.837 313.367 269.837 306.151 269.837 299.061V298.831H270.066L358.91 298.703H359.103V298.896C359.167 306.292 359.231 313.367 359.286 320.084C359.286 323.433 359.342 326.709 359.369 329.875C359.369 330.676 359.369 331.465 359.369 332.242C359.385 333.041 359.235 333.835 358.929 334.573C358.624 335.28 358.173 335.914 357.605 336.434C357.038 336.954 356.367 337.348 355.636 337.59C354.905 337.832 354.131 337.916 353.365 337.837C352.6 337.759 351.859 337.519 351.193 337.133C350.567 336.754 350.011 336.27 349.551 335.701C349.079 335.194 348.576 334.716 348.046 334.27C347.026 333.384 345.85 332.696 344.577 332.242C343.345 331.841 342.033 331.756 340.76 331.994C339.562 332.206 338.428 332.689 337.445 333.407C336.462 334.124 335.656 335.056 335.089 336.133C334.054 338.107 333.606 340.335 333.795 342.556C333.901 344.543 334.583 346.456 335.759 348.062C336.758 349.357 338.13 350.315 339.69 350.807C341.25 351.299 342.924 351.302 344.485 350.815C345.679 350.407 346.795 349.802 347.789 349.025C348.576 348.416 349.318 347.75 350.009 347.034C350.556 346.548 351.201 346.185 351.9 345.97C352.321 345.831 352.76 345.753 353.203 345.74C353.349 345.728 353.497 345.728 353.643 345.74H353.203C352.766 345.774 352.334 345.86 351.918 345.997C351.238 346.222 350.612 346.588 350.083 347.071C349.397 347.797 348.661 348.475 347.88 349.099C346.88 349.892 345.754 350.512 344.549 350.934C343.081 351.41 341.506 351.448 340.016 351.044C338.267 350.593 336.72 349.569 335.621 348.135C334.425 346.538 333.715 344.629 333.575 342.639C333.367 340.37 333.816 338.089 334.869 336.069C335.452 334.958 336.281 333.995 337.292 333.252C338.303 332.51 339.47 332.007 340.705 331.783C342.022 331.526 343.384 331.612 344.66 332.031C345.968 332.49 347.179 333.19 348.229 334.096C348.774 334.548 349.289 335.036 349.771 335.555C350.211 336.101 350.746 336.564 351.349 336.922C351.98 337.28 352.679 337.5 353.401 337.569C354.123 337.638 354.851 337.554 355.538 337.322C356.225 337.09 356.855 336.715 357.387 336.222C357.92 335.729 358.342 335.13 358.626 334.463C359.241 333.086 358.956 331.471 359.002 329.875C359.002 326.709 358.929 323.451 358.901 320.084C358.828 313.367 358.754 306.319 358.672 298.896L358.874 299.088L270.029 299.299L270.268 299.061V330.388C270.258 330.842 270.276 331.295 270.323 331.747C270.496 332.623 270.903 333.436 271.501 334.1C272.099 334.764 272.865 335.254 273.718 335.518C274.57 335.822 275.478 335.938 276.379 335.857C277.275 335.756 278.127 335.417 278.848 334.876C279.259 334.524 279.652 334.151 280.022 333.756C280.426 333.38 280.848 333.013 281.288 332.673C282.162 331.972 283.133 331.4 284.17 330.976C285.213 330.553 286.331 330.348 287.456 330.373C288.581 330.399 289.689 330.654 290.712 331.123C292.752 332.076 294.339 333.788 295.135 335.894C295.542 336.915 295.793 337.992 295.879 339.088C295.983 340.173 295.949 341.268 295.778 342.345C295.504 344.525 294.513 346.553 292.961 348.108C291.383 349.635 289.265 350.476 287.069 350.448C284.929 350.37 282.881 349.556 281.27 348.144C280.461 347.484 279.709 346.756 279.022 345.97C278.322 345.268 277.426 344.795 276.453 344.612C275.733 344.47 274.99 344.487 274.278 344.661C273.565 344.835 272.899 345.162 272.325 345.62C271.751 346.077 271.284 346.654 270.956 347.311C270.628 347.967 270.446 348.687 270.424 349.42C270.424 350.429 270.424 351.439 270.424 352.439C270.424 356.458 270.408 360.434 270.378 364.368C270.378 372.192 270.35 379.796 270.295 387.18L270.075 386.96L358.167 387.043L358.029 387.18C358.332 373.205 358.58 362.166 358.754 354.605C358.754 353.687 358.754 352.769 358.819 351.943C358.885 351.175 358.811 350.4 358.598 349.659C358.318 348.721 357.781 347.88 357.048 347.232C356.315 346.583 355.415 346.152 354.451 345.988C353.9 345.86 353.643 345.869 353.643 345.85Z" fill="#263238"/>
<path d="M267.855 121.152C266.359 121.152 261.624 120.473 260.587 121.556C258.944 123.272 259.302 126.915 255.926 126.85C250.695 126.749 247.125 122.492 247.245 116.564C247.364 110.636 251.09 106.525 256.32 106.626C259.697 106.699 258.678 111.875 260.908 112.691C262.23 113.178 266.515 112.756 268.02 112.783C268.735 112.798 269.446 112.671 270.113 112.41C270.779 112.15 271.388 111.76 271.903 111.264C272.419 110.768 272.832 110.175 273.118 109.52C273.404 108.864 273.558 108.158 273.571 107.443L273.241 72.7563L218.872 72.8573L181.699 72.9582V105.892C181.644 108.902 184.534 111.049 187.544 111.113C188.286 111.13 189.024 110.994 189.711 110.713C190.398 110.432 191.019 110.012 191.536 109.48C193.178 107.755 196.124 105.35 199.473 105.415C204.704 105.516 208.273 109.773 208.154 115.701C208.035 121.629 204.309 125.731 199.079 125.63C195.702 125.566 192.885 123.042 191.306 121.262C190.575 120.452 189.616 119.88 188.556 119.622C187.495 119.364 186.381 119.43 185.359 119.813C184.337 120.196 183.453 120.878 182.824 121.77C182.194 122.661 181.847 123.722 181.827 124.813L181.671 163.702H272.443L273.195 126.731C273.212 126.014 273.087 125.3 272.828 124.631C272.569 123.962 272.18 123.351 271.684 122.832C271.187 122.314 270.594 121.899 269.937 121.61C269.28 121.322 268.572 121.166 267.855 121.152Z" fill="#263238"/>
<path d="M261.615 121.152C260.873 121.134 260.136 121.27 259.449 121.552C258.762 121.833 258.14 122.253 257.624 122.785C255.981 124.501 253.035 126.915 249.686 126.85C244.465 126.749 240.886 122.492 241.005 116.564C241.125 110.636 244.859 106.525 250.081 106.626C253.457 106.699 256.275 109.223 257.853 111.003C258.349 111.555 258.954 111.998 259.63 112.304C260.306 112.61 261.038 112.773 261.78 112.783C262.496 112.798 263.207 112.671 263.873 112.41C264.54 112.15 265.148 111.76 265.664 111.264C266.18 110.768 266.592 110.175 266.878 109.52C267.165 108.864 267.319 108.158 267.332 107.443L267.002 72.7563L212.605 72.8298L175.432 72.9307V105.892C175.377 108.902 178.267 111.049 181.277 111.113C182.021 111.131 182.76 110.995 183.448 110.714C184.136 110.433 184.759 110.012 185.278 109.48C186.921 107.755 189.866 105.35 193.206 105.415C198.437 105.516 202.006 109.773 201.896 115.701C201.786 121.629 198.042 125.731 192.812 125.63C189.435 125.566 186.618 123.042 185.039 121.262C184.308 120.452 183.349 119.88 182.289 119.622C181.228 119.364 180.114 119.43 179.092 119.813C178.07 120.196 177.186 120.878 176.557 121.77C175.927 122.661 175.58 123.722 175.56 124.813L175.432 163.702H266.212L266.956 126.731C266.973 126.014 266.848 125.3 266.589 124.631C266.329 123.962 265.94 123.351 265.444 122.832C264.948 122.314 264.354 121.899 263.697 121.61C263.04 121.322 262.333 121.166 261.615 121.152Z" fill="#455A64"/>
<path d="M261.615 121.152C261.876 121.146 262.137 121.164 262.395 121.207C263.156 121.319 263.883 121.598 264.524 122.024C265.591 122.714 266.384 123.756 266.763 124.969C266.998 125.744 267.082 126.557 267.011 127.364C267.011 128.217 267.011 129.135 267.011 130.117C266.864 137.908 266.662 149.286 266.396 163.684V163.821H266.258L175.478 163.904H175.267V163.702C175.267 156.104 175.288 148.265 175.331 140.183C175.331 136.152 175.331 132.065 175.331 127.924C175.331 126.887 175.331 125.85 175.331 124.804C175.371 123.709 175.717 122.647 176.331 121.739C176.964 120.833 177.846 120.129 178.87 119.712C179.894 119.295 181.017 119.184 182.103 119.39C183.2 119.603 184.209 120.136 185.003 120.922C185.699 121.721 186.46 122.461 187.278 123.134C188.861 124.538 190.881 125.351 192.995 125.437C195.133 125.466 197.197 124.652 198.739 123.171C200.256 121.631 201.223 119.635 201.492 117.49C201.656 116.419 201.687 115.331 201.584 114.251C201.502 113.168 201.255 112.103 200.85 111.095C200.077 109.039 198.528 107.369 196.537 106.442C195.543 105.985 194.466 105.737 193.373 105.711C192.279 105.686 191.192 105.885 190.178 106.295C189.155 106.724 188.195 107.289 187.324 107.975C186.884 108.323 186.462 108.69 186.058 109.067C185.661 109.487 185.241 109.885 184.801 110.26C183.996 110.863 183.046 111.243 182.048 111.361C181.044 111.453 180.033 111.325 179.084 110.985C178.139 110.649 177.285 110.099 176.588 109.379C175.882 108.647 175.42 107.714 175.267 106.708C175.217 106.221 175.199 105.73 175.212 105.24V95.2289C175.212 87.6799 175.212 80.2472 175.212 72.9306V72.6921H175.441L267.011 72.5636H267.203V72.7563C267.277 80.3787 267.341 87.6554 267.396 94.5866C267.433 98.0552 267.463 101.42 267.488 104.68C267.488 105.497 267.488 106.314 267.488 107.121C267.513 107.942 267.363 108.758 267.047 109.516C266.735 110.246 266.272 110.901 265.689 111.439C265.106 111.977 264.416 112.386 263.665 112.639C262.913 112.891 262.116 112.983 261.326 112.906C260.537 112.83 259.772 112.588 259.082 112.196C258.437 111.806 257.866 111.306 257.394 110.718C256.908 110.191 256.387 109.697 255.834 109.241C254.784 108.326 253.57 107.619 252.255 107.158C250.987 106.737 249.632 106.646 248.319 106.892C247.084 107.114 245.915 107.614 244.902 108.355C243.889 109.096 243.059 110.058 242.473 111.168C241.407 113.204 240.945 115.503 241.143 117.793C241.242 119.857 241.947 121.845 243.171 123.51C244.268 124.961 245.824 125.999 247.585 126.456C249.089 126.882 250.685 126.853 252.173 126.373C253.399 125.956 254.547 125.335 255.568 124.538C256.379 123.906 257.146 123.22 257.862 122.482C258.423 121.978 259.087 121.602 259.807 121.381C260.242 121.244 260.692 121.164 261.147 121.143C261.3 121.13 261.453 121.13 261.606 121.143C261.606 121.143 261.45 121.143 261.147 121.143C260.697 121.177 260.254 121.266 259.826 121.409C259.117 121.637 258.466 122.016 257.917 122.519C257.21 123.268 256.45 123.964 255.641 124.602C254.61 125.399 253.453 126.019 252.219 126.437C250.704 126.936 249.075 126.974 247.539 126.547C245.737 126.088 244.143 125.034 243.015 123.556C241.764 121.892 241.027 119.898 240.895 117.821C240.685 115.485 241.15 113.137 242.235 111.058C242.834 109.912 243.687 108.918 244.729 108.151C245.77 107.385 246.973 106.866 248.245 106.635C249.603 106.378 251.004 106.467 252.32 106.892C253.663 107.37 254.908 108.092 255.99 109.021C256.55 109.489 257.08 109.991 257.578 110.526C258.031 111.089 258.581 111.568 259.202 111.939C259.852 112.309 260.574 112.537 261.319 112.608C262.064 112.68 262.816 112.592 263.525 112.352C264.234 112.112 264.884 111.725 265.433 111.215C265.981 110.706 266.416 110.086 266.708 109.397C267.35 107.984 267.047 106.314 267.093 104.69C267.093 101.423 267.06 98.0583 266.992 94.5958C266.919 87.6646 266.842 80.3848 266.763 72.7563L266.956 72.949L175.386 73.1601L175.625 72.9306V105.213C175.61 105.681 175.628 106.15 175.68 106.617C175.868 107.521 176.297 108.358 176.923 109.038C177.548 109.718 178.345 110.216 179.231 110.48C180.111 110.798 181.052 110.917 181.984 110.829C182.909 110.726 183.79 110.378 184.535 109.819C184.957 109.507 185.315 109.067 185.746 108.672C186.177 108.278 186.599 107.901 187.049 107.543C187.953 106.83 188.95 106.243 190.013 105.8C191.088 105.364 192.241 105.153 193.4 105.178C194.56 105.203 195.702 105.465 196.757 105.947C198.87 106.925 200.517 108.69 201.346 110.865C201.766 111.915 202.026 113.023 202.116 114.15C202.221 115.27 202.187 116.398 202.015 117.509C201.724 119.754 200.706 121.843 199.116 123.455C197.485 125.022 195.302 125.883 193.041 125.85C190.818 125.769 188.693 124.915 187.031 123.437C186.195 122.757 185.419 122.008 184.709 121.198C183.986 120.474 183.062 119.984 182.057 119.794C181.314 119.648 180.549 119.666 179.814 119.846C179.079 120.026 178.392 120.364 177.801 120.837C177.21 121.309 176.729 121.905 176.391 122.582C176.053 123.259 175.867 124.002 175.845 124.758C175.845 125.804 175.845 126.841 175.845 127.869C175.845 132.01 175.845 136.1 175.845 140.137C175.845 148.2 175.817 156.037 175.762 163.647L175.542 163.436L266.322 163.509L266.176 163.647C266.497 149.24 266.754 137.862 266.928 130.08C266.928 129.108 266.974 128.19 266.992 127.327C267.065 126.534 266.987 125.734 266.763 124.969C266.399 123.776 265.63 122.747 264.588 122.06C263.959 121.634 263.246 121.349 262.496 121.225C261.881 121.161 261.615 121.17 261.615 121.152Z" fill="#263238"/>
<path d="M454.435 121.152C452.939 121.152 448.213 120.473 447.177 121.556C445.525 123.272 445.883 126.915 442.506 126.85C437.285 126.749 433.706 122.492 433.825 116.564C433.944 110.636 437.679 106.525 442.9 106.626C446.277 106.699 445.259 111.875 447.489 112.691C448.801 113.178 453.095 112.756 454.591 112.783C455.306 112.798 456.018 112.671 456.684 112.41C457.35 112.15 457.959 111.76 458.474 111.264C458.99 110.768 459.403 110.175 459.689 109.52C459.975 108.864 460.129 108.158 460.143 107.443L459.812 72.7563L405.425 72.8573L368.252 72.9582V105.892C368.197 108.902 371.087 111.049 374.097 111.113C374.84 111.131 375.579 110.995 376.268 110.714C376.956 110.433 377.579 110.012 378.098 109.48C379.74 107.755 382.686 105.35 386.026 105.415C391.257 105.516 394.826 109.773 394.716 115.701C394.606 121.629 390.862 125.731 385.632 125.63C382.264 125.566 379.438 123.042 377.859 121.262C377.128 120.452 376.169 119.88 375.109 119.622C374.048 119.364 372.934 119.43 371.912 119.813C370.89 120.196 370.006 120.878 369.376 121.77C368.747 122.661 368.399 123.722 368.38 124.813L368.252 163.702H459.032L459.776 126.731C459.793 126.014 459.668 125.3 459.408 124.631C459.149 123.962 458.76 123.351 458.264 122.832C457.768 122.314 457.174 121.899 456.517 121.61C455.86 121.322 455.152 121.166 454.435 121.152Z" fill="#263238"/>
<path d="M448.709 121.152C447.967 121.133 447.229 121.269 446.542 121.55C445.855 121.831 445.234 122.252 444.718 122.785C443.066 124.501 440.129 126.915 436.78 126.85C431.55 126.749 427.98 122.492 428.09 116.564C428.2 110.636 431.944 106.525 437.175 106.626C440.552 106.699 443.369 109.223 444.947 111.003C445.443 111.555 446.048 111.999 446.724 112.305C447.4 112.612 448.132 112.775 448.874 112.783C449.59 112.798 450.301 112.671 450.967 112.41C451.634 112.15 452.242 111.76 452.758 111.264C453.274 110.768 453.686 110.175 453.973 109.52C454.259 108.864 454.413 108.158 454.426 107.443L454.096 72.7563L399.699 72.8298L362.526 72.9307V105.892C362.462 108.902 365.361 111.049 368.371 111.113C369.113 111.13 369.851 110.994 370.538 110.713C371.225 110.432 371.846 110.012 372.363 109.48C374.005 107.755 376.951 105.35 380.3 105.415C385.531 105.516 389.1 109.773 388.981 115.701C388.862 121.629 385.127 125.731 379.906 125.63C376.529 125.566 373.712 123.042 372.133 121.262C371.402 120.452 370.443 119.88 369.383 119.622C368.322 119.364 367.208 119.43 366.186 119.813C365.164 120.196 364.28 120.878 363.651 121.77C363.021 122.661 362.674 123.722 362.654 124.813L362.526 163.702H453.297L454.05 126.731C454.07 125.286 453.521 123.892 452.522 122.848C451.523 121.804 450.153 121.195 448.709 121.152Z" fill="#455A64"/>
<path d="M448.709 121.152C448.967 121.146 449.225 121.164 449.48 121.207C450.241 121.318 450.968 121.597 451.609 122.024C452.682 122.71 453.478 123.753 453.857 124.969C454.083 125.746 454.166 126.557 454.105 127.364C454.105 128.217 454.104 129.135 454.059 130.117C453.912 137.908 453.701 149.286 453.435 163.684V163.821H453.297L362.526 163.904H362.305V163.702C362.305 156.104 362.33 148.265 362.379 140.183C362.379 136.152 362.379 132.065 362.379 127.924C362.379 126.887 362.379 125.85 362.379 124.804C362.401 123.979 362.602 123.17 362.969 122.431C363.336 121.692 363.86 121.043 364.504 120.527C365.148 120.012 365.896 119.643 366.697 119.447C367.498 119.25 368.332 119.231 369.142 119.39C370.239 119.601 371.249 120.134 372.041 120.922C372.74 121.719 373.501 122.458 374.317 123.134C375.903 124.54 377.926 125.354 380.043 125.437C382.179 125.468 384.241 124.653 385.778 123.171C387.298 121.633 388.266 119.636 388.531 117.49C388.698 116.419 388.732 115.331 388.632 114.251C388.547 113.167 388.296 112.103 387.889 111.095C387.12 109.04 385.574 107.369 383.585 106.442C382.589 105.986 381.511 105.737 380.416 105.712C379.321 105.687 378.232 105.885 377.217 106.295C376.197 106.724 375.24 107.289 374.372 107.975C373.932 108.323 373.51 108.69 373.106 109.067C372.702 109.443 372.335 109.893 371.849 110.26C371.043 110.862 370.094 111.241 369.096 111.361C368.095 111.453 367.087 111.325 366.141 110.985C365.196 110.649 364.342 110.099 363.645 109.379C362.939 108.647 362.478 107.714 362.324 106.708C362.269 106.221 362.251 105.73 362.269 105.24V72.6921H362.507L454.077 72.5636H454.27V72.7563C454.331 80.3787 454.395 87.6554 454.462 94.5866C454.462 98.0552 454.49 101.42 454.545 104.68V107.121C454.567 107.943 454.413 108.759 454.095 109.516C453.784 110.245 453.322 110.9 452.74 111.438C452.158 111.976 451.469 112.385 450.718 112.638C449.966 112.891 449.17 112.982 448.381 112.906C447.592 112.83 446.828 112.588 446.14 112.196C445.492 111.809 444.92 111.309 444.451 110.718C443.963 110.193 443.442 109.7 442.891 109.241C441.839 108.329 440.625 107.623 439.312 107.158C438.044 106.737 436.689 106.646 435.376 106.892C434.141 107.114 432.972 107.614 431.959 108.355C430.947 109.096 430.116 110.058 429.531 111.168C428.464 113.204 428.002 115.503 428.2 117.793C428.299 119.857 429.005 121.845 430.228 123.51C431.322 124.96 432.874 125.998 434.633 126.456C436.137 126.882 437.733 126.853 439.221 126.373C440.45 125.956 441.601 125.335 442.625 124.538C443.435 123.909 444.199 123.222 444.91 122.482C445.822 121.672 446.985 121.199 448.204 121.143C448.357 121.13 448.51 121.13 448.663 121.143C448.663 121.143 448.507 121.143 448.204 121.143C447.751 121.176 447.304 121.265 446.874 121.409C446.169 121.639 445.521 122.018 444.974 122.519C444.265 123.266 443.505 123.962 442.698 124.602C441.664 125.399 440.504 126.019 439.267 126.437C437.755 126.936 436.129 126.974 434.596 126.547C432.792 126.093 431.197 125.038 430.072 123.556C428.817 121.864 428.086 119.841 427.971 117.738C427.769 115.403 428.234 113.058 429.31 110.975C429.912 109.83 430.767 108.836 431.81 108.069C432.853 107.303 434.057 106.784 435.33 106.552C436.688 106.296 438.089 106.384 439.404 106.809C440.748 107.287 441.993 108.008 443.075 108.938C443.639 109.401 444.169 109.904 444.662 110.443C445.118 111.004 445.667 111.483 446.286 111.856C446.928 112.218 447.637 112.443 448.369 112.519C449.102 112.595 449.842 112.519 450.544 112.297C451.268 112.062 451.933 111.674 452.494 111.16C453.054 110.645 453.497 110.016 453.793 109.314C454.435 107.901 454.141 106.231 454.187 104.607C454.15 101.34 454.114 97.9757 454.077 94.5132C454.004 87.582 453.93 80.3022 453.857 72.6737L454.049 72.8664L362.48 73.0775L362.709 72.8481C362.709 80.1523 362.709 87.5882 362.709 95.1555V105.13C362.692 105.599 362.707 106.068 362.755 106.534C362.937 107.439 363.359 108.278 363.978 108.962C364.596 109.647 365.388 110.152 366.27 110.425C367.15 110.744 368.09 110.863 369.022 110.773C369.949 110.674 370.83 110.326 371.573 109.764C372.001 109.404 372.408 109.021 372.794 108.617C373.209 108.219 373.644 107.843 374.097 107.488C375.001 106.775 375.998 106.188 377.061 105.745C378.134 105.309 379.285 105.098 380.444 105.123C381.602 105.148 382.743 105.41 383.796 105.892C385.911 106.867 387.558 108.633 388.384 110.81C388.808 111.859 389.068 112.967 389.155 114.095C389.264 115.215 389.23 116.343 389.054 117.454C388.771 119.702 387.751 121.792 386.154 123.4C384.527 124.965 382.347 125.826 380.089 125.795C377.863 125.715 375.734 124.861 374.069 123.382C373.239 122.699 372.466 121.95 371.757 121.143C371.033 120.42 370.109 119.931 369.105 119.739C368.362 119.595 367.597 119.614 366.862 119.795C366.127 119.975 365.44 120.313 364.849 120.785C364.257 121.257 363.775 121.852 363.436 122.528C363.097 123.205 362.908 123.947 362.884 124.703C362.884 125.749 362.884 126.786 362.884 127.814C362.884 131.955 362.868 136.045 362.838 140.082C362.838 148.145 362.807 155.982 362.746 163.592L362.535 163.381L453.306 163.454L453.169 163.592C453.49 149.185 453.737 137.807 453.912 130.025C453.912 129.053 453.958 128.135 453.976 127.272C454.047 126.479 453.972 125.68 453.756 124.914C453.388 123.723 452.62 122.695 451.581 122.005C450.949 121.578 450.232 121.293 449.48 121.17C448.975 121.161 448.709 121.17 448.709 121.152Z" fill="#263238"/>
<path d="M94.3228 107.36C94.2962 108.797 93.7024 110.165 92.6709 111.165C91.6394 112.166 90.254 112.718 88.817 112.7C88.074 112.691 87.3411 112.527 86.6649 112.219C85.9887 111.911 85.3841 111.466 84.8896 110.911C83.3113 109.131 80.4942 106.607 77.1173 106.543C71.8961 106.442 68.1522 110.553 68.042 116.481C67.9319 122.409 71.4923 126.657 76.7228 126.758C80.0996 126.832 83.0177 124.418 84.6602 122.703C85.1662 122.178 85.774 121.763 86.4462 121.482C87.1183 121.202 87.8408 121.061 88.5693 121.069C89.2847 121.082 89.9905 121.236 90.6463 121.523C91.3021 121.809 91.895 122.222 92.391 122.737C92.8871 123.253 93.2766 123.861 93.5372 124.528C93.7978 125.194 93.9245 125.905 93.9099 126.621L93.1666 163.592H175.367L175.496 124.749C175.522 123.312 176.116 121.944 177.148 120.943C178.179 119.943 179.565 119.391 181.002 119.408C181.748 119.423 182.483 119.594 183.159 119.91C183.836 120.226 184.439 120.68 184.929 121.243C186.507 123.024 189.324 125.547 192.701 125.611C197.923 125.712 201.666 121.601 201.777 115.674C201.887 109.746 198.317 105.497 193.096 105.396C189.719 105.323 186.801 107.736 185.158 109.452C184.643 109.986 184.022 110.408 183.334 110.689C182.647 110.97 181.909 111.105 181.167 111.085C178.157 111.03 175.257 108.874 175.321 105.864V72.8572H93.9924L94.3228 107.36Z" fill="#455A64"/>
<path d="M94.3226 107.36C94.3226 107.36 94.3226 107.167 94.3226 106.782C94.3226 106.396 94.3226 105.809 94.3226 105.057C94.3226 103.533 94.2676 101.276 94.2309 98.3488C94.0749 92.4576 94.0015 83.8687 93.873 72.8572V72.7287H94.0015L175.413 72.6461H175.615V72.8572C175.615 81.0301 175.615 89.5426 175.615 98.3947V105.084C175.591 105.633 175.619 106.183 175.698 106.727C175.797 107.255 175.997 107.759 176.285 108.213C176.892 109.131 177.757 109.85 178.772 110.278C179.784 110.731 180.898 110.908 182.002 110.792C183.112 110.663 184.148 110.169 184.947 109.388C186.531 107.609 188.543 106.263 190.792 105.479C191.39 105.301 192.006 105.19 192.628 105.148C193.241 105.123 193.855 105.153 194.463 105.24C195.677 105.414 196.838 105.85 197.867 106.516C199.922 107.914 201.349 110.062 201.841 112.499C202.37 114.94 202.218 117.479 201.4 119.84C200.989 121.036 200.33 122.132 199.467 123.057C198.603 123.982 197.555 124.715 196.39 125.208C195.205 125.675 193.937 125.89 192.664 125.841C191.376 125.769 190.121 125.405 188.994 124.776C187.883 124.158 186.859 123.396 185.947 122.51C185.489 122.079 185.03 121.592 184.644 121.152C184.212 120.731 183.709 120.389 183.158 120.142C182.041 119.649 180.788 119.563 179.614 119.898C178.441 120.234 177.422 120.969 176.734 121.978C176.049 123.005 175.726 124.233 175.817 125.465C175.817 126.74 175.817 128.025 175.817 129.3C175.817 140.991 175.743 152.479 175.698 163.656V163.895H175.468H93.2674H93.0563V163.684C93.2337 155.315 93.402 147.313 93.561 139.679C93.6405 135.873 93.7201 132.163 93.7996 128.548C93.8548 127.662 93.8548 126.773 93.7996 125.887C93.6978 125.038 93.3821 124.23 92.882 123.538C92.3945 122.854 91.7501 122.297 91.0029 121.914C90.2556 121.53 89.4273 121.332 88.5875 121.335C87.7682 121.333 86.9601 121.525 86.2292 121.895C85.8675 122.074 85.5286 122.296 85.2198 122.556C84.917 122.813 84.6417 123.125 84.3022 123.418C83.144 124.574 81.7972 125.523 80.3197 126.226C78.8972 126.879 77.3222 127.127 75.7679 126.942C74.2137 126.758 72.7405 126.148 71.5105 125.18C70.3779 124.25 69.4818 123.064 68.8953 121.721C68.3476 120.435 68.0367 119.061 67.9777 117.665C67.7623 115.062 68.407 112.46 69.8129 110.26C71.0619 108.423 72.9822 107.151 75.1603 106.717C77.3383 106.282 79.5998 106.721 81.4575 107.938C82.9247 108.905 84.2497 110.073 85.3942 111.407C86.378 112.258 87.6353 112.726 88.9362 112.726C90.237 112.726 91.4944 112.258 92.4782 111.407C93.1116 110.866 93.6083 110.184 93.9281 109.415C94.1906 108.789 94.3427 108.121 94.3777 107.442C94.3777 107.442 94.3777 107.617 94.3777 107.956C94.324 108.466 94.2005 108.966 94.0106 109.443C93.658 110.202 93.1371 110.87 92.4874 111.397C91.4839 112.275 90.196 112.759 88.8628 112.759C87.5296 112.759 86.2417 112.275 85.2382 111.397C84.0921 110.082 82.7706 108.93 81.3107 107.975C79.4948 106.793 77.2871 106.372 75.1638 106.803C73.0404 107.234 71.1714 108.482 69.9597 110.278C68.5733 112.429 67.9288 114.975 68.1245 117.527C68.1556 118.926 68.4814 120.304 69.0806 121.568C69.6799 122.833 70.5391 123.958 71.6023 124.868C72.7931 125.793 74.2146 126.375 75.7125 126.55C77.2105 126.724 78.7276 126.486 80.0995 125.859C81.5427 125.168 82.8583 124.237 83.9902 123.106C84.2838 122.831 84.5499 122.519 84.9078 122.235C85.2357 121.956 85.5962 121.719 85.9814 121.528C86.7576 121.134 87.6161 120.929 88.4865 120.931C89.8419 120.922 91.1547 121.404 92.1821 122.288C93.2095 123.172 93.8819 124.398 94.0749 125.74C94.1269 126.657 94.1269 127.576 94.0749 128.493C94.0015 132.108 93.9281 135.821 93.8546 139.633C93.7078 147.261 93.5518 155.263 93.3867 163.638L93.1848 163.427H175.386L175.147 163.665C175.147 152.479 175.22 141 175.257 129.3C175.257 128.025 175.257 126.749 175.257 125.474C175.172 124.147 175.523 122.829 176.257 121.721C177.01 120.62 178.125 119.819 179.408 119.457C180.691 119.094 182.06 119.194 183.277 119.739C183.881 120.004 184.431 120.377 184.901 120.84C185.36 121.317 185.746 121.757 186.204 122.189C187.081 123.052 188.072 123.79 189.15 124.382C190.21 124.972 191.389 125.317 192.6 125.391C193.806 125.439 195.009 125.235 196.133 124.795C197.238 124.327 198.231 123.632 199.049 122.755C199.866 121.877 200.489 120.837 200.877 119.702C201.662 117.436 201.808 114.998 201.299 112.655C200.836 110.335 199.482 108.289 197.528 106.956C196.552 106.33 195.454 105.92 194.307 105.754C193.739 105.673 193.165 105.642 192.591 105.662C192.022 105.706 191.459 105.81 190.912 105.974C188.73 106.733 186.78 108.042 185.25 109.773C184.377 110.616 183.252 111.151 182.047 111.296C180.861 111.424 179.661 111.237 178.57 110.755C177.473 110.289 176.54 109.506 175.89 108.507C175.574 108.004 175.353 107.447 175.239 106.864C175.154 106.293 175.124 105.716 175.147 105.139C175.147 102.894 175.147 100.664 175.147 98.4497C175.147 89.616 175.147 81.1036 175.147 72.9122L175.358 73.1233L93.9464 73.0407L94.0749 72.9122C94.1575 83.9237 94.2217 92.531 94.2584 98.4222C94.2584 101.349 94.2584 103.607 94.2584 105.13V106.809C94.3318 107.167 94.3226 107.36 94.3226 107.36Z" fill="#263238"/>
<path d="M89.0285 121.152C88.3342 121.137 87.6452 121.276 87.0107 121.558C86.3762 121.841 85.8119 122.26 85.358 122.785C83.8531 124.501 81.192 126.915 78.1088 126.85C73.328 126.749 70.0612 122.492 70.1622 116.564C70.2631 110.636 73.7042 106.525 78.4758 106.626C81.5591 106.699 84.1376 109.223 85.5783 111.003C86.0103 111.543 86.5553 111.983 87.1751 112.29C87.7949 112.598 88.4745 112.766 89.1662 112.783C89.8507 112.766 90.5252 112.615 91.1512 112.338C91.7772 112.06 92.3424 111.662 92.8145 111.166C93.2866 110.67 93.6564 110.086 93.9026 109.447C94.1489 108.808 94.2669 108.127 94.2498 107.443L93.947 72.7563L44.2118 72.8298L29.5298 72.9307V163.702H93.2129L93.9011 126.731C93.9894 125.346 93.5268 123.983 92.614 122.938C91.7013 121.893 90.4125 121.251 89.0285 121.152Z" fill="#455A64"/>
<path d="M89.0282 121.152H89.23C89.4275 121.152 89.6244 121.174 89.8173 121.216C90.5803 121.343 91.2994 121.659 91.9095 122.134C92.9026 122.944 93.5863 124.072 93.8457 125.327C93.9799 126.124 94.0199 126.934 93.965 127.741C93.965 128.603 93.965 129.521 93.965 130.493C93.8365 138.275 93.653 149.562 93.4236 163.638V163.785H93.2676L29.5845 163.849H29.3643V163.702C29.3643 141.753 29.3643 117.445 29.3643 91.9073V72.6923H29.6028C41.2016 72.5913 52.4609 72.5822 63.2338 72.573H94.0201H94.2219V72.784C94.277 80.0333 94.332 86.998 94.3871 93.6233C94.3871 96.9451 94.3871 100.175 94.4605 103.313C94.4605 104.892 94.5156 106.424 94.4605 107.975C94.3777 108.75 94.1381 109.501 93.7563 110.18C93.3746 110.86 92.8587 111.456 92.2399 111.93C91.3454 112.628 90.234 112.989 89.1 112.951C87.966 112.912 86.8816 112.476 86.0367 111.719C85.4861 111.223 85.1191 110.636 84.6236 110.15C83.7221 109.152 82.6655 108.306 81.4945 107.645C80.3808 107.008 79.1039 106.714 77.824 106.8C76.617 106.88 75.4485 107.257 74.4224 107.897C73.3962 108.538 72.5442 109.422 71.942 110.471C70.8165 112.424 70.2513 114.65 70.3086 116.903C70.2711 118.914 70.7381 120.901 71.6667 122.684C72.4827 124.26 73.8183 125.505 75.4473 126.208C76.8527 126.809 78.4175 126.929 79.8978 126.548C81.1195 126.185 82.2554 125.579 83.238 124.767C84.0279 124.138 84.7589 123.437 85.4219 122.675C85.9323 122.131 86.5599 121.711 87.2572 121.446C87.6787 121.29 88.1208 121.197 88.5694 121.17C88.7221 121.158 88.8755 121.158 89.0282 121.17C88.4287 121.182 87.8357 121.296 87.2755 121.51C86.5972 121.785 85.9889 122.208 85.4953 122.749C84.8346 123.521 84.1069 124.233 83.3205 124.878C82.3297 125.71 81.1812 126.334 79.9437 126.713C78.4217 127.117 76.8088 127.007 75.3556 126.401C73.679 125.688 72.3009 124.417 71.4557 122.804C70.5015 120.986 70.0217 118.956 70.0609 116.903C70.0013 114.62 70.5661 112.365 71.6943 110.379C72.3187 109.318 73.1712 108.409 74.1902 107.718C75.2595 106.995 76.507 106.579 77.7965 106.516C79.1384 106.413 80.4804 106.713 81.6505 107.378C82.8656 108.045 83.963 108.907 84.8989 109.929C85.3944 110.425 85.8165 111.031 86.2936 111.471C86.8252 111.93 87.452 112.266 88.1289 112.453C88.8073 112.642 89.5207 112.668 90.211 112.529C90.9014 112.39 91.5493 112.091 92.1022 111.655C92.6684 111.198 93.1354 110.63 93.4746 109.986C93.8138 109.342 94.0182 108.636 94.0751 107.911C94.1302 106.424 94.0751 104.846 94.0751 103.323C94.0751 100.184 94.0109 96.9543 93.9742 93.6325C93.913 87.0072 93.8487 80.0608 93.7815 72.7932L93.9925 73.0043L63.2062 73.0685C52.4333 73.0685 41.1833 73.0685 29.5753 73.2062L29.8139 72.9676V91.9165C29.8139 117.454 29.8139 141.762 29.8139 163.711L29.5937 163.491L93.2768 163.555L93.1208 163.711C93.4144 149.644 93.653 138.348 93.809 130.567C93.809 129.594 93.809 128.677 93.8732 127.814C93.9341 127.017 93.9002 126.217 93.7723 125.428C93.5404 124.199 92.8923 123.088 91.937 122.281C91.3432 121.793 90.6418 121.453 89.8907 121.29C89.2943 121.161 89.0282 121.17 89.0282 121.152Z" fill="#263238"/>
<path opacity="0.3" d="M93.9741 163.702C93.9741 163.702 99.1495 107.543 101.6 100.386C104.05 93.2284 125.981 86.7133 125.981 86.7133L131.817 81.4737L134.001 76.3166V72.8572H150.968L153.115 163.702H93.9741Z" fill="black"/>
<path d="M200.629 39.2355L203.924 32.4818C201.847 26.833 201.958 20.6117 204.236 15.0408C206.513 9.46992 210.792 4.95252 216.232 2.37667C221.671 -0.199183 227.877 -0.647142 233.63 1.12085C239.383 2.88885 244.267 6.7449 247.321 11.9309C250.375 17.117 251.378 23.2579 250.134 29.1464C248.89 35.0348 245.488 40.2449 240.597 43.7524C235.707 47.2599 229.681 48.811 223.704 48.1008C217.728 47.3906 212.233 44.4705 208.301 39.9146L200.629 39.2355Z" fill="white"/>
<path d="M200.629 39.2355H201.152L202.63 39.3548L208.319 39.8319L208.218 39.9788L207.879 39.2905L208.392 39.8687C211.003 42.8548 214.309 45.1523 218.018 46.5581C222.621 48.2875 227.647 48.5523 232.406 47.3163C237.165 46.0803 241.426 43.404 244.607 39.6534C247.787 35.9029 249.73 31.2613 250.171 26.3639C250.612 21.4665 249.529 16.5524 247.07 12.2941L246.318 11.0369L245.483 9.8807L245.061 9.29342L244.574 8.75202L243.574 7.70593C239.64 3.68501 234.423 1.16611 228.828 0.585174C224.814 0.204461 220.769 0.844007 217.069 2.44445C213.368 4.04489 210.132 6.55434 207.66 9.73985C205.189 12.9254 203.562 16.6837 202.931 20.6659C202.3 24.6481 202.686 28.7251 204.052 32.5185L201.556 37.4553L200.905 38.74L200.666 39.1896C200.666 39.1896 200.721 39.052 200.859 38.7675C200.996 38.483 201.198 38.0334 201.455 37.4828L203.832 32.4818V32.5644C202.429 28.8115 201.991 24.7667 202.556 20.8004C203.447 14.6338 206.676 9.04593 211.573 5.19398C216.471 1.34203 222.662 -0.478981 228.865 0.108009C234.573 0.692816 239.898 3.24994 243.923 7.33888L244.905 8.44003L245.391 8.99061L245.832 9.59624L246.749 10.7892L247.52 12.0738C249.327 15.1895 250.418 18.6688 250.711 22.2588C251.005 25.8488 250.495 29.4591 249.218 32.8271C247.941 36.1951 245.929 39.236 243.329 41.7288C240.729 44.2215 237.606 46.1032 234.187 47.2372C229.639 48.7585 224.739 48.8836 220.119 47.5966C215.499 46.3096 211.371 43.6692 208.264 40.0155L208.429 39.9054L208.503 40.0705H208.328L202.584 39.4557L201.134 39.2997L200.629 39.2355Z" fill="#263238"/>
<path d="M215.045 24.7003L218.156 21.5895L224.157 26.9209L235.94 15.5883L238.83 18.699L223.717 32.9222L215.045 24.7003Z" fill="#8ACEB2"/>
<path d="M174.468 355.559L173.697 375.792C173.697 375.792 194.004 383.363 194.234 387.116L154.95 387.033L154.849 355.467L174.468 355.559Z" fill="#263238"/>
<path d="M161.557 374.067C161.177 374.181 160.853 374.432 160.648 374.771C160.442 375.11 160.371 375.513 160.446 375.903C160.546 376.291 160.794 376.626 161.137 376.835C161.479 377.044 161.89 377.111 162.282 377.022C162.683 376.9 163.026 376.634 163.243 376.275C163.459 375.916 163.536 375.489 163.456 375.077C163.302 374.696 163.008 374.388 162.634 374.217C162.26 374.047 161.835 374.026 161.447 374.159" fill="#E0E0E0"/>
<path d="M154.95 387.033L155.06 383.858L192.683 385.125C192.683 385.125 194.426 385.886 194.234 387.116L154.95 387.033Z" fill="#455A64"/>
<path d="M174.339 375.591C174.339 375.783 173.376 375.866 172.431 376.508C171.485 377.151 170.981 377.931 170.797 377.857C170.614 377.784 170.917 376.673 172.073 375.948C173.229 375.223 174.376 375.416 174.339 375.591Z" fill="white"/>
<path d="M178.496 377.307C178.542 377.49 177.716 377.811 177.056 378.628C176.395 379.445 176.221 380.289 176.028 380.28C175.835 380.27 175.716 379.188 176.542 378.197C177.368 377.206 178.496 377.123 178.496 377.307Z" fill="white"/>
<path d="M180.781 382.243C180.606 382.243 180.34 381.326 180.836 380.27C181.331 379.215 182.231 378.811 182.313 378.967C182.396 379.123 181.836 379.683 181.442 380.555C181.047 381.427 180.974 382.225 180.781 382.243Z" fill="white"/>
<path d="M174 370.966C173.918 371.14 173.083 370.874 171.954 370.966C170.825 371.057 170.027 371.379 169.926 371.213C169.825 371.048 170.642 370.369 171.917 370.296C173.193 370.222 174.092 370.81 174 370.966Z" fill="white"/>
<path d="M126.384 352.806L124.255 377.206L128.137 396.999C128.204 397.336 128.201 397.684 128.127 398.02C128.054 398.356 127.912 398.674 127.711 398.953C127.509 399.232 127.252 399.466 126.956 399.641C126.66 399.817 126.331 399.929 125.99 399.972C125.593 400.022 125.191 399.976 124.816 399.839C124.441 399.702 124.104 399.477 123.833 399.183C120.337 395.365 107.527 381.261 107.784 379.481C108.078 377.426 108.316 353.595 108.316 353.595L126.384 352.806Z" fill="#263238"/>
<path d="M125.99 399.972L107.885 377.83L107.821 378.867C107.764 379.762 108.024 380.648 108.555 381.372C109.995 383.289 114.06 388.52 123.76 399.174C124.036 399.481 124.385 399.715 124.774 399.854C125.163 399.993 125.581 400.034 125.99 399.972Z" fill="#455A64"/>
<g opacity="0.6">
<path d="M113.409 370.268C113.697 370.509 113.885 370.847 113.938 371.218C113.991 371.59 113.903 371.967 113.694 372.278C113.463 372.57 113.13 372.764 112.762 372.82C112.394 372.877 112.019 372.791 111.712 372.581C111.408 372.325 111.21 371.966 111.156 371.573C111.102 371.18 111.195 370.78 111.418 370.452C111.689 370.169 112.06 370.002 112.452 369.986C112.844 369.971 113.227 370.108 113.519 370.369" fill="white"/>
</g>
<path d="M121.09 388.933C121.673 388.153 122.456 387.545 123.355 387.172C124.254 386.799 125.237 386.675 126.201 386.813C126.201 386.749 125.935 386.538 125.366 386.418C124.617 386.285 123.846 386.371 123.145 386.666C122.447 386.958 121.846 387.441 121.411 388.061C121.09 388.52 121.035 388.905 121.09 388.933Z" fill="white"/>
<path d="M122.622 392.319C123.346 391.969 124.091 391.662 124.852 391.401C125.653 391.305 126.458 391.253 127.265 391.245C126.902 390.988 126.483 390.821 126.043 390.758C125.603 390.694 125.154 390.735 124.732 390.878C123.264 391.209 122.521 392.245 122.622 392.319Z" fill="white"/>
<path d="M118.117 384.528C119.19 383.898 120.31 383.349 121.466 382.886C123.42 382.243 125.136 382.436 125.136 382.271C123.872 381.937 122.538 381.972 121.292 382.372C120.047 382.772 118.942 383.521 118.107 384.528H118.117Z" fill="white"/>
<path d="M118.144 377.059C118.199 377.206 119.585 376.728 121.347 376.774C123.108 376.82 124.476 377.334 124.54 377.187C123.618 376.52 122.492 376.196 121.356 376.27C120.225 376.143 119.087 376.423 118.144 377.059Z" fill="white"/>
<path d="M118.585 369.874C119.673 369.599 120.794 369.473 121.916 369.498C123.751 369.663 125.008 370.654 125.109 370.516C125.21 370.378 124.898 370.149 124.357 369.782C123.636 369.326 122.819 369.047 121.971 368.965C121.121 368.872 120.26 368.989 119.466 369.305C118.851 369.553 118.557 369.819 118.585 369.874Z" fill="white"/>
<path d="M121.961 368.13C122.058 367.835 122.09 367.522 122.053 367.213C122.026 366.36 121.83 365.52 121.475 364.744C121.263 364.155 120.863 363.652 120.337 363.313C120.155 363.214 119.946 363.175 119.74 363.202C119.534 363.228 119.342 363.318 119.19 363.46C118.908 363.751 118.745 364.137 118.731 364.542C118.734 365.366 119.025 366.164 119.552 366.797C120.08 367.43 120.812 367.859 121.622 368.011C122.427 368.146 123.254 368.038 123.997 367.702C124.741 367.365 125.367 366.815 125.797 366.121C125.903 365.946 125.971 365.752 125.997 365.549C126.022 365.347 126.004 365.141 125.944 364.946C125.861 364.755 125.72 364.595 125.54 364.489C125.36 364.383 125.151 364.338 124.944 364.359C124.333 364.451 123.758 364.701 123.274 365.084C122.573 365.584 121.967 366.206 121.484 366.919C121.286 367.158 121.139 367.437 121.053 367.736C121.75 366.859 122.569 366.087 123.485 365.442C123.919 365.126 124.422 364.919 124.953 364.836C125.067 364.824 125.182 364.849 125.28 364.907C125.379 364.965 125.458 365.052 125.504 365.157C125.533 365.289 125.535 365.425 125.51 365.558C125.484 365.69 125.432 365.816 125.357 365.928C124.965 366.521 124.41 366.987 123.758 367.271C123.107 367.554 122.387 367.642 121.686 367.525C121.002 367.391 120.383 367.03 119.93 366.5C119.477 365.97 119.217 365.303 119.19 364.607C119.194 364.328 119.295 364.058 119.475 363.845C119.557 363.765 119.662 363.713 119.775 363.695C119.889 363.677 120.005 363.694 120.108 363.744C120.551 364.034 120.894 364.454 121.09 364.946C121.563 365.949 121.858 367.026 121.961 368.13Z" fill="white"/>
<path d="M193.389 185.009C195.285 193.396 195.925 202.018 195.289 210.593C194.876 216.025 176.523 366.414 176.523 366.414H151.748L158.712 225.1L156.684 225.532C156.684 225.532 143.168 285.819 142.057 295.583C141.066 304.355 129.67 368.075 129.67 368.075L107.032 368.332L114.263 284.021L122.677 203.16L125.843 179.614L193.389 185.009Z" fill="#263238"/>
<path d="M157.822 215.474C157.822 215.474 157.868 215.548 157.978 215.649C158.159 215.783 158.365 215.88 158.584 215.933C158.993 216.017 159.415 216.011 159.821 215.914C160.226 215.817 160.606 215.633 160.933 215.373C161.398 214.973 161.779 214.485 162.055 213.937C162.33 213.389 162.495 212.792 162.539 212.18C162.713 210.831 162.741 209.381 162.842 207.849C163.007 204.793 163.135 202.022 163.2 200.012C163.287 198.931 163.287 197.845 163.2 196.764C163.006 197.831 162.892 198.91 162.86 199.994C162.704 201.994 162.53 204.766 162.365 207.821C162.264 209.345 162.245 210.822 162.098 212.116C162.04 213.253 161.547 214.323 160.722 215.107C160.435 215.353 160.1 215.537 159.738 215.647C159.377 215.758 158.996 215.793 158.621 215.75C158.345 215.689 158.077 215.597 157.822 215.474Z" fill="#455A64"/>
<path d="M121.383 200.939C121.599 201.064 121.835 201.148 122.081 201.187C122.728 201.352 123.388 201.463 124.054 201.517C126.278 201.712 128.518 201.38 130.591 200.548C132.663 199.716 134.51 198.407 135.983 196.727C136.428 196.227 136.831 195.69 137.185 195.121C137.332 194.922 137.443 194.698 137.515 194.461C137.442 194.461 136.891 195.305 135.735 196.498C134.228 198.051 132.416 199.276 130.413 200.095C128.404 200.893 126.25 201.262 124.09 201.178C122.411 201.113 121.402 200.857 121.383 200.939Z" fill="#455A64"/>
<path d="M183.525 194.644C183.517 195.488 183.644 196.328 183.901 197.131C184.42 199.091 185.26 200.952 186.388 202.637C187.517 204.335 188.918 205.835 190.535 207.078C191.178 207.621 191.899 208.063 192.673 208.39C192.793 208.262 189.37 206.307 186.791 202.371C185.3 199.985 184.197 197.377 183.525 194.644Z" fill="#455A64"/>
<path d="M181.148 34.3905C182.272 34.4445 183.376 34.0837 184.251 33.3767C185.126 32.6698 185.711 31.6659 185.895 30.556C186.078 29.446 185.848 28.3073 185.247 27.3563C184.645 26.4053 183.716 25.7083 182.635 25.3978C183.304 24.6465 183.717 23.7024 183.815 22.7012C183.914 21.7001 183.692 20.6935 183.182 19.8264C182.672 18.9593 181.9 18.2764 180.977 17.876C180.054 17.4755 179.028 17.3782 178.046 17.598C177.956 16.6168 177.613 15.6758 177.05 14.8669C176.488 14.058 175.725 13.4087 174.837 12.9826C173.948 12.5564 172.965 12.3679 171.982 12.4354C170.999 12.5029 170.05 12.8241 169.228 13.3677C168.075 12.5256 166.673 12.0918 165.246 12.135C163.818 12.1782 162.446 12.6959 161.346 13.6063C160.385 13.499 159.416 13.6976 158.575 14.1739C157.734 14.6501 157.065 15.3796 156.663 16.2584C156.262 17.1372 156.148 18.1204 156.338 19.0678C156.527 20.0152 157.012 20.8785 157.721 21.5346" fill="#263238"/>
<path d="M160.621 18.1668L161.63 18.121C166.5 17.8841 171.28 19.4885 175.02 22.6152C178.761 25.7419 181.188 30.1618 181.818 34.9961C183.038 44.3283 184.268 54.6516 184.461 59.6801C184.846 70.0952 174.514 72.2332 174.514 72.2332L176.019 84.6946L150.72 85.1626L146.232 39.9237C144.792 29.1692 149.83 19.3414 160.621 18.1668Z" fill="#AE7461"/>
<path d="M174.633 72.215C169.798 72.4553 164.996 71.3057 160.795 68.9023C160.795 68.9023 164.374 76.2433 174.715 74.7751L174.633 72.215Z" fill="#6F4439"/>
<path d="M179.322 44.5944C179.347 44.9819 179.219 45.3639 178.965 45.6575C178.711 45.9512 178.351 46.133 177.964 46.1635C177.776 46.1891 177.585 46.1766 177.402 46.1268C177.219 46.077 177.048 45.9909 176.899 45.8736C176.75 45.7563 176.626 45.6102 176.535 45.444C176.444 45.2779 176.387 45.095 176.367 44.9064C176.344 44.5184 176.473 44.1367 176.727 43.8421C176.98 43.5475 177.338 43.3631 177.725 43.3281C177.914 43.3038 178.105 43.3175 178.288 43.3684C178.471 43.4193 178.642 43.5063 178.791 43.6243C178.94 43.7424 179.063 43.889 179.155 44.0556C179.246 44.2222 179.303 44.4054 179.322 44.5944Z" fill="#263238"/>
<path d="M179.863 40.199C179.689 40.4008 178.524 39.6209 176.918 39.7034C175.312 39.786 174.165 40.6211 174.009 40.4651C173.853 40.3091 174.091 40.0154 174.578 39.6208C175.247 39.1081 176.057 38.8134 176.899 38.7766C177.733 38.733 178.558 38.9547 179.258 39.4098C179.762 39.7677 179.946 40.1072 179.863 40.199Z" fill="#263238"/>
<path d="M164.521 44.9981C164.544 45.3851 164.414 45.7657 164.161 46.0589C163.907 46.352 163.549 46.5344 163.163 46.5672C162.976 46.5917 162.786 46.579 162.604 46.53C162.422 46.4809 162.252 46.3964 162.102 46.2813C161.953 46.1662 161.828 46.0228 161.735 45.8593C161.641 45.6958 161.58 45.5154 161.557 45.3285C161.528 44.9403 161.653 44.5565 161.903 44.2583C162.153 43.9602 162.509 43.7713 162.896 43.7318C163.087 43.7048 163.281 43.7165 163.466 43.7661C163.652 43.8156 163.826 43.902 163.977 44.0202C164.129 44.1384 164.255 44.2859 164.348 44.4539C164.442 44.6219 164.5 44.807 164.521 44.9981Z" fill="#263238"/>
<path d="M164.153 41.2726C163.979 41.4837 162.814 40.7037 161.217 40.7863C159.62 40.8689 158.464 41.7039 158.299 41.5387C158.134 41.3736 158.382 41.0983 158.877 40.7037C159.542 40.1895 160.35 39.8945 161.19 39.8595C162.023 39.8113 162.85 40.0334 163.548 40.4926C164.053 40.8413 164.245 41.19 164.153 41.2726Z" fill="#263238"/>
<path d="M170.55 52.8531C171.381 52.5465 172.247 52.3461 173.128 52.2567C173.532 52.1924 173.917 52.0915 173.972 51.807C173.979 51.3846 173.861 50.9697 173.633 50.6141C173.202 49.6414 172.715 48.6229 172.275 47.5584C170.375 43.2181 168.981 39.6393 169.155 39.5567C169.329 39.4742 170.99 42.9428 172.908 47.2923L174.22 50.3572C174.503 50.8382 174.607 51.4036 174.514 51.9538C174.463 52.1016 174.378 52.2356 174.267 52.3454C174.155 52.4552 174.02 52.5379 173.871 52.587C173.649 52.6603 173.417 52.7035 173.183 52.7155C172.314 52.8705 171.43 52.9168 170.55 52.8531Z" fill="#263238"/>
<path d="M165.236 35.0512C165.044 35.4733 163.658 35.0512 161.96 35.1246C160.263 35.198 158.868 35.51 158.694 35.1246C158.611 34.9227 158.896 34.5465 159.492 34.207C160.257 33.7764 161.119 33.549 161.997 33.5463C162.864 33.5352 163.719 33.7536 164.475 34.1795C165.053 34.4823 165.319 34.8585 165.236 35.0512Z" fill="#263238"/>
<path d="M179.616 33.6013C179.295 33.9775 177.955 33.6655 176.367 33.7298C174.78 33.794 173.449 34.1152 173.119 33.7298C172.972 33.5462 173.165 33.17 173.734 32.8121C174.528 32.357 175.423 32.1068 176.337 32.0844C177.252 32.062 178.158 32.2679 178.973 32.6837C179.552 33.0507 179.753 33.3994 179.616 33.6013Z" fill="#263238"/>
<path d="M180.607 30.2703C180.607 30.2703 177.542 23.847 174.321 22.5256C170.422 20.8739 168.999 25.1317 165.32 24.2966C161.64 23.4616 157.924 21.8741 154.354 24.8655C150.454 28.1323 152.464 30.1878 152.436 34.8218C152.354 53.5964 149.197 59.0562 147.784 50.2929C147.628 49.3753 144.912 48.6962 144.315 44.6312C143.535 39.364 143.012 32.9498 144.003 29.1325C144.847 25.9116 146.536 23.6268 149.656 21.0666C154.574 17.0015 161.585 16.5702 166.384 16.818C171.183 17.0657 180.635 22.0851 180.607 30.2703Z" fill="#263238"/>
<path d="M148.435 49.9718C148.403 49.5905 148.295 49.2196 148.116 48.8816C147.937 48.5436 147.691 48.2454 147.393 48.0052C147.095 47.765 146.752 47.5877 146.384 47.4841C146.015 47.3804 145.63 47.3527 145.251 47.4024C143.314 47.6869 141.213 48.889 141.58 52.9082C142.158 60.0106 149.169 57.9643 149.169 57.7532C149.169 57.5422 148.701 52.9449 148.435 49.9718Z" fill="#AE7461"/>
<path d="M147.361 55.2021C147.361 55.2021 147.251 55.2938 147.049 55.4131C146.766 55.5597 146.438 55.5926 146.131 55.5049C145.36 55.2938 144.626 54.156 144.489 52.8713C144.417 52.2522 144.486 51.6247 144.691 51.0361C144.74 50.8089 144.843 50.5969 144.992 50.418C145.14 50.2392 145.33 50.0987 145.544 50.0083C145.684 49.9606 145.837 49.9629 145.976 50.0147C146.114 50.0666 146.231 50.1648 146.306 50.2928C146.416 50.4855 146.379 50.6231 146.416 50.6323C146.452 50.6415 146.563 50.5038 146.48 50.2194C146.429 50.0465 146.318 49.8971 146.168 49.7973C146.065 49.7294 145.949 49.6831 145.828 49.661C145.706 49.639 145.582 49.6416 145.461 49.6688C145.174 49.7516 144.913 49.9063 144.703 50.1182C144.493 50.3302 144.34 50.5925 144.259 50.8801C144.013 51.5195 143.922 52.2082 143.993 52.8897C144.158 54.3212 145.003 55.6425 146.049 55.8077C146.244 55.8487 146.446 55.8453 146.64 55.7976C146.834 55.75 147.014 55.6593 147.168 55.5324C147.361 55.4223 147.388 55.2113 147.361 55.2021Z" fill="#6F4439"/>
<path d="M147.884 36.1523C148.791 36.8233 149.851 37.2585 150.967 37.4186C151.526 37.4766 152.087 37.3301 152.546 37.0061C153.005 36.6821 153.331 36.2027 153.463 35.6568C153.528 35.1613 153.372 34.5923 153.684 34.1978C153.996 33.8032 154.776 33.8215 155.372 33.8582C157.455 33.9775 159.758 31.5734 160.18 29.5362C160.468 29.9103 160.889 30.1591 161.356 30.2308C161.822 30.3026 162.299 30.1919 162.686 29.9216C163.324 29.488 163.88 28.9443 164.328 28.3158C164.585 27.9133 164.937 27.58 165.353 27.3449C165.769 27.1097 166.236 26.98 166.714 26.9669C167.221 27.1177 167.745 27.207 168.274 27.233C169.191 27.1045 169.604 25.985 169.705 25.0491C169.806 24.1131 169.852 23.0303 170.623 22.4889C171.394 21.9475 172.293 22.2044 173.156 22.287C174.018 22.3696 175.129 22.1218 175.303 21.2684C175.328 21.0415 175.308 20.8118 175.243 20.5928C175.179 20.3738 175.071 20.1698 174.927 19.9929C174.31 19.1619 173.431 18.5637 172.431 18.2955C171.432 18.0273 170.371 18.1048 169.421 18.5156C169.013 17.3475 168.268 16.3267 167.279 15.5827C166.291 14.8386 165.104 14.4046 163.868 14.3358C162.633 14.267 161.405 14.5665 160.34 15.1962C159.275 15.826 158.421 16.7577 157.886 17.8732C157.096 17.2255 156.161 16.7781 155.161 16.5688C154.161 16.3595 153.126 16.3946 152.142 16.6711C151.159 16.9476 150.256 17.4574 149.512 18.1571C148.767 18.8568 148.203 19.7258 147.866 20.6903C146.982 20.4998 146.062 20.5745 145.221 20.905C144.38 21.2355 143.655 21.8072 143.137 22.5482C142.62 23.2893 142.332 24.1667 142.312 25.0703C142.291 25.974 142.538 26.8636 143.021 27.6276C142.376 27.9904 141.833 28.5105 141.443 29.1394C141.054 29.7683 140.829 30.4857 140.791 31.2247C140.837 32.702 142.351 34.0968 143.746 33.638C143.556 34.2133 143.578 34.8371 143.806 35.398C144.035 35.9589 144.455 36.4201 144.993 36.6993C145.53 36.9785 146.149 37.0574 146.74 36.9219C147.33 36.7864 147.853 36.4453 148.215 35.9596" fill="#263238"/>
<path d="M170.026 20.5527C170.026 20.5527 170.026 20.5527 170.026 20.6904C170.026 20.828 170.026 20.9014 170.026 21.0666C169.956 21.5564 169.804 22.031 169.577 22.4706C169.215 23.1643 168.696 23.7643 168.063 24.2232C167.239 24.8568 166.23 25.2019 165.19 25.2051L165.301 25.0399C165.425 25.3552 165.485 25.6922 165.477 26.031C165.469 26.3698 165.394 26.7036 165.255 27.0128C164.974 27.6785 164.594 28.2974 164.126 28.8481C163.906 29.1585 163.654 29.4446 163.374 29.7014C163.049 29.9504 162.667 30.1144 162.263 30.1786C161.847 30.2604 161.416 30.2387 161.01 30.1155C160.604 29.9923 160.234 29.7714 159.933 29.472L160.199 29.3803C160.137 30.1255 159.92 30.8495 159.561 31.5055C159.203 32.1615 158.71 32.7348 158.116 33.1884C157.471 33.7354 156.666 34.0575 155.822 34.106C155.028 34.1086 154.239 33.9752 153.491 33.7115L153.674 33.6197C153.347 34.4989 152.808 35.2837 152.105 35.9046C151.781 36.2102 151.393 36.4403 150.97 36.5783C150.546 36.7163 150.097 36.7589 149.655 36.7029C148.9 36.5787 148.198 36.2362 147.636 35.7177C147.073 35.1991 146.674 34.5272 146.489 33.7849L146.654 33.8491C145.925 34.2884 145.065 34.4603 144.223 34.3354C143.596 34.2497 142.999 34.0171 142.479 33.6564C142.156 33.427 141.874 33.1447 141.644 32.8214C141.559 32.7129 141.491 32.5923 141.442 32.4635C141.741 32.8909 142.114 33.2608 142.544 33.5555C143.055 33.8859 143.636 34.0932 144.241 34.1611C145.04 34.2629 145.85 34.088 146.535 33.6656L146.664 33.583V33.7298C146.836 34.4324 147.211 35.0685 147.743 35.5582C148.276 36.048 148.941 36.3696 149.655 36.4827C150.058 36.5285 150.466 36.4848 150.85 36.3547C151.233 36.2246 151.584 36.0114 151.876 35.7302C152.542 35.1434 153.05 34.3988 153.353 33.5646L153.408 33.4362H153.546C154.261 33.6812 155.011 33.8083 155.766 33.8124C156.544 33.7724 157.287 33.4827 157.886 32.9865C158.449 32.5607 158.915 32.0211 159.255 31.4029C159.595 30.7847 159.801 30.1017 159.859 29.3986V29.0683L160.089 29.316C160.358 29.5768 160.686 29.7694 161.045 29.8779C161.404 29.9864 161.784 30.0077 162.153 29.94C162.508 29.8813 162.845 29.7399 163.135 29.5271C163.398 29.2837 163.635 29.013 163.842 28.7196C164.322 28.2033 164.718 27.615 165.016 26.9761C165.144 26.6984 165.216 26.398 165.227 26.0924C165.238 25.7869 165.188 25.4821 165.08 25.1959L165.016 25.0307H165.2C166.192 25.0307 167.158 24.7088 167.953 24.1131C168.565 23.6727 169.073 23.1024 169.439 22.443C169.752 21.8556 169.952 21.2142 170.026 20.5527Z" fill="#455A64"/>
<path d="M170.477 58.3403C170.422 58.0742 168.687 58.5331 167.072 57.3677C165.457 56.2023 165.154 54.3212 164.907 54.367C164.797 54.367 164.677 54.8717 164.861 55.6517C165.115 56.6675 165.72 57.561 166.568 58.1752C167.382 58.7687 168.396 59.0221 169.394 58.8817C170.137 58.7625 170.513 58.4596 170.477 58.3403Z" fill="#263238"/>
<path d="M244.694 119.986L218.009 140.761C218.009 140.761 214.467 125.162 205.025 101.918C203.847 98.9642 202.381 96.1334 200.648 93.4671C200.538 93.2377 200.428 93.0174 200.327 92.8339C196.794 86.227 189.361 83.309 184.727 83.0245C184.03 82.9786 182.286 83.0245 179.845 83.1621L178.12 82.6024L176.147 76.7296L171.431 81.9325L148.921 71.2881L146.756 79.6109L130.78 86.6766C130.78 86.6766 116.034 89.9801 114.153 102.671C111.987 117.27 110.097 150.699 110.097 150.699L128.367 141.339L123.962 174.759L125.036 187.074L166.971 193.929C169.231 194.263 171.529 194.263 173.789 193.929L194.445 190.882L196.941 185L194.61 147.717V145.304C197.17 151.901 203.125 165.574 209.191 167.85C215.045 170.052 246.401 140.761 246.401 140.761L244.694 119.986Z" fill="#E0E0E0"/>
<path d="M148.94 71.2881C148.94 71.2881 151.454 72.0222 157.923 75.4724C164.255 78.8493 171.449 81.8958 171.449 81.8958L170.908 92.1273L146.939 80.0973" fill="#E0E0E0"/>
<path d="M176.165 76.7296L171.449 81.9325L173.972 92.8339L178.175 82.9878" fill="#E0E0E0"/>
<g opacity="0.3">
<path d="M171.54 83.0612C171.751 83.2172 173.054 95.6418 173.054 95.6418L149.04 81.1158L170.907 92.1273L171.54 83.0612Z" fill="black"/>
</g>
<path d="M171.376 129.42C171.018 119.922 172.513 95.6785 172.513 95.6785L175.643 95.1738C179.632 112.425 182.319 129.952 183.681 147.607C184.599 159.297 184.599 172.832 184.599 172.832L178.304 186.331L171.321 172.878C171.321 172.878 171.816 140.963 171.376 129.42Z" fill="#455A64"/>
<path d="M126.045 89.5856C126.045 89.6315 126.696 90.1637 127.669 91.1731C130.22 93.7903 131.985 97.0716 132.762 100.643C133.065 102.001 133.129 102.873 133.184 102.864C133.218 102.66 133.218 102.452 133.184 102.249C133.158 101.691 133.091 101.136 132.982 100.588C132.643 98.772 132.024 97.0199 131.147 95.3941C130.271 93.7627 129.144 92.2794 127.807 90.9987C127.41 90.6087 126.987 90.2469 126.54 89.9159C126.392 89.7827 126.225 89.6715 126.045 89.5856Z" fill="#263238"/>
<path d="M171.375 86.7959L173.522 85.9608L175.55 89.4478L175.917 95.1738L173.054 95.6418L170.907 92.0997L171.375 86.7959Z" fill="#455A64"/>
<path d="M194.573 103.836C194.482 103.836 194.408 116.242 194.408 131.53C194.408 146.818 194.482 159.233 194.573 159.233C194.665 159.233 194.739 146.836 194.739 131.53C194.739 116.224 194.665 103.836 194.573 103.836Z" fill="#263238"/>
<path d="M171.228 81.8499C171.183 81.8499 171.687 82.6483 172.449 83.9238C173.211 85.1993 174.211 86.9795 175.202 89.0258C175.284 89.1909 175.358 89.3653 175.431 89.5213L175.578 89.8424L175.734 89.5213C176.513 87.8763 177.182 86.181 177.734 84.4468C177.945 83.7861 178.092 83.2447 178.184 82.8685C178.246 82.6784 178.283 82.481 178.294 82.2812C178.248 82.2812 177.991 83.0704 177.523 84.3734C176.91 86.0743 176.212 87.7434 175.431 89.3745H175.743L175.514 88.879C174.691 87.1177 173.747 85.416 172.687 83.7861C172.275 83.1622 171.926 82.6666 171.678 82.3363C171.43 82.0059 171.247 81.8316 171.228 81.8499Z" fill="#263238"/>
<path d="M146.774 79.611C146.875 79.6924 146.986 79.7602 147.105 79.8128L148.077 80.3175L151.656 82.1528C154.675 83.7219 158.814 85.9609 163.393 88.411C166.145 89.8975 168.825 91.274 171.128 92.421L171.339 92.5311V92.2925C171.339 89.3102 171.394 86.7868 171.413 84.9515V82.9511C171.434 82.7069 171.434 82.4612 171.413 82.217C171.371 82.4594 171.353 82.7052 171.358 82.9511C171.358 83.465 171.312 84.1532 171.275 85.0066C171.229 86.8418 171.165 89.3378 171.082 92.3476L171.303 92.2191C169.008 91.0446 166.375 89.6589 163.585 88.1724C158.997 85.7223 154.85 83.52 151.803 81.9968C150.28 81.2352 149.05 80.6387 148.133 80.2349L147.132 79.7853C147.021 79.7125 146.901 79.6539 146.774 79.611Z" fill="#263238"/>
<path d="M191.673 87.4475C191.627 87.4475 192.004 88.1174 192.49 89.2002C193.763 92.0355 194.332 95.1362 194.151 98.2388C194.087 99.4317 193.958 100.157 194.013 100.166C194.068 100.175 194.087 99.9914 194.16 99.6703C194.267 99.2047 194.344 98.7326 194.389 98.2571C194.698 95.1006 194.113 91.9209 192.701 89.0809C192.492 88.6532 192.256 88.2394 191.994 87.8421C191.811 87.5852 191.692 87.4292 191.673 87.4475Z" fill="#263238"/>
<path d="M173.578 96.0089C173.633 96.0915 174.174 95.8346 174.798 95.44C175.422 95.0454 175.881 94.66 175.835 94.5866C175.789 94.5132 175.239 94.7609 174.615 95.1555C173.991 95.5501 173.532 95.9355 173.578 96.0089Z" fill="#263238"/>
<path d="M172.55 94.6142C173.132 93.6952 173.62 92.7208 174.009 91.7053C174.492 90.737 174.877 89.7225 175.156 88.6771C174.574 89.5922 174.085 90.5637 173.697 91.5768C173.212 92.5472 172.827 93.565 172.55 94.6142Z" fill="#263238"/>
<path d="M123.531 90.2921C123.531 90.2921 116.098 95.596 115.18 98.5507C114.263 101.505 110.308 149.534 109.61 155.251C108.913 160.967 108.216 171.649 112.629 175.126C117.043 178.604 126.559 181.229 126.559 181.229L135.368 163.051L130.707 153.296L135.368 116.821L123.531 90.2921Z" fill="#E0E0E0"/>
<path d="M124.43 180.586C124.588 180.565 124.749 180.565 124.907 180.586C125.364 180.584 125.821 180.553 126.274 180.494C127.978 180.335 129.614 179.744 131.027 178.779C133.149 177.223 134.749 175.06 135.616 172.575C136.742 169.435 137.307 166.121 137.286 162.784V162.913L130.458 153.461L130.403 153.388V153.296C130.403 153.058 130.468 152.791 130.504 152.525C131.817 142.303 133 133.044 133.872 126.29L134.9 118.335C135.019 117.417 135.12 116.71 135.184 116.178C135.204 115.925 135.241 115.674 135.294 115.426C135.304 115.49 135.304 115.555 135.294 115.618C135.294 115.747 135.294 115.93 135.294 116.187C135.248 116.72 135.184 117.445 135.102 118.353C134.918 120.243 134.606 122.941 134.184 126.327C133.395 133.053 132.257 142.34 130.945 152.59C130.945 152.846 130.881 153.113 130.853 153.351V153.186C133.248 156.526 135.551 159.719 137.653 162.656V162.711V162.784C137.642 166.174 137.02 169.534 135.817 172.704C134.922 175.238 133.273 177.438 131.092 179.008C130.248 179.571 129.318 179.993 128.339 180.256L127.724 180.43L127.155 180.522C126.826 180.59 126.491 180.63 126.155 180.641C125.694 180.682 125.23 180.682 124.769 180.641C124.655 180.631 124.541 180.613 124.43 180.586Z" fill="#263238"/>
<path d="M115.456 156.664C116.027 156.102 116.683 155.634 117.401 155.278C119.094 154.33 120.928 153.657 122.833 153.287C124.738 152.914 126.69 152.852 128.614 153.103C129.415 153.168 130.2 153.354 130.945 153.654C128.282 153.285 125.579 153.316 122.925 153.746C120.302 154.336 117.784 155.319 115.456 156.664Z" fill="#263238"/>
<path d="M158.648 131.319C158.515 132.836 157.785 134.239 156.619 135.218C155.452 136.197 153.944 136.673 152.427 136.54C151.647 136.477 150.889 136.252 150.2 135.881C149.512 135.51 148.908 135 148.426 134.384C146.893 132.393 144.104 129.539 140.562 129.236C135.056 128.759 130.853 132.815 130.303 139.036C129.752 145.258 133.221 149.993 138.708 150.47C142.259 150.782 145.49 148.451 147.343 146.799C147.925 146.274 148.609 145.875 149.353 145.628C150.097 145.382 150.885 145.293 151.665 145.368C152.416 145.433 153.147 145.645 153.816 145.992C154.485 146.339 155.078 146.815 155.563 147.392C156.048 147.969 156.415 148.636 156.642 149.354C156.869 150.073 156.952 150.829 156.886 151.58L153.473 190.414L239.977 196.204L242.859 155.37C242.923 154.618 243.136 153.886 243.483 153.216C243.831 152.546 244.307 151.951 244.885 151.465C245.463 150.98 246.131 150.612 246.851 150.385C247.57 150.157 248.328 150.074 249.08 150.14C249.862 150.203 250.622 150.428 251.313 150.801C252.003 151.174 252.608 151.686 253.09 152.305C254.623 154.287 257.403 157.141 260.945 157.453C266.451 157.93 270.663 153.865 271.204 147.644C271.745 141.422 268.295 136.696 262.799 136.21C259.257 135.907 256.017 138.229 254.164 139.926C253.583 140.45 252.9 140.848 252.157 141.095C251.415 141.341 250.63 141.431 249.851 141.358C246.685 141.083 243.795 138.605 244.07 135.448L246.401 100.771L160.786 94.9904L158.648 131.319Z" fill="#8ACEB2"/>
<g opacity="0.4">
<path d="M158.648 131.319C158.515 132.836 157.785 134.239 156.619 135.218C155.452 136.197 153.944 136.673 152.427 136.54C151.647 136.477 150.889 136.252 150.2 135.881C149.512 135.51 148.908 135 148.426 134.384C146.893 132.393 144.104 129.539 140.562 129.236C135.056 128.759 130.853 132.815 130.303 139.036C129.752 145.258 133.221 149.993 138.708 150.47C142.259 150.782 145.49 148.451 147.343 146.799C147.925 146.274 148.609 145.875 149.353 145.628C150.097 145.382 150.885 145.293 151.665 145.368C152.416 145.433 153.147 145.645 153.816 145.992C154.485 146.339 155.078 146.815 155.563 147.392C156.048 147.969 156.415 148.636 156.642 149.354C156.869 150.073 156.952 150.829 156.886 151.58L153.473 190.414L239.977 196.204L242.859 155.37C242.923 154.618 243.136 153.886 243.483 153.216C243.831 152.546 244.307 151.951 244.885 151.465C245.463 150.98 246.131 150.612 246.851 150.385C247.57 150.157 248.328 150.074 249.08 150.14C249.862 150.203 250.622 150.428 251.313 150.801C252.003 151.174 252.608 151.686 253.09 152.305C254.623 154.287 257.403 157.141 260.945 157.453C266.451 157.93 270.663 153.865 271.204 147.644C271.745 141.422 268.295 136.696 262.799 136.21C259.257 135.907 256.017 138.229 254.164 139.926C253.583 140.45 252.9 140.848 252.157 141.095C251.415 141.341 250.63 141.431 249.851 141.358C246.685 141.083 243.795 138.605 244.07 135.448L246.401 100.771L160.786 94.9904L158.648 131.319Z" fill="black"/>
</g>
<path d="M152.803 130.897C152.67 132.414 151.94 133.817 150.773 134.796C149.607 135.775 148.099 136.25 146.582 136.118C145.801 136.056 145.043 135.833 144.354 135.461C143.665 135.09 143.061 134.579 142.581 133.962C141.048 131.98 138.259 129.126 134.717 128.814C129.211 128.337 125.008 132.393 124.458 138.623C123.907 144.854 127.376 149.571 132.863 150.048C136.414 150.36 139.644 148.029 141.498 146.377C142.08 145.853 142.765 145.455 143.509 145.209C144.253 144.962 145.04 144.873 145.82 144.946C147.337 145.079 148.74 145.809 149.719 146.975C150.698 148.142 151.174 149.65 151.041 151.167L147.628 189.992L234.114 195.819L237.004 154.975C237.069 154.224 237.281 153.494 237.628 152.825C237.975 152.156 238.451 151.562 239.028 151.077C239.605 150.592 240.272 150.226 240.991 149.999C241.709 149.772 242.466 149.689 243.217 149.754C243.998 149.816 244.758 150.039 245.448 150.411C246.139 150.782 246.744 151.293 247.227 151.91C248.759 153.893 251.539 156.746 255.081 157.058C260.587 157.535 264.799 153.48 265.34 147.249C265.882 141.018 262.432 136.302 256.935 135.825C253.393 135.513 250.154 137.843 248.3 139.495C247.719 140.019 247.036 140.417 246.294 140.663C245.552 140.91 244.766 140.999 243.987 140.926C240.822 140.651 237.931 138.174 238.206 135.026L240.546 100.34L154.932 94.559L152.803 130.897Z" fill="#8ACEB2"/>
<path d="M152.803 130.897C152.803 130.897 152.803 130.686 152.803 130.282C152.803 129.878 152.803 129.264 152.894 128.447C152.977 126.841 153.106 124.464 153.271 121.381C153.61 115.178 154.115 106.103 154.757 94.5407V94.4122H154.886L240.509 100.101H240.72V100.303C240.145 108.905 239.533 117.858 238.885 127.162C238.729 129.493 238.573 131.833 238.417 134.2C238.358 134.777 238.358 135.358 238.417 135.935C238.486 136.498 238.66 137.042 238.931 137.541C239.502 138.553 240.361 139.374 241.399 139.899C242.439 140.445 243.603 140.711 244.776 140.67C245.954 140.604 247.078 140.156 247.979 139.394C249.774 137.646 251.985 136.383 254.402 135.724C255.026 135.584 255.663 135.513 256.302 135.513C256.941 135.524 257.577 135.601 258.201 135.742C259.462 136.01 260.651 136.545 261.688 137.311C263.748 138.928 265.095 141.286 265.441 143.881C265.817 146.475 265.475 149.122 264.45 151.534C263.935 152.762 263.167 153.866 262.196 154.777C261.225 155.688 260.073 156.384 258.816 156.82C257.536 157.225 256.186 157.36 254.852 157.214C253.509 157.048 252.222 156.577 251.089 155.838C249.96 155.115 248.935 154.241 248.043 153.241C247.593 152.764 247.125 152.204 246.767 151.718C246.341 151.245 245.835 150.85 245.272 150.552C244.132 149.947 242.815 149.762 241.552 150.028C240.289 150.295 239.16 150.997 238.362 152.011C237.57 153.05 237.145 154.321 237.151 155.627C237.059 156.967 236.958 158.306 236.866 159.655C235.949 171.942 235.141 184.018 234.306 195.782V196.012H234.077L147.627 190.148H147.416V189.937C148.199 181.146 148.943 172.741 149.646 164.721C150.007 160.72 150.353 156.823 150.683 153.03C150.794 152.101 150.853 151.167 150.857 150.231C150.8 149.328 150.516 148.454 150.031 147.689C149.565 146.936 148.925 146.305 148.165 145.848C147.406 145.392 146.548 145.123 145.664 145.065C144.798 145.01 143.932 145.154 143.131 145.487C142.738 145.652 142.365 145.861 142.021 146.111C141.69 146.359 141.378 146.671 141.039 146.955C139.738 148.087 138.255 148.99 136.653 149.626C135.112 150.21 133.441 150.358 131.822 150.054C130.203 149.749 128.699 149.004 127.476 147.901C126.348 146.841 125.486 145.53 124.962 144.074C124.475 142.686 124.239 141.223 124.265 139.752C124.241 136.997 125.118 134.31 126.761 132.099C128.206 130.26 130.315 129.061 132.634 128.759C134.953 128.457 137.299 129.076 139.167 130.484C140.641 131.608 141.953 132.929 143.067 134.411C144.034 135.384 145.321 135.973 146.69 136.069C148.058 136.165 149.415 135.762 150.509 134.934C151.216 134.414 151.789 133.731 152.179 132.943C152.502 132.303 152.711 131.61 152.794 130.897L152.738 131.438C152.645 131.97 152.478 132.485 152.243 132.971C151.852 133.773 151.276 134.471 150.564 135.008C149.586 135.761 148.393 136.179 147.159 136.201C146.382 136.215 145.61 136.074 144.888 135.786C144.166 135.497 143.51 135.068 142.957 134.522C141.845 133.055 140.535 131.748 139.066 130.64C137.239 129.269 134.946 128.669 132.682 128.969C130.417 129.27 128.36 130.446 126.953 132.246C125.351 134.418 124.5 137.053 124.531 139.752C124.504 141.193 124.741 142.626 125.228 143.982C125.743 145.38 126.579 146.637 127.669 147.653C128.853 148.718 130.308 149.436 131.874 149.725C133.44 150.015 135.056 149.866 136.542 149.295C138.109 148.67 139.559 147.783 140.828 146.671C141.158 146.396 141.461 146.084 141.828 145.818C142.189 145.545 142.584 145.32 143.002 145.148C143.847 144.788 144.766 144.634 145.682 144.698C146.619 144.754 147.529 145.034 148.337 145.512C149.144 145.991 149.826 146.656 150.325 147.451C150.863 148.274 151.18 149.222 151.243 150.204C151.248 151.155 151.193 152.105 151.078 153.048L150.05 164.757C149.352 172.771 148.618 181.177 147.848 189.974L147.664 189.753L234.113 195.553L233.866 195.773C234.691 184.018 235.545 171.915 236.417 159.646L236.701 155.618C236.699 154.217 237.16 152.856 238.013 151.745C238.883 150.644 240.111 149.882 241.484 149.592C242.857 149.302 244.288 149.502 245.529 150.158C246.141 150.485 246.69 150.916 247.153 151.433C247.593 151.966 247.969 152.461 248.419 152.947C249.282 153.916 250.273 154.762 251.365 155.462C252.437 156.163 253.654 156.611 254.925 156.774C256.195 156.912 257.479 156.784 258.696 156.398C259.892 155.984 260.987 155.321 261.909 154.455C262.83 153.588 263.559 152.537 264.046 151.369C265.025 149.038 265.342 146.482 264.964 143.982C264.642 141.506 263.36 139.255 261.394 137.715C260.415 136.983 259.287 136.473 258.091 136.219C257.488 136.085 256.873 136.011 256.256 135.999C255.654 136.002 255.054 136.07 254.466 136.201C252.119 136.854 249.975 138.092 248.236 139.798C247.263 140.628 246.044 141.112 244.767 141.174C243.511 141.226 242.263 140.944 241.152 140.358C240.039 139.787 239.117 138.903 238.5 137.816C238.201 137.267 238.011 136.666 237.94 136.045C237.879 135.435 237.879 134.82 237.94 134.21C238.096 131.851 238.261 129.502 238.417 127.181C239.029 117.888 239.641 108.935 240.252 100.322L240.445 100.542L154.831 94.6875L154.968 94.5682C154.271 106.13 153.73 115.206 153.353 121.409C153.161 124.492 153.014 126.859 152.913 128.465C152.858 129.264 152.821 129.86 152.794 130.301C152.766 130.741 152.803 130.897 152.803 130.897Z" fill="#263238"/>
<path d="M142.709 170.648C142.709 170.648 145.692 168.345 147.903 168.253C150.114 168.162 152.996 169.015 153.565 168.731C154.134 168.446 155.492 167.18 156.318 168.244C157.143 169.309 158.235 173.154 153.629 174.209H150.454C150.454 174.209 150.839 177.375 151.61 178.623C152.381 179.871 163.136 193.424 163.136 193.424C163.136 193.424 164.484 194.764 163.815 196.113C163.145 197.461 160.254 196.691 160.254 196.691C160.254 196.691 158.235 198.526 155.932 197.608C154.79 197.22 153.694 196.706 152.665 196.076C151.921 196.645 151.01 196.954 150.073 196.954C149.136 196.954 148.225 196.645 147.481 196.076C144.792 194.057 135.818 182.816 135.818 182.816L139.02 170.236L142.709 170.648Z" fill="#AE7461"/>
<path d="M133.413 163.216L142.746 170.648L135.891 182.853L122.218 177.889C122.218 177.889 122.613 163.482 133.413 163.216Z" fill="#AE7461"/>
<path d="M238.812 113.141C238.812 113.141 239.289 109.883 246.153 110.994C250.456 111.682 248.208 114.471 248.208 114.471C248.53 114.749 248.779 115.101 248.935 115.496C249.09 115.892 249.147 116.319 249.101 116.742C249.055 117.164 248.907 117.569 248.67 117.921C248.433 118.274 248.114 118.564 247.74 118.766L248.19 119.096C248.19 119.096 251.613 120.812 248.658 123.859C248.957 124.404 249.079 125.029 249.008 125.647C248.938 126.264 248.677 126.845 248.263 127.309C246.786 128.777 243.097 126.814 243.097 126.814C243.097 126.814 237.885 126.731 237.591 125.355C237.496 124.935 237.547 124.495 237.735 124.108C237.924 123.72 238.239 123.409 238.628 123.226C239.84 122.995 241.067 122.848 242.299 122.785C242.299 122.785 237.711 122.73 237.325 121.868C236.591 120.271 236.784 118.647 242.299 118.849C242.299 118.849 238.197 118.766 237.711 117.931C237.224 117.096 237.821 115.747 239.289 115.059C240.163 114.647 241.122 114.449 242.088 114.481C242.088 114.481 238.224 115.206 238.812 113.141Z" fill="#AE7461"/>
<defs>
<linearGradient id="paint0_linear_473_304" x1="268.493" y1="48.0722" x2="202.817" y2="289.768" gradientUnits="userSpaceOnUse">
<stop stop-color="#8ACEB2"/>
<stop offset="1" stop-color="#8ACEB2" stop-opacity="0"/>
</linearGradient>
</defs>
</svg>
