<svg width="17" height="13" viewBox="0 0 17 13" fill="none" xmlns="http://www.w3.org/2000/svg">
<path d="M0.64209 13V9.31814C0.64209 8.27268 0.846635 7.2045 1.25573 6.11359C1.66482 5.02268 2.20459 3.99427 2.87504 3.02836C3.5455 2.06245 4.27277 1.25564 5.05686 0.60791L8.26141 2.49996C7.62504 3.49996 7.10232 4.54541 6.69323 5.63632C6.2955 6.72723 6.09664 7.94314 6.09664 9.28405V13H0.64209ZM9.25004 13V9.31814C9.25004 8.27268 9.45459 7.2045 9.86368 6.11359C10.2728 5.02268 10.8125 3.99427 11.483 3.02836C12.1535 2.06245 12.8807 1.25564 13.6648 0.60791L16.8694 2.49996C16.233 3.49996 15.7103 4.54541 15.3012 5.63632C14.9035 6.72723 14.7046 7.94314 14.7046 9.28405V13H9.25004Z" fill="#fff"/>
</svg>
