<svg width="480" height="309" viewBox="0 0 480 309" fill="none" xmlns="http://www.w3.org/2000/svg">
<path d="M469.036 177.428L468.216 176.465C464.873 172.471 460.502 169.468 455.575 167.778C450.648 166.089 445.354 165.779 440.264 166.881C438.939 167.182 437.639 167.581 436.374 168.074C431.795 169.927 427.744 172.883 424.582 176.678C421.42 180.473 419.245 184.991 418.25 189.83C417.121 195.538 417.531 201.829 414.454 206.725C410.399 213.095 402.023 214.633 394.589 215.597C387.155 216.56 378.773 218.127 374.754 224.511C372.23 228.516 372.058 233.649 373.064 238.294C375.739 250.587 386.178 260.279 398.062 264.003C409.946 267.727 422.973 266.16 434.606 261.753C450.904 255.62 465.419 243.693 472.71 227.725C480 211.757 479.266 191.728 469.036 177.428Z" fill="#EBEBEB"/>
<path d="M35.9826 164.055L37.1473 164.214C42.5802 165.092 48.1517 164.23 53.065 161.751C57.9783 159.271 61.9819 155.302 64.503 150.41C66.5528 146.294 67.5539 141.736 67.4172 137.14C67.2805 132.545 66.0102 128.054 63.7194 124.068C60.9802 119.395 56.7888 115.282 55.9404 109.955C54.8333 103.024 59.7221 96.7768 64.2946 91.5213C68.867 86.2658 73.7486 80.0182 72.6127 73.0661C71.8938 68.7524 68.8526 65.0427 65.2867 62.4329C55.8398 55.5167 42.5825 55.2435 32.0069 59.9454C21.4312 64.6473 13.3503 73.8353 7.94388 84.0659C0.351854 98.4016 -2.42326 115.663 2.37927 131.293C7.1818 146.923 20.0293 160.403 35.9826 164.055Z" fill="#EBEBEB"/>
<path d="M475.331 123.029C477.91 112.152 471.183 101.244 460.307 98.6651C449.43 96.0861 438.522 102.813 435.943 113.689C433.364 124.566 440.091 135.474 450.967 138.053C461.844 140.632 472.752 133.905 475.331 123.029Z" fill="#EBEBEB"/>
<path d="M406.523 0.215576H85.918V187.399H259.837L271.441 198.032L281.47 187.399H406.523V0.215576Z" fill="#FAFAFA"/>
<path d="M406.53 0.215576H85.918V14.048H406.53V0.215576Z" fill="#E0E0E0"/>
<path d="M93.8716 9.17357C94.8642 9.17357 95.6689 8.36886 95.6689 7.37621C95.6689 6.38356 94.8642 5.57886 93.8716 5.57886C92.8789 5.57886 92.0742 6.38356 92.0742 7.37621C92.0742 8.36886 92.8789 9.17357 93.8716 9.17357Z" fill="#263238"/>
<path d="M100.555 9.17357C101.548 9.17357 102.353 8.36886 102.353 7.37621C102.353 6.38356 101.548 5.57886 100.555 5.57886C99.5625 5.57886 98.7578 6.38356 98.7578 7.37621C98.7578 8.36886 99.5625 9.17357 100.555 9.17357Z" fill="#263238"/>
<path d="M107.245 9.17357C108.237 9.17357 109.042 8.36886 109.042 7.37621C109.042 6.38356 108.237 5.57886 107.245 5.57886C106.252 5.57886 105.447 6.38356 105.447 7.37621C105.447 8.36886 106.252 9.17357 107.245 9.17357Z" fill="#263238"/>
<path d="M246.669 30.0011C246.669 30.1018 240.343 30.1881 232.535 30.1881C224.727 30.1881 218.4 30.1018 218.4 30.0011C218.4 29.9005 224.727 29.8142 232.535 29.8142C240.343 29.8142 246.669 29.8861 246.669 30.0011Z" fill="#263238"/>
<path d="M284.262 30.0011C284.262 30.1018 277.935 30.1881 270.134 30.1881C262.334 30.1881 256 30.1018 256 30.0011C256 29.9005 262.327 29.8142 270.134 29.8142C277.942 29.8142 284.262 29.8861 284.262 30.0011Z" fill="#263238"/>
<path d="M321.861 30.0011C321.861 30.1018 315.534 30.1881 307.726 30.1881C299.918 30.1881 293.592 30.1018 293.592 30.0011C293.592 29.9005 299.918 29.8142 307.726 29.8142C315.534 29.8142 321.861 29.8861 321.861 30.0011Z" fill="#263238"/>
<path d="M359.787 30.0011C359.787 30.1018 353.46 30.1881 345.66 30.1881C337.859 30.1881 331.525 30.1018 331.525 30.0011C331.525 29.9005 337.852 29.8142 345.66 29.8142C353.467 29.8142 359.787 29.8861 359.787 30.0011Z" fill="#263238"/>
<path d="M136.043 44.7829V54.388C136.042 54.6111 136.085 54.8321 136.17 55.0384C136.255 55.2447 136.38 55.4321 136.538 55.5899C136.696 55.7476 136.883 55.8725 137.089 55.9575C137.296 56.0424 137.517 56.0856 137.74 56.0847H148.61L151.328 59.5428L154.304 56.2141H165.613C165.836 56.2141 166.056 56.1702 166.262 56.0849C166.468 55.9997 166.655 55.8747 166.813 55.7171C166.97 55.5596 167.095 55.3725 167.181 55.1667C167.266 54.9608 167.31 54.7402 167.31 54.5174V44.7326C167.31 44.5098 167.266 44.2891 167.181 44.0833C167.095 43.8774 166.97 43.6904 166.813 43.5328C166.655 43.3753 166.468 43.2503 166.262 43.165C166.056 43.0798 165.836 43.0359 165.613 43.0359L137.732 43.0862C137.284 43.0881 136.854 43.2677 136.537 43.5857C136.221 43.9037 136.043 44.3342 136.043 44.7829Z" fill="#8ACEB2"/>
<path d="M142.58 52.418H140.955V50.8867L144.708 46.7815H144.78C144.98 46.7013 145.197 46.675 145.41 46.7053C145.624 46.7356 145.825 46.8214 145.995 46.954C146.148 47.1343 146.257 47.3474 146.315 47.5768C146.372 47.8063 146.376 48.0458 146.326 48.2769V48.3488L142.58 52.418ZM141.494 51.8788H142.343L145.808 48.09C145.845 47.837 145.783 47.5795 145.635 47.371C145.542 47.3101 145.435 47.2719 145.324 47.2594C145.213 47.247 145.1 47.2606 144.996 47.2991L141.494 51.1311V51.8788Z" fill="white"/>
<path d="M153.198 51.3828V51.9148H150.1V47.6443H153.119V48.1763H150.711V49.492H152.868V50.0168H150.711V51.39L153.198 51.3828Z" fill="white"/>
<path d="M157.116 47.3926V51.9147H156.556V51.4043C156.421 51.582 156.246 51.7246 156.044 51.8197C155.842 51.9149 155.621 51.9598 155.398 51.9507C154.979 51.923 154.587 51.7372 154.3 51.4308C154.013 51.1244 153.854 50.7204 153.854 50.3007C153.854 49.881 154.013 49.477 154.3 49.1706C154.587 48.8642 154.979 48.6784 155.398 48.6507C155.614 48.6419 155.83 48.685 156.026 48.7763C156.222 48.8676 156.394 49.0045 156.527 49.1756V47.3926H157.116ZM156.534 50.2683C156.56 50.112 156.551 49.9519 156.509 49.7992C156.466 49.6466 156.391 49.5049 156.288 49.3842C156.186 49.2634 156.058 49.1664 155.914 49.0999C155.771 49.0333 155.614 48.9989 155.456 48.9989C155.297 48.9989 155.141 49.0333 154.997 49.0999C154.853 49.1664 154.725 49.2634 154.623 49.3842C154.52 49.5049 154.445 49.6466 154.403 49.7992C154.36 49.9519 154.352 50.112 154.377 50.2683C154.352 50.4247 154.36 50.5848 154.403 50.7375C154.445 50.8901 154.52 51.0318 154.623 51.1525C154.725 51.2733 154.853 51.3703 154.997 51.4368C155.141 51.5034 155.297 51.5378 155.456 51.5378C155.614 51.5378 155.771 51.5034 155.914 51.4368C156.058 51.3703 156.186 51.2733 156.288 51.1525C156.391 51.0318 156.466 50.8901 156.509 50.7375C156.551 50.5848 156.56 50.4247 156.534 50.2683Z" fill="white"/>
<path d="M158.121 47.6872C158.121 47.6356 158.131 47.5845 158.151 47.5369C158.171 47.4894 158.201 47.4462 158.237 47.4101C158.274 47.374 158.318 47.3455 158.366 47.3264C158.414 47.3073 158.465 47.298 158.517 47.299C158.567 47.296 158.618 47.3035 158.666 47.321C158.714 47.3384 158.758 47.3655 158.795 47.4005C158.832 47.4355 158.861 47.4778 158.882 47.5246C158.902 47.5714 158.912 47.6218 158.912 47.6728C158.912 47.7777 158.87 47.8783 158.796 47.9524C158.722 48.0266 158.621 48.0682 158.517 48.0682C158.412 48.0682 158.311 48.0266 158.237 47.9524C158.163 47.8783 158.121 47.7777 158.121 47.6728V47.6872ZM158.222 48.6865H158.811V51.9146H158.222V48.6865Z" fill="white"/>
<path d="M161.747 51.7281C161.541 51.8846 161.286 51.9635 161.028 51.951C160.89 51.9679 160.751 51.9537 160.62 51.9094C160.489 51.8651 160.37 51.7919 160.271 51.6952C160.172 51.5985 160.097 51.4808 160.05 51.3508C160.003 51.2208 159.986 51.0819 160 50.9444V49.1686H159.453V48.687H160V47.968H160.589V48.687H161.516V49.1686H160.589V50.9157C160.589 51.268 160.769 51.4621 161.092 51.4621C161.259 51.4644 161.422 51.4085 161.552 51.3039L161.747 51.7281Z" fill="white"/>
<path d="M216.085 165.63H110.07V59.3057H216.085V165.63ZM110.789 164.911H215.367V60.0246H110.789V164.911Z" fill="#8ACEB2"/>
<path d="M164.241 167.312H160.582V163.718H164.241V167.312ZM161.301 166.593H163.523V164.436H161.301V166.593Z" fill="#8ACEB2"/>
<path d="M217.572 108.848H213.912V105.253H217.572V108.848ZM214.631 108.129H216.853V105.972H214.631V108.129Z" fill="#8ACEB2"/>
<path d="M111.887 108.848H108.221V105.253H111.887V108.848ZM108.947 108.129H111.168V105.972H108.94L108.947 108.129Z" fill="#8ACEB2"/>
<path d="M377.229 114.398H236.518V80.4282H377.229V114.398ZM237.237 113.679H376.51V81.1472H237.237V113.679Z" fill="#8ACEB2"/>
<path d="M378.242 128.223C378.242 128.324 347.543 128.41 309.676 128.41C271.81 128.41 241.104 128.324 241.104 128.223C241.104 128.123 271.795 128.036 309.676 128.036C347.557 128.036 378.242 128.123 378.242 128.223Z" fill="#263238"/>
<path d="M377.509 149.087C377.509 149.194 346.803 149.281 308.936 149.281C271.069 149.281 240.363 149.194 240.363 149.087C240.363 148.979 271.062 148.9 308.936 148.9C346.81 148.9 377.509 148.986 377.509 149.087Z" fill="#E0E0E0"/>
<path d="M377.509 154.609C377.509 154.709 346.803 154.795 308.936 154.795C271.069 154.795 240.363 154.709 240.363 154.609C240.363 154.508 271.062 154.422 308.936 154.422C346.81 154.422 377.509 154.501 377.509 154.609Z" fill="#E0E0E0"/>
<path d="M310.553 135.463C310.553 135.571 295.003 135.65 275.828 135.65C256.654 135.65 241.104 135.571 241.104 135.463C241.104 135.355 256.647 135.276 275.828 135.276C295.01 135.276 310.553 135.362 310.553 135.463Z" fill="#263238"/>
<path d="M390.838 172.424H387.243V171.705H390.838V172.424ZM383.649 172.424H380.054V171.705H383.649V172.424ZM376.459 172.424H372.865V171.705H376.459V172.424ZM369.27 172.424H365.675V171.705H369.27V172.424ZM391.198 171.633H390.479V168.038H391.198V171.633ZM363.231 171.273H362.512V167.679H363.231V171.273ZM391.198 164.443H390.479V160.849H391.198V164.443ZM363.231 164.084H362.512V160.489H363.231V164.084ZM391.198 157.254H390.479V153.659H391.198V157.254ZM363.231 156.894H362.512V153.3H363.231V156.894ZM391.198 150.064H390.479V146.47H391.198V150.064ZM363.231 149.705H362.512V146.11H363.231V149.705ZM389.616 144.457H386.021V143.738H389.616V144.457ZM382.426 144.457H378.832V143.738H382.426V144.457ZM375.237 144.457H371.642V143.738H375.237V144.457ZM368.048 144.457H364.453V143.738H368.048V144.457Z" fill="#263238"/>
<path d="M363.079 147.074C362.556 147.074 362.045 146.919 361.609 146.628C361.174 146.337 360.835 145.924 360.635 145.441C360.435 144.957 360.382 144.425 360.484 143.912C360.587 143.399 360.838 142.927 361.209 142.557C361.579 142.187 362.05 141.935 362.563 141.833C363.076 141.731 363.608 141.784 364.092 141.984C364.575 142.184 364.988 142.523 365.279 142.958C365.57 143.393 365.725 143.905 365.725 144.428C365.725 145.13 365.446 145.803 364.95 146.299C364.454 146.795 363.781 147.074 363.079 147.074ZM363.079 142.509C362.698 142.509 362.325 142.622 362.008 142.834C361.691 143.046 361.444 143.347 361.299 143.7C361.153 144.052 361.115 144.44 361.19 144.814C361.265 145.188 361.449 145.531 361.719 145.8C361.99 146.07 362.334 146.252 362.708 146.326C363.082 146.4 363.47 146.36 363.822 146.213C364.174 146.066 364.474 145.818 364.685 145.501C364.896 145.183 365.008 144.81 365.006 144.428C364.999 143.922 364.792 143.439 364.432 143.084C364.071 142.729 363.585 142.53 363.079 142.53V142.509Z" fill="#263238"/>
<path d="M390.655 147.074C390.132 147.074 389.621 146.919 389.186 146.628C388.751 146.337 388.411 145.924 388.211 145.441C388.011 144.957 387.959 144.425 388.061 143.912C388.163 143.399 388.415 142.927 388.785 142.557C389.155 142.187 389.626 141.935 390.139 141.833C390.653 141.731 391.185 141.784 391.668 141.984C392.151 142.184 392.565 142.523 392.855 142.958C393.146 143.393 393.301 143.905 393.301 144.428C393.301 145.13 393.022 145.803 392.526 146.299C392.03 146.795 391.357 147.074 390.655 147.074ZM390.655 142.509C390.274 142.509 389.901 142.622 389.584 142.834C389.267 143.046 389.02 143.347 388.875 143.7C388.729 144.052 388.691 144.44 388.766 144.814C388.841 145.188 389.025 145.531 389.296 145.8C389.566 146.07 389.91 146.252 390.284 146.326C390.658 146.4 391.046 146.36 391.398 146.213C391.75 146.066 392.05 145.818 392.261 145.501C392.472 145.183 392.584 144.81 392.582 144.428C392.575 143.922 392.368 143.439 392.008 143.084C391.647 142.729 391.162 142.53 390.655 142.53V142.509Z" fill="#263238"/>
<path d="M363.079 175.458C362.556 175.458 362.044 175.302 361.609 175.011C361.173 174.72 360.834 174.307 360.634 173.823C360.434 173.339 360.382 172.807 360.485 172.293C360.588 171.78 360.84 171.308 361.211 170.939C361.582 170.569 362.054 170.317 362.568 170.216C363.081 170.115 363.613 170.168 364.097 170.37C364.58 170.571 364.993 170.911 365.283 171.347C365.572 171.783 365.726 172.296 365.725 172.819C365.723 173.52 365.444 174.191 364.948 174.685C364.452 175.18 363.78 175.458 363.079 175.458ZM363.079 170.892C362.698 170.892 362.326 171.005 362.009 171.217C361.692 171.429 361.445 171.73 361.299 172.082C361.153 172.434 361.115 172.821 361.19 173.195C361.264 173.569 361.447 173.912 361.717 174.182C361.986 174.451 362.33 174.635 362.703 174.709C363.077 174.783 363.465 174.745 363.817 174.599C364.169 174.453 364.47 174.206 364.681 173.89C364.893 173.573 365.006 173.2 365.006 172.819C365.006 172.308 364.803 171.818 364.442 171.457C364.08 171.095 363.59 170.892 363.079 170.892Z" fill="#263238"/>
<path d="M390.655 175.458C390.132 175.458 389.62 175.302 389.185 175.011C388.75 174.72 388.41 174.307 388.21 173.823C388.01 173.339 387.958 172.807 388.061 172.293C388.164 171.78 388.417 171.308 388.787 170.939C389.158 170.569 389.63 170.317 390.144 170.216C390.657 170.115 391.19 170.168 391.673 170.37C392.156 170.571 392.569 170.911 392.859 171.347C393.149 171.783 393.303 172.296 393.301 172.819C393.299 173.52 393.02 174.191 392.524 174.685C392.028 175.18 391.356 175.458 390.655 175.458ZM390.655 170.892C390.274 170.892 389.902 171.005 389.585 171.217C389.268 171.429 389.021 171.73 388.875 172.082C388.73 172.434 388.691 172.821 388.766 173.195C388.84 173.569 389.024 173.912 389.293 174.182C389.563 174.451 389.906 174.635 390.28 174.709C390.653 174.783 391.041 174.745 391.393 174.599C391.745 174.453 392.046 174.206 392.257 173.89C392.469 173.573 392.582 173.2 392.582 172.819C392.582 172.308 392.379 171.818 392.018 171.457C391.657 171.095 391.166 170.892 390.655 170.892Z" fill="#263238"/>
<path d="M376.243 152.969H371.066V150.517H384.317V152.969H379.14V166.133H376.264L376.243 152.969Z" fill="#263238"/>
<path d="M392.735 34.4947C392.735 34.4947 392.979 34.4947 393.411 34.3797C394.042 34.2259 394.61 33.8791 395.035 33.3876C395.343 33.0385 395.564 32.6225 395.682 32.1726C395.792 31.6237 395.825 31.0626 395.783 30.5046C395.704 29.3256 396.064 27.7798 394.992 26.6583C394.473 26.0818 393.753 25.7267 392.979 25.6661C392.167 25.6661 391.283 25.6661 390.384 25.6661H384.632H371.447C370.901 25.6687 370.367 25.8209 369.902 26.1061C369.436 26.3913 369.058 26.7986 368.808 27.2838C368.566 27.7642 368.452 28.2992 368.478 28.8367V30.5118C368.445 31.0412 368.478 31.5726 368.578 32.0935C368.71 32.5786 368.957 33.0249 369.297 33.3948C369.653 33.7624 370.092 34.0387 370.577 34.2C371.047 34.3129 371.532 34.3565 372.015 34.3294L382.799 34.3725L390.06 34.43H392.037H392.548H392.72C392.663 34.4393 392.605 34.4393 392.548 34.43H392.037L390.06 34.466L382.799 34.5307L372.015 34.5666C371.486 34.6033 370.954 34.5548 370.44 34.4228C369.901 34.2616 369.411 33.9649 369.018 33.5609C368.626 33.157 368.343 32.6592 368.197 32.115C368.121 31.8361 368.08 31.5487 368.075 31.2595V28.8654C368.051 28.4099 368.119 27.9542 368.276 27.5259C368.434 27.0977 368.676 26.7059 368.99 26.3744C369.303 26.0429 369.681 25.7786 370.099 25.5975C370.518 25.4164 370.969 25.3223 371.425 25.321H384.611H390.362C391.268 25.321 392.124 25.321 392.979 25.321C393.812 25.3991 394.584 25.7926 395.136 26.421C395.646 26.9947 395.934 27.7315 395.948 28.4988C395.948 29.2177 395.948 29.836 395.948 30.4471C395.985 31.0211 395.939 31.5973 395.812 32.1582C395.648 32.7172 395.336 33.2212 394.908 33.6163C394.48 34.0114 393.952 34.2827 393.382 34.4013C393.172 34.4651 392.954 34.4967 392.735 34.4947Z" fill="#263238"/>
<path d="M185.824 43.0359H171.438C170.044 43.0359 168.914 44.1657 168.914 45.5594V53.6475C168.914 55.0412 170.044 56.171 171.438 56.171H185.824C187.217 56.171 188.347 55.0412 188.347 53.6475V45.5594C188.347 44.1657 187.217 43.0359 185.824 43.0359Z" fill="#8ACEB2"/>
<path d="M177.655 52.267H173.342V46.9756H177.655V52.267ZM174.061 51.5481H176.937V47.6945H174.061V51.5481Z" fill="white"/>
<path d="M176.196 46.3503H174.787V47.2706H176.196V46.3503Z" fill="white"/>
<path d="M178.31 46.9397H172.674V47.6586H178.31V46.9397Z" fill="white"/>
<path d="M185.315 47.4643C185.315 47.6065 185.273 47.7455 185.194 47.8637C185.115 47.982 185.002 48.0741 184.871 48.1285C184.74 48.1829 184.595 48.1972 184.456 48.1694C184.316 48.1417 184.188 48.0732 184.088 47.9727C183.987 47.8721 183.919 47.744 183.891 47.6046C183.863 47.4651 183.877 47.3205 183.932 47.1892C183.986 47.0578 184.078 46.9455 184.196 46.8665C184.315 46.7875 184.454 46.7454 184.596 46.7454C184.787 46.7454 184.969 46.8211 185.104 46.9559C185.239 47.0908 185.315 47.2736 185.315 47.4643Z" fill="white"/>
<path d="M185.315 49.3767C185.315 49.5189 185.273 49.6579 185.194 49.7761C185.115 49.8943 185.002 49.9865 184.871 50.0409C184.74 50.0953 184.595 50.1095 184.456 50.0818C184.316 50.054 184.188 49.9856 184.088 49.885C183.987 49.7845 183.919 49.6564 183.891 49.5169C183.863 49.3775 183.877 49.2329 183.932 49.1015C183.986 48.9702 184.078 48.8579 184.196 48.7789C184.315 48.6999 184.454 48.6577 184.596 48.6577C184.787 48.6577 184.969 48.7335 185.104 48.8683C185.239 49.0031 185.315 49.186 185.315 49.3767Z" fill="white"/>
<path d="M185.315 51.2893C185.315 51.4314 185.273 51.5704 185.194 51.6887C185.115 51.8069 185.002 51.8991 184.871 51.9535C184.74 52.0079 184.595 52.0221 184.456 51.9944C184.316 51.9666 184.188 51.8982 184.088 51.7976C183.987 51.6971 183.919 51.569 183.891 51.4295C183.863 51.2901 183.877 51.1455 183.932 51.0141C183.986 50.8828 184.078 50.7705 184.196 50.6915C184.315 50.6125 184.454 50.5703 184.596 50.5703C184.787 50.5703 184.969 50.6461 185.104 50.7809C185.239 50.9157 185.315 51.0986 185.315 51.2893Z" fill="white"/>
<g opacity="0.3">
<path d="M180.85 43.0359H185.825C186.494 43.0359 187.136 43.3018 187.609 43.775C188.082 44.2482 188.348 44.8901 188.348 45.5594V53.6475C188.348 54.3167 188.082 54.9586 187.609 55.4318C187.136 55.9051 186.494 56.171 185.825 56.171H180.85V43.0359Z" fill="white"/>
</g>
<path d="M208.875 66.6172H117.289V155.22H208.875V66.6172Z" fill="#455A64"/>
<g opacity="0.3">
<path d="M124.391 147.642L149.726 102.047L170.446 131.185L183.035 115.714L201.77 147.642H124.391Z" fill="black"/>
</g>
<g opacity="0.3">
<path d="M179.273 93.1534C179.275 94.4576 178.889 95.7329 178.166 96.818C177.442 97.9032 176.413 98.7493 175.208 99.2494C174.004 99.7494 172.678 99.881 171.399 99.6275C170.12 99.3739 168.944 98.7466 168.021 97.8249C167.099 96.9031 166.47 95.7284 166.215 94.4494C165.96 93.1703 166.09 91.8444 166.589 90.6393C167.088 89.4342 167.933 88.4042 169.017 87.6794C170.101 86.9547 171.376 86.5679 172.681 86.5679C174.428 86.5679 176.104 87.2615 177.34 88.4963C178.576 89.7311 179.271 91.4061 179.273 93.1534Z" fill="black"/>
</g>
<g opacity="0.3">
<path d="M201.754 73.5841L124.382 73.5194C124.468 73.4259 123.548 74.3533 123.936 73.9723V83.9943C123.936 87.3158 123.936 90.6038 123.936 93.8582C123.936 100.372 123.936 106.749 123.936 112.953C123.936 125.362 123.936 137.095 123.979 147.887V148.268H124.36L180.553 148.074L196.247 147.973L200.359 147.93H201.402C201.514 147.94 201.627 147.94 201.74 147.93H201.359H200.273L196.089 147.887L180.272 147.786L124.705 147.592C124.705 136.908 124.705 125.305 124.741 113.04C124.741 106.835 124.741 100.458 124.741 93.9445V74.3893L201.316 74.3318C201.395 96.2954 201.459 114.593 201.51 127.454C201.546 133.925 201.582 138.957 201.603 142.502C201.603 144.223 201.618 145.553 201.646 146.492C201.646 146.923 201.646 147.261 201.646 147.527C201.638 147.647 201.638 147.767 201.646 147.887C201.657 147.779 201.657 147.671 201.646 147.563C201.646 147.312 201.646 146.988 201.646 146.571C201.646 145.651 201.646 144.342 201.689 142.66C201.689 139.166 201.747 134.112 201.783 127.692C201.833 114.693 201.898 96.1804 201.977 73.9579V73.5841H201.754Z" fill="black"/>
</g>
<path d="M351.294 62.5405H250.916C249.296 62.5405 247.982 63.8538 247.982 65.4738V72.7064C247.982 74.3264 249.296 75.6397 250.916 75.6397H351.294C352.914 75.6397 354.228 74.3264 354.228 72.7064V65.4738C354.228 63.8538 352.914 62.5405 351.294 62.5405Z" fill="#8ACEB2"/>
<g opacity="0.3">
<path d="M286.001 64.9998H251.305V72.7068H286.001V64.9998Z" fill="white"/>
</g>
<path d="M254.872 67.8607H253.621V67.4077H256.633V67.8607H255.39V71.0527H254.872V67.8607Z" fill="white"/>
<path d="M256.971 67.4439C256.971 67.3542 257.006 67.2683 257.07 67.2049C257.133 67.1416 257.219 67.106 257.309 67.106C257.398 67.106 257.484 67.1416 257.548 67.2049C257.611 67.2683 257.647 67.3542 257.647 67.4439C257.647 67.5335 257.611 67.6194 257.548 67.6828C257.484 67.7462 257.398 67.7818 257.309 67.7818C257.219 67.7818 257.133 67.7462 257.07 67.6828C257.006 67.6194 256.971 67.5335 256.971 67.4439ZM257.057 68.2922H257.56V71.0529H257.057V68.2922Z" fill="white"/>
<path d="M260.062 70.8661C259.889 70.9982 259.675 71.0667 259.458 71.0602C259.341 71.0736 259.222 71.0607 259.11 71.0223C258.999 70.9839 258.897 70.921 258.813 70.8383C258.729 70.7556 258.664 70.6551 258.624 70.5442C258.584 70.4334 258.569 70.3149 258.581 70.1975V68.7093H258.113V68.2995H258.552V67.6956H259.055V68.2995H259.846V68.7093H259.055V70.2047C259.046 70.2647 259.051 70.3259 259.069 70.3837C259.087 70.4416 259.118 70.4947 259.16 70.5389C259.201 70.5831 259.252 70.6174 259.309 70.6392C259.365 70.661 259.426 70.6698 259.486 70.6648C259.627 70.667 259.764 70.6213 259.875 70.5354L260.062 70.8661Z" fill="white"/>
<path d="M260.664 67.1921H261.16V71.0529H260.664V67.1921Z" fill="white"/>
<path d="M264.591 69.838H262.355C262.387 70.0744 262.509 70.2895 262.694 70.4392C262.88 70.5889 263.116 70.6619 263.354 70.6432C263.503 70.6493 263.652 70.6228 263.79 70.5657C263.927 70.5086 264.051 70.4222 264.152 70.3125L264.425 70.636C264.221 70.8417 263.962 70.9841 263.679 71.046C263.396 71.1078 263.102 71.0866 262.83 70.9848C262.559 70.883 262.323 70.705 262.151 70.4722C261.978 70.2394 261.877 69.9617 261.859 69.6726C261.846 69.4853 261.872 69.2973 261.936 69.1208C262 68.9442 262.1 68.783 262.23 68.6475C262.36 68.5121 262.517 68.4054 262.691 68.3343C262.865 68.2632 263.051 68.2293 263.239 68.2347C263.426 68.2291 263.612 68.2629 263.786 68.3342C263.959 68.4054 264.115 68.5124 264.244 68.6481C264.373 68.7838 264.472 68.9452 264.534 69.1218C264.596 69.2983 264.62 69.486 264.605 69.6726C264.604 69.728 264.599 69.7833 264.591 69.838ZM262.355 69.4785H264.123C264.096 69.2634 263.991 69.0657 263.828 68.9224C263.665 68.7791 263.456 68.7 263.239 68.7C263.022 68.7 262.813 68.7791 262.65 68.9224C262.487 69.0657 262.382 69.2634 262.355 69.4785Z" fill="white"/>
<path d="M280.48 68.5293H283.78L282.134 70.1757L280.48 68.5293Z" fill="white"/>
<path d="M295.938 69.953C295.938 70.6144 295.392 71.0026 294.364 71.0026H292.293V67.1707H294.248C295.262 67.1707 295.751 67.5876 295.751 68.1772C295.754 68.3503 295.707 68.5206 295.617 68.6682C295.527 68.8159 295.396 68.9348 295.241 69.0111C295.444 69.0696 295.623 69.1936 295.749 69.3638C295.875 69.5341 295.941 69.7411 295.938 69.953ZM293.371 67.9902V68.7092H294.09C294.45 68.7092 294.637 68.587 294.637 68.3353C294.637 68.0837 294.45 67.9687 294.09 67.9687L293.371 67.9902ZM294.852 69.8739C294.852 69.6079 294.651 69.4785 294.284 69.4785H293.371V70.2621H294.284C294.651 70.2262 294.852 70.0968 294.852 69.8379V69.8739Z" fill="white"/>
<path d="M301.888 67.1133H302.169L301.4 70.9452H301.119L301.888 67.1133Z" fill="white"/>
<path d="M308.317 64.8772H307.598V73.1738H308.317V64.8772Z" fill="white"/>
<path d="M324.946 64.7117H324.227V73.0083H324.946V64.7117Z" fill="white"/>
<path d="M340.416 64.8772H339.697V73.1738H340.416V64.8772Z" fill="white"/>
<path d="M316.757 66.9336H312.221V67.6525H316.757V66.9336Z" fill="white"/>
<path d="M316.757 69.5503H312.221V70.2692H316.757V69.5503Z" fill="white"/>
<path d="M314.493 68.2922H312.221V69.0112H314.493V68.2922Z" fill="white"/>
<path d="M319.539 68.5513H321.933L320.74 69.6297L319.539 68.5513Z" fill="white"/>
<path d="M331.31 70.5784H327.162V67.1707H329.312V67.8896H327.881V69.8595H330.591V69.1406H331.31V70.5784Z" fill="white"/>
<path d="M333.705 70.5784H331.936V69.8595H332.986V67.8896H330.276V68.8027H329.557V67.1707H333.705V70.5784Z" fill="white"/>
<path d="M335.385 68.6013H337.599L336.492 69.6294L335.385 68.6013Z" fill="white"/>
<path d="M348.154 71.5347H344.322V66.876H348.154V71.5347ZM345.041 70.8158H347.435V67.5949H345.041V70.8158Z" fill="white"/>
<path d="M346.846 66.3943H345.631V67.1851H346.846V66.3943Z" fill="white"/>
<path d="M348.665 66.8542H343.812V67.5732H348.665V66.8542Z" fill="white"/>
<path d="M302.781 74.8994L307.037 79.5797L311.157 74.8059L302.781 74.8994Z" fill="#8ACEB2"/>
<path d="M373.15 86.1074H313.355V110.918H373.15V86.1074Z" fill="#E0E0E0"/>
<path d="M252.849 100.393V105.591H250.692V100.343L244.725 90.5508H247.047L251.857 98.4591L256.695 90.5508H258.852L252.849 100.393Z" fill="#263238"/>
<path d="M259.127 98.0779C259.127 93.6708 262.52 90.3853 267.136 90.3853C271.752 90.3853 275.087 93.6493 275.087 98.0779C275.087 102.507 271.687 105.763 267.114 105.763C262.542 105.763 259.127 102.499 259.127 98.0779ZM272.959 98.0779C272.978 96.9172 272.65 95.7772 272.019 94.8033C271.387 93.8294 270.479 93.0657 269.412 92.6096C268.344 92.1535 267.165 92.0255 266.025 92.2422C264.884 92.4588 263.834 93.0101 263.008 93.8259C262.182 94.6417 261.618 95.6849 261.387 96.8226C261.156 97.9604 261.269 99.141 261.712 100.214C262.155 101.287 262.907 102.204 263.873 102.848C264.839 103.492 265.975 103.834 267.136 103.829C267.899 103.85 268.658 103.716 269.368 103.434C270.077 103.153 270.722 102.731 271.264 102.193C271.805 101.656 272.232 101.014 272.519 100.306C272.805 99.5991 272.946 98.841 272.931 98.0779H272.959Z" fill="#263238"/>
<path d="M278.266 99.1058V90.5576H280.422V99.0196C280.422 102.348 281.947 103.851 284.65 103.851C287.353 103.851 288.906 102.348 288.906 99.0196V90.5576H290.991V99.1058C290.991 103.463 288.604 105.763 284.635 105.763C280.667 105.763 278.266 103.463 278.266 99.1058Z" fill="#263238"/>
<path d="M305.44 105.591L302.198 100.975C301.896 100.975 301.572 101.018 301.249 101.018H297.532V105.591H295.375V90.5576H301.234C305.145 90.5576 307.511 92.5347 307.511 95.7987C307.56 96.8435 307.262 97.8752 306.664 98.7333C306.066 99.5914 305.201 100.228 304.204 100.544L307.798 105.576L305.44 105.591ZM305.375 95.7987C305.375 93.6419 303.938 92.4269 301.184 92.4269H297.532V99.1921H301.184C303.938 99.1921 305.375 97.9483 305.375 95.7987Z" fill="#263238"/>
<path d="M320.698 93.3903H315.881L316.463 90.5576H329.57L328.987 93.3903H324.199L321.747 105.612H318.268L320.698 93.3903Z" fill="#263238"/>
<path d="M334.334 93.3471L333.694 96.6111H340.675L340.136 99.3215H333.134L332.415 102.801H340.654L340.071 105.591H328.432L331.437 90.5576H342.796L342.221 93.3471H334.334Z" fill="#263238"/>
<path d="M352.014 98.013L356.141 105.591H352.381L349.721 100.479L345.163 105.591H341L348.189 97.7974L344.3 90.5576H348.017L350.526 95.3889L354.912 90.5576H358.859L352.014 98.013Z" fill="#263238"/>
<path d="M362.934 93.3903H358.117L358.7 90.5576H371.806L371.223 93.3903H366.435L363.984 105.612H360.504L362.934 93.3903Z" fill="#263238"/>
<path d="M111.522 36.1053C114.893 36.1053 117.626 33.3726 117.626 30.0015C117.626 26.6305 114.893 23.8977 111.522 23.8977C108.151 23.8977 105.418 26.6305 105.418 30.0015C105.418 33.3726 108.151 36.1053 111.522 36.1053Z" fill="#E0E0E0"/>
<path d="M406.524 0.215682C406.524 1.38037 406.582 72.8288 406.668 187.399V187.543H406.524H281.472L281.601 187.486L271.572 198.126L271.449 198.248L271.327 198.133L259.724 187.5L259.839 187.543H90.3049H85.7324V187.356C85.7324 121.084 85.7324 57.8389 85.7324 0.172545V0H85.905L406.51 0.172545L85.9194 0.409797L86.0919 0.237249C86.0919 57.9036 86.0919 121.149 86.0919 187.421L85.905 187.234H259.889L259.939 187.284L271.536 197.918H271.291L281.357 187.277L281.407 187.227H281.479H406.531L406.388 187.371C406.467 72.8072 406.524 1.38037 406.524 0.215682Z" fill="#263238"/>
<path d="M95.1356 247.316C92.3059 245.547 89.1087 244.45 85.7893 244.109C84.2652 243.951 82.5972 243.994 81.375 244.914C81.2342 244.997 81.118 245.116 81.0384 245.259C80.9587 245.402 80.9186 245.563 80.9221 245.727C80.9957 245.955 81.1488 246.149 81.3535 246.273C83.3347 247.687 85.6651 248.531 88.0919 248.715C90.5188 248.899 92.9497 248.415 95.1212 247.316" fill="#8ACEB2"/>
<path d="M94.9011 247.057C92.74 245.467 90.7217 243.692 88.8692 241.751C87.0167 239.796 85.7145 237.385 85.0948 234.763C84.9715 234.376 84.934 233.966 84.9849 233.562C85.0358 233.159 85.1739 232.771 85.3895 232.427C90.1993 236.179 93.9737 241.054 94.9011 247.057Z" fill="#8ACEB2"/>
<path d="M95.0875 247.28C94.6436 244.659 94.6826 241.979 95.2025 239.372C95.7368 236.742 97.2407 234.409 99.4155 232.836C100.249 234.778 99.89 237.013 99.3077 239.041C98.4 242.182 96.9867 245.154 95.1234 247.841" fill="#8ACEB2"/>
<path d="M99.7959 255.72C96.9682 256.175 94.3524 257.499 92.3117 259.509C90.1519 261.456 88.6455 264.022 87.998 266.856C90.8019 266.684 93.1816 264.7 94.9071 262.492C96.6325 260.285 97.826 257.841 99.724 255.763" fill="#8ACEB2"/>
<path d="M100.824 257.072C99.7004 254.212 99.3093 251.116 99.686 248.066C100.063 245.017 101.195 242.11 102.981 239.609C104.613 245.403 104.009 251.953 100.824 257.072Z" fill="#8ACEB2"/>
<path d="M107.043 264.484C104.431 264.323 101.829 264.932 99.56 266.237C97.2913 267.542 95.4559 269.485 94.2818 271.824C94.18 271.97 94.1184 272.139 94.1033 272.316C94.0881 272.493 94.12 272.67 94.1956 272.831C94.3066 272.937 94.4418 273.015 94.5896 273.058C94.7374 273.1 94.8933 273.106 95.0439 273.075C97.5602 272.917 99.7889 271.4 101.629 269.675C103.47 267.949 105.066 265.965 107.101 264.477" fill="#8ACEB2"/>
<path d="M106.855 264.074C105.512 259.763 105.429 255.159 106.618 250.803C107.085 249.091 107.868 247.294 109.45 246.489C109.513 246.447 109.584 246.42 109.658 246.407C109.733 246.395 109.809 246.398 109.882 246.417C110.009 246.484 110.107 246.597 110.155 246.733C110.685 247.93 110.915 249.238 110.823 250.544C110.729 251.842 110.529 253.131 110.227 254.397C109.731 256.755 109.465 259.286 108.17 261.321C107.865 261.808 107.591 262.315 107.351 262.838C107.106 263.355 107.106 263.557 106.876 263.952" fill="#8ACEB2"/>
<path d="M123.319 266.533C122.766 264.11 122.748 261.595 123.266 259.164C123.784 256.733 124.825 254.444 126.317 252.456C126.533 252.176 126.82 251.874 127.173 251.91C127.712 251.96 127.848 252.679 127.827 253.218C127.602 257.991 126.04 262.605 123.319 266.533Z" fill="#8ACEB2"/>
<path d="M124.83 267.546C127.711 268.225 130.705 268.272 133.606 267.682C136.506 267.093 139.244 265.881 141.632 264.131C138.82 262.722 135.607 262.325 132.537 263.01C129.503 263.729 126.721 265.066 124.83 267.546Z" fill="#8ACEB2"/>
<path d="M126.059 264.455C129.215 259.307 135.268 255.943 141.3 255.641C140.581 258.092 138.59 259.998 136.318 261.155C133.99 262.209 131.527 262.935 128.999 263.312C128.021 263.506 126.684 263.715 126.059 264.477" fill="#8ACEB2"/>
<path d="M123.626 249.458C124.582 246.559 125.237 243.569 125.582 240.536C125.915 237.477 125.292 234.391 123.799 231.7C120.851 237.409 120.549 244.081 123.54 249.767" fill="#8ACEB2"/>
<path d="M133.564 244.44C137.015 238.164 144.054 233.16 151.179 232.455C148.432 239.3 140.934 244.584 133.564 244.44Z" fill="#8ACEB2"/>
<path d="M131.395 245.662C136.542 246.445 140.928 249.738 145.773 251.73C146.783 252.213 147.9 252.426 149.016 252.348C149.534 252.34 150.037 252.174 150.458 251.872C150.88 251.57 151.198 251.146 151.371 250.658C151.544 250.169 151.563 249.639 151.426 249.14C151.289 248.64 151.003 248.194 150.605 247.862C149.924 247.228 149.122 246.739 148.247 246.424C143.005 244.267 137.391 244.188 131.876 245.511" fill="#8ACEB2"/>
<path d="M128.424 249.271C129.589 249.609 129.984 250.213 130.911 250.997C134.056 253.672 137.776 255.583 141.782 256.583C142.199 256.683 142.745 256.727 142.946 256.353C143.148 255.979 142.903 255.634 142.666 255.332C140.917 253.286 138.65 251.749 136.102 250.882C133.593 249.947 131.422 248.818 128.424 249.055" fill="#8ACEB2"/>
<path d="M125.061 227.473C127.169 229.421 129.661 230.905 132.378 231.83C135.095 232.755 137.976 233.1 140.834 232.844C141.098 232.849 141.354 232.757 141.553 232.585C141.948 232.153 141.474 231.485 141.014 231.147C136.369 227.552 130.755 226.035 125.061 227.495" fill="#8ACEB2"/>
<path d="M129.043 226.021C131.835 223.965 135.074 222.598 138.495 222.033C141.916 221.469 145.423 221.721 148.728 222.771C146.151 225.155 142.845 226.601 139.345 226.876C135.887 227.188 132.4 226.894 129.043 226.006" fill="#8ACEB2"/>
<path d="M127.46 215.999C127 211.369 127.295 207.716 126.978 203.058C126.978 202.684 126.871 202.238 126.526 202.109C126.037 201.922 125.634 202.511 125.476 203.007C124.8 205.163 124.627 207.445 124.97 209.678C125.313 211.912 126.162 214.037 127.453 215.891" fill="#8ACEB2"/>
<path d="M127.123 216.516C130.148 214.562 132.755 212.028 134.794 209.061C136.311 206.983 137.584 204.503 137.239 201.958C136.173 201.987 135.127 202.248 134.172 202.722C133.217 203.196 132.377 203.872 131.71 204.704C130.385 206.38 129.425 208.315 128.892 210.384C128.273 212.418 127.842 214.51 127.123 216.516Z" fill="#8ACEB2"/>
<path d="M134.656 214.417C141.56 211.863 147.952 208.094 153.528 203.288C151.278 202.382 148.697 202.928 146.439 203.834C141.324 205.772 137.098 209.52 134.562 214.367" fill="#8ACEB2"/>
<path d="M129.244 219.047C132.72 219.542 136.246 219.559 139.726 219.097C143.12 218.529 146.333 217.185 149.504 215.848C149.781 215.768 150.019 215.589 150.173 215.344C150.222 215.196 150.226 215.037 150.183 214.887C150.141 214.737 150.055 214.603 149.935 214.503C149.692 214.31 149.406 214.177 149.101 214.115C145.65 213.144 141.912 213.597 138.526 214.748C135.289 215.856 132.178 217.302 129.244 219.061" fill="#8ACEB2"/>
<path d="M109.353 227.631C106.973 222.836 107.131 217.235 109.18 212.289C110.618 214.496 110.805 217.322 110.539 219.917C110.273 222.512 109.475 225.237 109.424 227.876" fill="#8ACEB2"/>
<path d="M99.8542 222.843C96.8777 222.805 93.9262 223.389 91.188 224.556C88.4497 225.724 85.985 227.449 83.9512 229.623C86.9502 229.978 89.9863 229.414 92.6576 228.005C95.3084 226.597 97.8088 224.923 100.12 223.008" fill="#8ACEB2"/>
<path d="M93.469 220.707C90.5932 220.477 87.7678 220.118 84.9783 220.973C83.5694 221.37 82.2623 222.065 81.1459 223.012C80.0294 223.958 79.1297 225.134 78.5078 226.459C81.2471 226.675 83.9945 226.156 86.4665 224.956C88.922 223.75 91.2654 222.329 93.469 220.707Z" fill="#8ACEB2"/>
<path d="M102.925 220.808C100.308 219.097 97.6263 217.35 94.5852 216.646C91.5441 215.941 88.0213 216.459 85.9004 218.752C88.3664 220.19 91.35 220.37 94.2042 220.362C97.0584 220.355 100.56 220.362 103.248 221.283" fill="#8ACEB2"/>
<path d="M102.937 220.945C98.4728 216.559 96.7761 208.687 98.5735 202.691C102.097 208.087 103.64 214.539 102.937 220.945Z" fill="#8ACEB2"/>
<path d="M115.219 208.522C116.06 206.566 116.657 204.51 117.376 202.519C118.065 200.495 119.126 198.618 120.503 196.983C121.897 195.336 123.883 194.303 126.032 194.107C125.344 197.127 124.034 199.971 122.186 202.456C120.338 204.942 117.992 207.015 115.298 208.543" fill="#8ACEB2"/>
<path d="M112.995 211.11C111.6 209.19 109.99 206.588 108.099 205.157C106.208 203.726 103.785 202.856 101.441 203.41C102.636 205.503 104.303 207.288 106.308 208.625C108.314 209.962 110.603 210.812 112.995 211.11Z" fill="#8ACEB2"/>
<path d="M113.434 208.68C112.433 206.393 111.695 204.001 111.234 201.548C110.778 199.073 111.17 196.517 112.349 194.294C114.8 198.931 115.591 203.899 113.564 208.737" fill="#8ACEB2"/>
<path d="M115.238 194.294C116.626 189.7 120.832 186.321 125.368 184.768C125.933 184.538 126.544 184.447 127.151 184.502C127.452 184.537 127.736 184.659 127.969 184.853C128.201 185.047 128.372 185.305 128.46 185.595C128.625 186.379 127.978 187.076 127.374 187.594C123.825 190.626 119.696 192.906 115.238 194.294Z" fill="#8ACEB2"/>
<path d="M115.291 190.541C115.463 187.579 115.65 184.574 116.613 181.77C117.577 178.966 119.432 176.327 122.135 175.098C122.595 178.089 121.272 181.065 119.683 183.639C118.095 186.213 116.175 188.672 115.219 191.547" fill="#8ACEB2"/>
<path d="M115.218 192.575C114.068 189.232 113.953 184.976 111.947 182.064C110.509 180.023 108.302 178.635 107.094 176.478C106.362 178.548 106.462 180.822 107.374 182.819C108.288 184.793 109.544 186.589 111.084 188.125C112.565 189.707 113.838 190.9 115.218 192.575Z" fill="#8ACEB2"/>
<path d="M115.24 291.157C115.146 291.157 115.074 268.826 115.067 241.284C115.06 213.741 115.124 191.411 115.218 191.411C115.311 191.411 115.383 213.734 115.39 241.284C115.398 268.834 115.326 291.157 115.24 291.157Z" fill="#263238"/>
<path d="M134.751 224.266C134.48 224.396 134.199 224.502 133.91 224.582L131.602 225.359C129.654 226.02 126.979 226.984 124.075 228.177C121.17 229.371 118.481 230.413 116.936 231.772C116.32 232.286 115.829 232.932 115.498 233.663C115.275 234.188 115.239 234.511 115.21 234.504C115.181 234.497 115.21 234.425 115.21 234.274C115.245 234.051 115.301 233.832 115.375 233.62C115.666 232.841 116.146 232.147 116.77 231.599C117.704 230.812 118.748 230.166 119.869 229.68C121.105 229.097 122.479 228.494 123.938 227.897C126.85 226.703 129.546 225.776 131.516 225.165C132.501 224.856 133.306 224.633 133.859 224.482C134.149 224.382 134.448 224.31 134.751 224.266Z" fill="#263238"/>
<path d="M141.147 208.551C141.147 208.551 141.068 208.651 140.91 208.802L140.191 209.478L137.516 211.908L128.616 219.816C125.136 222.908 122.145 225.863 120.053 228.091C119.011 229.199 118.191 230.119 117.63 230.766L116.983 231.485C116.913 231.574 116.833 231.656 116.746 231.729C116.746 231.729 116.804 231.621 116.933 231.442C117.062 231.262 117.264 230.996 117.537 230.665C118.069 229.997 118.86 229.048 119.888 227.912C122.584 224.99 125.432 222.214 128.422 219.593C131.909 216.509 135.079 213.734 137.387 211.735L140.133 209.385L140.888 208.759C140.966 208.68 141.053 208.61 141.147 208.551Z" fill="#263238"/>
<path d="M124.866 222.979C124.772 222.943 125.498 221.261 126.224 219.147C126.951 217.034 127.296 215.236 127.389 215.251C127.314 216.62 127.022 217.969 126.526 219.248C126.219 220.162 125.859 221.057 125.448 221.93C125.305 222.306 125.108 222.659 124.866 222.979Z" fill="#263238"/>
<path d="M115.261 236.496C115.059 236.31 114.878 236.102 114.722 235.877L113.327 234.116C112.176 232.628 110.58 230.572 108.797 228.321C107.014 226.071 105.368 224.051 104.182 222.57L102.78 220.83C102.595 220.626 102.431 220.405 102.291 220.168C102.505 220.341 102.701 220.536 102.873 220.751C103.233 221.139 103.736 221.707 104.354 222.419C105.591 223.857 107.23 225.841 109.049 228.098C110.868 230.356 112.407 232.412 113.514 233.958C114.067 234.72 114.506 235.345 114.801 235.777C114.975 236.002 115.129 236.243 115.261 236.496Z" fill="#263238"/>
<path d="M110.974 231.003C110.111 230.047 109.496 228.894 109.184 227.645C108.848 226.552 108.712 225.408 108.781 224.266H108.918C108.861 224.525 108.81 224.662 108.789 224.662C108.767 224.662 108.789 224.511 108.789 224.245H108.932C109.003 225.36 109.194 226.464 109.5 227.538C109.91 228.726 110.402 229.884 110.974 231.003Z" fill="#263238"/>
<path d="M105.454 224.058C105.07 223.764 104.649 223.523 104.203 223.339C103.077 223.004 101.895 222.908 100.73 223.059C99.549 223.148 98.3777 223.338 97.2289 223.627C96.7573 223.772 96.277 223.887 95.791 223.972C96.2187 223.711 96.6844 223.52 97.1714 223.404C98.3201 223.052 99.5038 222.828 100.701 222.735C101.913 222.578 103.146 222.711 104.296 223.123C104.778 223.292 105.188 223.622 105.454 224.058Z" fill="#263238"/>
<path d="M104.145 222.368C104.145 222.419 103.426 222.081 102.226 221.649C99.119 220.589 95.7925 220.342 92.5631 220.93C91.3265 221.153 90.5788 221.383 90.5645 221.326C90.7231 221.229 90.8951 221.157 91.0749 221.11C91.5451 220.945 92.0254 220.811 92.5128 220.708C94.1353 220.348 95.8023 220.232 97.4591 220.363C99.1161 220.487 100.746 220.853 102.298 221.448C102.767 221.63 103.226 221.839 103.671 222.074C103.841 222.15 104.001 222.249 104.145 222.368Z" fill="#263238"/>
<path d="M115.216 215.251C114.648 213.662 114.18 212.039 113.814 210.391C113.35 208.771 112.987 207.124 112.729 205.459C113.769 208.666 114.6 211.937 115.216 215.251Z" fill="#263238"/>
<path d="M115.305 215.251C114.86 214.243 114.341 213.27 113.752 212.339C113.099 211.458 112.333 210.668 111.473 209.988C111.799 210.066 112.103 210.222 112.357 210.441C113.003 210.917 113.564 211.498 114.018 212.159C114.713 213.058 115.157 214.125 115.305 215.251Z" fill="#263238"/>
<path d="M115.24 279.251C115.24 279.251 115.139 278.712 114.887 277.763C114.515 276.431 114.015 275.138 113.392 273.902C111.246 269.859 108.588 266.109 105.484 262.744C103.715 260.724 102.004 258.819 100.545 256.993C99.2395 255.386 98.0593 253.682 97.0145 251.895C96.3124 250.691 95.7159 249.428 95.2315 248.121C95.0662 247.654 94.9511 247.287 94.8792 247.035C94.8365 246.912 94.8076 246.784 94.793 246.654C94.793 246.654 94.9799 247.165 95.3466 248.092C95.8776 249.372 96.4999 250.612 97.2086 251.802C98.2873 253.562 99.4885 255.243 100.803 256.835C102.241 258.639 103.988 260.53 105.757 262.586C108.893 265.965 111.553 269.755 113.665 273.852C114.285 275.107 114.767 276.426 115.103 277.784C115.188 278.155 115.253 278.529 115.297 278.906C115.288 279.022 115.269 279.138 115.24 279.251Z" fill="#263238"/>
<path d="M132.866 259.336C132.571 259.529 132.264 259.702 131.946 259.854C131.111 260.323 130.31 260.851 129.552 261.436C128.429 262.311 127.376 263.272 126.403 264.311C125.296 265.476 124.16 266.828 122.995 268.28C120.673 271.199 118.502 273.773 117.2 275.836C116.539 276.857 116.057 277.72 115.762 278.324C115.468 278.928 115.273 279.258 115.252 279.251C115.23 279.244 115.252 279.158 115.338 278.985C115.424 278.813 115.496 278.575 115.647 278.266C116.051 277.387 116.51 276.535 117.021 275.714C118.793 273.063 120.713 270.514 122.772 268.079C123.937 266.641 125.087 265.268 126.216 264.103C127.208 263.054 128.288 262.092 129.444 261.227C130.221 260.649 131.049 260.141 131.917 259.71C132.219 259.559 132.471 259.466 132.636 259.394C132.801 259.322 132.866 259.322 132.866 259.336Z" fill="#263238"/>
<path d="M133.212 265.793C132.571 265.942 131.92 266.038 131.263 266.08C129.692 266.237 128.14 266.543 126.626 266.993C125.132 267.473 123.729 268.203 122.478 269.15C121.522 269.869 121.076 270.495 121.04 270.459C121.004 270.423 121.112 270.286 121.328 270.013C121.63 269.632 121.969 269.283 122.341 268.97C123.579 267.938 125.005 267.154 126.54 266.663C128.073 266.207 129.653 265.927 131.249 265.829C131.901 265.762 132.558 265.75 133.212 265.793Z" fill="#263238"/>
<path d="M121.604 269.776C121.503 269.718 122.38 268.374 123.042 266.562C123.703 264.75 123.832 263.14 123.947 263.154C124.009 263.501 124.009 263.857 123.947 264.204C123.851 265.045 123.658 265.873 123.372 266.67C123.08 267.464 122.701 268.223 122.244 268.934C122.077 269.247 121.861 269.531 121.604 269.776Z" fill="#263238"/>
<path d="M138.582 241.974C138.48 242.037 138.375 242.092 138.265 242.139L137.352 242.556C136.95 242.729 136.461 242.944 135.914 243.239C135.368 243.534 134.721 243.814 134.052 244.217L132.988 244.821C132.614 245.037 132.269 245.288 131.86 245.54C131.076 246.014 130.285 246.604 129.451 247.201C125.851 249.879 122.712 253.126 120.155 256.813C119.587 257.676 119.026 258.481 118.581 259.286C118.351 259.681 118.106 260.055 117.905 260.429C117.704 260.803 117.524 261.148 117.337 261.515C116.963 262.234 116.69 262.852 116.424 263.42C116.158 263.988 115.949 264.47 115.791 264.858C115.633 265.246 115.511 265.541 115.403 265.792C115.363 265.903 115.313 266.009 115.252 266.109C115.266 265.99 115.298 265.873 115.345 265.764L115.676 264.815C115.843 264.308 116.037 263.811 116.258 263.326C116.51 262.751 116.769 262.09 117.136 261.393L117.689 260.293C117.883 259.911 118.121 259.53 118.343 259.128C118.789 258.315 119.343 257.496 119.911 256.626C122.456 252.892 125.616 249.618 129.257 246.942C130.105 246.345 130.903 245.763 131.701 245.288C132.097 245.051 132.471 244.799 132.844 244.569L133.93 243.98C134.606 243.592 135.26 243.311 135.828 243.038C136.296 242.803 136.776 242.591 137.266 242.405L138.208 242.046C138.327 241.998 138.454 241.974 138.582 241.974Z" fill="#263238"/>
<path d="M124.629 251.32C124.756 250.868 125.023 250.468 125.391 250.177C126.253 249.435 127.346 249.016 128.482 248.991C129.599 248.989 130.706 249.206 131.739 249.631C132.176 249.768 132.59 249.969 132.969 250.227C132.524 250.14 132.089 250.012 131.667 249.846C130.646 249.499 129.575 249.319 128.497 249.314C127.426 249.338 126.391 249.704 125.542 250.357C125.214 250.655 124.909 250.977 124.629 251.32Z" fill="#263238"/>
<path d="M122.543 253.477C122.954 252.559 123.249 251.593 123.42 250.601C123.482 249.605 123.415 248.604 123.219 247.625C123.408 247.866 123.534 248.15 123.585 248.452C123.968 249.901 123.789 251.442 123.082 252.765C122.809 253.254 122.572 253.513 122.543 253.477Z" fill="#263238"/>
<path d="M99.8184 282.45C100.3 290.984 102.867 299.662 106.821 308.44H124.025C127.8 299.748 130.194 291.085 130.618 282.45H99.8184Z" fill="#455A64"/>
<path d="M127.827 296.261C127.827 296.348 122.162 296.419 115.181 296.419C108.2 296.419 102.527 296.348 102.527 296.261C102.527 296.175 108.193 296.096 115.181 296.096C122.169 296.096 127.827 296.168 127.827 296.261Z" fill="#FAFAFA"/>
<path d="M127.448 299.353C127.448 299.439 122.135 299.511 115.586 299.511C109.036 299.511 103.73 299.439 103.73 299.353C103.73 299.266 109.036 299.187 115.586 299.187C122.135 299.187 127.448 299.259 127.448 299.353Z" fill="#FAFAFA"/>
<path d="M477.607 308.548C477.607 308.656 376.301 308.735 251.378 308.735C126.455 308.735 25.127 308.656 25.127 308.548C25.127 308.44 126.404 308.361 251.378 308.361C376.352 308.361 477.607 308.448 477.607 308.548Z" fill="#263238"/>
<path d="M205.855 289.791H187.816V308.448H205.855V289.791Z" fill="#455A64"/>
<path d="M198.377 290.302C198.377 290.302 198.176 290.41 197.816 290.611C197.31 290.901 196.829 291.233 196.378 291.603C194.914 292.859 193.695 294.375 192.783 296.075C192.216 297.053 191.763 298.023 191.346 298.907C190.97 299.691 190.486 300.417 189.908 301.064C189.504 301.509 189.015 301.869 188.47 302.121C188.275 302.22 188.067 302.29 187.852 302.33C187.852 302.33 188.074 302.258 188.441 302.071C188.955 301.798 189.413 301.433 189.793 300.992C190.821 299.907 191.504 297.937 192.668 295.96C193.588 294.243 194.833 292.721 196.335 291.481C196.796 291.116 197.289 290.793 197.809 290.517C197.994 290.434 198.183 290.362 198.377 290.302Z" fill="#263238"/>
<path d="M198.091 302.272L198.436 301.984C198.659 301.797 198.989 301.517 199.385 301.121C199.586 300.927 199.802 300.704 200.025 300.446C200.293 300.207 200.462 299.876 200.499 299.518C200.478 299.42 200.436 299.328 200.377 299.247C200.318 299.167 200.243 299.099 200.157 299.049C200.07 298.999 199.974 298.967 199.874 298.957C199.775 298.946 199.674 298.956 199.579 298.986C199.135 299.14 198.721 299.372 198.357 299.669C197.446 300.264 196.613 300.969 195.876 301.768C195.477 302.216 195.145 302.72 194.891 303.264C194.764 303.543 194.728 303.855 194.791 304.155C194.832 304.302 194.909 304.436 195.014 304.547C195.119 304.657 195.25 304.74 195.395 304.788C196.037 304.967 196.722 304.913 197.329 304.637C197.975 304.371 198.576 304.007 199.112 303.559C200.298 302.674 201.224 301.487 201.793 300.122C202.051 299.434 202.147 298.696 202.074 297.965C202.065 297.611 201.956 297.267 201.758 296.973C201.561 296.678 201.284 296.447 200.959 296.305C200.621 296.243 200.275 296.249 199.939 296.322C199.604 296.395 199.286 296.533 199.004 296.729C198.421 297.067 197.876 297.467 197.379 297.922C195.445 299.719 194.244 301.819 192.972 303.365C192.024 304.641 190.825 305.71 189.449 306.506C189.071 306.71 188.674 306.877 188.263 307.002C188.119 307.048 187.973 307.084 187.824 307.11L187.932 307.074L188.248 306.974C188.655 306.836 189.047 306.66 189.42 306.449C190.778 305.643 191.959 304.572 192.893 303.3C194.151 301.754 195.337 299.64 197.293 297.821C197.791 297.355 198.341 296.948 198.932 296.606C199.23 296.398 199.567 296.252 199.923 296.177C200.278 296.101 200.646 296.098 201.002 296.168C201.373 296.289 201.684 296.546 201.872 296.887C202.059 297.217 202.176 297.581 202.217 297.958C202.3 298.722 202.204 299.495 201.937 300.216C201.353 301.605 200.41 302.813 199.205 303.717C198.656 304.172 198.04 304.541 197.379 304.81C196.74 305.098 196.019 305.152 195.344 304.961C195.175 304.909 195.021 304.816 194.896 304.69C194.77 304.565 194.677 304.411 194.625 304.242C194.557 303.912 194.598 303.569 194.74 303.264C195 302.708 195.342 302.194 195.754 301.74C196.502 300.936 197.348 300.229 198.27 299.633C198.644 299.321 199.07 299.077 199.529 298.914C199.636 298.882 199.75 298.873 199.861 298.887C199.973 298.901 200.08 298.939 200.176 298.997C200.272 299.055 200.355 299.133 200.42 299.225C200.484 299.318 200.528 299.422 200.549 299.533C200.535 299.722 200.483 299.906 200.396 300.075C200.31 300.244 200.191 300.395 200.046 300.518C199.816 300.772 199.6 300.994 199.399 301.186C198.996 301.586 198.558 301.949 198.091 302.272Z" fill="#263238"/>
<path d="M205.74 293.019C205.74 293.019 205.675 293.263 205.574 293.738C205.434 294.378 205.333 295.027 205.273 295.679C205.179 296.499 205.114 297.491 204.956 298.555C204.471 301.934 202.679 304.988 199.967 307.06C199.261 307.62 198.479 308.078 197.645 308.419C197.645 308.419 197.695 308.376 197.803 308.318L198.277 308.066C200.74 306.674 202.687 304.523 203.827 301.934C204.899 299.626 204.949 297.282 205.165 295.643C205.238 294.989 205.356 294.34 205.517 293.702C205.573 293.469 205.648 293.241 205.74 293.019Z" fill="#263238"/>
<path d="M191.689 290.244C191.702 290.354 191.702 290.465 191.689 290.575C191.657 290.874 191.609 291.172 191.546 291.466C191.13 293.423 190.174 295.224 188.785 296.664C188.578 296.882 188.357 297.086 188.123 297.275C188.044 297.352 187.954 297.417 187.857 297.469C187.857 297.469 188.195 297.146 188.706 296.592C189.366 295.862 189.934 295.053 190.395 294.184C190.855 293.314 191.208 292.392 191.445 291.437C191.639 290.704 191.689 290.237 191.689 290.244Z" fill="#263238"/>
<path d="M205.855 266.735H187.816V284.773H205.855V266.735Z" fill="#455A64"/>
<path d="M195.565 267.49C195.551 267.646 195.517 267.801 195.465 267.95C195.362 268.364 195.227 268.771 195.062 269.165C194.522 270.476 193.753 271.681 192.79 272.723C191.826 273.762 190.688 274.624 189.426 275.268C189.044 275.462 188.65 275.63 188.247 275.772L187.801 275.908C187.935 275.829 188.077 275.764 188.225 275.714C188.505 275.606 188.901 275.419 189.375 275.175C190.611 274.512 191.728 273.65 192.682 272.623C193.632 271.594 194.403 270.413 194.961 269.129C195.135 268.74 195.286 268.341 195.414 267.935C195.454 267.783 195.504 267.634 195.565 267.49Z" fill="#263238"/>
<path d="M199.313 273.334C199.008 273.916 198.644 274.465 198.228 274.974C197.116 276.383 195.723 277.546 194.137 278.389C193.613 278.667 193.07 278.907 192.512 279.107C191.919 279.397 191.243 279.473 190.6 279.323C190.43 279.259 190.282 279.148 190.172 279.003C190.063 278.858 189.997 278.685 189.982 278.504C189.967 278.142 190.046 277.783 190.212 277.461C190.535 276.805 190.918 276.179 191.355 275.592C193.323 272.938 196.232 271.137 199.486 270.559C199.912 270.484 200.341 270.433 200.773 270.408C201.2 270.365 201.63 270.38 202.053 270.451C202.487 270.519 202.879 270.747 203.153 271.091C203.397 271.443 203.534 271.857 203.548 272.285C203.523 273.897 202.886 275.439 201.765 276.598C200.776 277.626 199.619 278.477 198.343 279.115C197.249 279.686 196.123 280.195 194.971 280.639C192.865 281.466 191.11 281.99 189.903 282.357L188.501 282.767C188.184 282.86 188.012 282.896 188.012 282.896L188.493 282.738L189.881 282.3C191.089 281.919 192.836 281.379 194.914 280.545C196.057 280.09 197.175 279.574 198.264 279C199.522 278.367 200.663 277.523 201.636 276.505C202.724 275.384 203.346 273.89 203.376 272.328C203.367 271.931 203.242 271.546 203.016 271.221C202.763 270.905 202.402 270.695 202.002 270.631C201.591 270.565 201.173 270.553 200.759 270.595C198.929 270.708 197.146 271.221 195.537 272.1C193.928 272.978 192.532 274.2 191.448 275.678C191.013 276.257 190.633 276.876 190.312 277.526C190.154 277.824 190.074 278.158 190.082 278.496C190.097 278.654 190.156 278.805 190.251 278.932C190.346 279.058 190.474 279.157 190.621 279.215C191.236 279.356 191.881 279.283 192.448 279.007C193.005 278.809 193.545 278.569 194.065 278.288C195.648 277.462 197.043 276.319 198.163 274.93C198.559 274.442 198.832 274.032 199.019 273.759C199.206 273.485 199.313 273.334 199.313 273.334Z" fill="#263238"/>
<path d="M205.712 278.424C205.712 278.424 205.712 278.467 205.633 278.539L205.389 278.834C205.078 279.198 204.75 279.546 204.404 279.877C202.128 282.084 199.323 283.671 196.258 284.485C195.799 284.614 195.334 284.717 194.863 284.794L194.482 284.852H194.346C194.346 284.852 194.389 284.852 194.475 284.809L194.856 284.722C195.18 284.658 195.654 284.535 196.237 284.37C197.738 283.931 199.186 283.324 200.55 282.558C201.915 281.784 203.184 280.852 204.332 279.783C204.77 279.373 205.115 279.028 205.346 278.784L205.612 278.503L205.712 278.424Z" fill="#263238"/>
<path d="M356.905 266.735H338.867V284.773H356.905V266.735Z" fill="#455A64"/>
<path d="M346.616 267.49C346.602 267.646 346.568 267.801 346.515 267.95C346.413 268.364 346.278 268.771 346.113 269.165C345.573 270.476 344.804 271.681 343.841 272.723C342.877 273.762 341.738 274.624 340.476 275.268C340.095 275.462 339.701 275.63 339.297 275.772L338.852 275.908C338.986 275.829 339.128 275.764 339.276 275.714C340.973 275.028 342.496 273.972 343.733 272.623C344.683 271.594 345.454 270.413 346.012 269.129C346.186 268.74 346.337 268.341 346.465 267.935C346.505 267.783 346.555 267.634 346.616 267.49Z" fill="#263238"/>
<path d="M350.363 273.334C350.058 273.916 349.694 274.465 349.278 274.974C348.166 276.383 346.773 277.546 345.187 278.389C344.664 278.668 344.121 278.908 343.562 279.107C342.969 279.397 342.293 279.473 341.65 279.323C341.48 279.259 341.332 279.148 341.222 279.003C341.113 278.858 341.047 278.685 341.032 278.504C341.017 278.142 341.096 277.783 341.262 277.461C341.585 276.805 341.968 276.179 342.405 275.592C344.373 272.938 347.282 271.137 350.536 270.559C350.962 270.484 351.391 270.434 351.823 270.408C352.249 270.365 352.68 270.38 353.103 270.451C353.537 270.519 353.929 270.747 354.203 271.091C354.447 271.443 354.584 271.857 354.598 272.285C354.573 273.897 353.936 275.439 352.815 276.598C351.826 277.626 350.669 278.477 349.393 279.115C348.299 279.686 347.173 280.195 346.021 280.639C343.915 281.466 342.16 281.99 340.988 282.357L339.587 282.767C339.27 282.86 339.098 282.896 339.098 282.896L339.579 282.738L340.967 282.3C342.175 281.919 343.922 281.379 346 280.545C347.143 280.09 348.261 279.574 349.35 279C350.613 278.36 351.759 277.509 352.736 276.483C353.823 275.361 354.442 273.868 354.469 272.306C354.46 271.91 354.335 271.525 354.109 271.199C353.857 270.882 353.495 270.672 353.095 270.61C352.684 270.543 352.266 270.531 351.852 270.574C350.022 270.686 348.239 271.2 346.63 272.078C345.021 272.957 343.625 274.178 342.541 275.657C342.106 276.236 341.726 276.854 341.405 277.504C341.247 277.803 341.168 278.137 341.175 278.475C341.191 278.633 341.249 278.783 341.344 278.91C341.439 279.037 341.567 279.135 341.715 279.194C342.329 279.335 342.974 279.261 343.541 278.985C344.098 278.789 344.639 278.549 345.158 278.266C346.741 277.441 348.136 276.298 349.256 274.909C349.652 274.42 349.925 274.01 350.112 273.737C350.299 273.464 350.363 273.334 350.363 273.334Z" fill="#263238"/>
<path d="M356.762 278.425C356.762 278.425 356.762 278.468 356.683 278.54L356.438 278.834C356.128 279.198 355.799 279.546 355.453 279.877C353.179 282.083 350.377 283.669 347.315 284.485C346.842 284.615 346.362 284.718 345.877 284.794L345.496 284.852H345.359C345.359 284.852 345.403 284.852 345.489 284.809L345.87 284.722C346.193 284.658 346.668 284.536 347.25 284.37C348.752 283.93 350.198 283.322 351.564 282.558C352.925 281.782 354.191 280.851 355.338 279.783C355.777 279.374 356.122 279.028 356.352 278.784L356.618 278.504L356.762 278.425Z" fill="#263238"/>
<path d="M356.905 289.791H338.867V308.448H356.905V289.791Z" fill="#455A64"/>
<path d="M349.427 290.302C349.427 290.302 349.226 290.41 348.866 290.611C348.36 290.901 347.879 291.233 347.428 291.603C345.966 292.861 344.747 294.376 343.833 296.075C343.273 297.053 342.813 298.023 342.396 298.907C342.02 299.691 341.536 300.417 340.958 301.064C340.566 301.507 340.089 301.866 339.556 302.121C339.361 302.22 339.153 302.29 338.938 302.33C338.938 302.33 339.16 302.258 339.527 302.071C340.043 301.799 340.504 301.433 340.886 300.992C341.914 299.907 342.59 297.937 343.726 295.96C344.645 294.243 345.891 292.721 347.392 291.481C347.853 291.116 348.347 290.793 348.866 290.517C349.049 290.434 349.236 290.362 349.427 290.302Z" fill="#263238"/>
<path d="M349.14 302.272L349.485 301.984C349.715 301.797 350.038 301.517 350.441 301.121C350.635 300.927 350.851 300.704 351.073 300.446C351.342 300.207 351.511 299.876 351.548 299.518C351.527 299.42 351.485 299.328 351.426 299.247C351.367 299.167 351.292 299.099 351.205 299.049C351.119 298.999 351.023 298.967 350.923 298.957C350.824 298.946 350.723 298.956 350.628 298.986C350.183 299.14 349.77 299.372 349.406 299.669C348.496 300.266 347.664 300.97 346.925 301.768C346.525 302.216 346.194 302.72 345.94 303.264C345.812 303.543 345.777 303.855 345.84 304.155C345.881 304.302 345.958 304.436 346.063 304.547C346.168 304.657 346.299 304.74 346.444 304.788C347.086 304.967 347.771 304.913 348.377 304.637C349.023 304.371 349.625 304.007 350.16 303.559C351.346 302.674 352.273 301.487 352.842 300.122C353.1 299.434 353.196 298.696 353.122 297.965C353.114 297.611 353.005 297.267 352.807 296.973C352.61 296.678 352.333 296.447 352.008 296.305C351.67 296.243 351.324 296.249 350.988 296.322C350.653 296.395 350.335 296.533 350.053 296.729C349.471 297.065 348.928 297.466 348.435 297.922C346.494 299.719 345.293 301.819 344.021 303.365C343.073 304.641 341.874 305.71 340.498 306.506C340.12 306.71 339.722 306.877 339.312 307.002C339.168 307.048 339.021 307.084 338.873 307.11L338.981 307.074L339.297 306.974C339.704 306.837 340.097 306.661 340.469 306.449C341.827 305.643 343.008 304.572 343.942 303.3C345.2 301.754 346.386 299.64 348.342 297.821C348.84 297.355 349.39 296.948 349.981 296.606C350.279 296.398 350.616 296.252 350.971 296.177C351.327 296.101 351.694 296.098 352.051 296.168C352.422 296.289 352.733 296.546 352.921 296.887C353.107 297.217 353.225 297.581 353.266 297.958C353.356 298.722 353.26 299.497 352.986 300.216C352.407 301.607 351.463 302.817 350.254 303.717C349.706 304.174 349.089 304.542 348.428 304.81C347.789 305.099 347.068 305.152 346.393 304.961C346.224 304.909 346.07 304.816 345.944 304.69C345.819 304.565 345.726 304.411 345.674 304.242C345.606 303.912 345.646 303.569 345.789 303.264C346.049 302.708 346.391 302.194 346.803 301.74C347.551 300.936 348.397 300.229 349.319 299.633C349.693 299.321 350.119 299.077 350.577 298.914C350.685 298.882 350.798 298.873 350.91 298.887C351.021 298.901 351.129 298.939 351.225 298.997C351.321 299.055 351.404 299.133 351.468 299.225C351.533 299.318 351.577 299.422 351.598 299.533C351.584 299.722 351.532 299.906 351.445 300.075C351.359 300.244 351.24 300.395 351.095 300.518C350.872 300.769 350.649 300.992 350.448 301.186C350.045 301.586 349.607 301.949 349.14 302.272Z" fill="#263238"/>
<path d="M356.789 293.019C356.789 293.019 356.724 293.263 356.623 293.738C356.487 294.379 356.386 295.027 356.321 295.679C356.228 296.499 356.163 297.491 356.005 298.555C355.838 299.743 355.507 300.902 355.02 301.999C354.124 303.983 352.747 305.712 351.016 307.031C350.311 307.593 349.529 308.051 348.693 308.39C348.74 308.348 348.794 308.314 348.852 308.289L349.326 308.038C351.79 306.644 353.738 304.494 354.883 301.905C355.947 299.597 355.998 297.254 356.214 295.614C356.287 294.96 356.404 294.312 356.566 293.673C356.627 293.451 356.702 293.233 356.789 293.019Z" fill="#263238"/>
<path d="M342.769 290.244C342.787 290.353 342.787 290.465 342.769 290.574C342.737 290.874 342.689 291.171 342.626 291.466C342.21 293.423 341.254 295.224 339.865 296.664C339.658 296.881 339.437 297.085 339.204 297.275C339.124 297.351 339.035 297.417 338.938 297.469C338.938 297.469 339.275 297.146 339.786 296.592C340.446 295.862 341.014 295.053 341.475 294.184C341.935 293.314 342.288 292.392 342.525 291.437C342.669 290.704 342.741 290.237 342.769 290.244Z" fill="#263238"/>
<path d="M361.334 284.773H183.812V290.409H361.334V284.773Z" fill="#455A64"/>
<path d="M361.362 290.41C361.362 290.51 321.626 290.597 272.623 290.597C223.619 290.597 183.869 290.51 183.869 290.41C183.869 290.309 223.598 290.223 272.623 290.223C321.647 290.223 361.362 290.309 361.362 290.41Z" fill="#263238"/>
<path d="M361.362 284.773C361.362 284.88 321.626 284.96 272.623 284.96C223.619 284.96 183.869 284.88 183.869 284.773C183.869 284.665 223.598 284.586 272.623 284.586C321.647 284.586 361.362 284.672 361.362 284.773Z" fill="#263238"/>
<path d="M361.312 262.406H183.582V267.482H361.312V262.406Z" fill="#455A64"/>
<path d="M359.277 267.49C359.277 267.59 320.002 267.677 271.566 267.677C223.131 267.677 183.855 267.59 183.855 267.49C183.855 267.389 223.124 267.303 271.566 267.303C320.009 267.303 359.277 267.382 359.277 267.49Z" fill="#263238"/>
<path d="M312.411 257.705L298.184 246.698L307.149 233.8L321.894 246.698C321.894 246.698 321.844 252.083 319.788 254.333C317.732 256.583 312.411 257.705 312.411 257.705Z" fill="#84685E"/>
<path d="M322.707 247.194L321.65 246.223C319.766 250.989 316.345 254.989 311.93 257.59L319.838 264.297L340.148 240.673C337.747 238.868 322.707 247.194 322.707 247.194Z" fill="#8ACEB2"/>
<path d="M319.81 264.298L317.883 262.658L338.121 240.572C338.121 240.572 339.487 239.918 340.12 240.673L319.81 264.298Z" fill="#263238"/>
<path d="M322.914 246.712C323.029 246.813 322.583 247.431 322.468 248.323C322.353 249.214 322.576 249.926 322.468 249.99C322.36 250.055 321.814 249.315 321.972 248.243C322.13 247.172 322.827 246.59 322.914 246.712Z" fill="#263238"/>
<path d="M326.07 245.109C326.206 245.181 325.969 245.828 326.12 246.662C326.271 247.496 326.695 248.028 326.587 248.143C326.479 248.258 325.768 247.762 325.602 246.748C325.437 245.734 325.962 245.022 326.07 245.109Z" fill="#263238"/>
<path d="M330.248 246.288C330.183 246.417 329.464 246.08 329.09 245.246C328.716 244.412 328.925 243.65 329.09 243.678C329.255 243.707 329.284 244.34 329.601 245.023C329.917 245.706 330.334 246.13 330.248 246.288Z" fill="#263238"/>
<path d="M239.194 224.382C239.23 223.979 260.503 205.883 262.847 204.438C265.794 202.619 273.005 201.8 276.737 205.021C280.195 208.012 310.038 232.937 310.038 232.937L298.003 247.625L272.071 227.38C272.071 227.38 247.469 242.176 247.224 242.542C246.98 242.909 235.455 238.538 235.455 238.171C235.455 237.804 239.194 224.382 239.194 224.382Z" fill="#263238"/>
<path d="M216.748 151.704C216.288 148.505 216.103 145.272 216.195 142.042C216.294 138.794 217.199 135.622 218.826 132.81C219.085 132.393 221.112 129.661 221.587 129.805C221.918 129.906 220.473 132.544 220.588 132.875C221.567 136.096 221.542 139.54 220.516 142.746C219.597 145.863 218.333 148.868 216.748 151.704Z" fill="#263238"/>
<path d="M220.007 179.829C217.658 179.306 215.608 177.885 214.294 175.87C212.98 173.854 212.507 171.405 212.975 169.045L218.878 139.475C220.208 131.48 225.974 125.592 233.933 127.145L234.652 127.332C238.179 128.237 241.237 130.437 243.215 133.495C245.194 136.552 245.948 140.243 245.328 143.832C244.134 150.755 242.725 158.39 241.733 162.014C239.706 169.527 231.869 168.765 231.869 168.765C231.869 168.765 231.474 170.519 231.006 172.755C230.754 173.947 230.268 175.077 229.576 176.081C228.884 177.084 228 177.94 226.975 178.599C225.95 179.258 224.805 179.708 223.605 179.921C222.405 180.135 221.175 180.108 219.985 179.843L220.007 179.829Z" fill="#84685E"/>
<path d="M231.876 168.836C228.399 167.935 225.253 166.056 222.811 163.423C222.811 163.423 223.795 169.512 231.488 170.763L231.876 168.836Z" fill="#664D42"/>
<path d="M229.394 155.371C229.602 155.229 229.839 155.136 230.088 155.099C230.337 155.062 230.591 155.081 230.831 155.155C231.071 155.229 231.292 155.357 231.476 155.528C231.661 155.699 231.804 155.909 231.896 156.144C231.988 156.378 232.026 156.63 232.007 156.88C231.988 157.131 231.913 157.375 231.788 157.592C231.662 157.81 231.489 157.997 231.281 158.139C231.073 158.281 230.836 158.374 230.588 158.412C230.129 158.472 229.664 158.379 229.265 158.146C228.955 157.989 228.703 157.737 228.546 157.427C228.452 157.191 228.421 156.934 228.455 156.682C228.489 156.431 228.587 156.192 228.74 155.989C228.971 155.643 229.295 155.369 229.675 155.198" fill="#664D42"/>
<path d="M241.782 149.741C241.714 150.023 241.538 150.266 241.292 150.42C241.046 150.573 240.749 150.624 240.466 150.561C240.327 150.536 240.194 150.483 240.075 150.406C239.956 150.329 239.854 150.229 239.774 150.112C239.694 149.994 239.639 149.863 239.611 149.724C239.583 149.585 239.583 149.442 239.611 149.303C239.679 149.023 239.854 148.78 240.099 148.627C240.343 148.474 240.638 148.422 240.919 148.483C241.06 148.507 241.193 148.559 241.313 148.636C241.433 148.713 241.536 148.813 241.616 148.93C241.697 149.047 241.753 149.179 241.781 149.319C241.81 149.458 241.81 149.602 241.782 149.741Z" fill="#263238"/>
<path d="M242.796 147.117C242.63 147.218 241.969 146.398 240.811 146.118C239.654 145.837 238.655 146.183 238.568 146.01C238.482 145.837 238.719 145.708 239.158 145.535C239.748 145.319 240.391 145.289 240.998 145.449C241.603 145.598 242.143 145.938 242.537 146.42C242.824 146.786 242.882 147.074 242.796 147.117Z" fill="#263238"/>
<path d="M231.301 147.34C231.233 147.621 231.056 147.865 230.811 148.018C230.565 148.171 230.268 148.222 229.985 148.159C229.846 148.136 229.712 148.085 229.593 148.009C229.473 147.933 229.371 147.833 229.291 147.716C229.211 147.6 229.155 147.468 229.128 147.329C229.1 147.19 229.101 147.047 229.13 146.908C229.198 146.627 229.374 146.383 229.62 146.23C229.866 146.077 230.163 146.026 230.445 146.089C230.585 146.113 230.718 146.165 230.837 146.241C230.955 146.317 231.058 146.417 231.137 146.534C231.217 146.65 231.273 146.782 231.301 146.92C231.329 147.059 231.329 147.201 231.301 147.34Z" fill="#263238"/>
<path d="M231.592 144.536C231.419 144.637 230.758 143.817 229.6 143.537C228.443 143.256 227.444 143.601 227.357 143.429C227.271 143.256 227.508 143.127 227.947 142.954C228.54 142.738 229.184 142.708 229.795 142.868C230.396 143.018 230.934 143.358 231.326 143.838C231.614 144.198 231.671 144.486 231.592 144.536Z" fill="#263238"/>
<path d="M233.312 154.141C233.973 154.104 234.635 154.152 235.282 154.285C235.584 154.328 235.879 154.343 236.001 154.148C236.093 153.849 236.093 153.528 236.001 153.228C235.908 152.437 235.807 151.611 235.707 150.748C235.311 147.232 235.11 144.371 235.254 144.356C235.397 144.342 235.829 147.182 236.217 150.698C236.303 151.56 236.39 152.387 236.476 153.178C236.566 153.583 236.515 154.006 236.332 154.379C236.262 154.471 236.172 154.547 236.069 154.6C235.965 154.654 235.851 154.684 235.735 154.688C235.558 154.688 235.382 154.666 235.211 154.623C234.561 154.541 233.923 154.379 233.312 154.141Z" fill="#263238"/>
<path d="M229.703 154.062C229.89 154.105 229.574 155.356 230.422 156.528C231.271 157.7 232.644 157.901 232.579 158.081C232.514 158.261 232.22 158.247 231.652 158.117C230.913 157.939 230.262 157.506 229.811 156.895C229.378 156.305 229.19 155.571 229.286 154.846C229.394 154.314 229.617 154.034 229.703 154.062Z" fill="#263238"/>
<path d="M232.783 140.014C232.589 140.302 231.467 139.856 230.065 139.669C228.663 139.482 227.477 139.576 227.369 139.245C227.319 139.087 227.585 138.842 228.088 138.648C228.783 138.42 229.522 138.358 230.245 138.468C230.963 138.563 231.648 138.826 232.244 139.238C232.668 139.568 232.869 139.885 232.783 140.014Z" fill="#263238"/>
<path d="M243.184 143.724C242.911 143.932 242.185 143.45 241.229 143.192C240.273 142.933 239.417 142.918 239.295 142.595C239.252 142.437 239.446 142.207 239.863 142.048C240.417 141.872 241.011 141.865 241.569 142.027C242.128 142.19 242.625 142.515 242.998 142.962C243.264 143.314 243.307 143.616 243.184 143.724Z" fill="#263238"/>
<path d="M218.044 145.291C217.929 145.198 213.256 142.415 212.098 147.621C210.941 152.826 216.412 152.905 216.412 152.761C216.412 152.617 218.044 145.291 218.044 145.291Z" fill="#84685E"/>
<path d="M215.29 150.439C215.29 150.439 215.183 150.482 215.017 150.518C214.78 150.56 214.536 150.512 214.334 150.381C214.047 150.093 213.841 149.733 213.739 149.338C213.637 148.944 213.641 148.53 213.752 148.138C213.838 147.691 214.022 147.268 214.291 146.901C214.375 146.75 214.495 146.622 214.641 146.528C214.786 146.434 214.953 146.377 215.125 146.362C215.236 146.356 215.345 146.39 215.433 146.457C215.522 146.524 215.583 146.62 215.607 146.729C215.643 146.887 215.607 146.98 215.607 147.002C215.607 147.024 215.736 146.937 215.743 146.714C215.74 146.578 215.692 146.447 215.607 146.341C215.488 146.203 215.321 146.116 215.139 146.096C214.917 146.092 214.698 146.145 214.501 146.249C214.305 146.354 214.139 146.506 214.018 146.693C213.692 147.092 213.472 147.567 213.378 148.073C213.177 149.123 213.493 150.23 214.198 150.604C214.327 150.676 214.471 150.718 214.62 150.727C214.768 150.736 214.916 150.711 215.053 150.654C215.254 150.561 215.305 150.453 215.29 150.439Z" fill="#664D42"/>
<path d="M243.93 134.715C244.872 134.428 242.787 131.02 240.918 129.64C238.093 127.548 233.506 125.657 230.45 125.858C226.769 126.102 223.512 127.21 221.104 129.999C218.737 132.857 217.174 136.294 216.575 139.956C216.292 141.053 216.31 142.205 216.625 143.292C217.1 144.579 218.322 145.593 217.962 147.139C217.806 147.69 217.852 148.279 218.092 148.799C218.811 150.144 220.248 149.432 220.967 148.569C222.542 146.779 223.189 144.385 223.793 142.099C224.331 140.275 224.645 138.391 224.727 136.491C224.698 135.886 224.761 135.28 224.914 134.694C225.139 133.727 225.639 132.846 226.352 132.156C226.528 132.014 226.718 131.891 226.92 131.789C227.66 131.402 228.488 131.216 229.322 131.25C230.156 131.284 230.967 131.537 231.672 131.983C234.404 133.644 236.417 135.815 240.127 135.14C240.781 134.961 241.383 134.628 241.881 134.169C242.223 133.984 242.621 133.934 242.998 134.029C243.375 134.123 243.702 134.355 243.916 134.679L243.93 134.715Z" fill="#263238"/>
<path d="M215.988 154.608C215.988 154.608 215.988 154.738 215.866 154.874C215.759 154.956 215.638 155.015 215.508 155.047C215.378 155.079 215.243 155.084 215.111 155.061C214.724 155.019 214.362 154.85 214.083 154.58C213.725 154.247 213.511 153.788 213.486 153.3C213.468 152.817 213.62 152.344 213.917 151.963C214.161 151.663 214.489 151.442 214.859 151.33C215.485 151.15 215.88 151.33 215.866 151.366C215.851 151.402 215.477 151.366 214.967 151.618C214.644 151.755 214.372 151.988 214.185 152.285C213.999 152.582 213.908 152.928 213.924 153.278C213.946 153.625 214.078 153.955 214.3 154.221C214.523 154.488 214.824 154.676 215.161 154.759C215.36 154.824 215.574 154.824 215.772 154.759C215.901 154.673 215.952 154.594 215.988 154.608Z" fill="#263238"/>
<path d="M290.232 224.978L276.335 215.855L271.439 219.558L237.792 218.041V218.997L235.686 230.248L277.47 227.753C277.47 227.753 279.936 229.616 281.029 229.191C282.122 228.767 283.093 228.293 283.093 228.293L284.753 228.818C285.312 228.731 285.843 228.52 286.309 228.2C286.774 227.881 287.162 227.46 287.442 226.97C287.442 226.97 289.772 229.436 290.972 229.465C292.173 229.493 290.232 224.978 290.232 224.978Z" fill="#84685E"/>
<path d="M213.973 167.089C213.973 167.089 208.998 167.665 205.605 170.066C200.234 173.862 194.591 182.611 192.729 194.747C191.176 204.812 192.168 215.647 191.693 223.052C190.974 234.274 190.939 239.336 191.693 241.816C192.944 245.936 195.202 260.056 204.505 261.486C206.446 258.693 207.942 255.615 208.941 252.363C210.192 247.712 214.469 234.785 226.44 233.196C227.504 233.052 239.546 231.241 239.546 231.241C239.546 231.241 238.741 219.666 238.741 215.1C238.741 212.821 239.46 208.522 240.251 204.798C241.221 200.031 239.87 194.977 238.576 190.29C237.282 185.602 236.304 179.268 235.434 177.622C234.265 175.633 232.558 174.015 230.509 172.956L213.973 167.089Z" fill="#8ACEB2"/>
<path d="M213.975 167.089C213.975 167.089 220.165 174.343 223.321 182.726C225.55 188.636 233.386 203.971 233.386 203.971C233.386 203.971 233.07 192.842 232.38 186.982C231.373 178.456 230.906 173.193 230.906 173.193L222.889 168.844L213.975 167.089Z" fill="#84685E"/>
<path d="M223.169 233.556C222.778 233.58 222.387 233.58 221.997 233.556C220.938 233.574 219.884 233.692 218.848 233.908C217.312 234.225 215.815 234.707 214.383 235.346C212.622 236.115 210.982 237.137 209.516 238.38C206.962 240.769 204.749 243.498 202.938 246.489C202.219 247.589 201.665 248.495 201.234 249.193C201.04 249.534 200.819 249.858 200.572 250.163C200.722 249.8 200.9 249.449 201.104 249.114C201.471 248.452 202.01 247.503 202.708 246.353C204.474 243.289 206.686 240.505 209.271 238.092C210.769 236.839 212.446 235.816 214.247 235.058C215.707 234.421 217.236 233.958 218.805 233.678C219.856 233.479 220.927 233.399 221.997 233.441C222.288 233.446 222.579 233.47 222.867 233.512C222.969 233.512 223.071 233.526 223.169 233.556Z" fill="#263238"/>
<path d="M194.734 197.551C194.734 197.551 198.746 172.69 209.933 171.755C221.12 170.821 219.962 184.035 219.394 190.405C219.135 193.687 218.703 196.953 218.1 200.19L194.734 197.551Z" fill="#8ACEB2"/>
<path d="M219.007 200.189H218.576L217.296 200.074L212.385 199.607L194.836 197.874H194.635L194.692 197.68C195.677 194.661 196.31 191.267 197.129 187.723C197.949 184.178 199.013 180.426 201.177 177.054C202.822 174.359 205.315 172.288 208.266 171.166C209.686 170.668 211.206 170.525 212.695 170.749C214.143 170.957 215.463 171.692 216.404 172.812C217.26 173.868 217.966 175.037 218.504 176.285C218.771 176.882 218.974 177.506 219.108 178.147C219.215 178.779 219.302 179.39 219.381 180.001C219.67 182.255 219.829 184.524 219.855 186.795C219.865 190.082 219.709 193.367 219.388 196.638C219.273 197.788 219.187 198.68 219.122 199.319C219.122 199.607 219.064 199.837 219.043 200.038C219.038 200.114 219.026 200.188 219.007 200.261C219.007 200.261 219.007 200.175 219.007 200.01C219.007 199.844 219.007 199.607 219.05 199.291C219.093 198.658 219.158 197.766 219.237 196.631C219.388 194.308 219.654 190.951 219.582 186.803C219.54 184.539 219.367 182.281 219.064 180.037C218.985 179.441 218.892 178.815 218.784 178.204C218.654 177.587 218.456 176.987 218.194 176.414C217.666 175.202 216.974 174.067 216.138 173.042C215.249 171.984 213.999 171.292 212.63 171.101C211.199 170.89 209.738 171.031 208.374 171.511C205.506 172.615 203.085 174.638 201.486 177.262C199.365 180.562 198.309 184.294 197.475 187.809C196.641 191.325 196.037 194.74 195.001 197.781L194.865 197.565L212.292 199.456L217.224 200.01L218.54 200.168L218.877 200.211L219.007 200.189Z" fill="#263238"/>
<g opacity="0.3">
<path d="M199.843 244.951C199.433 245.39 199.136 245.923 198.981 246.504C198.912 246.795 198.939 247.101 199.058 247.376C199.177 247.65 199.382 247.879 199.642 248.028C200.397 248.366 201.209 247.719 201.799 247.108C203.841 244.872 205.609 242.398 207.644 240.148C209.457 237.947 211.789 236.232 214.431 235.159C207.385 237.294 204.459 239.249 199.843 244.951Z" fill="black"/>
</g>
<g opacity="0.3">
<path d="M238.037 219.148C238.022 218.961 237.968 218.78 237.877 218.616C237.787 218.453 237.662 218.31 237.512 218.199C237.307 218.122 237.087 218.091 236.869 218.107C236.65 218.123 236.438 218.186 236.246 218.292L220.43 224.374C217.338 225.568 213.959 226.776 210.774 225.812C207.446 224.82 205.152 221.599 204.354 218.22C203.556 214.841 203.995 211.304 204.563 207.875C205.131 204.445 206.116 198.96 206.116 198.96L196.28 197.989C195.188 208.371 194.411 220.521 196.388 229.127C197.143 232.412 198.955 234.468 201.78 236.316C204.103 237.819 208.488 236.079 211.364 234.936C218.834 231.959 225.944 228.976 231.832 225.589C233.27 224.763 237.684 221.772 238.655 220.427C239.625 219.083 238.324 220.78 238.037 219.148Z" fill="black"/>
</g>
<path d="M197.483 198.119C197.483 198.119 196.807 216.315 197.534 223.605C198.094 229.148 200.136 233.038 203.328 233.57C206.52 234.102 219.792 230.644 227.628 226.661C232.613 224.104 237.465 221.297 242.165 218.249L241.569 210.88C241.569 210.88 226.967 214.187 224.444 214.583C221.92 214.978 214.213 215.826 214.213 215.826C214.213 215.596 216.665 200.053 216.665 200.053L197.483 198.119Z" fill="#84685E"/>
<path d="M260.884 209.356C260.216 208.68 244.593 210.499 241.947 210.794L241.566 210.837L242.163 218.206H253.429L253.796 219.96C253.796 219.96 252.358 219.737 251.596 220.399C250.834 221.06 254.105 221.686 254.817 221.786C256.822 222.067 257.829 220.09 257.829 220.09C259.439 221.146 260.892 219.162 260.892 219.162C262.178 220.089 263.3 218.055 263.3 218.055C263.3 218.055 265.349 220.212 266.521 220.471C267.294 220.6 268.084 220.6 268.857 220.471C268.857 220.471 261.618 210.082 260.884 209.356Z" fill="#84685E"/>
<path d="M257.83 219.852C257.715 219.852 257.521 218.688 256.946 217.365C256.549 216.585 256.107 215.829 255.623 215.1C256.4 215.598 256.987 216.343 257.291 217.214C257.703 218.029 257.889 218.94 257.83 219.852Z" fill="#664D42"/>
<path d="M257.871 213.332C257.871 213.296 258.245 213.475 258.691 213.928C259.242 214.534 259.684 215.229 259.999 215.985C260.331 216.722 260.605 217.484 260.819 218.264C260.97 218.882 260.862 219.292 260.819 219.277C260.776 219.263 260.776 218.896 260.575 218.335C260.373 217.775 260.035 216.977 259.669 216.135C259.361 215.413 258.968 214.73 258.497 214.101C258.123 213.626 257.828 213.375 257.871 213.332Z" fill="#664D42"/>
<path d="M260.609 211.951C262.081 213.86 263.068 216.098 263.485 218.472C263.384 218.472 262.896 216.984 262.09 215.187C261.285 213.389 260.516 212.009 260.609 211.951Z" fill="#664D42"/>
<path d="M269.505 298.203L268.283 283.673H284.941L284.431 297.901C284.431 297.901 279.88 301.704 276.839 301.61C273.797 301.517 269.505 298.203 269.505 298.203Z" fill="#84685E"/>
<path d="M284.431 299.339V297.901C279.619 299.669 274.355 299.775 269.477 298.203L269.714 308.548L300.866 307.995C300.657 305.026 284.431 299.339 284.431 299.339Z" fill="#8ACEB2"/>
<path d="M269.741 308.548L269.684 306.025L299.635 306.442C299.635 306.442 301.029 307.017 300.893 307.995L269.741 308.548Z" fill="#263238"/>
<path d="M284.941 299.166C284.941 299.325 284.179 299.404 283.438 299.885C282.698 300.367 282.31 301.036 282.166 300.978C282.022 300.921 282.238 300.036 283.144 299.447C284.049 298.857 284.97 299.03 284.941 299.166Z" fill="#263238"/>
<path d="M288.225 300.461C288.268 300.611 287.614 300.877 287.104 301.532C286.593 302.186 286.464 302.869 286.313 302.862C286.162 302.855 286.047 301.999 286.694 301.201C287.341 300.403 288.225 300.317 288.225 300.461Z" fill="#263238"/>
<path d="M290.183 304.343C290.046 304.379 289.823 303.624 290.183 302.783C290.542 301.941 291.261 301.596 291.333 301.718C291.405 301.841 290.967 302.301 290.665 302.991C290.363 303.681 290.305 304.321 290.183 304.343Z" fill="#263238"/>
<path d="M274.135 303.207C274.135 303.369 274.087 303.527 273.997 303.662C273.907 303.797 273.779 303.902 273.629 303.964C273.48 304.026 273.315 304.042 273.156 304.011C272.997 303.979 272.851 303.901 272.736 303.786C272.622 303.672 272.543 303.526 272.512 303.367C272.48 303.208 272.496 303.043 272.558 302.893C272.621 302.743 272.726 302.615 272.86 302.525C272.995 302.435 273.154 302.387 273.316 302.387C273.424 302.386 273.531 302.407 273.63 302.448C273.73 302.489 273.821 302.549 273.897 302.625C273.974 302.701 274.034 302.792 274.075 302.892C274.116 302.992 274.136 303.099 274.135 303.207Z" fill="#263238"/>
<path d="M204.974 260.775C204.837 260.99 218.288 262.931 229.763 262.342C241.237 261.752 265.487 252.758 265.487 252.758C264.905 256.242 264.564 259.761 264.466 263.291C264.43 268.108 266.803 284.413 266.803 284.413H286.717V249.466C286.717 249.466 286.157 236.273 286.121 234.095C286.056 230.823 282.159 226.122 275.789 226.488C270.419 226.805 222.811 233.606 222.811 233.606C222.811 233.606 215.621 235.878 212.745 239.702C209.87 243.527 204.974 260.775 204.974 260.775Z" fill="#263238"/>
<path d="M212.242 249.164C211.657 249.326 211.046 249.37 210.444 249.293C209.837 249.337 209.227 249.251 208.654 249.042C209.242 248.881 209.855 248.839 210.459 248.919C211.064 248.879 211.67 248.962 212.242 249.164Z" fill="#455A64"/>
<path d="M219.423 248.812C218.856 249.035 218.25 249.143 217.64 249.128C217.042 249.235 216.428 249.218 215.836 249.078C216.401 248.854 217.005 248.747 217.612 248.761C218.213 248.655 218.829 248.672 219.423 248.812Z" fill="#455A64"/>
<path d="M226.547 247.862C225.998 248.128 225.402 248.282 224.793 248.315C224.203 248.466 223.589 248.496 222.988 248.402C223.535 248.128 224.132 247.971 224.743 247.941C225.333 247.795 225.946 247.768 226.547 247.862Z" fill="#455A64"/>
<path d="M233.605 246.525C232.492 247.002 231.293 247.246 230.082 247.244C231.192 246.758 232.393 246.513 233.605 246.525Z" fill="#455A64"/>
<path d="M240.631 244.98C239.529 245.481 238.334 245.748 237.123 245.763C237.648 245.456 238.23 245.261 238.834 245.188C239.413 244.998 240.024 244.927 240.631 244.98Z" fill="#455A64"/>
<path d="M247.641 243.412C247.116 243.719 246.534 243.915 245.93 243.987C245.351 244.178 244.74 244.249 244.133 244.196C244.662 243.893 245.246 243.698 245.851 243.621C246.427 243.43 247.037 243.359 247.641 243.412Z" fill="#455A64"/>
<path d="M254.686 241.974C254.152 242.264 253.566 242.445 252.961 242.506C252.377 242.684 251.763 242.74 251.156 242.672C251.692 242.38 252.281 242.199 252.889 242.14C253.47 241.962 254.082 241.906 254.686 241.974Z" fill="#455A64"/>
<path d="M261.783 240.824C261.237 241.089 260.643 241.238 260.036 241.263C259.444 241.409 258.827 241.433 258.225 241.335C258.774 241.074 259.371 240.924 259.979 240.896C260.569 240.745 261.184 240.721 261.783 240.824Z" fill="#455A64"/>
<path d="M268.951 240.385C268.368 240.509 267.772 240.56 267.176 240.536C266.575 240.629 265.963 240.607 265.371 240.471C265.938 240.239 266.549 240.133 267.161 240.162C267.767 240.069 268.387 240.146 268.951 240.385Z" fill="#455A64"/>
<path d="M273.068 245.31C272.869 244.747 272.734 244.164 272.666 243.57C272.464 242.629 272.026 241.974 272.098 241.91C272.17 241.845 272.817 242.456 273.032 243.484C273.227 244.076 273.24 244.712 273.068 245.31Z" fill="#455A64"/>
<path d="M273.351 252.492C273.147 251.919 273.059 251.31 273.092 250.702C273.006 250.102 273.043 249.49 273.2 248.905C273.505 250.079 273.556 251.304 273.351 252.499V252.492Z" fill="#455A64"/>
<path d="M273.711 259.675C273.399 258.503 273.335 257.278 273.524 256.08C273.742 256.648 273.838 257.256 273.804 257.863C273.895 258.467 273.863 259.083 273.711 259.675Z" fill="#455A64"/>
<path d="M274.099 266.85C273.789 265.678 273.723 264.454 273.905 263.255C274.119 263.825 274.216 264.431 274.192 265.038C274.287 265.642 274.256 266.259 274.099 266.85Z" fill="#455A64"/>
<path d="M274.48 274.032C274.169 272.86 274.105 271.635 274.293 270.437C274.509 271.008 274.604 271.618 274.573 272.227C274.662 272.829 274.631 273.443 274.48 274.032Z" fill="#455A64"/>
<path d="M274.803 281.214C274.596 280.641 274.505 280.033 274.537 279.424C274.456 278.821 274.495 278.208 274.652 277.62C274.86 278.192 274.948 278.802 274.911 279.41C274.996 280.012 274.959 280.626 274.803 281.214Z" fill="#455A64"/>
<path d="M272.925 235.684C272.56 236.541 272.15 237.379 271.696 238.193C270.919 239.731 269.891 241.874 268.863 244.289C267.835 246.705 267.03 248.941 266.469 250.566C266.2 251.458 265.886 252.336 265.527 253.197C265.542 252.953 265.588 252.711 265.664 252.478C265.779 252.011 265.966 251.335 266.218 250.508C266.876 248.354 267.644 246.236 268.518 244.16C269.395 242.088 270.379 240.062 271.466 238.092C271.883 237.337 272.235 236.733 272.494 236.323C272.61 236.093 272.755 235.878 272.925 235.684Z" fill="#455A64"/>
<path d="M279.116 242.082C279.116 242.14 278.181 242.513 276.708 243.268C274.797 244.258 272.992 245.441 271.323 246.798C269.663 248.17 268.153 249.712 266.815 251.4C265.787 252.694 265.226 253.556 265.176 253.556C265.254 253.326 265.366 253.108 265.506 252.909C265.841 252.342 266.206 251.792 266.599 251.263C267.896 249.511 269.403 247.925 271.085 246.539C272.771 245.157 274.62 243.988 276.593 243.06C277.188 242.776 277.797 242.524 278.419 242.305C278.638 242.195 278.873 242.119 279.116 242.082Z" fill="#455A64"/>
<path d="M237.893 220.909C237.976 220.834 238.065 220.767 238.159 220.708L238.972 220.176L242.114 218.148L253.379 218.069H253.502V218.192L253.875 219.946L253.919 220.162H253.696C252.983 220.03 252.247 220.177 251.64 220.571C251.417 220.65 251.884 220.931 252.215 221.046C252.592 221.181 252.976 221.296 253.365 221.391C254.136 221.646 254.955 221.72 255.759 221.607C256.55 221.351 257.211 220.796 257.6 220.061L257.7 219.888L257.858 219.989C258.074 220.136 258.323 220.228 258.583 220.255C258.842 220.283 259.105 220.246 259.347 220.147C259.872 219.92 260.33 219.561 260.677 219.105L260.777 218.975L260.928 219.062C261.096 219.185 261.296 219.258 261.503 219.27C261.719 219.263 261.928 219.196 262.107 219.076C262.505 218.801 262.834 218.44 263.071 218.019L263.193 217.803L263.365 217.983C263.912 218.558 264.498 219.093 265.12 219.586C265.434 219.833 265.774 220.045 266.133 220.219C266.504 220.354 266.896 220.425 267.291 220.428C267.772 220.442 268.254 220.411 268.729 220.334L268.607 220.629C266.586 217.753 264.624 214.935 262.74 212.304L261.424 210.341L261.072 209.881C260.971 209.739 260.858 209.607 260.734 209.485C260.574 209.441 260.411 209.415 260.245 209.406H259.684C258.182 209.406 256.715 209.521 255.32 209.622C249.727 210.075 245.112 210.6 241.948 210.938L238.181 211.714L237.203 211.901C237.093 211.93 236.979 211.944 236.865 211.944L237.189 211.851L238.159 211.621L241.912 210.765C245.068 210.377 249.684 209.809 255.285 209.327C256.686 209.219 258.16 209.097 259.677 209.09C259.864 209.09 260.058 209.09 260.26 209.09C260.479 209.091 260.696 209.132 260.899 209.212C261.063 209.351 261.208 209.511 261.331 209.687L261.69 210.154C262.15 210.787 262.625 211.434 263.128 212.081C265.019 214.705 266.982 217.501 269.009 220.399L269.174 220.643L268.887 220.694C268.376 220.772 267.858 220.803 267.341 220.787C266.898 220.786 266.46 220.703 266.047 220.543C265.659 220.362 265.295 220.135 264.962 219.867C264.322 219.361 263.719 218.811 263.157 218.22L263.459 218.184C263.192 218.661 262.818 219.07 262.366 219.378C262.125 219.531 261.846 219.615 261.561 219.622C261.279 219.61 261.006 219.515 260.777 219.349L261.036 219.306C260.646 219.795 260.136 220.174 259.555 220.406C259.259 220.524 258.939 220.569 258.621 220.535C258.304 220.501 258.001 220.39 257.736 220.212L257.995 220.14C257.555 220.962 256.812 221.581 255.924 221.865C255.484 221.962 255.028 221.962 254.587 221.865C254.17 221.794 253.76 221.707 253.358 221.607C252.955 221.513 252.559 221.393 252.172 221.247C251.969 221.171 251.776 221.072 251.596 220.952C251.483 220.881 251.395 220.775 251.345 220.65C251.324 220.572 251.327 220.49 251.353 220.413C251.378 220.337 251.425 220.269 251.489 220.219C251.819 219.954 252.218 219.789 252.639 219.745C253.03 219.694 253.426 219.694 253.818 219.745L253.638 219.931C253.516 219.32 253.394 218.716 253.279 218.177L253.43 218.299H242.164H242.214L239.029 220.248L238.188 220.744C238.094 220.807 237.996 220.862 237.893 220.909Z" fill="#664D42"/>
<path d="M286.717 251.594C286.683 251.47 286.666 251.341 286.667 251.213C286.667 250.918 286.631 250.551 286.602 250.106C286.559 249.099 286.502 247.719 286.437 246.051C286.372 244.383 286.307 242.276 286.236 240.026C286.185 238.897 286.192 237.689 286.099 236.474C285.99 235.216 285.771 233.97 285.445 232.75C285.281 232.134 285.072 231.531 284.819 230.946C284.565 230.394 284.215 229.893 283.784 229.465C282.957 228.64 281.981 227.979 280.908 227.516C279.943 227.085 278.908 226.829 277.853 226.762C276.924 226.707 275.992 226.707 275.063 226.762C273.352 226.855 271.972 226.999 271.016 227.078L269.916 227.157C269.787 227.173 269.656 227.173 269.527 227.157C269.65 227.112 269.778 227.085 269.908 227.078L271.001 226.927C271.95 226.805 273.331 226.625 275.049 226.488C275.986 226.412 276.927 226.388 277.867 226.416C278.963 226.475 280.039 226.731 281.045 227.171C282.162 227.644 283.179 228.325 284.043 229.177C284.504 229.638 284.881 230.176 285.157 230.766C285.415 231.37 285.629 231.993 285.797 232.628C286.133 233.868 286.355 235.136 286.458 236.417C286.545 237.668 286.538 238.847 286.573 240.012C286.617 242.269 286.66 244.325 286.696 246.044C286.732 247.762 286.696 249.092 286.739 250.106V251.213C286.749 251.34 286.741 251.468 286.717 251.594Z" fill="#455A64"/>
<path d="M242.574 228.638L271.978 223.375L292.562 191.289L312.764 195.516L293.777 224.676L240.575 231.319C240.503 230.702 240.67 230.08 241.042 229.582C241.413 229.083 241.961 228.745 242.574 228.638Z" fill="#455A64"/>
<path d="M293.437 208.946C292.819 209.787 292.718 210.78 293.243 211.146C293.768 211.513 294.681 211.146 295.278 210.291C295.874 209.435 295.997 208.465 295.472 208.091C294.947 207.717 294.048 208.105 293.437 208.946Z" fill="white"/>
</svg>
