<svg width="324" height="240" viewBox="0 0 324 240" fill="none" xmlns="http://www.w3.org/2000/svg">
<path d="M161.699 240C251.002 240 323.397 235.773 323.397 230.559C323.397 225.346 251.002 221.119 161.699 221.119C72.3949 221.119 0 225.346 0 230.559C0 235.773 72.3949 240 161.699 240Z" fill="#F5F5F5"/>
<path d="M107.057 222.253L106.89 224.171C106.873 224.407 106.898 224.645 106.965 224.872C106.996 224.977 107.041 225.078 107.099 225.172C107.16 225.265 107.227 225.354 107.299 225.439C107.372 225.524 107.456 225.6 107.549 225.664C107.832 225.865 108.17 225.973 108.516 225.973H177.236C177.4 225.973 177.563 225.947 177.719 225.898C177.828 225.865 177.934 225.823 178.036 225.772C178.399 225.595 178.693 225.301 178.87 224.938C178.976 224.736 179.041 224.515 179.062 224.288L179.22 222.445C179.247 222.225 179.221 222.002 179.145 221.794C179.114 221.698 179.072 221.606 179.02 221.519C178.891 221.301 178.707 221.12 178.487 220.994C178.393 220.943 178.295 220.898 178.195 220.86C178.041 220.811 177.881 220.785 177.719 220.785H160.606C160.391 220.788 160.176 220.768 159.964 220.727L159.722 220.66C159.631 220.634 159.541 220.601 159.455 220.56C159.372 220.534 159.293 220.494 159.222 220.443C159.102 220.381 158.988 220.308 158.88 220.227C158.75 220.124 158.63 220.009 158.521 219.885C158.463 219.81 158.405 219.743 158.346 219.659L158.229 219.493L158.188 219.426C158.138 219.35 158.096 219.269 158.063 219.184L157.963 218.959C157.966 218.942 157.966 218.925 157.963 218.909C157.967 218.89 157.967 218.87 157.963 218.851C157.938 218.786 157.921 218.719 157.913 218.65C157.904 218.556 157.904 218.461 157.913 218.367C157.913 218.283 157.913 218.192 157.913 218.1C157.913 218.008 157.913 217.925 157.913 217.833V217.725C157.908 217.636 157.908 217.547 157.913 217.458C157.913 217.358 157.954 217.274 157.971 217.183L164.693 191.396L165.985 186.442L166.994 182.564H127.965L125.871 186.442L123.203 191.396L108.024 219.534C107.974 219.634 107.924 219.735 107.866 219.835L107.716 220.177C107.674 220.293 107.624 220.402 107.582 220.527L107.507 220.76C107.303 221.24 107.152 221.74 107.057 222.253Z" fill="#263238"/>
<path opacity="0.2" d="M179.195 222.462L179.037 224.321C178.994 224.772 178.786 225.191 178.454 225.499C178.122 225.807 177.688 225.981 177.235 225.989H108.533C108.302 225.99 108.074 225.943 107.862 225.851C107.65 225.759 107.46 225.624 107.303 225.455C107.147 225.285 107.027 225.085 106.951 224.867C106.876 224.649 106.846 224.418 106.865 224.188L107.032 222.27C107.075 221.757 107.176 221.251 107.332 220.76C107.473 220.331 107.652 219.916 107.865 219.518L127.814 182.548H166.844L157.82 217.166C157.761 217.364 157.724 217.568 157.712 217.775C157.655 218.458 157.85 219.139 158.26 219.689C158.67 220.239 159.267 220.62 159.939 220.76C160.149 220.809 160.365 220.831 160.581 220.827H177.669C177.88 220.821 178.09 220.861 178.285 220.942C178.48 221.024 178.656 221.146 178.8 221.301C178.944 221.455 179.054 221.638 179.122 221.839C179.19 222.039 179.215 222.251 179.195 222.462Z" fill="white"/>
<path d="M105.671 219.501L125.611 182.523H127.821L107.873 219.501C107.41 220.352 107.127 221.289 107.039 222.253L106.872 224.171C106.847 224.402 106.871 224.636 106.945 224.857C107.018 225.077 107.137 225.279 107.296 225.449C107.454 225.62 107.647 225.754 107.862 225.842C108.076 225.931 108.308 225.973 108.54 225.964H106.33C106.098 225.973 105.866 225.931 105.652 225.842C105.437 225.754 105.244 225.62 105.086 225.449C104.927 225.279 104.808 225.077 104.735 224.857C104.661 224.636 104.637 224.402 104.662 224.171L104.829 222.253C104.916 221.287 105.202 220.35 105.671 219.501Z" fill="#263238"/>
<path opacity="0.3" d="M127.839 182.523H166.86L164.558 191.363H123.068L127.839 182.523Z" fill="black"/>
<path d="M61.6211 60.0042V180.321C61.62 181.12 61.7765 181.912 62.0815 182.65C62.3865 183.389 62.8342 184.06 63.3988 184.625C63.9635 185.191 64.6341 185.639 65.3722 185.946C66.1104 186.252 66.9017 186.409 67.7007 186.409H234.22C235.019 186.409 235.81 186.252 236.548 185.946C237.286 185.639 237.957 185.191 238.522 184.625C239.086 184.06 239.534 183.389 239.839 182.65C240.144 181.912 240.3 181.12 240.299 180.321V60.0042C240.3 59.2044 240.144 58.4122 239.838 57.6731C239.533 56.934 239.084 56.2624 238.519 55.6969C237.953 55.1313 237.281 54.6829 236.542 54.3774C235.803 54.0718 235.011 53.9151 234.211 53.9162H67.7174C66.3782 53.9173 65.0768 54.3599 64.0146 55.1755C63.8654 55.2859 63.7233 55.4057 63.5893 55.5341C63.179 55.9062 62.825 56.3361 62.5385 56.8101C62.3372 57.1223 62.1694 57.455 62.0381 57.8025C61.767 58.5051 61.6257 59.2511 61.6211 60.0042Z" fill="#263238"/>
<path d="M240.301 167.311V180.321C240.301 181.936 239.659 183.484 238.518 184.626C237.376 185.768 235.827 186.409 234.213 186.409H67.7188C66.1042 186.409 64.5557 185.768 63.414 184.626C62.2723 183.484 61.6309 181.936 61.6309 180.321V167.311H240.301Z" fill="#223A74"/>
<path opacity="0.6" d="M240.301 167.311V180.321C240.301 181.936 239.659 183.484 238.518 184.626C237.376 185.768 235.827 186.409 234.213 186.409H67.7188C66.1042 186.409 64.5557 185.768 63.414 184.626C62.2723 183.484 61.6309 181.936 61.6309 180.321V167.311H240.301Z" fill="white"/>
<path d="M67.8261 163.633H234.103C234.988 163.633 235.836 163.282 236.462 162.656C237.088 162.031 237.439 161.182 237.439 160.297V60.9382C237.439 60.0535 237.088 59.205 236.462 58.5794C235.836 57.9538 234.988 57.6023 234.103 57.6023H67.8261C66.9414 57.6023 66.0929 57.9538 65.4673 58.5794C64.8417 59.205 64.4902 60.0535 64.4902 60.9382V160.331C64.499 161.21 64.8544 162.05 65.479 162.668C66.1037 163.286 66.9471 163.633 67.8261 163.633Z" fill="#223A74"/>
<path d="M64.0314 53.9162H67.7175C66.1029 53.9162 64.5544 54.5576 63.4126 55.6993C62.2709 56.841 61.6295 58.3896 61.6295 60.0042V180.321C61.6295 181.936 62.2709 183.484 63.4126 184.626C64.5544 185.768 66.1029 186.409 67.7175 186.409H64.0314C62.4167 186.409 60.8682 185.768 59.7265 184.626C58.5848 183.484 57.9434 181.936 57.9434 180.321V60.0042C57.9434 58.3896 58.5848 56.841 59.7265 55.6993C60.8682 54.5576 62.4167 53.9162 64.0314 53.9162Z" fill="#263238"/>
<g opacity="0.2">
<path d="M64.0314 53.9162H67.7175C66.1029 53.9162 64.5544 54.5576 63.4126 55.6993C62.2709 56.841 61.6295 58.3896 61.6295 60.0042V180.321C61.6295 181.936 62.2709 183.484 63.4126 184.626C64.5544 185.768 66.1029 186.409 67.7175 186.409H64.0314C62.4167 186.409 60.8682 185.768 59.7265 184.626C58.5848 183.484 57.9434 181.936 57.9434 180.321V60.0042C57.9434 58.3896 58.5848 56.841 59.7265 55.6993C60.8682 54.5576 62.4167 53.9162 64.0314 53.9162Z" fill="white"/>
</g>
<path opacity="0.5" d="M238.424 120.917C234.138 120.083 227.349 122.861 226.081 127.03C226.224 125.757 225.997 124.47 225.428 123.322C224.858 122.175 223.971 121.215 222.871 120.559C220.661 119.283 217.767 118.382 215.732 119.917C216.697 115.818 216.501 111.532 215.166 107.539C213.832 103.545 211.411 100.003 208.176 97.3077C201.654 92.0286 192.139 91.4699 184.608 95.1477C185.696 93.0565 186.314 90.7525 186.417 88.3974C186.52 86.0422 186.107 83.693 185.205 81.5147C184.304 79.3364 182.937 77.3817 181.2 75.7878C179.463 74.194 177.399 72.9996 175.151 72.2886C164.676 68.6405 153.475 67.579 142.501 69.1945C136.154 70.1286 129.683 72.1134 125.071 76.5668C120.459 81.0202 119.233 89.0764 122.336 94.689C118.756 93.5327 114.928 93.3792 111.267 94.2452C107.606 95.1111 104.252 96.9635 101.57 99.6011C98.9835 102.302 97.1925 105.665 96.3935 109.318C95.5946 112.971 95.8187 116.774 97.0412 120.309C96.0574 119.724 94.9431 119.396 93.7997 119.352C92.6563 119.308 91.5202 119.551 90.4946 120.058C89.4844 120.571 88.6213 121.332 87.9866 122.27C87.352 123.208 86.9666 124.293 86.8668 125.421C85.5333 123.661 83.7966 122.247 81.8027 121.298C79.8088 120.349 77.6162 119.893 75.4093 119.968C73.2025 120.043 71.046 120.648 69.1213 121.73C67.1967 122.812 65.5602 124.341 64.3496 126.188V163.633H237.44L238.424 120.917Z" fill="white"/>
<path d="M199.853 104.48H110.685C106.149 104.48 102.471 108.158 102.471 112.694C102.471 117.231 106.149 120.909 110.685 120.909H199.853C204.39 120.909 208.068 117.231 208.068 112.694C208.068 108.158 204.39 104.48 199.853 104.48Z" fill="white"/>
<path d="M110.176 115.839C109.216 115.839 108.278 115.554 107.479 115.021C106.681 114.487 106.059 113.729 105.692 112.842C105.324 111.955 105.228 110.979 105.416 110.038C105.603 109.096 106.065 108.232 106.744 107.553C107.423 106.874 108.288 106.412 109.229 106.224C110.171 106.037 111.147 106.133 112.033 106.501C112.92 106.868 113.678 107.49 114.212 108.288C114.745 109.086 115.03 110.025 115.03 110.985C115.027 112.271 114.515 113.505 113.606 114.414C112.696 115.324 111.463 115.836 110.176 115.839ZM110.176 108.633C109.711 108.633 109.256 108.771 108.869 109.029C108.483 109.288 108.181 109.655 108.003 110.085C107.825 110.515 107.779 110.987 107.869 111.444C107.96 111.9 108.184 112.319 108.513 112.648C108.842 112.977 109.261 113.201 109.717 113.291C110.173 113.382 110.646 113.336 111.076 113.158C111.506 112.98 111.873 112.678 112.131 112.291C112.39 111.905 112.528 111.45 112.528 110.985C112.526 110.362 112.277 109.765 111.837 109.324C111.396 108.884 110.799 108.635 110.176 108.633Z" fill="#263238"/>
<path d="M113.534 112.71L111.764 114.477L117.509 120.231L119.28 118.463L113.534 112.71Z" fill="#263238"/>
<g opacity="0.1">
<path d="M181.121 57.594H187.509L200.778 163.633H194.381L181.121 57.594Z" fill="white"/>
<path d="M207.241 163.633L193.98 57.594H218.007L231.267 163.633H207.241Z" fill="white"/>
</g>
<path opacity="0.2" d="M118.908 222.478L118.758 224.238C118.733 224.458 118.755 224.682 118.824 224.893C118.892 225.104 119.004 225.298 119.153 225.462C119.303 225.626 119.485 225.757 119.689 225.845C119.892 225.933 120.112 225.976 120.334 225.973H177.236C177.689 225.964 178.123 225.79 178.455 225.482C178.787 225.175 178.994 224.755 179.037 224.305L179.196 222.462C179.222 222.25 179.203 222.035 179.138 221.831C179.074 221.627 178.967 221.44 178.823 221.282C178.68 221.123 178.504 220.998 178.308 220.914C178.112 220.829 177.9 220.788 177.686 220.794H160.598C160.385 220.794 160.172 220.769 159.964 220.719H120.768C120.297 220.735 119.848 220.923 119.505 221.247C119.163 221.571 118.95 222.009 118.908 222.478Z" fill="white"/>
<path opacity="0.2" d="M107.34 220.744H159.963C159.291 220.607 158.692 220.226 158.283 219.675C157.873 219.124 157.682 218.442 157.745 217.758H109.008L107.34 220.744Z" fill="black"/>
<path d="M134.252 94.6223L135.403 92.062C136.828 93.0473 138.516 93.5819 140.248 93.5965C142.258 93.5965 143.075 92.921 143.075 92.0203C143.075 89.2766 134.544 91.1863 134.544 85.7155C134.544 83.2136 136.554 81.1453 140.724 81.1453C142.509 81.1083 144.27 81.558 145.819 82.4463L144.768 85.0233C143.535 84.2928 142.132 83.8962 140.699 83.8724C138.689 83.8724 137.913 84.623 137.913 85.5404C137.913 88.2424 146.445 86.3743 146.445 91.7618C146.445 94.2137 144.41 96.3153 140.215 96.3153C138.102 96.3681 136.022 95.7777 134.252 94.6223Z" fill="#263238"/>
<path d="M160.138 93.3463V96.065H148.779V81.3955H159.879V84.1226H152.165V87.3084H158.979V89.952H152.165V93.3463H160.138Z" fill="#263238"/>
<path d="M161.883 88.7345C161.883 84.3728 165.277 81.1453 169.906 81.1453C174.534 81.1453 177.937 84.3561 177.937 88.7345C177.937 93.1128 174.517 96.3236 169.906 96.3236C165.294 96.3236 161.883 93.0961 161.883 88.7345ZM174.501 88.7345C174.475 87.8325 174.183 86.9582 173.664 86.2206C173.144 85.483 172.418 84.9149 171.577 84.5869C170.737 84.259 169.818 84.1858 168.936 84.3766C168.054 84.5673 167.248 85.0135 166.618 85.6595C165.988 86.3055 165.562 87.1227 165.393 88.0092C165.225 88.8956 165.321 89.8121 165.67 90.6443C166.018 91.4766 166.605 92.1876 167.355 92.6889C168.105 93.1902 168.987 93.4594 169.889 93.4631C170.51 93.4826 171.128 93.3727 171.704 93.1404C172.28 92.9081 172.802 92.5585 173.236 92.1137C173.669 91.669 174.006 91.1389 174.224 90.5572C174.441 89.9754 174.536 89.3547 174.501 88.7345Z" fill="#263238"/>
<path opacity="0.8" d="M150.891 131.692H115.697C113.924 131.692 112.486 133.13 112.486 134.903V142.342C112.486 144.115 113.924 145.553 115.697 145.553H150.891C152.664 145.553 154.101 144.115 154.101 142.342V134.903C154.101 133.13 152.664 131.692 150.891 131.692Z" fill="white"/>
<path opacity="0.8" d="M201.928 131.692H166.734C164.961 131.692 163.523 133.13 163.523 134.903V142.342C163.523 144.115 164.961 145.553 166.734 145.553H201.928C203.701 145.553 205.139 144.115 205.139 142.342V134.903C205.139 133.13 203.701 131.692 201.928 131.692Z" fill="white"/>
<path d="M132.292 62.3226L152.966 25.6279C153.039 25.4996 153.144 25.3928 153.272 25.3185C153.399 25.2443 153.544 25.2051 153.691 25.2051C153.839 25.2051 153.984 25.2443 154.111 25.3185C154.239 25.3928 154.344 25.4996 154.417 25.6279L175.091 62.3226C175.16 62.4492 175.196 62.5915 175.193 62.7358C175.191 62.88 175.152 63.0212 175.079 63.1456C175.005 63.2699 174.901 63.3732 174.776 63.4453C174.651 63.5174 174.51 63.5559 174.366 63.5569H133.026C132.881 63.5573 132.738 63.5199 132.612 63.4484C132.486 63.3769 132.381 63.2738 132.307 63.1492C132.233 63.0245 132.192 62.8828 132.19 62.7379C132.187 62.5929 132.222 62.4498 132.292 62.3226Z" fill="#223A74"/>
<path opacity="0.3" d="M132.292 62.3226L152.966 25.6279C153.039 25.4996 153.144 25.3928 153.272 25.3185C153.399 25.2443 153.544 25.2051 153.691 25.2051C153.839 25.2051 153.984 25.2443 154.111 25.3185C154.239 25.3928 154.344 25.4996 154.417 25.6279L175.091 62.3226C175.16 62.4492 175.196 62.5915 175.193 62.7358C175.191 62.88 175.152 63.0212 175.079 63.1456C175.005 63.2699 174.901 63.3732 174.776 63.4453C174.651 63.5174 174.51 63.5559 174.366 63.5569H133.026C132.881 63.5573 132.738 63.5199 132.612 63.4484C132.486 63.3769 132.381 63.2738 132.307 63.1492C132.233 63.0245 132.192 62.8828 132.19 62.7379C132.187 62.5929 132.222 62.4498 132.292 62.3226Z" fill="black"/>
<path d="M143.868 69.0527L142.858 64.9329H139.239L138.238 69.0527C140.04 69.7992 142.065 69.7992 143.868 69.0527Z" fill="#263238"/>
<path opacity="0.2" d="M139.239 64.9329L139.006 65.892C140.34 66.284 141.758 66.284 143.092 65.892L142.859 64.9329H139.239Z" fill="white"/>
<path opacity="0.4" d="M138.756 66.9261C138.69 67.193 138.623 67.4515 138.564 67.7017C140.193 68.2139 141.94 68.2139 143.568 67.7017L143.385 66.9261C141.857 67.235 140.284 67.235 138.756 66.9261Z" fill="white"/>
<path d="M144.87 64.641C142.423 65.6511 139.677 65.6511 137.23 64.641V34.0343C137.228 32.3211 137.564 30.6242 138.22 29.0412C138.875 27.4583 139.837 26.0206 141.05 24.8106C142.263 26.0206 143.225 27.4583 143.88 29.0412C144.536 30.6242 144.872 32.3211 144.87 34.0343V64.641Z" fill="#223A74"/>
<path d="M137.23 34.0343V62.8814C139.704 63.7445 142.396 63.7445 144.87 62.8814V34.0343C144.872 32.3211 144.536 30.6242 143.88 29.0412C143.225 27.4583 142.263 26.0206 141.05 24.8106C139.837 26.0206 138.875 27.4583 138.22 29.0412C137.564 30.6242 137.228 32.3211 137.23 34.0343Z" fill="#223A74"/>
<path opacity="0.4" d="M137.23 34.0343V62.8814C139.704 63.7445 142.396 63.7445 144.87 62.8814V34.0343C144.872 32.3211 144.536 30.6242 143.88 29.0412C143.225 27.4583 142.263 26.0206 141.05 24.8106C139.837 26.0206 138.875 27.4583 138.22 29.0412C137.564 30.6242 137.228 32.3211 137.23 34.0343Z" fill="white"/>
<path d="M137.23 34.0343V55.7176C139.727 56.4309 142.373 56.4309 144.87 55.7176V34.0343C144.872 32.3211 144.536 30.6242 143.88 29.0412C143.225 27.4583 142.263 26.0206 141.05 24.8106C139.837 26.0206 138.875 27.4583 138.22 29.0412C137.564 30.6242 137.228 32.3211 137.23 34.0343Z" fill="#223A74"/>
<path opacity="0.6" d="M137.23 34.0343V55.7176C139.727 56.4309 142.373 56.4309 144.87 55.7176V34.0343C144.872 32.3211 144.536 30.6242 143.88 29.0412C143.225 27.4583 142.263 26.0206 141.05 24.8106C139.837 26.0206 138.875 27.4583 138.22 29.0412C137.564 30.6242 137.228 32.3211 137.23 34.0343Z" fill="white"/>
<path d="M137.23 34.0343V45.3763C139.726 46.0937 142.374 46.0937 144.87 45.3763V34.0343C144.872 32.3211 144.536 30.6242 143.88 29.0412C143.225 27.4583 142.263 26.0206 141.05 24.8106C139.837 26.0206 138.875 27.4583 138.22 29.0412C137.564 30.6242 137.228 32.3211 137.23 34.0343Z" fill="#223A74"/>
<path opacity="0.8" d="M137.23 34.0343V45.3763C139.726 46.0937 142.374 46.0937 144.87 45.3763V34.0343C144.872 32.3211 144.536 30.6242 143.88 29.0412C143.225 27.4583 142.263 26.0206 141.05 24.8106C139.837 26.0206 138.875 27.4583 138.22 29.0412C137.564 30.6242 137.228 32.3211 137.23 34.0343Z" fill="white"/>
<path d="M137.23 34.0343V35.3603C139.727 36.0737 142.373 36.0737 144.87 35.3603V34.0343C144.872 32.3211 144.536 30.6242 143.88 29.0412C143.225 27.4583 142.263 26.0206 141.05 24.8106C139.837 26.0206 138.875 27.4583 138.22 29.0412C137.564 30.6242 137.228 32.3211 137.23 34.0343Z" fill="#223A74"/>
<path opacity="0.4" d="M137.23 34.0343V35.3603C139.727 36.0737 142.373 36.0737 144.87 35.3603V34.0343C144.872 32.3211 144.536 30.6242 143.88 29.0412C143.225 27.4583 142.263 26.0206 141.05 24.8106C139.837 26.0206 138.875 27.4583 138.22 29.0412C137.564 30.6242 137.228 32.3211 137.23 34.0343Z" fill="white"/>
<path d="M168.446 69.0527L167.445 64.9329H163.826L162.816 69.0527C164.619 69.7992 166.644 69.7992 168.446 69.0527Z" fill="#263238"/>
<path opacity="0.2" d="M163.825 64.9329L163.592 65.892C164.926 66.284 166.344 66.284 167.678 65.892L167.445 64.9329H163.825Z" fill="white"/>
<path opacity="0.4" d="M163.334 66.9261C163.275 67.193 163.209 67.4515 163.15 67.7017C164.779 68.2139 166.526 68.2139 168.154 67.7017L167.962 66.9261C166.435 67.235 164.861 67.235 163.334 66.9261Z" fill="white"/>
<path d="M169.456 64.641C167.009 65.6511 164.263 65.6511 161.816 64.641V34.0343C161.814 32.3211 162.15 30.6242 162.806 29.0412C163.461 27.4583 164.423 26.0206 165.636 24.8106C166.849 26.0206 167.811 27.4583 168.466 29.0412C169.122 30.6242 169.458 32.3211 169.456 34.0343V64.641Z" fill="#223A74"/>
<path d="M161.816 34.0343V62.8814C164.29 63.7445 166.982 63.7445 169.456 62.8814V34.0343C169.458 32.3211 169.122 30.6242 168.466 29.0412C167.811 27.4583 166.849 26.0206 165.636 24.8106C164.423 26.0206 163.461 27.4583 162.806 29.0412C162.15 30.6242 161.814 32.3211 161.816 34.0343Z" fill="#223A74"/>
<path opacity="0.4" d="M161.816 34.0343V62.8814C164.29 63.7445 166.982 63.7445 169.456 62.8814V34.0343C169.458 32.3211 169.122 30.6242 168.466 29.0412C167.811 27.4583 166.849 26.0206 165.636 24.8106C164.423 26.0206 163.461 27.4583 162.806 29.0412C162.15 30.6242 161.814 32.3211 161.816 34.0343Z" fill="white"/>
<path d="M161.816 34.0343V55.7176C164.313 56.4309 166.959 56.4309 169.456 55.7176V34.0343C169.458 32.3211 169.122 30.6242 168.466 29.0412C167.811 27.4583 166.849 26.0206 165.636 24.8106C164.423 26.0206 163.461 27.4583 162.806 29.0412C162.15 30.6242 161.814 32.3211 161.816 34.0343Z" fill="#223A74"/>
<path opacity="0.6" d="M161.816 34.0343V55.7176C164.313 56.4309 166.959 56.4309 169.456 55.7176V34.0343C169.458 32.3211 169.122 30.6242 168.466 29.0412C167.811 27.4583 166.849 26.0206 165.636 24.8106C164.423 26.0206 163.461 27.4583 162.806 29.0412C162.15 30.6242 161.814 32.3211 161.816 34.0343Z" fill="white"/>
<path d="M161.816 34.0343V45.3763C164.312 46.0937 166.96 46.0937 169.456 45.3763V34.0343C169.458 32.3211 169.122 30.6242 168.466 29.0412C167.811 27.4583 166.849 26.0206 165.636 24.8106C164.423 26.0206 163.461 27.4583 162.806 29.0412C162.15 30.6242 161.814 32.3211 161.816 34.0343Z" fill="#223A74"/>
<path opacity="0.8" d="M161.816 34.0343V45.3763C164.312 46.0937 166.96 46.0937 169.456 45.3763V34.0343C169.458 32.3211 169.122 30.6242 168.466 29.0412C167.811 27.4583 166.849 26.0206 165.636 24.8106C164.423 26.0206 163.461 27.4583 162.806 29.0412C162.15 30.6242 161.814 32.3211 161.816 34.0343Z" fill="white"/>
<path d="M161.816 34.0343V35.3603C164.313 36.0737 166.959 36.0737 169.456 35.3603V34.0343C169.458 32.3211 169.122 30.6242 168.466 29.0412C167.811 27.4583 166.849 26.0206 165.636 24.8106C164.423 26.0206 163.461 27.4583 162.806 29.0412C162.15 30.6242 161.814 32.3211 161.816 34.0343Z" fill="#223A74"/>
<path opacity="0.4" d="M161.816 34.0343V35.3603C164.313 36.0737 166.959 36.0737 169.456 35.3603V34.0343C169.458 32.3211 169.122 30.6242 168.466 29.0412C167.811 27.4583 166.849 26.0206 165.636 24.8106C164.423 26.0206 163.461 27.4583 162.806 29.0412C162.15 30.6242 161.814 32.3211 161.816 34.0343Z" fill="white"/>
<path d="M157.888 71.4129L156.22 64.7411H150.382L148.756 71.4129C150.202 72.0196 151.754 72.332 153.322 72.332C154.89 72.332 156.442 72.0196 157.888 71.4129Z" fill="#263238"/>
<path opacity="0.2" d="M150.423 64.7661C150.423 64.7661 150.181 65.7669 150.039 66.3173C152.196 66.947 154.487 66.947 156.644 66.3173L156.26 64.7578L150.423 64.7661Z" fill="white"/>
<path opacity="0.4" d="M149.63 67.9936L149.33 69.2446C151.943 70.0538 154.74 70.0538 157.353 69.2446L157.053 67.9936C154.602 68.4769 152.081 68.4769 149.63 67.9936Z" fill="white"/>
<path d="M159.513 64.2741C157.557 65.0898 155.46 65.5098 153.341 65.5098C151.223 65.5098 149.125 65.0898 147.17 64.2741V14.8864C147.167 12.1209 147.711 9.38207 148.77 6.82738C149.829 4.27269 151.383 1.95245 153.341 0C155.3 1.95245 156.853 4.27269 157.912 6.82738C158.972 9.38207 159.515 12.1209 159.513 14.8864V64.2741Z" fill="#223A74"/>
<path d="M147.17 14.8864V61.4636C151.168 62.8483 155.515 62.8483 159.513 61.4636V14.8864C159.515 12.1209 158.972 9.38207 157.912 6.82738C156.853 4.27269 155.3 1.95245 153.341 0C151.383 1.95245 149.829 4.27269 148.77 6.82738C147.711 9.38207 147.167 12.1209 147.17 14.8864Z" fill="#223A74"/>
<path opacity="0.4" d="M147.17 14.8864V61.4636C151.168 62.8483 155.515 62.8483 159.513 61.4636V14.8864C159.515 12.1209 158.972 9.38207 157.912 6.82738C156.853 4.27269 155.3 1.95245 153.341 0C151.383 1.95245 149.829 4.27269 148.77 6.82738C147.711 9.38207 147.167 12.1209 147.17 14.8864Z" fill="white"/>
<path d="M147.17 14.8864V49.8631C151.204 51.0127 155.479 51.0127 159.513 49.8631V14.8864C159.515 12.1209 158.972 9.38207 157.912 6.82738C156.853 4.27269 155.3 1.95245 153.341 0C151.383 1.95245 149.829 4.27269 148.77 6.82738C147.711 9.38207 147.167 12.1209 147.17 14.8864Z" fill="#223A74"/>
<path opacity="0.6" d="M147.17 14.8864V49.8631C151.204 51.0127 155.479 51.0127 159.513 49.8631V14.8864C159.515 12.1209 158.972 9.38207 157.912 6.82738C156.853 4.27269 155.3 1.95245 153.341 0C151.383 1.95245 149.829 4.27269 148.77 6.82738C147.711 9.38207 147.167 12.1209 147.17 14.8864Z" fill="white"/>
<path d="M147.17 14.8864V33.2337C151.204 34.3833 155.479 34.3833 159.513 33.2337V14.8864C159.515 12.1209 158.972 9.38207 157.912 6.82738C156.853 4.27269 155.3 1.95245 153.341 0C151.383 1.95245 149.829 4.27269 148.77 6.82738C147.711 9.38207 147.167 12.1209 147.17 14.8864Z" fill="#223A74"/>
<path opacity="0.8" d="M147.17 14.8864V33.2337C151.204 34.3833 155.479 34.3833 159.513 33.2337V14.8864C159.515 12.1209 158.972 9.38207 157.912 6.82738C156.853 4.27269 155.3 1.95245 153.341 0C151.383 1.95245 149.829 4.27269 148.77 6.82738C147.711 9.38207 147.167 12.1209 147.17 14.8864Z" fill="white"/>
<path d="M147.17 14.8864V17.0297C151.204 18.1793 155.479 18.1793 159.513 17.0297V14.8864C159.515 12.1209 158.972 9.38207 157.912 6.82738C156.853 4.27269 155.3 1.95245 153.341 0C151.383 1.95245 149.829 4.27269 148.77 6.82738C147.711 9.38207 147.167 12.1209 147.17 14.8864Z" fill="#223A74"/>
<path opacity="0.1" d="M147.17 14.8864V17.0297C151.204 18.1793 155.479 18.1793 159.513 17.0297V14.8864C159.515 12.1209 158.972 9.38207 157.912 6.82738C156.853 4.27269 155.3 1.95245 153.341 0C151.383 1.95245 149.829 4.27269 148.77 6.82738C147.711 9.38207 147.167 12.1209 147.17 14.8864Z" fill="white"/>
<path d="M156.937 24.7689C156.939 25.4802 156.729 26.176 156.335 26.7681C155.941 27.3603 155.38 27.8223 154.724 28.0957C154.067 28.369 153.344 28.4414 152.646 28.3036C151.949 28.1659 151.307 27.8242 150.804 27.3219C150.3 26.8195 149.957 26.1791 149.818 25.4816C149.678 24.7841 149.749 24.061 150.021 23.4037C150.293 22.7464 150.753 22.1845 151.345 21.7892C151.936 21.3939 152.631 21.1829 153.342 21.1829C154.294 21.1829 155.207 21.5604 155.881 22.2327C156.555 22.905 156.935 23.8171 156.937 24.7689Z" fill="#223A74"/>
<path d="M153.341 28.3633C152.433 28.3654 151.558 28.0219 150.893 27.4024C150.229 26.7829 149.825 25.9338 149.764 25.0275C149.764 25.1192 149.764 25.2109 149.764 25.2943C149.764 26.2476 150.142 27.1619 150.816 27.836C151.491 28.5101 152.405 28.8888 153.358 28.8888C154.311 28.8888 155.226 28.5101 155.9 27.836C156.574 27.1619 156.953 26.2476 156.953 25.2943C156.953 25.2109 156.953 25.1192 156.953 25.0275C156.889 25.9389 156.48 26.7916 155.809 27.4116C155.137 28.0315 154.255 28.3719 153.341 28.3633Z" fill="#223A74"/>
<path opacity="0.3" d="M153.341 28.3633C152.433 28.3654 151.558 28.0219 150.893 27.4024C150.229 26.7829 149.825 25.9338 149.764 25.0275C149.764 25.1192 149.764 25.2109 149.764 25.2943C149.764 26.2476 150.142 27.1619 150.816 27.836C151.491 28.5101 152.405 28.8888 153.358 28.8888C154.311 28.8888 155.226 28.5101 155.9 27.836C156.574 27.1619 156.953 26.2476 156.953 25.2943C156.953 25.2109 156.953 25.1192 156.953 25.0275C156.889 25.9389 156.48 26.7916 155.809 27.4116C155.137 28.0315 154.255 28.3719 153.341 28.3633Z" fill="black"/>
<path d="M153.342 27.3126C154.747 27.3126 155.886 26.1738 155.886 24.769C155.886 23.3642 154.747 22.2253 153.342 22.2253C151.938 22.2253 150.799 23.3642 150.799 24.769C150.799 26.1738 151.938 27.3126 153.342 27.3126Z" fill="white"/>
<path d="M153.209 27.2959L154.251 22.4088C153.986 22.304 153.703 22.2475 153.417 22.242L152.375 27.1207C152.64 27.2289 152.923 27.2882 153.209 27.2959Z" fill="#223A74"/>
<path d="M154.16 27.1707L155.061 22.9092C154.945 22.8031 154.82 22.7081 154.686 22.6256L153.693 27.2792C153.852 27.2559 154.008 27.2196 154.16 27.1707Z" fill="#223A74"/>
<g opacity="0.7">
<path d="M153.209 27.2959L154.251 22.4088C153.986 22.304 153.703 22.2475 153.417 22.242L152.375 27.1207C152.64 27.2289 152.923 27.2882 153.209 27.2959Z" fill="white"/>
<path d="M154.16 27.1707L155.061 22.9092C154.945 22.8031 154.82 22.7081 154.686 22.6256L153.693 27.2792C153.852 27.2559 154.008 27.2196 154.16 27.1707Z" fill="white"/>
</g>
<path d="M245.421 121.201L244.462 121.409C244.033 121.496 243.641 121.715 243.342 122.035C243.043 122.355 242.851 122.76 242.794 123.194L242.711 123.87C242.667 124.207 242.707 124.549 242.826 124.868C242.945 125.186 243.14 125.47 243.394 125.696C244.971 127.072 248.69 129.624 253.194 127.981L256.788 125.271L256.196 120.417L248.69 119.333C248.236 119.35 247.8 119.513 247.447 119.8L245.421 121.201Z" fill="#FAB27B"/>
<path d="M256.813 125.271L266.795 124.77L265.253 119.341L256.221 120.417L256.813 125.271Z" fill="#FAB27B"/>
<path d="M262.759 119.383C262.35 120.149 262.209 121.029 262.359 121.885C262.54 123.27 263.097 124.579 263.968 125.671C262.286 125.696 260.632 126.104 259.131 126.864L259.048 126.905C253.844 123.353 256.846 119.141 256.846 119.141L257.188 119.191C259.033 119.446 260.9 119.511 262.759 119.383Z" fill="#223A74"/>
<path d="M283.2 123.861C273.926 125.996 262.392 125.788 262.392 125.788C262.012 125.147 261.84 124.404 261.9 123.661C261.984 122.11 262.192 120.167 262.734 119.383C263.276 118.599 267.288 118.182 267.288 118.182C267.288 118.182 275.035 114.588 276.503 113.412C277.971 112.236 277.913 106.74 277.637 103.129C276.161 83.7223 279.572 82.2795 282.641 81.3872C289.146 79.5774 291.406 121.968 283.2 123.861Z" fill="#223A74"/>
<path d="M219.659 128.023H245.579C246.413 128.023 246.805 127.339 246.413 126.497L239.941 111.877C239.739 111.451 239.429 111.086 239.041 110.818C238.653 110.55 238.201 110.389 237.731 110.351H211.803C210.969 110.351 210.577 111.035 210.969 111.877L217.474 126.497C217.673 126.92 217.98 127.283 218.363 127.551C218.747 127.819 219.193 127.981 219.659 128.023Z" fill="#223A74"/>
<path opacity="0.2" d="M219.659 128.023H245.579C246.413 128.023 246.805 127.339 246.413 126.497L239.941 111.877C239.739 111.451 239.429 111.086 239.041 110.818C238.653 110.55 238.201 110.389 237.731 110.351H211.803C210.969 110.351 210.577 111.035 210.969 111.877L217.474 126.497C217.673 126.92 217.98 127.283 218.363 127.551C218.747 127.819 219.193 127.981 219.659 128.023Z" fill="black"/>
<path d="M210.678 110.351H211.804C210.97 110.351 210.578 111.035 210.97 111.877L217.475 126.497C217.676 126.922 217.985 127.287 218.372 127.555C218.758 127.823 219.208 127.984 219.677 128.023H218.559C218.09 127.985 217.638 127.824 217.25 127.556C216.862 127.288 216.551 126.923 216.349 126.497L209.853 111.877C209.461 111.035 209.836 110.351 210.678 110.351Z" fill="#223A74"/>
<path opacity="0.4" d="M210.678 110.351H211.804C210.97 110.351 210.578 111.035 210.97 111.877L217.475 126.497C217.676 126.922 217.985 127.287 218.372 127.555C218.758 127.823 219.208 127.984 219.677 128.023H218.559C218.09 127.985 217.638 127.824 217.25 127.556C216.862 127.288 216.551 126.923 216.349 126.497L209.853 111.877C209.461 111.035 209.836 110.351 210.678 110.351Z" fill="black"/>
<path d="M220.142 126.346H243.602L237.239 112.027H213.779L220.142 126.346Z" fill="#263238"/>
<path opacity="0.8" d="M220.142 126.346H243.602L237.239 112.027H213.779L220.142 126.346Z" fill="white"/>
<path d="M297.336 126.88C297.336 126.88 297.978 135.437 298.07 138.439C298.695 158.496 282.325 160.022 270.282 157.812L226.665 145.62C224.939 151.416 204.774 183.332 204.774 183.332L194.174 177.244C194.174 177.244 205.166 150.899 212.263 132.56C216.307 122.093 249.274 129.332 261.417 131.492C265.103 132.485 264.394 126.722 264.394 126.722L297.336 126.88Z" fill="#263238"/>
<path d="M202.071 182.731L198.018 189.478L190.471 185.725L194.399 178.044L202.071 182.731Z" fill="#FAB27B"/>
<path d="M186.451 184.366C185.458 183.907 184.508 183.257 184.374 182.698C184.35 182.536 184.375 182.37 184.444 182.222C184.514 182.074 184.626 181.949 184.766 181.864C184.887 181.782 185.023 181.725 185.166 181.696C185.309 181.667 185.457 181.668 185.6 181.697C187.11 181.939 189.178 184.816 189.261 184.941C189.288 184.976 189.302 185.019 189.302 185.062C189.302 185.106 189.288 185.148 189.261 185.183C189.235 185.216 189.2 185.241 189.16 185.256C189.12 185.271 189.078 185.274 189.036 185.266C188.149 185.043 187.284 184.742 186.451 184.366ZM185.892 182.223C185.771 182.164 185.642 182.124 185.508 182.106C185.425 182.083 185.337 182.079 185.252 182.095C185.167 182.111 185.086 182.146 185.016 182.197C184.766 182.373 184.758 182.506 184.783 182.598C184.916 183.29 186.934 184.224 188.511 184.724C187.807 183.723 186.918 182.865 185.892 182.197V182.223Z" fill="#223A74"/>
<path d="M188.979 185.2C188.955 185.21 188.928 185.21 188.904 185.2C188.145 184.366 187.011 181.722 187.595 180.896C187.711 180.688 187.995 180.496 188.545 180.688C188.745 180.758 188.929 180.868 189.085 181.012C189.242 181.155 189.367 181.329 189.454 181.522C190.088 182.831 189.313 185.091 189.279 185.191C189.267 185.227 189.245 185.259 189.215 185.282C189.186 185.306 189.15 185.321 189.112 185.325C189.082 185.316 189.054 185.299 189.031 185.278C189.008 185.256 188.99 185.229 188.979 185.2ZM188.504 181.03L188.404 180.972C188.045 180.838 187.962 180.972 187.928 181.013C187.628 181.53 188.27 183.465 188.996 184.508C189.315 183.555 189.336 182.528 189.054 181.564C188.942 181.324 188.746 181.134 188.504 181.03Z" fill="#223A74"/>
<path d="M190.338 184.491L199.078 188.486C199.233 188.557 199.36 188.677 199.44 188.828C199.52 188.978 199.548 189.151 199.52 189.32L197.852 197.159C197.818 197.325 197.752 197.483 197.656 197.624C197.561 197.764 197.439 197.885 197.297 197.978C197.155 198.071 196.996 198.135 196.83 198.166C196.663 198.197 196.492 198.195 196.326 198.16C196.236 198.143 196.149 198.115 196.067 198.076C192.94 196.584 190.229 195.124 186.285 193.339C181.656 191.221 182.573 192.314 177.111 189.895C173.775 188.436 174.918 184.433 176.385 184.891C183.124 187.01 184.667 185.383 188.169 184.232C188.899 184.044 189.673 184.136 190.338 184.491Z" fill="#263238"/>
<path opacity="0.2" d="M200.012 186.159L202.072 182.731L194.4 178.044L192.498 181.755L200.012 186.159Z" fill="black"/>
<path d="M206.459 182.698L193.316 174.5C192.718 174.834 192.237 175.343 191.939 175.959C191.641 176.575 191.539 177.268 191.648 177.944L204.291 186.034C204.291 186.034 205.984 185.925 206.459 182.698Z" fill="#223A74"/>
<path d="M224.438 216.299L222.846 223.779L214.723 222.712L215.907 214.405L224.438 216.299Z" fill="#FAB27B"/>
<path d="M210.593 222.728C209.534 222.62 208.458 222.32 208.15 221.828C208.082 221.694 208.056 221.544 208.074 221.396C208.092 221.247 208.153 221.108 208.25 220.994C208.416 220.774 208.661 220.628 208.934 220.585C210.393 220.335 213.203 222.32 213.329 222.412C213.362 222.436 213.387 222.469 213.4 222.508C213.414 222.547 213.415 222.589 213.404 222.628C213.391 222.669 213.367 222.704 213.334 222.731C213.302 222.757 213.262 222.774 213.22 222.778C212.345 222.837 211.466 222.82 210.593 222.728ZM209.401 220.935C209.271 220.915 209.138 220.915 209.009 220.935C208.924 220.942 208.842 220.967 208.769 221.009C208.695 221.051 208.632 221.108 208.583 221.177C208.408 221.419 208.45 221.544 208.5 221.619C208.842 222.211 211.002 222.453 212.595 222.395C211.633 221.705 210.549 221.205 209.401 220.919V220.935Z" fill="#223A74"/>
<path d="M213.197 222.728C213.17 222.737 213.141 222.737 213.114 222.728C212.138 222.17 210.27 220.126 210.545 219.184C210.587 218.951 210.787 218.692 211.379 218.692C211.581 218.689 211.781 218.727 211.968 218.805C212.154 218.882 212.323 218.997 212.463 219.142C213.464 220.143 213.464 222.478 213.464 222.57C213.464 222.607 213.454 222.642 213.435 222.673C213.416 222.704 213.388 222.729 213.355 222.745C213.33 222.758 213.302 222.763 213.274 222.76C213.246 222.757 213.219 222.746 213.197 222.728ZM211.446 219.076H211.337C210.97 219.076 210.929 219.217 210.912 219.268C210.803 219.843 212.004 221.419 212.997 222.145C212.992 221.17 212.686 220.221 212.121 219.426C211.942 219.241 211.702 219.125 211.446 219.101V219.076Z" fill="#223A74"/>
<path d="M214.213 221.611L223.512 222.528C223.683 222.544 223.843 222.618 223.966 222.738C224.089 222.858 224.167 223.017 224.188 223.187L225.13 230.918C225.17 231.247 225.079 231.579 224.876 231.841C224.673 232.104 224.375 232.275 224.046 232.319C223.957 232.328 223.868 232.328 223.779 232.319C220.443 231.927 217.466 231.485 213.296 231.051C208.367 230.568 209.56 231.277 203.755 230.793C200.261 230.493 200.011 226.465 201.512 226.415C208.367 226.231 209.276 224.255 212.12 222.086C212.737 221.679 213.481 221.51 214.213 221.611Z" fill="#263238"/>
<path opacity="0.2" d="M215.281 218.775L223.771 219.434L224.438 216.299L215.907 214.405L215.281 218.775Z" fill="black"/>
<path d="M226.849 213.338L226.607 214.28L214.156 213.296L214.29 212.354L226.849 213.338Z" fill="#263238"/>
<path d="M227.357 217.241L224.288 216.966L215.648 216.19L212.863 215.94C212.467 215.408 212.243 214.767 212.221 214.104C212.198 213.441 212.379 212.787 212.738 212.229L214.289 212.354L226.849 213.338L227.749 213.413C228.792 216.407 227.357 217.241 227.357 217.241Z" fill="#223A74"/>
<path d="M277.913 165.251C266.646 166.244 240.659 166.661 237.14 166.144L226.849 213.338L214.289 212.354C214.289 212.354 215.615 171.548 221.153 154.677C225.606 141.116 296.844 143.927 296.844 143.927L297.094 147.746C297.586 160.906 290.814 164.109 277.913 165.251Z" fill="#263238"/>
<path opacity="0.1" d="M277.913 165.251C266.646 166.244 240.659 166.661 237.14 166.144L226.849 213.338L214.289 212.354C214.289 212.354 215.615 171.548 221.153 154.677C225.606 141.116 296.844 143.927 296.844 143.927L297.094 147.746C297.586 160.906 290.814 164.109 277.913 165.251Z" fill="black"/>
<path d="M220.952 159.605C220.948 159.53 220.948 159.455 220.952 159.38V159.605Z" fill="#263238"/>
<path d="M221.795 153.509L221.67 154.435C221.694 154.124 221.736 153.815 221.795 153.509Z" fill="#263238"/>
<path d="M261.674 79.7776L265.135 84.8315L272.916 78.1764L268.054 72.2052L261.674 79.7776Z" fill="#FAB27B"/>
<path opacity="0.2" d="M263.411 82.1711C264.913 79.9611 264.245 76.5335 264.245 76.5335L262.878 78.2765L261.693 79.7776L263.411 82.1711Z" fill="black"/>
<path d="M248.365 68.6441C248.532 69.1362 248.932 69.4781 249.257 69.328C249.582 69.1779 249.724 68.6858 249.549 68.2105C249.374 67.7351 248.99 67.3765 248.657 67.535C248.323 67.6934 248.206 68.1521 248.365 68.6441Z" fill="#263238"/>
<path d="M250.167 68.7942L249.066 73.5145C249.623 73.6306 250.199 73.6157 250.749 73.4709C251.299 73.3262 251.808 73.0556 252.235 72.6805L250.167 68.7942Z" fill="#ED893E"/>
<path d="M247.873 65.1998C247.913 65.1793 247.958 65.1686 248.003 65.1686C248.048 65.1686 248.092 65.1793 248.132 65.1998C248.447 65.3323 248.789 65.3877 249.13 65.3616C249.471 65.3355 249.801 65.2286 250.092 65.0497C250.12 65.0275 250.152 65.0114 250.186 65.0023C250.221 64.9932 250.257 64.9913 250.292 64.9968C250.327 65.0023 250.361 65.015 250.391 65.0341C250.421 65.0533 250.447 65.0785 250.467 65.1081C250.507 65.1685 250.522 65.2418 250.51 65.3132C250.498 65.3845 250.458 65.4484 250.4 65.4917C250.035 65.7352 249.615 65.8834 249.178 65.9227C248.741 65.9621 248.301 65.8913 247.898 65.7169C247.864 65.704 247.833 65.6844 247.807 65.6593C247.78 65.6342 247.759 65.6041 247.744 65.5707C247.729 65.5374 247.721 65.5014 247.721 65.4649C247.72 65.4285 247.727 65.3922 247.74 65.3583C247.768 65.2937 247.815 65.2387 247.873 65.1998Z" fill="#263238"/>
<path d="M266.854 60.1043C269.356 66.5509 270.598 69.2279 268.88 73.9899C265.503 79.6192 257.722 83.0384 253.285 77.5176C249.299 72.5137 245.838 62.8647 250.892 57.3355C252.579 55.4412 254.947 54.2907 257.479 54.1344C260.011 53.9782 262.503 54.829 264.41 56.5015C265.502 57.489 266.34 58.7247 266.854 60.1043Z" fill="#FAB27B"/>
<path d="M272.96 62.0224C272.608 64.1861 272.394 66.3699 272.318 68.5607C272.258 70.5826 271.597 72.5409 270.419 74.1853C269.241 75.8297 267.6 77.0857 265.704 77.7928C265.704 77.7928 256.614 77.6843 252.753 66.2506C251.685 66.3515 250.608 66.188 249.618 65.7745C248.628 65.3609 247.755 64.7101 247.076 63.8794C246.397 63.0487 245.932 62.0636 245.724 61.0111C245.516 59.9586 245.57 58.871 245.881 57.8442C246.623 55.409 249.7 53.8912 252.244 53.7994C253.078 52.7164 254.165 51.8549 255.41 51.2906C256.654 50.7264 258.019 50.4767 259.383 50.5636C262.134 50.7866 264.791 51.6676 267.13 53.1323C269.242 54.1888 271.029 55.7968 272.301 57.7858C272.981 59.0871 273.212 60.5762 272.96 62.0224Z" fill="#263238"/>
<path d="M254.644 67.61C254.356 68.2545 254.198 68.9499 254.181 69.6557C254.164 70.3615 254.287 71.0637 254.544 71.7215C255.244 73.4645 257.112 73.1726 258.188 71.7215C259.164 70.3954 259.956 67.9102 258.639 66.6259C257.321 65.3416 255.369 66.0254 254.644 67.61Z" fill="#FAB27B"/>
<path d="M272.984 74.4152C270.482 74.5236 266.788 76.2166 261.851 79.6192C261.593 79.8431 261.396 80.1291 261.279 80.4501C261.162 80.7711 261.129 81.1166 261.183 81.4539C261.242 82.1211 261.909 82.7465 262.543 82.5381C262.868 83.372 263.085 84.2894 263.377 85.09C264.92 84.3036 266.52 83.6346 268.164 83.0885C270.653 82.0961 273.201 81.2605 275.795 80.5866C275.102 79.5274 274.177 78.4933 273.901 77.2507C274.193 77.1211 274.431 76.8933 274.573 76.6069C274.714 76.3206 274.751 75.9936 274.677 75.6828C274.535 75.3387 274.303 75.0394 274.005 74.8162C273.707 74.5931 273.354 74.4546 272.984 74.4152Z" fill="#223A74"/>
<path d="M272.984 74.4152C270.482 74.5236 266.788 76.2166 261.851 79.6192C261.593 79.8431 261.396 80.1291 261.279 80.4501C261.162 80.7711 261.129 81.1166 261.183 81.4539C261.242 82.1211 261.909 82.7465 262.543 82.5381C262.868 83.372 263.085 84.2894 263.377 85.09C264.92 84.3036 266.52 83.6346 268.164 83.0885C270.653 82.0961 273.201 81.2605 275.795 80.5866C275.102 79.5274 274.177 78.4933 273.901 77.2507C274.193 77.1211 274.431 76.8933 274.573 76.6069C274.714 76.3206 274.751 75.9936 274.677 75.6828C274.535 75.3387 274.303 75.0394 274.005 74.8162C273.707 74.5931 273.354 74.4546 272.984 74.4152Z" fill="#223A74"/>
<path d="M265.661 138.297C260.368 125.631 255.864 112.649 252.175 99.4259C248.306 84.9816 259.356 84.7314 272.691 81.1453C283.266 78.3015 287.786 80.8451 290.805 86.2075C293.824 91.5699 298.694 136.955 298.694 136.955L265.661 138.297Z" fill="#223A74"/>
<path d="M265.661 138.297C260.368 125.631 255.864 112.649 252.175 99.4259C248.306 84.9816 259.356 84.7314 272.691 81.1453C283.266 78.3015 287.786 80.8451 290.805 86.2075C293.824 91.5699 298.694 136.955 298.694 136.955L265.661 138.297Z" fill="#223A74"/>
<path opacity="0.3" d="M265.661 138.297C260.368 125.631 255.864 112.649 252.175 99.4259C248.306 84.9816 259.356 84.7314 272.691 81.1453C283.266 78.3015 287.786 80.8451 290.805 86.2075C293.824 91.5699 298.694 136.955 298.694 136.955L265.661 138.297Z" fill="black"/>
<path d="M217.424 117.481H216.49C216.074 117.498 215.673 117.643 215.343 117.897C215.013 118.151 214.77 118.501 214.647 118.899L214.455 119.516C214.357 119.826 214.335 120.155 214.393 120.475C214.452 120.795 214.587 121.096 214.789 121.351C216.048 122.911 219.117 125.93 223.629 125.129L227.474 123.177L227.724 118.507L220.869 116.247C220.437 116.189 219.999 116.271 219.618 116.481L217.424 117.481Z" fill="#FAB27B"/>
<path d="M227.492 123.211L236.966 124.403L236.416 119.033L227.742 118.541L227.492 123.211Z" fill="#FAB27B"/>
<path d="M234.103 118.657C233.573 119.315 233.28 120.131 233.269 120.976C233.212 122.311 233.517 123.637 234.153 124.812C232.565 124.554 230.939 124.662 229.4 125.129H229.316C225.013 120.917 228.541 117.456 228.541 117.456L228.858 117.557C230.563 118.104 232.321 118.473 234.103 118.657Z" fill="#223A74"/>
<path d="M252.551 126.271C243.469 126.738 232.653 124.604 232.653 124.604C232.4 123.937 232.359 123.209 232.536 122.519C232.878 121.067 233.37 119.274 234.062 118.632C234.754 117.99 238.549 118.265 238.549 118.265C238.549 118.265 246.438 116.164 248.014 115.305C249.59 114.446 250.449 109.309 250.783 105.839C252.626 87.325 256.079 86.5244 259.123 86.2159C265.503 85.5821 260.591 125.863 252.551 126.271Z" fill="#223A74"/>
<path d="M282.475 231.735L276.179 179.112C275.871 176.539 274.63 174.169 272.692 172.449C270.754 170.729 268.253 169.78 265.662 169.78H244.888C242.37 169.771 239.931 170.663 238.013 172.295C236.095 173.927 234.824 176.191 234.43 178.678L225.957 231.068L224.289 230.801L232.771 178.428C233.226 175.55 234.697 172.929 236.916 171.04C239.135 169.151 241.957 168.118 244.871 168.128H265.679C268.677 168.131 271.571 169.231 273.814 171.221C276.057 173.21 277.494 175.952 277.855 178.928L284.151 231.552L282.475 231.735Z" fill="#263238"/>
<path d="M311.613 231.735L305.316 179.112C305.008 176.539 303.768 174.169 301.83 172.449C299.892 170.729 297.391 169.78 294.8 169.78H273.992C271.473 169.769 269.034 170.66 267.116 172.293C265.197 173.925 263.927 176.19 263.534 178.678L255.053 231.068L253.385 230.801L261.866 178.428C262.32 175.549 263.79 172.927 266.01 171.038C268.23 169.149 271.052 168.117 273.967 168.128H294.775C297.773 168.131 300.667 169.231 302.91 171.221C305.153 173.21 306.59 175.952 306.951 178.928L313.247 231.552L311.613 231.735Z" fill="#263238"/>
<path d="M256.004 216.407H227.357V218.075H256.004V216.407Z" fill="#263238"/>
<path d="M306.661 178.178H277.047V179.846H306.661V178.178Z" fill="#263238"/>
<path d="M282.473 170.138H304.265C308.317 170.138 312.219 168.611 315.195 165.861C318.17 163.111 320 159.341 320.319 155.302L323.421 116.155C323.54 114.658 323.347 113.151 322.857 111.731C322.366 110.311 321.587 109.008 320.57 107.902C319.552 106.797 318.317 105.913 316.942 105.307C315.567 104.701 314.082 104.385 312.58 104.38H300.487C293.645 104.38 286.986 106.588 281.5 110.677C276.014 114.766 271.995 120.516 270.039 127.072L261.699 155.018C261.02 157.301 259.621 159.304 257.71 160.727C255.8 162.15 253.481 162.918 251.099 162.916H235.854C233.94 162.918 232.106 163.68 230.753 165.034C229.4 166.389 228.641 168.224 228.641 170.138H282.473Z" fill="#223A74"/>
<path opacity="0.7" d="M282.473 170.138H304.265C308.317 170.138 312.219 168.611 315.195 165.861C318.17 163.111 320 159.341 320.319 155.302L323.421 116.155C323.54 114.658 323.347 113.151 322.857 111.731C322.366 110.311 321.587 109.008 320.57 107.902C319.552 106.797 318.317 105.913 316.942 105.307C315.567 104.701 314.082 104.385 312.58 104.38H300.487C293.645 104.38 286.986 106.588 281.5 110.677C276.014 114.766 271.995 120.516 270.039 127.072L261.699 155.018C261.02 157.301 259.621 159.304 257.71 160.727C255.8 162.15 253.481 162.918 251.099 162.916H235.854C233.94 162.918 232.106 163.68 230.753 165.034C229.4 166.389 228.641 168.224 228.641 170.138H282.473Z" fill="white"/>
<path d="M260.869 35.0351V34.9434C260.873 34.9738 260.873 35.0047 260.869 35.0351Z" fill="#223A74"/>
<path d="M221.598 24.477C218.743 27.1076 216.654 30.4621 215.552 34.1845H214.025C214.553 29.9947 216.121 26.0038 218.587 22.5756L221.598 24.477Z" fill="#223A74"/>
<path opacity="0.6" d="M221.598 24.477C218.743 27.1076 216.654 30.4621 215.552 34.1845H214.025C214.553 29.9947 216.121 26.0038 218.587 22.5756L221.598 24.477Z" fill="white"/>
<path d="M230.437 19.4815C227.133 20.4212 224.102 22.1368 221.597 24.4853L218.586 22.5756C221.043 19.1375 224.278 16.3286 228.026 14.3776L230.437 19.4815Z" fill="#223A74"/>
<path opacity="0.5" d="M230.437 19.4815C227.133 20.4212 224.102 22.1368 221.597 24.4853L218.586 22.5756C221.043 19.1375 224.278 16.3286 228.026 14.3776L230.437 19.4815Z" fill="white"/>
<path d="M239.803 11.5672L239.061 19.0145C237.995 18.8287 236.915 18.7366 235.833 18.7393C234.009 18.7408 232.194 18.9905 230.438 19.4815L228.027 14.3943C231.553 12.547 235.472 11.5772 239.453 11.5672H239.803Z" fill="#223A74"/>
<path opacity="0.4" d="M239.803 11.5672L239.061 19.0145C237.995 18.8287 236.915 18.7366 235.833 18.7393C234.009 18.7408 232.194 18.9905 230.438 19.4815L228.027 14.3943C231.553 12.547 235.472 11.5772 239.453 11.5672H239.803Z" fill="white"/>
<path d="M250.961 14.7279L246.099 21.8584C243.989 20.4072 241.586 19.4364 239.061 19.0145L239.803 11.5672C243.739 11.5951 247.595 12.6873 250.961 14.7279Z" fill="#223A74"/>
<path opacity="0.3" d="M250.961 14.7279L246.099 21.8584C243.989 20.4072 241.586 19.4364 239.061 19.0145L239.803 11.5672C243.739 11.5951 247.595 12.6873 250.961 14.7279Z" fill="white"/>
<path d="M258.675 23.1343L251.086 27.1958C249.824 25.0753 248.117 23.2542 246.082 21.8584L250.944 14.7279C254.253 16.7559 256.931 19.6672 258.675 23.1343Z" fill="#223A74"/>
<path opacity="0.2" d="M258.675 23.1343L251.086 27.1958C249.824 25.0753 248.117 23.2542 246.082 21.8584L250.944 14.7279C254.253 16.7559 256.931 19.6672 258.675 23.1343Z" fill="white"/>
<path d="M260.893 34.7265L253.471 34.6431C253.239 32.0144 252.424 29.4703 251.086 27.1958L258.675 23.1343C260.455 26.7249 261.221 30.7327 260.893 34.7265Z" fill="#223A74"/>
<path opacity="0.1" d="M260.893 34.7265L253.471 34.6431C253.239 32.0144 252.424 29.4703 251.086 27.1958L258.675 23.1343C260.455 26.7249 261.221 30.7327 260.893 34.7265Z" fill="white"/>
<path d="M260.878 34.9434C260.882 34.9738 260.882 35.0047 260.878 35.0351C260.578 37.6449 259.913 40.1997 258.902 42.6242L252.889 41.2649L253.372 38.9714C253.414 38.6712 253.456 38.371 253.481 38.0707V37.8873C253.577 36.808 253.577 35.7224 253.481 34.6431L260.903 34.7265C260.903 34.7766 260.903 34.8099 260.903 34.8516C260.9 34.8833 260.891 34.9143 260.878 34.9434Z" fill="#223A74"/>
<path d="M214.925 42.1489L214.483 42.2489C214.341 41.6735 214.225 41.0897 214.124 40.4976C213.843 38.691 213.776 36.8575 213.924 35.0351V34.9434C213.921 34.9129 213.921 34.8821 213.924 34.8516C213.924 34.6264 213.966 34.3929 213.999 34.1678H215.526C215.171 35.3769 214.931 36.6166 214.808 37.8706C214.808 37.8706 214.808 37.929 214.808 37.9623C214.808 37.9957 214.808 38.0207 214.808 38.0541C214.753 38.7949 214.739 39.5383 214.767 40.2808C214.8 40.9229 214.85 41.5401 214.925 42.1489Z" fill="#223A74"/>
<path opacity="0.7" d="M214.925 42.1489L214.483 42.2489C214.341 41.6735 214.225 41.0897 214.124 40.4976C213.843 38.691 213.776 36.8575 213.924 35.0351V34.9434C213.921 34.9129 213.921 34.8821 213.924 34.8516C213.924 34.6264 213.966 34.3929 213.999 34.1678H215.526C215.171 35.3769 214.931 36.6166 214.808 37.8706C214.808 37.8706 214.808 37.929 214.808 37.9623C214.808 37.9957 214.808 38.0207 214.808 38.0541C214.753 38.7949 214.739 39.5383 214.767 40.2808C214.8 40.9229 214.85 41.5401 214.925 42.1489Z" fill="white"/>
<path d="M260.393 40.9229L259.759 42.4908L258.475 42.2072L246.507 39.4968L241.354 38.3293C241.711 37.8658 242.008 37.3585 242.238 36.8198C242.5 36.1907 242.657 35.5231 242.705 34.8433L254.13 38.7713L260.393 40.9229Z" fill="#263238"/>
<path d="M242.704 34.86C242.609 36.13 242.138 37.3432 241.353 38.346L236.725 37.2952L238.184 33.3088L242.704 34.86Z" fill="#263238"/>
<path d="M242.706 34.86C242.61 36.13 242.14 37.3432 241.355 38.346C240.78 39.0795 240.059 39.6846 239.236 40.1223C236.259 41.7152 232.748 40.7145 231.405 37.8706C230.789 36.4069 230.751 34.764 231.299 33.2734C231.847 31.7828 232.94 30.5556 234.358 29.8395C237.335 28.2466 240.846 29.2557 242.197 32.0912C242.602 32.9549 242.777 33.9086 242.706 34.86Z" fill="#223A74"/>
<path d="M52.6992 31.3323H57.4779V35.3353H52.2239L51.49 41.1731H47.3201L48.054 35.3353H42.6582L41.9243 41.1731H37.8379L38.5718 35.3353H33.7598V31.3323H39.0471L39.8144 25.3861H35.0107V21.383H40.2981L41.032 15.5452H45.1435L44.4096 21.383H49.797L50.5309 15.5452H54.6424L53.9085 21.383H58.6788V25.3861H53.3914L52.6992 31.3323ZM48.5294 31.3323L49.2966 25.3861H43.9592L43.1253 31.3323H48.5294Z" fill="#223A74"/>
<path d="M70.7964 15.5035V41.2065H64.8502V20.2822H59.7129V15.5035H70.7964Z" fill="#223A74"/>
<path d="M48.5117 122.393H7.38867V150.707H48.5117V122.393Z" fill="#263238"/>
<path d="M48.5117 122.393H7.38867V124.987H48.5117V122.393Z" fill="#223A74"/>
<path d="M14.9198 138.055L21.6499 141.783C21.902 141.906 22.1284 142.076 22.3171 142.284C22.4349 142.449 22.4937 142.648 22.4839 142.851C22.4859 142.991 22.4596 143.131 22.4066 143.262C22.3536 143.392 22.275 143.51 22.1753 143.61C22.0813 143.71 21.9677 143.79 21.8414 143.845C21.7151 143.899 21.579 143.927 21.4414 143.927C21.1442 143.891 20.859 143.789 20.6075 143.626L11.9342 138.798C11.7976 138.728 11.6829 138.621 11.6029 138.49C11.5228 138.359 11.4805 138.209 11.4805 138.055C11.4805 137.902 11.5228 137.751 11.6029 137.62C11.6829 137.49 11.7976 137.383 11.9342 137.313L20.6075 132.485C20.8611 132.328 21.1456 132.228 21.4414 132.193C21.7202 132.197 21.9862 132.31 22.1826 132.508C22.379 132.706 22.4901 132.973 22.4922 133.252C22.5078 133.455 22.4484 133.657 22.3254 133.819C22.1398 134.032 21.9128 134.205 21.6583 134.328L14.9198 138.055Z" fill="white"/>
<path d="M32.2247 131.108L25.5529 145.444C25.4523 145.708 25.2958 145.947 25.0942 146.145C24.9152 146.29 24.6907 146.367 24.4604 146.362C24.3237 146.362 24.1884 146.335 24.0623 146.282C23.9363 146.229 23.8221 146.151 23.7265 146.053C23.6302 145.967 23.553 145.862 23.4999 145.744C23.4467 145.626 23.4188 145.499 23.418 145.369C23.4424 145.078 23.5246 144.795 23.6598 144.535L30.3316 130.208C30.4331 129.946 30.5862 129.708 30.7819 129.507C30.9802 129.354 31.2273 129.278 31.4773 129.294C31.7273 129.309 31.9632 129.414 32.1413 129.591C32.238 129.676 32.3155 129.782 32.3687 129.9C32.4219 130.017 32.4495 130.145 32.4499 130.275C32.4306 130.565 32.3541 130.848 32.2247 131.108Z" fill="white"/>
<path d="M40.6217 138.055L33.8666 134.328C33.6084 134.207 33.3783 134.034 33.191 133.819C33.0744 133.653 33.0157 133.454 33.0242 133.252C33.0221 133.113 33.0493 132.975 33.1038 132.847C33.1584 132.719 33.2393 132.604 33.3412 132.51C33.4351 132.409 33.5488 132.329 33.6751 132.275C33.8014 132.22 33.9375 132.192 34.0751 132.193C34.3712 132.227 34.656 132.327 34.909 132.485L43.5823 137.313C43.7189 137.383 43.8336 137.49 43.9136 137.62C43.9937 137.751 44.036 137.902 44.036 138.055C44.036 138.209 43.9937 138.359 43.9136 138.49C43.8336 138.621 43.7189 138.728 43.5823 138.798L34.909 143.626C34.6579 143.789 34.3725 143.892 34.0751 143.927C33.9363 143.927 33.799 143.899 33.6715 143.844C33.5439 143.79 33.4287 143.71 33.3328 143.61C33.1347 143.407 33.0239 143.134 33.0242 142.851C33.0182 142.649 33.0766 142.45 33.191 142.284C33.3816 142.075 33.611 141.905 33.8666 141.783L40.6217 138.055Z" fill="white"/>
</svg>
