<svg width="414" height="419" viewBox="0 0 414 419" fill="none" xmlns="http://www.w3.org/2000/svg">
<path d="M407.959 309.347L407.161 308.038C403.573 301.825 398.109 296.909 391.553 293.994C384.997 291.08 377.687 290.317 370.67 291.816C364.83 293.144 359.407 295.895 354.887 299.824C350.366 303.754 346.887 308.74 344.76 314.34C342.291 320.957 341.604 328.576 336.927 333.828C330.839 340.659 320.51 340.872 311.425 340.594C302.339 340.315 292.001 340.594 285.95 347.415C282.155 351.712 280.948 357.818 281.254 363.581C282.062 378.81 292.688 392.443 306.191 399.208C319.694 405.974 335.591 406.632 350.365 403.616C371.069 399.44 390.762 387.979 402.595 370.272C414.427 352.565 417.425 328.455 407.959 309.347Z" fill="#F5F5F5"/>
<path d="M5.61929 95.9921L6.40811 97.3006C9.9959 103.514 15.4598 108.43 22.0157 111.345C28.5715 114.259 35.8822 115.022 42.8983 113.523C48.7399 112.194 54.1627 109.443 58.6847 105.513C63.2067 101.584 66.6877 96.5983 68.8183 90.9993C71.2776 84.3824 71.9736 76.7632 76.6416 71.5106C82.7295 64.671 93.0585 64.4575 102.144 64.7359C111.229 65.0143 121.568 64.7359 127.628 57.9149C131.414 53.6181 132.621 47.5116 132.268 41.7578C131.46 26.5196 120.844 12.8868 107.341 6.1214C93.8381 -0.643958 77.9409 -1.30286 63.1573 1.72252C42.4993 5.89867 22.8157 17.3599 10.974 35.0667C-0.86766 52.7736 -3.85593 76.8839 5.61929 95.9921Z" fill="#F5F5F5"/>
<path d="M22.629 173.668C31.1474 173.668 38.0529 166.763 38.0529 158.244C38.0529 149.726 31.1474 142.82 22.629 142.82C14.1106 142.82 7.20508 149.726 7.20508 158.244C7.20508 166.763 14.1106 173.668 22.629 173.668Z" fill="#F5F5F5"/>
<path d="M398.576 261.117C407.095 261.117 414 254.211 414 245.693C414 237.175 407.095 230.269 398.576 230.269C390.058 230.269 383.152 237.175 383.152 245.693C383.152 254.211 390.058 261.117 398.576 261.117Z" fill="#F5F5F5"/>
<path d="M403.033 416.2C403.033 416.33 317.459 416.442 211.923 416.442C106.387 416.442 20.7949 416.33 20.7949 416.2C20.7949 416.07 106.35 415.959 211.97 415.959C317.589 415.959 403.033 416.07 403.033 416.2Z" fill="#263238"/>
<path d="M346.069 93.9039H68.875V302.192H346.069V93.9039Z" fill="white"/>
<path d="M346.069 302.192C346.069 302.192 346.069 301.858 346.069 301.217C346.069 300.577 346.069 299.621 346.069 298.368C346.069 295.862 346.069 292.15 346.023 287.297C346.023 277.608 345.967 263.372 345.921 245.201C345.874 208.915 345.8 156.89 345.717 93.9318L346.116 94.3309L68.9494 94.4144L69.432 93.9318C69.432 168.824 69.432 239.735 69.432 302.219L68.9958 301.783L269.061 301.997L325.884 302.117L340.965 302.173H344.853H345.846H344.872H341.039L326.042 302.229L269.321 302.349L68.968 302.563H68.439V302.127C68.439 239.642 68.439 168.731 68.3926 93.839V93.3564H68.903L346.069 93.4492H346.478V93.839C346.394 156.945 346.329 209.045 346.273 245.387C346.227 263.52 346.199 277.719 346.171 287.389C346.171 292.206 346.171 295.9 346.171 298.387C346.171 299.621 346.171 300.558 346.171 301.171C346.171 301.783 346.069 302.192 346.069 302.192Z" fill="#263238"/>
<path d="M344.676 119.416C344.445 119.445 344.213 119.461 343.98 119.462H341.92L334.013 119.545C327.155 119.601 317.216 119.629 304.947 119.62C280.391 119.62 246.481 119.443 209.026 119.137L113.104 118.367L84.0288 118.135L76.1313 118.042L74.071 117.986C73.8398 118.013 73.6062 118.013 73.375 117.986C73.6045 117.944 73.838 117.929 74.071 117.94H76.1313L84.0288 117.856C90.8962 117.801 100.826 117.773 113.104 117.773C137.651 117.773 171.57 117.959 209.035 118.265L304.947 119.035L334.022 119.258L341.92 119.36H343.98C344.213 119.354 344.447 119.373 344.676 119.416Z" fill="#263238"/>
<path d="M86.9826 104.446C86.9844 105.093 86.7941 105.726 86.4359 106.265C86.0776 106.803 85.5676 107.223 84.9703 107.472C84.373 107.72 83.7154 107.786 83.0809 107.66C82.4463 107.534 81.8634 107.223 81.406 106.766C80.9486 106.308 80.6373 105.725 80.5115 105.091C80.3858 104.456 80.4513 103.799 80.6997 103.201C80.9481 102.604 81.3682 102.094 81.9068 101.736C82.4454 101.377 83.0783 101.187 83.7252 101.189C84.5883 101.191 85.4154 101.535 86.0258 102.146C86.6361 102.756 86.9801 103.583 86.9826 104.446Z" fill="#263238"/>
<path d="M100.039 104.446C100.041 105.093 99.851 105.725 99.4932 106.264C99.1353 106.802 98.6258 107.222 98.0291 107.471C97.4323 107.72 96.7752 107.786 96.1409 107.661C95.5067 107.536 94.9237 107.225 94.4659 106.769C94.0082 106.312 93.6961 105.73 93.5693 105.096C93.4425 104.462 93.5067 103.805 93.7536 103.208C94.0006 102.61 94.4193 102.099 94.9567 101.74C95.4941 101.381 96.126 101.189 96.7725 101.189C97.6373 101.189 98.4668 101.532 99.0791 102.142C99.6915 102.753 100.037 103.582 100.039 104.446Z" fill="#263238"/>
<path d="M109.829 107.75C111.633 107.75 113.096 106.288 113.096 104.483C113.096 102.679 111.633 101.217 109.829 101.217C108.025 101.217 106.562 102.679 106.562 104.483C106.562 106.288 108.025 107.75 109.829 107.75Z" fill="#263238"/>
<path d="M174.15 240.32H117.188V282.963H174.15V240.32Z" fill="#EBEBEB"/>
<path d="M236.711 240.32H179.748V282.963H236.711V240.32Z" fill="#EBEBEB"/>
<path d="M309.617 240.32H252.654V282.963H309.617V240.32Z" fill="#EBEBEB"/>
<path d="M407.554 138.7C405.818 106.553 372.223 90.3775 355.036 88.2894L341.283 104.446C352.354 102.785 379.889 118.154 381.235 129.271C382.58 140.389 374.107 154.597 362.952 155.618C354.192 156.426 339.584 148.649 334.026 155.46C319.975 142.951 295.976 143.981 283.058 157.651C278.067 155.864 272.737 155.231 267.467 155.798C262.196 156.365 257.123 158.118 252.626 160.925C248.13 163.732 244.328 167.521 241.504 172.007C238.68 176.493 236.909 181.56 236.322 186.828L288.06 216.859C288.06 216.859 309.618 236.181 324.318 224.283C329.339 220.219 331.251 214.381 331.743 208.748C332.723 208.873 333.718 208.81 334.675 208.562C338.387 207.56 341.171 204.219 342.396 200.554C342.554 200.08 342.675 199.625 342.786 199.115C355.352 201.899 372.483 198.744 382.589 192.433C397.252 183.329 408.482 155.989 407.554 138.7Z" fill="#F5F5F5"/>
<path d="M337.681 161.715C337.681 161.715 337.607 161.641 337.487 161.465L336.976 160.704C336.753 160.361 336.475 159.943 336.113 159.479C335.751 159.015 335.361 158.449 334.851 157.883C332.06 154.556 328.646 151.807 324.8 149.79C322.171 148.396 319.36 147.374 316.448 146.756C313.096 146.022 309.644 145.865 306.24 146.292C298.385 147.272 291.141 151.036 285.823 156.899C285.053 157.734 284.375 158.644 283.735 159.479L283.614 159.646L283.438 159.553C279.327 157.543 274.839 156.422 270.266 156.262C265.693 156.102 261.137 156.907 256.896 158.625C255.455 159.245 254.051 159.948 252.692 160.732C250.239 162.12 247.966 163.806 245.927 165.752C242.956 168.545 240.648 171.966 239.171 175.766C238.892 176.434 238.707 177.037 238.54 177.566C238.39 178.008 238.263 178.457 238.159 178.912L237.937 179.747C237.921 179.844 237.889 179.938 237.844 180.026C237.844 180.026 237.844 179.923 237.89 179.738L238.066 178.893C238.151 178.432 238.266 177.976 238.41 177.529C238.558 176.991 238.735 176.378 238.995 175.673C240.425 171.806 242.716 168.315 245.695 165.465C247.738 163.481 250.024 161.763 252.497 160.351C253.865 159.547 255.282 158.828 256.738 158.198C258.3 157.55 259.911 157.025 261.555 156.63C268.977 154.841 276.79 155.695 283.651 159.043L283.345 159.117C286.032 155.441 289.447 152.359 293.378 150.063C297.31 147.767 301.672 146.306 306.193 145.772C309.643 145.347 313.139 145.517 316.532 146.273C319.486 146.917 322.335 147.973 324.995 149.41C328.86 151.465 332.272 154.277 335.027 157.679C335.467 158.201 335.879 158.746 336.262 159.312C336.564 159.713 336.842 160.132 337.097 160.565C337.292 160.899 337.449 161.159 337.57 161.354C337.617 161.471 337.655 161.592 337.681 161.715Z" fill="#263238"/>
<path d="M347.678 154.996C347.622 155.071 346.954 154.579 345.729 154.124C345.015 153.864 344.274 153.684 343.52 153.586C342.595 153.475 341.661 153.475 340.736 153.586C339.813 153.726 338.91 153.976 338.045 154.328C337.344 154.625 336.678 154.998 336.059 155.442C335.001 156.212 334.49 156.862 334.426 156.806C334.361 156.75 334.509 156.611 334.732 156.305C335.059 155.884 335.436 155.503 335.855 155.173C336.467 154.667 337.144 154.245 337.869 153.92C339.659 153.113 341.643 152.839 343.585 153.131C344.373 153.251 345.14 153.475 345.868 153.799C346.362 154.004 346.826 154.273 347.251 154.597C347.548 154.839 347.696 154.978 347.678 154.996Z" fill="#263238"/>
<path d="M362.255 174.55C362.255 174.55 361.726 174.29 360.733 173.938C359.321 173.436 357.822 173.222 356.325 173.307C354.075 173.419 351.922 174.252 350.182 175.682C348.019 177.47 346.621 180.016 346.275 182.8L346.228 183.19L345.913 182.977C344.844 182.293 343.701 181.733 342.507 181.306C339.431 180.208 336.109 179.999 332.92 180.703C330.324 181.317 327.906 182.528 325.858 184.239C324.476 185.393 323.275 186.747 322.294 188.257C321.608 189.334 321.311 189.983 321.273 189.955C321.314 189.787 321.376 189.625 321.459 189.473C321.656 189.019 321.882 188.579 322.137 188.155C323.304 186.198 324.85 184.493 326.684 183.14C328.518 181.787 330.603 180.813 332.818 180.276C335.085 179.747 337.435 179.678 339.729 180.073C342.022 180.469 344.214 181.32 346.173 182.578L345.801 182.754C346.158 179.84 347.632 177.178 349.913 175.33C351.732 173.865 353.981 173.034 356.316 172.963C357.848 172.906 359.375 173.172 360.798 173.743C361.18 173.897 361.549 174.08 361.903 174.29C362.032 174.36 362.151 174.447 362.255 174.55Z" fill="#263238"/>
<path d="M402.364 119.917C402.509 120.123 402.636 120.34 402.745 120.566C402.968 121.003 403.32 121.643 403.719 122.487C404.814 124.892 405.683 127.393 406.318 129.958C407.237 133.76 407.71 137.656 407.728 141.568C407.745 143.88 407.628 146.192 407.376 148.491C407.118 150.961 406.721 153.415 406.188 155.841C404.352 164.379 401.069 172.539 396.481 179.97C395.095 182.22 393.511 184.341 391.748 186.308C391.107 186.986 390.597 187.505 390.226 187.83C390.049 188.008 389.856 188.17 389.65 188.313C389.807 188.115 389.977 187.929 390.161 187.756C390.513 187.413 390.987 186.874 391.609 186.178C393.307 184.177 394.84 182.042 396.193 179.793C400.666 172.359 403.883 164.238 405.715 155.757C406.247 153.35 406.643 150.915 406.903 148.463C407.163 146.18 407.29 143.884 407.283 141.586C407.287 137.696 406.855 133.817 405.993 130.023C405.386 127.485 404.57 125.002 403.552 122.599C403.19 121.745 402.856 121.105 402.624 120.65C402.518 120.413 402.431 120.168 402.364 119.917Z" fill="#263238"/>
<path d="M376.696 121.151C377.025 121.42 377.315 121.732 377.559 122.079C378.284 122.946 378.927 123.878 379.48 124.863C381.349 128.127 382.274 131.846 382.152 135.605C382.031 139.364 380.868 143.015 378.793 146.152C378.18 147.096 377.481 147.982 376.705 148.797C376.431 149.112 376.12 149.393 375.777 149.632C376.752 148.463 377.66 147.239 378.496 145.967C380.45 142.848 381.542 139.268 381.661 135.59C381.78 131.912 380.922 128.269 379.174 125.03C378.432 123.685 377.604 122.39 376.696 121.151Z" fill="#263238"/>
<path d="M342.676 96.2519C345.054 99.8855 348.13 103.011 351.724 105.449C352.238 105.792 352.846 105.964 353.463 105.942C354.08 105.92 354.675 105.704 355.162 105.325C355.65 104.946 356.006 104.424 356.18 103.831C356.354 103.239 356.337 102.607 356.132 102.024V101.95C360.347 105.181 364.771 108.129 369.375 110.776C370.019 111.153 370.765 111.323 371.509 111.26C372.253 111.198 372.96 110.907 373.532 110.427C374.104 109.948 374.514 109.303 374.705 108.581C374.896 107.859 374.86 107.095 374.6 106.395C369.988 93.7715 360.953 83.2495 349.172 76.7817L342.676 96.2519Z" fill="#8ACEB2"/>
<g opacity="0.3">
<path d="M348.021 96.6973C348.392 97.3395 348.888 97.9011 349.479 98.3492C349.775 98.5696 350.13 98.6991 350.499 98.7222C350.868 98.7452 351.235 98.6608 351.557 98.4792C352.485 97.8574 352.439 96.3447 353.413 95.7693C354.388 95.1939 355.65 96.0199 356.504 96.8273L359.195 99.3979C359.854 100.029 360.745 100.706 361.589 100.326C362.434 99.9455 362.582 98.6369 362.378 97.6532C361.882 95.3582 360.837 93.2178 359.332 91.4156C357.827 89.6133 355.908 88.203 353.738 87.3057L348.021 96.6973Z" fill="black"/>
</g>
<path d="M383.75 118.803C383.78 119.652 384.143 120.454 384.759 121.038C385.375 121.622 386.196 121.941 387.045 121.926C387.894 121.91 388.702 121.562 389.297 120.957C389.892 120.351 390.226 119.536 390.226 118.687C390.226 117.838 389.892 117.023 389.297 116.418C388.702 115.812 387.894 115.464 387.045 115.449C386.196 115.434 385.375 115.752 384.759 116.336C384.143 116.92 383.78 117.723 383.75 118.571" fill="#8ACEB2"/>
<path d="M213.121 6.82686C210.504 10.9009 216.23 25.1369 229.353 43.3635C237.081 54.1237 246.48 63.579 257.194 71.3715L332.865 119.917L345.654 99.9828L353.078 88.4195L365.866 68.4853L297.192 24.4316C290.477 20.1168 283.363 16.456 275.949 13.4994C268.538 10.5047 260.897 8.11194 253.101 6.34428C231.246 1.54635 215.729 2.7528 213.121 6.82686Z" fill="#F5F5F5"/>
<path d="M318.406 38.0644L318.685 37.9716C326.726 35.2727 335.271 34.4152 343.688 35.4625C352.105 36.5098 360.179 39.4352 367.314 44.0224L376.38 49.8412L352.317 59.8175L318.406 38.0644Z" fill="#8ACEB2"/>
<path d="M318.406 38.0643L318.583 38.1756L319.074 38.4819L320.93 39.679L327.993 44.1243L352.391 59.6781H352.261L374.19 50.6205L376.315 49.6925V49.9709L370.979 46.5372C369.216 45.4235 367.508 44.2728 365.773 43.2612C362.459 41.2725 358.951 39.6245 355.305 38.3427C352.012 37.1783 348.616 36.333 345.161 35.8184C343.547 35.5307 341.969 35.4379 340.456 35.2802C338.944 35.1224 337.487 35.1131 336.095 35.1688C331.716 35.1982 327.355 35.7401 323.102 36.7836C321.58 37.1084 320.448 37.5167 319.659 37.7116L318.462 38.055L318.759 37.9436L319.566 37.6281C320.346 37.3961 321.478 36.9692 323 36.6258C327.265 35.531 331.646 34.9545 336.048 34.9089C337.44 34.844 338.906 34.9089 340.428 35.0017C341.95 35.0945 343.528 35.243 345.152 35.5214C348.627 36.0284 352.046 36.8675 355.361 38.0271C359.029 39.3098 362.558 40.9609 365.894 42.955C367.648 43.9758 369.346 45.1173 371.109 46.2402L376.464 49.6925L376.724 49.8595L376.436 49.9802L374.311 50.9082L352.372 59.9937H352.298H352.233L327.817 44.2171L320.856 39.7069L319 38.5097C318.805 38.3798 318.648 38.287 318.536 38.2035L318.406 38.0643Z" fill="#263238"/>
<path d="M285.414 89.5051C285.414 89.5051 285.414 89.6443 285.414 89.7928C286.303 98.11 289.049 106.121 293.448 113.235C297.848 120.349 303.789 126.385 310.833 130.895L319.779 136.64L318.851 110.961L285.414 89.5051Z" fill="#8ACEB2"/>
<path d="M285.415 89.5051L285.564 89.5886L286.028 89.8856L287.884 91.0364L294.788 95.426L318.964 110.831L319.029 110.878V110.943C319.298 118.153 319.595 126.06 319.901 134.348C319.901 135.127 319.957 135.907 319.984 136.621V136.928L319.725 136.761L314.453 133.382C312.727 132.26 311.001 131.202 309.368 130.051C306.205 127.881 303.272 125.394 300.616 122.627C298.215 120.138 296.061 117.421 294.185 114.516C293.257 113.179 292.524 111.787 291.763 110.488C291.002 109.189 290.399 107.88 289.907 106.599C288.131 102.648 286.835 98.4978 286.046 94.2381C285.74 92.7347 285.647 91.5468 285.536 90.7487C285.489 90.3589 285.452 90.0619 285.424 89.8207C285.397 89.5794 285.424 89.5144 285.424 89.5144C285.424 89.6907 285.499 90.0248 285.61 90.7208C285.721 91.4169 285.851 92.7068 286.176 94.201C286.994 98.4502 288.305 102.589 290.083 106.535C290.612 107.806 291.308 109.059 291.939 110.404C292.57 111.75 293.443 113.068 294.361 114.395C296.242 117.28 298.396 119.977 300.793 122.45C303.442 125.194 306.361 127.662 309.507 129.819C311.131 130.951 312.866 132.009 314.593 133.132L319.864 136.51L319.613 136.649C319.613 135.935 319.567 135.155 319.53 134.385C319.233 126.097 318.945 118.181 318.685 110.971L318.75 111.091L294.77 95.6116L287.875 91.1385L286.018 89.9413L285.545 89.6258L285.415 89.5051Z" fill="#263238"/>
<path d="M213.121 6.82671C210.977 9.89849 214.049 19.2067 221.584 31.6609L241.936 4.21893C227.301 2.42783 215.858 2.88257 213.121 6.82671Z" fill="#8ACEB2"/>
<path d="M353.199 61.1166C353.273 61.1723 346.09 72.652 337.153 86.7581C328.216 100.864 320.913 112.279 320.838 112.223C320.764 112.168 327.919 100.734 336.884 86.5911C345.849 72.4479 353.125 61.0702 353.199 61.1166Z" fill="#263238"/>
<path d="M355.343 62.8242C355.418 62.8242 348.235 74.3503 339.298 88.4564C330.361 102.563 323.057 113.977 322.983 113.922C322.909 113.866 330.092 102.405 339.029 88.2894C347.966 74.174 355.269 62.7685 355.343 62.8242Z" fill="#263238"/>
<path d="M357.793 64.3275C357.867 64.3832 350.684 75.863 341.747 89.9691C332.81 104.075 325.506 115.49 325.432 115.434C325.358 115.379 332.541 103.917 341.478 89.802C350.415 75.6867 357.718 64.2811 357.793 64.3275Z" fill="#263238"/>
<path d="M360.241 65.8402C360.316 65.8959 353.123 77.3757 344.196 91.4818C335.268 105.588 327.918 116.993 327.918 116.947C327.918 116.901 335.027 105.43 343.964 91.3147C352.901 77.1993 360.158 65.7938 360.241 65.8402Z" fill="#263238"/>
<path d="M362.683 67.3252C362.758 67.3252 355.575 78.8514 346.638 92.9667C337.701 107.082 330.397 118.478 330.323 118.432C330.249 118.386 337.432 106.915 346.369 92.7997C355.305 78.6843 362.609 67.3252 362.683 67.3252Z" fill="#263238"/>
<path d="M302.025 63.7244C302.025 63.7244 302.165 63.7244 302.415 63.8914C302.666 64.0585 303.018 64.2255 303.482 64.4854C304.41 65.0236 305.7 65.831 307.297 66.8426C310.498 68.8564 314.888 71.6962 319.714 74.8608C324.539 78.0253 328.892 80.9115 332.038 83.0182L335.75 85.5331L336.743 86.2292C336.867 86.299 336.979 86.3866 337.077 86.489C336.948 86.4275 336.824 86.3561 336.706 86.2756L335.676 85.6352L331.908 83.2038L319.565 75.1206L307.204 67.0282L303.492 64.5967C303.046 64.3183 302.703 64.077 302.462 63.9471L302.025 63.7244Z" fill="#263238"/>
<path d="M318.407 38.0644C318.481 38.12 311.224 49.5812 302.204 63.6595C293.183 77.7377 285.805 89.134 285.731 89.0876C285.657 89.0412 292.914 77.58 301.934 63.4924C310.955 49.4049 318.333 38.0179 318.407 38.0644Z" fill="#263238"/>
<path d="M329.626 75.6031C329.58 75.4549 329.58 75.2966 329.626 75.1484C329.69 74.7225 329.9 74.3321 330.22 74.044C330.453 73.8168 330.743 73.6551 331.059 73.5753C331.375 73.4955 331.706 73.5003 332.02 73.5893C332.42 73.6845 332.781 73.9029 333.051 74.2138C333.321 74.5246 333.486 74.9123 333.524 75.3221C333.562 75.732 333.47 76.1434 333.262 76.4985C333.054 76.8535 332.74 77.1343 332.363 77.3014C332.072 77.4477 331.746 77.5145 331.42 77.4949C331.095 77.4754 330.78 77.3702 330.507 77.19C330.148 76.9755 329.868 76.6497 329.709 76.262C329.616 75.9836 329.635 75.8073 329.654 75.8073C329.672 75.8073 329.7 75.965 329.83 76.2156C330.003 76.5645 330.278 76.8526 330.619 77.0416C330.863 77.1816 331.14 77.2552 331.421 77.2552C331.703 77.2552 331.98 77.1816 332.224 77.0416C332.532 76.8907 332.787 76.6495 332.955 76.3502C333.123 76.0508 333.195 75.7075 333.163 75.3659C333.131 75.0243 332.995 74.7006 332.774 74.438C332.554 74.1753 332.258 73.9861 331.927 73.8955C331.661 73.8115 331.377 73.7982 331.104 73.8567C330.83 73.9153 330.577 74.0438 330.368 74.2296C330.071 74.4696 329.851 74.7926 329.737 75.1577C329.654 75.4453 329.654 75.6031 329.626 75.6031Z" fill="#263238"/>
<path d="M315.175 65.9517C315.175 65.9517 315.11 65.794 315.175 65.497C315.239 65.0711 315.449 64.6807 315.769 64.3926C316.003 64.1654 316.293 64.0038 316.609 63.9239C316.925 63.8441 317.256 63.8489 317.57 63.9379C317.97 64.0331 318.331 64.2516 318.6 64.5624C318.87 64.8733 319.036 65.2609 319.074 65.6707C319.111 66.0806 319.02 66.492 318.812 66.8471C318.604 67.2021 318.289 67.483 317.913 67.65C317.621 67.7963 317.296 67.8631 316.97 67.8435C316.644 67.824 316.329 67.7188 316.057 67.5387C315.702 67.3211 315.426 66.996 315.268 66.6106C315.209 66.4669 315.186 66.3105 315.203 66.1559C315.203 66.1559 315.259 66.3137 315.389 66.5642C315.562 66.9132 315.837 67.2012 316.178 67.3902C316.42 67.5303 316.696 67.604 316.976 67.604C317.256 67.604 317.531 67.5303 317.774 67.3902C318.082 67.2401 318.337 66.9997 318.506 66.7009C318.674 66.4022 318.748 66.0593 318.716 65.7178C318.685 65.3764 318.551 65.0525 318.331 64.7892C318.111 64.526 317.817 64.3359 317.486 64.2442C317.218 64.1603 316.933 64.147 316.658 64.2055C316.383 64.264 316.128 64.3924 315.918 64.5783C315.625 64.821 315.409 65.1434 315.296 65.5063C315.203 65.794 315.203 65.9517 315.175 65.9517Z" fill="#263238"/>
<path d="M287.345 59.2327C287.307 59.0835 287.307 58.9272 287.345 58.778C287.416 58.3545 287.624 57.9663 287.939 57.6736C288.178 57.4367 288.477 57.2692 288.804 57.1891C289.131 57.109 289.473 57.1193 289.795 57.2189C290.195 57.3153 290.554 57.5347 290.823 57.8461C291.092 58.1576 291.256 58.5454 291.293 58.9552C291.33 59.3649 291.237 59.7759 291.029 60.1303C290.82 60.4847 290.505 60.7648 290.129 60.931C289.837 61.0773 289.512 61.1441 289.186 61.1245C288.86 61.105 288.545 60.9998 288.273 60.8197C287.915 60.6051 287.638 60.2791 287.484 59.8916C287.382 59.604 287.4 59.4369 287.419 59.4369C287.486 59.5694 287.545 59.7057 287.595 59.8452C287.774 60.1903 288.048 60.4769 288.384 60.6712C288.629 60.8094 288.906 60.8821 289.187 60.8821C289.468 60.8821 289.745 60.8094 289.99 60.6712C290.283 60.5023 290.524 60.2566 290.688 59.9606C290.851 59.6645 290.931 59.3294 290.918 58.9914C290.871 58.6541 290.73 58.337 290.509 58.0773C290.289 57.8176 289.999 57.6261 289.674 57.5252C289.407 57.4412 289.124 57.4278 288.85 57.4863C288.577 57.5449 288.324 57.6734 288.115 57.8593C287.817 58.0993 287.598 58.4223 287.484 58.7873C287.373 59.075 287.373 59.2327 287.345 59.2327Z" fill="#263238"/>
<path d="M274.955 56.1887C275.011 56.1237 280.319 59.047 286.816 62.6849C293.312 66.3228 298.527 69.4131 298.472 69.4874C298.416 69.5616 293.108 66.6291 286.611 62.9912C280.115 59.3533 274.909 56.2908 274.955 56.1887Z" fill="#263238"/>
<g opacity="0.3">
<path d="M317.988 110.395C317.988 110.395 296.365 95.8065 285.414 89.5051C289.191 94.9156 293.544 101.059 298.787 105.068C304.299 109.177 311.147 111.077 317.988 110.395Z" fill="black"/>
</g>
<path d="M282.828 45.9713C285.677 36.2738 280.125 26.1031 270.427 23.2545C260.73 20.4059 250.559 25.958 247.711 35.6556C244.862 45.3531 250.414 55.5237 260.112 58.3724C269.809 61.221 279.98 55.6688 282.828 45.9713Z" fill="white"/>
<path d="M283.56 41.8693C283.548 41.7706 283.548 41.6709 283.56 41.5723C283.56 41.3496 283.56 41.0619 283.56 40.7C283.569 40.2283 283.541 39.7567 283.476 39.2894C283.428 38.6495 283.335 38.0138 283.198 37.3869C282.857 35.6633 282.263 33.9996 281.435 32.4498C280.346 30.3935 278.875 28.5636 277.101 27.0579C274.797 25.0958 272.037 23.7439 269.075 23.1261C266.112 22.5083 263.042 22.6444 260.146 23.5221C258.474 24.0091 256.887 24.751 255.441 25.7215C254.692 26.2165 253.976 26.759 253.297 27.3456C252.639 27.9695 252.019 28.6327 251.441 29.3316C248.984 32.2925 247.54 35.9627 247.322 39.8039C247.103 43.6452 248.12 47.4555 250.225 50.6763C250.711 51.4331 251.244 52.1584 251.821 52.8479C252.427 53.5113 253.078 54.1315 253.77 54.704C255.097 55.8353 256.59 56.7555 258.197 57.4324C261.157 58.7019 264.401 59.1631 267.598 58.7688C270.149 58.4405 272.601 57.5762 274.794 56.2327C276.987 54.8891 278.87 53.0967 280.321 50.9733C281.322 49.5288 282.1 47.9429 282.632 46.2682C282.838 45.6606 283.005 45.0407 283.133 44.4121C283.25 43.9551 283.331 43.4897 283.374 43.02C283.421 42.6674 283.458 42.3797 283.495 42.157C283.501 42.0591 283.52 41.9624 283.551 41.8693C283.559 41.9681 283.559 42.0674 283.551 42.1663C283.551 42.389 283.504 42.6767 283.476 43.0293C283.451 43.5042 283.386 43.9761 283.282 44.4399C283.17 45.0686 283.015 45.6888 282.818 46.296C282.332 48.0111 281.58 49.6395 280.59 51.1218C279.138 53.3026 277.236 55.1483 275.013 56.5358C272.791 57.9233 270.297 58.8206 267.7 59.1678C264.416 59.5961 261.077 59.1379 258.03 57.8407C256.38 57.1518 254.846 56.2128 253.483 55.0566C252.029 53.884 250.775 52.483 249.77 50.9083C248.709 49.2949 247.913 47.5214 247.413 45.6557C246.907 43.7313 246.697 41.741 246.791 39.7534C247.027 35.8187 248.509 32.0613 251.023 29.0253C251.619 28.2983 252.267 27.6159 252.963 26.9836C253.661 26.3846 254.395 25.8298 255.162 25.3225C256.647 24.3352 258.275 23.581 259.988 23.0859C263.161 22.1432 266.529 22.0663 269.742 22.8632C272.284 23.5029 274.661 24.6772 276.714 26.3079C278.768 27.9385 280.45 29.988 281.648 32.3198C282.477 33.8987 283.059 35.5949 283.374 37.3498C283.509 37.9853 283.589 38.631 283.616 39.2801C283.67 39.7513 283.686 40.2262 283.662 40.7C283.662 41.0619 283.662 41.3496 283.662 41.5723C283.641 41.6752 283.606 41.775 283.56 41.8693Z" fill="#263238"/>
<path d="M213.121 6.82673C213.158 6.76576 213.198 6.70689 213.242 6.6504C213.359 6.47156 213.499 6.30925 213.659 6.16782C214.286 5.60555 215.009 5.16213 215.794 4.8593C218.853 3.78041 222.071 3.21899 225.316 3.19812C230.462 3.04021 235.612 3.3165 240.712 4.02407C247.511 4.9154 254.238 6.29241 260.841 8.14453C264.516 9.1963 268.324 10.4337 272.265 11.8567C276.37 13.3496 280.397 15.0501 284.329 16.9516C288.548 19.0066 292.65 21.293 296.616 23.8004L309.219 31.865L365.968 68.2532L366.172 68.3831L366.042 68.5873C360.743 76.8375 355.194 85.4868 349.551 94.3031C343.909 103.119 338.341 111.759 333.042 120.019L332.921 120.223L332.717 120.093L275.949 83.6864L263.365 75.5939L257.388 71.7333C255.43 70.4155 253.621 68.9492 251.82 67.5479C245.37 62.2073 239.438 56.2693 234.104 49.8132C229.804 44.464 225.851 38.844 222.272 32.988C219.534 28.6313 217.13 24.074 215.079 19.3552C213.713 16.4233 212.833 13.2891 212.472 10.0748C212.406 9.23628 212.498 8.3929 212.741 7.58771C212.805 7.3821 212.895 7.18561 213.01 7.00305C213.04 6.93751 213.078 6.87531 213.121 6.81745C212.982 7.06453 212.87 7.32589 212.787 7.59699C212.565 8.39975 212.49 9.23601 212.564 10.0656C212.954 13.2819 213.856 16.4151 215.237 19.3459C217.314 24.0419 219.736 28.577 222.485 32.9137C226.088 38.7272 230.055 44.3066 234.364 49.6183C239.701 56.0403 245.633 61.9441 252.08 67.2509C253.825 68.6708 255.644 70.1093 257.574 71.3992L263.588 75.2506L276.181 83.3244L332.958 119.703L332.624 119.778L349.124 94.0618L365.616 68.346L365.69 68.6801L308.959 32.2548L296.366 24.1809C292.417 21.673 288.334 19.3835 284.134 17.3228C280.079 15.3368 276.051 13.6756 272.135 12.2186C268.219 10.7616 264.414 9.49946 260.748 8.45078C254.168 6.58282 247.463 5.18723 240.684 4.27464C235.602 3.53823 230.468 3.22781 225.334 3.34661C222.105 3.35181 218.898 3.88471 215.84 4.92426C215.059 5.21443 214.333 5.63837 213.697 6.1771C213.489 6.37921 213.297 6.59634 213.121 6.82673Z" fill="#263238"/>
<path d="M288.054 216.897H126.883C121.83 216.897 116.983 214.889 113.41 211.316C109.837 207.743 107.83 202.897 107.83 197.844C107.83 192.791 109.837 187.945 113.41 184.372C116.983 180.799 121.83 178.792 126.883 178.792H288.054C293.107 178.792 297.953 180.799 301.526 184.372C305.099 187.945 307.106 192.791 307.106 197.844C307.106 202.897 305.099 207.743 301.526 211.316C297.953 214.889 293.107 216.897 288.054 216.897Z" fill="white"/>
<path d="M288.055 216.896L289.187 216.813C289.654 216.805 290.12 216.758 290.579 216.674C291.221 216.593 291.856 216.473 292.482 216.312L293.614 216.015C294.004 215.885 294.403 215.727 294.83 215.569L295.479 215.328L296.138 215.003C296.609 214.796 297.064 214.557 297.503 214.289C299.646 213.055 301.522 211.409 303.024 209.444C303.473 208.884 303.879 208.292 304.24 207.672C304.637 207.033 304.988 206.366 305.289 205.677C305.614 204.957 305.899 204.219 306.143 203.468C306.245 203.078 306.347 202.688 306.449 202.28L306.607 201.677L306.699 201.055L306.894 199.783L306.95 198.484V197.816V197.148C306.95 196.693 306.95 196.22 306.866 195.784C306.637 193.892 306.14 192.042 305.391 190.29C303.67 186.41 300.714 183.209 296.983 181.186C294.962 180.106 292.76 179.404 290.487 179.116C288.148 178.856 285.689 178.986 283.192 178.958L126.921 179.033C125.036 179.058 123.164 179.336 121.353 179.859C119.574 180.434 117.882 181.249 116.323 182.281C114.806 183.328 113.438 184.577 112.258 185.993C111.111 187.435 110.174 189.031 109.474 190.735C108.798 192.436 108.361 194.223 108.175 196.044C108.025 197.851 108.119 199.671 108.453 201.454C109.152 204.992 110.857 208.252 113.362 210.846C115.818 213.401 118.95 215.207 122.392 216.052C123.235 216.262 124.09 216.417 124.953 216.516C125.826 216.516 126.68 216.637 127.561 216.618H153.082L223.343 216.674L270.673 216.748L283.554 216.794H286.904H288.046H286.904H283.554H270.673L223.343 216.878L153.082 216.924H127.561C126.689 216.924 125.789 216.859 124.907 216.822C124.022 216.72 123.145 216.562 122.281 216.349C118.744 215.49 115.526 213.642 113 211.022C111.731 209.698 110.651 208.205 109.789 206.586C108.938 204.946 108.314 203.197 107.933 201.389C107.593 199.554 107.499 197.681 107.655 195.821C108.008 192.048 109.463 188.462 111.84 185.51C114.251 182.516 117.502 180.312 121.176 179.181C123.025 178.641 124.939 178.354 126.865 178.327L283.137 178.392C285.633 178.392 288.074 178.3 290.468 178.578C292.792 178.864 295.043 179.582 297.103 180.694C300.889 182.76 303.882 186.024 305.614 189.974C306.369 191.75 306.865 193.625 307.089 195.542C307.135 196.006 307.135 196.47 307.163 196.925V197.603V198.271C307.163 198.716 307.117 199.199 307.098 199.598C307.08 199.997 306.959 200.461 306.894 200.879L306.801 201.51L306.644 202.122C306.532 202.53 306.43 202.93 306.328 203.319C306.022 204.08 305.818 204.86 305.456 205.556C305.144 206.251 304.784 206.924 304.379 207.57C304.01 208.189 303.597 208.781 303.145 209.342C301.629 211.315 299.736 212.968 297.577 214.205C297.129 214.466 296.668 214.701 296.194 214.91L295.526 215.226L294.876 215.467C294.44 215.625 294.041 215.783 293.642 215.903L292.51 216.191C291.878 216.35 291.236 216.465 290.589 216.534C290.128 216.609 289.663 216.649 289.197 216.655L288.055 216.896Z" fill="#263238"/>
<path d="M286.744 202.803C290.056 199.49 290.056 194.12 286.743 190.807C283.431 187.495 278.06 187.495 274.748 190.807C271.435 194.12 271.435 199.49 274.748 202.803C278.06 206.116 283.431 206.116 286.744 202.803Z" fill="white"/>
<path d="M280.745 205.742C278.974 205.743 277.243 205.22 275.771 204.238C274.298 203.255 273.15 201.858 272.472 200.223C271.794 198.588 271.616 196.789 271.961 195.052C272.305 193.316 273.158 191.721 274.409 190.469C275.661 189.218 277.256 188.365 278.992 188.021C280.729 187.676 282.528 187.854 284.163 188.532C285.798 189.21 287.195 190.358 288.178 191.831C289.16 193.304 289.683 195.034 289.682 196.805C289.679 199.174 288.737 201.446 287.061 203.121C285.386 204.797 283.114 205.739 280.745 205.742ZM280.745 188.786C279.158 188.785 277.607 189.253 276.287 190.133C274.968 191.013 273.938 192.265 273.33 193.73C272.722 195.195 272.562 196.807 272.87 198.363C273.178 199.919 273.941 201.349 275.062 202.471C276.183 203.593 277.612 204.358 279.168 204.668C280.723 204.978 282.336 204.82 283.802 204.213C285.267 203.607 286.52 202.579 287.402 201.26C288.283 199.941 288.753 198.391 288.753 196.805C288.753 194.68 287.91 192.642 286.408 191.138C284.907 189.635 282.87 188.789 280.745 188.786Z" fill="#263238"/>
<path d="M287.828 201.425L287.332 202.21L294.512 206.744L295.007 205.959L287.828 201.425Z" fill="#263238"/>
<path d="M134.596 200.961L135.292 199.402C136.157 199.999 137.182 200.322 138.234 200.33C139.449 200.33 139.95 199.931 139.95 199.402C139.95 197.732 134.772 198.873 134.772 195.57C134.772 194.057 135.997 192.785 138.484 192.785C139.566 192.761 140.634 193.03 141.575 193.565L140.943 195.133C140.195 194.69 139.344 194.45 138.475 194.437C137.25 194.437 136.786 194.892 136.786 195.449C136.786 197.092 141.955 195.959 141.955 199.226C141.955 200.72 140.721 202.01 138.178 202.01C136.906 202.025 135.659 201.66 134.596 200.961Z" fill="#263238"/>
<path d="M149.926 198.948H144.747C144.86 199.371 145.117 199.741 145.476 199.992C145.834 200.244 146.27 200.36 146.706 200.322C147.022 200.335 147.337 200.284 147.632 200.17C147.928 200.057 148.197 199.884 148.422 199.663L149.48 200.804C149.124 201.179 148.69 201.471 148.21 201.662C147.729 201.853 147.213 201.937 146.696 201.908C144.33 201.908 142.789 200.424 142.789 198.391C142.784 197.915 142.875 197.444 143.059 197.005C143.242 196.566 143.514 196.169 143.856 195.838C144.199 195.508 144.605 195.251 145.05 195.084C145.496 194.917 145.971 194.842 146.446 194.865C146.918 194.839 147.391 194.914 147.833 195.083C148.275 195.252 148.677 195.512 149.012 195.846C149.347 196.18 149.608 196.581 149.778 197.023C149.949 197.465 150.024 197.937 150 198.41C149.963 198.568 149.935 198.781 149.926 198.948ZM144.729 197.788H148.098C148.031 197.389 147.826 197.027 147.517 196.766C147.209 196.504 146.818 196.361 146.413 196.361C146.009 196.361 145.618 196.504 145.309 196.766C145.001 197.027 144.795 197.389 144.729 197.788Z" fill="#263238"/>
<path d="M157.156 197.899V201.806H155.3V200.962C155.066 201.288 154.75 201.546 154.383 201.71C154.015 201.873 153.611 201.935 153.212 201.89C151.616 201.89 150.66 200.962 150.66 199.82C150.66 198.679 151.514 197.769 153.593 197.769H155.17C155.17 196.915 154.66 196.423 153.593 196.423C152.886 196.417 152.196 196.639 151.625 197.055L150.911 195.672C151.79 195.108 152.818 194.82 153.862 194.846C155.941 194.864 157.156 195.83 157.156 197.899ZM155.17 199.644V198.948H153.815C152.887 198.948 152.59 199.291 152.59 199.746C152.59 200.201 153.008 200.572 153.713 200.572C154.022 200.591 154.329 200.511 154.589 200.344C154.849 200.177 155.049 199.932 155.161 199.644H155.17Z" fill="#263238"/>
<path d="M163.188 194.865V196.721H162.742C162.488 196.691 162.229 196.721 161.987 196.807C161.746 196.892 161.527 197.033 161.347 197.216C161.168 197.4 161.033 197.622 160.954 197.866C160.874 198.11 160.851 198.369 160.886 198.623V201.853H158.9V195.013H160.756V195.941C161.04 195.573 161.411 195.282 161.835 195.094C162.26 194.906 162.725 194.827 163.188 194.865Z" fill="#263238"/>
<path d="M163.789 198.391C163.789 197.903 163.89 197.42 164.085 196.973C164.281 196.526 164.566 196.124 164.925 195.793C165.283 195.462 165.706 195.208 166.167 195.049C166.628 194.889 167.117 194.826 167.603 194.864C168.23 194.814 168.858 194.953 169.404 195.264C169.95 195.576 170.39 196.044 170.666 196.609L169.135 197.435C168.989 197.153 168.768 196.917 168.496 196.753C168.224 196.589 167.912 196.504 167.594 196.507C167.091 196.507 166.608 196.707 166.252 197.063C165.896 197.419 165.696 197.902 165.696 198.405C165.696 198.908 165.896 199.391 166.252 199.747C166.608 200.103 167.091 200.303 167.594 200.303C167.912 200.31 168.226 200.227 168.499 200.062C168.772 199.898 168.992 199.66 169.135 199.375L170.666 200.219C170.383 200.778 169.941 201.239 169.396 201.547C168.851 201.854 168.227 201.993 167.603 201.945C167.115 201.984 166.623 201.921 166.16 201.759C165.697 201.598 165.273 201.342 164.914 201.007C164.556 200.673 164.27 200.268 164.077 199.817C163.883 199.367 163.785 198.881 163.789 198.391Z" fill="#263238"/>
<path d="M178.761 197.89V201.806H176.775V198.178C176.775 197.073 176.265 196.563 175.383 196.563C174.501 196.563 173.75 197.148 173.75 198.419V201.797H171.764V192.368H173.75V195.681C174.038 195.406 174.379 195.192 174.752 195.052C175.125 194.912 175.523 194.848 175.921 194.865C177.573 194.865 178.761 195.802 178.761 197.89Z" fill="#263238"/>
<path d="M180.061 200.665C180.061 200.338 180.191 200.024 180.422 199.792C180.654 199.561 180.967 199.431 181.295 199.431C181.622 199.431 181.936 199.561 182.168 199.792C182.399 200.024 182.529 200.338 182.529 200.665C182.529 200.827 182.497 200.988 182.435 201.137C182.373 201.287 182.282 201.423 182.168 201.538C182.053 201.652 181.917 201.743 181.767 201.805C181.617 201.867 181.457 201.899 181.295 201.899C181.133 201.899 180.972 201.867 180.823 201.805C180.673 201.743 180.537 201.652 180.422 201.538C180.307 201.423 180.217 201.287 180.155 201.137C180.092 200.988 180.061 200.827 180.061 200.665Z" fill="#263238"/>
<path d="M183.391 200.665C183.391 200.338 183.521 200.024 183.752 199.792C183.984 199.561 184.298 199.431 184.625 199.431C184.952 199.431 185.266 199.561 185.498 199.792C185.729 200.024 185.859 200.338 185.859 200.665C185.859 200.992 185.729 201.306 185.498 201.538C185.266 201.769 184.952 201.899 184.625 201.899C184.298 201.899 183.984 201.769 183.752 201.538C183.521 201.306 183.391 200.992 183.391 200.665Z" fill="#263238"/>
<path d="M186.725 200.665C186.725 200.338 186.855 200.024 187.086 199.792C187.318 199.561 187.632 199.431 187.959 199.431C188.286 199.431 188.6 199.561 188.832 199.792C189.063 200.024 189.193 200.338 189.193 200.665C189.193 200.992 189.063 201.306 188.832 201.538C188.6 201.769 188.286 201.899 187.959 201.899C187.632 201.899 187.318 201.769 187.086 201.538C186.855 201.306 186.725 200.992 186.725 200.665Z" fill="#263238"/>
<path d="M73.5588 66.4715L43.639 50.6949C43.1472 50.4361 42.7112 50.0827 42.3562 49.6551C42.0013 49.2274 41.7342 48.7338 41.5704 48.2027C41.4066 47.6716 41.3492 47.1134 41.4016 46.56C41.454 46.0067 41.6152 45.4692 41.8758 44.9783L63.7402 3.53233C64.2668 2.54029 65.1646 1.79701 66.2375 1.46488C67.3104 1.13275 68.4712 1.23878 69.4662 1.75979L88.4816 11.7825L95.1727 34.6771L79.2847 64.6989C78.7582 65.691 77.8603 66.4343 76.7874 66.7664C75.7145 67.0985 74.5538 66.9925 73.5588 66.4715Z" fill="#8ACEB2"/>
<g opacity="0.3">
<path d="M88.4822 11.7825L82.32 23.4386C81.8347 24.3634 81.735 25.4427 82.0427 26.4408C82.3505 27.4389 83.0407 28.2746 83.9627 28.7655L95.1733 34.677L88.4822 11.7825Z" fill="white"/>
</g>
<g opacity="0.2">
<path d="M81.8999 24.543C81.4402 25.4295 81.2972 26.4466 81.4947 27.4255C81.6922 28.4045 82.2182 29.2865 82.9857 29.9256L83.3105 30.1947C84.6376 31.2341 93.3611 38.0366 93.5189 37.8138C93.6766 37.5911 95.1708 34.6771 95.1708 34.6771L83.9601 28.7655C83.9601 28.7655 81.176 27.1879 81.8999 24.543Z" fill="black"/>
</g>
<path d="M80.0279 21.6381C79.9444 21.7866 76.7891 20.2739 72.9656 18.2508C69.1421 16.2277 66.1074 14.483 66.2095 14.3252C66.3116 14.1674 69.4576 15.6894 73.2811 17.7125C77.1046 19.7356 80.13 21.4896 80.0279 21.6381Z" fill="#FAFAFA"/>
<path d="M85.4832 32.988C85.409 33.1365 80.2398 30.5659 73.9478 27.2435C67.6557 23.9211 62.6258 21.0721 62.7 20.9236C62.7743 20.7751 67.9434 23.3458 74.2355 26.6681C80.5275 29.9905 85.5667 32.8024 85.4832 32.988Z" fill="#FAFAFA"/>
<path d="M84.63 39.5399C84.5558 39.6883 78.9319 36.8764 72.0737 33.2478C65.2156 29.6192 59.7123 26.5752 59.7959 26.4268C59.8794 26.2783 65.5033 29.0902 72.3614 32.7095C79.2196 36.3289 84.7135 39.3914 84.63 39.5399Z" fill="#FAFAFA"/>
<path d="M81.8937 44.7276C81.8102 44.8761 76.1863 42.0641 69.3281 38.4448C62.47 34.8255 56.976 31.763 57.0595 31.6145C57.1431 31.466 62.7577 34.278 69.6158 37.8973C76.474 41.5166 81.9865 44.5791 81.8937 44.7276Z" fill="#FAFAFA"/>
<path d="M79.1454 49.9246C79.0712 50.0731 73.4473 47.2612 66.5892 43.6325C59.731 40.0039 54.237 36.96 54.3113 36.8115C54.3855 36.663 60.0187 39.4842 66.8769 43.0943C73.735 46.7043 79.2011 49.7761 79.1454 49.9246Z" fill="#FAFAFA"/>
<path d="M76.4171 55.1124C76.3336 55.2609 70.7097 52.4489 63.8608 48.8296C57.012 45.2103 51.4994 42.1478 51.583 41.9993C51.6665 41.8508 57.2811 44.6627 64.1392 48.2821C70.9974 51.9014 76.4914 54.9639 76.4171 55.1124Z" fill="#FAFAFA"/>
<path d="M221.043 377.864C219.777 377.682 218.635 377.006 217.868 375.982C217.1 374.959 216.77 373.673 216.951 372.407L222.918 330.887C223.105 329.843 223.699 328.916 224.569 328.309C225.439 327.702 226.513 327.464 227.558 327.648L231.456 328.214C232.217 328.332 232.997 328.236 233.708 327.938C234.419 327.64 235.033 327.151 235.483 326.525L236.569 324.938C237.019 324.312 237.634 323.823 238.345 323.525C239.055 323.227 239.835 323.131 240.597 323.249L259.157 325.913C259.856 326.005 260.519 326.273 261.087 326.689C261.654 327.106 262.108 327.659 262.406 328.298L263.111 329.875C263.408 330.512 263.86 331.065 264.426 331.481C264.992 331.898 265.653 332.166 266.35 332.26L289.968 335.657C291.021 335.774 291.985 336.303 292.648 337.13C293.311 337.956 293.619 339.012 293.504 340.065L287.397 382.523C287.308 383.149 287.095 383.752 286.772 384.296C286.449 384.841 286.022 385.316 285.515 385.695C285.009 386.075 284.432 386.35 283.819 386.506C283.205 386.663 282.567 386.696 281.941 386.606L221.043 377.864Z" fill="#455A64"/>
<g opacity="0.3">
<path d="M221.043 377.864C219.777 377.682 218.635 377.006 217.868 375.982C217.1 374.959 216.77 373.673 216.951 372.407L222.918 330.887C223.105 329.843 223.699 328.916 224.569 328.309C225.439 327.702 226.513 327.464 227.558 327.648L231.456 328.214C232.217 328.332 232.997 328.236 233.708 327.938C234.419 327.64 235.033 327.151 235.483 326.525L236.569 324.938C237.019 324.312 237.634 323.823 238.345 323.525C239.055 323.227 239.835 323.131 240.597 323.249L259.157 325.913C259.856 326.005 260.519 326.273 261.087 326.689C261.654 327.106 262.108 327.659 262.406 328.298L263.111 329.875C263.408 330.512 263.86 331.065 264.426 331.481C264.992 331.898 265.653 332.166 266.35 332.26L289.968 335.657C291.021 335.774 291.985 336.303 292.648 337.13C293.311 337.956 293.619 339.012 293.504 340.065L287.397 382.523C287.308 383.149 287.095 383.752 286.772 384.296C286.449 384.841 286.022 385.316 285.515 385.695C285.009 386.075 284.432 386.35 283.819 386.506C283.205 386.663 282.567 386.696 281.941 386.606L221.043 377.864Z" fill="black"/>
</g>
<path d="M263.984 331.935L248.969 329.736L247.985 327.035C247.647 326.153 247.077 325.379 246.336 324.794C245.594 324.209 244.708 323.836 243.772 323.713L229.09 321.606C227.886 321.392 226.646 321.662 225.64 322.357C224.634 323.052 223.943 324.116 223.717 325.318L223.476 327.035L216.979 372.11C216.831 373.494 217.235 374.882 218.104 375.97C218.973 377.058 220.236 377.758 221.62 377.919L281.301 386.568C282.674 386.809 284.087 386.496 285.229 385.697C286.372 384.899 287.152 383.681 287.399 382.309L293.524 339.731C293.59 339.279 293.567 338.818 293.455 338.376C293.344 337.933 293.145 337.517 292.872 337.151C292.598 336.785 292.255 336.477 291.862 336.245C291.469 336.012 291.034 335.859 290.582 335.796L263.984 331.935Z" fill="#455A64"/>
<path d="M276.045 350.459L240.541 345.355L238.394 360.292L273.898 365.395L276.045 350.459Z" fill="white"/>
<path d="M269.608 356.268C269.608 356.398 264.114 355.721 257.376 354.755C250.639 353.79 245.191 352.899 245.219 352.76C245.247 352.621 250.713 353.308 257.45 354.273C264.188 355.238 269.626 356.138 269.608 356.268Z" fill="#263238"/>
<path d="M269.152 359.451C269.152 359.581 263.658 358.904 256.92 357.939C250.183 356.974 244.735 356.083 244.754 355.943C244.773 355.804 250.248 356.491 256.985 357.456C263.723 358.421 269.17 359.322 269.152 359.451Z" fill="#263238"/>
<path d="M328.779 359.414C328.388 359.562 327.973 359.631 327.555 359.617C327.138 359.603 326.728 359.508 326.347 359.335C325.967 359.163 325.625 358.917 325.34 358.612C325.055 358.307 324.833 357.949 324.686 357.558L314.849 331.852C314.736 331.526 314.689 331.182 314.71 330.838C314.731 330.495 314.819 330.158 314.97 329.849C315.121 329.539 315.331 329.263 315.589 329.035C315.847 328.807 316.147 328.632 316.473 328.52L318.886 327.592C319.358 327.412 319.773 327.108 320.085 326.71C320.397 326.313 320.596 325.838 320.659 325.337L320.77 324.084C320.827 323.581 321.023 323.103 321.336 322.705C321.649 322.306 322.067 322.003 322.542 321.829L334.013 317.43C334.444 317.263 334.91 317.207 335.368 317.265C335.827 317.323 336.264 317.495 336.639 317.764L337.567 318.442C337.942 318.709 338.377 318.88 338.834 318.938C339.29 318.997 339.755 318.941 340.184 318.776L354.81 313.208C355.453 312.939 356.176 312.935 356.821 313.198C357.466 313.46 357.981 313.968 358.253 314.609L368.313 340.9C368.462 341.29 368.532 341.706 368.519 342.124C368.506 342.542 368.41 342.953 368.238 343.333C368.065 343.713 367.819 344.056 367.513 344.341C367.208 344.626 366.849 344.847 366.457 344.993L328.779 359.414Z" fill="#8ACEB2"/>
<g opacity="0.3">
<path d="M328.777 359.414C328.386 359.562 327.971 359.631 327.553 359.617C327.136 359.603 326.726 359.508 326.346 359.335C325.965 359.163 325.623 358.917 325.338 358.612C325.053 358.307 324.831 357.949 324.684 357.558L314.847 331.852C314.735 331.526 314.687 331.182 314.708 330.838C314.729 330.495 314.817 330.158 314.968 329.849C315.119 329.539 315.329 329.263 315.587 329.035C315.845 328.807 316.146 328.632 316.471 328.52L318.884 327.592C319.356 327.412 319.771 327.108 320.083 326.71C320.395 326.313 320.594 325.838 320.657 325.337L320.768 324.084C320.825 323.581 321.021 323.103 321.334 322.705C321.647 322.306 322.065 322.003 322.541 321.829L334.011 317.43C334.442 317.263 334.908 317.207 335.366 317.265C335.825 317.323 336.262 317.495 336.637 317.764L337.565 318.442C337.94 318.709 338.375 318.88 338.832 318.938C339.289 318.997 339.753 318.941 340.182 318.776L354.808 313.208C355.451 312.939 356.174 312.935 356.819 313.198C357.464 313.46 357.979 313.968 358.251 314.609L368.311 340.9C368.46 341.29 368.53 341.706 368.517 342.124C368.504 342.542 368.408 342.953 368.236 343.333C368.063 343.713 367.817 344.056 367.511 344.341C367.206 344.626 366.847 344.847 366.455 344.993L328.777 359.414Z" fill="black"/>
</g>
<path d="M338.726 319.351L329.446 322.896L328.017 321.662C327.544 321.262 326.97 320.999 326.359 320.901C325.747 320.803 325.12 320.874 324.546 321.105L315.451 324.585C314.693 324.854 314.073 325.412 313.725 326.137C313.377 326.862 313.331 327.696 313.595 328.455L314.004 329.513L324.685 357.428C325.044 358.272 325.72 358.939 326.568 359.287C327.416 359.634 328.367 359.633 329.214 359.284L366.159 345.141C367.026 344.842 367.739 344.21 368.141 343.385C368.543 342.561 368.601 341.61 368.303 340.742L358.206 314.368C357.988 313.803 357.555 313.348 357.001 313.102C356.448 312.857 355.819 312.841 355.255 313.059L338.726 319.351Z" fill="#8ACEB2"/>
<path d="M351.56 326.1L329.572 334.518L333.113 343.765L355.101 335.347L351.56 326.1Z" fill="white"/>
<path d="M349.724 331.508C347.299 332.699 344.804 333.74 342.253 334.626C339.764 335.669 337.213 336.558 334.615 337.29C337.029 336.11 339.508 335.069 342.039 334.172C344.546 333.133 347.112 332.243 349.724 331.508Z" fill="#263238"/>
<path d="M350.476 333.485C348.063 334.663 345.584 335.701 343.052 336.594C340.536 337.629 337.961 338.512 335.34 339.239C337.764 338.048 340.259 337.007 342.81 336.121C345.31 335.088 347.87 334.208 350.476 333.485Z" fill="#263238"/>
<path d="M365.818 375.432C366.738 375.875 367.56 376.497 368.235 377.262C368.911 378.027 369.427 378.919 369.753 379.887C370.384 381.834 370.562 383.901 370.273 385.928C369.827 389.844 367.6 393.807 365.206 396.935C361.902 394.058 361.141 389.028 360.918 386.457C360.565 382.392 362.394 374.829 365.818 375.432Z" fill="#8ACEB2"/>
<path d="M369.039 403.412C368.816 402.291 368.892 401.131 369.261 400.05C369.629 398.968 370.276 398.002 371.137 397.25C372.01 396.516 373.022 395.962 374.112 395.623C375.202 395.284 376.348 395.165 377.484 395.273C378.012 395.264 378.535 395.372 379.017 395.588C379.498 395.805 379.925 396.125 380.269 396.526C380.513 396.949 380.642 397.43 380.642 397.918C380.642 398.407 380.513 398.887 380.269 399.31C379.767 400.164 379.05 400.872 378.19 401.361C375.331 403.152 372.241 404.368 369.002 403.394" fill="#8ACEB2"/>
<path d="M364.805 415.43C364.822 415.158 364.862 414.888 364.925 414.623C365.027 414.057 365.157 413.323 365.324 412.451C365.694 410.025 366.452 407.675 367.57 405.491C368.732 403.314 370.452 401.485 372.554 400.192C373.195 399.802 373.88 399.491 374.595 399.264C374.846 399.18 375.041 399.152 375.18 399.115C375.248 399.103 375.317 399.103 375.384 399.115C374.439 399.443 373.528 399.863 372.665 400.368C370.632 401.685 368.966 403.495 367.821 405.63C366.717 407.789 365.942 410.101 365.519 412.488C365.324 413.416 365.157 414.14 365.037 414.651C364.982 414.917 364.904 415.177 364.805 415.43Z" fill="#263238"/>
<path d="M364.937 381.325C364.947 381.443 364.947 381.561 364.937 381.678L364.993 382.689C365.039 383.562 365.095 384.833 365.141 386.402C365.243 389.548 365.327 393.881 365.308 398.679C365.29 403.477 365.169 407.811 365.039 410.957C364.974 412.526 364.909 413.797 364.854 414.669C364.854 415.087 364.854 415.421 364.789 415.681C364.802 415.798 364.802 415.916 364.789 416.034C364.779 415.913 364.779 415.792 364.789 415.672V414.66C364.789 413.732 364.844 412.489 364.881 410.948C364.965 407.811 365.048 403.468 365.067 398.679C365.086 393.891 365.067 389.548 364.993 386.411C364.993 384.87 364.946 383.627 364.928 382.699V381.687C364.916 381.567 364.919 381.445 364.937 381.325Z" fill="#263238"/>
<path d="M363.331 405.797C362.939 403.415 361.983 401.162 360.543 399.225C359.103 397.287 357.22 395.723 355.052 394.661C353.948 394.132 352.51 393.789 351.609 394.605C350.709 395.422 350.904 396.897 351.35 398.039C352.323 400.403 353.971 402.427 356.089 403.858C358.207 405.289 360.7 406.064 363.256 406.085" fill="#8ACEB2"/>
<path d="M355.588 398.41C355.83 398.488 356.064 398.591 356.284 398.716C356.558 398.845 356.824 398.988 357.083 399.143C357.37 399.329 357.732 399.505 358.085 399.774C358.485 400.039 358.87 400.327 359.236 400.637C359.662 400.988 360.071 401.36 360.461 401.751C361.349 402.66 362.133 403.666 362.799 404.749C363.439 405.844 363.953 407.008 364.331 408.219C364.49 408.75 364.62 409.289 364.72 409.834C364.813 410.306 364.878 410.784 364.915 411.263C364.955 411.658 364.974 412.055 364.971 412.451C364.993 412.76 364.993 413.07 364.971 413.379C364.966 413.635 364.938 413.89 364.887 414.14C364.822 414.14 364.934 413.054 364.739 411.356C364.692 410.885 364.618 410.417 364.516 409.955C364.423 409.444 364.266 408.925 364.108 408.368C363.349 405.983 362.047 403.806 360.303 402.011C359.928 401.618 359.532 401.246 359.115 400.897C358.759 400.584 358.388 400.29 358.001 400.016C356.554 398.921 355.561 398.466 355.588 398.41Z" fill="#263238"/>
<path d="M88.2067 389.946L87.6406 416.933L123.166 417.769C123.045 414.558 104.837 407.681 104.837 407.681L105.951 390.41L88.2067 389.946Z" fill="#455A64"/>
<g opacity="0.6">
<path d="M93.8848 405.974C93.55 406.054 93.2575 406.256 93.065 406.541C92.8725 406.827 92.7941 407.174 92.8454 407.514C92.9393 407.851 93.1566 408.14 93.4541 408.324C93.7516 408.508 94.1075 408.574 94.4509 408.507C94.6365 408.483 94.8146 408.418 94.9732 408.319C95.1318 408.219 95.2673 408.087 95.3704 407.931C95.4735 407.775 95.5419 407.598 95.5709 407.413C95.5999 407.228 95.5889 407.039 95.5386 406.859C95.4883 406.678 95.4 406.511 95.2794 406.368C95.1589 406.224 95.009 406.109 94.8399 406.028C94.6709 405.948 94.4865 405.905 94.2993 405.902C94.1121 405.899 93.9265 405.936 93.7549 406.011" fill="white"/>
</g>
<g opacity="0.6">
<path d="M87.6406 416.934L87.817 414.215L121.811 416.071C121.811 416.071 123.37 416.757 123.166 417.806L87.6406 416.934Z" fill="white"/>
</g>
<path d="M105.411 407.523C105.411 407.69 104.538 407.746 103.666 408.256C102.794 408.767 102.33 409.435 102.172 409.37C102.014 409.305 102.292 408.358 103.36 407.764C104.427 407.171 105.457 407.375 105.411 407.523Z" fill="#263238"/>
<path d="M109.105 409.073C109.105 409.231 108.381 409.491 107.769 410.168C107.156 410.846 106.971 411.579 106.841 411.569C106.711 411.56 106.581 410.641 107.351 409.797C108.122 408.952 109.105 408.915 109.105 409.073Z" fill="#263238"/>
<path d="M111.11 413.333C110.952 413.333 110.73 412.544 111.194 411.653C111.658 410.762 112.484 410.428 112.558 410.567C112.632 410.706 112.112 411.17 111.741 411.903C111.37 412.637 111.277 413.323 111.11 413.333Z" fill="#263238"/>
<path d="M105.188 403.561C105.114 403.709 104.316 403.468 103.332 403.505C102.348 403.542 101.578 403.82 101.476 403.681C101.374 403.542 102.144 402.967 103.332 402.939C104.52 402.911 105.29 403.44 105.188 403.561Z" fill="#263238"/>
<path d="M104.465 399.561C103.877 399.698 103.264 399.682 102.683 399.514C102.044 399.391 101.422 399.195 100.827 398.93C100.482 398.772 100.147 398.592 99.8251 398.392C99.629 398.283 99.4506 398.145 99.2961 397.983C99.1853 397.868 99.119 397.717 99.1088 397.557C99.0986 397.398 99.1452 397.239 99.2405 397.111C99.3307 396.993 99.4477 396.899 99.5817 396.836C99.7157 396.773 99.8628 396.743 100.011 396.749C100.234 396.754 100.455 396.789 100.67 396.851C101.049 396.947 101.418 397.078 101.774 397.241C102.362 397.506 102.904 397.863 103.379 398.299C104.187 399.032 104.456 399.654 104.391 399.682C104.326 399.709 103.927 399.217 103.101 398.596C102.619 398.239 102.096 397.943 101.542 397.714C101.209 397.586 100.868 397.48 100.521 397.399C100.15 397.296 99.8344 397.287 99.7323 397.399C99.6302 397.51 99.7323 397.482 99.7323 397.593C99.8448 397.71 99.9728 397.81 100.113 397.89C100.413 398.082 100.723 398.259 101.041 398.419C101.587 398.694 102.159 398.915 102.748 399.078C103.332 399.197 103.906 399.358 104.465 399.561Z" fill="#263238"/>
<path d="M104.261 399.793C103.94 399.311 103.79 398.736 103.834 398.159C103.814 397.528 103.912 396.899 104.121 396.303C104.248 395.951 104.41 395.612 104.604 395.292C104.713 395.068 104.877 394.876 105.079 394.732C105.282 394.587 105.517 394.496 105.764 394.466C105.919 394.473 106.07 394.523 106.199 394.61C106.328 394.696 106.431 394.817 106.497 394.958C106.584 395.155 106.638 395.365 106.655 395.579C106.716 395.954 106.716 396.337 106.655 396.712C106.536 397.342 106.262 397.932 105.857 398.429C105.133 399.282 104.409 399.459 104.391 399.403C104.372 399.347 104.947 399.022 105.504 398.197C105.82 397.725 106.026 397.189 106.107 396.628C106.158 396.305 106.158 395.977 106.107 395.654C106.107 395.301 105.931 395.004 105.792 395.041C105.653 395.078 105.3 395.292 105.152 395.579C104.968 395.874 104.813 396.184 104.688 396.507C104.474 397.041 104.342 397.605 104.298 398.178C104.159 399.152 104.326 399.765 104.261 399.793Z" fill="#263238"/>
<path d="M61.2815 392.192L57.857 418.966L22.5918 414.586C23.1857 411.43 42.2011 407.301 42.2011 407.301L43.6303 390.049L61.2815 392.192Z" fill="#455A64"/>
<g opacity="0.6">
<path d="M53.3208 407.208C53.6419 407.335 53.9033 407.578 54.0529 407.89C54.2026 408.201 54.2294 408.557 54.1281 408.887C53.9833 409.205 53.7252 409.457 53.4042 409.595C53.0832 409.732 52.7225 409.745 52.3927 409.63C52.0515 409.496 51.7741 409.238 51.6171 408.906C51.4602 408.575 51.4355 408.197 51.5482 407.848C51.734 407.542 52.0247 407.314 52.3662 407.206C52.7077 407.099 53.0766 407.119 53.4043 407.263" fill="white"/>
</g>
<g opacity="0.6">
<path d="M57.857 418.966L58.089 416.247L24.1973 413.073C24.1973 413.073 22.5918 413.481 22.5918 414.586L57.857 418.966Z" fill="white"/>
</g>
<path d="M41.6916 407.059C41.6916 407.226 42.5269 407.403 43.3157 408.034C44.1045 408.665 44.4665 409.398 44.6335 409.352C44.8005 409.305 44.6335 408.34 43.7055 407.598C42.7774 406.855 41.6731 406.902 41.6916 407.059Z" fill="#263238"/>
<path d="M37.8225 408.043C37.7575 408.201 38.4721 408.572 38.9733 409.333C39.4744 410.094 39.5579 410.837 39.725 410.855C39.892 410.874 40.124 409.927 39.4837 408.999C38.8433 408.071 37.8411 407.913 37.8225 408.043Z" fill="#263238"/>
<path d="M35.2144 411.969C35.3629 412.024 35.697 411.245 35.3629 410.298C35.0288 409.352 34.2678 408.897 34.1843 409.018C34.1008 409.138 34.5369 409.686 34.7968 410.465C35.0566 411.245 35.0381 411.932 35.2144 411.969Z" fill="#263238"/>
<path d="M42.4809 403.171C42.5366 403.329 43.3532 403.171 44.337 403.384C45.3207 403.598 46.026 403.95 46.1281 403.82C46.2301 403.69 45.5805 403.022 44.439 402.818C43.2976 402.614 42.4066 403.032 42.4809 403.171Z" fill="#263238"/>
<path d="M43.8008 399.319C44.3615 399.537 44.9685 399.607 45.564 399.524C46.2116 399.502 46.8538 399.399 47.4758 399.217C47.8438 399.118 48.2037 398.991 48.5523 398.837C48.7626 398.759 48.9597 398.649 49.137 398.512C49.2622 398.413 49.3492 398.274 49.3831 398.118C49.4169 397.963 49.3955 397.8 49.3226 397.658C49.2469 397.531 49.1433 397.422 49.0195 397.34C48.8958 397.258 48.7551 397.205 48.608 397.185C48.3862 397.156 48.1616 397.156 47.9398 397.185C47.5531 397.222 47.1708 397.297 46.7983 397.408C46.1749 397.583 45.583 397.856 45.0443 398.215C44.1163 398.828 43.7915 399.403 43.8472 399.44C43.9029 399.477 44.3762 399.041 45.2764 398.558C46.1179 398.096 47.0478 397.818 48.0048 397.742C48.3945 397.695 48.7101 397.742 48.7843 397.899C48.8586 398.057 48.7843 397.992 48.7194 398.085C48.5894 398.183 48.4455 398.261 48.2925 398.317C47.9707 398.469 47.6389 398.6 47.2995 398.707C46.7186 398.895 46.1224 399.032 45.5176 399.115C44.941 399.14 44.3671 399.208 43.8008 399.319Z" fill="#263238"/>
<path d="M43.9932 399.561C44.3807 399.129 44.6126 398.58 44.6521 398.002C44.7631 397.388 44.7631 396.759 44.6521 396.146C44.5841 395.779 44.4752 395.421 44.3273 395.078C44.2542 394.842 44.1222 394.627 43.9437 394.455C43.7651 394.283 43.5459 394.159 43.3065 394.095C43.1522 394.077 42.996 394.103 42.8552 394.168C42.7144 394.234 42.5944 394.337 42.5084 394.466C42.3985 394.652 42.3143 394.852 42.2578 395.06C42.1488 395.424 42.1017 395.803 42.1186 396.183C42.131 396.838 42.3167 397.479 42.6568 398.039C43.2415 398.967 43.9375 399.273 43.9654 399.217C43.9932 399.162 43.4642 398.753 43.0373 397.863C42.7966 397.349 42.6729 396.788 42.6754 396.22C42.6776 395.905 42.7277 395.592 42.8239 395.292C42.9167 394.939 43.093 394.67 43.2322 394.726C43.3714 394.781 43.6684 395.051 43.7798 395.348C43.9165 395.647 44.0283 395.958 44.1139 396.276C44.238 396.836 44.2848 397.41 44.2531 397.983C44.1603 398.958 43.9375 399.561 43.9932 399.561Z" fill="#263238"/>
<path d="M115.759 246.723L60.4578 248.496C60.4578 248.496 47.419 335.527 47.7809 341.587L39.7441 404.693L63.1306 405.519C63.1306 405.519 66.8427 385.037 69.3762 371.024C71.0838 361.743 74.202 348.027 75.0465 340.241C75.891 332.455 89.5702 278.063 89.5702 278.063C89.5702 278.063 88.5586 341.169 88.5865 343.768C88.6143 346.366 85.8766 405.445 85.8766 405.445H109.077C110.275 394.781 113.124 352.111 113.718 343.489C114.831 327.917 118.358 283.928 118.831 272.69C119.304 261.451 115.759 246.723 115.759 246.723Z" fill="#263238"/>
<path d="M112.112 247.15C111.853 245.842 111.853 244.495 112.112 243.187C112.384 244.494 112.384 245.843 112.112 247.15Z" fill="#455A64"/>
<path d="M114.415 248.199C113.974 246.53 114.122 244.76 114.832 243.187C114.807 244.027 114.727 244.864 114.591 245.693C114.588 246.531 114.53 247.368 114.415 248.199Z" fill="#455A64"/>
<path d="M93.7556 244.05C93.3067 244.143 92.8979 244.373 92.5863 244.709C92.4308 244.886 92.3161 245.095 92.2504 245.321C92.1846 245.547 92.1694 245.785 92.2058 246.018C92.2845 246.285 92.4353 246.525 92.6416 246.712C92.8479 246.898 93.1018 247.025 93.3752 247.076C93.6486 247.128 93.931 247.104 94.1914 247.005C94.4517 246.907 94.6798 246.739 94.8507 246.519C94.968 246.316 95.0402 246.089 95.0626 245.856C95.085 245.622 95.0571 245.386 94.9806 245.164C94.8179 244.733 94.5179 244.368 94.1269 244.125C94.1269 244.125 94.2846 244.125 94.5166 244.227C94.8462 244.414 95.1016 244.709 95.2405 245.062C95.3566 245.324 95.4104 245.61 95.3975 245.897C95.3846 246.183 95.3055 246.463 95.1663 246.714C94.9618 247.009 94.6763 247.238 94.3443 247.374C94.0123 247.51 93.6481 247.547 93.2956 247.48C92.9431 247.413 92.6175 247.246 92.3582 246.998C92.0989 246.75 91.9171 246.432 91.8346 246.083C91.7966 245.798 91.8255 245.507 91.9189 245.235C92.0123 244.963 92.1677 244.716 92.3729 244.514C92.6349 244.24 92.9811 244.06 93.3566 244.004C93.6164 243.976 93.7556 244.032 93.7556 244.05Z" fill="#455A64"/>
<path d="M68.2635 340.093C66.2444 339.481 64.2667 338.74 62.3427 337.875C60.3655 337.135 58.4374 336.27 56.5703 335.285C58.5914 335.9 60.572 336.641 62.5004 337.503C64.4736 338.245 66.3984 339.11 68.2635 340.093Z" fill="#455A64"/>
<path d="M65.2849 115.917C65.4613 112.697 67.4472 110.711 70.2221 109.068C71.6209 108.256 73.1952 107.794 74.811 107.722C76.4268 107.649 78.0362 107.968 79.5024 108.651C81.4513 109.579 83.1588 111.156 85.2933 111.435C88.8198 111.889 92.1515 108.651 95.6037 109.439C96.6338 109.686 97.5465 110.282 98.1869 111.126C98.8272 111.97 99.1556 113.009 99.1162 114.068C99.0768 115.126 98.6721 116.139 97.9709 116.932C97.2697 117.726 96.3152 118.253 95.2696 118.423C97.5805 118.757 98.8797 121.68 98.0537 123.842C97.2278 126.005 94.7871 127.276 92.4856 127.323C90.1413 127.248 87.8623 126.532 85.8965 125.253C83.8827 124.084 81.9988 122.673 79.8922 121.671C77.8242 120.554 75.4285 120.202 73.1268 120.678C70.0736 121.485 67.9113 124.39 67.1224 127.415C66.3336 130.441 66.6677 133.698 67.1224 136.816C67.5772 139.934 68.1989 143.081 67.902 146.227C67.9042 146.405 67.8651 146.582 67.7878 146.743C67.7106 146.904 67.5972 147.045 67.4565 147.155C66.9925 147.414 66.4542 146.978 66.1109 146.57C62.2026 141.933 59.2448 136.572 57.4059 130.793C56.3387 127.452 55.754 124.195 57.0254 120.928C58.2968 117.662 62.5936 114.553 65.322 115.88" fill="#263238"/>
<path d="M62.2839 131.471L67.4345 163.274C68.3625 169.214 72.2602 174.958 81.5777 173.009C89.5402 170.708 88.9463 164.982 87.9069 157.92C87.9069 157.92 96.6675 155.646 95.8787 146.737C95.5075 142.431 94.0226 133.633 92.547 125.689C91.7939 121.576 89.5195 117.896 86.1764 115.384C82.8333 112.872 78.6668 111.71 74.5061 112.131L73.643 112.214C64.4462 113.727 60.5578 122.32 62.2839 131.471Z" fill="#FFBE9D"/>
<path d="M87.9081 157.92C83.8023 158.321 79.6674 157.539 75.9922 155.665C75.9922 155.665 79.4816 162.272 88.2701 160.583L87.9081 157.92Z" fill="#EB996E"/>
<path d="M90.8041 133.475C90.841 133.806 90.747 134.137 90.5423 134.399C90.3376 134.661 90.0385 134.833 89.709 134.877C89.549 134.907 89.3844 134.905 89.2253 134.87C89.0661 134.835 88.9157 134.769 88.783 134.674C88.6503 134.58 88.5381 134.459 88.4533 134.32C88.3684 134.181 88.3125 134.026 88.2891 133.865C88.2522 133.535 88.3462 133.203 88.5509 132.941C88.7555 132.679 89.0547 132.508 89.3842 132.464C89.5441 132.435 89.7082 132.438 89.8669 132.473C90.0255 132.509 90.1754 132.575 90.3078 132.67C90.4402 132.764 90.5523 132.884 90.6376 133.022C90.7228 133.161 90.7794 133.315 90.8041 133.475Z" fill="#263238"/>
<path d="M91.0811 130.246C90.9418 130.432 89.9024 129.81 88.5382 129.958C87.174 130.107 86.2367 130.886 86.0697 130.728C85.9026 130.571 86.1254 130.348 86.5244 129.986C87.0763 129.515 87.7603 129.227 88.4826 129.16C89.1935 129.082 89.9105 129.238 90.5242 129.606C90.979 129.884 91.146 130.162 91.0811 130.246Z" fill="#263238"/>
<path d="M78.3607 135.443C78.3976 135.773 78.3037 136.105 78.099 136.367C77.8943 136.629 77.5951 136.8 77.2656 136.844C77.1056 136.875 76.9411 136.872 76.7819 136.838C76.6228 136.803 76.4723 136.736 76.3396 136.642C76.207 136.547 76.0948 136.427 76.0099 136.288C75.925 136.149 75.8692 135.994 75.8458 135.833C75.8089 135.502 75.9028 135.171 76.1075 134.909C76.3122 134.647 76.6113 134.475 76.9408 134.431C77.1007 134.402 77.2649 134.405 77.4235 134.441C77.5821 134.476 77.7321 134.543 77.8645 134.637C77.9968 134.731 78.109 134.851 78.1942 134.99C78.2794 135.128 78.3361 135.282 78.3607 135.443Z" fill="#263238"/>
<path d="M77.9307 131.851C77.7822 132.028 76.7521 131.415 75.3878 131.554C74.0236 131.694 73.0863 132.482 72.9193 132.334C72.7522 132.185 72.975 131.953 73.374 131.591C73.926 131.121 74.6099 130.832 75.3322 130.766C76.0418 130.69 76.7569 130.843 77.3738 131.202C77.8286 131.48 77.9956 131.768 77.9307 131.851Z" fill="#263238"/>
<path d="M83.6497 141.494C84.3463 141.19 85.0794 140.978 85.8306 140.863C86.174 140.798 86.4988 140.696 86.5359 140.445C86.5258 140.082 86.4096 139.731 86.2018 139.433C85.7842 138.626 85.348 137.772 84.9026 136.881C83.0465 133.243 81.738 130.237 81.8865 130.162C83.2356 132.232 84.4209 134.404 85.4316 136.659L86.6937 139.239C86.95 139.638 87.0614 140.113 87.0092 140.584C86.9728 140.714 86.907 140.833 86.8168 140.933C86.7266 141.033 86.6146 141.11 86.4895 141.16C86.3 141.226 86.104 141.273 85.9049 141.299C85.1639 141.455 84.4066 141.521 83.6497 141.494Z" fill="#263238"/>
<path d="M77.4873 126.459C77.3945 126.849 76.0118 126.812 74.4248 127.165C72.8379 127.517 71.585 128.093 71.3438 127.777C71.2324 127.619 71.418 127.248 71.9099 126.849C72.5585 126.345 73.3124 125.992 74.1157 125.819C74.9189 125.645 75.7509 125.655 76.55 125.847C77.1996 126.014 77.5245 126.283 77.4873 126.459Z" fill="#263238"/>
<path d="M90.1829 126.339C89.9695 126.682 88.995 126.45 87.8628 126.552C86.7306 126.654 85.7933 126.97 85.5428 126.664C85.4314 126.515 85.5428 126.19 85.9418 125.856C86.4666 125.453 87.0986 125.213 87.7587 125.167C88.4189 125.121 89.0781 125.27 89.6539 125.596C90.1087 125.875 90.2757 126.181 90.1829 126.339Z" fill="#263238"/>
<path d="M63.6673 137.986C63.5095 137.93 57.3752 136.788 58.1826 142.848C58.99 148.909 64.9108 146.858 64.8923 146.681C64.8737 146.505 63.6673 137.986 63.6673 137.986Z" fill="#FFBE9D"/>
<path d="M62.741 144.63C62.741 144.63 62.6482 144.714 62.4812 144.825C62.2428 144.963 61.9611 145.006 61.6923 144.946C61.2674 144.748 60.9025 144.441 60.6351 144.057C60.3677 143.672 60.2073 143.223 60.1704 142.756C60.0826 142.239 60.1143 141.709 60.2632 141.206C60.2918 141.006 60.3695 140.817 60.4894 140.655C60.6092 140.493 60.7675 140.363 60.9499 140.278C61.066 140.227 61.1963 140.22 61.3172 140.258C61.4381 140.295 61.5416 140.375 61.6088 140.482C61.7202 140.64 61.6923 140.77 61.7295 140.77C61.7666 140.77 61.8408 140.649 61.7295 140.408C61.6773 140.263 61.5754 140.141 61.4418 140.064C61.259 139.96 61.0429 139.93 60.8386 139.981C60.606 140.071 60.3994 140.217 60.2374 140.406C60.0754 140.596 59.963 140.823 59.9105 141.067C59.7225 141.628 59.6747 142.227 59.7713 142.811C59.813 143.35 60.0108 143.865 60.3404 144.294C60.67 144.722 61.1172 145.046 61.6274 145.224C61.7944 145.246 61.9642 145.231 62.1247 145.18C62.2851 145.128 62.4322 145.042 62.5554 144.927C62.7503 144.779 62.7596 144.64 62.741 144.63Z" fill="#EB996E"/>
<path d="M91.8265 117.439C90.7876 115.803 89.355 114.453 87.6597 113.513C84.1031 111.302 79.9405 110.266 75.7623 110.553C71.5682 110.88 67.6651 112.823 64.8765 115.973C62.7442 118.556 61.4179 121.709 61.0622 125.04C60.7156 128.357 61.031 131.71 61.9903 134.905C62.2873 136.343 63.0005 137.663 64.0412 138.7C64.7373 139.294 65.8973 139.628 66.5191 138.997C66.8662 138.582 67.0653 138.063 67.0852 137.522C67.7812 132.714 68.4308 127.545 66.2592 123.202C67.2194 121.535 68.5112 120.082 70.0549 118.933C70.8304 118.364 71.7116 117.955 72.6469 117.73C73.5823 117.506 74.553 117.47 75.5024 117.625C78.2865 118.181 80.2354 120.65 82.5833 122.265C84.2761 123.409 86.2165 124.134 88.2448 124.381C90.273 124.628 92.3309 124.389 94.2487 123.685L91.8265 117.439Z" fill="#263238"/>
<path d="M84.8555 145.178C84.7852 145.754 84.632 146.316 84.4008 146.848C84.2823 147.114 84.1097 147.352 83.8939 147.547C83.6782 147.742 83.4241 147.889 83.148 147.98C82.8448 148.044 82.5305 148.03 82.2339 147.941C81.9373 147.852 81.6677 147.69 81.4497 147.47C81.0239 147.018 80.7512 146.443 80.6701 145.827C80.5773 145.271 80.6701 144.575 81.2177 144.389C81.4437 144.338 81.6783 144.338 81.9044 144.389L85.004 144.955" fill="#EB996E"/>
<path d="M84.2045 147.767C83.6968 147.903 83.1687 147.947 82.6454 147.897C82.1058 147.808 81.6192 147.52 81.2812 147.09C81.0828 146.828 80.9421 146.527 80.8685 146.207C80.795 145.887 80.7901 145.556 80.8543 145.234C80.8854 145.069 80.9384 144.91 81.0121 144.76C81.0956 144.612 81.0771 144.621 81.207 144.621C81.3724 144.639 81.5367 144.667 81.6988 144.705L82.2093 144.797L83.9725 145.094C84.5101 145.222 85.0637 145.269 85.6151 145.234C85.1241 144.98 84.5939 144.81 84.0468 144.732C83.5456 144.602 82.961 144.473 82.3021 144.324L81.8009 144.213C81.6153 144.213 81.4761 144.129 81.2348 144.111C81.0853 144.098 80.9357 144.134 80.8079 144.213C80.6989 144.297 80.6102 144.405 80.5481 144.528C80.4525 144.719 80.3838 144.922 80.3439 145.131C80.2629 145.527 80.2717 145.936 80.3697 146.328C80.4677 146.72 80.6523 147.085 80.91 147.396C81.3375 147.895 81.9444 148.205 82.599 148.259C83.0236 148.311 83.4542 148.243 83.8426 148.064C84.1117 147.916 84.2231 147.795 84.2045 147.767Z" fill="#263238"/>
<path d="M106.803 132.102L108.241 131.712L130.635 153.475L148.805 155.665C148.805 155.665 148.62 150.18 141.799 143.183C135.674 136.928 121.429 129.503 116.603 125.661C115.98 125.135 115.274 124.715 114.515 124.418L106.803 132.102Z" fill="#FFBE9D"/>
<path d="M106.793 121.745L104.5 121.095L99.0992 118.534L92.9556 120.826C92.9556 120.826 93.0948 122.924 94.7096 122.348L88.269 124.473C88.269 124.473 88.798 126.005 89.0857 126.107C89.3734 126.209 85.3086 126.543 85.3086 126.543C85.3086 126.543 85.3086 128.612 89.1599 128.575C93.0113 128.538 94.5054 127.879 94.5054 127.879L97.5957 128.705L97.4751 130.561L93.2618 130.496L93.4567 132.853C95.2465 133.231 97.0559 133.51 98.8764 133.689C98.8764 133.689 105.373 133.782 107.136 132.928C108.899 132.074 111.145 130.858 111.145 130.858L114.514 124.436L106.793 121.745Z" fill="#FFBE9D"/>
<path d="M100.994 122.831C100.994 122.886 100.632 122.71 100.066 122.45C99.3079 122.125 98.5784 121.737 97.8849 121.29H98.1634L97.9128 121.448C97.1459 121.938 96.2812 122.255 95.3793 122.376C94.6925 122.469 94.2656 122.376 94.2656 122.376C95.4498 122.093 96.5917 121.656 97.6622 121.077L97.8942 120.928L98.0334 120.835L98.1726 120.938C98.9243 121.457 99.7132 121.866 100.233 122.19C100.753 122.515 101.04 122.784 100.994 122.831Z" fill="#EB996E"/>
<path d="M99.0171 126.107C99.0171 126.107 98.5995 126.255 97.9777 125.986C97.3559 125.717 96.6599 125.058 95.7783 124.687H96.001C95.6052 124.954 95.1895 125.189 94.7574 125.392C93.671 125.911 92.4897 126.202 91.2866 126.246C90.7922 126.309 90.2899 126.255 89.8203 126.088C91.447 125.958 93.0437 125.576 94.5533 124.956C94.9645 124.765 95.3615 124.545 95.7412 124.297L95.8618 124.232H95.9639C96.9662 124.743 97.5508 125.42 98.0984 125.698C98.6459 125.977 99.0171 126.033 99.0171 126.107Z" fill="#EB996E"/>
<path d="M104.771 128.12C104.771 128.195 104.298 128.056 103.565 128.065C102.616 128.077 101.689 128.357 100.892 128.872C100.365 129.213 99.9131 129.658 99.5652 130.181L99.5095 130.264H99.426C98.7113 130.468 97.9692 130.559 97.2266 130.533C97.8913 130.196 98.6056 129.968 99.3425 129.856L99.2033 129.949C99.5516 129.345 100.038 128.833 100.623 128.455C101.495 127.882 102.535 127.621 103.574 127.712C104.372 127.805 104.799 128.074 104.771 128.12Z" fill="#EB996E"/>
<path d="M111.148 130.84C111.092 130.889 111.03 130.929 110.962 130.96L110.378 131.294L108.132 132.51C107.601 132.836 107.03 133.092 106.434 133.271C105.715 133.438 104.987 133.556 104.253 133.624C102.675 133.782 100.875 133.847 98.8794 133.847L96.4573 133.596C95.5611 133.521 94.6731 133.369 93.8031 133.141H93.7103V133.021C93.5804 132.213 93.4412 131.332 93.2927 130.431L93.2463 130.171H93.5061L97.5152 130.339L97.2739 130.543C97.2739 129.977 97.3574 129.346 97.3946 128.687L97.5709 128.928L94.4713 128.102H94.629C93.1244 128.56 91.5615 128.797 89.9889 128.807C89.1734 128.859 88.3546 128.818 87.5481 128.687C87.1079 128.632 86.6842 128.485 86.3051 128.254C85.9259 128.024 85.6 127.716 85.3487 127.35C85.2088 127.106 85.1263 126.833 85.1074 126.552V126.339H85.3394C86.2675 126.255 87.2605 126.172 88.1978 126.07L88.8845 125.977H89.033V126.023C89.005 126.048 88.9849 126.081 88.975 126.117C88.9652 126.153 88.9659 126.192 88.9773 126.227C88.9773 126.311 89.1444 126.422 89.1072 126.385C89.0528 126.363 89.0025 126.332 88.9588 126.292C88.8584 126.188 88.7739 126.069 88.7082 125.94C88.4936 125.513 88.3075 125.073 88.1514 124.622L88.0678 124.39L88.2999 124.316L94.7961 122.2L94.9446 122.627C94.6838 122.723 94.4036 122.755 94.1279 122.719C93.8451 122.669 93.5889 122.522 93.404 122.302C93.0938 121.898 92.9127 121.409 92.8843 120.9V120.743L93.0514 120.678L99.2042 118.413H99.2785H99.3527L104.745 121.003L107 121.652L108.967 122.348L112.085 123.48L114.043 124.204C114.275 124.274 114.499 124.367 114.712 124.483C114.476 124.431 114.244 124.366 114.016 124.288L112.03 123.647L108.884 122.599L106.916 121.94L104.652 121.327L99.2321 118.794H99.3898L93.2463 121.105L93.3948 120.882C93.4188 121.295 93.564 121.692 93.8124 122.023C93.9462 122.156 94.1174 122.245 94.3031 122.278C94.4888 122.312 94.6802 122.287 94.8518 122.209L95.0002 122.645L88.569 124.78L88.7175 124.473C88.8593 124.902 89.0362 125.318 89.2464 125.717C89.2862 125.8 89.3361 125.878 89.3949 125.949C89.3689 125.982 89.35 126.02 89.3392 126.06C89.4321 125.819 89.3392 125.995 89.4042 125.949H89.4692C89.5117 125.985 89.5411 126.034 89.5527 126.088C89.5615 126.128 89.5601 126.169 89.5487 126.208C89.5374 126.247 89.5164 126.282 89.4877 126.311C89.4135 126.385 89.4321 126.357 89.4135 126.367H89.33H89.1351L88.4205 126.459C87.4925 126.571 86.5644 126.654 85.5529 126.738L85.7663 126.506C85.7879 126.698 85.8478 126.884 85.9427 127.053C86.1582 127.356 86.4346 127.611 86.7542 127.801C87.0738 127.991 87.4295 128.113 87.7987 128.158C88.5715 128.283 89.3561 128.321 90.1374 128.269C91.6485 128.264 93.1514 128.046 94.6012 127.619H94.694H94.759L97.8493 128.455H98.0349V128.64C98.0349 129.281 97.9514 129.912 97.9143 130.496V130.719H97.6915L93.6917 130.533L93.9144 130.283C94.0537 131.211 94.1929 132.074 94.3135 132.881L94.2021 132.733C95.0316 132.941 95.8753 133.086 96.7264 133.169L99.13 133.438C101.107 133.438 102.898 133.438 104.466 133.29C105.19 133.241 105.909 133.141 106.619 132.993C107.203 132.827 107.764 132.59 108.29 132.287L110.573 131.155L111.176 130.877C111.074 130.858 111.139 130.83 111.148 130.84Z" fill="#EB996E"/>
<path d="M103.388 123.852C102.8 124.839 101.981 125.67 101.003 126.274C100.109 126.998 99.0567 127.501 97.9313 127.74C97.8757 127.61 99.2306 126.951 100.715 125.884C102.2 124.817 103.277 123.759 103.388 123.852Z" fill="#EB996E"/>
<path d="M148.611 154.987L130.635 153.475L109.439 161.539L104.799 164.379L111.406 187.042C111.406 187.042 144.621 167.469 146.031 165.799C147.297 164.336 148.192 162.59 148.641 160.708C149.09 158.826 149.079 156.864 148.611 154.987Z" fill="#8ACEB2"/>
<path d="M52.6514 171.645L46.4707 175.478L60.7438 231.67L58.1546 264.068C61.8668 267.279 71.1471 270.035 88.7797 269.033C106.412 268.031 118.18 260.356 118.18 260.356L116.491 227.03L112.472 189.426L107.971 163.711L94.385 164.694L89.086 161.558L86.7102 162.745L83.6662 171.191L75.7408 165.455L66.4605 160.991L63.0732 167.311L52.6514 171.645Z" fill="#8ACEB2"/>
<path d="M107.971 170.253C108.169 170.652 108.33 171.069 108.453 171.497C108.75 172.313 109.121 173.501 109.567 174.986C110.701 178.851 111.631 182.772 112.351 186.735C113.049 190.697 113.539 194.693 113.817 198.707C113.919 200.247 113.966 201.491 113.975 202.354C114.023 202.801 114.023 203.252 113.975 203.699C113.887 203.259 113.834 202.812 113.817 202.363C113.734 201.435 113.632 200.201 113.502 198.734C113.214 195.672 112.722 191.44 111.896 186.819C111.07 182.197 110.087 178.058 109.298 175.079C108.917 173.659 108.592 172.471 108.37 171.552C108.189 171.135 108.055 170.7 107.971 170.253Z" fill="#263238"/>
<path d="M81.1337 170.699C80.6812 170.621 80.2469 170.461 79.853 170.225C78.7541 169.647 77.8018 168.824 77.0689 167.822L77.403 167.729C77.2098 170.497 76.6512 173.228 75.7418 175.849L75.6397 176.146L75.3799 175.97L74.7302 175.515C71.5285 173.316 68.6516 171.302 66.5821 169.817L64.1507 168.044C63.8403 167.842 63.5539 167.606 63.2969 167.339C63.6259 167.486 63.9373 167.67 64.2249 167.887L66.7399 169.539C68.8651 170.94 71.7698 172.917 74.9622 175.107L75.6211 175.552L75.2499 175.673C76.1509 173.089 76.7368 170.406 76.9946 167.683V167.181L77.2823 167.59C77.9725 168.576 78.8607 169.407 79.8901 170.03C80.6975 170.485 81.1522 170.652 81.1337 170.699Z" fill="#263238"/>
<path d="M93.8393 165.697C92.9236 166.914 91.9152 168.059 90.8232 169.121L90.6562 169.298L90.4891 169.112C89.866 168.383 89.1931 167.697 88.4753 167.061C88.0855 166.727 87.705 166.411 87.3246 166.133L86.7585 165.715C86.7159 165.705 86.6724 165.698 86.6285 165.697C86.6285 165.697 86.6285 165.697 86.545 165.836L85.6819 168.045C85.4467 168.742 85.1355 169.411 84.7539 170.04C84.8691 169.314 85.0685 168.604 85.3478 167.924C85.5891 167.228 85.849 166.476 86.1181 165.678C86.1427 165.593 86.1842 165.514 86.24 165.446C86.2958 165.377 86.3648 165.32 86.4429 165.279C86.5328 165.249 86.6286 165.241 86.7222 165.256C86.8158 165.27 86.9046 165.307 86.9812 165.363L87.5751 165.79C87.9742 166.077 88.3732 166.402 88.763 166.718C89.5027 167.367 90.1857 168.078 90.8047 168.843H90.4706C91.5103 167.708 92.6366 166.657 93.8393 165.697Z" fill="#263238"/>
<path d="M90.164 266.602C96.1137 265.484 102.243 265.788 108.053 267.487C113.864 269.187 119.19 272.235 123.599 276.383C128.008 280.532 131.375 285.662 133.426 291.358C135.477 297.054 136.154 303.154 135.401 309.16C134.648 315.167 132.487 320.911 129.094 325.925C125.701 330.938 121.172 335.079 115.875 338.011C110.579 340.943 104.665 342.582 98.6146 342.795C92.5647 343.009 86.5498 341.79 81.06 339.239C73.6795 335.802 67.5807 330.111 63.6424 322.986C59.7042 315.861 58.13 307.669 59.1466 299.591C60.1633 291.514 63.7183 283.968 69.2994 278.041C74.8804 272.113 82.1993 268.111 90.2011 266.611L90.164 266.602ZM103.871 339.619C112.264 338.034 119.814 333.502 125.161 326.842C130.508 320.181 133.3 311.83 133.033 303.292C132.766 294.755 129.459 286.594 123.707 280.28C117.955 273.966 110.137 269.915 101.662 268.856C93.1863 267.797 84.6115 269.8 77.4828 274.505C70.354 279.209 65.1403 286.306 62.7814 294.515C60.4225 302.724 61.0736 311.505 64.6173 319.277C68.1609 327.048 74.3641 333.298 82.1087 336.9C88.9003 340.059 96.511 341.01 103.871 339.619Z" fill="#455A64"/>
<path d="M97.1885 344.686C87.0641 344.7 77.3021 340.92 69.8278 334.09C62.3535 327.261 57.7095 317.879 56.8119 307.795C55.9142 297.71 58.828 287.655 64.9785 279.613C71.129 271.571 80.0698 266.126 90.0374 264.351C100.005 262.577 110.276 264.602 118.824 270.027C127.372 275.451 133.577 283.883 136.216 293.657C138.854 303.432 137.733 313.84 133.075 322.829C128.417 331.819 120.56 338.736 111.053 342.218C106.613 343.85 101.919 344.686 97.1885 344.686ZM97.272 270.342C92.5372 270.338 87.8539 271.323 83.5216 273.233C79.1892 275.143 75.3033 277.936 72.1123 281.434C68.9213 284.932 66.4956 289.058 64.9903 293.547C63.485 298.036 62.9333 302.79 63.3705 307.504C63.8076 312.219 65.224 316.79 67.529 320.926C69.834 325.062 72.9769 328.671 76.7566 331.522C80.5363 334.374 84.8696 336.405 89.4793 337.486C94.089 338.567 98.8736 338.674 103.527 337.8C108.839 336.793 113.836 334.539 118.106 331.223C122.377 327.908 125.799 323.626 128.092 318.729C130.501 313.546 131.566 307.839 131.189 302.136C130.812 296.432 129.005 290.916 125.934 286.095C122.863 281.274 118.628 277.303 113.619 274.55C108.61 271.797 102.988 270.35 97.272 270.342Z" fill="#455A64"/>
<path d="M3.72683 266.852L4.0702 266.017C4.79406 264.226 6.39028 263.177 7.63384 263.688L63.8169 286.545C64.0953 286.656 64.1881 287.074 64.0304 287.473L61.6361 293.357C61.469 293.756 61.1164 293.988 60.8379 293.876L4.65486 270.973C3.4113 270.462 2.99368 268.606 3.72683 266.852Z" fill="#455A64"/>
<path d="M56.1974 202.113L49.4413 224.469L52.8287 270.035L42.8616 271.288C42.8616 271.288 31.4468 232.515 32.579 225.499C33.7112 218.483 38.3699 198.048 38.3699 198.048L56.1974 202.113Z" fill="#FFBE9D"/>
<path d="M52.8023 269.71L57.4424 277.636L60.3379 285.06L56.004 283.362C56.004 283.362 54.1479 292.327 53.3962 292.559C52.6445 292.791 50.5564 292.067 50.7699 290.35C50.4606 290.651 50.0868 290.878 49.6767 291.013C49.2666 291.148 48.8311 291.188 48.4034 291.129C47.0856 290.86 46.7701 290.007 46.9185 288.345C46.9185 288.345 45.3873 289.589 44.4685 288.819C44.1875 288.542 43.9685 288.208 43.8261 287.84C43.6837 287.472 43.6211 287.078 43.6426 286.684C43.6426 286.684 41.6473 286.851 41.3689 285.821C41.076 284.129 41.0385 282.402 41.2575 280.698C41.4895 279.566 42.4547 274.963 42.4547 274.963L42.9002 271.251L52.8023 269.71Z" fill="#FFBE9D"/>
<path d="M51.7147 285.181C51.3527 285.987 51.1179 286.845 51.0186 287.724C50.7892 288.579 50.6922 289.465 50.731 290.35C51.0946 289.544 51.3295 288.686 51.427 287.807C51.6564 286.952 51.7534 286.066 51.7147 285.181Z" fill="#EB996E"/>
<path d="M47.6496 284.151C47.3089 284.777 47.0974 285.465 47.0278 286.174C46.8214 286.859 46.7489 287.577 46.8144 288.29C47.1477 287.657 47.3586 286.968 47.4361 286.257C47.6372 285.574 47.7096 284.86 47.6496 284.151Z" fill="#EB996E"/>
<path d="M44.2541 283.195C44.0526 283.758 43.9459 284.351 43.9386 284.949C43.7808 285.877 43.5303 286.666 43.6509 286.712C44.0633 286.238 44.3079 285.641 44.3469 285.014C44.4876 284.411 44.4554 283.78 44.2541 283.195Z" fill="#EB996E"/>
<path d="M56.309 280.773C55.9501 281.564 55.7004 282.401 55.5666 283.26C55.2977 284.087 55.1355 284.944 55.084 285.812C55.532 285.059 55.8313 284.228 55.9656 283.362C56.2392 282.528 56.3556 281.65 56.309 280.773Z" fill="#EB996E"/>
<path d="M32.0321 240.552C32.0321 239.791 28.9139 229.174 29.8605 223.671C30.8071 218.167 42.1291 180.981 43.6511 178.327C44.8502 176.537 46.5246 175.116 48.4862 174.225C50.6708 175.409 52.5945 177.021 54.1427 178.965C55.6909 180.908 56.8318 183.144 57.4973 185.538C59.771 193.695 59.771 203.931 59.771 203.931L50.667 226.51L51.7528 239.336L32.0321 240.552Z" fill="#8ACEB2"/>
<path d="M59.195 203.189C59.1022 203.189 59.2785 201.519 59.195 198.846C59.1381 197.292 58.9862 195.742 58.7403 194.206C58.1504 190.417 56.9863 186.74 55.288 183.302C54.598 181.898 53.8232 180.537 52.9679 179.227C51.5016 176.982 50.4065 175.729 50.4715 175.673C50.7737 175.924 51.0476 176.207 51.2882 176.518C51.9824 177.306 52.627 178.137 53.2185 179.005C54.1211 180.302 54.9335 181.661 55.6499 183.07C57.4073 186.537 58.5889 190.267 59.1486 194.113C59.371 195.681 59.4888 197.262 59.5012 198.846C59.5159 199.909 59.4632 200.973 59.3435 202.029C59.3312 202.42 59.2814 202.808 59.195 203.189Z" fill="#263238"/>
<path d="M58.61 207.913C58.3829 208.866 58.0723 209.798 57.6819 210.697C57.023 212.414 56.03 214.743 54.8978 217.286L51.9652 223.782C51.6084 224.705 51.1866 225.601 50.7031 226.464C50.9302 225.511 51.2407 224.579 51.6312 223.68C52.2901 221.963 53.2831 219.634 54.4153 217.091L57.3478 210.595C57.7047 209.672 58.1264 208.776 58.61 207.913Z" fill="#263238"/>
<path d="M51.1946 227.383C49.1917 226.314 47.1062 225.408 44.9582 224.673C42.7604 224.099 40.5195 223.705 38.2578 223.495C38.9219 223.35 39.6049 223.312 40.2809 223.383C41.9141 223.461 43.5317 223.738 45.0974 224.209C46.6652 224.678 48.168 225.343 49.5705 226.186C50.1724 226.495 50.7207 226.9 51.1946 227.383Z" fill="#263238"/>
<path d="M110.461 291.334C110.545 291.436 103.232 297.83 94.1184 305.634C85.0051 313.439 77.553 319.666 77.4695 319.555C77.3859 319.444 84.6988 313.059 93.8121 305.263C102.925 297.468 110.377 291.231 110.461 291.334Z" fill="white"/>
<path d="M119.871 291.333C119.964 291.436 113.802 296.902 106.109 303.481C98.4152 310.061 92.1231 315.37 92.0303 315.267C91.9375 315.165 98.1089 309.699 105.793 303.119C113.477 296.54 119.788 291.231 119.871 291.333Z" fill="white"/>
<path d="M133.726 304.372C133.726 304.372 133.726 304.177 133.671 303.788C133.615 303.398 133.615 302.804 133.559 302.052C133.559 301.672 133.559 301.245 133.485 300.781C133.411 300.317 133.336 299.806 133.253 299.25C133.169 298.693 133.077 298.108 132.974 297.477C132.872 296.846 132.659 296.196 132.501 295.491C131.645 292.08 130.281 288.817 128.455 285.812C126.065 281.818 122.931 278.321 119.221 275.511L117.653 274.341C117.096 273.979 116.52 273.655 115.945 273.302C115.37 272.949 114.804 272.559 114.173 272.272L112.316 271.344L111.388 270.889L110.377 270.527L108.335 269.785C107.639 269.553 106.915 269.404 106.201 269.209C105.478 268.999 104.744 268.831 104.001 268.708C102.487 268.427 100.955 268.25 99.4168 268.179C98.6373 268.179 97.8485 268.077 97.0504 268.086L94.656 268.216C94.2477 268.216 93.8393 268.216 93.4403 268.29L92.2339 268.476C91.4265 268.615 90.6005 268.708 89.7931 268.875C88.152 269.242 86.5368 269.716 84.9581 270.295C83.3381 270.88 81.7598 271.574 80.2344 272.374C79.4641 272.791 78.731 273.302 77.97 273.719C77.5988 273.961 77.209 274.165 76.8564 274.425L75.7891 275.232C72.8048 277.36 70.1954 279.969 68.0679 282.953L67.2327 284.067L66.4995 285.264L65.7756 286.461C65.5189 286.855 65.2924 287.268 65.0982 287.696L63.8732 290.248C63.5391 291.176 63.2143 292.039 62.8895 292.939C60.3961 300.357 60.3961 308.387 62.8895 315.806C63.2236 316.734 63.5484 317.597 63.8732 318.488C64.198 319.379 64.6991 320.195 65.1075 321.049L65.4137 321.68L65.7849 322.283L66.5088 323.481L67.2419 324.678L68.0772 325.791C69.1635 327.256 70.3447 328.648 71.613 329.958C72.9082 331.21 74.2813 332.379 75.7242 333.457L76.7914 334.255C77.1533 334.524 77.5431 334.719 77.9143 334.96C78.6753 335.406 79.4084 335.888 80.1694 336.306C81.697 337.108 83.2785 337.802 84.9024 338.385C86.4811 338.964 88.0963 339.438 89.7374 339.805C90.5448 339.972 91.3708 340.065 92.1782 340.204L93.3846 340.389C93.7929 340.445 94.192 340.436 94.6003 340.464L96.9947 340.593C97.7928 340.593 98.5816 340.529 99.3611 340.501C100.9 340.43 102.431 340.253 103.946 339.972C104.689 339.853 105.424 339.686 106.145 339.471C106.86 339.276 107.593 339.127 108.28 338.904L110.321 338.153L111.333 337.791L112.261 337.336L114.117 336.408C114.748 336.12 115.305 335.712 115.889 335.378C116.474 335.044 117.04 334.7 117.597 334.339L119.165 333.169C122.877 330.361 126.012 326.864 128.399 322.868C130.239 319.886 131.621 316.645 132.501 313.254C132.659 312.548 132.9 311.908 132.974 311.268C133.049 310.627 133.169 310.043 133.253 309.495C133.336 308.948 133.439 308.437 133.485 307.973C133.531 307.509 133.541 307.045 133.559 306.692C133.615 305.95 133.652 305.375 133.671 304.966C133.671 304.577 133.726 304.372 133.726 304.372C133.726 304.372 133.726 304.577 133.726 304.966C133.726 305.356 133.726 305.95 133.661 306.702C133.661 307.085 133.643 307.512 133.606 307.982C133.606 308.446 133.476 308.957 133.401 309.514L133.142 311.296C133.02 311.971 132.866 312.64 132.678 313.3C131.859 316.744 130.513 320.04 128.687 323.072C126.296 327.116 123.144 330.658 119.407 333.503L117.829 334.691C117.272 335.053 116.688 335.396 116.112 335.749C115.537 336.102 114.961 336.501 114.33 336.798L112.428 337.726L111.5 338.181L110.479 338.561L108.419 339.313C107.723 339.554 106.99 339.703 106.256 339.897C105.53 340.12 104.789 340.29 104.038 340.408C102.507 340.7 100.956 340.883 99.3983 340.955C98.6002 340.955 97.8113 341.067 97.0039 341.058L94.5725 340.937C94.1734 340.937 93.7558 340.937 93.3475 340.863L92.1225 340.677C91.3058 340.538 90.4799 340.445 89.6539 340.278C87.9936 339.911 86.3597 339.434 84.7632 338.849C83.1155 338.266 81.512 337.565 79.9653 336.751C79.195 336.334 78.4526 335.823 77.6823 335.396C77.3018 335.155 76.9028 334.951 76.5408 334.682L75.4921 333.856C74.0249 332.773 72.6328 331.592 71.3253 330.32C70.0267 328.99 68.8235 327.569 67.7245 326.07L66.8707 324.947L66.1376 323.731L65.3952 322.515L65.0239 321.912L64.7084 321.263L63.4277 318.673L62.4254 315.954C59.8946 308.428 59.8946 300.28 62.4254 292.753L63.4277 290.053C63.8453 289.19 64.263 288.327 64.6713 287.464C64.8727 287.032 65.1021 286.613 65.358 286.211L66.1005 284.995L66.8429 283.789L67.6874 282.666C68.7919 281.171 69.9948 279.751 71.2882 278.415C72.5957 277.144 73.9878 275.963 75.455 274.88L76.5408 274.072C76.9055 273.811 77.2834 273.57 77.673 273.348C78.4433 272.903 79.1857 272.42 79.956 271.993C81.5046 271.184 83.1078 270.483 84.7539 269.896C86.3504 269.311 87.9843 268.833 89.6446 268.467C90.4706 268.3 91.2965 268.207 92.1132 268.068L93.3382 267.882C93.7466 267.836 94.1549 267.836 94.5632 267.808L96.9947 267.687C97.7928 267.687 98.5909 267.762 99.3797 267.789C100.937 267.862 102.488 268.044 104.02 268.337C104.768 268.464 105.509 268.635 106.238 268.847C106.962 269.042 107.695 269.2 108.4 269.432L110.46 270.184L111.472 270.564L112.4 271.028L114.256 271.956C114.871 272.272 115.468 272.618 116.047 272.996C116.623 273.348 117.207 273.692 117.764 274.054L119.342 275.241C123.079 278.087 126.231 281.629 128.622 285.673C130.448 288.705 131.794 292.001 132.613 295.445C132.77 296.15 133.002 296.809 133.077 297.449C133.151 298.09 133.253 298.684 133.336 299.231C133.42 299.779 133.503 300.298 133.541 300.762C133.578 301.226 133.541 301.69 133.596 302.043C133.596 302.795 133.596 303.37 133.661 303.778C133.726 304.187 133.726 304.372 133.726 304.372Z" fill="#263238"/>
<path d="M120.26 323.74C120.544 323.308 120.854 322.892 121.188 322.497C122.031 321.385 122.806 320.223 123.508 319.017C125.856 315.051 127.32 310.625 127.8 306.041C128.281 301.457 127.766 296.823 126.292 292.457C125.847 291.133 125.33 289.835 124.742 288.568C124.494 288.118 124.28 287.649 124.102 287.167C124.102 287.167 124.195 287.269 124.334 287.492C124.473 287.714 124.677 288.039 124.909 288.485C125.571 289.727 126.138 291.018 126.608 292.345C128.198 296.741 128.773 301.439 128.291 306.088C127.809 310.737 126.282 315.218 123.823 319.193C123.084 320.392 122.259 321.537 121.355 322.618C121.039 322.998 120.761 323.276 120.585 323.471C120.408 323.666 120.278 323.75 120.26 323.74Z" fill="#263238"/>
<path d="M118.34 327.072C118.405 327.193 118.117 327.481 117.699 327.722C117.282 327.963 116.883 328.056 116.818 327.945C116.753 327.833 117.04 327.536 117.458 327.295C117.876 327.054 118.275 326.961 118.34 327.072Z" fill="#263238"/>
<path d="M70.4909 319.991C70.3977 319.857 70.3228 319.71 70.2682 319.555C70.1382 319.268 69.9341 318.841 69.7206 318.265C69.1027 316.654 68.6094 314.997 68.2451 313.31C67.0235 307.709 67.1665 301.897 68.6621 296.364C70.1578 290.83 72.9621 285.738 76.8386 281.515C77.9973 280.234 79.2573 279.049 80.6065 277.97C81.0705 277.58 81.4695 277.321 81.7294 277.126C81.9892 276.931 82.1284 276.847 82.147 276.866C82.1655 276.884 81.6458 277.321 80.7271 278.119C79.4347 279.242 78.2193 280.451 77.0892 281.738C73.3253 285.972 70.5979 291.024 69.1225 296.494C67.6472 301.963 67.4643 307.701 68.5884 313.254C68.9249 314.93 69.3713 316.583 69.9248 318.2C70.2867 319.351 70.528 319.982 70.4909 319.991Z" fill="white"/>
<path d="M92.0292 274.508C90.6283 274.944 89.1491 275.067 87.6953 274.87C88.3694 274.571 89.1017 274.425 89.8391 274.443C90.5652 274.306 91.3126 274.328 92.0292 274.508Z" fill="white"/>
</svg>
