<svg width="30" height="32" viewBox="0 0 30 32" fill="none" xmlns="http://www.w3.org/2000/svg">
<path d="M14.6666 21.3335C15.2875 21.3347 15.9 21.1914 16.4559 20.9148L19.1225 19.5815C20.4817 18.9066 21.3391 17.5177 21.3332 16.0002V12.0443C21.3379 10.5281 20.4807 9.14101 19.1225 8.46701L16.4559 7.13372C15.3292 6.57372 14.0053 6.57372 12.8786 7.13372L10.212 8.46701C8.85335 9.14063 7.99554 10.5279 7.99998 12.0443V16.0002C7.9951 17.5168 8.85228 18.9044 10.2106 19.5789L12.8773 20.9122C13.4329 21.1896 14.0455 21.3339 14.6666 21.3335ZM10.6666 16.0002V12.0443C10.6688 11.9083 10.6917 11.7734 10.7346 11.6443L13.6413 13.0976C14.2868 13.4202 15.0465 13.4202 15.692 13.0976L18.5986 11.6443C18.6415 11.7734 18.6645 11.9083 18.6666 12.0443V16.0002C18.6687 16.5061 18.3827 16.9691 17.9293 17.1935L15.2626 18.5268C14.8867 18.7129 14.4453 18.7129 14.0694 18.5268L11.4027 17.1935C10.9498 16.9687 10.6643 16.5059 10.6666 16.0002ZM23.9998 29.3334H20.3878L25.0371 25.0375C30.7649 19.3099 30.765 10.0236 25.0374 4.29587C19.3099 -1.43187 10.0236 -1.43194 4.2959 4.29556C-1.43185 10.0231 -1.43198 19.3095 4.29558 25.0371C4.30815 25.0497 8.94534 29.3334 8.94534 29.3334H5.33339C4.59702 29.3334 4.00009 29.9303 4.00009 30.6667C4.00009 31.4031 4.59702 32 5.33339 32H23.9999C24.7362 32 25.3332 31.4031 25.3332 30.6667C25.3332 29.9304 24.7362 29.3334 23.9998 29.3334ZM6.18138 6.18167C10.8573 1.48472 18.4556 1.46772 23.1525 6.14367C27.8494 10.8196 27.8664 18.4178 23.1905 23.1148L17.8772 28.0227C16.0638 29.732 13.2294 29.7221 11.428 28L6.18138 23.1521C1.50237 18.4628 1.50243 10.871 6.18138 6.18167Z" fill="white"/>
</svg>
