<svg width="35" height="32" viewBox="0 0 35 32" fill="none" xmlns="http://www.w3.org/2000/svg">
<path d="M27.6364 0H7.27273C5.34459 0.00230961 3.49608 0.769283 2.13268 2.13268C0.769283 3.49608 0.00230961 5.34459 0 7.27273L0 24.7273C0.00230961 26.6554 0.769283 28.5039 2.13268 29.8673C3.49608 31.2307 5.34459 31.9977 7.27273 32H27.6364C29.5645 31.9977 31.413 31.2307 32.7764 29.8673C34.1398 28.5039 34.9068 26.6554 34.9091 24.7273V7.27273C34.9068 5.34459 34.1398 3.49608 32.7764 2.13268C31.413 0.769283 29.5645 0.00230961 27.6364 0ZM7.27273 2.90909H27.6364C28.7937 2.90909 29.9036 3.36883 30.7219 4.18717C31.5403 5.00551 32 6.11542 32 7.27273V8.72727H2.90909V7.27273C2.90909 6.11542 3.36883 5.00551 4.18717 4.18717C5.00551 3.36883 6.11542 2.90909 7.27273 2.90909ZM27.6364 29.0909H7.27273C6.11542 29.0909 5.00551 28.6312 4.18717 27.8128C3.36883 26.9945 2.90909 25.8846 2.90909 24.7273V11.6364H32V24.7273C32 25.8846 31.5403 26.9945 30.7219 27.8128C29.9036 28.6312 28.7937 29.0909 27.6364 29.0909ZM27.6364 17.4545C27.6364 17.8403 27.4831 18.2103 27.2103 18.4831C26.9376 18.7558 26.5676 18.9091 26.1818 18.9091H8.72727C8.3415 18.9091 7.97153 18.7558 7.69875 18.4831C7.42597 18.2103 7.27273 17.8403 7.27273 17.4545C7.27273 17.0688 7.42597 16.6988 7.69875 16.426C7.97153 16.1532 8.3415 16 8.72727 16H26.1818C26.5676 16 26.9376 16.1532 27.2103 16.426C27.4831 16.6988 27.6364 17.0688 27.6364 17.4545ZM21.8182 23.2727C21.8182 23.6585 21.6649 24.0285 21.3922 24.3012C21.1194 24.574 20.7494 24.7273 20.3636 24.7273H8.72727C8.3415 24.7273 7.97153 24.574 7.69875 24.3012C7.42597 24.0285 7.27273 23.6585 7.27273 23.2727C7.27273 22.887 7.42597 22.517 7.69875 22.2442C7.97153 21.9714 8.3415 21.8182 8.72727 21.8182H20.3636C20.7494 21.8182 21.1194 21.9714 21.3922 22.2442C21.6649 22.517 21.8182 22.887 21.8182 23.2727ZM4.36364 5.81818C4.36364 5.5305 4.44894 5.24928 4.60877 5.01008C4.7686 4.77088 4.99577 4.58445 5.26155 4.47436C5.52733 4.36427 5.8198 4.33546 6.10195 4.39158C6.3841 4.44771 6.64328 4.58624 6.8467 4.78966C7.05012 4.99308 7.18865 5.25226 7.24478 5.53441C7.3009 5.81657 7.2721 6.10903 7.16201 6.37481C7.05192 6.6406 6.86548 6.86776 6.62628 7.02759C6.38709 7.18742 6.10586 7.27273 5.81818 7.27273C5.43241 7.27273 5.06244 7.11948 4.78966 6.8467C4.51688 6.57392 4.36364 6.20395 4.36364 5.81818ZM8.72727 5.81818C8.72727 5.5305 8.81258 5.24928 8.97241 5.01008C9.13224 4.77088 9.3594 4.58445 9.62519 4.47436C9.89097 4.36427 10.1834 4.33546 10.4656 4.39158C10.7477 4.44771 11.0069 4.58624 11.2103 4.78966C11.4138 4.99308 11.5523 5.25226 11.6084 5.53441C11.6645 5.81657 11.6357 6.10903 11.5256 6.37481C11.4156 6.6406 11.2291 6.86776 10.9899 7.02759C10.7507 7.18742 10.4695 7.27273 10.1818 7.27273C9.79605 7.27273 9.42608 7.11948 9.1533 6.8467C8.88052 6.57392 8.72727 6.20395 8.72727 5.81818ZM13.0909 5.81818C13.0909 5.5305 13.1762 5.24928 13.336 5.01008C13.4959 4.77088 13.723 4.58445 13.9888 4.47436C14.2546 4.36427 14.5471 4.33546 14.8292 4.39158C15.1114 4.44771 15.3706 4.58624 15.574 4.78966C15.7774 4.99308 15.9159 5.25226 15.9721 5.53441C16.0282 5.81657 15.9994 6.10903 15.8893 6.37481C15.7792 6.6406 15.5928 6.86776 15.3536 7.02759C15.1144 7.18742 14.8331 7.27273 14.5455 7.27273C14.1597 7.27273 13.7897 7.11948 13.5169 6.8467C13.2442 6.57392 13.0909 6.20395 13.0909 5.81818Z" fill="white"/>
</svg>
