<svg width="32" height="32" viewBox="0 0 32 32" fill="none" xmlns="http://www.w3.org/2000/svg">
<path d="M31.9999 13.3334C31.9999 13.2361 31.9892 13.139 31.9679 13.0441L30.2346 5.22009C29.9125 3.73508 29.0897 2.40595 27.9041 1.45555C26.7184 0.505152 25.2421 -0.00871515 23.7226 0.000111851H8.27731C6.75871 -0.00748853 5.28362 0.506939 4.09909 1.45723C2.91456 2.40753 2.09252 3.73598 1.77066 5.22009L0.0320017 13.0441C0.0106793 13.139 -5.28797e-05 13.2361 1.82586e-06 13.3334V14.6667C-0.00107391 15.9648 0.473229 17.2184 1.33333 18.1907V25.3334C1.33545 27.1008 2.0385 28.7953 3.28828 30.045C4.53806 31.2948 6.23252 31.9979 7.99997 32H23.9999C25.7674 31.9979 27.4618 31.2948 28.7116 30.045C29.9614 28.7953 30.6644 27.1008 30.6666 25.3334V18.1907C31.5267 17.2184 32.001 15.9648 31.9999 14.6667V13.3334ZM2.66666 13.4787L4.37332 5.79876C4.56671 4.90843 5.06001 4.11153 5.77066 3.5414C6.48132 2.97127 7.36623 2.66251 8.27731 2.66677H9.3333V6.66676C9.3333 7.02038 9.47378 7.35951 9.72383 7.60956C9.97387 7.85961 10.313 8.00008 10.6666 8.00008C11.0203 8.00008 11.3594 7.85961 11.6094 7.60956C11.8595 7.35951 12 7.02038 12 6.66676V2.66677H19.9999V6.66676C19.9999 7.02038 20.1404 7.35951 20.3905 7.60956C20.6405 7.85961 20.9796 8.00008 21.3333 8.00008C21.6869 8.00008 22.026 7.85961 22.2761 7.60956C22.5261 7.35951 22.6666 7.02038 22.6666 6.66676V2.66677H23.7226C24.6337 2.66251 25.5186 2.97127 26.2292 3.5414C26.9399 4.11153 27.4332 4.90843 27.6266 5.79876L29.3332 13.4787V14.6667C29.3332 15.374 29.0523 16.0522 28.5522 16.5523C28.0521 17.0524 27.3738 17.3334 26.6666 17.3334H25.3332C24.626 17.3334 23.9477 17.0524 23.4476 16.5523C22.9475 16.0522 22.6666 15.374 22.6666 14.6667C22.6666 14.3131 22.5261 13.974 22.2761 13.7239C22.026 13.4739 21.6869 13.3334 21.3333 13.3334C20.9796 13.3334 20.6405 13.4739 20.3905 13.7239C20.1404 13.974 19.9999 14.3131 19.9999 14.6667C19.9999 15.374 19.719 16.0522 19.2189 16.5523C18.7188 17.0524 18.0405 17.3334 17.3333 17.3334H14.6666C13.9594 17.3334 13.2811 17.0524 12.781 16.5523C12.2809 16.0522 12 15.374 12 14.6667C12 14.3131 11.8595 13.974 11.6094 13.7239C11.3594 13.4739 11.0203 13.3334 10.6666 13.3334C10.313 13.3334 9.97387 13.4739 9.72383 13.7239C9.47378 13.974 9.3333 14.3131 9.3333 14.6667C9.3333 15.374 9.05235 16.0522 8.55226 16.5523C8.05216 17.0524 7.37389 17.3334 6.66665 17.3334H5.33332C4.62607 17.3334 3.9478 17.0524 3.4477 16.5523C2.94761 16.0522 2.66666 15.374 2.66666 14.6667V13.4787ZM23.9999 29.3333H7.99997C6.93911 29.3333 5.9217 28.9119 5.17156 28.1618C4.42141 27.4116 3.99999 26.3942 3.99999 25.3334V19.8307C4.43545 19.9435 4.88349 20.0004 5.33332 20H6.66665C7.42373 20.0004 8.17218 19.8392 8.86198 19.5272C9.55177 19.2152 10.167 18.7596 10.6666 18.1907C11.1662 18.7596 11.7815 19.2152 12.4713 19.5272C13.1611 19.8392 13.9095 20.0004 14.6666 20H17.3333C18.0904 20.0004 18.8388 19.8392 19.5286 19.5272C20.2184 19.2152 20.8337 18.7596 21.3333 18.1907C21.8329 18.7596 22.4481 19.2152 23.1379 19.5272C23.8277 19.8392 24.5762 20.0004 25.3332 20H26.6666C27.1164 20.0004 27.5644 19.9435 27.9999 19.8307V25.3334C27.9999 26.3942 27.5785 27.4116 26.8283 28.1618C26.0782 28.9119 25.0608 29.3333 23.9999 29.3333Z" fill="white"/>
</svg>
