<svg width="305" height="240" viewBox="0 0 305 240" fill="none" xmlns="http://www.w3.org/2000/svg">
<path d="M152.076 240C236.064 240 304.151 236.025 304.151 231.121C304.151 226.218 236.064 222.243 152.076 222.243C68.0865 222.243 0 226.218 0 231.121C0 236.025 68.0865 240 152.076 240Z" fill="#F5F5F5"/>
<path d="M228.048 121.078H287.415C289.603 121.078 291.702 121.948 293.249 123.495C294.797 125.043 295.666 127.141 295.666 129.33V174.453C295.666 176.641 294.797 178.74 293.249 180.287C291.702 181.835 289.603 182.704 287.415 182.704H242.59C242.158 186.231 240.453 189.48 237.796 191.84C235.139 194.2 231.712 195.508 228.158 195.52C227.828 195.52 227.507 195.52 227.177 195.473C229.53 192.414 231.389 187.99 232.629 182.712H228.087C225.899 182.712 223.8 181.843 222.253 180.295C220.705 178.748 219.836 176.649 219.836 174.461V129.33C219.836 127.148 220.7 125.055 222.239 123.509C223.778 121.963 225.866 121.089 228.048 121.078Z" fill="#223A74"/>
<path opacity="0.4" d="M228.048 121.078H287.415C289.603 121.078 291.702 121.948 293.249 123.495C294.797 125.043 295.666 127.141 295.666 129.33V174.453C295.666 176.641 294.797 178.74 293.249 180.287C291.702 181.835 289.603 182.704 287.415 182.704H242.59C242.158 186.231 240.453 189.48 237.796 191.84C235.139 194.2 231.712 195.508 228.158 195.52C227.828 195.52 227.507 195.52 227.177 195.473C229.53 192.414 231.389 187.99 232.629 182.712H228.087C225.899 182.712 223.8 181.843 222.253 180.295C220.705 178.748 219.836 176.649 219.836 174.461V129.33C219.836 127.148 220.7 125.055 222.239 123.509C223.778 121.963 225.866 121.089 228.048 121.078Z" fill="white"/>
<path d="M225.241 138.624L222.307 133.659L224.143 130.522C224.262 130.319 224.333 130.091 224.352 129.856C224.371 129.621 224.337 129.385 224.252 129.165L224.111 128.812C224.001 128.518 223.806 128.264 223.55 128.082C223.294 127.9 222.99 127.799 222.676 127.792L219.797 127.714C219.505 127.704 219.216 127.776 218.962 127.921C218.709 128.067 218.501 128.28 218.362 128.538L217.782 129.604C217.641 129.861 217.563 130.148 217.554 130.441C217.544 130.734 217.603 131.025 217.727 131.291L218.966 133.965L221.264 140.114L225.241 138.624Z" fill="#7F3E3B"/>
<path d="M248.607 137.753L231.845 149.95L224.002 135.22L219.531 137.157C219.531 137.157 226.426 159.48 230.434 158.578C234.442 157.676 245.752 152.083 249.43 148.248C251.289 146.311 252.701 142.757 250.866 138.365C250.781 138.155 250.649 137.967 250.479 137.816C250.309 137.666 250.107 137.556 249.888 137.497C249.669 137.438 249.44 137.43 249.217 137.475C248.995 137.519 248.786 137.614 248.607 137.753Z" fill="#223A74"/>
<path d="M254.865 108.709C254.865 108.709 248.951 110.278 251.688 117.408C251.688 117.408 254.637 116.623 255.116 114.725C255.594 112.827 256.049 110.145 256.049 110.145L254.865 108.709Z" fill="#263238"/>
<path opacity="0.3" d="M254.865 108.709C254.865 108.709 248.951 110.278 251.688 117.408C251.688 117.408 254.637 116.623 255.116 114.725C255.594 112.827 256.049 110.145 256.049 110.145L254.865 108.709Z" fill="black"/>
<path d="M268.85 137.048L258.042 136.695L253.571 137.338L252.959 145.487L261.673 148.381L270.967 146.53L271.454 138.679L270.787 137.11L268.85 137.048Z" fill="#7F3E3B"/>
<path d="M254.136 182.704H269.43C269.58 177.316 270.38 149.338 270.215 149.511C270.05 149.683 271.831 143.55 271.831 143.55V141.063L270.215 138.397C270.215 138.397 266.748 143.683 261.038 143.424C255.626 143.173 254.693 137.769 254.693 137.769L254.042 146.028L253.359 166.029L254.23 174.5L254.136 182.704Z" fill="#223A74"/>
<path opacity="0.6" d="M254.136 182.704H269.43C269.58 177.316 270.38 149.338 270.215 149.511C270.05 149.683 271.831 143.55 271.831 143.55V141.063L270.215 138.397C270.215 138.397 266.748 143.683 261.038 143.424C255.626 143.173 254.693 137.769 254.693 137.769L254.042 146.028L253.359 166.029L254.23 174.5L254.136 182.704Z" fill="white"/>
<path d="M248.048 182.704H256.331C257.962 171.911 258.182 152.177 258.182 152.177C257.193 148.4 256.42 144.568 255.868 140.703C255.366 136.177 261.829 136.781 267.476 137.526C273.123 138.271 263.084 152.554 263.084 152.554C263.084 152.554 262.37 171.857 264.025 182.704H284.418C283.398 179.825 280.386 170.986 279.712 164.719C278.841 157.142 284.057 146.091 283.312 140.703C282.567 135.314 264.692 136.412 264.692 136.412C264.692 136.412 253.248 136.334 250.699 136.451C247.719 136.585 246.527 144.436 245.115 150.64C243.703 156.844 246.299 162.986 247.719 170.79C248.423 174.722 248.534 178.738 248.048 182.704Z" fill="#263238"/>
<path d="M257.179 136.389C260.896 136.389 264.732 136.389 264.732 136.389C264.732 136.389 267.014 136.248 269.979 136.31C271.163 137.095 272.724 138.993 271.485 142.961L268.897 143.958L269.367 146.507C269.367 146.507 266.387 151.213 263.093 153.017C263.093 152.703 263.093 152.53 263.093 152.53C263.093 152.53 273.14 138.248 267.485 137.502C261.83 136.757 255.375 136.153 255.877 140.679C256.429 144.545 257.201 148.376 258.19 152.154C258.19 152.154 258.19 152.232 258.19 152.366C256.622 150.946 255.249 148.444 254.269 145.448L255.328 142.514L252.975 141.228C253.176 140.118 253.672 139.083 254.412 138.231C255.152 137.379 256.108 136.743 257.179 136.389Z" fill="#223A74"/>
<path d="M257.021 140.663C256.84 140.247 256.767 139.791 256.808 139.339C256.849 138.887 257.003 138.452 257.257 138.075C261.508 136.64 261.116 133.447 260.135 130.491L266.983 123.502C266.583 127.22 266.434 135.777 268.865 138.757V139.44C267.807 140.799 266.393 141.836 264.779 142.436C263.165 143.036 261.416 143.174 259.727 142.836C259.129 142.735 258.565 142.482 258.092 142.102C257.618 141.721 257.25 141.226 257.021 140.663Z" fill="#7F3E3B"/>
<path opacity="0.1" d="M260.135 130.49L265.578 124.937L266.833 125.392C266.794 126.059 266.77 126.788 266.762 127.557C266.072 128.969 264.409 130.953 260.55 131.949C260.438 131.456 260.3 130.969 260.135 130.49Z" fill="black"/>
<path d="M270.512 117.337C268.857 123.667 268.292 126.38 264.41 129.032C258.574 133.024 251.162 129.612 250.888 122.914C250.645 116.882 253.382 107.548 260.159 106.231C261.651 105.934 263.194 106.023 264.641 106.49C266.089 106.957 267.393 107.786 268.431 108.898C269.468 110.011 270.204 111.37 270.568 112.847C270.932 114.324 270.913 115.87 270.512 117.337Z" fill="#7F3E3B"/>
<path d="M255.43 118.969C254.731 120.068 253.887 121.068 252.92 121.941C253.147 122.183 253.424 122.372 253.731 122.495C254.039 122.618 254.37 122.673 254.7 122.655L255.43 118.969Z" fill="#630F0F"/>
<path d="M262.184 116.639C262.228 116.637 262.272 116.623 262.309 116.6C262.339 116.583 262.364 116.56 262.385 116.533C262.405 116.506 262.42 116.475 262.428 116.442C262.436 116.409 262.437 116.374 262.432 116.341C262.426 116.307 262.414 116.275 262.396 116.247C262.155 115.823 261.815 115.464 261.406 115.2C260.996 114.936 260.528 114.776 260.043 114.733C260.009 114.732 259.975 114.738 259.943 114.75C259.911 114.762 259.882 114.78 259.857 114.803C259.832 114.827 259.813 114.855 259.799 114.886C259.785 114.917 259.777 114.95 259.776 114.984C259.774 115.018 259.778 115.051 259.79 115.083C259.801 115.115 259.818 115.144 259.841 115.169C259.864 115.194 259.891 115.214 259.922 115.228C259.952 115.242 259.985 115.25 260.019 115.251C260.418 115.295 260.801 115.433 261.137 115.654C261.472 115.875 261.75 116.172 261.948 116.521C261.974 116.56 262.009 116.591 262.051 116.611C262.092 116.632 262.138 116.641 262.184 116.639Z" fill="#263238"/>
<path d="M251.689 114.733C251.73 114.745 251.774 114.745 251.815 114.733C252.159 114.528 252.547 114.408 252.946 114.382C253.345 114.356 253.745 114.426 254.113 114.584C254.175 114.615 254.246 114.621 254.312 114.6C254.377 114.58 254.433 114.535 254.466 114.474C254.482 114.444 254.492 114.41 254.494 114.375C254.497 114.341 254.493 114.306 254.482 114.273C254.471 114.24 254.453 114.21 254.43 114.184C254.407 114.157 254.38 114.136 254.348 114.121C253.904 113.924 253.419 113.835 252.933 113.862C252.448 113.889 251.975 114.032 251.556 114.278C251.496 114.311 251.45 114.367 251.43 114.433C251.41 114.498 251.415 114.57 251.446 114.631C251.47 114.674 251.505 114.71 251.548 114.733C251.591 114.757 251.64 114.768 251.689 114.765V114.733Z" fill="#263238"/>
<path d="M257.352 124.396C257.049 124.397 256.747 124.371 256.45 124.318C256.429 124.315 256.409 124.308 256.391 124.297C256.373 124.287 256.358 124.272 256.345 124.256C256.333 124.239 256.324 124.22 256.319 124.199C256.314 124.179 256.313 124.158 256.316 124.137C256.324 124.097 256.347 124.06 256.38 124.035C256.414 124.011 256.456 123.999 256.497 124.004C257.159 124.134 257.842 124.108 258.491 123.926C259.141 123.745 259.739 123.415 260.238 122.961C260.269 122.94 260.306 122.929 260.344 122.932C260.381 122.935 260.417 122.95 260.444 122.976C260.472 123.002 260.49 123.036 260.495 123.073C260.5 123.11 260.493 123.148 260.473 123.181C259.628 123.972 258.51 124.407 257.352 124.396Z" fill="#263238"/>
<path d="M268.34 122.286C267.575 121.417 267.006 120.391 266.675 119.281C266.343 118.171 266.256 117.002 266.419 115.855C266.419 115.855 263.87 113.243 263.995 110.451C263.995 110.451 263.211 112.678 263.995 114.262C263.995 114.262 257.383 113.784 257.54 110.451C257.54 110.451 257.101 112.129 258.097 113C258.097 113 252.222 113.243 253.022 110.2C253.822 107.156 258.418 105.674 258.418 105.674C258.418 105.674 262.803 101.948 268.866 108.529C268.866 108.529 276.003 112.984 270.944 120.42L268.34 122.286Z" fill="#263238"/>
<path d="M270.992 122.702C270.705 123.262 270.308 123.759 269.826 124.163C269.344 124.567 268.785 124.871 268.184 125.055C266.615 125.541 265.744 124.114 266.16 122.584C266.537 121.204 267.823 119.29 269.454 119.447C270.02 119.53 270.529 119.835 270.871 120.294C271.212 120.753 271.357 121.328 271.274 121.894C271.237 122.18 271.141 122.455 270.992 122.702Z" fill="#7F3E3B"/>
<path d="M260.19 118.067C260.127 118.608 259.79 119.024 259.406 118.984C259.021 118.945 258.809 118.482 258.872 117.925C258.935 117.369 259.264 116.976 259.617 117.008C259.97 117.039 260.245 117.518 260.19 118.067Z" fill="#2E353A"/>
<path d="M254.04 117.423C253.985 117.965 253.648 118.372 253.295 118.341C252.942 118.31 252.691 117.831 252.746 117.282C252.801 116.733 253.138 116.325 253.53 116.365C253.922 116.404 254.04 116.867 254.04 117.423Z" fill="#2E353A"/>
<path d="M253.61 116.412L252.34 115.894C252.34 115.894 252.905 116.984 253.61 116.412Z" fill="#2E353A"/>
<path d="M259.8 117.086L258.521 116.576C258.521 116.576 259.094 117.635 259.8 117.086Z" fill="#2E353A"/>
<path d="M267.792 127.996C268.202 127.997 268.605 127.878 268.949 127.655C269.294 127.431 269.566 127.111 269.733 126.735C269.899 126.36 269.952 125.944 269.886 125.538C269.82 125.132 269.637 124.755 269.36 124.451L269.086 124.702C269.381 125.022 269.544 125.443 269.541 125.879C269.542 126.225 269.441 126.564 269.249 126.853C269.057 127.142 268.784 127.368 268.464 127.501C268.145 127.634 267.792 127.67 267.452 127.602C267.112 127.535 266.8 127.368 266.555 127.123C266.31 126.878 266.143 126.566 266.076 126.226C266.008 125.886 266.044 125.533 266.177 125.213C266.31 124.894 266.536 124.62 266.825 124.429C267.114 124.237 267.453 124.136 267.799 124.137C268.045 124.135 268.289 124.186 268.513 124.286L268.662 123.949C268.392 123.824 268.097 123.76 267.799 123.761C267.521 123.761 267.246 123.816 266.989 123.922C266.732 124.028 266.499 124.184 266.302 124.381C266.105 124.578 265.949 124.811 265.843 125.068C265.736 125.325 265.682 125.6 265.682 125.879C265.682 126.157 265.736 126.432 265.843 126.689C265.949 126.946 266.105 127.179 266.302 127.376C266.499 127.573 266.732 127.729 266.989 127.835C267.246 127.942 267.521 127.996 267.799 127.996H267.792Z" fill="#223A74"/>
<g opacity="0.6">
<path d="M267.792 127.996C268.202 127.997 268.605 127.878 268.949 127.655C269.294 127.431 269.566 127.111 269.733 126.735C269.899 126.36 269.952 125.944 269.886 125.538C269.82 125.132 269.637 124.755 269.36 124.451L269.086 124.702C269.381 125.022 269.544 125.443 269.541 125.879C269.542 126.225 269.441 126.564 269.249 126.853C269.057 127.142 268.784 127.368 268.464 127.501C268.145 127.634 267.792 127.67 267.452 127.602C267.112 127.535 266.8 127.368 266.555 127.123C266.31 126.878 266.143 126.566 266.076 126.226C266.008 125.886 266.044 125.533 266.177 125.213C266.31 124.894 266.536 124.62 266.825 124.429C267.114 124.237 267.453 124.136 267.799 124.137C268.045 124.135 268.289 124.186 268.513 124.286L268.662 123.949C268.392 123.824 268.097 123.76 267.799 123.761C267.521 123.761 267.246 123.816 266.989 123.922C266.732 124.028 266.499 124.184 266.302 124.381C266.105 124.578 265.949 124.811 265.843 125.068C265.736 125.325 265.682 125.6 265.682 125.879C265.682 126.157 265.736 126.432 265.843 126.689C265.949 126.946 266.105 127.179 266.302 127.376C266.499 127.573 266.732 127.729 266.989 127.835C267.246 127.942 267.521 127.996 267.799 127.996H267.792Z" fill="white"/>
</g>
<path d="M266.334 160.029L260.577 160.28L258.647 157.142C258.523 156.94 258.355 156.769 258.155 156.641C257.956 156.514 257.73 156.433 257.494 156.405L257.118 156.358C256.808 156.318 256.493 156.371 256.214 156.51C255.934 156.65 255.703 156.87 255.549 157.142L254.122 159.644C253.976 159.898 253.903 160.187 253.913 160.48C253.923 160.772 254.014 161.056 254.177 161.299L254.843 162.311C255.003 162.557 255.218 162.762 255.472 162.909C255.725 163.056 256.01 163.141 256.302 163.158L259.243 163.323L265.753 164.201L266.334 160.029Z" fill="#7F3E3B"/>
<path d="M276.568 139.048L279.431 159.574H262.732L262.332 164.429C262.332 164.429 285.274 168.876 286.364 164.915C287.454 160.954 287.854 148.35 286.207 143.291C285.368 140.742 282.905 137.801 278.168 137.369C277.946 137.349 277.722 137.38 277.514 137.458C277.305 137.537 277.117 137.662 276.963 137.823C276.81 137.984 276.694 138.178 276.626 138.39C276.557 138.602 276.537 138.827 276.568 139.048Z" fill="#223A74"/>
<path d="M203.598 20.6125H185.268L166.789 231.913H185.119C189.307 231.837 193.322 230.229 196.404 227.394C199.487 224.558 201.424 220.692 201.849 216.525L217.638 36.0091C217.856 34.0492 217.653 32.0653 217.043 30.1899C216.434 28.3145 215.431 26.5908 214.102 25.1336C212.773 23.6765 211.149 22.5195 209.338 21.7399C207.527 20.9602 205.57 20.5759 203.598 20.6125Z" fill="#263238"/>
<path d="M214.956 41.7896C214.995 41.3959 215.176 41.0297 215.464 40.7587C215.752 40.4877 216.129 40.3301 216.524 40.315C216.713 40.3117 216.901 40.3486 217.074 40.4233C217.248 40.498 217.404 40.6087 217.531 40.7482C217.659 40.8876 217.755 41.0525 217.814 41.2321C217.873 41.4116 217.894 41.6017 217.874 41.7896L216.634 55.9077C216.615 56.3189 216.442 56.7079 216.151 56.9983C215.859 57.2886 215.469 57.4592 215.058 57.4764C214.869 57.4785 214.683 57.4408 214.51 57.3656C214.337 57.2905 214.183 57.1796 214.056 57.0403C213.929 56.901 213.834 56.7364 213.775 56.5574C213.716 56.3784 213.697 56.1891 213.716 56.0018L214.956 41.7896Z" fill="#223A74"/>
<path opacity="0.3" d="M214.956 41.7896C214.995 41.3959 215.176 41.0297 215.464 40.7587C215.752 40.4877 216.129 40.3301 216.524 40.315C216.713 40.3117 216.901 40.3486 217.074 40.4233C217.248 40.498 217.404 40.6087 217.531 40.7482C217.659 40.8876 217.755 41.0525 217.814 41.2321C217.873 41.4116 217.894 41.6017 217.874 41.7896L216.634 55.9077C216.615 56.3189 216.442 56.7079 216.151 56.9983C215.859 57.2886 215.469 57.4592 215.058 57.4764C214.869 57.4785 214.683 57.4408 214.51 57.3656C214.337 57.2905 214.183 57.1796 214.056 57.0403C213.929 56.901 213.834 56.7364 213.775 56.5574C213.716 56.3784 213.697 56.1891 213.716 56.0018L214.956 41.7896Z" fill="white"/>
<path d="M181.364 231.913H105.84C103.869 231.949 101.914 231.564 100.103 230.784C98.2933 230.004 96.67 228.848 95.3417 227.392C94.0133 225.936 93.0104 224.214 92.3997 222.34C91.789 220.466 91.5845 218.484 91.7999 216.525L107.596 36.009C108.016 31.8394 109.952 27.9689 113.035 25.1311C116.119 22.2933 120.136 20.6854 124.326 20.6124H199.85C201.82 20.5774 203.775 20.9622 205.584 21.7413C207.394 22.5205 209.017 23.676 210.345 25.1311C211.673 26.5862 212.676 28.3074 213.288 30.1803C213.899 32.0533 214.104 34.0349 213.89 35.9933L198.094 216.525C197.668 220.692 195.731 224.558 192.649 227.394C189.566 230.229 185.551 231.837 181.364 231.913Z" fill="#223A74"/>
<path d="M199.545 24.1577H179.937C179.298 24.1702 178.682 24.3964 178.187 24.8002C177.692 25.204 177.347 25.7621 177.207 26.3852L177.074 27.0048C176.733 28.5279 175.891 29.8924 174.682 30.8795C173.473 31.8666 171.967 32.419 170.407 32.4481H151.724C150.246 32.4797 148.816 31.9249 147.746 30.9049C146.676 29.8848 146.053 28.4826 146.014 27.0048V26.3852C146.006 26.0844 145.938 25.7881 145.816 25.5134C145.693 25.2386 145.517 24.9907 145.299 24.7838C145.08 24.577 144.823 24.4152 144.542 24.3078C144.261 24.2003 143.962 24.1493 143.661 24.1577H124.052C120.827 24.2175 117.736 25.4561 115.362 27.6396C112.987 29.8231 111.495 32.8003 111.166 36.009L95.3299 216.525C95.1636 218.034 95.3209 219.562 95.7912 221.006C96.2615 222.45 97.034 223.777 98.0574 224.899C99.0808 226.021 100.331 226.912 101.726 227.513C103.121 228.114 104.628 228.411 106.146 228.384H181.678C184.904 228.324 187.997 227.084 190.371 224.899C192.745 222.714 194.237 219.735 194.564 216.525L210.361 36.009C210.526 34.5001 210.368 32.9734 209.897 31.5304C209.426 30.0874 208.654 28.7611 207.63 27.64C206.607 26.5188 205.357 25.6284 203.963 25.028C202.569 24.4275 201.063 24.1309 199.545 24.1577Z" fill="#223A74"/>
<path opacity="0.7" d="M199.545 24.1577H179.937C179.298 24.1702 178.682 24.3964 178.187 24.8002C177.692 25.204 177.347 25.7621 177.207 26.3852L177.074 27.0048C176.733 28.5279 175.891 29.8924 174.682 30.8795C173.473 31.8666 171.967 32.419 170.407 32.4481H151.724C150.246 32.4797 148.816 31.9249 147.746 30.9049C146.676 29.8848 146.053 28.4826 146.014 27.0048V26.3852C146.006 26.0844 145.938 25.7881 145.816 25.5134C145.693 25.2386 145.517 24.9907 145.299 24.7838C145.08 24.577 144.823 24.4152 144.542 24.3078C144.261 24.2003 143.962 24.1493 143.661 24.1577H124.052C120.827 24.2175 117.736 25.4561 115.362 27.6396C112.987 29.8231 111.495 32.8003 111.166 36.009L95.3299 216.525C95.1636 218.034 95.3209 219.562 95.7912 221.006C96.2615 222.45 97.034 223.777 98.0574 224.899C99.0808 226.021 100.331 226.912 101.726 227.513C103.121 228.114 104.628 228.411 106.146 228.384H181.678C184.904 228.324 187.997 227.084 190.371 224.899C192.745 222.714 194.237 219.735 194.564 216.525L210.361 36.009C210.526 34.5001 210.368 32.9734 209.897 31.5304C209.426 30.0874 208.654 28.7611 207.63 27.64C206.607 26.5188 205.357 25.6284 203.963 25.028C202.569 24.4275 201.063 24.1309 199.545 24.1577Z" fill="white"/>
<g opacity="0.2">
<path d="M156.523 27.1864C157.148 26.5873 157.211 25.6375 156.663 25.0648C156.115 24.4922 155.163 24.5137 154.537 25.1127C153.912 25.7118 153.849 26.6617 154.397 27.2343C154.945 27.807 155.897 27.7855 156.523 27.1864Z" fill="black"/>
<path d="M167.802 24.6596H162.656C162.248 24.667 161.857 24.8234 161.557 25.0994C161.256 25.3754 161.067 25.7518 161.025 26.1576C161.005 26.3487 161.026 26.5417 161.086 26.7241C161.146 26.9065 161.244 27.0741 161.374 27.2157C161.504 27.3573 161.662 27.4697 161.839 27.5456C162.015 27.6215 162.206 27.659 162.398 27.6557H167.543C167.95 27.6466 168.341 27.4896 168.641 27.214C168.941 26.9383 169.131 26.5629 169.174 26.1576C169.196 25.9664 169.176 25.7728 169.116 25.5898C169.056 25.4069 168.958 25.2388 168.828 25.0969C168.698 24.955 168.539 24.8425 168.362 24.7671C168.185 24.6917 167.994 24.655 167.802 24.6596Z" fill="black"/>
</g>
<path d="M119.66 32.4246H121.245L121.386 30.8324H119.793L119.66 32.4246Z" fill="#223A74"/>
<path d="M122.977 30.8324L122.836 32.4246H124.42L124.561 30.8324L124.703 29.248H123.11L122.977 30.8324Z" fill="#223A74"/>
<path d="M126.429 27.6558L126.288 29.248L126.147 30.8323L126.014 32.4245H127.598L127.739 30.8323L127.88 29.248L128.014 27.6558H126.429Z" fill="#223A74"/>
<path d="M194.721 27.7656L194.619 28.9265H193.835L193.631 31.2795H194.415L194.313 32.4481H201.302L201.71 27.7892L194.721 27.7656ZM197.521 31.2559H195.168L195.372 28.9029H197.725L197.521 31.2559Z" fill="#223A74"/>
<g opacity="0.4">
<path d="M151.78 32.4483L99.6445 226.313C101.537 227.677 103.814 228.402 106.147 228.384H110.225L162.917 32.4483H151.78Z" fill="white"/>
<path d="M199.546 24.1578H179.938C179.299 24.1703 178.683 24.3965 178.188 24.8003C177.693 25.2042 177.348 25.7622 177.208 26.3853L177.075 27.0049C176.743 28.4875 175.936 29.8211 174.777 30.8024C173.617 31.7837 172.168 32.359 170.651 32.4404L117.928 228.384H158.125L210.362 34.1346C210.195 31.3974 208.976 28.8309 206.96 26.9716C204.944 25.1123 202.288 24.1041 199.546 24.1578Z" fill="white"/>
</g>
<path d="M120.632 76.7711L118.279 76.2613C118.127 76.2316 117.984 76.169 117.859 76.0779C117.734 75.9869 117.631 75.8696 117.556 75.7343C117.481 75.599 117.437 75.449 117.426 75.2948C117.416 75.1406 117.439 74.9859 117.495 74.8417L120.781 66.261L124.538 67.0453L121.863 76.0103C121.793 76.2698 121.627 76.4927 121.398 76.634C121.169 76.7753 120.895 76.8243 120.632 76.7711Z" fill="#223A74"/>
<path d="M129.747 65.7903C129.593 65.7569 129.446 65.6931 129.316 65.6028C129.186 65.5124 129.075 65.3972 128.99 65.2637C128.904 65.1303 128.846 64.9813 128.819 64.8253C128.791 64.6694 128.795 64.5095 128.83 64.355L129.144 62.8804C129.177 62.7248 129.241 62.5774 129.332 62.4467C129.423 62.3161 129.539 62.2048 129.673 62.1194C129.807 62.034 129.957 61.9762 130.114 61.9493C130.271 61.9224 130.432 61.927 130.587 61.9627C130.9 62.0304 131.173 62.2196 131.347 62.4888C131.52 62.7579 131.58 63.085 131.512 63.3981L131.191 64.8648C131.121 65.1784 130.93 65.4518 130.66 65.6253C130.39 65.7987 130.062 65.858 129.747 65.7903Z" fill="#223A74"/>
<path d="M127.425 58.4803C127.425 58.4803 118.483 57.4606 115.354 55.8606C107.997 52.0801 100.961 43.0602 99.471 42.7386C97.0396 42.2053 93.7297 47.9623 92.0669 55.5939C90.4041 63.2255 91.0315 69.8297 93.463 70.3552C94.9611 70.6846 105.095 65.3982 113.362 65.0138C116.876 64.857 125.409 67.6727 125.409 67.6727L127.425 58.4803Z" fill="#223A74"/>
<path opacity="0.3" d="M127.425 58.4803C127.425 58.4803 118.483 57.4606 115.354 55.8606C107.997 52.0801 100.961 43.0602 99.471 42.7386C97.0396 42.2053 93.7297 47.9623 92.0669 55.5939C90.4041 63.2255 91.0315 69.8297 93.463 70.3552C94.9611 70.6846 105.095 65.3982 113.362 65.0138C116.876 64.857 125.409 67.6727 125.409 67.6727L127.425 58.4803Z" fill="white"/>
<path d="M100.866 57.4764C99.2107 65.1002 95.893 70.8573 93.4615 70.3239C91.0301 69.7906 90.4104 63.1864 92.0654 55.5626C93.7203 47.9389 97.0381 42.174 99.4695 42.7073C101.901 43.2407 102.528 49.8762 100.866 57.4764Z" fill="#223A74"/>
<path opacity="0.4" d="M100.866 57.4764C99.2107 65.1002 95.893 70.8573 93.4615 70.3239C91.0301 69.7906 90.4104 63.1864 92.0654 55.5626C93.7203 47.9389 97.0381 42.174 99.4695 42.7073C101.901 43.2407 102.528 49.8762 100.866 57.4764Z" fill="black"/>
<path d="M125.975 57.4765L121.826 56.5745C121.559 56.5156 121.282 56.5123 121.014 56.5648C120.746 56.6173 120.491 56.7246 120.266 56.8798C120.041 57.0351 119.85 57.235 119.705 57.4672C119.561 57.6994 119.466 57.9589 119.426 58.2294C119.277 59.2726 119.088 60.3471 118.853 61.4452C118.618 62.5433 118.335 63.6022 118.069 64.5826C117.993 64.8459 117.972 65.1221 118.007 65.3939C118.042 65.6657 118.132 65.9275 118.273 66.1628C118.413 66.3982 118.601 66.6021 118.823 66.7621C119.046 66.922 119.299 67.0344 119.567 67.0925L124.485 68.1592C127.434 68.8023 129.559 66.7238 130.155 63.759C130.422 62.3728 130.133 60.9373 129.351 59.762C128.569 58.5867 127.357 57.7659 125.975 57.4765Z" fill="#263238"/>
<path d="M96.6008 55.947L96.3419 57.1471C96.2666 57.4824 96.3127 57.8337 96.4722 58.1382C96.6316 58.4427 96.894 58.6807 97.2125 58.8099L100.224 60.0648C100.46 59.2413 100.679 58.3863 100.868 57.5079C101.056 56.6294 101.221 55.7509 101.354 54.9039L98.0832 54.794C97.7402 54.7825 97.4041 54.8915 97.1332 55.1022C96.8624 55.3128 96.674 55.6118 96.6008 55.947Z" fill="#263238"/>
<path opacity="0.8" d="M96.6008 55.947L96.3419 57.1471C96.2666 57.4824 96.3127 57.8337 96.4722 58.1382C96.6316 58.4427 96.894 58.6807 97.2125 58.8099L100.224 60.0648C100.46 59.2413 100.679 58.3863 100.868 57.5079C101.056 56.6294 101.221 55.7509 101.354 54.9039L98.0832 54.794C97.7402 54.7825 97.4041 54.8915 97.1332 55.1022C96.8624 55.3128 96.674 55.6118 96.6008 55.947Z" fill="white"/>
<path opacity="0.2" d="M98.8752 57.0685C98.7105 57.8528 98.5301 58.5587 98.334 59.2803L100.224 60.0647C100.46 59.2411 100.679 58.3862 100.867 57.5077C101.056 56.6293 101.22 55.7508 101.354 54.9037L99.2987 54.8331C99.1837 55.5495 99.0425 56.2946 98.8752 57.0685Z" fill="black"/>
<path d="M171.34 57.5392C172.089 57.8259 172.896 57.9307 173.694 57.8448C174.491 57.7589 175.257 57.4848 175.928 57.045C178.336 55.4763 182.854 57.4529 181.489 63.8766C179.136 74.9201 174.226 82.8498 177.411 86.1911C177.411 86.1911 166.806 86.6773 168.375 77.3123C169.552 70.2533 177.528 62.3158 175.607 60.7314C174.964 60.1981 174.038 60.4726 171.018 60.4726L171.34 57.5392Z" fill="#263238"/>
<path d="M171.018 60.4726C172.471 60.4246 173.923 60.5991 175.324 60.9902C175.818 59.5684 176.01 58.0591 175.888 56.5587C174.344 56.7361 172.82 57.0645 171.339 57.5391L171.018 60.4726Z" fill="#223A74"/>
<path d="M161.035 49.4919C161.035 49.4919 156.627 48.237 159.537 45.3898C163.333 41.6799 168.729 48.6291 168.729 48.6291C168.729 48.6291 181.38 54.1587 170.941 66.9827C170.941 66.9827 167.168 73.728 166.384 71.1004C165.599 68.4729 170.839 61.0295 170.839 61.0295L170.525 54.3626L169.074 51.7665L164.517 49.1625L161.035 49.4919Z" fill="#263238"/>
<path d="M143.552 87.0539C143.253 86.5649 142.86 86.1396 142.397 85.8023C141.933 85.4651 141.408 85.2225 140.851 85.0885C140.294 84.9544 139.715 84.9316 139.149 85.0212C138.583 85.1108 138.04 85.3111 137.552 85.6107H137.489C136.116 86.4499 134.657 87.3833 133.214 88.2461L128.861 90.8579C126.822 92.0554 124.772 93.2188 122.712 94.3482C122.594 92.7824 122.568 91.2111 122.633 89.6422C122.688 87.8069 122.822 85.9323 122.963 84.0577C123.104 82.1831 123.292 80.2615 123.449 78.4026V78.3556C123.489 77.833 123.339 77.3136 123.027 76.8925C122.715 76.4714 122.262 76.1767 121.75 76.0624C121.239 75.9481 120.704 76.0218 120.242 76.2701C119.78 76.5184 119.424 76.9246 119.237 77.4144C118.539 79.3046 117.99 81.1713 117.441 83.0851C116.892 84.9989 116.476 86.9284 116.108 88.9206C115.705 90.9889 115.485 93.0885 115.449 95.1953C115.418 96.5209 115.59 97.8435 115.959 99.117C116.295 100.256 116.948 101.276 117.841 102.058C118.518 102.631 119.327 103.027 120.194 103.211C120.951 103.358 121.728 103.358 122.484 103.211C122.666 103.171 122.845 103.116 123.018 103.047L123.277 102.945C124.947 102.254 126.61 101.564 128.226 100.78C129.842 99.9955 131.457 99.2111 133.034 98.3876C134.61 97.564 136.171 96.6777 137.74 95.7601C139.308 94.8424 140.767 93.9247 142.313 92.858C143.21 92.2232 143.837 91.2736 144.066 90.1981C144.296 89.1226 144.112 88.0001 143.552 87.0539Z" fill="#CE7A63"/>
<path d="M147.369 81.3281C150.012 86.6538 146.208 91.2735 139.235 98.6777C135.594 95.7247 133.05 91.6338 132.012 87.0616C132.012 87.0616 140.075 80.4105 147.369 81.3281Z" fill="#223A74"/>
<path opacity="0.2" d="M147.645 87.6499C145.064 86.0812 142.154 85.3753 140.139 87.9401C138.565 90.0055 136.742 91.8681 134.711 93.4854C135.946 95.4438 137.481 97.1959 139.26 98.6777C143.448 94.2541 146.445 90.8265 147.645 87.6499Z" fill="black"/>
<path d="M121.488 68.4571L123.276 69.6415C123.61 69.8586 123.886 70.1532 124.082 70.5001C124.277 70.8469 124.385 71.2358 124.398 71.6337L124.539 75.4064C124.563 76.1488 124.41 76.8862 124.094 77.5582C123.777 78.2303 123.307 78.818 122.72 79.2732L121.974 79.8457C118.837 78.081 116.806 73.8926 116.806 73.8926L116.084 72.7632C115.929 72.5356 115.821 72.2796 115.766 72.0099C115.712 71.7403 115.711 71.4624 115.764 71.1925C115.817 70.9225 115.924 70.6658 116.077 70.4373C116.23 70.2087 116.427 70.0129 116.657 69.8611L118.868 68.4022C119.264 68.1575 119.722 68.0324 120.186 68.0422C120.651 68.0519 121.103 68.196 121.488 68.4571Z" fill="#CE7A63"/>
<path d="M141.246 228.384C145.309 215.834 148.085 201.897 145.324 191.724C162.109 142.42 154.54 128.067 154.54 128.067L134.563 120.78C134.563 120.78 131.708 165.182 130.845 186.665C130.367 198.673 128.32 214.289 125.959 228.392L141.246 228.384Z" fill="#263238"/>
<path opacity="0.5" d="M151.606 146.311L147.551 139.769L145.073 144.867C143.78 158.925 144.392 173.093 146.892 186.986C150.124 177.282 152.676 167.365 154.532 157.307L151.606 146.311Z" fill="black"/>
<path d="M153.52 228.384H168.666C170.234 215.34 170.234 201.309 165.607 191.928C172.666 140.326 162.469 127.69 162.469 127.69L141.465 124.365C141.465 124.365 147.167 168.492 150.438 189.724C152.124 200.72 153.081 214.987 153.52 228.384Z" fill="#263238"/>
<path d="M138.022 91.2423C137.135 95.0598 136.506 98.9327 136.14 102.835C135.465 108.521 134.971 114.137 134.32 123.526L162.76 128.067C163.459 119.973 165.835 110.992 173.796 93.7757C174.246 92.8801 174.49 91.8954 174.51 90.8935C174.53 89.8915 174.326 88.8978 173.912 87.985C173.499 87.0722 172.886 86.2634 172.12 85.6178C171.353 84.9722 170.452 84.5062 169.482 84.2538C168.376 83.9636 167.2 83.6812 165.984 83.4224C161.732 82.4365 157.415 81.755 153.066 81.3831C151.646 81.289 150.164 81.2341 148.744 81.2027C143.615 81.0694 138.971 86.2617 138.022 91.2423Z" fill="#223A74"/>
<path d="M167.371 68.7003C165.59 72.6769 163.01 80.0732 165.269 83.2733C165.269 83.2733 161.426 82.0576 152.257 85.9009C150.382 82.0498 152.359 81.1948 152.359 81.1948C157.245 80.8419 157.927 77.4222 157.849 74.1358L167.371 68.7003Z" fill="#CE7A63"/>
<path d="M154.178 85.14C154.671 85.3213 155.119 85.6062 155.493 85.9756C155.866 86.345 156.156 86.7902 156.343 87.2813C156.499 87.6383 156.728 87.9582 157.017 88.22C157.305 88.4818 157.646 88.6796 158.017 88.8004C158.387 88.9211 158.779 88.9621 159.166 88.9206C159.554 88.8792 159.928 88.7562 160.264 88.5597C162.617 87.2342 165.582 85.3439 167.064 83.6655C166.296 83.0809 165.561 82.4551 164.86 81.7909C164.86 81.7909 156.037 83.8066 154.178 85.14Z" fill="white"/>
<path d="M151.629 84.2851C150.958 84.3936 150.323 84.6627 149.778 85.0694C149.627 85.1793 149.445 85.2386 149.258 85.2387C149.071 85.2389 148.889 85.1799 148.738 85.0703C148.586 84.9606 148.473 84.8059 148.415 84.6283C148.357 84.4506 148.356 84.2591 148.414 84.0812C149.394 81.3046 151.088 80.9438 151.088 80.9438C151.907 80.632 152.811 80.632 153.629 80.9438C152.951 81.1684 152.375 81.6293 152.008 82.2427C151.641 82.856 151.507 83.5809 151.629 84.2851Z" fill="white"/>
<path opacity="0.2" d="M163.497 70.9199L157.881 74.1357C157.908 74.9227 157.86 75.7105 157.74 76.4887C159.576 76.4887 162.446 74.9828 163.074 73.1867C163.354 72.4637 163.497 71.6952 163.497 70.9199Z" fill="black"/>
<path d="M172.242 60.9274C169.889 67.4374 169.105 70.2297 164.736 72.8415C158.218 76.7632 150.712 72.9592 151.033 66.0021C151.331 59.7274 155.081 50.1428 162.344 49.0212C163.896 48.728 165.498 48.8553 166.984 49.3899C168.47 49.9245 169.787 50.8469 170.796 52.0615C171.806 53.2761 172.473 54.7386 172.727 56.2976C172.981 57.8565 172.814 59.455 172.242 60.9274Z" fill="#CE7A63"/>
<path d="M163.496 60.6843C163.323 61.2412 162.9 61.6255 162.539 61.5393C162.178 61.453 162.029 60.9353 162.194 60.3784C162.358 59.8216 162.798 59.4451 163.159 59.5313C163.519 59.6176 163.668 60.1353 163.496 60.6843Z" fill="#263238"/>
<path d="M156.555 58.8334C156.383 59.3824 155.951 59.7667 155.591 59.6805C155.23 59.5942 155.081 59.0765 155.253 58.5275C155.426 57.9784 155.857 57.5863 156.218 57.6726C156.579 57.7588 156.728 58.2608 156.555 58.8334Z" fill="#263238"/>
<path d="M156.366 57.743L155.158 57.0449C155.158 57.0449 155.519 58.2606 156.366 57.743Z" fill="#263238"/>
<path d="M158.571 59.9784C157.687 61.1301 156.659 62.1634 155.512 63.053C155.739 63.3209 156.023 63.5346 156.343 63.6785C156.663 63.8223 157.012 63.8927 157.363 63.8844L158.571 59.9784Z" fill="#BA4D3C"/>
<path d="M165.606 57.4763C165.562 57.4724 165.519 57.4584 165.481 57.4353C165.442 57.4122 165.41 57.3806 165.386 57.343C165.172 56.9917 164.873 56.6999 164.517 56.4943C164.161 56.2888 163.758 56.176 163.347 56.1665C163.304 56.1675 163.261 56.16 163.222 56.1443C163.182 56.1286 163.145 56.1051 163.115 56.0751C163.084 56.0451 163.059 56.0093 163.043 55.9698C163.026 55.9303 163.018 55.8878 163.018 55.8449C163.023 55.7531 163.062 55.6665 163.127 55.6015C163.192 55.5365 163.279 55.4975 163.371 55.4919C163.89 55.501 164.4 55.6391 164.853 55.8937C165.306 56.1484 165.689 56.5116 165.967 56.9508C165.997 57.0089 166.011 57.0741 166.007 57.1396C166.003 57.205 165.981 57.2681 165.944 57.3221C165.907 57.3761 165.856 57.419 165.797 57.4462C165.737 57.4733 165.671 57.4838 165.606 57.4763Z" fill="#263238"/>
<path d="M155.066 54.1743C155.027 54.1585 154.992 54.1351 154.962 54.1055C154.933 54.0759 154.909 54.0406 154.894 54.0018C154.866 53.9175 154.873 53.8258 154.913 53.7466C154.952 53.6673 155.021 53.6068 155.105 53.5782C155.608 53.3669 156.152 53.2739 156.696 53.3065C157.24 53.3392 157.769 53.4966 158.243 53.7664C158.278 53.7912 158.308 53.823 158.33 53.8598C158.353 53.8966 158.367 53.9376 158.373 53.9802C158.379 54.0229 158.376 54.0664 158.364 54.1078C158.353 54.1493 158.333 54.188 158.305 54.2214C158.251 54.2928 158.171 54.3412 158.083 54.3572C157.994 54.3731 157.903 54.3555 157.827 54.3076C157.449 54.0963 157.027 53.975 156.595 53.9533C156.162 53.9315 155.73 54.0098 155.333 54.1821C155.29 54.1986 155.244 54.2064 155.199 54.205C155.153 54.2037 155.108 54.1932 155.066 54.1743Z" fill="#263238"/>
<path d="M163.309 59.602L162.109 58.9039C162.109 58.9039 162.462 60.104 163.309 59.602Z" fill="#263238"/>
<path d="M137.442 112.623H130.665C130.336 112.609 130.02 112.488 129.766 112.278C129.511 112.069 129.331 111.783 129.253 111.462L126.116 96.7797C126.076 96.6417 126.069 96.4961 126.097 96.3551C126.124 96.2141 126.185 96.0816 126.274 95.9688C126.363 95.856 126.478 95.7661 126.608 95.7066C126.739 95.6471 126.882 95.6197 127.026 95.6267H133.803C134.131 95.6407 134.446 95.7605 134.7 95.9684C134.955 96.1762 135.135 96.4608 135.214 96.7797L138.352 111.462C138.392 111.601 138.398 111.747 138.37 111.888C138.343 112.029 138.282 112.162 138.193 112.275C138.105 112.389 137.99 112.479 137.86 112.54C137.729 112.6 137.586 112.629 137.442 112.623Z" fill="#263238"/>
<path d="M136.657 112.623H129.88C129.551 112.609 129.235 112.488 128.98 112.278C128.726 112.069 128.546 111.783 128.468 111.462L125.331 96.7797C125.291 96.6417 125.284 96.4961 125.312 96.3551C125.339 96.2141 125.4 96.0816 125.489 95.9688C125.578 95.856 125.693 95.7661 125.823 95.7066C125.954 95.6471 126.097 95.6197 126.241 95.6267H133.017C133.346 95.6407 133.661 95.7605 133.915 95.9684C134.17 96.1762 134.35 96.4608 134.429 96.7797L137.567 111.462C137.606 111.601 137.613 111.747 137.585 111.888C137.558 112.029 137.497 112.162 137.408 112.275C137.319 112.389 137.205 112.479 137.074 112.54C136.944 112.6 136.801 112.629 136.657 112.623Z" fill="#263238"/>
<path opacity="0.2" d="M136.657 112.623H129.88C129.551 112.609 129.235 112.488 128.98 112.278C128.726 112.069 128.546 111.783 128.468 111.462L125.331 96.7797C125.291 96.6417 125.284 96.4961 125.312 96.3551C125.339 96.2141 125.4 96.0816 125.489 95.9688C125.578 95.856 125.693 95.7661 125.823 95.7066C125.954 95.6471 126.097 95.6197 126.241 95.6267H133.017C133.346 95.6407 133.661 95.7605 133.915 95.9684C134.17 96.1762 134.35 96.4608 134.429 96.7797L137.567 111.462C137.606 111.601 137.613 111.747 137.585 111.888C137.558 112.029 137.497 112.162 137.408 112.275C137.319 112.389 137.205 112.479 137.074 112.54C136.944 112.6 136.801 112.629 136.657 112.623Z" fill="white"/>
<path d="M134.225 103.972L136.327 103.509C136.715 103.423 137.118 103.431 137.503 103.532C137.887 103.633 138.242 103.824 138.538 104.09L141.346 106.615C141.897 107.115 142.321 107.738 142.584 108.433C142.847 109.129 142.942 109.876 142.86 110.615L142.75 111.541C139.323 112.553 134.907 111.125 134.907 111.125L133.589 110.858C133.318 110.811 133.059 110.711 132.827 110.562C132.595 110.414 132.395 110.221 132.238 109.995C132.081 109.769 131.97 109.514 131.913 109.245C131.856 108.975 131.852 108.698 131.903 108.427L132.397 105.815C132.494 105.365 132.717 104.953 133.041 104.626C133.365 104.3 133.776 104.072 134.225 103.972Z" fill="#CE7A63"/>
<path d="M170.374 88.701C169.223 88.5917 168.077 88.9433 167.186 89.6786C166.295 90.4138 165.732 91.4727 165.62 92.6226V92.7717C165.542 93.556 165.44 94.5129 165.338 95.3992C165.236 96.2855 165.111 97.2032 164.977 98.1052C164.711 99.917 164.389 101.705 164.028 103.478C163.667 105.251 163.244 106.992 162.734 108.694C162.318 110.059 161.84 111.376 161.33 112.663C160.698 112.688 160.064 112.649 159.44 112.545C157.414 112.24 155.412 111.798 153.448 111.219C151.604 110.639 149.745 109.964 147.887 109.258C146.028 108.553 144.153 107.792 142.326 107.062H142.279C141.787 106.858 141.237 106.841 140.734 107.015C140.231 107.189 139.809 107.542 139.549 108.006C139.289 108.471 139.208 109.015 139.322 109.535C139.436 110.055 139.738 110.515 140.169 110.827C141.894 112.098 143.635 113.18 145.432 114.31C147.228 115.439 149.087 116.404 151.024 117.337C153.254 118.315 155.563 119.102 157.926 119.69C159.204 120.043 160.522 120.233 161.848 120.255C162.736 120.265 163.62 120.135 164.467 119.871C165.656 119.507 166.717 118.813 167.526 117.871C167.667 117.696 167.793 117.509 167.903 117.314L167.981 117.165C168.995 115.297 169.876 113.36 170.617 111.368C171.331 109.427 171.939 107.447 172.436 105.439C172.946 103.454 173.338 101.454 173.66 99.4464C173.809 98.4346 173.942 97.4306 174.06 96.4188C174.178 95.4071 174.264 94.4266 174.319 93.2815C174.379 92.1566 174.001 91.0522 173.266 90.1987C172.531 89.3452 171.495 88.8086 170.374 88.701Z" fill="#CE7A63"/>
<path d="M171.684 85.2341C176.531 88.6617 176.767 93.7913 174.147 103.611C170.641 105.368 162.123 103.148 162.123 103.148C162.123 103.148 164.805 87.9009 171.684 85.2341Z" fill="#223A74"/>
<path d="M154.242 65.7669C154.242 65.7669 156.595 65.3041 162.987 65.5002C162.203 67.414 160.728 68.9356 157.426 68.8336C156.634 68.8853 155.853 68.6202 155.256 68.0966C154.659 67.573 154.294 66.8338 154.242 66.0414C154.242 65.9473 154.234 65.861 154.242 65.7669Z" fill="#263238"/>
<path d="M158.995 67.3355C157.729 67.2281 156.461 67.5217 155.371 68.1747C155.973 68.589 156.687 68.8105 157.418 68.8101C158.682 68.9212 159.948 68.6272 161.034 67.9708C160.439 67.5487 159.725 67.3263 158.995 67.3355Z" fill="#BA4D3C"/>
<path d="M154.531 65.7277C154.59 65.9649 154.712 66.1817 154.885 66.3544C155.058 66.5272 155.274 66.6495 155.512 66.7081C157.421 66.7621 159.331 66.6545 161.222 66.3866C161.523 66.3667 161.815 66.2734 162.072 66.1148C162.329 65.9562 162.543 65.7372 162.696 65.4767C159.972 65.3447 157.242 65.4286 154.531 65.7277Z" fill="white"/>
<path d="M162.399 48.5899C161.988 48.6526 161.582 48.7444 161.184 48.8644V49.2409C162.215 49.227 163.243 49.3779 164.227 49.688C169.654 51.3429 170.502 54.394 168.682 58.904C167.811 61.053 167.341 65.6101 168.345 66.465C168.603 66.6846 169.388 66.6532 170.407 66.465C171.082 64.8963 171.725 63.0688 172.549 60.7628C173.128 59.2549 173.294 57.6195 173.031 56.0258C172.767 54.432 172.082 52.9376 171.048 51.6968C170.013 50.4561 168.666 49.514 167.146 48.9678C165.625 48.4216 163.987 48.2911 162.399 48.5899Z" fill="#263238"/>
<path d="M172.863 66.8885C172.36 67.4139 171.758 67.8342 171.092 68.1251C170.425 68.4159 169.707 68.5714 168.98 68.5826C167.098 68.5826 166.8 66.6375 167.859 65.0217C168.808 63.5707 170.926 61.8216 172.565 62.6138C174.204 63.406 174.165 65.5472 172.863 66.8885Z" fill="#CE7A63"/>
<g opacity="0.9">
<path d="M161.294 100.207C148.086 99.4229 142.125 96.9523 139.748 95.5718C139.672 95.5313 139.6 95.4812 139.536 95.4228C138.854 94.8267 139.717 93.7365 140.509 94.1914C142.588 95.3914 148.313 97.8307 161.388 98.6386C161.595 98.6507 161.788 98.7442 161.927 98.8984C162.065 99.0527 162.136 99.2554 162.125 99.4622C162.12 99.5659 162.095 99.6676 162.05 99.7614C162.006 99.8552 161.943 99.9392 161.865 100.008C161.788 100.078 161.698 100.131 161.6 100.165C161.502 100.199 161.398 100.214 161.294 100.207Z" fill="white"/>
</g>
<g opacity="0.9">
<path d="M160.601 107.674C160.601 107.78 160.579 107.886 160.538 107.984C160.496 108.081 160.434 108.17 160.357 108.243C160.28 108.316 160.189 108.373 160.089 108.41C159.99 108.447 159.883 108.464 159.777 108.458C152.241 108.184 144.83 106.448 137.957 103.345C137.862 103.297 137.778 103.232 137.709 103.151C137.64 103.07 137.589 102.977 137.557 102.875C137.525 102.774 137.515 102.668 137.526 102.562C137.536 102.457 137.568 102.355 137.62 102.262C137.716 102.086 137.877 101.954 138.068 101.893C138.259 101.831 138.466 101.846 138.647 101.933C145.335 104.924 152.535 106.607 159.856 106.89C160.057 106.9 160.246 106.987 160.385 107.133C160.524 107.279 160.601 107.473 160.601 107.674Z" fill="white"/>
</g>
<g opacity="0.9">
<path d="M147.317 120.749C141.199 119.557 138.054 118.741 136.729 118.396C136.627 118.367 136.532 118.317 136.45 118.25C136.368 118.183 136.301 118.1 136.252 118.006C136.202 117.912 136.173 117.81 136.165 117.704C136.156 117.599 136.169 117.492 136.203 117.392C136.268 117.202 136.403 117.043 136.581 116.95C136.759 116.857 136.967 116.835 137.16 116.89C138.431 117.251 141.568 118.059 147.615 119.243C147.819 119.283 147.999 119.402 148.115 119.574C148.231 119.746 148.274 119.957 148.235 120.161C148.188 120.359 148.066 120.531 147.895 120.64C147.724 120.75 147.517 120.789 147.317 120.749Z" fill="white"/>
</g>
<path d="M161.275 51.2017C161.012 51.3132 160.715 51.3174 160.448 51.2134C160.182 51.1093 159.966 50.9053 159.848 50.6448C159.741 50.3796 159.705 50.0911 159.744 49.8078C159.782 49.5245 159.894 49.2561 160.067 49.029C160.419 48.5748 160.877 48.2138 161.401 47.978C160.957 48.5052 160.647 49.1323 160.499 49.8055C160.514 50.4173 160.703 51.3977 161.275 51.2017Z" fill="#263238"/>
<path d="M167.826 67.21C167.825 67.282 167.808 67.3529 167.777 67.4179C167.746 67.483 167.702 67.5408 167.647 67.5874C167.592 67.6341 167.528 67.6687 167.459 67.6888C167.39 67.7089 167.317 67.7141 167.246 67.7041C167.102 67.673 166.97 67.6021 166.864 67.4995C166.759 67.3969 166.685 67.2666 166.65 67.1237C166.591 66.8339 166.591 66.5351 166.65 66.2453C166.697 65.5769 166.859 64.9216 167.128 64.308C167.399 63.6891 167.891 63.1939 168.509 62.9197C168.619 63.0505 168.689 63.2101 168.712 63.3797C168.734 63.5494 168.707 63.7218 168.634 63.8766C168.472 64.1523 168.289 64.4146 168.085 64.6609C167.849 65.0113 167.695 65.4111 167.637 65.8298C167.578 66.2484 167.616 66.6749 167.748 67.0767C167.811 67.0924 167.763 67.2022 167.826 67.21Z" fill="#263238"/>
<path d="M79.4556 116.961H23.6107C21.5513 116.961 19.5762 117.779 18.12 119.235C16.6638 120.691 15.8457 122.666 15.8457 124.726V167.174C15.8457 169.233 16.6638 171.208 18.12 172.665C19.5762 174.121 21.5513 174.939 23.6107 174.939H65.8003C66.2097 178.262 67.8199 181.321 70.3277 183.54C72.8355 185.759 76.0679 186.985 79.4164 186.986C79.7223 186.986 80.0282 186.986 80.3341 186.939C78.1536 184.069 76.3732 179.88 75.2045 174.939H79.4791C81.5385 174.939 83.5136 174.121 84.9698 172.665C86.426 171.208 87.2441 169.233 87.2441 167.174V124.726C87.2441 123.704 87.0425 122.692 86.6508 121.749C86.2591 120.805 85.685 119.948 84.9615 119.227C84.2379 118.505 83.3792 117.934 82.4344 117.545C81.4895 117.156 80.4773 116.958 79.4556 116.961Z" fill="#223A74"/>
<path opacity="0.4" d="M79.4556 116.961H23.6107C21.5513 116.961 19.5762 117.779 18.12 119.235C16.6638 120.691 15.8457 122.666 15.8457 124.726V167.174C15.8457 169.233 16.6638 171.208 18.12 172.665C19.5762 174.121 21.5513 174.939 23.6107 174.939H65.8003C66.2097 178.262 67.8199 181.321 70.3277 183.54C72.8355 185.759 76.0679 186.985 79.4164 186.986C79.7223 186.986 80.0282 186.986 80.3341 186.939C78.1536 184.069 76.3732 179.88 75.2045 174.939H79.4791C81.5385 174.939 83.5136 174.121 84.9698 172.665C86.426 171.208 87.2441 169.233 87.2441 167.174V124.726C87.2441 123.704 87.0425 122.692 86.6508 121.749C86.2591 120.805 85.685 119.948 84.9615 119.227C84.2379 118.505 83.3792 117.934 82.4344 117.545C81.4895 117.156 80.4773 116.958 79.4556 116.961Z" fill="white"/>
<path d="M90.6406 135L94.9859 130.977L98.7036 137.855C98.7036 137.855 94.3976 141.142 91.8485 139.118L90.6406 135Z" fill="#FF8B7B"/>
<path d="M90.6406 134.993L87.6836 141.283L91.7386 144.64L95.2838 138.899L90.6406 134.993Z" fill="#FF8B7B"/>
<path d="M99.1191 131.91L99.8328 134.506C100.01 135.113 99.9961 135.759 99.7941 136.358C99.5922 136.957 99.2115 137.48 98.7034 137.855L97.1347 138.899L92.6953 131.102L96.4994 130.145C96.7875 130.086 97.0845 130.085 97.3731 130.142C97.6616 130.199 97.9359 130.313 98.1798 130.478C98.4238 130.642 98.6325 130.853 98.7937 131.099C98.955 131.345 99.0656 131.621 99.1191 131.91Z" fill="#FF8B7B"/>
<path d="M90.6406 135C90.6406 135 92.2093 130.153 91.9583 128.671C91.825 127.785 92.7427 127.926 93.4799 128.192C93.7642 128.289 94.0124 128.47 94.1917 128.711C94.371 128.952 94.4729 129.241 94.4839 129.541C94.5466 131.11 94.4839 134.169 93.2838 134.365C92.3863 134.501 91.502 134.714 90.6406 135Z" fill="#FF8B7B"/>
<path d="M95.7144 140.036C94.4953 138.673 92.8702 137.738 91.079 137.369L89.7613 137.095C88.977 136.938 88.8279 137.095 88.7338 137.322L88.3573 137.91L87.573 139.079C87.0553 139.863 86.5377 140.648 86.0043 141.432C84.9611 143.001 83.8709 144.467 82.7728 145.895C81.7446 147.259 80.6145 148.544 79.3923 149.738L79.0708 150.036C78.6629 149.597 78.2864 149.134 77.8786 148.656C76.7309 147.204 75.6601 145.694 74.6706 144.13C73.6588 142.561 70.3803 137.808 69.4861 136.098C69.0391 135.251 68.5998 134.389 68.1841 133.526L67.5802 132.232C67.3998 131.816 67.1802 131.33 67.0547 131.016L66.9684 130.812C66.3252 129.397 65.1481 128.294 63.6941 127.744C62.2402 127.194 60.6277 127.242 59.209 127.877C57.7902 128.512 56.6806 129.683 56.1226 131.134C55.5646 132.585 55.6035 134.198 56.2308 135.62C56.5132 136.255 56.7328 136.71 57.0151 137.236L57.7995 138.742C58.3224 139.74 58.8453 140.721 59.3682 141.683C60.4819 143.62 64.0271 148.562 65.3291 150.42C66.6486 152.313 68.0924 154.116 69.6508 155.817C71.2906 157.626 73.1061 159.268 75.0706 160.719L75.3138 160.899C75.9169 161.337 76.6118 161.631 77.3456 161.76C78.0794 161.889 78.833 161.85 79.5492 161.644C81.1475 161.178 82.6376 160.399 83.9337 159.354C84.9238 158.569 85.8449 157.7 86.6867 156.758C88.1584 155.103 89.4985 153.335 90.6947 151.471C91.8476 149.691 92.8594 147.871 93.832 146.052C94.2948 145.126 94.7497 144.209 95.1732 143.267L95.8007 141.855L96.1066 141.142C96.2007 140.891 96.2478 140.616 95.7144 140.036Z" fill="#263238"/>
<path opacity="0.4" d="M66.6469 137.542L62.333 140.593L61.0938 143.542C61.3055 143.934 61.5094 144.326 61.7291 144.718C62.835 146.656 64.0821 148.538 65.3527 150.397C66.6722 152.289 68.1159 154.092 69.6744 155.793C70.4588 156.578 71.2431 157.362 72.0274 158.146C69.9097 153.166 66.6469 137.542 66.6469 137.542Z" fill="black"/>
<path d="M28.089 161.386C28.4263 169.229 27.187 168.868 27.1556 174.939H65.3765C67.455 156.421 66.4824 153.574 66.5216 141.283C66.5216 134.365 65.4627 127.306 58.5763 126.584C50.4878 125.795 42.3393 125.848 34.2617 126.741C33.0517 126.889 31.8832 127.276 30.825 127.881C29.7667 128.486 28.84 129.297 28.0992 130.265C27.3583 131.233 26.8183 132.339 26.5108 133.519C26.2033 134.698 26.1346 135.927 26.3085 137.134C27.8537 147.589 27.0144 153.511 28.089 161.386Z" fill="#263238"/>
<path opacity="0.9" d="M55.0856 126.294C49.9933 125.961 44.8853 125.945 39.791 126.247C39.9008 127.816 41.093 131.737 49.7757 135.134C49.7757 135.134 51.713 130.93 53.3444 132.82C53.3444 132.82 54.6542 130.404 57.4622 134.851C57.4622 134.851 61.6505 130.365 55.0856 126.294Z" fill="white"/>
<path opacity="0.4" d="M34.4262 137.416C35.2655 144.687 30.6222 156.844 28.1515 162.719C28.1515 162.311 28.1515 161.864 28.1515 161.386C27.477 156.476 27.5554 152.319 27.3672 147.362L34.4262 137.416Z" fill="black"/>
<path d="M43.5415 112.38C43.6702 117.15 42.7491 121.889 40.8434 126.263C40.7727 126.429 40.755 126.614 40.7929 126.791C40.8308 126.967 40.9224 127.128 41.0552 127.251C44.2557 130.011 48.3597 131.496 52.585 131.424C57.7224 131.487 57.4243 129.855 56.2086 128.075C56.0315 127.822 55.8013 127.61 55.5341 127.455C52.0202 125.369 51.8948 122.577 52.883 120.89L43.5415 112.38Z" fill="#FF8B7B"/>
<path opacity="0.2" d="M43.5491 112.38L52.8827 120.89C52.5709 121.426 52.3906 122.028 52.3565 122.647C52.3224 123.266 52.4355 123.884 52.6866 124.451C50.7172 124.513 48.7976 123.826 47.3139 122.529C44.906 120.482 44.0903 118.067 43.4863 114.686C43.5334 113.949 43.5491 113.164 43.5491 112.38Z" fill="black"/>
<path d="M40.7646 107.956C41.1724 114.231 40.2861 115.235 43.4705 118.412C48.2628 123.188 56.067 124.098 57.1729 117.745C58.1612 112.019 58.7416 101.658 52.5532 99.2424C51.1895 98.6999 49.7099 98.5142 48.2545 98.703C46.799 98.8917 45.4158 99.4487 44.2356 100.321C43.0553 101.193 42.1172 102.352 41.5098 103.689C40.9024 105.025 40.6459 106.494 40.7646 107.956Z" fill="#FF8B7B"/>
<path d="M55.9962 114.733C55.9962 114.733 53.7922 114.035 47.541 113.768C48.2077 116.012 49.5175 117.878 52.7177 117.98C55.9178 118.082 55.9962 114.733 55.9962 114.733Z" fill="#263238"/>
<path d="M51.2892 116.153C52.5478 116.133 53.772 116.564 54.7403 117.368C54.1616 117.802 53.4455 118.011 52.7245 117.957C51.4636 117.982 50.2367 117.547 49.2734 116.733C49.8531 116.302 50.5692 116.096 51.2892 116.153Z" fill="#FF5652"/>
<path d="M55.7127 114.631C55.5244 115.094 55.3283 115.565 54.7009 115.69C52.8501 115.603 51.0117 115.34 49.2105 114.906C48.9011 114.85 48.6116 114.714 48.3708 114.512C48.1301 114.309 47.9464 114.048 47.8379 113.753C50.4842 113.804 53.1201 114.098 55.7127 114.631Z" fill="white"/>
<path d="M53.541 108.874C54.202 110.044 55.023 111.116 55.9803 112.059C55.7331 112.301 55.4355 112.485 55.1087 112.599C54.782 112.713 54.4342 112.753 54.0901 112.717L53.541 108.874Z" fill="#FF5652"/>
<path d="M47.352 106.168C47.2984 106.161 47.2487 106.136 47.2108 106.097C47.1811 106.068 47.1576 106.033 47.1415 105.995C47.1255 105.957 47.1172 105.916 47.1172 105.874C47.1172 105.832 47.1255 105.791 47.1415 105.753C47.1576 105.714 47.1811 105.68 47.2108 105.65C47.5359 105.269 47.9476 104.971 48.4116 104.781C48.8756 104.591 49.3783 104.516 49.8775 104.56C49.9607 104.573 50.0356 104.618 50.0856 104.685C50.1356 104.753 50.1567 104.838 50.1442 104.921C50.1317 105.004 50.0867 105.079 50.019 105.129C49.9514 105.179 49.8666 105.2 49.7834 105.188C49.3866 105.157 48.9882 105.221 48.6212 105.375C48.2543 105.53 47.9294 105.769 47.6735 106.074C47.6343 106.118 47.5833 106.151 47.5264 106.167C47.4695 106.184 47.409 106.184 47.352 106.168Z" fill="#263238"/>
<path d="M57.7671 107.282C57.7159 107.291 57.6633 107.287 57.614 107.271C57.5648 107.254 57.5203 107.226 57.4847 107.188C57.2246 106.891 56.8974 106.661 56.5305 106.517C56.1635 106.372 55.7673 106.317 55.3749 106.356C55.2938 106.37 55.2106 106.352 55.1432 106.305C55.0757 106.258 55.0293 106.186 55.0141 106.105C55.0003 106.022 55.0198 105.937 55.0682 105.868C55.1166 105.799 55.1901 105.752 55.2729 105.737C55.7676 105.682 56.2682 105.747 56.7333 105.924C57.1983 106.101 57.6145 106.387 57.9475 106.756C57.9771 106.786 58.0007 106.82 58.0167 106.859C58.0328 106.897 58.0411 106.938 58.0411 106.98C58.0411 107.022 58.0328 107.063 58.0167 107.101C58.0007 107.14 57.9771 107.174 57.9475 107.204C57.8968 107.247 57.8338 107.275 57.7671 107.282Z" fill="#263238"/>
<path d="M16.4513 162.664C16.4649 162.961 16.5096 163.255 16.5846 163.543C17.2933 166.05 18.2143 168.493 19.3377 170.845C19.9076 172.089 20.4959 173.313 21.1024 174.515C21.9104 174.792 22.7582 174.935 23.6123 174.939H32.0753L31.2361 173.064C30.3027 171.017 29.44 168.962 28.6556 166.931C28.0023 165.283 27.4522 163.596 27.0085 161.88C27.0975 161.223 27.2312 160.573 27.4085 159.935C27.6517 158.993 27.9811 157.974 28.3576 156.938C29.1419 154.876 30.0047 152.75 30.9459 150.664C31.8871 148.577 32.9303 146.436 33.9813 144.326C35.0323 142.216 36.1304 140.083 37.2206 138.091V138.02L37.2755 137.903C37.9869 136.514 38.1176 134.9 37.6388 133.415C37.1601 131.93 36.111 130.696 34.7225 129.985C33.334 129.273 31.7197 129.142 30.2348 129.621C28.7499 130.1 27.516 131.149 26.8046 132.538C25.6281 134.844 24.5692 137.048 23.5025 139.33C22.4358 141.612 21.4711 143.918 20.5299 146.271C19.5887 148.624 18.7416 151.001 17.9572 153.55C17.5729 154.829 17.2278 156.146 16.9376 157.566C16.5768 159.182 16.4109 160.836 16.4435 162.492L16.4513 162.664Z" fill="#263238"/>
<path d="M37.9172 112.16C38.461 113.505 39.4956 114.593 40.8115 115.204C42.4899 115.925 43.4155 114.286 43.0155 112.404C42.6625 110.717 41.3527 108.301 39.635 108.38C37.9173 108.458 37.2035 110.435 37.9172 112.16Z" fill="#FF8B7B"/>
<path d="M48.8359 108.302C48.8359 108.843 49.0634 109.306 49.432 109.329C49.8007 109.353 50.1066 108.929 50.1301 108.372C50.1536 107.815 49.9026 107.368 49.5418 107.345C49.181 107.321 48.8673 107.745 48.8359 108.302Z" fill="#2E353A"/>
<path d="M55.0391 108.662C55.0391 109.211 55.2744 109.674 55.6273 109.698C55.9803 109.721 56.3019 109.29 56.3411 108.741C56.3803 108.192 56.1058 107.737 55.7528 107.713C55.3999 107.69 55.0704 108.113 55.0391 108.662Z" fill="#2E353A"/>
<path d="M72.9828 6.94135H17.1692C15.1112 6.94343 13.1382 7.76243 11.6836 9.21842C10.2291 10.6744 9.41211 12.6483 9.41211 14.7063V57.1547C9.41108 58.1741 9.61097 59.1836 10.0003 60.1257C10.3897 61.0677 10.9609 61.9238 11.6813 62.6449C12.4018 63.3661 13.2572 63.9381 14.1989 64.3285C15.1405 64.7188 16.1499 64.9197 17.1692 64.9197H59.3431C59.7474 68.2445 61.3548 71.3063 63.8618 73.5272C66.3689 75.7482 69.6021 76.9746 72.9514 76.975C73.2652 76.975 73.5711 76.975 73.877 76.9279C71.6965 74.0494 69.9082 69.8689 68.7474 64.9197H73.022C75.0814 64.9197 77.0565 64.1016 78.5127 62.6454C79.9689 61.1892 80.787 59.2141 80.787 57.1547V14.7063C80.786 13.6836 80.5831 12.6711 80.1901 11.7269C79.797 10.7827 79.2215 9.92541 78.4965 9.20406C77.7715 8.48271 76.9113 7.91152 75.9652 7.52324C75.019 7.13496 74.0055 6.93722 72.9828 6.94135Z" fill="#223A74"/>
<path opacity="0.4" d="M72.9828 6.94135H17.1692C15.1112 6.94343 13.1382 7.76243 11.6836 9.21842C10.2291 10.6744 9.41211 12.6483 9.41211 14.7063V57.1547C9.41108 58.1741 9.61097 59.1836 10.0003 60.1257C10.3897 61.0677 10.9609 61.9238 11.6813 62.6449C12.4018 63.3661 13.2572 63.9381 14.1989 64.3285C15.1405 64.7188 16.1499 64.9197 17.1692 64.9197H59.3431C59.7474 68.2445 61.3548 71.3063 63.8618 73.5272C66.3689 75.7482 69.6021 76.9746 72.9514 76.975C73.2652 76.975 73.5711 76.975 73.877 76.9279C71.6965 74.0494 69.9082 69.8689 68.7474 64.9197H73.022C75.0814 64.9197 77.0565 64.1016 78.5127 62.6454C79.9689 61.1892 80.787 59.2141 80.787 57.1547V14.7063C80.786 13.6836 80.5831 12.6711 80.1901 11.7269C79.797 10.7827 79.2215 9.92541 78.4965 9.20406C77.7715 8.48271 76.9113 7.91152 75.9652 7.52324C75.019 7.13496 74.0055 6.93722 72.9828 6.94135Z" fill="white"/>
<path d="M59.3041 64.9197C58.9841 60.3605 58.9841 55.7844 59.3041 51.2252C59.7904 43.1935 57.3903 34.5109 55.5785 33.0285C52.9667 30.8716 50.5352 28.8401 49.6724 31.5539C49.1705 33.1226 49.0214 35.7109 49.0528 38.613C49.1312 45.625 50.6215 54.3704 51.3274 58.4097C51.5862 59.8372 52.2372 64.9276 52.2372 64.9276L59.3041 64.9197Z" fill="#223A74"/>
<path d="M54.4261 33.3736C54.3367 32.7971 54.0826 32.2586 53.6944 31.8231C53.3061 31.3876 52.8003 31.0735 52.2378 30.9186C50.277 30.3931 46.8886 29.5382 43.8062 28.9891C40.1738 28.3989 36.5046 28.0634 32.8254 27.9852C30.4724 27.8911 28.2135 27.9852 26.4017 28.0636C26.187 28.0805 25.9743 28.1172 25.7664 28.1734C25.3836 28.2819 25.026 28.4648 24.7139 28.7116C24.4019 28.9584 24.1416 29.2642 23.9478 29.6117C23.754 29.9591 23.6307 30.3414 23.5847 30.7366C23.5388 31.1317 23.5712 31.5321 23.68 31.9147C28.3312 48.5192 29.2959 56.4646 29.539 64.9197H52.2378C53.2967 57.2489 55.3752 50.9506 55.5634 46.4407C55.725 42.0548 55.343 37.6657 54.4261 33.3736Z" fill="#223A74"/>
<path opacity="0.8" d="M54.4261 33.3736C54.3367 32.7971 54.0826 32.2586 53.6944 31.8231C53.3061 31.3876 52.8003 31.0735 52.2378 30.9186C50.277 30.3931 46.8886 29.5382 43.8062 28.9891C40.1738 28.3989 36.5046 28.0634 32.8254 27.9852C30.4724 27.8911 28.2135 27.9852 26.4017 28.0636C26.187 28.0805 25.9743 28.1172 25.7664 28.1734C25.3836 28.2819 25.026 28.4648 24.7139 28.7116C24.4019 28.9584 24.1416 29.2642 23.9478 29.6117C23.754 29.9591 23.6307 30.3414 23.5847 30.7366C23.5388 31.1317 23.5712 31.5321 23.68 31.9147C28.3312 48.5192 29.2959 56.4646 29.539 64.9197H52.2378C53.2967 57.2489 55.3752 50.9506 55.5634 46.4407C55.725 42.0548 55.343 37.6657 54.4261 33.3736Z" fill="white"/>
<path d="M45.0988 25.1538C43.6086 27.1696 42.5183 29.5618 44.8557 32.2129C45.3625 32.766 45.6595 33.4793 45.6949 34.2286C45.6949 35.4287 45.0282 36.5817 41.1222 34.2914C35.4593 30.9658 35.9377 27.2323 35.9377 27.2323C38.9104 26.3303 40.6908 20.0791 41.381 16.5026L45.0988 25.1538Z" fill="#FFB573"/>
<path opacity="0.2" d="M41.6947 21.8438C41.2633 23.3654 42.8712 25.7654 44.0947 26.7537C44.3797 26.2024 44.7131 25.6774 45.0909 25.185L42.8947 20.0476C42.3811 20.5621 41.9734 21.1724 41.6947 21.8438Z" fill="black"/>
<path d="M56.5976 6.34533C58.5898 8.8709 54.1034 16.479 53.6171 14.8868C52.8327 12.2985 51.6876 7.04339 51.7033 4.88646C51.7347 1.48243 54.6132 3.8276 56.5976 6.34533Z" fill="#263238"/>
<path d="M40.0789 7.13755C40.6076 6.23764 41.3085 5.45072 42.1414 4.82175C42.9743 4.19278 43.923 3.73408 44.9333 3.47187C45.9435 3.20965 46.9956 3.14905 48.0292 3.29354C49.0629 3.43802 50.058 3.78475 50.9577 4.31393C56.299 7.40422 55.8912 16.079 53.9303 21.0674C51.7812 26.6284 44.5182 27.3421 40.7613 22.2831C38.2357 18.9105 38.5573 16.4555 39.0043 10.6435C39.0825 9.40676 39.4506 8.20573 40.0789 7.13755Z" fill="#FFB573"/>
<path d="M47.1785 13.5534C47.1393 14.0319 47.3511 14.4397 47.6569 14.4711C47.9628 14.5025 48.253 14.1417 48.3079 13.6867C48.3628 13.2318 48.1354 12.8004 47.8295 12.7691C47.5236 12.7377 47.2491 13.1377 47.1785 13.5534Z" fill="#263238"/>
<path d="M47.6719 12.8396L48.8405 12.6278C48.8405 12.6278 48.1817 13.4278 47.6719 12.8396Z" fill="#263238"/>
<path d="M53.123 14.9102C53.123 15.3887 53.2956 15.7965 53.6015 15.8279C53.9074 15.8593 54.1976 15.4985 54.2525 15.0436C54.3074 14.5886 54.0799 14.1573 53.774 14.1259C53.4682 14.0945 53.1936 14.4632 53.123 14.9102Z" fill="#263238"/>
<path d="M53.6172 14.1651L54.7859 13.9534C54.7859 13.9534 54.127 14.7534 53.6172 14.1651Z" fill="#263238"/>
<path d="M50.8965 18.4947C51.1715 18.6065 51.4674 18.6573 51.7639 18.6438C52.0605 18.6303 52.3505 18.5526 52.6142 18.4163C52.0499 17.4017 51.6276 16.3144 51.3592 15.1848L50.8965 18.4947Z" fill="#ED893E"/>
<path d="M46.4165 18.2987C46.402 18.2651 46.4004 18.2273 46.4119 18.1926C46.4235 18.1579 46.4475 18.1287 46.4792 18.1105C46.5125 18.0941 46.551 18.0914 46.5862 18.1032C46.6214 18.1149 46.6506 18.1401 46.6674 18.1732C46.9571 18.6877 47.3649 19.1259 47.8572 19.4518C48.3495 19.7778 48.9122 19.982 49.4989 20.0478C49.5327 20.0569 49.5623 20.0776 49.5823 20.1063C49.6024 20.1349 49.6118 20.1698 49.6087 20.2047C49.6069 20.222 49.6014 20.2387 49.5928 20.2538C49.5841 20.2689 49.5724 20.282 49.5584 20.2924C49.5444 20.3027 49.5283 20.31 49.5114 20.3138C49.4944 20.3176 49.4768 20.3178 49.4597 20.3145C49.234 20.2897 49.0109 20.2451 48.793 20.1811C48.2918 20.0408 47.8235 19.802 47.4155 19.4789C47.0074 19.1557 46.6678 18.7545 46.4165 18.2987Z" fill="#263238"/>
<path d="M46.9748 10.5337C46.9311 10.4754 46.9124 10.4022 46.9227 10.3301C46.933 10.2581 46.9715 10.193 47.0297 10.1493C47.4957 9.86687 48.0167 9.68716 48.5577 9.62224C49.0988 9.55731 49.6475 9.60866 50.1671 9.77285C50.236 9.79777 50.2926 9.84853 50.3248 9.9144C50.357 9.98027 50.3623 10.0561 50.3396 10.1258C50.3164 10.1942 50.2671 10.2506 50.2025 10.2829C50.1379 10.3152 50.0632 10.3208 49.9945 10.2984C49.5612 10.1586 49.1034 10.1115 48.6507 10.1602C48.1981 10.2088 47.7607 10.3521 47.367 10.5807C47.3212 10.617 47.2646 10.6367 47.2062 10.6367C47.1478 10.6367 47.0912 10.617 47.0454 10.5807L46.9748 10.5337Z" fill="#263238"/>
<path d="M55.5314 12.3455C55.343 12.0508 55.0864 11.8057 54.7834 11.6309C54.4803 11.4562 54.1397 11.3569 53.7902 11.3415C53.7535 11.3426 53.7169 11.3363 53.6827 11.3229C53.6485 11.3096 53.6173 11.2896 53.591 11.264C53.5646 11.2384 53.5437 11.2078 53.5294 11.1739C53.5151 11.1401 53.5078 11.1038 53.5078 11.067C53.5078 10.9935 53.5365 10.9228 53.5877 10.8701C53.639 10.8174 53.7088 10.7867 53.7823 10.7847C54.2231 10.8002 54.6537 10.9207 55.0384 11.1362C55.4232 11.3518 55.7508 11.6561 55.9942 12.0239C56.0144 12.0536 56.0285 12.087 56.0356 12.1222C56.0426 12.1574 56.0425 12.1937 56.0351 12.2289C56.0278 12.264 56.0134 12.2973 55.9929 12.3268C55.9724 12.3563 55.9462 12.3813 55.9157 12.4004C55.8749 12.4271 55.8272 12.4413 55.7785 12.4413C55.7297 12.4413 55.682 12.4271 55.6412 12.4004L55.5314 12.3455Z" fill="#263238"/>
<path d="M48.3932 5.97661C47.517 6.14103 46.6882 6.49789 45.9666 7.02144C45.245 7.545 44.6486 8.22218 44.2205 9.00416C43.8205 9.74144 41.2478 11.3572 40.8086 12.0866C39.4282 14.3847 40.9341 20.9261 40.2831 21.4202C39.6321 21.9144 39.8596 19.9771 39.2399 19.6006C38.5825 19.3038 37.9526 18.9495 37.3575 18.5417C36.5732 17.8829 33.8515 10.7846 37.2085 6.48643C38.8789 4.21925 41.3241 2.64492 44.0793 2.06276C46.8707 1.58839 49.7363 2.23992 52.0482 3.87459C52.7776 4.40009 54.0561 5.83543 52.0482 6.47859C51.4992 6.65115 51.4756 6.21191 50.9031 6.07073C50.083 5.85879 49.2268 5.82668 48.3932 5.97661Z" fill="#263238"/>
<path d="M35.0439 12.0867C36.9812 10.2043 39.3969 10.2043 41.5303 10.2043C42.544 10.2845 43.5637 10.17 44.5344 9.86699C46.6835 8.93363 48.0011 5.86686 48.2443 4.8629C48.3743 4.45206 48.6066 4.08101 48.9194 3.78465C49.2323 3.48828 49.6153 3.27634 50.0326 3.16873C50.3722 3.15207 50.711 3.2142 51.0226 3.35027C51.3342 3.48633 51.6101 3.69265 51.8287 3.95307C52.2131 4.50995 52.1738 5.31782 51.7111 6.30609L52.017 6.43943C52.5268 5.30213 52.5503 4.3923 52.1032 3.73346C51.8505 3.4281 51.5309 3.18506 51.169 3.02319C50.8072 2.86132 50.413 2.78498 50.0169 2.80009C49.5267 2.90944 49.0744 3.14722 48.7064 3.48904C48.3383 3.83086 48.0679 4.26442 47.9227 4.74525C47.7031 5.67077 46.4089 8.66695 44.401 9.52972C43.4726 9.81492 42.498 9.91877 41.5303 9.83561C39.444 9.83561 36.8243 9.83561 34.8164 11.8121L35.0439 12.0867Z" fill="#263238"/>
<path opacity="0.1" d="M35.0439 12.0867C36.9812 10.2043 39.3969 10.2043 41.5303 10.2043C42.544 10.2845 43.5637 10.17 44.5344 9.86699C46.6835 8.93363 48.0011 5.86686 48.2443 4.8629C48.3743 4.45206 48.6066 4.08101 48.9194 3.78465C49.2323 3.48828 49.6153 3.27634 50.0326 3.16873C50.3722 3.15207 50.711 3.2142 51.0226 3.35027C51.3342 3.48633 51.6101 3.69265 51.8287 3.95307C52.2131 4.50995 52.1738 5.31782 51.7111 6.30609L52.017 6.43943C52.5268 5.30213 52.5503 4.3923 52.1032 3.73346C51.8505 3.4281 51.5309 3.18506 51.169 3.02319C50.8072 2.86132 50.413 2.78498 50.0169 2.80009C49.5267 2.90944 49.0744 3.14722 48.7064 3.48904C48.3383 3.83086 48.0679 4.26442 47.9227 4.74525C47.7031 5.67077 46.4089 8.66695 44.401 9.52972C43.4726 9.81492 42.498 9.91877 41.5303 9.83561C39.444 9.83561 36.8243 9.83561 34.8164 11.8121L35.0439 12.0867Z" fill="white"/>
<path d="M36.7077 14.2906C36.7396 14.0417 36.8204 13.8014 36.9454 13.5838C37.0704 13.3661 37.2372 13.1752 37.4361 13.0222C37.6351 12.8692 37.8623 12.7569 38.1048 12.6919C38.3472 12.6269 38.6001 12.6105 38.849 12.6435C40.2922 12.8631 40.951 14.8083 40.951 16.0789C40.951 17.4829 39.9078 18.5261 38.6372 17.7339C37.6852 17.1268 37.0115 16.1684 36.7626 15.0671C36.6897 14.8151 36.671 14.5504 36.7077 14.2906Z" fill="#FFB573"/>
<path d="M39.2713 34.9894C38.9654 39.0052 35.2555 54.1743 27.216 54.5979C25.9351 54.6337 24.6872 54.1888 23.7179 53.3508C17.2392 49.4291 22.3296 30.5265 23.6316 29.4284C24.1969 28.9436 24.8748 28.6082 25.6032 28.453C26.3316 28.2978 27.0873 28.3277 27.8012 28.5399C28.515 28.7521 29.1643 29.1399 29.6897 29.6678C30.215 30.1957 30.5996 30.8469 30.8083 31.5618C30.9775 30.9637 31.1111 30.3561 31.2083 29.7422C31.5456 27.695 32.6593 22.9262 34.7143 22.5811C35.9535 22.3694 38.5026 22.2596 39.2399 23.2714C39.9772 24.2832 39.7811 28.3617 39.2713 34.9894Z" fill="#223A74"/>
<g opacity="0.2">
<path d="M38.8477 12.6436V12.9965L39.2163 16.479V20.9654L39.8281 18.2986C39.9833 17.6038 40.0178 16.8875 39.93 16.1809L39.4987 12.8396L38.8477 12.6436Z" fill="black"/>
</g>
<path d="M34.8163 23.3889L33.8516 16.4005L39.6792 16.3534C39.6792 16.3534 39.2008 21.6006 37.7419 23.4124L34.8163 23.3889Z" fill="#FFB573"/>
<path d="M34.8791 11.6239L39.1929 12.3847L39.6557 16.3378L33.8516 16.4005L34.8791 11.6239Z" fill="#FFB573"/>
<path opacity="0.2" d="M29.0205 37.9227C29.0205 37.9227 25.5302 45.9857 25.4204 42.7935C25.3106 39.3188 29.0205 37.9227 29.0205 37.9227Z" fill="black"/>
<path d="M244.149 85.0693H222.564C221.575 85.0693 220.628 85.4619 219.929 86.1605C219.23 86.8592 218.838 87.8069 218.838 88.7949V102.693C218.84 103.68 219.233 104.626 219.932 105.323C220.63 106.02 221.577 106.411 222.564 106.411H228.768L231.536 110.035C231.749 110.314 232.024 110.541 232.339 110.697C232.654 110.853 233.001 110.934 233.352 110.934C233.704 110.934 234.05 110.853 234.365 110.697C234.68 110.541 234.955 110.314 235.168 110.035L237.937 106.411H244.149C245.135 106.411 246.08 106.02 246.777 105.322C247.475 104.625 247.866 103.679 247.866 102.693V88.7949C247.866 87.8082 247.475 86.8618 246.778 86.1633C246.081 85.4649 245.135 85.0714 244.149 85.0693Z" fill="#223A74"/>
<path opacity="0.7" d="M244.149 85.0693H222.564C221.575 85.0693 220.628 85.4619 219.929 86.1605C219.23 86.8592 218.838 87.8069 218.838 88.7949V102.693C218.84 103.68 219.233 104.626 219.932 105.323C220.63 106.02 221.577 106.411 222.564 106.411H228.768L231.536 110.035C231.749 110.314 232.024 110.541 232.339 110.697C232.654 110.853 233.001 110.934 233.352 110.934C233.704 110.934 234.05 110.853 234.365 110.697C234.68 110.541 234.955 110.314 235.168 110.035L237.937 106.411H244.149C245.135 106.411 246.08 106.02 246.777 105.322C247.475 104.625 247.866 103.679 247.866 102.693V88.7949C247.866 87.8082 247.475 86.8618 246.778 86.1633C246.081 85.4649 245.135 85.0714 244.149 85.0693Z" fill="white"/>
<path d="M242.892 94.6228L235.998 90.4187V92.9443H232.86C230.83 92.9443 228.883 93.7508 227.447 95.1864C226.012 96.622 225.205 98.5691 225.205 100.599C225.207 101.167 225.271 101.732 225.393 102.286C225.779 100.593 226.727 99.0802 228.083 97.996C229.44 96.9118 231.124 96.3198 232.86 96.3169H235.998V98.8503L242.892 94.6228Z" fill="#223A74"/>
<path d="M92.269 0H108.819C109.576 0 110.302 0.300793 110.837 0.836209C111.373 1.37162 111.674 2.0978 111.674 2.85499V13.5534C111.674 13.9279 111.6 14.2988 111.456 14.6447C111.313 14.9907 111.102 15.3049 110.837 15.5694C110.572 15.8339 110.257 16.0434 109.911 16.1861C109.564 16.3287 109.193 16.4016 108.819 16.4005H104.058L101.94 19.1849C101.777 19.3995 101.566 19.5734 101.325 19.6932C101.083 19.8129 100.817 19.8752 100.548 19.8752C100.278 19.8752 100.012 19.8129 99.7708 19.6932C99.5293 19.5734 99.3187 19.3995 99.1555 19.1849L97.03 16.4005H92.269C91.8949 16.4016 91.5242 16.3286 91.1783 16.1859C90.8324 16.0432 90.5181 15.8335 90.2535 15.5689C89.9889 15.3043 89.7792 14.9901 89.6365 14.6442C89.4938 14.2983 89.4209 13.9276 89.4219 13.5534V2.85499C89.4209 2.48044 89.4937 2.10937 89.6364 1.76303C89.779 1.41669 89.9885 1.1019 90.253 0.836681C90.5175 0.571468 90.8317 0.361045 91.1777 0.217472C91.5236 0.0738988 91.8945 -1.42123e-06 92.269 0Z" fill="#223A74"/>
<path opacity="0.7" d="M92.269 0H108.819C109.576 0 110.302 0.300793 110.837 0.836209C111.373 1.37162 111.674 2.0978 111.674 2.85499V13.5534C111.674 13.9279 111.6 14.2988 111.456 14.6447C111.313 14.9907 111.102 15.3049 110.837 15.5694C110.572 15.8339 110.257 16.0434 109.911 16.1861C109.564 16.3287 109.193 16.4016 108.819 16.4005H104.058L101.94 19.1849C101.777 19.3995 101.566 19.5734 101.325 19.6932C101.083 19.8129 100.817 19.8752 100.548 19.8752C100.278 19.8752 100.012 19.8129 99.7708 19.6932C99.5293 19.5734 99.3187 19.3995 99.1555 19.1849L97.03 16.4005H92.269C91.8949 16.4016 91.5242 16.3286 91.1783 16.1859C90.8324 16.0432 90.5181 15.8335 90.2535 15.5689C89.9889 15.3043 89.7792 14.9901 89.6365 14.6442C89.4938 14.2983 89.4209 13.9276 89.4219 13.5534V2.85499C89.4209 2.48044 89.4937 2.10937 89.6364 1.76303C89.779 1.41669 89.9885 1.1019 90.253 0.836681C90.5175 0.571468 90.8317 0.361045 91.1777 0.217472C91.5236 0.0738988 91.8945 -1.42123e-06 92.269 0Z" fill="white"/>
<path d="M93.25 7.32571L98.5521 4.09424V6.03156H100.976C101.855 6.03399 102.723 6.2337 103.516 6.61599C104.308 6.99828 105.005 7.5534 105.554 8.2405C106.103 8.9276 106.492 9.72917 106.69 10.5862C106.889 11.4432 106.893 12.3339 106.701 13.1926C106.406 11.8944 105.679 10.7349 104.639 9.90414C103.599 9.07336 102.307 8.62054 100.976 8.61988H98.5521V10.5572L93.25 7.32571Z" fill="#223A74"/>
</svg>
