<svg width="32" height="32" viewBox="0 0 32 32" fill="none" xmlns="http://www.w3.org/2000/svg">
<path d="M31.0586 31.0586C31.5785 30.5387 31.5785 29.6957 31.0586 29.1758L23.6618 21.779C25.8277 19.13 26.8926 15.7498 26.6363 12.3376C26.3799 8.92548 24.8219 5.74239 22.2844 3.44677C19.7469 1.15116 16.4242 -0.0813571 13.0035 0.00417123C9.58282 0.0896996 6.32584 1.48673 3.90629 3.90629C1.48673 6.32584 0.0896996 9.58282 0.00417123 13.0035C-0.0813571 16.4242 1.15116 19.7469 3.44677 22.2844C5.74239 24.8219 8.92548 26.3799 12.3376 26.6363C15.7498 26.8926 19.13 25.8277 21.779 23.6618L29.1758 31.0586C29.6957 31.5785 30.5387 31.5785 31.0586 31.0586ZM13.3582 24.0107C11.2513 24.0107 9.19179 23.3859 7.44001 22.2154C5.68822 21.0449 4.32287 19.3812 3.51661 17.4347C2.71035 15.4882 2.49939 13.3464 2.91042 11.28C3.32145 9.21363 4.336 7.31554 5.82577 5.82577C7.31554 4.336 9.21363 3.32145 11.28 2.91042C13.3464 2.49939 15.4882 2.71035 17.4347 3.51661C19.3812 4.32287 21.0449 5.68822 22.2154 7.44001C23.3859 9.19179 24.0107 11.2513 24.0107 13.3582C24.0075 16.1824 22.8842 18.8901 20.8871 20.8871C18.8901 22.8842 16.1824 24.0075 13.3582 24.0107Z" fill="#223A74"/>
</svg>
