<svg width="35" height="32" viewBox="0 0 35 32" fill="none" xmlns="http://www.w3.org/2000/svg">
<path d="M27.6364 0H7.27273C5.34459 0.00230961 3.49608 0.769283 2.13268 2.13268C0.769283 3.49608 0.00230961 5.34459 0 7.27273L0 18.9091C0.00230961 20.8372 0.769283 22.6857 2.13268 24.0491C3.49608 25.4125 5.34459 26.1795 7.27273 26.1818H16V29.0909H10.1818C9.79605 29.0909 9.42608 29.2442 9.1533 29.5169C8.88052 29.7897 8.72727 30.1597 8.72727 30.5455C8.72727 30.9312 8.88052 31.3012 9.1533 31.574C9.42608 31.8468 9.79605 32 10.1818 32H24.7273C25.113 32 25.483 31.8468 25.7558 31.574C26.0286 31.3012 26.1818 30.9312 26.1818 30.5455C26.1818 30.1597 26.0286 29.7897 25.7558 29.5169C25.483 29.2442 25.113 29.0909 24.7273 29.0909H18.9091V26.1818H27.6364C29.5645 26.1795 31.413 25.4125 32.7764 24.0491C34.1398 22.6857 34.9068 20.8372 34.9091 18.9091V7.27273C34.9068 5.34459 34.1398 3.49608 32.7764 2.13268C31.413 0.769283 29.5645 0.00230961 27.6364 0ZM7.27273 2.90909H27.6364C28.7937 2.90909 29.9036 3.36883 30.7219 4.18717C31.5403 5.00551 32 6.11542 32 7.27273V17.4545H2.90909V7.27273C2.90909 6.11542 3.36883 5.00551 4.18717 4.18717C5.00551 3.36883 6.11542 2.90909 7.27273 2.90909ZM27.6364 23.2727H7.27273C6.37344 23.269 5.49727 22.9875 4.76407 22.4668C4.03088 21.946 3.47649 21.2115 3.17673 20.3636H31.7324C31.4326 21.2115 30.8782 21.946 30.145 22.4668C29.4118 22.9875 28.5357 23.269 27.6364 23.2727Z" fill="white"/>
</svg>
