<svg width="306" height="240" viewBox="0 0 306 240" fill="none" xmlns="http://www.w3.org/2000/svg">
<path d="M152.679 240C237.002 240 305.359 236.009 305.359 231.086C305.359 226.163 237.002 222.172 152.679 222.172C68.3569 222.172 0 226.163 0 231.086C0 236.009 68.3569 240 152.679 240Z" fill="#F5F5F5"/>
<path d="M284.822 8.10291H87.9434V155.144H284.822V8.10291Z" fill="#223A74"/>
<path opacity="0.8" d="M284.822 8.10291H87.9434V155.144H284.822V8.10291Z" fill="white"/>
<path d="M277.136 3.5278H80.6738V13.497H277.136V3.5278Z" fill="#223A74"/>
<path d="M110.786 9.13446H78.3904C78.1995 9.1355 78.0102 9.09878 77.8335 9.02643C77.6568 8.95408 77.4961 8.84752 77.3607 8.71287C77.2254 8.57823 77.1179 8.41816 77.0446 8.24185C76.9713 8.06554 76.9336 7.87648 76.9336 7.68554C76.9336 7.29918 77.0871 6.92865 77.3603 6.65545C77.6335 6.38224 78.004 6.22876 78.3904 6.22876H110.786C111.173 6.22876 111.543 6.38224 111.816 6.65545C112.09 6.92865 112.243 7.29918 112.243 7.68554C112.243 7.87648 112.205 8.06554 112.132 8.24185C112.059 8.41816 111.951 8.57823 111.816 8.71287C111.68 8.84752 111.52 8.95408 111.343 9.02643C111.166 9.09878 110.977 9.1355 110.786 9.13446Z" fill="#223A74"/>
<path opacity="0.8" d="M110.786 9.13446H78.3904C78.1995 9.1355 78.0102 9.09878 77.8335 9.02643C77.6568 8.95408 77.4961 8.84752 77.3607 8.71287C77.2254 8.57823 77.1179 8.41816 77.0446 8.24185C76.9713 8.06554 76.9336 7.87648 76.9336 7.68554C76.9336 7.29918 77.0871 6.92865 77.3603 6.65545C77.6335 6.38224 78.004 6.22876 78.3904 6.22876H110.786C111.173 6.22876 111.543 6.38224 111.816 6.65545C112.09 6.92865 112.243 7.29918 112.243 7.68554C112.243 7.87648 112.205 8.06554 112.132 8.24185C112.059 8.41816 111.951 8.57823 111.816 8.71287C111.68 8.84752 111.52 8.95408 111.343 9.02643C111.166 9.09878 110.977 9.1355 110.786 9.13446Z" fill="white"/>
<path d="M251.487 5.1972C252.922 5.1972 254.086 4.03376 254.086 2.5986C254.086 1.16343 252.922 0 251.487 0C250.052 0 248.889 1.16343 248.889 2.5986C248.889 4.03376 250.052 5.1972 251.487 5.1972Z" fill="#223A74"/>
<path opacity="0.8" d="M251.487 5.1972C252.922 5.1972 254.086 4.03376 254.086 2.5986C254.086 1.16343 252.922 0 251.487 0C250.052 0 248.889 1.16343 248.889 2.5986C248.889 4.03376 250.052 5.1972 251.487 5.1972Z" fill="white"/>
<path d="M260.212 5.1972C261.647 5.1972 262.81 4.03376 262.81 2.5986C262.81 1.16343 261.647 0 260.212 0C258.777 0 257.613 1.16343 257.613 2.5986C257.613 4.03376 258.777 5.1972 260.212 5.1972Z" fill="#223A74"/>
<path opacity="0.8" d="M260.212 5.1972C261.647 5.1972 262.81 4.03376 262.81 2.5986C262.81 1.16343 261.647 0 260.212 0C258.777 0 257.613 1.16343 257.613 2.5986C257.613 4.03376 258.777 5.1972 260.212 5.1972Z" fill="white"/>
<path d="M268.938 5.1972C270.374 5.1972 271.537 4.03376 271.537 2.5986C271.537 1.16343 270.374 0 268.938 0C267.503 0 266.34 1.16343 266.34 2.5986C266.34 4.03376 267.503 5.1972 268.938 5.1972Z" fill="#223A74"/>
<path opacity="0.8" d="M268.938 5.1972C270.374 5.1972 271.537 4.03376 271.537 2.5986C271.537 1.16343 270.374 0 268.938 0C267.503 0 266.34 1.16343 266.34 2.5986C266.34 4.03376 267.503 5.1972 268.938 5.1972Z" fill="white"/>
<path d="M261.488 71.3039V28.2932L192.003 28.2932V71.3039H261.488Z" fill="#223A74"/>
<path opacity="0.5" d="M261.488 71.3039V28.2932L192.003 28.2932V71.3039H261.488Z" fill="white"/>
<path d="M260.701 61.8938V29.0807L192.791 29.0807V61.8938L260.701 61.8938Z" fill="white"/>
<path d="M224.848 68.7053L229.313 66.5949L224.848 64.5003V68.7053Z" fill="white"/>
<path d="M240.668 64.5003V66.5083L236.408 64.5003V68.7053L240.668 66.6894V68.7053H241.101V64.5003H240.668Z" fill="white"/>
<path d="M212.826 64.5003H212.393V68.7053H212.826V66.6894L217.094 68.7053V64.5003L212.826 66.5083V64.5003Z" fill="white"/>
<path d="M299.004 131.111V88.1003H229.519V131.111H299.004Z" fill="#223A74"/>
<path opacity="0.5" d="M299.004 131.111V88.1003H229.519V131.111H299.004Z" fill="white"/>
<path d="M263.506 109.606L230.307 89.3523V129.859L263.506 109.606Z" fill="white"/>
<path d="M297.461 88.8877H231.062L264.262 109.141L297.461 88.8877Z" fill="white"/>
<path d="M264.262 110.062L231.062 130.316H297.461L264.262 110.062Z" fill="white"/>
<path d="M265.016 109.606L298.215 129.859V89.3523L265.016 109.606Z" fill="white"/>
<path d="M294.27 80.9974H228.022C227.554 80.9974 227.105 81.1833 226.774 81.5141C226.444 81.8449 226.258 82.2935 226.258 82.7613C226.258 83.2292 226.444 83.6778 226.774 84.0086C227.105 84.3394 227.554 84.5252 228.022 84.5252H294.27C294.738 84.5252 295.187 84.3394 295.517 84.0086C295.848 83.6778 296.034 83.2292 296.034 82.7613C296.034 82.2935 295.848 81.8449 295.517 81.5141C295.187 81.1833 294.738 80.9974 294.27 80.9974Z" fill="#223A74"/>
<path opacity="0.5" d="M294.27 80.9974H228.022C227.554 80.9974 227.105 81.1833 226.774 81.5141C226.444 81.8449 226.258 82.2935 226.258 82.7613C226.258 83.2292 226.444 83.6778 226.774 84.0086C227.105 84.3394 227.554 84.5252 228.022 84.5252H294.27C294.738 84.5252 295.187 84.3394 295.517 84.0086C295.848 83.6778 296.034 83.2292 296.034 82.7613C296.034 82.2935 295.848 81.8449 295.517 81.5141C295.187 81.1833 294.738 80.9974 294.27 80.9974Z" fill="white"/>
<path d="M253.78 21.5998H187.524C186.549 21.5998 185.76 22.3895 185.76 23.3637C185.76 24.3379 186.549 25.1276 187.524 25.1276H253.78C254.754 25.1276 255.544 24.3379 255.544 23.3637C255.544 22.3895 254.754 21.5998 253.78 21.5998Z" fill="#223A74"/>
<path opacity="0.5" d="M253.78 21.5998H187.524C186.549 21.5998 185.76 22.3895 185.76 23.3637C185.76 24.3379 186.549 25.1276 187.524 25.1276H253.78C254.754 25.1276 255.544 24.3379 255.544 23.3637C255.544 22.3895 254.754 21.5998 253.78 21.5998Z" fill="white"/>
<path d="M145.372 21.5998H79.1155C78.1413 21.5998 77.3516 22.3895 77.3516 23.3637C77.3516 24.3379 78.1413 25.1276 79.1155 25.1276H145.372C146.346 25.1276 147.136 24.3379 147.136 23.3637C147.136 22.3895 146.346 21.5998 145.372 21.5998Z" fill="#223A74"/>
<path opacity="0.5" d="M145.372 21.5998H79.1155C78.1413 21.5998 77.3516 22.3895 77.3516 23.3637C77.3516 24.3379 78.1413 25.1276 79.1155 25.1276H145.372C146.346 25.1276 147.136 24.3379 147.136 23.3637C147.136 22.3895 146.346 21.5998 145.372 21.5998Z" fill="white"/>
<path d="M195.376 108.842H144.136C143.886 108.842 143.645 108.941 143.468 109.119C143.291 109.296 143.191 109.536 143.191 109.787C143.191 110.037 143.291 110.278 143.468 110.455C143.645 110.632 143.886 110.732 144.136 110.732H195.376C195.627 110.732 195.867 110.632 196.044 110.455C196.221 110.278 196.321 110.037 196.321 109.787C196.321 109.536 196.221 109.296 196.044 109.119C195.867 108.941 195.627 108.842 195.376 108.842Z" fill="#223A74"/>
<path opacity="0.5" d="M195.376 108.842H144.136C143.886 108.842 143.645 108.941 143.468 109.119C143.291 109.296 143.191 109.536 143.191 109.787C143.191 110.037 143.291 110.278 143.468 110.455C143.645 110.632 143.886 110.732 144.136 110.732H195.376C195.627 110.732 195.867 110.632 196.044 110.455C196.221 110.278 196.321 110.037 196.321 109.787C196.321 109.536 196.221 109.296 196.044 109.119C195.867 108.941 195.627 108.842 195.376 108.842Z" fill="white"/>
<path d="M195.375 113.37H144.135C144.011 113.375 143.889 113.404 143.776 113.456C143.663 113.509 143.562 113.583 143.478 113.674C143.394 113.765 143.329 113.873 143.286 113.989C143.243 114.106 143.224 114.23 143.229 114.354C143.228 114.478 143.252 114.602 143.299 114.717C143.346 114.832 143.416 114.937 143.504 115.024C143.592 115.112 143.696 115.182 143.811 115.229C143.927 115.276 144.05 115.3 144.174 115.299H195.414C195.665 115.299 195.905 115.199 196.082 115.022C196.259 114.845 196.359 114.605 196.359 114.354C196.364 114.223 196.343 114.093 196.295 113.971C196.248 113.849 196.175 113.738 196.083 113.646C195.99 113.553 195.88 113.481 195.758 113.433C195.636 113.386 195.505 113.364 195.375 113.37Z" fill="#223A74"/>
<path opacity="0.5" d="M195.375 113.37H144.135C144.011 113.375 143.889 113.404 143.776 113.456C143.663 113.509 143.562 113.583 143.478 113.674C143.394 113.765 143.329 113.873 143.286 113.989C143.243 114.106 143.224 114.23 143.229 114.354C143.228 114.478 143.252 114.602 143.299 114.717C143.346 114.832 143.416 114.937 143.504 115.024C143.592 115.112 143.696 115.182 143.811 115.229C143.927 115.276 144.05 115.3 144.174 115.299H195.414C195.665 115.299 195.905 115.199 196.082 115.022C196.259 114.845 196.359 114.605 196.359 114.354C196.364 114.223 196.343 114.093 196.295 113.971C196.248 113.849 196.175 113.738 196.083 113.646C195.99 113.553 195.88 113.481 195.758 113.433C195.636 113.386 195.505 113.364 195.375 113.37Z" fill="white"/>
<path d="M195.376 117.937H144.136C144.012 117.937 143.888 117.962 143.773 118.01C143.658 118.058 143.553 118.128 143.465 118.216C143.378 118.305 143.308 118.41 143.261 118.526C143.214 118.641 143.19 118.765 143.191 118.89C143.191 119.14 143.291 119.381 143.468 119.558C143.645 119.735 143.886 119.835 144.136 119.835H195.376C195.627 119.835 195.867 119.735 196.044 119.558C196.221 119.381 196.321 119.14 196.321 118.89C196.321 118.638 196.222 118.397 196.045 118.219C195.868 118.04 195.627 117.939 195.376 117.937Z" fill="#223A74"/>
<path opacity="0.5" d="M195.376 117.937H144.136C144.012 117.937 143.888 117.962 143.773 118.01C143.658 118.058 143.553 118.128 143.465 118.216C143.378 118.305 143.308 118.41 143.261 118.526C143.214 118.641 143.19 118.765 143.191 118.89C143.191 119.14 143.291 119.381 143.468 119.558C143.645 119.735 143.886 119.835 144.136 119.835H195.376C195.627 119.835 195.867 119.735 196.044 119.558C196.221 119.381 196.321 119.14 196.321 118.89C196.321 118.638 196.222 118.397 196.045 118.219C195.868 118.04 195.627 117.939 195.376 117.937Z" fill="white"/>
<path d="M195.376 122.512H144.136C144.012 122.511 143.889 122.535 143.774 122.582C143.658 122.629 143.554 122.698 143.466 122.786C143.378 122.874 143.308 122.979 143.261 123.094C143.214 123.209 143.19 123.333 143.191 123.457C143.191 123.708 143.291 123.948 143.468 124.125C143.645 124.302 143.886 124.402 144.136 124.402H195.376C195.627 124.402 195.867 124.302 196.044 124.125C196.221 123.948 196.321 123.708 196.321 123.457C196.321 123.206 196.221 122.966 196.044 122.789C195.867 122.612 195.627 122.512 195.376 122.512Z" fill="#223A74"/>
<path opacity="0.5" d="M195.376 122.512H144.136C144.012 122.511 143.889 122.535 143.774 122.582C143.658 122.629 143.554 122.698 143.466 122.786C143.378 122.874 143.308 122.979 143.261 123.094C143.214 123.209 143.19 123.333 143.191 123.457C143.191 123.708 143.291 123.948 143.468 124.125C143.645 124.302 143.886 124.402 144.136 124.402H195.376C195.627 124.402 195.867 124.302 196.044 124.125C196.221 123.948 196.321 123.708 196.321 123.457C196.321 123.206 196.221 122.966 196.044 122.789C195.867 122.612 195.627 122.512 195.376 122.512Z" fill="white"/>
<path d="M195.376 127.079H144.136C143.886 127.079 143.645 127.179 143.468 127.356C143.291 127.533 143.191 127.774 143.191 128.024C143.191 128.275 143.291 128.515 143.468 128.692C143.645 128.87 143.886 128.969 144.136 128.969H195.376C195.627 128.969 195.867 128.87 196.044 128.692C196.221 128.515 196.321 128.275 196.321 128.024C196.321 127.774 196.221 127.533 196.044 127.356C195.867 127.179 195.627 127.079 195.376 127.079Z" fill="#223A74"/>
<path opacity="0.5" d="M195.376 127.079H144.136C143.886 127.079 143.645 127.179 143.468 127.356C143.291 127.533 143.191 127.774 143.191 128.024C143.191 128.275 143.291 128.515 143.468 128.692C143.645 128.87 143.886 128.969 144.136 128.969H195.376C195.627 128.969 195.867 128.87 196.044 128.692C196.221 128.515 196.321 128.275 196.321 128.024C196.321 127.774 196.221 127.533 196.044 127.356C195.867 127.179 195.627 127.079 195.376 127.079Z" fill="white"/>
<path d="M195.376 131.678H144.136C143.886 131.678 143.645 131.777 143.468 131.955C143.291 132.132 143.191 132.372 143.191 132.623C143.19 132.747 143.214 132.871 143.261 132.986C143.308 133.101 143.378 133.205 143.466 133.293C143.554 133.381 143.658 133.451 143.774 133.498C143.889 133.545 144.012 133.569 144.136 133.568H195.376C195.627 133.568 195.867 133.468 196.044 133.291C196.221 133.114 196.321 132.873 196.321 132.623C196.321 132.372 196.221 132.132 196.044 131.955C195.867 131.777 195.627 131.678 195.376 131.678Z" fill="#223A74"/>
<path opacity="0.5" d="M195.376 131.678H144.136C143.886 131.678 143.645 131.777 143.468 131.955C143.291 132.132 143.191 132.372 143.191 132.623C143.19 132.747 143.214 132.871 143.261 132.986C143.308 133.101 143.378 133.205 143.466 133.293C143.554 133.381 143.658 133.451 143.774 133.498C143.889 133.545 144.012 133.569 144.136 133.568H195.376C195.627 133.568 195.867 133.468 196.044 133.291C196.221 133.114 196.321 132.873 196.321 132.623C196.321 132.372 196.221 132.132 196.044 131.955C195.867 131.777 195.627 131.678 195.376 131.678Z" fill="white"/>
<path d="M179.625 136.214H144.135C143.885 136.224 143.65 136.332 143.481 136.515C143.311 136.698 143.221 136.941 143.229 137.19C143.228 137.314 143.252 137.438 143.299 137.553C143.346 137.668 143.416 137.773 143.503 137.861C143.591 137.949 143.696 138.018 143.811 138.065C143.926 138.112 144.05 138.136 144.174 138.135H179.665C179.915 138.135 180.155 138.036 180.333 137.858C180.51 137.681 180.609 137.441 180.609 137.19C180.614 137.06 180.591 136.93 180.543 136.809C180.495 136.688 180.423 136.579 180.331 136.487C180.238 136.395 180.128 136.324 180.006 136.277C179.885 136.23 179.755 136.208 179.625 136.214Z" fill="#223A74"/>
<path opacity="0.5" d="M179.625 136.214H144.135C143.885 136.224 143.65 136.332 143.481 136.515C143.311 136.698 143.221 136.941 143.229 137.19C143.228 137.314 143.252 137.438 143.299 137.553C143.346 137.668 143.416 137.773 143.503 137.861C143.591 137.949 143.696 138.018 143.811 138.065C143.926 138.112 144.05 138.136 144.174 138.135H179.665C179.915 138.135 180.155 138.036 180.333 137.858C180.51 137.681 180.609 137.441 180.609 137.19C180.614 137.06 180.591 136.93 180.543 136.809C180.495 136.688 180.423 136.579 180.331 136.487C180.238 136.395 180.128 136.324 180.006 136.277C179.885 136.23 179.755 136.208 179.625 136.214Z" fill="white"/>
<path d="M177.932 96.589V31.632L108.447 31.632V96.589H177.932Z" fill="#223A74"/>
<path opacity="0.5" d="M177.932 96.589V31.632L108.447 31.632V96.589H177.932Z" fill="white"/>
<path d="M177.146 95.8016V32.4194L109.237 32.4194V95.8016H177.146Z" fill="white"/>
<path d="M178.602 30.9548H177.256V32.3013H178.602V30.9548Z" fill="#223A74"/>
<path d="M178.602 95.9197H177.256V97.2662H178.602V95.9197Z" fill="#223A74"/>
<path d="M109.118 30.9312H107.771V32.2777H109.118V30.9312Z" fill="#223A74"/>
<path d="M109.118 95.9197H107.771V97.2662H109.118V95.9197Z" fill="#223A74"/>
<path d="M34.2083 55.1296H8.50586V29.4193H34.2083V55.1296ZM9.29331 54.3421H33.4209V30.2067H9.29331V54.3421Z" fill="#223A74"/>
<g opacity="0.5">
<path d="M34.2103 55.1296H8.50781V29.4193H34.2103V55.1296ZM9.29527 54.3421H33.4228V30.2067H9.29527V54.3421Z" fill="white"/>
</g>
<path d="M20.7983 38.5852H16.6484V37.0812H26.6885V38.5852H22.515V49.1843H20.7983V38.5852Z" fill="#223A74"/>
<path d="M34.6021 29.0334H33.043V30.5926H34.6021V29.0334Z" fill="#223A74"/>
<path d="M34.6021 53.9563H33.043V55.5155H34.6021V53.9563Z" fill="#223A74"/>
<path d="M9.6783 53.9563H8.11914V55.5155H9.6783V53.9563Z" fill="#223A74"/>
<path d="M9.6783 29.0334H8.11914V30.5926H9.6783V29.0334Z" fill="#223A74"/>
<path d="M197.353 187.414H171.643V161.703H197.353V187.414ZM172.43 186.626H196.565V162.491H172.43V186.626Z" fill="#223A74"/>
<g opacity="0.5">
<path d="M197.353 187.414H171.643V161.703H197.353V187.414ZM172.43 186.626H196.565V162.491H172.43V186.626Z" fill="white"/>
</g>
<path d="M197.739 161.318H196.18V162.877H197.739V161.318Z" fill="#223A74"/>
<path d="M197.739 186.24H196.18V187.8H197.739V186.24Z" fill="#223A74"/>
<path d="M172.815 186.24H171.256V187.8H172.815V186.24Z" fill="#223A74"/>
<path d="M172.815 161.318H171.256V162.877H172.815V161.318Z" fill="#223A74"/>
<path d="M173.154 178.145L178.288 173.003L182.706 177.421L190.179 169.94L195.841 175.602V185.933H173.154V178.145Z" fill="#223A74"/>
<path d="M182.185 167.499C182.185 167.859 182.078 168.211 181.878 168.51C181.678 168.809 181.394 169.042 181.062 169.18C180.73 169.317 180.364 169.353 180.011 169.283C179.658 169.213 179.334 169.04 179.08 168.785C178.825 168.531 178.652 168.207 178.582 167.854C178.512 167.501 178.548 167.135 178.685 166.803C178.823 166.471 179.056 166.186 179.355 165.987C179.654 165.787 180.006 165.68 180.366 165.68C180.848 165.682 181.309 165.874 181.65 166.215C181.991 166.556 182.183 167.017 182.185 167.499Z" fill="#223A74"/>
<path d="M44.1994 53.3028C44.1994 53.3028 33.1278 66.9887 31.8994 70.5007C30.671 74.0128 34.8602 98.4317 34.8602 98.4317C34.8602 98.4317 32.112 104.235 33.8602 105.566C35.6083 106.897 38.5849 109.503 39.3723 107.85C40.1598 106.196 40.6008 100.306 40.6008 100.306L39.3645 98.8412C39.3645 98.8412 38.2305 73.8553 38.3644 73.0127C38.4983 72.1701 50.0817 59.4449 50.0817 59.4449L44.1994 53.3028Z" fill="#9F5B53"/>
<path d="M44.9158 49.3182L35.7734 62.0277L42.2935 69.1778L51.9635 65.4531L44.9158 49.3182Z" fill="#223A74"/>
<path opacity="0.7" d="M51.9635 65.4531L50.0578 66.1855L44.4275 68.351L42.2935 69.1778L35.7734 62.0277L44.9158 49.3182L51.9635 65.4531Z" fill="white"/>
<path opacity="0.2" d="M50.058 66.1855L44.4277 68.351C44.4391 65.3293 45.3253 62.3755 46.9791 59.8465L50.058 66.1855Z" fill="black"/>
<path d="M35.9167 60.4686L43.555 69.1936L41.8383 70.5165L34.5938 62.1852L35.9167 60.4686Z" fill="#223A74"/>
<path opacity="0.6" d="M35.9167 60.4686L43.555 69.1936L41.8383 70.5165L34.5938 62.1852L35.9167 60.4686Z" fill="white"/>
<path d="M65.9083 27.7342C65.959 27.7384 66.0098 27.7289 66.0555 27.7067C66.1012 27.6846 66.1401 27.6505 66.1682 27.6082C66.3541 27.316 66.6051 27.0709 66.9016 26.892C67.198 26.713 67.5319 26.6051 67.877 26.5766C67.9501 26.5766 68.0202 26.5476 68.0719 26.4959C68.1235 26.4442 68.1526 26.3741 68.1526 26.301C68.1526 26.2279 68.1235 26.1578 68.0719 26.1061C68.0202 26.0544 67.9501 26.0254 67.877 26.0254C67.4406 26.0505 67.0165 26.1793 66.6399 26.4012C66.2632 26.623 65.945 26.9315 65.7115 27.3011C65.6704 27.3612 65.6541 27.4348 65.6658 27.5066C65.6775 27.5784 65.7164 27.643 65.7745 27.6869C65.816 27.7103 65.8613 27.7263 65.9083 27.7342Z" fill="#263238"/>
<path d="M67.5868 30.1989C67.6419 30.6635 67.9884 30.9863 68.2955 30.9312C68.6026 30.8761 68.768 30.4509 68.6813 29.9863C68.5947 29.5217 68.2718 29.1988 67.9726 29.2618C67.6734 29.3248 67.5002 29.7343 67.5868 30.1989Z" fill="#263238"/>
<path d="M67.4355 31.3092C68.0961 32.7034 68.9467 33.9993 69.9633 35.1598C69.6578 35.4127 69.3009 35.5958 68.9173 35.6965C68.5338 35.7971 68.1329 35.8129 67.7427 35.7425L67.4355 31.3092Z" fill="#A24E3F"/>
<path d="M67.7921 37.4434C67.7238 37.7098 67.6424 37.9726 67.548 38.2309C67.0043 39.7621 66.0073 41.0915 64.6895 42.0422C64.3564 42.2824 64.0064 42.4982 63.6422 42.6879C62.246 43.4355 60.6434 43.7055 59.0793 43.4567C57.5152 43.2078 56.0755 42.4538 54.9802 41.3098C52.0824 38.3884 52.1611 35.0102 51.8304 29.2933C51.7336 28.0669 51.9334 26.8353 52.4131 25.7025C52.8072 24.7523 53.3846 23.8891 54.1125 23.1622C54.8403 22.4353 55.7043 21.8591 56.6551 21.4663C57.6058 21.0736 58.6246 20.8721 59.6533 20.8734C60.682 20.8747 61.7003 21.0788 62.65 21.4739C68.2646 23.7969 69.0363 32.3014 67.7921 37.4434Z" fill="#9F5B53"/>
<path opacity="0.2" d="M64.6887 42.0737C64.3556 42.3139 64.0056 42.5297 63.6414 42.7194C62.6795 43.2354 61.6136 43.5282 60.5231 43.5759C59.4325 43.6236 58.3451 43.4251 57.3418 42.995C57.5972 42.3089 57.9385 41.658 58.3576 41.0578C60.5218 40.7776 62.7209 41.1304 64.6887 42.0737Z" fill="black"/>
<path d="M53.1855 49.4915C55.9968 52.0428 62.8948 51.0664 62.8948 51.0664C62.8948 51.0664 67.2022 49.8931 66.2966 48.5465C63.761 48.1292 62.5326 46.9716 62.0286 45.3967C61.7528 44.4572 61.6645 43.4725 61.7688 42.4989C61.8125 41.9576 61.8835 41.4188 61.9814 40.8846L53.4533 34.585C54.5715 38.7979 55.9416 46.4677 53.1855 49.4915Z" fill="#9F5B53"/>
<path d="M61.0344 19.0721C61.0344 19.0721 62.5463 18.1508 65.1213 20.584C67.2947 22.6314 65.1213 24.2772 66.4206 26.8837C67.7199 29.4901 65.9639 32.1045 65.9639 32.1045C65.9639 32.1045 64.7118 34.8055 62.5306 34.6401C62.5306 34.6401 60.7509 36.7898 61.0344 39.0262C61.3179 41.2626 58.113 43.0186 53.7505 42.9635C49.388 42.9083 51.1361 40.1838 51.1361 40.1838C49.8727 38.7263 48.8518 37.0752 48.1123 35.2937C47.2253 33.1298 46.8015 30.8041 46.8681 28.4664C46.8292 27.252 47.0318 26.0418 47.4644 24.9063C47.897 23.7708 48.5508 22.7326 49.388 21.8518C52.3016 18.5603 59.239 16.9145 61.0344 19.0721Z" fill="#263238"/>
<path d="M61.435 33.3881C61.5427 33.9263 61.7699 34.4336 62.0997 34.8724C62.4295 35.3112 62.8536 35.6705 63.3406 35.9237C64.4982 36.4198 65.2699 34.7819 65.0966 33.0574C64.9392 31.5376 64.1517 29.3957 62.9075 29.6792C61.6633 29.9627 61.0334 31.8525 61.435 33.3881Z" fill="#9F5B53"/>
<path d="M47.5386 30.4194C47.5386 30.4194 47.3575 27.5845 47.9717 27.2144C48.5859 26.8443 51.5231 26.2616 52.0113 26.7026C52.4996 27.1436 53.1216 29.7736 53.1216 29.7736C53.1216 29.7736 49.8537 30.884 47.5386 30.4194Z" fill="#263238"/>
<path d="M62.3964 15.1349C67.9086 14.3868 67.381 18.765 63.2311 25.3088C60.3254 29.876 48.9703 42.2548 44.6393 36.4197C42.2534 33.1597 50.8681 16.6468 62.3964 15.1349Z" fill="#223A74"/>
<path opacity="0.2" d="M62.3964 15.1349C67.9086 14.3868 67.381 18.765 63.2311 25.3088C60.3254 29.876 48.9703 42.2548 44.6393 36.4197C42.2534 33.1597 50.8681 16.6468 62.3964 15.1349Z" fill="white"/>
<path d="M57.3096 26.616C53.8842 30.9785 46.9231 32.2226 46.9231 32.2226L43.293 24.7497C45.1592 18.6233 51.703 15.7176 51.703 15.7176L59.2861 18.2847C59.2861 18.2847 60.7351 22.222 57.3096 26.616Z" fill="#223A74"/>
<path opacity="0.2" d="M49.3879 21.8361C46.238 24.9859 45.2616 26.4112 43.293 24.7497C45.1592 18.6233 51.703 15.7176 51.703 15.7176C52.7582 16.1901 52.577 18.7178 49.3879 21.8361Z" fill="white"/>
<path d="M52.5078 48.2079L53.4449 44.625C53.4449 44.625 60.9178 43.3808 65.5165 45.2549L66.304 48.5465L52.5078 48.2079Z" fill="#223A74"/>
<path opacity="0.6" d="M52.5078 48.2079L53.4449 44.625C53.4449 44.625 60.9178 43.3808 65.5165 45.2549L66.304 48.5465L52.5078 48.2079Z" fill="white"/>
<path d="M75.1621 225.558L81.1231 226.188L81.4302 222.731L82.2413 213.329L76.2803 212.691L75.3747 223.086L75.1621 225.558Z" fill="#9F5B53"/>
<path d="M45.4023 224.802H51.1823L51.2295 223.495L51.2374 223.33L51.5366 214.951L51.5445 214.786L51.6626 211.573H45.8748L45.4023 224.802Z" fill="#9F5B53"/>
<path opacity="0.2" d="M76.2806 212.691L75.375 223.086L81.4305 222.731L82.2416 213.329L76.2806 212.691Z" fill="black"/>
<path opacity="0.2" d="M45.4434 224.07H45.4512L51.2311 223.33H51.239L51.5461 215.25H51.5382L45.7426 215.707L45.4512 223.818L45.4434 224.07Z" fill="black"/>
<path d="M51.989 224.456H44.9649C44.8501 224.456 44.7387 224.495 44.6487 224.567C44.5587 224.638 44.4954 224.738 44.4688 224.849L43.3349 229.999C43.2882 230.22 43.3308 230.449 43.4533 230.638C43.5758 230.827 43.7683 230.96 43.9885 231.007C44.0513 231.015 44.1147 231.015 44.1775 231.007C46.4532 230.968 48.1147 230.826 50.9575 230.826C52.7135 230.826 58.0445 231.015 60.4069 231.015C62.7693 231.015 63.1472 228.613 62.155 228.393C57.7059 227.424 54.3514 226.078 52.9261 224.802C52.6673 224.575 52.3335 224.451 51.989 224.456Z" fill="#263238"/>
<path d="M81.7602 224.274H74.7204C74.6061 224.274 74.4951 224.313 74.4061 224.384C74.3172 224.456 74.2557 224.556 74.2321 224.668L73.1455 229.818C73.0987 230.038 73.1413 230.268 73.2638 230.457C73.3864 230.646 73.5788 230.779 73.799 230.826C73.8618 230.834 73.9253 230.834 73.988 230.826C76.2638 230.826 77.9253 230.653 80.768 230.653C82.524 230.653 87.8551 230.834 90.2174 230.834C92.5798 230.834 92.9657 228.472 91.9735 228.22C87.5165 227.251 84.1619 225.905 82.7366 224.621C82.4661 224.387 82.1176 224.263 81.7602 224.274Z" fill="#263238"/>
<path d="M82.7925 221.81H74.3117C74.3117 221.81 75.0046 143.34 65.8387 116.842C65.193 125.607 64.4606 134.694 63.7519 142.269C63.3031 146.955 62.8621 150.978 62.4448 154.081C59.7753 173.846 53.0426 222.589 53.0426 222.589H44.6641C44.6641 222.589 45.6563 175.838 46.6484 156.443C47.743 135.355 48.2234 89.0137 48.2627 85.0607H78.934C81.8476 101.644 89.3363 168.05 82.7925 221.81Z" fill="#223A74"/>
<path opacity="0.2" d="M65.8393 116.811C65.1936 125.567 64.4613 134.678 63.7526 142.246C62.7052 131.316 61.4296 123.52 61.4296 123.52C61.4296 123.52 60.2326 122.465 56.9332 116.811C53.6338 111.157 56.9332 100.605 56.9332 100.605C56.8308 110.417 65.8393 116.811 65.8393 116.811Z" fill="black"/>
<path d="M83.7443 219.471L83.3269 221.865H73.3105V219.66L83.7443 219.471Z" fill="#223A74"/>
<path d="M54.0039 220.392L53.0432 222.597H44.6411L44.0898 220.392H54.0039Z" fill="#223A74"/>
<path d="M49.3809 85.6671C49.1753 85.6705 48.9711 85.6318 48.7811 85.5533C48.5911 85.4747 48.4192 85.3581 48.276 85.2105C48.1328 85.0629 48.0214 84.8875 47.9487 84.6951C47.876 84.5028 47.8435 84.2976 47.8532 84.0922C47.9713 81.9976 47.8532 77.1941 46.9319 66.2642C46.4752 61.0513 45.8216 55.3737 44.916 49.334C44.916 49.334 61.6966 44.9321 73.3273 48.6095C73.3273 48.6095 78.6348 71.3118 79.2726 83.6433C79.2821 83.8447 79.251 84.046 79.1812 84.2352C79.1114 84.4244 79.0042 84.5976 78.8661 84.7445C78.728 84.8914 78.5618 85.0091 78.3773 85.0904C78.1928 85.1718 77.9938 85.2153 77.7922 85.2182L49.3809 85.6671Z" fill="#223A74"/>
<path opacity="0.7" d="M49.3809 85.6671C49.1753 85.6705 48.9711 85.6318 48.7811 85.5533C48.5911 85.4747 48.4192 85.3581 48.276 85.2105C48.1328 85.0629 48.0214 84.8875 47.9487 84.6951C47.876 84.5028 47.8435 84.2976 47.8532 84.0922C47.9713 81.9976 47.8532 77.1941 46.9319 66.2642C46.4752 61.0513 45.8216 55.3737 44.916 49.334C44.916 49.334 61.6966 44.9321 73.3273 48.6095C73.3273 48.6095 78.6348 71.3118 79.2726 83.6433C79.2821 83.8447 79.251 84.046 79.1812 84.2352C79.1114 84.4244 79.0042 84.5976 78.8661 84.7445C78.728 84.8914 78.5618 85.0091 78.3773 85.0904C78.1928 85.1718 77.9938 85.2153 77.7922 85.2182L49.3809 85.6671Z" fill="white"/>
<path d="M59.4373 86.1711L57.256 56.1612L46.8223 48.7907L48.2791 48.271L58.3506 54.9171L67.7449 47.2315L69.4064 47.389L59.5396 56.2636L61.776 86.3286L59.4373 86.1711Z" fill="#263238"/>
<path d="M57.0745 56.0273L58.1612 54.6178C58.179 54.5977 58.2008 54.5816 58.2252 54.5705C58.2496 54.5595 58.2761 54.5538 58.303 54.5538C58.3298 54.5538 58.3563 54.5595 58.3807 54.5705C58.4052 54.5816 58.427 54.5977 58.4447 54.6178L59.6495 56.0195C59.6719 56.0455 59.6865 56.0774 59.6915 56.1114C59.6964 56.1454 59.6916 56.1802 59.6776 56.2116C59.6635 56.243 59.6408 56.2697 59.6122 56.2886C59.5835 56.3076 59.55 56.318 59.5156 56.3187H57.2163C57.1826 56.3183 57.1498 56.3086 57.1213 56.2906C57.0929 56.2726 57.0701 56.2471 57.0554 56.2168C57.0406 56.1866 57.0346 56.1528 57.038 56.1193C57.0414 56.0859 57.0541 56.054 57.0745 56.0273Z" fill="white"/>
<path opacity="0.2" d="M75.7441 65.7209C73.3817 63.5869 72.1454 55.61 72.0352 55.295L74.3581 55.988C74.7597 58.5157 75.2243 61.6813 75.6889 65.3036L75.7441 65.7209Z" fill="black"/>
<path d="M74.8479 57.6101C74.8479 57.6101 87.5574 57.6574 91.6285 56.4368C95.6997 55.2163 103.976 36.1914 103.976 36.1914L110.126 33.1912C110.126 33.1912 108.74 28.4665 106.897 28.2933C105.055 28.12 101.251 32.8369 100.85 33.8684C100.448 34.9 89.8253 48.6568 89.2583 49.397C88.6913 50.1372 73.3281 48.6095 73.3281 48.6095L74.8479 57.6101Z" fill="#9F5B53"/>
<path d="M73.3282 48.5938C72.4351 50.8854 72.0535 53.3445 72.21 55.799C72.525 59.689 75.4858 62.8073 75.4858 62.8073L87.6362 59.8465L87.8646 49.4128L73.3282 48.5938Z" fill="#223A74"/>
<path opacity="0.7" d="M73.3282 48.5938C72.4351 50.8854 72.0535 53.3445 72.21 55.799C72.525 59.689 75.4858 62.8073 75.4858 62.8073L87.6362 59.8465L87.8646 49.4128L73.3282 48.5938Z" fill="white"/>
<path d="M86.7777 48.8694L86.2344 60.7048L88.1479 60.311L88.3369 48.8694H86.7777Z" fill="#223A74"/>
<path opacity="0.6" d="M86.7777 48.8694L86.2344 60.7048L88.1479 60.311L88.3369 48.8694H86.7777Z" fill="white"/>
<path d="M68.5488 88.746L79.0692 88.7303L78.518 86.1317L68.5488 86.1553V88.746Z" fill="#263238"/>
<path d="M53.8293 86.1789L48.3014 86.1868L48.2227 88.7854L53.8293 88.7696V86.1789Z" fill="#263238"/>
<path d="M54.9258 86.179V88.7697L67.2258 88.7539V86.1553L54.9258 86.179Z" fill="#263238"/>
<path opacity="0.2" d="M83.7443 219.471L83.3269 221.865H73.3105V219.66L83.7443 219.471Z" fill="black"/>
<path opacity="0.2" d="M54.0039 220.392L53.0432 222.597H44.6411L44.0898 220.392H54.0039Z" fill="black"/>
</svg>
