<svg width="299" height="300" viewBox="0 0 299 300" fill="none" xmlns="http://www.w3.org/2000/svg">
<path d="M296.068 299.494C296.068 299.589 229.788 299.67 148.041 299.67C66.2941 299.67 0 299.589 0 299.494C0 299.4 66.2671 299.319 148.041 299.319C229.815 299.319 296.068 299.4 296.068 299.494Z" fill="#263238"/>
<path d="M15.891 288.734C14.8043 285.173 14.7196 281.381 15.6464 277.774C16.5732 274.168 18.4757 270.887 21.1449 268.291C23.8142 265.695 27.147 263.884 30.7777 263.058C34.4084 262.232 38.1966 262.421 41.7264 263.607C41.6516 259.637 42.6642 255.722 44.6546 252.287C46.6451 248.851 49.5374 246.026 53.0185 244.116C56.4996 242.206 60.4368 241.285 64.4038 241.453C68.3708 241.62 72.2163 242.87 75.524 245.066C79.2119 238.021 89.0081 234.953 96.04 238.722C103.072 242.491 106.032 252.28 102.243 259.285C105.142 258.585 108.187 258.819 110.946 259.952C113.704 261.085 116.035 263.061 117.604 265.597C119.174 268.133 119.902 271.099 119.686 274.074C119.47 277.048 118.32 279.878 116.401 282.161C127.862 277.097 142.991 287.271 142.607 299.825L3.09473 299.42C4.11951 297.58 7.55793 289.065 15.891 288.734Z" fill="white"/>
<path d="M15.8909 288.734L14.7717 288.869C13.6682 289.028 12.5925 289.341 11.576 289.799C9.91512 290.578 8.43774 291.699 7.24091 293.09C5.58664 295.01 4.22367 297.164 3.1957 299.481L3.12828 299.373L142.641 299.676L142.465 299.845C142.516 297.663 142.116 295.494 141.292 293.474C140.447 291.409 139.239 289.511 137.726 287.871C134.632 284.481 130.523 282.184 126.015 281.325C122.813 280.713 119.502 281.067 116.502 282.343L115.828 282.653L116.32 282.073C118.227 279.819 119.372 277.019 119.589 274.074C119.807 271.129 119.086 268.191 117.53 265.681C115.974 263.171 113.663 261.219 110.929 260.103C108.194 258.988 105.177 258.768 102.31 259.474L101.939 259.568L102.121 259.231C103.054 257.39 103.599 255.377 103.725 253.316C103.85 251.256 103.552 249.192 102.849 247.251C102.235 245.353 101.239 243.601 99.9236 242.102C98.6077 240.602 96.9993 239.388 95.1971 238.533C91.6273 237.013 87.6119 236.914 83.9716 238.257C80.4427 239.443 77.4864 241.909 75.6857 245.167L75.6048 245.316L75.4632 245.221C71.78 242.84 67.47 241.612 63.0849 241.695C58.9883 241.727 54.9886 242.944 51.5696 245.201C48.4361 247.33 45.9012 250.227 44.2073 253.615C42.6466 256.713 41.8447 260.138 41.8678 263.607V263.769L41.7195 263.715C38.5786 262.688 35.2352 262.44 31.9773 262.993C30.4923 263.242 29.0387 263.651 27.6422 264.214C26.3283 264.727 25.0756 265.385 23.9071 266.175C21.8024 267.577 19.9948 269.38 18.5877 271.481C15.8139 275.706 14.6399 280.782 15.2774 285.795C15.3808 286.537 15.5248 287.273 15.7089 287.999L15.8909 288.734C15.8909 288.64 15.8032 288.444 15.6752 287.999C15.4744 287.28 15.3213 286.548 15.2167 285.808C14.8111 282.916 15.0202 279.971 15.8302 277.165C16.4152 275.122 17.3039 273.179 18.4663 271.4C20.6826 268.079 23.8571 265.512 27.568 264.038C28.9775 263.468 30.4445 263.052 31.9436 262.798C35.2306 262.216 38.61 262.447 41.7869 263.472L41.6386 263.58C41.6196 259.909 42.5023 256.291 44.2092 253.041C45.9162 249.792 48.395 247.012 51.428 244.945C54.8916 242.652 58.9449 241.411 63.0984 241.372C67.5385 241.29 71.9021 242.534 75.6318 244.945L75.416 244.999C77.252 241.672 80.2651 239.152 83.8638 237.933C87.5793 236.558 91.6803 236.657 95.3252 238.21C97.169 239.082 98.815 240.322 100.162 241.854C101.509 243.385 102.529 245.176 103.159 247.116C103.876 249.101 104.18 251.211 104.052 253.317C103.925 255.424 103.368 257.482 102.418 259.366L102.222 259.117C105.16 258.392 108.252 258.617 111.054 259.759C113.856 260.901 116.224 262.901 117.819 265.472C119.414 268.043 120.153 271.054 119.931 274.071C119.709 277.089 118.537 279.959 116.583 282.269L116.374 281.999C119.436 280.692 122.819 280.328 126.089 280.954C130.675 281.825 134.856 284.16 138.002 287.608C139.539 289.28 140.767 291.211 141.629 293.312C142.469 295.378 142.877 297.595 142.829 299.825V300H142.641L3.12828 299.501H3.01367L3.06761 299.393C4.0936 297.073 5.45671 294.917 7.11281 292.995C8.32708 291.602 9.82304 290.483 11.5019 289.712C12.5229 289.253 13.6069 288.951 14.7178 288.815L15.8909 288.734Z" fill="#263238"/>
<path d="M280.986 285.963C278.751 284.637 276.187 283.965 273.588 284.026C270.989 284.087 268.46 284.877 266.289 286.307C265.982 282.785 264.731 279.411 262.668 276.541C260.604 273.671 257.805 271.41 254.564 269.997C251.324 268.584 247.762 268.072 244.255 268.513C240.748 268.955 237.424 270.334 234.635 272.506C234.916 268.88 234.129 265.252 232.371 262.068C230.614 258.884 227.963 256.285 224.745 254.591C221.527 252.896 217.883 252.182 214.264 252.534C210.644 252.887 207.207 254.291 204.377 256.575V299.494L287.304 299.231C287.602 296.65 287.168 294.036 286.051 291.69C284.934 289.343 283.179 287.359 280.986 285.963Z" fill="white"/>
<path d="M280.987 285.963C280.987 285.963 281.283 286.138 281.85 286.523C282.658 287.114 283.4 287.792 284.061 288.545C285.127 289.78 285.971 291.189 286.555 292.712C287.363 294.786 287.65 297.027 287.391 299.238V299.312H287.311L204.384 299.663H204.215V299.488C204.215 292.186 204.215 284.601 204.215 276.841V256.528L204.283 256.474C207.362 254.053 211.112 252.641 215.023 252.428C218.773 252.179 222.511 253.072 225.743 254.99C228.783 256.875 231.234 259.575 232.815 262.784C234.338 265.802 235.022 269.174 234.797 272.547L234.554 272.418C236.291 271.098 238.231 270.068 240.299 269.371C242.268 268.717 244.325 268.365 246.4 268.326C250.228 268.21 254.001 269.251 257.228 271.313C260.018 273.115 262.322 275.576 263.936 278.48C264.642 279.748 265.216 281.085 265.648 282.471C266.013 283.731 266.262 285.022 266.39 286.327L266.255 286.267C268.126 285.024 270.276 284.264 272.512 284.055C274.133 283.902 275.767 284.028 277.346 284.426C278.309 284.676 279.242 285.029 280.13 285.478C280.71 285.808 281 285.99 281 285.99L280.771 285.875L280.097 285.518C277.747 284.359 275.117 283.891 272.512 284.17C270.302 284.389 268.181 285.151 266.336 286.388L266.222 286.462V286.32C266.089 285.03 265.836 283.755 265.466 282.511C265.035 281.138 264.461 279.814 263.754 278.56C262.149 275.695 259.863 273.269 257.1 271.495C253.909 269.471 250.183 268.453 246.407 268.576C244.361 268.62 242.334 268.972 240.393 269.621C238.358 270.311 236.45 271.329 234.743 272.634L234.473 272.836V272.506C234.692 269.187 234.012 265.871 232.505 262.905C230.957 259.752 228.553 257.097 225.567 255.247C222.392 253.368 218.724 252.494 215.043 252.739C211.204 252.948 207.522 254.334 204.499 256.71L204.566 256.575V299.494L204.391 299.319L287.317 299.144L287.236 299.225C287.502 297.04 287.231 294.823 286.448 292.766C285.527 290.302 283.928 288.15 281.836 286.556L281.209 286.118L280.987 285.963Z" fill="#263238"/>
<path d="M280.906 188.609C280.288 187.872 279.526 187.269 278.667 186.836C277.808 186.404 276.87 186.151 275.91 186.094C274.468 186.002 273.024 186.256 271.7 186.835C270.376 187.414 269.21 188.302 268.299 189.423C267.387 190.545 266.758 191.868 266.462 193.283C266.166 194.698 266.213 196.163 266.599 197.555C262.358 196.018 257.16 198.573 255.589 202.787C254.019 207.001 256.055 212.192 259.985 214.39C263.916 216.588 269.235 215.738 272.471 212.61C274.818 217.107 281.061 219.056 285.551 216.655C290.041 214.255 291.936 208.012 289.522 203.549C291.708 203.265 293.734 202.249 295.271 200.668C296.807 199.086 297.763 197.031 297.983 194.837C298.203 192.644 297.675 190.44 296.484 188.584C295.293 186.729 293.509 185.331 291.423 184.617C287.297 183.202 283.225 184.867 280.906 188.568V188.609Z" fill="white"/>
<path d="M280.905 188.609C280.905 188.609 280.905 188.548 280.993 188.447L281.283 187.995C281.675 187.425 282.127 186.899 282.631 186.424C283.59 185.506 284.75 184.825 286.019 184.435C287.288 184.046 288.631 183.958 289.94 184.179C291.803 184.494 293.531 185.358 294.902 186.66C296.512 188.192 297.597 190.193 298.003 192.377C298.213 193.614 298.175 194.88 297.893 196.102C297.611 197.324 297.089 198.478 296.358 199.497C295.571 200.596 294.588 201.54 293.459 202.281C292.268 203.052 290.925 203.555 289.522 203.758L289.656 203.508C291.679 207.27 290.789 212.644 287.202 215.779C286.272 216.555 285.197 217.139 284.04 217.496C282.883 217.854 281.666 217.978 280.46 217.862C277.957 217.676 275.602 216.602 273.819 214.835C273.202 214.207 272.678 213.494 272.262 212.718L272.559 212.765C271.159 214.078 269.446 215.01 267.583 215.472C265.721 215.933 263.77 215.909 261.92 215.401C260.14 214.894 258.551 213.868 257.355 212.455C256.78 211.772 256.289 211.023 255.892 210.223C255.525 209.43 255.247 208.598 255.063 207.742C254.906 206.9 254.851 206.042 254.901 205.187C254.966 204.352 255.143 203.528 255.427 202.74C256.022 201.231 257.023 199.917 258.32 198.944C259.529 198.015 260.94 197.384 262.439 197.104C263.847 196.857 265.294 196.971 266.646 197.434L266.457 197.609C266.022 195.944 266.059 194.191 266.565 192.546C266.998 191.077 267.785 189.736 268.857 188.642C269.793 187.698 270.932 186.978 272.188 186.539C273.243 186.17 274.354 185.985 275.471 185.993C277.028 185.989 278.541 186.509 279.766 187.469C280.198 187.791 280.581 188.172 280.905 188.602L280.615 188.312C280.334 188.032 280.032 187.773 279.712 187.537C278.489 186.623 276.998 186.137 275.471 186.155C274.375 186.161 273.288 186.352 272.255 186.721C271.033 187.161 269.926 187.873 269.019 188.804C267.983 189.876 267.226 191.187 266.814 192.62C266.331 194.219 266.303 195.921 266.734 197.535L266.808 197.798L266.545 197.704C265.243 197.266 263.851 197.164 262.5 197.407C261.051 197.684 259.688 198.298 258.522 199.2C257.282 200.143 256.324 201.406 255.751 202.854C255.482 203.616 255.315 204.409 255.252 205.214C255.207 206.038 255.264 206.865 255.42 207.675C255.599 208.5 255.868 209.303 256.223 210.068C256.609 210.838 257.084 211.56 257.639 212.219C258.79 213.574 260.318 214.557 262.028 215.044C263.822 215.54 265.714 215.565 267.521 215.116C269.328 214.667 270.989 213.76 272.343 212.482L272.518 212.314L272.646 212.536C273.046 213.277 273.548 213.957 274.136 214.559C275.854 216.263 278.122 217.3 280.534 217.485C281.69 217.589 282.855 217.464 283.962 217.117C285.069 216.77 286.097 216.207 286.987 215.462C288.66 213.976 289.793 211.977 290.209 209.779C290.638 207.696 290.345 205.53 289.38 203.637L289.265 203.421L289.508 203.38C290.859 203.187 292.153 202.706 293.304 201.971C294.399 201.251 295.354 200.337 296.122 199.274C296.835 198.292 297.346 197.177 297.625 195.996C297.904 194.814 297.945 193.589 297.747 192.391C297.362 190.261 296.314 188.308 294.753 186.809C293.424 185.527 291.744 184.67 289.926 184.348C288.456 184.087 286.943 184.224 285.544 184.745C284.51 185.146 283.558 185.731 282.732 186.471C282.044 187.112 281.432 187.829 280.905 188.609Z" fill="#263238"/>
<path d="M65.3033 70.4483C65.761 68.9454 65.7957 67.3454 65.4036 65.824C65.0115 64.3026 64.2077 62.9187 63.0805 61.8243C61.9534 60.7299 60.5464 59.9672 59.0141 59.6201C57.4818 59.273 55.8836 59.3548 54.3948 59.8566C54.4309 58.1827 54.008 56.5308 53.172 55.0802C52.336 53.6296 51.1187 52.4355 49.6522 51.6276C48.1858 50.8197 46.5261 50.4287 44.8532 50.4972C43.1803 50.5656 41.558 51.0907 40.1624 52.0157C39.7784 51.2587 39.2474 50.5859 38.6003 50.0366C37.9532 49.4872 37.2031 49.0725 36.3938 48.8165C35.5845 48.5605 34.7323 48.4685 33.8871 48.5457C33.0418 48.623 32.2204 48.8681 31.471 49.2665C30.7215 49.665 30.0591 50.2089 29.5223 50.8665C28.9856 51.524 28.5853 52.282 28.345 53.096C28.1046 53.9101 28.029 54.7639 28.1226 55.6075C28.2161 56.4512 28.4769 57.2677 28.8898 58.0093C27.6658 57.7083 26.3779 57.8026 25.2108 58.2788C24.0437 58.7549 23.0574 59.5885 22.3933 60.6598C21.7292 61.7312 21.4215 62.9853 21.5143 64.2424C21.607 65.4994 22.0955 66.6948 22.9096 67.6571C18.0621 65.5199 11.6977 69.8146 11.8595 75.0733L70.6969 74.9048C70.2587 74.1497 68.8024 70.5562 65.3033 70.4483Z" fill="white"/>
<path d="M65.3028 70.4484L65.7815 70.4821C66.2469 70.538 66.7014 70.663 67.1299 70.8529C67.8411 71.1646 68.4778 71.6243 68.9975 72.2013C69.7037 73.0094 70.2855 73.9183 70.7234 74.8981L70.7774 75.0059H70.6627L11.8455 75.2824H11.6702V75.1138C11.6618 74.1593 11.8357 73.2119 12.1826 72.3226C12.5568 71.4288 13.0812 70.6056 13.7333 69.8888C15.0754 68.418 16.8597 67.424 18.8167 67.0571C20.2138 66.7848 21.6604 66.9374 22.9698 67.4954L22.7608 67.7718C21.9229 66.7812 21.4203 65.5508 21.3249 64.2569C21.2294 62.9631 21.5462 61.6722 22.2297 60.5695C22.9132 59.4667 23.9283 58.6087 25.1296 58.1185C26.3308 57.6284 27.6564 57.5311 28.9163 57.8408L28.7275 58.0903C26.9948 54.7799 28.5926 50.4381 31.7681 49.0358C33.2981 48.4018 35.0066 48.3471 36.574 48.882C38.1413 49.4169 39.46 50.5046 40.2833 51.9416L40.0608 51.8876C41.4761 50.949 43.1211 50.4154 44.8179 50.3445C46.5147 50.2736 48.1985 50.6682 49.6872 51.4854C51.1758 52.3026 52.4126 53.5115 53.2637 54.9811C54.1148 56.4507 54.5477 58.125 54.5156 59.823L54.3673 59.7151C55.6388 59.3079 56.986 59.194 58.3079 59.382C59.6297 59.57 60.8917 60.055 61.9993 60.8006C63.6467 61.9245 64.8414 63.597 65.3703 65.52C65.7073 66.7097 65.79 67.957 65.613 69.1809C65.5642 69.4909 65.4943 69.7972 65.404 70.0978L65.3096 70.4079L65.377 70.1045C65.4506 69.7955 65.5069 69.4827 65.5456 69.1674C65.6996 67.9553 65.5986 66.7244 65.2489 65.5537C64.7079 63.6653 63.5131 62.0307 61.8779 60.9421C60.7906 60.222 59.5548 59.7565 58.2625 59.5803C56.9703 59.404 55.655 59.5215 54.4145 59.9241L54.2662 59.9713V59.8095C54.2741 58.3578 53.9367 56.925 53.2819 55.6294C52.7148 54.4807 51.9092 53.4662 50.9186 52.6538C49.9281 51.8415 48.7756 51.2499 47.5381 50.9186C46.3006 50.5874 45.0067 50.5242 43.7428 50.7331C42.4789 50.9421 41.2741 51.4184 40.2091 52.1303L40.0675 52.2247L39.9934 52.0764C39.204 50.7186 37.9501 49.6922 36.4631 49.1866C34.9761 48.681 33.3564 48.7304 31.903 49.3257C28.9163 50.6404 27.3858 54.8137 29.0309 57.9217L29.2129 58.2588L28.8421 58.1644C27.6538 57.8749 26.4044 57.9685 25.2726 58.4319C24.1407 58.8954 23.1844 59.7048 22.5404 60.7445C21.8964 61.7843 21.5976 63.001 21.6868 64.2208C21.7761 65.4406 22.2487 66.6009 23.0372 67.5358L23.5227 68.1156L22.8485 67.8122C21.6021 67.2841 20.2269 67.1386 18.8976 67.3942C17.0217 67.7415 15.309 68.6878 14.0164 70.091C13.3825 70.7909 12.8759 71.5964 12.5197 72.471C12.1905 73.3154 12.0235 74.2143 12.0275 75.1206L11.859 74.952L70.6964 74.8846L70.629 74.9925C70.2053 74.0143 69.6371 73.1052 68.9435 72.2957C68.4413 71.7125 67.8238 71.2396 67.1299 70.9068C66.5468 70.665 65.9311 70.5105 65.3028 70.4484Z" fill="#263238"/>
<path d="M287.499 104.064C287.894 102.77 287.925 101.393 287.588 100.083C287.252 98.7724 286.561 97.5804 285.591 96.6372C284.621 95.6941 283.411 95.0363 282.092 94.736C280.773 94.4358 279.397 94.5047 278.114 94.9353C278.143 93.4932 277.777 92.0706 277.055 90.8218C276.333 89.573 275.283 88.5457 274.019 87.8511C272.755 87.1565 271.325 86.8212 269.884 86.8815C268.443 86.9418 267.046 87.3955 265.844 88.1933C265.157 86.9067 263.988 85.9457 262.592 85.5215C261.197 85.0973 259.691 85.2447 258.404 85.9313C257.118 86.618 256.156 87.7875 255.732 89.1828C255.308 90.578 255.456 92.0846 256.142 93.3711C255.088 93.1116 253.979 93.1925 252.974 93.6023C251.969 94.012 251.12 94.7296 250.548 95.652C249.976 96.5744 249.71 97.6543 249.79 98.7367C249.87 99.8192 250.29 100.849 250.991 101.677C246.818 99.8367 241.337 103.531 241.478 108.089L292.124 107.941C291.767 107.273 290.52 104.158 287.499 104.064Z" fill="white"/>
<path d="M287.499 104.064C287.499 104.064 287.647 104.064 287.917 104.064C288.322 104.115 288.717 104.224 289.09 104.388C289.704 104.664 290.251 105.069 290.695 105.574C291.304 106.271 291.806 107.055 292.185 107.9L292.225 107.994H292.124L241.478 108.224H241.323V108.082C241.314 107.261 241.463 106.447 241.761 105.682C242.089 104.912 242.545 104.203 243.11 103.585C244.264 102.318 245.8 101.461 247.485 101.145C248.688 100.916 249.931 101.048 251.059 101.522L250.883 101.758C250.164 100.905 249.733 99.8468 249.651 98.734C249.57 97.6212 249.843 96.5112 250.432 95.5631C251.02 94.615 251.893 93.8773 252.926 93.4557C253.959 93.0341 255.099 92.9502 256.183 93.216L256.021 93.425C255.674 92.7721 255.459 92.0571 255.388 91.3211C255.317 90.585 255.392 89.8422 255.608 89.135C255.825 88.4279 256.178 87.7703 256.648 87.1998C257.119 86.6293 257.697 86.157 258.35 85.8099C259.003 85.4629 259.718 85.2478 260.454 85.177C261.19 85.1063 261.933 85.1812 262.64 85.3975C263.347 85.6138 264.005 85.9672 264.575 86.4377C265.146 86.9081 265.618 87.4863 265.965 88.1393L265.776 88.0854C266.995 87.2787 268.411 86.8207 269.872 86.7607C271.332 86.7007 272.781 87.0411 274.062 87.745C275.342 88.4489 276.406 89.4896 277.138 90.7546C277.871 92.0195 278.243 93.4605 278.215 94.9217L278.087 94.8274C279.182 94.4788 280.342 94.3815 281.48 94.5425C282.618 94.7036 283.705 95.119 284.661 95.7577C286.074 96.7221 287.101 98.1549 287.56 99.8029C287.851 100.826 287.923 101.899 287.769 102.951C287.728 103.22 287.669 103.486 287.593 103.747L287.506 104.017L287.567 103.747C287.631 103.483 287.681 103.215 287.715 102.945C287.845 101.902 287.758 100.844 287.459 99.8367C287 98.2098 285.977 96.7994 284.573 95.8589C283.636 95.2403 282.573 94.8403 281.46 94.6886C280.348 94.5369 279.216 94.6373 278.148 94.9824L278.02 95.0296V94.888C278.027 93.6375 277.735 92.4034 277.17 91.2878C276.557 90.0691 275.643 89.0272 274.514 88.2606C273.233 87.435 271.74 86.9959 270.216 86.9959C268.692 86.9959 267.199 87.435 265.918 88.2606L265.797 88.3348L265.736 88.2067C265.055 87.0321 263.971 86.1447 262.685 85.7094C261.399 85.2742 259.999 85.3207 258.744 85.8403C257.438 86.5009 256.446 87.651 255.983 89.0402C255.521 90.4293 255.627 91.9448 256.277 93.2565L256.432 93.5464L256.108 93.4655C255.081 93.2085 253.999 93.2849 253.018 93.6838C252.037 94.0826 251.209 94.7832 250.652 95.6841C250.096 96.585 249.841 97.6395 249.924 98.6951C250.006 99.7507 250.423 100.753 251.113 101.556L251.537 102.055L250.937 101.792C249.873 101.346 248.701 101.221 247.566 101.435C245.948 101.743 244.472 102.566 243.359 103.781C242.82 104.376 242.389 105.06 242.085 105.803C241.798 106.529 241.654 107.302 241.66 108.082L241.512 107.941L292.158 107.88L292.104 107.974C291.74 107.133 291.251 106.351 290.654 105.655C290.225 105.15 289.695 104.741 289.097 104.455C288.59 104.237 288.05 104.105 287.499 104.064Z" fill="#263238"/>
<path d="M186.005 14.0852C185.718 13.1475 185.695 12.1488 185.939 11.199C186.183 10.2491 186.684 9.38492 187.387 8.70134C188.09 8.01775 188.968 7.54127 189.924 7.32426C190.881 7.10725 191.878 7.15813 192.808 7.4713C192.79 6.42844 193.058 5.40057 193.582 4.49873C194.106 3.59689 194.866 2.85537 195.781 2.35427C196.696 1.85317 197.73 1.61153 198.772 1.65547C199.814 1.69941 200.824 2.02725 201.694 2.60357C201.932 2.13058 202.263 1.71005 202.667 1.36668C203.07 1.02331 203.538 0.764018 204.043 0.604024C204.549 0.444029 205.081 0.386558 205.608 0.434985C206.136 0.483412 206.648 0.636763 207.116 0.886032C207.584 1.1353 207.997 1.47546 208.331 1.88655C208.665 2.29764 208.914 2.77137 209.063 3.27992C209.211 3.78848 209.257 4.32161 209.197 4.84802C209.136 5.37444 208.972 5.88352 208.712 6.34539C209.475 6.15715 210.278 6.21539 211.006 6.51176C211.735 6.80814 212.35 7.32743 212.765 7.99518C213.179 8.66292 213.372 9.44484 213.315 10.2288C213.258 11.0128 212.954 11.7586 212.447 12.3593C215.468 11.0109 219.439 13.7077 219.337 17.0045L182.647 16.9034C182.917 16.4112 183.821 14.1729 186.005 14.0852Z" fill="white"/>
<path d="M186.005 14.0852C185.617 14.1314 185.238 14.2336 184.879 14.3886C183.877 14.9527 183.109 15.8566 182.715 16.9371L182.654 16.8292C189.221 16.8292 202.934 16.8292 219.344 16.8292L219.169 16.991C219.243 14.7594 217.261 12.6694 214.948 12.2716C214.132 12.1145 213.287 12.2036 212.521 12.5278L211.847 12.8312L212.339 12.2514C212.824 11.6796 213.116 10.9689 213.171 10.2212C213.227 9.47358 213.045 8.72745 212.65 8.09003C212.255 7.4526 211.669 6.95669 210.974 6.67351C210.28 6.39033 209.514 6.33446 208.786 6.51392L208.415 6.60831L208.591 6.27121C208.826 5.82852 208.972 5.34378 209.02 4.84467C209.069 4.34555 209.018 3.84184 208.871 3.36228C208.725 2.88272 208.485 2.43672 208.167 2.04973C207.848 1.66274 207.456 1.34234 207.013 1.10683C206.57 0.871323 206.086 0.725313 205.586 0.67714C205.087 0.628966 204.584 0.679572 204.104 0.826069C203.625 0.972565 203.179 1.21208 202.792 1.53095C202.405 1.84981 202.084 2.24177 201.849 2.68446L201.768 2.83278L201.626 2.7384C200.707 2.1467 199.638 1.83206 198.545 1.83206C197.452 1.83206 196.383 2.1467 195.464 2.7384C194.687 3.26658 194.051 3.97608 193.611 4.80547C193.17 5.63486 192.939 6.55913 192.936 7.49825V7.66006L192.781 7.60612C192.013 7.35866 191.2 7.28653 190.4 7.39505C189.601 7.50356 188.836 7.78995 188.162 8.23313C187.151 8.91075 186.411 9.92285 186.072 11.0917C185.856 11.8192 185.789 12.5829 185.877 13.3368C185.944 13.8425 186.032 14.1256 186.018 14.1122C185.921 13.8648 185.853 13.6068 185.816 13.3436C185.699 12.5804 185.748 11.801 185.958 11.058C186.28 9.847 187.027 8.79196 188.061 8.0848C188.758 7.61803 189.551 7.3149 190.381 7.19814C191.211 7.08138 192.057 7.15402 192.855 7.4106L192.707 7.51848C192.683 6.45027 192.953 5.39604 193.486 4.47035C194.02 3.54466 194.797 2.78293 195.733 2.26794C196.669 1.75294 197.729 1.50439 198.796 1.5493C199.864 1.59421 200.898 1.93086 201.788 2.52265L201.572 2.57659C201.79 2.04251 202.117 1.55983 202.532 1.1595C202.947 0.759178 203.442 0.450037 203.983 0.251907C204.525 0.053776 205.102 -0.0289732 205.678 0.00896522C206.253 0.0469036 206.814 0.204692 207.325 0.472213C207.836 0.739734 208.286 1.11108 208.645 1.56245C209.004 2.01382 209.265 2.53524 209.411 3.09329C209.556 3.65134 209.584 4.23369 209.491 4.803C209.399 5.37232 209.189 5.91604 208.874 6.3993L208.678 6.14985C209.481 5.94429 210.329 6.00065 211.098 6.31073C211.867 6.6208 212.516 7.16836 212.952 7.87358C213.388 8.57879 213.587 9.40477 213.52 10.2311C213.454 11.0574 213.125 11.8408 212.582 12.4671L212.38 12.1907C213.209 11.8404 214.125 11.7442 215.009 11.9143C216.243 12.1453 217.367 12.7726 218.211 13.7009C218.625 14.152 218.956 14.6723 219.189 15.2381C219.411 15.8003 219.523 16.3999 219.519 17.0045V17.1865H219.344C202.934 17.1326 189.221 17.0517 182.654 16.9775H182.54L182.587 16.8696C183.007 15.7772 183.81 14.8742 184.845 14.3279C185.118 14.2096 185.406 14.1324 185.702 14.0987L186.005 14.0852Z" fill="#263238"/>
<path d="M111.863 32.1133L108.452 33.2932C106.719 36.259 103.939 38.4693 100.659 39.4898C97.379 40.5103 93.836 40.2671 90.7262 38.808C87.6164 37.349 85.1648 34.7796 83.8532 31.6049C82.5416 28.4301 82.4648 24.8796 83.6379 21.6511C84.8111 18.4226 87.1493 15.7496 90.1931 14.1575C93.2369 12.5654 96.7661 12.1692 100.087 13.047C103.408 13.9247 106.281 16.0128 108.14 18.9009C110 21.7889 110.712 25.2681 110.137 28.6547L111.863 32.1133Z" fill="white"/>
<path d="M111.863 32.1133C111.863 32.1133 111.816 32.0324 111.742 31.8841C111.668 31.7358 111.54 31.5066 111.398 31.2099L110.09 28.6479H110.178C110.174 28.6523 110.169 28.6557 110.164 28.6581C110.159 28.6604 110.153 28.6616 110.147 28.6616C110.142 28.6616 110.136 28.6604 110.131 28.6581C110.125 28.6557 110.121 28.6523 110.117 28.6479C110.111 28.64 110.109 28.6306 110.109 28.621C110.109 28.6113 110.111 28.6019 110.117 28.594C110.48 26.3959 110.304 24.1425 109.605 22.0273C109.133 20.6455 108.45 19.3448 107.582 18.1709C105.477 15.3512 102.363 13.4548 98.8916 12.8784C96.9406 12.5319 94.937 12.624 93.026 13.1481C90.9954 13.7115 89.119 14.728 87.538 16.1213C85.8803 17.5854 84.6129 19.4389 83.8502 21.5149C83.455 22.5695 83.1857 23.667 83.0479 24.7848C83.0141 25.3376 82.967 25.8905 82.967 26.4433L83.0074 27.2658V27.6771L83.0748 28.0816C83.3593 30.2155 84.1322 32.255 85.3334 34.0415C86.4587 35.6964 87.9399 37.0785 89.6685 38.0868C91.2571 39.0274 93.0174 39.6416 94.8464 39.8936C96.4992 40.1148 98.1785 40.0326 99.8017 39.6509L100.907 39.334C101.271 39.2194 101.582 39.0643 101.952 38.9362C102.602 38.6689 103.229 38.3487 103.827 37.9789C105.72 36.8028 107.298 35.1829 108.425 33.2595L110.953 32.4032L111.627 32.1875L111.863 32.1133L111.654 32.1942L110.98 32.4302L108.465 33.3673C107.347 35.2902 105.775 36.9105 103.887 38.0868C103.287 38.4668 102.655 38.7961 102 39.0711C101.649 39.1992 101.325 39.361 100.948 39.4756L99.822 39.806C98.1714 40.2149 96.4598 40.3178 94.7722 40.1094C92.9146 39.8578 91.1252 39.2415 89.5067 38.2958C87.746 37.2748 86.2369 35.8717 85.0907 34.1899C83.8779 32.3938 83.0937 30.3432 82.7984 28.1962L82.7377 27.785V27.367L82.6973 26.531C82.6973 25.9714 82.7377 25.405 82.7782 24.8455C82.9141 23.707 83.1857 22.5889 83.5872 21.5149C84.3657 19.3882 85.6608 17.4883 87.356 15.9865C88.9673 14.5708 90.878 13.5382 92.9451 12.9661C94.8904 12.4396 96.9285 12.3521 98.9118 12.7099C100.746 13.0363 102.497 13.7238 104.063 14.7325C105.478 15.638 106.715 16.7968 107.71 18.1506C108.584 19.341 109.266 20.6603 109.733 22.061C110.434 24.2 110.593 26.4793 110.198 28.6951H110.104C110.113 28.6875 110.125 28.6833 110.137 28.6833C110.149 28.6833 110.161 28.6875 110.171 28.6951C110.717 29.8211 111.142 30.7177 111.432 31.2976L111.749 31.9718C111.789 32.0175 111.827 32.0647 111.863 32.1133Z" fill="#263238"/>
<path d="M90.5649 26.8883L92.2909 25.041L95.8372 27.9872L102.37 21.2587L104.083 22.9847L95.6956 31.4324L90.5649 26.8883Z" fill="#8ACEB2"/>
<path d="M207.134 140.734H114.303V299.542H207.134V140.734Z" fill="#455A64"/>
<path d="M104.426 97.5175C104.379 97.349 109.82 90.1687 109.82 90.1687L105.006 85.1324L99.6123 89.3866L104.426 97.5175Z" fill="#FFBF9D"/>
<path d="M192.228 60.9624L193.488 65.3582C193.488 65.3582 196.185 69.3629 197.142 69.8416C197.392 69.9697 197.635 70.1517 197.864 70.2394C198.72 70.5495 199.846 70.2394 199.617 69.2416C199.882 69.2718 200.15 69.2202 200.385 69.0936C200.62 68.9671 200.811 68.7717 200.931 68.5336C201.316 67.7785 200.48 66.8616 200.48 66.8616C200.48 66.8616 201.451 67.1111 201.889 66.4504C202.253 65.9043 201.741 65.1829 201.741 65.1829C201.741 65.1829 202.172 64.4412 201.956 64.03C201.639 63.5851 201.283 63.1699 200.891 62.7895C200.389 61.6239 199.8 60.4971 199.131 59.4185C198.553 58.6321 197.859 57.9368 197.075 57.3554L192.228 60.9624Z" fill="#FFBF9D"/>
<path d="M201.842 65.2772C201.842 65.2098 201.444 64.9469 201.006 64.5154C200.567 64.0839 200.291 63.6659 200.224 63.6996C200.341 64.0764 200.55 64.4179 200.833 64.6934C201.115 64.9689 201.462 65.1695 201.842 65.2772Z" fill="#FF9A6C"/>
<path d="M200.655 66.9897C200.655 66.9291 200.264 66.6863 199.832 66.3155C199.401 65.9447 199.111 65.5267 199.05 65.5672C198.99 65.6076 199.199 66.0728 199.664 66.4976C200.129 66.9223 200.621 67.0774 200.655 66.9897Z" fill="#FF9A6C"/>
<path d="M197.143 66.7942C197.288 67.3703 197.62 67.8823 198.086 68.2505C198.492 68.6724 198.984 69.0013 199.529 69.2146C199.129 68.806 198.704 68.4231 198.255 68.0684C197.567 67.4414 197.203 66.7672 197.143 66.7942Z" fill="#FF9A6C"/>
<path d="M25.2684 179.595C25.201 179.729 24.4189 181.213 24.6347 181.752C24.7204 181.921 24.8463 182.067 25.0015 182.176C25.1567 182.286 25.3363 182.355 25.5246 182.379C25.5686 182.804 25.7566 183.201 26.0573 183.505C26.4121 183.747 26.8348 183.87 27.2641 183.856L27.6281 184.287C27.7397 184.458 27.8963 184.595 28.0806 184.683C28.2649 184.771 28.4699 184.807 28.6731 184.786C29.0624 184.628 29.4913 184.595 29.9002 184.692C30.48 184.874 31.6936 183.458 32.3273 182.804C32.9611 182.15 33.824 181.28 33.3858 179.911C32.806 178.064 32.0374 175.677 32.0374 175.677L33.2645 172.192L27.2506 172.394L26.9876 173.911C26.9876 173.911 26.1584 174.309 25.5853 176.021C25.2377 177.178 25.1299 178.394 25.2684 179.595Z" fill="#AE7461"/>
<path d="M31.6938 175.806C31.6938 175.806 33.4197 179.777 33.4197 179.911C33.4197 180.046 31.7275 183.539 30.9252 184.071C30.1229 184.604 29.0711 185.197 29.0711 185.197C29.0711 185.197 28.1677 184.766 28.943 183.438C29.7184 182.109 30.6151 180.795 30.6151 180.795L30.042 179.446C30.042 179.446 27.0957 177.95 27.9048 175.003" fill="#AE7461"/>
<path d="M27.8711 174.983C27.83 175.105 27.7962 175.228 27.77 175.354C27.7358 175.505 27.7155 175.658 27.7093 175.812C27.6893 176.021 27.6893 176.231 27.7093 176.439C27.7864 177.007 27.9941 177.55 28.3161 178.024C28.7503 178.632 29.3116 179.138 29.9612 179.507L29.9207 179.46C30.1027 179.898 30.2848 180.356 30.487 180.808V180.721C30.069 181.327 29.6376 181.988 29.2128 182.682C28.978 183.037 28.7707 183.409 28.5925 183.795C28.5088 184.009 28.4721 184.239 28.4847 184.469C28.4904 184.724 28.5971 184.967 28.7813 185.143C28.8423 185.198 28.9077 185.248 28.9768 185.292H29.024H29.0712L30.0825 184.678L30.5814 184.375C30.7507 184.281 30.913 184.175 31.0669 184.058C31.3243 183.787 31.5505 183.489 31.7411 183.168C31.9366 182.865 32.1119 182.554 32.2872 182.251C32.6175 181.651 32.9209 181.064 33.1838 180.512C33.2445 180.37 33.3052 180.235 33.3726 180.1L33.4131 179.992C33.416 179.97 33.416 179.947 33.4131 179.925C33.4163 179.898 33.4163 179.871 33.4131 179.844L33.3389 179.628C33.231 179.365 33.1232 179.116 33.0288 178.873C32.6243 177.916 32.2804 177.147 32.0444 176.621L31.7613 176.015C31.7332 175.943 31.697 175.875 31.6534 175.812C31.6708 175.887 31.6957 175.959 31.7276 176.028C31.7882 176.197 31.8692 176.399 31.9703 176.655C32.1995 177.215 32.5096 178.004 32.8939 178.927C32.9883 179.17 33.0827 179.426 33.1906 179.689L33.2513 179.878H33.2985C33.2445 179.878 33.258 179.878 33.258 179.878L33.2176 179.972L33.0288 180.377C32.7591 180.923 32.4557 181.503 32.1186 182.103C31.9433 182.393 31.768 182.703 31.5725 182.999C31.3807 183.305 31.1545 183.588 30.8983 183.842C30.7516 183.956 30.596 184.057 30.4331 184.145L29.9409 184.442L28.9364 185.049H29.0375C28.9834 185.017 28.9335 184.979 28.8892 184.934C28.7621 184.786 28.6816 184.603 28.6576 184.408C28.6336 184.214 28.6673 184.017 28.7543 183.842C28.9254 183.468 29.1237 183.108 29.3476 182.763C29.7724 182.089 30.1971 181.415 30.6084 180.795V180.754V180.707C30.4129 180.228 30.2174 179.777 30.0353 179.359C29.4046 179.014 28.8569 178.535 28.4307 177.956C28.1073 177.506 27.8927 176.987 27.8037 176.439C27.7642 175.953 27.7868 175.464 27.8711 174.983Z" fill="#6F4439"/>
<path d="M45.7113 185.595L11.0103 184.911L10.5267 209.427L45.2278 210.111L45.7113 185.595Z" fill="#455A64"/>
<path d="M41.6986 185.635C41.638 185.757 41.5658 185.872 41.4829 185.979L40.8087 186.91C40.2154 187.712 39.3794 188.899 38.213 190.281C36.8385 191.878 35.2504 193.277 33.4936 194.441C31.3366 195.911 28.8242 196.775 26.219 196.942C23.594 196.973 21.0296 196.152 18.9107 194.602C17.1907 193.375 15.6637 191.898 14.38 190.22C13.2676 188.811 12.472 187.597 11.9259 186.755L11.2855 185.737C11.2088 185.625 11.1455 185.505 11.0967 185.379C11.1909 185.476 11.2745 185.582 11.3461 185.696L12.0203 186.64C12.5934 187.456 13.4227 188.663 14.5486 190.011C15.8439 191.643 17.3675 193.081 19.0725 194.279C21.1427 195.769 23.6344 196.56 26.1853 196.537C28.7274 196.368 31.1802 195.533 33.2981 194.117C35.0447 192.985 36.632 191.625 38.0175 190.072C39.2041 188.723 40.0401 187.577 40.7143 186.802L41.4424 185.905C41.5179 185.806 41.6038 185.716 41.6986 185.635Z" fill="#263238"/>
<path d="M19.4302 187.26C19.4302 187.085 20.6774 181.402 23.199 179.123C24.5878 177.869 27.5341 176.743 30.6152 180.795L29.5499 182.298C29.5499 182.298 26.3475 177.896 24.5204 180.087C23.5293 181.273 21.7562 183.997 21.6348 186.768L19.4302 187.26Z" fill="#455A64"/>
<path d="M29.4755 182.366C29.67 182.168 29.8316 181.94 29.9542 181.691C30.0273 181.568 30.0703 181.429 30.0796 181.287C30.089 181.144 30.0645 181.001 30.0082 180.869C29.9412 180.772 29.85 180.694 29.7435 180.643C29.637 180.592 29.519 180.57 29.4014 180.579C29.1643 180.604 28.9418 180.706 28.7676 180.869C28.5976 181.034 28.4461 181.217 28.3159 181.415" fill="#AE7461"/>
<path d="M28.3161 181.375C28.2824 181.375 28.3161 181.139 28.5723 180.849C28.7122 180.669 28.8954 180.527 29.1049 180.437C29.246 180.377 29.4006 180.354 29.5533 180.372C29.7059 180.389 29.8512 180.447 29.9746 180.539C30.096 180.639 30.1841 180.774 30.2274 180.926C30.2707 181.077 30.2672 181.238 30.2173 181.388C30.1568 181.597 30.0586 181.794 29.9274 181.968C29.7049 182.265 29.5094 182.379 29.4757 182.345C29.442 182.312 29.5633 182.136 29.7117 181.84C29.7991 181.674 29.8648 181.497 29.9072 181.314C29.9316 181.225 29.9306 181.131 29.9044 181.043C29.8782 180.955 29.8277 180.876 29.7589 180.815C29.4285 180.566 28.9835 180.815 28.7543 181.017C28.5251 181.219 28.3633 181.408 28.3161 181.375Z" fill="#6F4439"/>
<path d="M27.082 179.763C27.1964 179.589 27.3474 179.443 27.5244 179.333C27.7014 179.224 27.9002 179.154 28.1068 179.129C28.3104 179.095 28.5196 179.129 28.7023 179.225C28.8849 179.321 29.031 179.475 29.1181 179.662C29.1421 179.823 29.1329 179.988 29.0912 180.145C29.0495 180.303 28.976 180.451 28.8754 180.579C28.39 181.39 27.8375 182.159 27.2236 182.878" fill="#AE7461"/>
<path d="M27.2236 182.878C27.1427 182.817 28.0394 181.712 28.8619 180.235C28.9124 180.172 28.9486 180.098 28.9679 180.02C28.9872 179.941 28.9893 179.859 28.9739 179.78C28.9585 179.7 28.9261 179.625 28.8788 179.559C28.8315 179.494 28.7706 179.439 28.7001 179.399C28.5713 179.329 28.4297 179.286 28.2837 179.272C28.1376 179.258 27.9903 179.274 27.8506 179.318C27.3517 179.48 27.1764 179.804 27.1023 179.763C27.0281 179.723 27.1899 179.352 27.7765 179.089C27.9488 179.015 28.1354 178.979 28.3229 178.985C28.5105 178.991 28.6945 179.038 28.8619 179.123C28.9721 179.175 29.07 179.25 29.149 179.343C29.228 179.436 29.2864 179.545 29.3204 179.662C29.37 179.911 29.3294 180.169 29.2058 180.39C28.7295 181.351 28.0538 182.199 27.2236 182.878Z" fill="#6F4439"/>
<path d="M25.3765 179.527C25.5238 179.198 25.7566 178.914 26.0507 178.705C26.1804 178.611 26.3291 178.547 26.4864 178.516C26.6436 178.486 26.8055 178.491 26.9608 178.529C27.1115 178.574 27.2459 178.662 27.3477 178.781C27.4495 178.901 27.5142 179.048 27.5339 179.204C27.5149 179.48 27.4113 179.743 27.2373 179.959C26.7653 180.68 26.2462 181.584 25.7001 182.251" fill="#AE7461"/>
<path d="M25.6664 182.278C25.6259 182.244 25.8282 181.941 26.1316 181.428C26.3069 181.132 26.4822 180.835 26.6642 180.538C26.8889 180.194 27.0959 179.839 27.2845 179.473C27.3115 179.394 27.3222 179.311 27.3159 179.228C27.3097 179.145 27.2866 179.064 27.2481 178.991C27.2097 178.917 27.1566 178.852 27.0921 178.799C27.0277 178.746 26.9532 178.707 26.8732 178.684C26.7266 178.646 26.5732 178.642 26.4247 178.673C26.2763 178.703 26.1368 178.767 26.017 178.86C25.5787 179.204 25.4237 179.534 25.3428 179.534C25.2619 179.534 25.3428 179.123 25.8282 178.671C25.9731 178.536 26.1494 178.438 26.3412 178.388C26.5329 178.337 26.7343 178.335 26.9271 178.381C27.1678 178.447 27.3749 178.601 27.5069 178.812C27.5788 178.928 27.6229 179.059 27.6358 179.195C27.6486 179.33 27.6299 179.467 27.5811 179.595C27.4931 179.813 27.3775 180.019 27.2373 180.208L26.9002 180.72C26.6844 181.044 26.4822 181.341 26.3001 181.577C26.0035 182.049 25.7001 182.305 25.6664 182.278Z" fill="#6F4439"/>
<path d="M28.3634 196.922C28.3634 197.253 28.2651 197.578 28.0809 197.854C27.8968 198.129 27.635 198.345 27.3286 198.472C27.0222 198.599 26.685 198.633 26.3596 198.569C26.0341 198.504 25.735 198.345 25.4999 198.111C25.2649 197.877 25.1045 197.578 25.0389 197.253C24.9734 196.928 25.0057 196.591 25.1317 196.284C25.2577 195.977 25.4719 195.714 25.7471 195.529C26.0222 195.344 26.3461 195.244 26.6779 195.243C26.8989 195.242 27.1179 195.285 27.3224 195.369C27.5268 195.453 27.7127 195.576 27.8693 195.732C28.0259 195.888 28.1502 196.073 28.2349 196.278C28.3197 196.482 28.3634 196.701 28.3634 196.922Z" fill="#263238"/>
<path d="M56.3425 124.728C56.3425 124.728 50.2747 126.65 48.2521 128.652C42.8585 133.823 34.9029 142.082 32.6309 145.696C31.215 147.954 26.4282 172.664 26.4282 172.664L37.1143 173.176L42.4203 148.265L51.5152 139.17L56.3425 124.728Z" fill="#E0E0E0"/>
<path d="M104.029 184.483L110.629 190.416L111.667 191.049C111.667 191.049 118.854 180.983 121.012 181.388L115.423 203.637L113.636 203.117L101.642 195.31L104.029 184.483Z" fill="#263238"/>
<path d="M108.998 198.081C109.009 198.311 109.104 198.529 109.266 198.693C109.428 198.858 109.644 198.956 109.874 198.971C110.104 198.968 110.325 198.877 110.49 198.716C110.656 198.556 110.754 198.338 110.764 198.108C110.752 197.863 110.65 197.632 110.477 197.458C110.303 197.285 110.072 197.183 109.827 197.171C109.587 197.198 109.367 197.318 109.214 197.504C109.06 197.69 108.985 197.928 109.004 198.169" fill="#E0E0E0"/>
<path d="M115.543 203.684L113.757 203.171L119.784 182.008C119.784 182.008 120.458 181.125 121.133 181.415L115.543 203.684Z" fill="#263238"/>
<path d="M111.667 191.049C111.775 191.049 111.667 191.636 111.903 192.256C112.139 192.876 112.503 193.281 112.436 193.369C112.368 193.456 111.762 193.139 111.532 192.377C111.303 191.616 111.573 190.995 111.667 191.049Z" fill="#455A64"/>
<path d="M113.218 188.952C113.333 188.952 113.394 189.472 113.764 189.957C114.135 190.442 114.594 190.672 114.56 190.78C114.526 190.887 113.886 190.78 113.447 190.186C113.009 189.593 113.117 188.932 113.218 188.952Z" fill="#455A64"/>
<path d="M116.346 188.325C116.346 188.433 115.766 188.447 115.24 188.022C114.715 187.597 114.566 187.024 114.708 186.997C114.849 186.97 115.045 187.368 115.483 187.719C115.921 188.069 116.346 188.218 116.346 188.325Z" fill="#455A64"/>
<path d="M108.991 190.584C109.078 190.651 108.802 191.117 108.694 191.744C108.586 192.371 108.654 192.897 108.546 192.93C108.438 192.964 108.168 192.404 108.31 191.669C108.451 190.935 108.93 190.51 108.991 190.584Z" fill="#263238"/>
<path d="M76.2381 96.0679C76.6048 95.7497 77.0614 95.5534 77.5446 95.5063C78.0278 95.4592 78.5137 95.5636 78.9349 95.805C79.6185 95.6048 80.3493 95.6388 81.0113 95.9014C81.6733 96.164 82.2286 96.6402 82.5891 97.2545C83.0727 97.168 83.5705 97.2086 84.0338 97.3722C84.497 97.5358 84.9099 97.8169 85.232 98.1879C85.5541 98.5589 85.7743 99.0071 85.8712 99.4888C85.9681 99.9704 85.9384 100.469 85.7848 100.936C86.2727 101.036 86.7167 101.286 87.0542 101.653C87.3916 102.019 87.6052 102.482 87.6649 102.976C87.7245 103.471 87.6272 103.971 87.3866 104.407C87.1459 104.843 86.7743 105.193 86.3242 105.406C86.7751 105.755 87.0786 106.261 87.1748 106.823C87.2711 107.385 87.1529 107.963 86.8438 108.442C86.5347 108.921 86.0571 109.267 85.5052 109.412C84.9534 109.556 84.3676 109.488 83.8634 109.222L75.7123 98.7108C75.5148 98.2702 75.4593 97.779 75.5535 97.3054C75.6477 96.8319 75.887 96.3994 76.2381 96.0679Z" fill="#263238"/>
<path d="M84.0591 109.181C84.7257 106.843 84.4882 104.34 83.394 102.169C82.2998 99.9983 80.4289 98.3185 78.1531 97.4636L77.6812 97.2883C72.5101 95.6837 68.2424 99.1828 66.8063 104.394L61.1768 122.517L65.1073 132.475L71.519 129.306L73.3663 124.796C73.3663 124.796 78.5104 125.868 80.3982 121.027C81.2881 118.654 82.7647 113.692 84.0591 109.181Z" fill="#AE7461"/>
<path d="M73.3396 125.2C71.0979 124.351 69.1466 122.877 67.7168 120.953C67.7168 120.953 67.8921 124.998 72.8542 126.4L73.3396 125.2Z" fill="#6F4439"/>
<path d="M80.9574 113.597C80.8917 113.779 80.7577 113.928 80.5839 114.012C80.4102 114.096 80.2104 114.11 80.027 114.049C79.8438 113.994 79.6897 113.869 79.5987 113.701C79.5077 113.533 79.4871 113.335 79.5416 113.152C79.6087 112.97 79.744 112.821 79.9188 112.737C80.0937 112.653 80.2944 112.639 80.4787 112.7C80.5726 112.722 80.6607 112.764 80.7371 112.822C80.8136 112.881 80.8766 112.955 80.922 113.04C80.9674 113.125 80.994 113.219 81.0001 113.315C81.0062 113.411 80.9916 113.507 80.9574 113.597Z" fill="#263238"/>
<path d="M82.0766 111.871C81.962 111.925 81.5777 111.339 80.8293 111.062C80.0809 110.786 79.3933 110.954 79.3528 110.833C79.3124 110.712 79.4742 110.644 79.7775 110.563C80.184 110.456 80.614 110.482 81.0046 110.637C81.3955 110.778 81.7294 111.044 81.9552 111.392C82.1238 111.649 82.1373 111.844 82.0766 111.871Z" fill="#263238"/>
<path d="M74.4379 111.507C74.3708 111.689 74.2355 111.838 74.0607 111.922C73.8858 112.007 73.6851 112.02 73.5008 111.959C73.4069 111.937 73.3188 111.896 73.2423 111.837C73.1659 111.779 73.1028 111.704 73.0575 111.619C73.0121 111.534 72.9855 111.441 72.9794 111.345C72.9733 111.248 72.9878 111.152 73.0221 111.062C73.0878 110.881 73.2218 110.732 73.3955 110.647C73.5693 110.563 73.7691 110.55 73.9525 110.61C74.1357 110.665 74.2897 110.79 74.3808 110.958C74.4718 111.126 74.4923 111.324 74.4379 111.507Z" fill="#263238"/>
<path d="M74.9708 109.087C74.8494 109.141 74.4719 108.554 73.7235 108.278C72.9751 108.001 72.2875 108.17 72.2403 108.048C72.1931 107.927 72.3616 107.86 72.6718 107.779C73.0753 107.675 73.501 107.698 73.8908 107.845C74.2806 107.993 74.6154 108.257 74.8494 108.601C75.0112 108.878 75.0315 109.06 74.9708 109.087Z" fill="#263238"/>
<path d="M72.6243 116.031C72.7524 116.031 72.9345 116.705 73.5547 117.191C74.175 117.676 74.9031 117.743 74.9031 117.865C74.9031 117.986 74.7279 118.006 74.411 117.986C73.992 117.955 73.5924 117.798 73.2648 117.534C72.9368 117.276 72.7005 116.919 72.5906 116.516C72.5232 116.227 72.5637 116.038 72.6243 116.031Z" fill="#263238"/>
<path d="M75.3545 115.546C75.7946 115.566 76.23 115.645 76.649 115.782C76.8512 115.835 77.04 115.862 77.1276 115.741C77.2146 115.551 77.2427 115.34 77.2085 115.134C77.2085 114.602 77.2085 114.049 77.2085 113.469C77.1472 112.042 77.2013 110.613 77.3704 109.195C77.5441 110.612 77.605 112.042 77.5524 113.469C77.5524 114.049 77.5524 114.602 77.5524 115.134C77.5893 115.408 77.5245 115.687 77.3704 115.916C77.3185 115.974 77.2535 116.019 77.1808 116.048C77.1082 116.076 77.0299 116.086 76.9524 116.078C76.8374 116.067 76.7241 116.043 76.6153 116.004C76.1776 115.904 75.754 115.75 75.3545 115.546Z" fill="#263238"/>
<path d="M75.773 105.884C75.6853 106.093 74.9909 105.931 74.1549 105.979C73.3189 106.026 72.6312 106.221 72.5368 106.019C72.4964 105.925 72.6312 105.729 72.9144 105.54C73.2854 105.315 73.7076 105.187 74.1414 105.17C74.5694 105.147 74.9955 105.241 75.3752 105.439C75.6719 105.601 75.8067 105.783 75.773 105.884Z" fill="#263238"/>
<path d="M82.6765 109.754C82.4945 109.896 82.0023 109.559 81.3821 109.37C80.7618 109.181 80.1752 109.154 80.1011 108.938C80.1011 108.837 80.2089 108.682 80.4921 108.588C80.866 108.48 81.2636 108.487 81.6337 108.607C82.0038 108.727 82.3294 108.955 82.5686 109.262C82.7372 109.491 82.7642 109.687 82.6765 109.754Z" fill="#263238"/>
<path d="M84.4225 107.213C84.4225 107.213 84.2809 103.686 83.0741 102.426C81.6178 100.895 80.1211 102.561 78.6109 101.455C77.1007 100.349 75.7051 98.8794 73.4803 99.5401C71.0531 100.261 71.5588 101.603 70.6351 103.713C66.8798 112.282 64.3516 114.157 65.4438 109.869C65.5651 109.397 64.446 108.568 64.9786 106.592C65.6528 104.03 66.6911 100.99 67.9046 99.4457C68.9227 98.1378 70.1497 97.4231 72.0847 96.877C75.1388 95.9938 78.4356 97.1804 80.5728 98.2254C82.7101 99.2704 86.0541 103.484 84.4225 107.213Z" fill="#263238"/>
<path d="M65.8151 109.849C65.8761 109.668 65.8998 109.477 65.8846 109.287C65.8695 109.097 65.8158 108.913 65.7268 108.744C65.6379 108.576 65.5155 108.427 65.3672 108.308C65.219 108.188 65.0479 108.1 64.8645 108.048C63.9273 107.792 62.7205 107.927 62.08 109.822C60.9406 113.193 64.5543 113.638 64.588 113.543C64.6217 113.449 65.3499 111.264 65.8151 109.849Z" fill="#AE7461"/>
<path d="M64.2846 112.033C64.2846 112.033 64.2172 112.033 64.1026 112.033C63.9421 112.04 63.7843 111.99 63.6576 111.891C63.4875 111.679 63.3766 111.426 63.3363 111.157C63.2961 110.888 63.3278 110.614 63.4284 110.361C63.5156 110.068 63.6703 109.801 63.8801 109.579C63.9477 109.485 64.0368 109.408 64.14 109.355C64.2432 109.303 64.3575 109.275 64.4734 109.276C64.5472 109.281 64.6166 109.313 64.6695 109.365C64.7225 109.416 64.7556 109.485 64.7633 109.559C64.7633 109.667 64.7633 109.727 64.7633 109.741C64.7633 109.754 64.8509 109.707 64.8712 109.559C64.8823 109.469 64.8608 109.378 64.8105 109.302C64.7768 109.252 64.7332 109.208 64.6822 109.174C64.6312 109.141 64.5739 109.118 64.5138 109.107C64.3668 109.088 64.2174 109.106 64.0794 109.16C63.9415 109.215 63.8195 109.303 63.725 109.417C63.4854 109.662 63.3075 109.96 63.2059 110.287C63.0879 110.581 63.0595 110.904 63.1243 111.215C63.189 111.526 63.3441 111.81 63.5699 112.033C63.6516 112.089 63.7447 112.127 63.8426 112.143C63.9405 112.16 64.0407 112.154 64.1363 112.127C64.2509 112.107 64.2981 112.04 64.2846 112.033Z" fill="#6F4439"/>
<path d="M68.2893 103.437C68.5758 103.92 68.9762 104.325 69.4557 104.617C69.7004 104.753 69.9861 104.796 70.26 104.737C70.5339 104.679 70.7774 104.524 70.9457 104.3C71.0738 104.084 71.1142 103.794 71.3367 103.673C71.5592 103.552 71.903 103.72 72.1727 103.855C72.6417 104.078 73.1733 104.133 73.678 104.01C74.1828 103.888 74.6298 103.595 74.9437 103.181C75.0327 103.4 75.1998 103.579 75.4127 103.682C75.6256 103.785 75.8692 103.806 76.0966 103.74C76.5464 103.592 76.973 103.381 77.364 103.113C77.5607 102.983 77.7861 102.902 78.0209 102.877C78.2557 102.852 78.4929 102.885 78.7124 102.972C78.9484 103.1 79.1237 103.329 79.3866 103.403C79.8384 103.525 80.2429 103.093 80.4721 102.689C80.7013 102.284 80.9373 101.792 81.3958 101.698C81.8542 101.603 82.2183 101.9 82.5958 102.109C82.9734 102.318 83.533 102.419 83.7824 102.062C83.8408 101.96 83.8776 101.848 83.8903 101.732C83.9031 101.616 83.8916 101.499 83.8566 101.387C83.7394 100.883 83.4551 100.434 83.0499 100.112C82.6447 99.7898 82.1425 99.6145 81.625 99.6142C81.6696 98.999 81.5306 98.3844 81.2255 97.8483C80.9204 97.3122 80.463 96.8788 79.9113 96.6029C79.3596 96.3271 78.7385 96.2212 78.1265 96.2988C77.5146 96.3764 76.9395 96.634 76.4741 97.0388C76.2393 96.5878 75.8991 96.2 75.4825 95.9085C75.0659 95.6169 74.5851 95.4301 74.0809 95.364C73.5768 95.2978 73.0641 95.3542 72.5864 95.5284C72.1086 95.7026 71.68 95.9894 71.3367 96.3646C70.9699 96.1042 70.5346 95.9575 70.0851 95.9427C69.6355 95.928 69.1915 96.0458 68.8084 96.2815C68.4253 96.5173 68.1201 96.8605 67.9307 97.2685C67.7413 97.6765 67.6761 98.1312 67.7432 98.576C67.3769 98.6147 67.0265 98.7458 66.7246 98.9568C66.4228 99.1679 66.1794 99.4521 66.0173 99.7828C65.9491 99.9497 65.918 100.129 65.926 100.309C65.934 100.49 65.981 100.666 66.0637 100.826C66.1463 100.986 66.2627 101.127 66.4049 101.237C66.547 101.348 66.7115 101.427 66.887 101.468C66.6402 101.686 66.4877 101.991 66.4615 102.318C66.4354 102.646 66.5377 102.971 66.7469 103.225C66.9561 103.479 67.2557 103.642 67.5825 103.679C67.9093 103.716 68.2377 103.624 68.4983 103.423" fill="#263238"/>
<path d="M66.6512 101.347C66.5925 101.457 66.559 101.579 66.5532 101.704C66.5473 101.829 66.5693 101.953 66.6175 102.068C66.6989 102.351 66.8844 102.592 67.1366 102.743C67.2944 102.831 67.4696 102.885 67.6502 102.899C67.8307 102.913 68.0121 102.887 68.1816 102.823L68.0535 102.749C68.1105 103.126 68.2289 103.49 68.4041 103.828C68.5199 104.056 68.6778 104.259 68.8693 104.428C69.1213 104.635 69.4315 104.757 69.7567 104.779C70.0818 104.801 70.4057 104.721 70.6829 104.549C70.8943 104.389 71.0728 104.19 71.2088 103.963C71.2645 103.882 71.3077 103.793 71.3369 103.7C71.3369 103.7 71.256 103.774 71.1414 103.916C70.9881 104.112 70.8063 104.285 70.602 104.428C70.4269 104.526 70.2333 104.586 70.0335 104.605C69.8337 104.624 69.6323 104.601 69.4419 104.537C69.2516 104.474 69.0766 104.371 68.9281 104.237C68.7795 104.102 68.6608 103.937 68.5794 103.754C68.4141 103.436 68.2982 103.095 68.2356 102.743V102.621L68.121 102.668C67.9772 102.727 67.8223 102.753 67.6674 102.745C67.5124 102.736 67.3611 102.694 67.2243 102.621C67.0039 102.506 66.8335 102.314 66.7456 102.082C66.6565 101.848 66.6241 101.596 66.6512 101.347Z" fill="#455A64"/>
<path d="M75.7798 96.1152C75.7798 96.1152 75.8539 96.1691 75.982 96.2904C76.1597 96.4619 76.2818 96.6826 76.3326 96.9242V96.9984L76.4 96.9579C77.0316 96.5613 77.7525 96.3295 78.4968 96.2837C78.9777 96.2527 79.4597 96.3216 79.9126 96.486C80.411 96.6732 80.8475 96.9954 81.1734 97.4164C81.43 97.7447 81.6139 98.1239 81.7127 98.5288C81.8039 98.9031 81.8039 99.2939 81.7127 99.6682V99.7761H81.8206C82.3402 99.8186 82.8232 100.06 83.169 100.45C83.431 100.758 83.5891 101.14 83.6207 101.542C83.6403 101.905 83.5852 102.267 83.4589 102.608C83.5204 102.531 83.5682 102.444 83.6005 102.352C83.7011 102.092 83.7471 101.814 83.7353 101.536C83.718 101.103 83.562 100.687 83.2904 100.349C82.9361 99.9154 82.4248 99.6391 81.8678 99.5805L81.9487 99.6952C82.05 99.2901 82.05 98.8664 81.9487 98.4614C81.8428 98.0301 81.6475 97.6259 81.3756 97.2748C81.0275 96.8251 80.5604 96.4818 80.0272 96.2837C79.5465 96.109 79.0332 96.0422 78.5238 96.0882C77.7518 96.1514 77.0112 96.4216 76.3798 96.8703H76.4675C76.4073 96.6035 76.2574 96.3655 76.0427 96.1961C75.9633 96.1474 75.8728 96.1195 75.7798 96.1152Z" fill="#455A64"/>
<path d="M62.1404 251.505L62.9158 263.512C62.9158 263.512 72.4557 273.963 71.7141 276.147L49.3711 266.985L50.1801 265.205L52.3578 260.431L50.3352 251.795L62.1404 251.505Z" fill="#263238"/>
<path d="M54.7377 261.692C54.4966 261.669 54.2556 261.736 54.0613 261.881C53.867 262.025 53.7332 262.237 53.6859 262.474C53.657 262.638 53.6745 262.806 53.7364 262.96C53.7983 263.115 53.9022 263.248 54.0362 263.347C54.1702 263.445 54.329 263.503 54.4947 263.516C54.6604 263.529 54.8263 263.495 54.9736 263.418C55.1095 263.345 55.2259 263.241 55.3129 263.114C55.3999 262.987 55.455 262.841 55.4735 262.688C55.4921 262.536 55.4735 262.38 55.4193 262.236C55.3651 262.092 55.277 261.963 55.1624 261.861C55.0917 261.799 55.0094 261.751 54.9203 261.721C54.8312 261.691 54.7371 261.679 54.6433 261.685" fill="#E0E0E0"/>
<path d="M49.3711 266.984L50.1801 265.205L71.2961 274.643C71.2961 274.643 72.1119 275.479 71.7141 276.133L49.3711 266.984Z" fill="#263238"/>
<path d="M63.934 264.854C63.8801 264.962 63.3138 264.793 62.6396 264.921C61.9654 265.05 61.48 265.393 61.399 265.306C61.3181 265.218 61.7361 264.632 62.5654 264.517C63.3947 264.402 63.9947 264.766 63.934 264.854Z" fill="#455A64"/>
<path d="M65.6124 266.708C65.6124 266.823 65.0461 266.816 64.4865 267.126C63.9269 267.436 63.6168 267.881 63.5156 267.8C63.4145 267.719 63.5898 267.126 64.291 266.735C64.9921 266.344 65.6529 266.641 65.6124 266.708Z" fill="#455A64"/>
<path d="M65.5251 270.059C65.4172 270.059 65.4846 269.432 66.0105 268.946C66.5364 268.461 67.1432 268.441 67.1566 268.549C67.1701 268.656 66.7184 268.845 66.2937 269.223C65.8689 269.6 65.6397 270.093 65.5251 270.059Z" fill="#455A64"/>
<path d="M62.8145 261.773C62.7673 261.881 62.2212 261.732 61.5537 261.773C60.8863 261.813 60.3739 262.056 60.3132 261.962C60.2525 261.867 60.738 261.429 61.52 261.362C62.3021 261.294 62.8684 261.679 62.8145 261.773Z" fill="#455A64"/>
<path d="M34.1881 166.508C32.8088 168.772 31.841 171.263 31.3295 173.864C30.6727 177.336 30.8858 180.917 31.9498 184.287C32.833 186.889 45.1641 220.337 45.1641 220.337L46.5732 237.899L50.8341 259.939L64.1833 259.265C64.1833 259.265 62.9495 224.557 62.4169 219.487C61.8371 213.986 54.3669 180.181 54.3669 180.181L59.2414 168.012L36.568 160.447L34.1881 166.508Z" fill="#263238"/>
<path d="M71.5459 274.981C71.5054 275.068 66.6916 272.958 60.7587 270.261C54.8257 267.564 50.1063 265.299 50.1467 265.211C50.1872 265.124 55.001 267.234 60.9339 269.931C66.8669 272.628 71.5863 274.893 71.5459 274.981Z" fill="#455A64"/>
<path d="M64.1836 259.312C61.9714 259.595 59.7456 259.759 57.5158 259.804C55.2926 259.967 53.0624 260.012 50.8345 259.939C53.047 259.66 55.2727 259.498 57.5023 259.454C59.7255 259.291 61.9556 259.244 64.1836 259.312Z" fill="#455A64"/>
<path d="M74.2498 126.407L73.4947 124.701C68.4921 122.618 64.8379 120.535 61.7905 120.589L59.4376 122.888C56.7408 124.6 51.3472 127.229 49.9179 129.245L43.3107 142.015L34.182 163.414C33.3393 164.722 31.5392 166.657 33.5415 168.585L51.745 170.608L58.2173 170.722C59.5657 170.547 63.0108 171.524 63.4221 169.374C64.157 165.585 76.151 140.12 77.014 136.79L76.6364 131.308L74.2498 126.407Z" fill="#E0E0E0"/>
<path d="M76.4944 136.729C75.146 140.322 74.1819 145.878 69.1254 149.215C66.3275 151.056 62.2148 152.168 59.0124 153.179C55.2301 154.38 50.2006 155.91 50.2006 155.91L47.0049 161.762L52.6884 162.504C52.6884 162.504 59.3765 160.373 62.0126 159.274C67.6893 156.915 65.7409 157.683 67.7028 156.362C70.5142 154.609 74.3504 149.444 77.1416 136.385" fill="#8ACEB2"/>
<path d="M63.0847 127.135C62.4938 127.175 61.9005 127.164 61.3116 127.101C60.2261 127.054 58.7226 127 57.0708 127.101C55.659 127.165 54.2545 127.341 52.8706 127.627C52.3058 127.79 51.7317 127.918 51.1514 128.012C51.1514 128.012 51.2929 127.917 51.5761 127.796C51.9799 127.637 52.3917 127.5 52.8099 127.385C54.1974 127.025 55.6187 126.813 57.0506 126.751C58.4785 126.682 59.9096 126.721 61.3318 126.865C61.9241 126.892 62.5118 126.982 63.0847 127.135Z" fill="#263238"/>
<path d="M72.5235 124.384C71.8646 124.336 71.2107 124.235 70.5683 124.081C69.3682 123.858 67.7097 123.562 65.8489 123.333C64.2834 123.138 62.707 123.046 61.1295 123.056C59.9159 123.056 59.1676 123.164 59.1608 123.11C59.1541 123.056 59.3361 123.043 59.68 122.975C60.1576 122.896 60.6393 122.842 61.1227 122.813C62.7201 122.721 64.3227 122.777 65.9096 122.982C67.4973 123.18 69.0728 123.466 70.629 123.838C71.2769 123.958 71.9114 124.141 72.5235 124.384Z" fill="#263238"/>
<path d="M49.9176 129.239C49.8735 129.381 49.8148 129.519 49.7423 129.65L49.1693 130.803C48.6569 131.841 47.9557 133.284 47.0927 135.043C45.3533 138.637 43.0475 143.64 40.4519 149.148C39.1507 151.905 37.8899 154.541 36.7033 156.874C36.1033 158.054 35.5369 159.173 34.9774 160.205C34.4178 161.236 33.8784 162.187 33.4739 163.09C33.1036 163.893 32.8581 164.748 32.7458 165.625C32.6645 166.29 32.708 166.965 32.8739 167.614C33.0257 168.166 33.2746 168.686 33.6087 169.151C33.4959 169.052 33.3962 168.939 33.3121 168.814C33.054 168.463 32.8621 168.068 32.7458 167.648C32.553 166.992 32.4867 166.306 32.5502 165.625C32.6502 164.72 32.8961 163.836 33.2784 163.009C33.6761 162.086 34.2155 161.128 34.7481 160.09C35.2807 159.052 35.8538 157.933 36.4404 156.753C37.6135 154.386 38.8607 151.77 40.162 149.02C42.7509 143.511 45.0971 138.522 46.904 134.956C47.7939 133.169 48.549 131.74 49.0816 130.762L49.7086 129.636C49.7636 129.497 49.8337 129.363 49.9176 129.239Z" fill="#455A64"/>
<path d="M44.8003 191.764C45.7442 192.061 77.4316 179.763 77.4316 179.763L104.298 200.191L106.26 200.98L110.636 188.845C110.636 188.845 91.8325 170.23 85.4546 164.162C83.7691 162.564 80.5127 160.933 77.6338 161.344C70.9525 162.308 45.5756 170.783 45.5756 170.783L44.8003 191.764Z" fill="#263238"/>
<path opacity="0.3" d="M46.3574 188.953C48.4744 190.338 50.954 191.065 53.4837 191.043L56.6659 190.719L56.0457 187.854C56.0457 187.854 48.4744 189.296 46.3574 188.953Z" fill="black"/>
<path d="M61.163 186.155C60.9716 186.285 60.7628 186.387 60.5427 186.458C60.1449 186.633 59.5516 186.863 58.81 187.132C56.882 187.837 54.9001 188.385 52.8838 188.77C50.8625 189.171 48.7952 189.287 46.7418 189.114C46.3508 189.081 45.9935 189.027 45.6833 188.973C45.3732 188.919 45.1103 188.872 44.9013 188.818C44.6682 188.782 44.4413 188.714 44.2271 188.615C44.2271 188.555 45.1912 188.771 46.7486 188.865C48.7814 188.962 50.8186 188.815 52.8164 188.427C54.8134 188.036 56.7855 187.527 58.7224 186.903C60.2258 186.411 61.1427 186.107 61.163 186.155Z" fill="#455A64"/>
<path d="M77.9167 175.158C77.8988 175.923 77.8403 176.686 77.7414 177.444C77.674 178.698 77.7886 179.723 77.6875 179.736C77.2134 178.232 77.2947 176.608 77.9167 175.158Z" fill="#455A64"/>
<path d="M96.2553 99.8367L92.0415 106.363L100.334 109.741L103.847 100.43L98.6487 98.5153L96.2553 99.8367Z" fill="#AE7461"/>
<path d="M92.7088 94.288C92.5022 93.9161 92.449 93.4782 92.5605 93.0677C92.8048 92.5332 93.1806 92.0693 93.6527 91.7193C93.6527 91.7193 93.9898 93.7419 93.9359 93.8026L92.7088 94.288Z" fill="#AE7461"/>
<path d="M96.5047 101.178L93.4775 96.2365L93.6596 92.1913C93.6596 92.1913 93.4978 89.1574 94.954 88.6585C94.954 88.6585 95.8305 88.1933 96.3833 88.7933C96.3833 88.7933 96.5452 88.0315 97.6913 88.0787L98.4936 88.5169C98.4936 88.5169 99.0262 87.8427 99.5858 87.8427C100.042 87.9244 100.463 88.1431 100.793 88.4697C100.793 88.4697 101.083 87.8764 101.959 88.1326C102.835 88.3888 103.766 90.0136 103.982 90.5732C104.53 92.6259 104.869 94.7289 104.993 96.85C104.905 98.0164 103.644 100.895 103.644 100.895L96.5047 101.178Z" fill="#AE7461"/>
<path d="M93.9155 92.5015C93.9155 92.5015 92.4727 93.8499 92.1626 94.2476C91.8833 94.8583 91.6445 95.4866 91.4479 96.1287C91.2254 96.5804 90.5715 97.1265 91.1176 97.4771C91.3895 97.6252 91.7041 97.6753 92.0086 97.6188C92.3131 97.5623 92.5889 97.4028 92.7896 97.1669C93.4208 96.1491 93.9882 95.0931 94.4886 94.0049L93.9155 92.5015Z" fill="#FFBF9D"/>
<path d="M92.0753 97.1601C91.7193 97.7156 91.5958 98.3887 91.7315 99.0344C91.8093 99.3262 91.9867 99.5817 92.2329 99.7565C92.4791 99.9313 92.7788 100.015 93.0799 99.9918C93.0697 100.178 93.1024 100.364 93.1756 100.535C93.2487 100.706 93.3604 100.859 93.5018 100.98C93.6433 101.101 93.8108 101.188 93.9914 101.234C94.1719 101.28 94.3606 101.284 94.5429 101.246C94.5429 101.246 94.1384 101.691 94.8868 101.987L97.0172 99.2502C97.0172 99.2502 97.3139 99.0075 97.3004 98.1243C97.3004 97.5377 97.0172 96.5803 96.2217 96.823C96.2217 96.823 96.1138 95.7915 95.3857 95.5488C94.6575 95.3061 94.4418 95.8185 94.4418 95.8185C94.3705 95.689 94.2587 95.5865 94.1234 95.5268C93.9882 95.4672 93.8371 95.4536 93.6934 95.4881C93.0866 95.5488 92.0753 97.1601 92.0753 97.1601Z" fill="#FFBF9D"/>
<path d="M63.0301 137.322C61.898 136.082 61.2653 134.466 61.2541 132.786C61.2429 131.107 61.8539 129.483 62.9694 128.227C63.3743 127.776 63.8503 127.393 64.3785 127.095C67.9113 125.133 85.1304 118.883 85.1304 118.883L93.9422 101.987L103.253 104.158C103.253 104.158 96.3221 125.49 91.1645 128.645C85.245 132.273 74.9837 137.868 71.2351 139.048" fill="#E0E0E0"/>
<path d="M71.2357 139.021C71.3075 138.978 71.3845 138.944 71.4649 138.92C71.62 138.859 71.856 138.779 72.1391 138.65C72.7392 138.401 73.6291 138.023 74.7483 137.484C76.9934 136.419 80.2093 134.754 84.1264 132.556C86.0883 131.457 88.2323 130.23 90.5043 128.848C91.089 128.528 91.6248 128.126 92.0955 127.654C92.5727 127.155 93.0121 126.621 93.4101 126.056C94.2385 124.859 94.9885 123.609 95.6552 122.315C97.0993 119.508 98.4 116.63 99.5521 113.692C100.772 110.637 101.959 107.415 103.071 104.077L103.193 104.3L97.0441 102.891L93.9023 102.136L94.0978 102.048C90.9695 108.022 87.9963 113.712 85.2726 118.903V118.964H85.2186C80.4992 120.676 76.1574 122.335 72.3009 123.798C70.3727 124.546 68.5659 125.268 66.9073 125.975C66.0781 126.333 65.2893 126.683 64.5611 127.068C63.8698 127.428 63.2649 127.934 62.788 128.551C61.9468 129.587 61.4496 130.86 61.3654 132.192C61.3143 133.181 61.4681 134.17 61.8171 135.097C62.1265 135.87 62.5442 136.594 63.0577 137.248C63.0577 137.248 63.0172 137.214 62.9498 137.134C62.8824 137.053 62.7678 136.931 62.6397 136.763C61.9388 135.861 61.4749 134.798 61.29 133.671C61.1051 132.544 61.2052 131.389 61.5812 130.311C61.8307 129.631 62.1881 128.996 62.6397 128.43C63.1248 127.785 63.7464 127.255 64.46 126.879C65.1949 126.481 65.9837 126.124 66.813 125.76C68.4647 125.038 70.2716 124.303 72.2066 123.548C76.0562 122.025 80.3981 120.386 85.1107 118.66L85.0231 118.735C87.7199 113.516 90.7134 107.819 93.8282 101.832L93.8888 101.718H94.0169L97.1857 102.446L103.334 103.855L103.523 103.902L103.462 104.084C102.343 107.437 101.163 110.649 99.9229 113.719C98.7641 116.664 97.4521 119.547 95.9923 122.355C95.317 123.662 94.5534 124.921 93.7068 126.124C93.3016 126.703 92.8507 127.248 92.3584 127.755C91.8685 128.24 91.3124 128.654 90.7066 128.982C88.4278 130.331 86.2771 131.571 84.3017 132.664C80.3644 134.834 77.1282 136.466 74.8629 137.504C73.7302 138.023 72.8403 138.381 72.22 138.61C71.9167 138.731 71.6739 138.799 71.5458 138.853L71.2357 139.021Z" fill="#263238"/>
<path d="M141.656 72.9833C140.159 73.8665 120.257 88.2269 118.551 93.1082C116.845 97.9894 123.216 133.351 123.216 133.351L137.375 132.677L133.606 99.0748L161.922 82.3075L163.83 64.7783L141.656 72.9833Z" fill="#263238"/>
<path d="M158.41 80.2917L174.328 97.4164C174.328 97.4164 176.512 105.197 178.373 110.287C180.234 115.377 183.375 123.858 183.375 123.858L186.807 135.131L197.877 132.684C197.877 132.684 193.744 114.649 192.679 107.698C191.827 102.76 190.624 97.8888 189.079 93.1217L180.274 70.8731L170.694 58.3127L158.41 80.2917Z" fill="#263238"/>
<path opacity="0.3" d="M133.201 79.2129C133.201 79.2129 145.627 83.9795 149.746 83.1233C153.865 82.267 160.736 72.1271 160.736 72.1271L170.849 82.3682L183.092 77.9454L182.101 73.9946C182.101 73.9946 164.531 69.4572 164.498 69.4033C164.464 69.3494 158.133 69.4033 158.133 69.4033L147.494 76.7453L135.979 76.8937L133.201 79.2129Z" fill="black"/>
<path d="M193.475 123.98L197.143 135.563L202.678 143.889C202.773 144.031 202.837 144.191 202.867 144.359C202.898 144.527 202.893 144.7 202.854 144.866C202.815 145.032 202.742 145.189 202.639 145.326C202.537 145.463 202.408 145.577 202.26 145.662C202.088 145.76 201.894 145.816 201.696 145.824C201.498 145.833 201.3 145.793 201.121 145.709C198.795 144.624 190.428 140.633 190.023 139.736C189.619 138.839 185.351 127.755 185.351 127.755L193.475 123.98Z" fill="#263238"/>
<path d="M202.26 145.662L189.76 138.961L189.922 139.446C190.066 139.869 190.355 140.227 190.738 140.457C191.763 141.064 194.621 142.682 201.087 145.723C201.272 145.81 201.476 145.85 201.681 145.839C201.886 145.829 202.084 145.768 202.26 145.662Z" fill="#E0E0E0"/>
<path d="M197.925 141.536C198.044 141.069 198.287 140.643 198.627 140.301C198.967 139.96 199.393 139.715 199.86 139.594C199.86 139.561 199.684 139.52 199.408 139.594C199.04 139.675 198.703 139.86 198.437 140.127C198.173 140.395 197.988 140.731 197.904 141.098C197.844 141.361 197.884 141.536 197.925 141.536Z" fill="white"/>
<path d="M199.273 142.797C199.347 142.797 199.59 142.325 200.123 141.954C200.468 141.756 200.826 141.58 201.195 141.428C200.98 141.375 200.756 141.376 200.543 141.43C200.329 141.484 200.131 141.59 199.968 141.738C199.347 142.163 199.192 142.783 199.273 142.797Z" fill="white"/>
<path d="M195.72 140.08C196.092 139.59 196.5 139.128 196.941 138.698C197.44 138.332 197.965 138.003 198.511 137.713C197.868 137.797 197.262 138.065 196.767 138.485C196.272 138.905 195.908 139.458 195.72 140.08Z" fill="white"/>
<path d="M194.311 136.655C194.365 136.715 194.911 136.23 195.727 135.92C196.543 135.61 197.264 135.583 197.264 135.502C196.715 135.365 196.135 135.424 195.626 135.67C195.085 135.833 194.619 136.182 194.311 136.655Z" fill="white"/>
<path d="M130.005 96.7422C130.78 96.7388 131.535 96.9872 132.156 97.4501C132.841 97.8092 133.396 98.3754 133.741 99.0681C133.66 99.1356 132.999 98.3939 131.967 97.7197C130.936 97.0455 129.978 96.8298 130.005 96.7422Z" fill="#455A64"/>
<path d="M186.463 99.2299C186.463 99.2636 186.241 99.5468 185.728 99.9041C185.059 100.335 184.309 100.626 183.524 100.76C182.741 100.895 181.939 100.874 181.164 100.7C180.835 100.653 180.522 100.525 180.254 100.329C181.314 100.514 182.395 100.542 183.463 100.41C184.514 100.16 185.524 99.7626 186.463 99.2299Z" fill="#455A64"/>
<path d="M125.96 124.034L126.432 134.767C126.432 134.767 115.645 138.812 115.571 140.835L136.417 140.666L135.615 125.355L125.96 124.034Z" fill="#263238"/>
<path d="M136.417 140.673L136.343 138.988L116.387 139.776C116.387 139.776 115.463 140.188 115.571 140.842L136.417 140.673Z" fill="#E0E0E0"/>
<path d="M126.095 134.659C126.095 134.76 126.607 134.807 127.106 135.131C127.605 135.455 127.882 135.879 127.976 135.839C128.07 135.799 127.915 135.205 127.302 134.828C126.688 134.45 126.068 134.572 126.095 134.659Z" fill="white"/>
<path d="M123.911 135.583C123.911 135.684 124.336 135.853 124.68 136.257C125.024 136.662 125.131 137.14 125.239 137.133C125.347 137.127 125.394 136.554 124.956 136.028C124.518 135.502 123.918 135.488 123.911 135.583Z" fill="white"/>
<path d="M122.69 138.212C122.785 138.212 122.919 137.72 122.69 137.167C122.461 136.614 121.949 136.392 121.901 136.493C121.854 136.594 122.158 136.871 122.373 137.329C122.589 137.787 122.589 138.199 122.69 138.212Z" fill="white"/>
<path d="M124.956 44.7344L138.312 63.3221L143.706 67.2526L142.108 71.4259L134.563 78.1275C134.563 78.1275 147.063 83.3121 151.661 80.3186C156.259 77.3252 160.641 70.0708 160.641 70.0708L171.914 80.8108L186.072 75.1745C186.072 75.1745 179.876 62.8164 171.314 55.771L166.237 40.1431L156.799 25.6949L145.337 29.43L129.035 40.7835L124.956 44.7344Z" fill="#8ACEB2"/>
<path d="M135.595 37.7564C136.363 37.7564 144.953 42.7859 144.953 42.7859L146.827 31.9987L145.431 29.457L148.216 30.4683L152.699 34.7966L163.857 52.3933C163.062 56.87 160.318 63.5176 160.237 65.8773C160.237 65.8773 148.378 64.866 145.654 59.1353C142.93 53.4046 137.139 42.9545 137.139 42.9545L135.595 37.7564Z" fill="white"/>
<path d="M147.413 49.393C147.413 50.3571 150.555 63.7939 153.171 64.5221C155.787 65.2502 159.866 65.9379 159.866 65.9379V59.4858L149.335 47.1547L149.025 43.8511L145.162 43.4061L144.211 48.1997L147.413 49.393Z" fill="#8ACEB2"/>
<path d="M128.28 42.2398C128.28 42.2398 125.684 44.5186 124.956 44.7343C124.228 44.9501 121.47 52.4202 121.47 52.4202L114.398 69.9831L101.959 86.582L108.964 93.1082C108.964 93.1082 124.653 77.278 125.758 73.0238L133.485 57.0385L128.28 42.2398Z" fill="#8ACEB2"/>
<path d="M160.716 69.4034C160.675 69.3629 161.329 68.7292 162.287 67.5358C163.244 66.3425 164.518 64.7312 165.86 62.8636L169.291 58.0633C169.736 57.4498 170.107 56.9644 170.37 56.634C170.493 56.4504 170.64 56.2848 170.808 56.1418C170.416 56.858 169.977 57.5472 169.494 58.2049C168.658 59.4589 167.471 61.1916 166.123 63.0659C164.984 64.6764 163.758 66.2226 162.448 67.6976C161.943 68.264 161.511 68.6955 161.194 68.9854C160.877 69.2753 160.729 69.4236 160.716 69.4034Z" fill="#263238"/>
<path d="M152.544 66.9223C151.877 66.899 151.213 66.811 150.562 66.6593C149.349 66.4436 147.683 66.0863 145.843 65.6009C144.002 65.1154 142.404 64.5895 141.238 64.1783C140.6 63.9825 139.981 63.7275 139.391 63.4164C140.047 63.5394 140.691 63.7153 141.319 63.9423C142.492 64.2929 144.124 64.7783 145.937 65.2907C147.751 65.8031 149.396 66.1672 150.596 66.4503C151.258 66.5519 151.909 66.7098 152.544 66.9223Z" fill="#263238"/>
<path d="M127.882 49.9932C128.058 50.1311 128.214 50.2921 128.347 50.4718C128.63 50.8022 129.021 51.2741 129.507 51.8674C130.478 53.054 131.799 54.7126 133.235 56.5868C134.671 58.4611 135.932 60.1062 136.882 61.3062C137.341 61.9198 137.712 62.4187 137.954 62.7693C138.099 62.9404 138.22 63.131 138.312 63.3356C138.137 63.1938 137.981 63.0307 137.847 62.8502C137.563 62.5265 137.172 62.0479 136.687 61.4546C135.716 60.268 134.395 58.6162 132.959 56.7756C131.523 54.9351 130.262 53.263 129.311 52.0562C128.853 51.4427 128.489 50.9438 128.239 50.5932C128.091 50.4117 127.971 50.2095 127.882 49.9932Z" fill="#263238"/>
<path d="M151.405 33.7651C151.469 34.5526 151.469 35.344 151.405 36.1315C151.405 37.5945 151.324 39.6104 151.236 41.842C151.236 42.6173 151.175 43.3589 151.142 44.0601V44.2421H150.987C149.294 44.0466 147.838 43.8579 146.8 43.7163C146.246 43.6712 145.697 43.5741 145.162 43.4264C145.716 43.4036 146.271 43.4307 146.82 43.5073C147.852 43.5882 149.301 43.7298 150.98 43.905L150.811 44.0669C150.811 43.3927 150.865 42.6241 150.892 41.8487C150.98 39.6171 151.074 37.6013 151.169 36.145C151.19 35.3471 151.269 34.5517 151.405 33.7651Z" fill="#263238"/>
<path d="M138.096 44.9568C138.665 45.2091 139.209 45.5138 139.721 45.867C140.699 46.467 142.04 47.3165 143.51 48.2739L144.184 48.7053L143.921 48.7997C144.326 47.3165 144.595 45.9344 144.784 44.9635C144.864 44.4337 144.993 43.9124 145.169 43.4061C145.176 43.9428 145.124 44.4788 145.013 45.004C144.829 46.3177 144.574 47.6208 144.252 48.9076L144.191 49.1301L143.989 49.002L143.315 48.5638C141.851 47.6064 140.53 46.7299 139.586 46.076C139.054 45.753 138.555 45.3781 138.096 44.9568Z" fill="#263238"/>
<path d="M156.758 25.6949C156.758 25.6949 159.866 24.6499 161.511 25.3915C164.687 26.8411 185.256 37.9114 186.113 38.5047C186.969 39.098 198.127 57.0992 198.127 57.0992L190.475 61.8186L179.566 46.8513L159.677 39.3744C159.677 39.3744 156.664 35.491 156.178 32.2212C155.926 30.029 156.123 27.8084 156.758 25.6949Z" fill="#8ACEB2"/>
<path d="M166.237 40.143C166.543 40.8498 166.81 41.5722 167.04 42.3072L168.927 47.539C170.424 51.6246 171.55 54.9552 171.388 55.0226C171.291 54.8398 171.212 54.6479 171.152 54.4495C170.977 54.0046 170.781 53.4787 170.545 52.8786C170.04 51.5302 169.339 49.7099 168.597 47.6603C167.855 45.6108 167.249 43.75 166.804 42.3881C166.595 41.7139 166.44 41.1476 166.345 40.7565C166.284 40.5574 166.247 40.3512 166.237 40.143Z" fill="#263238"/>
<path d="M162.26 35.7337C161.881 35.4691 161.546 35.146 161.269 34.7764C160.54 33.9338 159.907 33.0136 159.381 32.0324C158.862 31.0494 158.448 30.0144 158.147 28.9445C157.991 28.5119 157.909 28.056 157.904 27.5961C158.426 29.0527 159.027 30.4796 159.704 31.8706C160.489 33.2014 161.342 34.4908 162.26 35.7337Z" fill="#263238"/>
<path d="M159.077 68.5201C158.486 68.688 157.878 68.7897 157.264 68.8235C155.79 68.9734 154.308 69.0275 152.827 68.9853C151.346 68.9396 149.869 68.8 148.405 68.5673C147.793 68.4992 147.191 68.3612 146.611 68.1561C147.224 68.1619 147.835 68.216 148.438 68.3179C149.558 68.446 151.135 68.5808 152.834 68.6347C154.533 68.6887 156.118 68.6347 157.243 68.5741C157.852 68.5087 158.466 68.4907 159.077 68.5201Z" fill="#263238"/>
<path d="M147.494 30.2323H147.784C148.067 30.2485 148.349 30.2846 148.627 30.3402C149.663 30.5975 150.658 31.0016 151.58 31.5402C154.738 33.5156 157.575 35.962 159.994 38.7946L160.095 38.9093L159.987 39.0171C159.529 39.4823 159.03 39.988 158.531 40.5071L158.409 40.2172H160.324L160.365 40.3251C160.965 41.8892 161.598 43.5275 162.246 45.2063C162.974 47.1008 163.682 48.9414 164.342 50.674V50.7145C164.078 53.2016 163.458 55.6378 162.502 57.9487C161.769 59.7729 161.161 61.6447 160.682 63.5513C160.38 64.8117 160.24 66.1052 160.264 67.401C160.264 68.3044 160.392 68.7966 160.365 68.7966C160.323 68.6833 160.293 68.5657 160.277 68.446C160.214 68.1005 160.171 67.7515 160.149 67.401C160.075 66.0936 160.182 64.7824 160.466 63.5041C160.919 61.5803 161.504 59.6902 162.219 57.8475C163.149 55.5598 163.748 53.1511 163.999 50.6943V50.7617C163.324 49.029 162.65 47.1884 161.888 45.3007C161.246 43.6152 160.621 41.9859 160.014 40.4127L160.176 40.5206H157.978L158.261 40.2374L159.724 38.7542V38.9767C157.338 36.1547 154.553 33.6951 151.458 31.6751C150.561 31.1287 149.595 30.7026 148.586 30.4076C147.892 30.2997 147.494 30.266 147.494 30.2323Z" fill="#263238"/>
<path d="M134.328 57.4632C132.832 57.7166 131.32 57.8564 129.804 57.8812C128.291 58.0194 126.769 58.042 125.253 57.9486C126.75 57.691 128.265 57.5512 129.784 57.5306C131.294 57.3883 132.814 57.3657 134.328 57.4632Z" fill="#263238"/>
<path d="M150.016 64.3805C149.917 64.3759 149.82 64.36 149.726 64.3333C149.445 64.2827 149.168 64.2152 148.896 64.131C147.886 63.8235 146.92 63.3837 146.024 62.8231C144.677 61.9753 143.423 60.9877 142.282 59.8768C140.975 58.6296 139.619 57.18 138.183 55.5754L138.075 55.4541L138.183 55.3395C138.75 54.7597 139.228 54.0248 139.855 53.3641L140.064 53.6405L139.518 53.9371L137.448 55.0563L137.26 55.1574L137.192 54.9552C136.065 51.3649 135.239 47.6867 134.725 43.959C134.529 42.5499 134.421 41.4105 134.361 40.6284C134.327 40.2374 134.32 39.9542 134.307 39.7317C134.29 39.6267 134.29 39.5199 134.307 39.4149C134.343 39.5144 134.363 39.6191 134.367 39.725L134.482 40.6149C134.576 41.397 134.725 42.5229 134.947 43.9253C135.533 47.6272 136.394 51.2802 137.523 54.854L137.266 54.7529L139.343 53.627L139.889 53.3303L140.873 52.7977L140.105 53.6068C139.505 54.2338 139.019 54.9552 138.426 55.5822V55.3462C139.855 56.9238 141.19 58.4071 142.471 59.6543C143.587 60.7646 144.811 61.7607 146.125 62.6276C147.337 63.384 148.646 63.9736 150.016 64.3805Z" fill="#263238"/>
<path d="M159.967 65.9379C159.322 65.9537 158.678 65.8994 158.045 65.7761C156.503 65.5658 154.979 65.2344 153.488 64.7851C151.991 64.3349 150.553 63.7056 149.207 62.9108C148.635 62.6081 148.106 62.2293 147.636 61.7849C147.669 61.7377 148.31 62.1422 149.328 62.695C150.689 63.4136 152.116 64.0006 153.589 64.448C157.048 65.4795 159.987 65.8098 159.967 65.9379Z" fill="#263238"/>
<g opacity="0.3">
<path d="M161.578 68.6415C163.873 67.9775 165.889 66.5838 167.321 64.6714C168.753 62.759 169.523 60.4321 169.513 58.043" fill="black"/>
</g>
<g opacity="0.3">
<path d="M153.428 32.7673C156.382 34.2931 158.954 36.4664 160.952 39.125C160.712 39.238 160.524 39.4381 160.426 39.6846L161.404 39.961C162.114 42.86 162.819 45.7591 163.521 48.6582L160.17 40.1093L158.552 40.2779L160.069 38.9295C158.224 37.3405 156.552 35.5621 155.08 33.6235" fill="black"/>
</g>
<path opacity="0.3" d="M139.903 46.1299L145.162 50.9707L145.977 44.3568L152.288 44.7411L151.384 36.6237L151.007 43.4803L145.162 43.1635L144.083 48.8537" fill="black"/>
<path opacity="0.3" d="M166.79 42.0578L164.997 36.6237L168.779 42.8061L166.79 42.0578Z" fill="black"/>
<path d="M182.964 41.2488C182.439 41.6274 181.974 42.0818 181.582 42.5972C181.277 43.159 181.05 43.7602 180.908 44.3838C180.867 44.3838 180.793 44.1613 180.813 43.7837C180.851 43.2912 181.012 42.8162 181.284 42.4034C181.555 41.9906 181.927 41.6536 182.364 41.424C182.715 41.2285 182.951 41.2083 182.964 41.2488Z" fill="#263238"/>
<path d="M126.83 10.2423C126.414 10.0147 125.937 9.92226 125.466 9.97783C124.995 10.0334 124.553 10.2342 124.201 10.5524C123.503 10.503 122.808 10.6886 122.228 11.0796C121.648 11.4705 121.215 12.0444 120.999 12.7098C120.518 12.7304 120.051 12.8747 119.643 13.1287C119.235 13.3828 118.899 13.7379 118.669 14.1597C118.438 14.5815 118.321 15.0558 118.327 15.5364C118.334 16.0171 118.464 16.488 118.706 16.9034C118.26 17.1027 117.888 17.4371 117.642 17.8595C117.396 18.2819 117.289 18.7709 117.335 19.2574C117.382 19.7439 117.581 20.2034 117.903 20.5709C118.225 20.9385 118.655 21.1956 119.131 21.3059C118.783 21.7365 118.607 22.2807 118.637 22.8334C118.667 23.3862 118.9 23.9083 119.293 24.2989C119.685 24.6895 120.208 24.9208 120.761 24.9483C121.314 24.9758 121.857 24.7974 122.286 24.4477L127.902 12.6627C127.996 12.1979 127.943 11.7156 127.751 11.2821C127.559 10.8486 127.237 10.4853 126.83 10.2423Z" fill="#263238"/>
<path d="M122.185 24.8859C121.055 22.7846 120.757 20.335 121.35 18.0241C121.944 15.7132 123.385 13.7101 125.387 12.4132L125.799 12.1502C130.417 9.52761 135.237 11.9884 137.718 16.6809L145.431 29.4907L146.834 31.965L145.263 42.5499L136.957 39.3879L135.716 37.5878C135.716 37.5878 130.997 39.6913 128.185 35.4439C126.823 33.3673 124.363 28.9378 122.185 24.8859Z" fill="#FFBF9D"/>
<path d="M135.729 37.5878C137.699 36.2991 139.259 34.4746 140.226 32.329C140.226 32.329 140.901 36.2664 136.437 38.6261L135.729 37.5878Z" fill="#FF9A6C"/>
<path d="M125.987 28.0479C126.088 28.2085 126.247 28.3233 126.431 28.3675C126.615 28.4116 126.81 28.3816 126.972 28.2839C127.056 28.2424 127.13 28.1838 127.191 28.1119C127.251 28.04 127.295 27.9563 127.321 27.8662C127.347 27.7761 127.354 27.6816 127.342 27.5886C127.329 27.4957 127.297 27.4064 127.248 27.3265C127.147 27.1654 126.986 27.0504 126.801 27.0063C126.616 26.9622 126.42 26.9924 126.257 27.0905C126.174 27.1326 126.1 27.1916 126.04 27.2638C125.981 27.336 125.937 27.4198 125.911 27.5098C125.886 27.5999 125.88 27.6942 125.893 27.7868C125.906 27.8795 125.938 27.9684 125.987 28.0479Z" fill="#263238"/>
<path d="M124.551 26.6253C124.679 26.6253 124.915 26.0186 125.576 25.5938C126.237 25.1691 126.925 25.1893 126.925 25.0612C126.925 24.9331 126.763 24.9061 126.453 24.8926C126.042 24.8803 125.638 24.9932 125.293 25.2163C124.95 25.4366 124.686 25.7599 124.538 26.1399C124.437 26.4366 124.491 26.6253 124.551 26.6253Z" fill="#263238"/>
<path d="M131.806 24.6836C131.906 24.8443 132.065 24.9591 132.25 25.0032C132.434 25.0474 132.628 25.0173 132.79 24.9196C132.874 24.8781 132.949 24.8196 133.009 24.7476C133.069 24.6757 133.114 24.592 133.14 24.5019C133.166 24.4118 133.173 24.3173 133.16 24.2244C133.147 24.1314 133.116 24.0422 133.067 23.9622C132.965 23.8011 132.804 23.6862 132.619 23.6421C132.434 23.5979 132.239 23.6282 132.075 23.7263C131.992 23.7683 131.918 23.8274 131.859 23.8996C131.799 23.9717 131.755 24.0555 131.73 24.1456C131.704 24.2356 131.698 24.33 131.711 24.4226C131.724 24.5152 131.756 24.6041 131.806 24.6836Z" fill="#263238"/>
<path d="M130.781 22.4722C130.909 22.4722 131.152 21.8654 131.806 21.4407C132.46 21.0159 133.154 21.0294 133.154 20.9081C133.154 20.7867 132.999 20.753 132.689 20.7395C132.276 20.7258 131.869 20.8387 131.523 21.0631C131.182 21.2855 130.918 21.6082 130.768 21.9868C130.693 22.2767 130.72 22.4655 130.781 22.4722Z" fill="#263238"/>
<path d="M131.765 28.7491C131.349 28.8655 130.948 29.0331 130.572 29.248C130.397 29.3356 130.215 29.4098 130.114 29.3087C129.985 29.1471 129.912 28.9486 129.905 28.7423C129.797 28.2299 129.689 27.6973 129.574 27.1377C129.332 25.7634 128.981 24.4106 128.522 23.0925C128.653 24.4916 128.894 25.8781 129.244 27.2389C129.365 27.7917 129.487 28.3243 129.601 28.83C129.626 29.1003 129.746 29.3532 129.938 29.5446C130.001 29.5874 130.072 29.6157 130.146 29.6273C130.221 29.639 130.297 29.6338 130.37 29.612C130.483 29.5804 130.59 29.5303 130.687 29.4637C131.076 29.274 131.439 29.0337 131.765 28.7491Z" fill="#263238"/>
<path d="M129.554 20.598C129.743 20.7193 130.228 20.2002 130.903 19.7687C131.577 19.3372 132.251 19.0945 132.251 18.8922C132.251 18.7911 132.015 18.7102 131.678 18.7169C131.253 18.7437 130.843 18.8783 130.485 19.108C130.126 19.3324 129.835 19.6491 129.642 20.0249C129.48 20.3148 129.473 20.5575 129.554 20.598Z" fill="#263238"/>
<path d="M123.533 24.7376C123.735 24.8252 124.126 24.4072 124.693 24.0634C125.259 23.7195 125.805 23.5982 125.832 23.3892C125.832 23.2813 125.677 23.1667 125.38 23.133C125.002 23.1025 124.623 23.1896 124.295 23.3824C123.965 23.5723 123.7 23.8564 123.533 24.1982C123.419 24.4881 123.439 24.6904 123.533 24.7376Z" fill="#263238"/>
<path d="M121.322 22.6611C121.322 22.6611 120.722 19.2496 121.605 17.7866C122.684 16.0202 124.463 17.3012 125.65 15.9191C126.837 14.537 127.895 12.8447 130.167 13.0133C132.648 13.1953 132.439 14.5841 133.774 16.3843C139.168 23.8005 141.979 25.0814 140.037 21.198C139.822 20.7666 140.712 19.7418 139.801 17.9551C138.601 15.6426 136.977 12.9458 135.493 11.7188C134.203 10.688 132.601 10.1269 130.949 10.1277C127.834 9.92542 124.929 11.7592 123.095 13.2223C121.261 14.6853 118.975 19.4182 121.322 22.6611Z" fill="#263238"/>
<path d="M139.721 21.2857C139.625 21.1252 139.562 20.9469 139.537 20.7616C139.512 20.5763 139.525 20.3878 139.574 20.2075C139.624 20.0273 139.71 19.859 139.827 19.7129C139.943 19.5667 140.089 19.4458 140.253 19.3575C141.103 18.9192 142.276 18.7979 143.294 20.4766C145.094 23.4633 141.723 24.6567 141.669 24.5758C141.615 24.4949 140.462 22.5801 139.721 21.2857Z" fill="#FFBF9D"/>
<path d="M141.642 23.0588C141.642 23.0588 141.717 23.0588 141.831 23.0588C141.986 23.0358 142.126 22.9537 142.222 22.8296C142.34 22.5914 142.393 22.3262 142.376 22.0609C142.358 21.7956 142.27 21.5397 142.121 21.3194C141.976 21.0531 141.774 20.8226 141.528 20.6452C141.443 20.5693 141.341 20.5149 141.231 20.4867C141.12 20.4586 141.005 20.4574 140.894 20.4834C140.824 20.5036 140.763 20.5477 140.723 20.6082C140.682 20.6686 140.664 20.7413 140.672 20.8138C140.672 20.9216 140.739 20.9688 140.725 20.9823C140.712 20.9958 140.631 20.9823 140.584 20.834C140.553 20.7513 140.553 20.6605 140.584 20.5778C140.629 20.466 140.716 20.3764 140.827 20.3283C140.963 20.2762 141.112 20.2612 141.256 20.2849C141.4 20.3086 141.536 20.3701 141.649 20.4632C141.93 20.6443 142.162 20.8921 142.323 21.1846C142.496 21.443 142.588 21.7468 142.588 22.0577C142.588 22.3685 142.496 22.6723 142.323 22.9307C142.256 23.0016 142.174 23.057 142.083 23.0931C141.993 23.1292 141.895 23.1451 141.797 23.1398C141.69 23.1263 141.636 23.0723 141.642 23.0588Z" fill="#FF9A6C"/>
<path d="M135.999 15.6561C135.826 16.1708 135.527 16.6342 135.129 17.0045C134.924 17.186 134.659 17.2862 134.384 17.2862C134.11 17.2862 133.845 17.186 133.639 17.0045C133.471 16.8224 133.37 16.5528 133.134 16.4853C132.898 16.4179 132.594 16.6472 132.365 16.8359C131.959 17.1456 131.458 17.306 130.947 17.29C130.437 17.274 129.947 17.0828 129.561 16.7483C129.524 16.9781 129.403 17.1859 129.22 17.3307C129.038 17.4755 128.808 17.5467 128.576 17.5304C128.113 17.4812 127.659 17.3677 127.228 17.1933C127.009 17.1031 126.77 17.0695 126.535 17.0954C126.299 17.1213 126.074 17.206 125.879 17.3416C125.684 17.5101 125.563 17.7663 125.333 17.8877C124.929 18.1034 124.45 17.7731 124.14 17.4292C123.83 17.0854 123.506 16.6741 123.048 16.6741C122.589 16.6741 122.299 17.0449 121.983 17.3483C121.666 17.6517 121.153 17.8472 120.836 17.5573C120.762 17.4745 120.705 17.3775 120.669 17.272C120.633 17.1666 120.619 17.0549 120.627 16.9438C120.638 16.4361 120.821 15.947 121.145 15.5564C121.47 15.1658 121.917 14.8967 122.414 14.7931C122.246 14.2126 122.253 13.5954 122.435 13.019C122.616 12.4425 122.964 11.9325 123.434 11.553C123.904 11.1735 124.476 10.9413 125.078 10.8856C125.68 10.8299 126.285 10.9533 126.817 11.2401C126.946 10.7578 127.189 10.3137 127.526 9.9454C127.863 9.57707 128.284 9.29534 128.753 9.12404C129.221 8.95274 129.725 8.89692 130.22 8.9613C130.715 9.02568 131.187 9.20836 131.597 9.49389C131.892 9.16775 132.277 8.93559 132.703 8.82624C133.129 8.71689 133.578 8.73518 133.994 8.87883C134.41 9.02248 134.774 9.28517 135.042 9.63424C135.31 9.98332 135.469 10.4034 135.5 10.8423C135.86 10.8007 136.225 10.8513 136.56 10.9893C136.894 11.1273 137.189 11.3481 137.415 11.6311C137.516 11.777 137.584 11.9432 137.614 12.1181C137.645 12.293 137.636 12.4725 137.59 12.6438C137.544 12.8152 137.461 12.9745 137.347 13.1105C137.233 13.2465 137.09 13.3559 136.93 13.4312C137.198 13.5958 137.394 13.8557 137.479 14.1588C137.563 14.462 137.53 14.7859 137.386 15.0658C137.242 15.3456 136.997 15.5605 136.701 15.6675C136.405 15.7745 136.08 15.7656 135.79 15.6426" fill="#263238"/>
<path d="M134.071 28.7423C134.106 28.6696 134.166 28.6121 134.24 28.5805C134.312 28.5732 134.385 28.595 134.442 28.6412C134.688 28.8057 134.889 29.0297 135.026 29.2926C135.163 29.5554 135.231 29.8485 135.224 30.1446C135.206 30.3426 135.138 30.5328 135.027 30.6972C134.915 30.8615 134.763 30.9946 134.585 31.0837C134.408 31.1729 134.21 31.2152 134.012 31.2066C133.813 31.198 133.62 31.1388 133.451 31.0346L132.898 30.7042L134.071 28.7423Z" fill="#FF9A6C"/>
<path d="M133.768 31.1897C133.927 31.2421 134.095 31.2579 134.261 31.2357C134.427 31.2135 134.586 31.154 134.725 31.0616C134.881 30.9796 135.012 30.8559 135.103 30.7043C135.222 30.5411 135.293 30.3468 135.305 30.1447C135.306 29.6932 135.157 29.2541 134.88 28.8974C134.815 28.8004 134.742 28.7081 134.664 28.621C134.618 28.5678 134.561 28.5248 134.497 28.4946C134.433 28.4644 134.364 28.4478 134.294 28.4457C134.224 28.4566 134.158 28.4845 134.102 28.5268C134.045 28.5691 134 28.6246 133.97 28.6884L133.828 28.9513L133.336 29.8615C133.168 30.1346 133.032 30.4265 132.932 30.7312C133.144 30.492 133.325 30.227 133.471 29.9424L134.01 29.0592C134.111 28.9041 134.213 28.6547 134.307 28.6682C134.401 28.6817 134.577 28.8569 134.698 29.0255C134.938 29.3485 135.077 29.7358 135.096 30.1379C135.088 30.3063 135.034 30.4694 134.941 30.6099C134.871 30.7396 134.769 30.8488 134.644 30.9267C134.374 31.0762 134.075 31.1659 133.768 31.1897Z" fill="#263238"/>
<path d="M137.139 13.3166C137.217 13.4087 137.273 13.5169 137.305 13.6334C137.336 13.7499 137.342 13.8719 137.321 13.9908C137.295 14.2724 137.165 14.5344 136.957 14.7257C136.823 14.8443 136.665 14.9323 136.494 14.9835C136.323 15.0348 136.142 15.048 135.966 15.0223L136.08 14.9212C136.103 15.2936 136.065 15.6672 135.966 16.0269C135.903 16.2693 135.795 16.4979 135.649 16.7011C135.451 16.952 135.179 17.1349 134.872 17.2243C134.565 17.3137 134.238 17.3052 133.936 17.2C133.699 17.0928 133.486 16.9392 133.309 16.7483C133.181 16.6134 133.127 16.5325 133.134 16.5258C133.141 16.519 133.222 16.5797 133.363 16.6876C133.55 16.8485 133.762 16.9783 133.99 17.0719C134.18 17.1249 134.378 17.1381 134.573 17.1107C134.768 17.0833 134.956 17.0159 135.123 16.9127C135.291 16.8095 135.436 16.6728 135.548 16.5111C135.661 16.3493 135.738 16.1661 135.777 15.9729C135.864 15.6317 135.902 15.2799 135.891 14.9279V14.8133H136.006C136.157 14.8379 136.312 14.8295 136.46 14.7888C136.608 14.7481 136.745 14.676 136.862 14.5773C137.047 14.4177 137.168 14.198 137.206 13.9571C137.226 13.7412 137.203 13.5236 137.139 13.3166Z" fill="#455A64"/>
<path d="M127.289 10.2086C127.289 10.2086 127.228 10.276 127.134 10.4176C126.999 10.6166 126.926 10.8513 126.925 11.0918V11.1727L126.85 11.139C126.164 10.8824 125.425 10.8035 124.7 10.9097C124.22 10.9761 123.761 11.1439 123.351 11.4019C122.916 11.6881 122.568 12.0895 122.347 12.5615C122.17 12.9283 122.071 13.3278 122.057 13.7346C122.055 14.1131 122.14 14.4869 122.306 14.8268L122.36 14.9212L122.252 14.9549C121.773 15.1117 121.372 15.4474 121.133 15.8921C120.949 16.2416 120.878 16.6399 120.931 17.0315C120.987 17.3822 121.116 17.7174 121.309 18.0158C121.309 18.0158 121.228 17.9551 121.12 17.8001C120.966 17.5755 120.862 17.3202 120.816 17.0517C120.743 16.6316 120.807 16.1989 120.998 15.8179C121.246 15.3271 121.677 14.9539 122.199 14.7796L122.145 14.9145C121.957 14.5496 121.86 14.1449 121.861 13.7346C121.873 13.2373 122.005 12.7502 122.247 12.3155C122.489 11.8809 122.833 11.5117 123.25 11.2401C123.674 10.9749 124.15 10.8047 124.646 10.7412C125.398 10.6393 126.165 10.7418 126.864 11.0378L126.79 11.0918C126.796 10.8299 126.891 10.578 127.059 10.3771C127.201 10.249 127.282 10.2018 127.289 10.2086Z" fill="#455A64"/>
</svg>
